<svg id="04b02e64-d9d5-4b27-a898-656c2b19e224"  xmlns="http://www.w3.org/2000/svg" width="44" height="18.95" viewBox="0 0 44 18.95"><path d="M4.42,7.52,4.06,7a1.05,1.05,0,0,1,.06-1.09l.45-.59a1.24,1.24,0,0,1,1-.48h7.55l.35.56a1.08,1.08,0,0,1-.06,1.11L13.1,7a1.29,1.29,0,0,1-1,.57Z" transform="translate(0)" fill="#fff"/><path d="M12.53,5.8c.08,0,.1.06.06.12l-.33.51a.3.3,0,0,1-.19.12L5,6.53c-.08,0-.1,0-.06-.1l.41-.53a.28.28,0,0,1,.21-.1h7m0-2h-7a2.29,2.29,0,0,0-1.81.89l-.39.51,0,.06,0,.06A2.05,2.05,0,0,0,5,8.52l7,0a2.27,2.27,0,0,0,1.86-1L14.27,7A2.07,2.07,0,0,0,12.53,3.8Z" transform="translate(0)" fill="#fff"/><path d="M1.48,9.32l-.36-.56L.84,8.23l.35-.57.45-.58a1.24,1.24,0,0,1,1-.48H12l.39.45a1.09,1.09,0,0,1,.15,1l-.16.47a1.15,1.15,0,0,1-1.12.8l-9.21,0h-.6Z" transform="translate(0)" fill="#fff"/><path d="M11.52,7.6c.08,0,.12.06.1.12l-.16.47a.17.17,0,0,1-.18.12l-9.21,0c-.08,0-.1,0-.06-.1l.41-.53a.28.28,0,0,1,.21-.1h8.88m0-2H2.64a2.29,2.29,0,0,0-1.81.89L.44,7,.4,7l0,.06a2.05,2.05,0,0,0,1.72,3.21l9.22,0a2.17,2.17,0,0,0,2.08-1.52l.15-.44a2.09,2.09,0,0,0-2-2.75Z" transform="translate(0)" fill="#fff"/><path d="M6.19,11.1l-.35-.56A1.08,1.08,0,0,1,5.9,9.44L6.13,9A1.29,1.29,0,0,1,7.2,8.39h3.89a1.12,1.12,0,0,1,1.12,1.14l0,.55A1.13,1.13,0,0,1,11,11.13Z" transform="translate(0)" fill="#fff"/><path d="M11.09,9.39c.08,0,.12.06.12.14l0,.47a.15.15,0,0,1-.14.14l-4.25,0c-.08,0-.1-.06-.06-.12L7,9.5a.26.26,0,0,1,.2-.12h3.89m0-2H7.2a2.27,2.27,0,0,0-1.86,1l0,.06,0,.07L5,9a2.06,2.06,0,0,0,1.79,3.12l4.24,0a2.14,2.14,0,0,0,2.14-2l0-.43V9.52a2.1,2.1,0,0,0-2.12-2.14Z" transform="translate(0)" fill="#fff"/><path d="M33.43,17.94A8.31,8.31,0,0,1,28,16a7.39,7.39,0,0,1-1.45-1.69,9.08,9.08,0,0,1-6.08,3.52,9.41,9.41,0,0,1-1.25.08,7.7,7.7,0,0,1-4.72-1.56,7.12,7.12,0,0,1-2.87-5A8.62,8.62,0,0,1,13.53,4.9,9.79,9.79,0,0,1,21.3,1a7.33,7.33,0,0,1,4.2,1.27,7,7,0,0,1,2.19,2.32,9.18,9.18,0,0,1,5.76-3.24,10.78,10.78,0,0,1,1.87-.17A7.71,7.71,0,0,1,39.74,2.5a7.06,7.06,0,0,1,3.18,5A8.48,8.48,0,0,1,40.39,15a9.9,9.9,0,0,1-5.19,2.77c-.4.07-.77.11-1.14.14l-.57.06ZM34.86,6.75a2.51,2.51,0,0,0-.57.07,3.26,3.26,0,0,0-2.66,2.64A2.22,2.22,0,0,0,32.85,12a2.64,2.64,0,0,0,1.06.23,2.77,2.77,0,0,0,1.26-.32,3.27,3.27,0,0,0,1.93-2.83V8.93a2.41,2.41,0,0,0,0-.3A2.2,2.2,0,0,0,34.86,6.75ZM19.51,12.16l.4,0a2.63,2.63,0,0,0,.47,0h-1Zm1.25-5.43a2.73,2.73,0,0,0-1.48.5,3.16,3.16,0,0,0-1.53,2.85,2.2,2.2,0,0,0,.36,1.2,1.47,1.47,0,0,1,.05-1.1c.27-.64.75-1.68,1-2.22a1.51,1.51,0,0,1,1.37-.84H22L21.83,7A2.37,2.37,0,0,0,20.75,6.73Z" transform="translate(0)" fill="#fff"/><path d="M21.3,2a6.32,6.32,0,0,1,3.64,1.1A6.11,6.11,0,0,1,27.2,5.84c.12.18,0,.27-.19.33L23.73,7a1.05,1.05,0,0,1-.24.05c-.1,0-.17-.06-.33-.24a2.61,2.61,0,0,0-.92-.74,3.37,3.37,0,0,0-1.5-.37,3.71,3.71,0,0,0-2,.66,4.14,4.14,0,0,0-2,3.7,3.05,3.05,0,0,0,2.63,3.06,4.12,4.12,0,0,0,.54,0,3.6,3.6,0,0,0,2.77-1.32c.17-.21.33-.45.53-.72H19.45c-.41,0-.51-.25-.37-.58.25-.6.72-1.62,1-2.12a.53.53,0,0,1,.49-.31h6.27a8.28,8.28,0,0,1,1.34-2.53,8.16,8.16,0,0,1,5.45-3.25,9.73,9.73,0,0,1,1.7-.16,6.68,6.68,0,0,1,3.85,1.15,6.06,6.06,0,0,1,2.75,4.34,7.52,7.52,0,0,1-2.24,6.6A8.92,8.92,0,0,1,35,16.77c-.53.1-1.05.12-1.56.17a7.3,7.3,0,0,1-4.75-1.71,6.12,6.12,0,0,1-1.95-3,8.17,8.17,0,0,1-.82,1.32,8.11,8.11,0,0,1-5.55,3.31,8.48,8.48,0,0,1-1.11.08,6.7,6.7,0,0,1-4.12-1.36,6.12,6.12,0,0,1-2.47-4.32,7.65,7.65,0,0,1,1.65-5.71A8.8,8.8,0,0,1,21.3,2M33.9,13.23a3.75,3.75,0,0,0,1.71-.43,4.26,4.26,0,0,0,2.47-3.72A5.51,5.51,0,0,0,38,8.43a3.18,3.18,0,0,0-3.17-2.68,3.52,3.52,0,0,0-.8.09,4.25,4.25,0,0,0-3.41,3.39,3.21,3.21,0,0,0,1.79,3.68,3.63,3.63,0,0,0,1.46.32M21.3,0V0a10.8,10.8,0,0,0-8.57,4.3,9.57,9.57,0,0,0-2.05,7.16,8.08,8.08,0,0,0,3.25,5.68,8.69,8.69,0,0,0,5.33,1.77,10.48,10.48,0,0,0,1.38-.09,9.92,9.92,0,0,0,5.88-2.93,8.77,8.77,0,0,0,.86.86,9.29,9.29,0,0,0,6,2.2h.14l.14,0,.47,0c.37,0,.78-.07,1.22-.15a10.93,10.93,0,0,0,5.74-3.06,9.53,9.53,0,0,0,2.8-8.26,8,8,0,0,0-3.6-5.74,8.71,8.71,0,0,0-5-1.5,11.78,11.78,0,0,0-2,.19A10.23,10.23,0,0,0,27.8,3,7.93,7.93,0,0,0,26,1.43,8.31,8.31,0,0,0,21.3,0ZM33.9,11.23a1.64,1.64,0,0,1-.66-.15,1.2,1.2,0,0,1-.64-1.4,2.26,2.26,0,0,1,1.9-1.89,1.56,1.56,0,0,1,.36,0h0a1.19,1.19,0,0,1,1.21,1c0,.07,0,.13,0,.19v.08a2.26,2.26,0,0,1-1.39,2,1.74,1.74,0,0,1-.79.21Z" transform="translate(0)" fill="#fff"/><path d="M12.53,5.8h-7a.28.28,0,0,0-.21.1L5,6.43c0,.06,0,.1.06.1l7.05,0a.3.3,0,0,0,.19-.12l.33-.51C12.63,5.86,12.61,5.8,12.53,5.8Z" transform="translate(0)" fill="#2dbcaf"/><path d="M11.52,7.6H2.64a.28.28,0,0,0-.21.1L2,8.22c0,.06,0,.1.06.1l9.21,0a.17.17,0,0,0,.18-.12l.16-.47A.09.09,0,0,0,11.52,7.6Z" transform="translate(0)" fill="#2dbcaf"/><path d="M11.09,9.39H7.2A.26.26,0,0,0,7,9.5L6.73,10c0,.06,0,.12.06.12l4.25,0a.15.15,0,0,0,.14-.14l0-.47C11.21,9.45,11.17,9.39,11.09,9.39Z" transform="translate(0)" fill="#2dbcaf"/><path d="M41.92,7.67a6.06,6.06,0,0,0-2.75-4.34,7.22,7.22,0,0,0-5.55-1,8.17,8.17,0,0,0-5.45,3.25,8.28,8.28,0,0,0-1.34,2.53H20.56a.53.53,0,0,0-.49.31c-.27.51-.74,1.52-1,2.12-.14.33,0,.58.37.58h3.76c-.19.27-.35.51-.53.72a3.59,3.59,0,0,1-3.31,1.28,3.05,3.05,0,0,1-2.63-3.06,4.14,4.14,0,0,1,2-3.7,3.38,3.38,0,0,1,3.52-.29,2.61,2.61,0,0,1,.92.74c.25.29.27.27.57.2L27,6.17c.23-.06.31-.16.19-.33A6.11,6.11,0,0,0,24.94,3.1a6.71,6.71,0,0,0-5.16-1,8.64,8.64,0,0,0-5.45,3.37,7.64,7.64,0,0,0-1.65,5.71,6.12,6.12,0,0,0,2.47,4.32,6.89,6.89,0,0,0,5.24,1.28,8.11,8.11,0,0,0,5.55-3.31,8.24,8.24,0,0,0,.82-1.32,6.11,6.11,0,0,0,1.95,3,7.3,7.3,0,0,0,4.75,1.71c.51-.06,1-.08,1.56-.17a8.92,8.92,0,0,0,4.67-2.49A7.52,7.52,0,0,0,41.92,7.67ZM35.61,12.8a3.57,3.57,0,0,1-3.17.12,3.21,3.21,0,0,1-1.79-3.68,4.25,4.25,0,0,1,3.41-3.39,3.21,3.21,0,0,1,4,2.59,5.51,5.51,0,0,1,.06.64A4.26,4.26,0,0,1,35.61,12.8Z" transform="translate(0)" fill="#2dbcaf"/></svg>