<svg id="c6fb3d62-00e1-4cb3-bb0c-e40d75859f62"  xmlns="http://www.w3.org/2000/svg" width="22" height="8.22" viewBox="0 0 22 8.22"><g id="1ae62332-65f2-4a51-9263-bc5763120950" ><g id="08be5b6f-7a2a-4c27-bb6c-2daa09c06f92" ><g id="ead20c03-8172-463c-af53-0bdfa32f1439" ><g id="1a737078-bbcb-452b-950d-cb634d6b3e82" ><path id="182b6846-50ee-4d6f-8552-3a462acc2faa"  d="M1.68,2.47s-.05,0,0-.05l.17-.28A.16.16,0,0,1,2,2.07H5.8s.05,0,0,.06l-.18.27a.16.16,0,0,1-.11.07Z" fill="#2dbcaf"/></g></g></g><g id="d0bd4cdb-fcf8-4d36-a7ae-71500524f788" ><g id="299d052a-c777-4766-8abe-02de3a171dac" ><g id="412c764a-27c5-4816-8372-b6f2af284ffc" ><path id="d09cff38-cfc2-4e3c-8f11-2bd754ddc158"  d="M0,3.45S0,3.45,0,3.4L.25,3.1A.16.16,0,0,1,.37,3H5.24a0,0,0,0,1,.05.06l-.08.26a.09.09,0,0,1-.1.06Z" fill="#2dbcaf"/></g></g></g><g id="4ff45ef7-e7bf-426a-9dfa-aa5a57ab8e7c" ><g id="620462d4-23a1-4454-a53d-104a84cb4673" ><g id="61274eba-415d-42db-9966-71c684d34b56" ><path id="b151020e-b14f-4c79-a45f-91cb7bbe4bd5"  d="M2.65,4.44s-.05,0,0-.06l.12-.27A.14.14,0,0,1,2.87,4H5a.07.07,0,0,1,.06.07v.26A.08.08,0,0,1,5,4.44Z" fill="#2dbcaf"/></g></g></g><g id="1331b8f9-e9bb-416b-936f-19d4a86c46f9" ><g id="81ee852c-bf07-42ad-bdf0-e9e852f8e836" ><g id="b1b4ab70-e120-4747-bcae-9ac1f2606aa0" ><g id="f4930bf5-d8b3-4fd7-abf0-69114b502ab1" ><path id="990692c3-2641-405b-b8df-5d71b3ddb1d6"  d="M13.72,2.27l-1.83.46c-.16,0-.17.05-.31-.11a1.42,1.42,0,0,0-.5-.4,1.83,1.83,0,0,0-1.93.17,2.27,2.27,0,0,0-1.05,2A1.67,1.67,0,0,0,9.55,6.09a2,2,0,0,0,1.83-.7c.1-.12.18-.25.29-.39H9.59c-.23,0-.27-.14-.2-.32a10.62,10.62,0,0,1,.55-1.16.29.29,0,0,1,.26-.17h3.88a4,4,0,0,1-.06.87A4.57,4.57,0,0,1,13.1,6.3a4.45,4.45,0,0,1-3,1.82,3.78,3.78,0,0,1-2.87-.7A3.35,3.35,0,0,1,5.87,5a4.19,4.19,0,0,1,.91-3.12,4.74,4.74,0,0,1,3-1.83A3.65,3.65,0,0,1,12.6.61a3.34,3.34,0,0,1,1.24,1.51c.06.1,0,.15-.11.18Z" fill="#2dbcaf"/></g><g id="10702c2e-08bf-48f2-b832-9ceaa20e0adf" ><path id="c8835cc2-0ff1-4460-9190-ce890b5c1421"  d="M17.26,8.21a4,4,0,0,1-2.6-.91,3.34,3.34,0,0,1-1.15-2.06A4.07,4.07,0,0,1,14.37,2a4.48,4.48,0,0,1,3-1.84,4,4,0,0,1,3,.55A3.32,3.32,0,0,1,21.95,3.1a4.12,4.12,0,0,1-1.22,3.65,4.89,4.89,0,0,1-2.56,1.37c-.29.05-.58.06-.85.1ZM19.8,3.9a3.07,3.07,0,0,0,0-.36,1.75,1.75,0,0,0-2-1.45l-.16,0A2.33,2.33,0,0,0,15.8,4a1.75,1.75,0,0,0,1,2,2,2,0,0,0,1.74-.06,2.34,2.34,0,0,0,1.28-2Z" fill="#2dbcaf"/></g></g></g></g></g></svg>