<?xml version="1.0" encoding="utf-8"?>
<!-- Generator: Adobe Illustrator 21.1.0, SVG Export Plug-In . SVG Version: 6.00 Build 0)  -->
<svg version="1.1" id="Layer_1" xmlns="http://www.w3.org/2000/svg" xmlns:xlink="http://www.w3.org/1999/xlink" x="0px" y="0px"
	 viewBox="0 0 43.998 18.947" enable-background="new 0 0 43.998 18.947" xml:space="preserve">
<g>
	<g>
		<g>
			<path fill="#FFFFFF" d="M4.42,7.523L4.064,6.972C3.878,6.627,3.9,6.218,4.124,5.878l0.455-0.59
				C4.765,5.01,5.164,4.805,5.583,4.805h7.552l0.354,0.562c0.186,0.348,0.161,0.773-0.064,1.11l-0.326,0.498
				c-0.225,0.342-0.639,0.569-1.031,0.569L4.42,7.523z"/>
			<path fill="#FFFFFF" d="M12.535,5.804c0.078,0,0.097,0.058,0.058,0.117l-0.331,0.506c-0.039,0.058-0.136,0.117-0.195,0.117
				l-7.05-0.019c-0.078,0-0.097-0.039-0.058-0.097l0.409-0.526c0.039-0.058,0.136-0.097,0.214-0.097H12.535 M12.535,3.804H5.583
				c-0.71,0-1.392,0.338-1.808,0.888L3.381,5.2L3.336,5.257L3.295,5.318C2.868,5.96,2.824,6.773,3.181,7.441
				C3.539,8.11,4.243,8.525,5.018,8.525l7.045,0.019c0.738,0,1.45-0.386,1.864-1.007l0.341-0.521c0.42-0.63,0.463-1.449,0.102-2.122
				C14.01,4.222,13.307,3.804,12.535,3.804L12.535,3.804z"/>
		</g>
		<g>
			<path fill="#FFFFFF" d="M1.475,9.316L1.12,8.757L0.838,8.226l0.353-0.567L1.637,7.08C1.819,6.804,2.22,6.596,2.642,6.596h9.393
				l0.386,0.454c0.203,0.282,0.258,0.647,0.148,0.979l-0.156,0.468c-0.109,0.441-0.58,0.8-1.124,0.8l-9.21,0.02H1.475z"/>
			<path fill="#FFFFFF" d="M11.523,7.596c0.078,0,0.117,0.058,0.097,0.117L11.464,8.18c-0.019,0.078-0.097,0.117-0.175,0.117
				L2.077,8.317c-0.078,0-0.097-0.039-0.058-0.097l0.409-0.526c0.039-0.058,0.136-0.097,0.214-0.097H11.523 M11.523,5.596H2.642
				c-0.71,0-1.392,0.338-1.808,0.888L0.44,6.991L0.395,7.049L0.355,7.11C-0.073,7.751-0.117,8.565,0.24,9.233
				c0.358,0.669,1.062,1.084,1.837,1.084l9.216-0.019c0.96,0,1.8-0.617,2.079-1.515l0.145-0.436c0.212-0.635,0.105-1.338-0.285-1.88
				C12.84,5.921,12.201,5.596,11.523,5.596L11.523,5.596z"/>
		</g>
		<g>
			<path fill="#FFFFFF" d="M6.19,11.105l-0.353-0.559C5.651,10.199,5.675,9.773,5.9,9.437l0.232-0.42
				c0.272-0.413,0.666-0.629,1.067-0.629h3.895c0.626,0,1.117,0.499,1.117,1.137l-0.042,0.55c0.003,0.533-0.517,1.054-1.133,1.054
				L6.19,11.105z"/>
			<path fill="#FFFFFF" d="M11.094,9.388c0.078,0,0.117,0.058,0.117,0.136l-0.039,0.467c0,0.078-0.078,0.136-0.136,0.136
				L6.79,10.108c-0.078,0-0.097-0.058-0.058-0.117l0.273-0.487c0.039-0.058,0.117-0.117,0.195-0.117H11.094 M11.094,7.388H7.199
				c-0.732,0-1.445,0.386-1.859,1.008L5.297,8.46L5.259,8.527L5.002,8.987c-0.368,0.627-0.388,1.395-0.047,2.032
				c0.36,0.672,1.063,1.089,1.835,1.089l4.236,0.019c1.143,0,2.074-0.888,2.142-2.006l0.036-0.432l0.007-0.083V9.524
				C13.211,8.326,12.281,7.388,11.094,7.388L11.094,7.388z"/>
		</g>
		<g>
			<path fill="#FFFFFF" d="M33.429,17.944c-2.112-0.047-3.922-0.704-5.381-1.955c-0.584-0.505-1.07-1.069-1.455-1.688
				c-1.584,2.005-3.627,3.188-6.076,3.518c-0.424,0.057-0.844,0.085-1.25,0.085c-1.752,0-3.341-0.525-4.722-1.562
				c-1.656-1.253-2.619-2.936-2.867-5.004c-0.274-2.308,0.35-4.472,1.855-6.434c1.552-2.033,3.593-3.294,6.067-3.745
				C20.185,1.053,20.757,1,21.302,1c1.546,0,2.959,0.427,4.2,1.271c0.897,0.592,1.632,1.373,2.187,2.324
				c1.481-1.776,3.326-2.812,5.765-3.241c0.649-0.115,1.279-0.173,1.871-0.173c1.636,0,3.121,0.445,4.415,1.323
				c1.823,1.246,2.891,2.94,3.176,5.035c0.368,2.924-0.457,5.354-2.521,7.44c-1.399,1.421-3.145,2.354-5.186,2.769
				c-0.395,0.074-0.771,0.108-1.143,0.142c-0.169,0.015-0.568,0.056-0.568,0.056L33.429,17.944z M34.856,6.751
				c-0.189,0-0.383,0.022-0.574,0.067c-1.453,0.327-2.321,1.19-2.66,2.642c-0.241,1.048,0.272,2.116,1.224,2.539
				c0.349,0.152,0.706,0.23,1.056,0.23c0.413,0,0.836-0.109,1.259-0.324c1.202-0.623,1.834-1.55,1.926-2.829l-0.01-0.15
				c-0.007-0.107-0.009-0.201-0.027-0.295C36.842,7.499,35.963,6.751,34.856,6.751z M19.509,12.156
				c0.132,0.018,0.268,0.026,0.399,0.026c0.162,0,0.319-0.014,0.473-0.042c0,0-0.957,0-0.969,0
				C19.445,12.146,19.477,12.151,19.509,12.156z M20.755,6.73c-0.477,0-0.975,0.167-1.482,0.497
				c-1.031,0.667-1.546,1.625-1.531,2.849c0.005,0.453,0.136,0.866,0.361,1.204c-0.097-0.26-0.143-0.635,0.051-1.104
				c0.268-0.638,0.747-1.676,1.038-2.217c0.256-0.514,0.773-0.837,1.367-0.837h1.478C21.974,7.077,21.907,7.039,21.825,7
				C21.451,6.816,21.107,6.73,20.755,6.73z"/>
			<path fill="#FFFFFF" d="M21.303,2c1.279,0,2.504,0.327,3.638,1.097c1.032,0.682,1.772,1.616,2.259,2.746
				c0.117,0.175,0.039,0.273-0.195,0.331c-1.227,0.312-2.064,0.545-3.272,0.857c-0.108,0.029-0.179,0.05-0.238,0.05
				c-0.101,0-0.167-0.06-0.327-0.244c-0.292-0.331-0.506-0.545-0.915-0.74c-0.507-0.249-1.007-0.366-1.498-0.366
				c-0.697,0-1.376,0.235-2.027,0.658c-1.324,0.857-2.006,2.123-1.986,3.7c0.019,1.558,1.091,2.843,2.629,3.058
				c0.183,0.024,0.362,0.036,0.536,0.036c1.09,0,2.019-0.465,2.774-1.322c0.175-0.214,0.331-0.448,0.526-0.721
				c-0.701,0-1.578,0-3.759,0c-0.409,0-0.506-0.253-0.37-0.584c0.253-0.604,0.721-1.616,0.993-2.123
				c0.058-0.117,0.195-0.312,0.487-0.312c0.887,0,3.901,0,6.27,0c0.282-0.892,0.736-1.735,1.345-2.532
				c1.422-1.87,3.136-2.843,5.453-3.252c0.576-0.102,1.142-0.157,1.697-0.157c1.359,0,2.651,0.335,3.854,1.151
				c1.539,1.052,2.493,2.473,2.746,4.343c0.331,2.629-0.428,4.771-2.24,6.602c-1.285,1.305-2.863,2.123-4.674,2.493
				c-0.526,0.097-1.052,0.117-1.558,0.175c-1.772-0.039-3.389-0.545-4.752-1.714c-0.959-0.829-1.619-1.849-1.947-3.036
				c-0.228,0.461-0.5,0.902-0.819,1.322c-1.402,1.85-3.233,2.999-5.55,3.311c-0.377,0.05-0.749,0.076-1.115,0.076
				c-1.486,0-2.874-0.424-4.124-1.361c-1.441-1.091-2.259-2.532-2.473-4.324c-0.253-2.123,0.37-4.031,1.655-5.706
				c1.383-1.811,3.213-2.96,5.453-3.369C20.295,2.05,20.803,2,21.303,2 M33.901,13.23c0.578,0,1.151-0.148,1.713-0.434
				c1.539-0.798,2.376-2.045,2.473-3.72c-0.019-0.253-0.019-0.448-0.058-0.643c-0.299-1.647-1.636-2.683-3.173-2.683
				c-0.262,0-0.53,0.03-0.8,0.093c-1.811,0.409-2.98,1.558-3.408,3.389c-0.351,1.519,0.39,3.058,1.792,3.681
				C32.928,13.126,33.416,13.23,33.901,13.23 M21.303,0l0,2L21.303,0c-0.605,0-1.237,0.059-1.879,0.175
				c-2.73,0.498-4.978,1.886-6.687,4.124c-1.667,2.173-2.359,4.582-2.052,7.157c0.281,2.35,1.375,4.261,3.252,5.681
				c1.565,1.174,3.356,1.766,5.331,1.766c0.449,0,0.912-0.031,1.378-0.093c2.297-0.309,4.268-1.291,5.88-2.925
				c0.263,0.301,0.552,0.587,0.865,0.858c1.645,1.41,3.667,2.149,6.016,2.2l0.137,0.003l0.136-0.016
				c0.156-0.018,0.314-0.032,0.473-0.046c0.366-0.032,0.781-0.069,1.22-0.15c2.275-0.464,4.192-1.49,5.735-3.056
				c2.259-2.283,3.201-5.061,2.799-8.256c-0.326-2.406-1.537-4.333-3.602-5.744c-1.469-0.996-3.144-1.5-4.982-1.5
				c-0.65,0-1.338,0.063-2.044,0.188c-2.224,0.392-4.001,1.244-5.476,2.642c-0.503-0.611-1.091-1.14-1.76-1.582
				C24.655,0.485,23.053,0,21.303,0L21.303,0z M33.901,11.23c-0.214,0-0.43-0.049-0.662-0.15c-0.51-0.227-0.78-0.804-0.643-1.398
				c0.252-1.078,0.821-1.644,1.9-1.888c0.128-0.03,0.246-0.044,0.36-0.044c0,0,0,0,0,0c0.491,0,1.065,0.273,1.205,1.041
				c0.011,0.073,0.012,0.13,0.016,0.193l0.006,0.084c-0.081,0.903-0.501,1.491-1.39,1.952C34.421,11.159,34.157,11.23,33.901,11.23
				L33.901,11.23z"/>
		</g>
	</g>
	<g>
		<path fill="#2DBCAF" d="M12.535,5.804H5.583c-0.078,0-0.175,0.039-0.214,0.097L4.959,6.428C4.921,6.486,4.94,6.525,5.018,6.525
			l7.05,0.019c0.058,0,0.156-0.058,0.195-0.117l0.331-0.506C12.633,5.863,12.613,5.804,12.535,5.804z"/>
		<path fill="#2DBCAF" d="M11.523,7.596H2.642c-0.078,0-0.175,0.039-0.214,0.097L2.019,8.219C1.98,8.278,1.999,8.317,2.077,8.317
			l9.212-0.019c0.078,0,0.156-0.039,0.175-0.117l0.156-0.467C11.64,7.655,11.601,7.596,11.523,7.596z"/>
		<path fill="#2DBCAF" d="M11.094,9.388H7.199c-0.078,0-0.156,0.058-0.195,0.117L6.732,9.992c-0.039,0.058-0.019,0.117,0.058,0.117
			l4.246,0.019c0.058,0,0.136-0.058,0.136-0.136l0.039-0.467C11.211,9.446,11.172,9.388,11.094,9.388z"/>
		<path fill="#2DBCAF" d="M41.924,7.674c-0.253-1.87-1.207-3.291-2.746-4.343c-1.694-1.149-3.564-1.344-5.55-0.993
			c-2.318,0.409-4.031,1.383-5.453,3.252c-0.609,0.797-1.063,1.64-1.345,2.532c-2.369,0-5.383,0-6.27,0
			c-0.292,0-0.428,0.195-0.487,0.312c-0.273,0.506-0.74,1.519-0.993,2.123c-0.136,0.331-0.039,0.584,0.37,0.584
			c2.181,0,3.058,0,3.759,0c-0.195,0.273-0.351,0.506-0.526,0.721c-0.876,0.993-1.986,1.461-3.311,1.285
			c-1.539-0.214-2.61-1.5-2.629-3.058c-0.019-1.577,0.662-2.843,1.986-3.7c1.11-0.721,2.298-0.896,3.525-0.292
			c0.409,0.195,0.623,0.409,0.915,0.74c0.253,0.292,0.273,0.273,0.565,0.195c1.207-0.312,2.045-0.545,3.272-0.857
			c0.234-0.058,0.312-0.156,0.195-0.331c-0.487-1.13-1.227-2.064-2.259-2.746c-1.578-1.071-3.33-1.285-5.161-0.954
			c-2.24,0.409-4.07,1.558-5.453,3.369c-1.285,1.675-1.909,3.583-1.655,5.706c0.214,1.792,1.032,3.233,2.473,4.324
			c1.558,1.169,3.33,1.539,5.239,1.285c2.318-0.312,4.148-1.461,5.55-3.311c0.318-0.42,0.591-0.861,0.819-1.322
			c0.328,1.187,0.987,2.207,1.947,3.036c1.363,1.169,2.98,1.675,4.752,1.714c0.506-0.058,1.032-0.078,1.558-0.175
			c1.811-0.37,3.389-1.188,4.674-2.493C41.495,12.445,42.255,10.303,41.924,7.674z M35.614,12.796
			c-1.032,0.526-2.103,0.584-3.174,0.117c-1.402-0.623-2.142-2.162-1.792-3.681c0.428-1.831,1.597-2.98,3.408-3.389
			c1.85-0.428,3.622,0.662,3.973,2.59c0.039,0.195,0.039,0.39,0.058,0.643C37.99,10.751,37.152,11.998,35.614,12.796z"/>
	</g>
</g>
</svg>
