<?xml version="1.0" encoding="utf-8"?>
<!-- Generator: Adobe Illustrator 21.1.0, SVG Export Plug-In . SVG Version: 6.00 Build 0)  -->
<svg version="1.1" id="Слой_1" xmlns="http://www.w3.org/2000/svg" xmlns:xlink="http://www.w3.org/1999/xlink" x="0px" y="0px"
	 viewBox="0 0 23.601 32" enable-background="new 0 0 23.601 32" xml:space="preserve">
<path fill="#E76F00" d="M13.289,15.301c1.544,1.777-0.406,3.376-0.406,3.376s3.919-2.023,2.119-4.557
	c-1.681-2.363-2.97-3.537,4.009-7.584C19.011,6.536,8.056,9.272,13.289,15.301"/>
<path fill="#E76F00" d="M15.002,0c0,0,3.325,3.326-3.154,8.441c-5.195,4.103-1.185,6.442-0.002,9.115
	c-3.032-2.736-5.258-5.145-3.765-7.386C10.273,6.879,16.344,5.283,15.002,0"/>
<g>
	<path fill="#C3CFE2" d="M7.601,24.747c0,0-1.223,0.711,0.87,0.952c2.536,0.289,3.832,0.248,6.626-0.281c0,0,0.735,0.461,1.761,0.86
		C10.594,28.962,2.681,26.122,7.601,24.747"/>
	<path fill="#C3CFE2" d="M6.835,21.244c0,0-1.372,1.015,0.723,1.232c2.709,0.279,4.848,0.302,8.55-0.41c0,0,0.512,0.519,1.317,0.803
		C9.851,25.083,1.415,23.043,6.835,21.244"/>
	<path fill="#C3CFE2" d="M21.574,27.339c0,0,0.905,0.746-0.997,1.322c-3.616,1.095-15.05,1.426-18.226,0.044
		c-1.142-0.497,0.999-1.186,1.673-1.331c0.702-0.152,1.104-0.124,1.104-0.124c-1.27-0.895-8.207,1.756-3.524,2.516
		C14.376,31.837,24.887,28.833,21.574,27.339"/>
	<path fill="#C3CFE2" d="M8.189,17.614c0,0-5.816,1.381-2.06,1.883c1.586,0.212,4.748,0.164,7.693-0.082
		c2.407-0.203,4.824-0.635,4.824-0.635s-0.849,0.363-1.463,0.783c-5.906,1.553-17.315,0.831-14.031-0.758
		C5.93,17.462,8.189,17.614,8.189,17.614"/>
	<path fill="#C3CFE2" d="M18.622,23.446c6.004-3.12,3.228-6.118,1.29-5.714c-0.475,0.099-0.687,0.184-0.687,0.184
		s0.176-0.276,0.513-0.396c3.833-1.348,6.781,3.974-1.237,6.082C18.501,23.603,18.594,23.52,18.622,23.446"/>
	<path fill="#C3CFE2" d="M8.779,31.899c5.763,0.369,14.612-0.205,14.822-2.931c0,0-0.403,1.034-4.763,1.855
		c-4.919,0.926-10.985,0.818-14.583,0.224C4.255,31.047,4.991,31.657,8.779,31.899"/>
</g>
</svg>
