<svg id="be20cbc2-89bf-49f8-b976-0f6016c678d8" data-name="Слой 1" xmlns="http://www.w3.org/2000/svg" width="13" height="18" viewBox="0 0 13 18"><path d="M13,8.67A6.45,6.45,0,1,1,6.52,2.22,6.45,6.45,0,0,1,13,8.67" fill="#d33833" fill-rule="evenodd"/><path d="M.34,10.27S-.13,3.54,6.21,3.35l-.44-.72L2.33,3.75l-1,1.11L.49,6.47,0,8.35.15,9.6" fill="#ef3d3a"/><path d="M9.24,8.71l-1,.15L6.93,9,6.08,9,5.24,9,4.6,8.81,4,8.21,3.59,7,3.5,6.72l-.59-.2L2.56,6l-.25-.79.27-.7.64-.22.52.24L4,5l.3,0,.09-.12-.09-.55,0-.7.15-.95V2.11l.45-.7L5.63.85,7,.27,8.53.49l1.32.93.62,1,.39.7L11,4.81l-.3,1.49-.54,1.32-.51.7" fill="#f0d6b7" fill-rule="evenodd"/><path d="M8.4,12.87,4.89,13v.57l.3,2L5,15.78,2.58,15l-.17-.29L2.16,12,1.6,10.32l-.12-.38,2-1.32.62-.24L4.6,9l.46.41.54.17.25.07.29,1.25.22.27L6.93,11l-.39.74,2.13,1-.27.14" fill="#335061" fill-rule="evenodd"/><path d="M2.58,4.48l.64-.22.52.24L4,5l.3,0,.07-.29L4.2,4.14l.15-1.32L4.23,2.1l.44-.51,1-.74L5.36.49,4,1.14l-.57.43-.32.67-.49.65-.15.77.1.82" fill="#6d6b6d" fill-rule="evenodd"/><path d="M3.59,2.22A2.75,2.75,0,0,1,5.43.9C6.91.46,5.5.58,5.5.58l-1.59.61-.62.6L3,2.27l.57,0M2.85,4.31A1.47,1.47,0,0,1,4.3,2.39L4.23,2.1l-1.35.31-.4,1.25.1.82.27-.17" fill="#dcd9d8" fill-rule="evenodd"/><path d="M3.64,6.55,4,6.24a.22.22,0,0,0,.17.19,3.65,3.65,0,0,0,1.15,2.5c.09.07-.79-.12-.79-.12L3.71,7.6M8.15,6.09s.06-.73.26-.67a.26.26,0,0,1,.2.25s-.49.31-.46.42" fill="#f7e4cd" fill-rule="evenodd"/><path d="M10.2,3.42s-.41.08-.45.43.45.07.52,0m-3-.46s-.54.08-.54.41.61.32.79.17" fill="#f7e4cd"/><path d="M3.88,5s-.93-.56-1,0S2.53,5.9,3,6.45l-.32-.1-.29-.74-.1-.72.56-.58.64.05.37.29,0,.36m.45-1.52A3.34,3.34,0,0,1,6.86,1c1.74-.34,2.65.07,3,.46,0,0-1.54-1.81-3-1.25S4.28,1.74,4.3,2.39l0,1.1M10,1.66s-.71,0-.73.61a.45.45,0,0,0,.05.19s.56-.63.9-.29M6.9,2.52s-.12-1-1-.4c-.54.36-.49.87-.4,1s.08.29.15.15,0-.56.32-.68.71-.26.89,0" fill="#f7e4cd" fill-rule="evenodd"/><path d="M4.6,9,2.29,10s1,3.73.46,4.89l-.34-.12,0-1.42-.63-2.69-.27-.75L3.89,8.36,4.6,9m.23,2.05.33.4v1.44H4.77l0-1.13c0-.12,0-.55,0-.55m.07,1.89-1.1,0,.32.22.78.12" fill="#49728b" fill-rule="evenodd"/><path d="M8.62,12.89l.91,0,.22,2.21-.93.12-.2-2.3" fill="#335061" fill-rule="evenodd"/><path d="M8.87,12.89l1.38-.07.56-1.46c0-.08.49-2,.49-2L10.2,8.21,10,8l-.59.58v2.24L8.87,12.9" fill="#335061" fill-rule="evenodd"/><path d="M9.48,12.73l-.85.17.12.67c.32.14.86-.24.86-.24m-.1-4.81,1.72,1.25,0-.58L10,8l-.47.51" fill="#49728b" fill-rule="evenodd"/><path d="M5.69,17.63l-.5-2-.26-1.49,0-1.1,2.3-.12H8.63l-.14,2.53.23,1.94,0,.36-1.87.15-1.13-.24" fill="#fff" fill-rule="evenodd"/><path d="M8.3,12.87a20.85,20.85,0,0,0,.25,4.28,4.85,4.85,0,0,1-1.82.57l2.07-.07L9,17.51l-.29-4-.08-.84" fill="#dcd9d8" fill-rule="evenodd"/><path d="M9.8,14.89l.95-.26,1.82-.1.27-.82-.49-1.42-.56-.07-.79.24-.75.36-.4-.07-.32.12" fill="#fff" fill-rule="evenodd"/><path d="M9.78,14.41a3.33,3.33,0,0,1,.74-.26l-.27-1.33.32-.12.22,1.4,1.5.07A2.18,2.18,0,0,0,12.51,13l.27.77,0,.44-.39.57-.44.1-.74,0L11,14.58l-.86.12-.27.1" fill="#dcd9d8" fill-rule="evenodd"/><path d="M8.81,12.7l-.54-1.34-.56-.8s.12-.34.29-.34h.57l.54.2,0,.89L8.81,12.7" fill="#fff"/><path d="M8.92,12.25a11.2,11.2,0,0,1-.69-1.49s.12-.29.3-.22.54.26.54.26v-.45l-.84-.17-.56.07.95,2.21.2,0" fill="#dcd9d8" fill-rule="evenodd"/><path d="M5.91,9.07,5.23,9,4.6,8.81V9l.31.34,1,.43" fill="#fff"/><path d="M4.82,9.14s.76.32,1,.24l0,.29-.69-.14-.42-.29.08-.1" fill="#dcd9d8" fill-rule="evenodd"/><path d="M9.79,10.31a4.74,4.74,0,0,1-1.12-.15c0-.14,0-.27,0-.36a.8.8,0,0,1,.39-.08.7.7,0,0,0-.43-.05.52.52,0,0,0-.07-.22c.24-.08.79-.62,1.1-.44.15.08.21.57.22.8a.76.76,0,0,1-.1.5" fill="#d33833" fill-rule="evenodd"/><path d="M9.79,10.31a4.74,4.74,0,0,1-1.12-.15c0-.14,0-.27,0-.36a.8.8,0,0,1,.39-.08.7.7,0,0,0-.43-.05.52.52,0,0,0-.07-.22c.24-.08.79-.62,1.1-.44.15.08.21.57.22.8A.76.76,0,0,1,9.79,10.31Z" fill="none" stroke="#d33833" stroke-miterlimit="8" stroke-width="0.51"/><path d="M7.8,9.64v.09a3.52,3.52,0,0,1-.49.16,1.28,1.28,0,0,1,.52.13v.23a8.89,8.89,0,0,1-.74.55,2,2,0,0,1-.74.22c-.08,0-.09-.12-.12-.21A3.15,3.15,0,0,1,6,10c0-.37-.06-1,.36-.92a3.89,3.89,0,0,1,1,.35,1,1,0,0,0,.48.2" fill="#d33833" fill-rule="evenodd"/><path d="M7.8,9.64v.09a3.52,3.52,0,0,1-.49.16,1.28,1.28,0,0,1,.52.13v.23a8.89,8.89,0,0,1-.74.55,2,2,0,0,1-.74.22c-.08,0-.09-.12-.12-.21A3.15,3.15,0,0,1,6,10c0-.37-.06-1,.36-.92a3.89,3.89,0,0,1,1,.35,1,1,0,0,0,.48.2Z" fill="none" stroke="#d33833" stroke-miterlimit="8" stroke-width="0.51"/><path d="M8,10.09A1.22,1.22,0,0,1,8,9.65c.55-.36.65.62.06.44" fill="#d33833" fill-rule="evenodd"/><path d="M8,10.09A1.22,1.22,0,0,1,8,9.65C8.53,9.29,8.63,10.27,8,10.09Z" fill="none" stroke="#d33833" stroke-miterlimit="8" stroke-width="0.51"/><path d="M8.84,10.25s-.17-.24-.05-.31.25,0,.32-.12,0-.2,0-.34.15-.17.27-.19.47-.08.52,0L9.77,8.9l-.29-.09-.94.52,0,.27v.53M6.25,11,6.16,9.92c-.06-.56.14-.46.63-.46a1.32,1.32,0,0,1,.5.14c.13.27-.23.21.15.41s.88-.1.75-.48c-.07-.09-.37,0-.48-.08l-.58-.3C6.89,9,6.33,8.85,6.06,9c-.65.44.05,1.54.28,2" fill="#ef3d3a" fill-rule="evenodd"/><path d="M6.91,2.52a1,1,0,0,0-1.21.72c-.18,0-.11-.28-.06-.41a1.14,1.14,0,0,1,1-.69c.17,0,.4.18.27.38m3.26.74h0a7.48,7.48,0,0,0,.47.89c-.13.3-1,.55-.95,0,.18-.08.49,0,.65-.11a1.84,1.84,0,0,1-.2-.82m-2.92,0A2.76,2.76,0,0,0,7.64,4c.09.09.27.19.18.44a.57.57,0,0,1-.25.21c-.32.09-1.07,0-.81-.37.27,0,.62.17.82,0-.15-.24-.42-.71-.32-1M10.05,5.9a2.67,2.67,0,0,1-1.8.55.51.51,0,0,1-.07-.67c.09.14,0,.41.27.44.45.08,1-.26,1.29-.38.2-.33,0-.45-.2-.66A2.59,2.59,0,0,1,8.7,3.56c.15-.11.16.16.18.21a6,6,0,0,0,1,1.37c.08.1.23.19.24.25s-.12.39-.1.51M3.72,5.58c-.16-.09-.19-.46-.37-.47s-.2.48-.2.77A.86.86,0,0,1,3.07,5c-.15-.07-.21.08-.29.13.1-.74,1.1-.34.93.44m6.64.62a1.41,1.41,0,0,1-1.19.89,1.17,1.17,0,0,1,0-.42,3.53,3.53,0,0,0,1.19-.47m-3.14.27A4.28,4.28,0,0,0,9,6.69a1.84,1.84,0,0,1,0,.42c-.73,0-1.6-.14-1.78-.64m-.08.4c.29.71,1.28.63,2.12.61A.47.47,0,0,1,9,7.72a2.1,2.1,0,0,1-1.38,0,1.82,1.82,0,0,1-.52-.56c-.06-.08-.37-.28,0-.28" fill="#231f20" fill-rule="evenodd"/><path d="M10,10.8,9,12.45a7.89,7.89,0,0,0,.26-1.92.62.62,0,0,1,.8.27" fill="#81b0c4" fill-rule="evenodd"/><path d="M11.84,12.84c-.38.08-.65.44-1,.42a1.26,1.26,0,0,1,1-.42m.17.59a5.48,5.48,0,0,1-1,.05c.15-.22.72-.14,1-.05m.11.5a10.33,10.33,0,0,1-1.12,0c.2-.2.89-.07,1.12,0" fill="#231f20" fill-rule="evenodd"/><path d="M9.36,15.3a8.2,8.2,0,0,1,.2,1.33,1.32,1.32,0,0,1-.56.12l-.06-1.39c.13,0,.32-.08.42,0" fill="#dcd9d8" fill-rule="evenodd"/><path d="M8.8,9c-.18.12-.33.25-.5.37a1.06,1.06,0,0,1-.84-.23s0,0,0,0c.4.17.9-.07,1.31-.11" fill="#f0d6b7" fill-rule="evenodd"/><path d="M6.7,11.65c.11-.46.54-.7.93-1a7.73,7.73,0,0,1,.92,1.76,9,9,0,0,1-1.85-.8" fill="#81b0c4" fill-rule="evenodd"/><path d="M8.94,15.37c0,.38,0,1,.06,1.38a1.32,1.32,0,0,0,.56-.12,8.2,8.2,0,0,0-.2-1.33c-.1,0-.29.07-.42.06Zm-4-2.16a19.64,19.64,0,0,0,.87,4.17,5.74,5.74,0,0,0,3.1.05c-.16-.76-.09-1.69-.18-2.51l-.14-1.86a10.85,10.85,0,0,0-3.64.14Zm3.91-.14c0,.66,0,1.31.08,2l.68-.12A13.91,13.91,0,0,0,9.36,13a1.59,1.59,0,0,0-.53.05Zm1.31-.1a1.61,1.61,0,0,0-.38,0L10,14.66a1.8,1.8,0,0,0,.43-.11A3.23,3.23,0,0,0,10.13,13Zm2,1.77a.82.82,0,0,0,.52-1,4.49,4.49,0,0,0-.34-1.12c-.1-.15-.37-.35-.59-.21s-1,.29-1.25.56a8.5,8.5,0,0,1,.22,1.55,4.77,4.77,0,0,1,1.37,0,6.55,6.55,0,0,0-.82.21,1.78,1.78,0,0,0,.89,0ZM8.55,12.46a7.77,7.77,0,0,0-.91-1.77c-.39.26-.82.5-.93,1a10.44,10.44,0,0,0,1.84.8Zm.67-1.92A8,8,0,0,1,9,12.46,15.69,15.69,0,0,0,10,10.8a.63.63,0,0,0-.8-.27Zm-.75-.27c-.15,0-.28.17-.48.09l-.13.15a11.28,11.28,0,0,1,1,1.86A7.52,7.52,0,0,0,9,10.51c-.25,0-.39-.22-.57-.24ZM8,9.65a1.22,1.22,0,0,0,.06.44C8.64,10.27,8.54,9.29,8,9.65Zm-.66-.21a3.89,3.89,0,0,0-1-.35C6,9,6,9.64,6,10a2.7,2.7,0,0,0,.24.8c0,.09,0,.19.12.21a2,2,0,0,0,.74-.22c.28-.15.5-.4.74-.55V10a1.24,1.24,0,0,0-.52-.13,3.52,3.52,0,0,0,.49-.16V9.64a1,1,0,0,1-.48-.2ZM4.88,9c-.21.21.6.5.85.52,0-.14.08-.26.07-.36A2.76,2.76,0,0,1,4.88,9Zm2.62.1s0,0,0,0a1.08,1.08,0,0,0,.85.23L8.81,9C8.41,9,7.9,9.27,7.5,9.1Zm2.41.71c0-.23-.08-.71-.23-.8-.31-.18-.86.36-1.1.44a.52.52,0,0,1,.07.22.7.7,0,0,1,.43.05.86.86,0,0,0-.38.08c0,.09,0,.22,0,.36a4.76,4.76,0,0,0,1.13.15A.81.81,0,0,0,9.91,9.81Zm-5.39-.6C4.45,9.16,4,8.58,4,8.61A9.87,9.87,0,0,0,1.68,10a11.8,11.8,0,0,1,1,4.66,6,6,0,0,0,2.42.89l-.29-2.3a3.58,3.58,0,0,0-.86,0c0-.28.36-.13.39-.31s-.2-.16-.13-.38c.19.06.29.21.49.26.18-.38,0-1.07,0-1.4,0-.06,0-.34.17-.29s0,.74,0,1,0,.57.08.74a29,29,0,0,1,3-.25,7.08,7.08,0,0,1-.81-.35c-.17-.09-.69-.28-.73-.44s.2-.37.24-.58c-.49.27-.59-.25-.71-.62a6,6,0,0,1-.19-.77A8.08,8.08,0,0,1,4.53,9.2Zm5-.53c.68-.33.81,1.21.54,1.7,0,.15.18.2.24.33L9.06,12.66c.29-.17.7,0,1-.17.12,0,.21-.32.3-.55a11.53,11.53,0,0,0,.65-2,2.25,2.25,0,0,0,.09-.55c0-.21-.32-.37-.47-.5l-.74-.68c-.12.17-.37.28-.46.42ZM3,2.76c-.32.35-.25,1-.21,1.47a.87.87,0,0,1,1.35.65c.28,0,.11-.35.06-.56-.17-.71.28-1.47,0-2.12A1.82,1.82,0,0,0,3,2.76Zm2.32-2a3.29,3.29,0,0,0-2,1.38c.23,0,.39-.15.62-.17a2.91,2.91,0,0,0,.3,0c.2-.05.37-.49.52-.65s.33-.23.45-.37.19,0,.19-.15A.14.14,0,0,0,5.27.72ZM9.1.92A3.58,3.58,0,0,0,6.23.58,3.94,3.94,0,0,0,4.39,2.1c.28.65-.08,1.24-.1,1.9,0,.35.16.65.18,1-.1.16-.39.18-.6.17-.07-.34-.19-.72-.54-.76a.82.82,0,0,0-.89.78c0,.5.39,1.32,1,1.27.23,0,.29-.25.54-.25.13.27-.21.35-.24.54a1.1,1.1,0,0,0,0,.33,4.3,4.3,0,0,0,.58,1.33c.3.42.89.48,1.52.52.12-.24.53-.22.8-.16a2.75,2.75,0,0,1-.88-.7,1.75,1.75,0,0,1-.59-1,3.84,3.84,0,0,0,2,1.71,2.65,2.65,0,0,0,2.2-.51,2.36,2.36,0,0,0,.55-.66,5.55,5.55,0,0,0,.87-3.41,3.86,3.86,0,0,0-.2-1.36c-.18-.36-.8-.68-1.16-.36-.07-.34.3-.56.73-.43A4,4,0,0,0,9.1.93Zm1.42,11.52c.6-.29,1.71-.78,2.08,0A6.81,6.81,0,0,1,13,13.51c.1.42-.12,1.3-.55,1.44a2.66,2.66,0,0,1-1.32,0,1.28,1.28,0,0,1-.16-.21,1.94,1.94,0,0,0-.91.15c0,.25-.14.29-.3.34-.11.45.23,1,.15,1.45s-.43.34-.7.39a2,2,0,0,0,0,.44c-.06.22-.34.35-.6.38a7.87,7.87,0,0,1-3-.14c-.23-.56-.41-1.24-.61-1.88a4,4,0,0,1-2.09-.62c-.21-.1-.51-.16-.59-.32a2.78,2.78,0,0,1-.06-.77A12.28,12.28,0,0,0,2,12c-.09-.35-.25-.65-.36-1a7.79,7.79,0,0,1-.33-1c-.07-.45.37-.48.65-.67a12.75,12.75,0,0,1,1.24-.75c.14-.08.56-.28.6-.38s-.16-.45-.23-.6a1.81,1.81,0,0,1-.18-.66,1.31,1.31,0,0,1-.87-.55,2.06,2.06,0,0,1-.24-1.81,2.14,2.14,0,0,0,.13-.22,2,2,0,0,0-.06-.48c0-.78.14-1.45.67-1.69C3.2,1.33,4,1,4.71.62A5.38,5.38,0,0,1,5.6.25,4.53,4.53,0,0,1,9.38.61,5.19,5.19,0,0,1,10.63,2a7.07,7.07,0,0,1,.13,4.58,4,4,0,0,1-.25.71c-.08.16-.32.48-.29.63s.56.54.67.65.59.45.63.69a2.4,2.4,0,0,1-.2.86l-.79,2.35" fill="#231f20" fill-rule="evenodd"/><path d="M6.54,6.66s.21-.11.46,0c0,0-.29,0-.27.53l-.12,0s-.13-.44-.06-.52" fill="#f7e4cd" fill-rule="evenodd"/><path d="M8.7,10.79a.13.13,0,0,1-.14.13.13.13,0,0,1,0-.26.13.13,0,0,1,.14.13m.13.62a.13.13,0,0,1-.13.13.13.13,0,1,1,0-.26.13.13,0,0,1,.13.13" fill="#1d1919" fill-rule="evenodd"/></svg>