<svg id="bac9b5d1-36e4-45f1-a6a9-d77f14e034c0" data-name="Слой 1" xmlns="http://www.w3.org/2000/svg" width="24" height="34" viewBox="0 0 24 34"><path d="M23.22,25.14a12.63,12.63,0,0,0-.65-1.94,1.21,1.21,0,0,0-1-.73,12,12,0,0,0,1.64-6.06,11.88,11.88,0,0,0-3.29-8.26,9.6,9.6,0,0,0-.77-3.85A8.74,8.74,0,0,0,17,1.86C15.37.61,12.4.48,10.46,1.2a10.22,10.22,0,0,0-1.54.67c-1.27.77-2.62,1.29-3,2.81C5,5.09,4.74,6.22,4.76,7.56l-.19.22A11.79,11.79,0,0,0,1,14.84l-.24,1,.18,1.59c0,.19,0,.38.06.57v.12A11.73,11.73,0,0,0,4.55,25c0,.45.07.9.1,1.35a4.91,4.91,0,0,0,.11,1.38c.13.3.65.4,1,.57C6.85,28.83,8,29.6,9.4,29.45c.33,1.15.65,2.38,1,3.38a13,13,0,0,0,5.23.27,1.19,1.19,0,0,0,1-.69,3.94,3.94,0,0,1,0-.79c.47-.1,1.1-.18,1.21-.71.14-.74-.46-1.81-.26-2.62.27-.1.56-.17.52-.6a3,3,0,0,1,1.58-.28,1.22,1.22,0,0,0,.27.37,4.44,4.44,0,0,0,2.27,0C23,27.48,23.39,25.89,23.22,25.14Zm-7,3.39.1,2.33C16.29,30.16,16.21,29.18,16.23,28.53Zm.72-.16h0a.71.71,0,0,0-.28,0A.74.74,0,0,1,17,28.37Zm-.4.06a.93.93,0,0,1-.32.05h0A.7.7,0,0,0,16.55,28.43ZM16.33,31h0a2.31,2.31,0,0,0,1-.22,14.16,14.16,0,0,0-.35-2.4h0a15.41,15.41,0,0,1,.34,2.4A2.31,2.31,0,0,1,16.33,31Z" fill="#fff"/><path d="M13.4,34a9.65,9.65,0,0,1-3.2-.45l-.31-.12-.13-.31a28.63,28.63,0,0,1-.87-2.75l0-.14A6.82,6.82,0,0,1,6,29.29L5.47,29l-.28-.11a1.73,1.73,0,0,1-1.11-.85,2.89,2.89,0,0,1-.17-1.17c0-.15,0-.31,0-.46,0-.35,0-.7-.07-1.05A12.6,12.6,0,0,1,.29,18.26l0-.1L1,18l-.74.07c0-.19-.05-.38-.07-.58L0,15.77l.28-1.12A12.46,12.46,0,0,1,4,7.27,3.55,3.55,0,0,1,5.3,4.16,5,5,0,0,1,8,1.55l.58-.33A9.45,9.45,0,0,1,10,.55L10.2.49c2.07-.78,5.34-.71,7.23.76A9.63,9.63,0,0,1,19.82,4a10,10,0,0,1,.83,3.87A12.56,12.56,0,0,1,24,16.41a12.81,12.81,0,0,1-1.33,5.68,2,2,0,0,1,.62.79A12.66,12.66,0,0,1,23.94,25h0c.22,1-.17,3.07-1.44,3.5a5.23,5.23,0,0,1-2.66.07l-.18,0-.15-.12a1.84,1.84,0,0,1-.19-.2,2.51,2.51,0,0,0-.51.07,1.15,1.15,0,0,1-.48.55,5.47,5.47,0,0,0,.14.73,3.65,3.65,0,0,1,.14,1.54,1.54,1.54,0,0,1-1.16,1.16v0l0,.15,0,.2a1.85,1.85,0,0,1-1.67,1.24A20.55,20.55,0,0,1,13.4,34ZM11,32.22a13.63,13.63,0,0,0,4.57.12,1.1,1.1,0,0,0,.36-.11,3.38,3.38,0,0,1,0-.65L16,31l.38-.12-.75,0,0-.55c0-.37-.05-.77-.06-1.15H15.4l.19-1.56.7.08a.08.08,0,0,1,.06,0h0l.16.63.14,0-.17-.68a1.29,1.29,0,0,1,.65,0h0l.23-.08h0V27.3l.41-.29a3.73,3.73,0,0,1,1.95-.36l.44,0,.2.39v0A3.38,3.38,0,0,0,22,27a2.23,2.23,0,0,0,.46-1.7h0a12.48,12.48,0,0,0-.59-1.79.49.49,0,0,0-.43-.3l-1.12-.15.58-1a11.3,11.3,0,0,0,1.54-5.67,11.08,11.08,0,0,0-3.08-7.72l-.21-.22v-.3a8.77,8.77,0,0,0-.69-3.53,8.38,8.38,0,0,0-1.95-2.18c-1.42-1.1-4.15-1.17-5.82-.54L10.55,2a7.71,7.71,0,0,0-1.26.55l-.61.36c-1.11.62-1.81,1.06-2,2l-.08.36-.33.15c-.62.29-.74,1.34-.73,2.18v.29l-.37.44a11.15,11.15,0,0,0-3.4,6.66l-.23.93.17,1.45c0,.2,0,.36.06.53l0,.14a11,11,0,0,0,3.3,6.47l.21.2,0,.3c0,.45.07.9.1,1.36,0,.18,0,.36,0,.54s0,.37,0,.5l.29.11.39.16.6.3a4.71,4.71,0,0,0,2.62.76l.62-.06L10.32,30C10.54,30.72,10.77,31.52,11,32.22Zm5.5-3.89,0,.09h.12v-.07Zm-11.16-1Z" fill="#fff"/><path d="M23.21,16.41A11.41,11.41,0,0,1,12.05,28.06,11.41,11.41,0,0,1,.89,16.41,11.42,11.42,0,0,1,12.05,4.76,11.42,11.42,0,0,1,23.21,16.41" fill="#d33833" fill-rule="evenodd"/><path d="M1.34,19.3S.54,7.15,11.5,6.8l-.76-1.3-5.95,2-1.69,2-1.49,2.9L.76,15.82,1,18.07" fill="#ef3d3a"/><path d="M16.75,16.48l-1.69.26-2.3.26-1.49,0L9.83,17l-1.11-.35-1-1.08L7,13.35l-.17-.47-1-.35-.6-1L4.76,10.1l.47-1.26,1.1-.39.89.44.43.95.51-.09.17-.21-.17-1,0-1.26.25-1.73v-1L9.14,3.3l1.36-1,2.38-1,2.63.39,2.3,1.69,1.07,1.73.68,1.25.16,3.13-.51,2.69-.93,2.38-.89,1.26" fill="#f0d6b7" fill-rule="evenodd"/><path d="M15.3,24l-6.08.26v1l.51,3.65-.25.3L5.23,27.76l-.3-.52-.43-4.9-1-2.95-.21-.7,3.4-2.38,1.07-.44L8.71,17l.81.74.93.31.43.13.51,2.25.38.48,1-.35L12.07,22l3.7,1.77L15.3,24" fill="#335061" fill-rule="evenodd"/><path d="M5.23,8.84l1.1-.39.89.44.43.95.51-.09.13-.52L8,8.23l.26-2.38-.22-1.3.77-.92L10.5,2.29,10,1.64,7.69,2.81l-1,.78L6.16,4.81,5.31,6,5.06,7.37l.16,1.47" fill="#6d6b6d" fill-rule="evenodd"/><path d="M7,4.76a4.78,4.78,0,0,1,3.19-2.38c2.55-.78.12-.57.12-.57L7.52,2.9,6.46,4,6,4.85l1-.08M5.69,8.54A2.65,2.65,0,0,1,8.2,5.07l-.13-.52-2.33.56L5.06,7.37l.17,1.47.46-.3" fill="#dcd9d8" fill-rule="evenodd"/><path d="M7.05,12.57,7.61,12a.36.36,0,0,0,.29.34c0,.3.17,3,2,4.51.17.13-1.36-.22-1.36-.22L7.17,14.48m7.7-2.73s.1-1.32.44-1.22a.5.5,0,0,1,.35.46s-.84.56-.79.76" fill="#f7e4cd" fill-rule="evenodd"/><path d="M18.41,6.93a1,1,0,0,0-.77.78c-.06.63.77.13.89.09M13.27,7s-.93.13-.93.74,1.06.57,1.36.31" fill="#f7e4cd"/><path d="M7.48,9.8s-1.62-1-1.79-.05S5.14,11.4,6,12.4l-.55-.17-.51-1.35-.17-1.3,1-1,1.11.09.64.52,0,.65m.76-2.74S9,3.24,12.62,2.5c3-.61,4.6.13,5.19.82,0,0-2.68-3.25-5.23-2.26s-4.42,2.85-4.38,4l0,2m9.87-3.3s-1.24,0-1.28,1.09a.86.86,0,0,0,.09.35s1-1.13,1.57-.52m-5.78.63s-.21-1.73-1.66-.72c-.94.65-.85,1.56-.68,1.72s.12.53.25.29.09-1,.56-1.24,1.23-.46,1.53-.06" fill="#f7e4cd" fill-rule="evenodd"/><path d="M8.71,17l-4,1.82s1.66,6.73.81,8.81l-.6-.21,0-2.57-1.1-4.84L3.31,18.7l4.18-2.86,1.23,1.21m.4,3.71.57.71v2.6H9l-.08-2c0-.22.08-1,.08-1m.13,3.42-1.92.09.56.39,1.36.21" fill="#49728b" fill-rule="evenodd"/><path d="M15.68,24,17.26,24l.38,4L16,28.19,15.68,24" fill="#335061" fill-rule="evenodd"/><path d="M16.11,24l2.38-.13,1-2.65c0-.13.85-3.64.85-3.64l-1.91-2L18,15.22l-1,1v4L16.11,24" fill="#335061" fill-rule="evenodd"/><path d="M17.17,23.72,15.69,24l.21,1.21c.55.26,1.49-.43,1.49-.43m-.17-8.68,3,2.26.09-1L18,15.22l-.8.91" fill="#49728b" fill-rule="evenodd"/><path d="M10.61,32.57l-.88-3.64L9.3,26.24l-.08-2,4-.21h2.48l-.23,4.56.38,3.52,0,.65L12.57,33l-2-.44" fill="#fff" fill-rule="evenodd"/><path d="M15.13,24a39,39,0,0,0,.43,7.71,8,8,0,0,1-3.15,1.05L16,32.61l.43-.26-.51-7.12-.13-1.52" fill="#dcd9d8" fill-rule="evenodd"/><path d="M17.71,27.63l1.66-.48L22.52,27,23,25.5l-.85-2.56-1-.13-1.36.44-1.31.65-.69-.13-.54.21" fill="#fff" fill-rule="evenodd"/><path d="M17.68,26.76A6.39,6.39,0,0,1,19,26.28l-.47-2.38.56-.22.38,2.51,2.59.13a3.93,3.93,0,0,0,.38-2l.47,1.38,0,.78-.68,1.05-.76.17-1.28-.05-.42-.56-1.49.22-.47.17" fill="#dcd9d8" fill-rule="evenodd"/><path d="M16,23.68l-.93-2.43-1-1.43s.21-.61.51-.61h1l.93.35-.08,1.6L16,23.68" fill="#fff"/><path d="M16.19,22.86A20.86,20.86,0,0,1,15,20.17s.22-.52.51-.39.94.47.94.47v-.82L15,19.12l-1,.13,1.65,4,.34,0" fill="#dcd9d8" fill-rule="evenodd"/><path d="M11,17.13,9.82,17l-1.11-.35V17l.54.61,1.69.78" fill="#fff"/><path d="M9.09,17.26a4.65,4.65,0,0,0,1.75.43l0,.52L9.69,18,9,17.43l.12-.17" fill="#dcd9d8" fill-rule="evenodd"/><path d="M17.71,19.36a7.7,7.7,0,0,1-2-.28,6,6,0,0,1,0-.64,1.36,1.36,0,0,1,.67-.14,1.11,1.11,0,0,0-.74-.09,1.25,1.25,0,0,0-.13-.4C16,17.67,17,16.7,17.49,17c.26.15.37,1,.39,1.45a1.48,1.48,0,0,1-.17.89" fill="#d33833" fill-rule="evenodd"/><path d="M17.71,19.36a7.7,7.7,0,0,1-2-.28,6,6,0,0,1,0-.64,1.36,1.36,0,0,1,.67-.14,1.11,1.11,0,0,0-.74-.09,1.25,1.25,0,0,0-.13-.4C16,17.67,17,16.7,17.49,17c.26.15.37,1,.39,1.45A1.48,1.48,0,0,1,17.71,19.36Z" fill="none" stroke="#d33833" stroke-miterlimit="8" stroke-width="0.51"/><path d="M14.26,18.15v.17c-.22.16-.59.15-.83.28a2.17,2.17,0,0,1,.9.23l0,.42a14.7,14.7,0,0,1-1.27,1,3.28,3.28,0,0,1-1.29.4c-.13,0-.15-.21-.2-.37a5.31,5.31,0,0,1-.41-1.45c0-.67-.1-1.8.61-1.66a6,6,0,0,1,1.68.63,1.81,1.81,0,0,0,.84.37" fill="#d33833" fill-rule="evenodd"/><path d="M14.26,18.15v.17c-.22.16-.59.15-.83.28a2.17,2.17,0,0,1,.9.23l0,.42a14.7,14.7,0,0,1-1.27,1,3.28,3.28,0,0,1-1.29.4c-.13,0-.15-.21-.2-.37a5.31,5.31,0,0,1-.41-1.45c0-.67-.1-1.8.61-1.66a6,6,0,0,1,1.68.63,1.81,1.81,0,0,0,.84.37Z" fill="none" stroke="#d33833" stroke-miterlimit="8" stroke-width="0.51"/><path d="M14.67,19a2.59,2.59,0,0,1-.11-.79c1-.66,1.14,1.11.11.79" fill="#d33833" fill-rule="evenodd"/><path d="M14.67,19a2.59,2.59,0,0,1-.11-.79C15.52,17.51,15.7,19.28,14.67,19Z" fill="none" stroke="#d33833" stroke-miterlimit="8" stroke-width="0.51"/><path d="M16.06,19.25s-.3-.43-.09-.56.43,0,.55-.22,0-.34.05-.61.25-.3.46-.34.81-.13.9.08l-.26-.78-.51-.17-1.62,1-.08.48v1m-3.88,1.65-.16-2c-.1-1,.23-.83,1.09-.83a2.34,2.34,0,0,1,.86.26c.23.48-.4.38.27.74s1.52-.18,1.3-.87c-.12-.15-.65-.05-.84-.15l-1-.52c-.42-.23-1.4-.55-1.85-.24-1.14.79.08,2.77.48,3.6" fill="#ef3d3a" fill-rule="evenodd"/><path d="M12.71,5.31c-1.16-.27-1.74.5-2.09,1.3-.31-.08-.2-.51-.1-.74a2,2,0,0,1,1.73-1.25c.29,0,.69.32.47.69m5.64,1.34h.05a12.41,12.41,0,0,0,.82,1.63c-.22.52-1.68,1-1.65,0,.31-.14.85,0,1.13-.21a3.35,3.35,0,0,1-.36-1.47m-5.05,0A5.06,5.06,0,0,0,14,8c.16.16.47.35.32.79a1,1,0,0,1-.45.38c-.55.17-1.84,0-1.39-.67.46,0,1.07.31,1.41,0-.26-.43-.73-1.28-.56-1.77m4.85,4.72a4.55,4.55,0,0,1-3.12,1,1,1,0,0,1-.12-1.21c.15.25.05.73.46.8.78.14,1.68-.48,2.23-.7.35-.59,0-.81-.34-1.19a4.74,4.74,0,0,1-1.46-2.92c.26-.19.28.29.32.38A10.7,10.7,0,0,0,17.91,10c.15.17.39.33.42.44.08.32-.21.71-.17.92m-11-.58c-.26-.15-.32-.82-.63-.83s-.36.86-.36,1.39A1.67,1.67,0,0,1,6.07,9.8c-.25-.13-.37.14-.5.23.17-1.33,1.91-.61,1.62.8m11.49,1.11a2.44,2.44,0,0,1-2.07,1.61,2.73,2.73,0,0,1,0-.76,6,6,0,0,0,2.07-.85m-5.44.49a7,7,0,0,0,3,.4,3.64,3.64,0,0,1,0,.76c-1.26.07-2.76-.25-3.08-1.16m-.14.72c.5,1.29,2.22,1.14,3.67,1.1a.77.77,0,0,1-.37.44,3.59,3.59,0,0,1-2.4,0,3.52,3.52,0,0,1-.89-1c-.1-.14-.65-.51,0-.51" fill="#231f20" fill-rule="evenodd"/><path d="M18.09,20.24l-1.85,3a14.49,14.49,0,0,0,.46-3.46,1.06,1.06,0,0,1,1.39.48" fill="#81b0c4" fill-rule="evenodd"/><path d="M21.25,23.94c-.66.13-1.12.78-1.76.74a2.08,2.08,0,0,1,1.76-.74m.29,1a10.9,10.9,0,0,1-1.71.1c.26-.4,1.25-.27,1.71-.1m.19.9a17.51,17.51,0,0,1-1.93-.05c.34-.37,1.54-.13,1.93.05" fill="#231f20" fill-rule="evenodd"/><path d="M17,28.37a14.16,14.16,0,0,1,.35,2.4,2.31,2.31,0,0,1-1,.22l-.1-2.51c.22,0,.55-.16.72-.1" fill="#dcd9d8" fill-rule="evenodd"/><path d="M16,17c-.3.2-.56.45-.85.67a1.85,1.85,0,0,1-1.47-.43s.06,0,.06-.05c.69.31,1.56-.13,2.26-.19" fill="#f0d6b7" fill-rule="evenodd"/><path d="M12.36,21.79c.19-.84.93-1.28,1.61-1.74a13.88,13.88,0,0,1,1.58,3.18,16.44,16.44,0,0,1-3.19-1.44" fill="#81b0c4" fill-rule="evenodd"/><path d="M16.23,28.48c0,.69.07,1.79.1,2.51a2.31,2.31,0,0,0,1-.22,15.41,15.41,0,0,0-.34-2.4c-.18,0-.5.13-.72.1Zm-7-3.89a37.21,37.21,0,0,0,1.5,7.53,9.74,9.74,0,0,0,5.37.1c-.28-1.38-.16-3.07-.32-4.54l-.23-3.35a18.14,18.14,0,0,0-6.32.25ZM16,24.35c0,1.19.06,2.36.14,3.54l1.17-.2A28,28,0,0,0,17,24.24a2.9,2.9,0,0,0-.92.11Zm2.27-.19a2.91,2.91,0,0,0-.66,0L18,27.21a2.57,2.57,0,0,0,.76-.2,6.29,6.29,0,0,0-.5-2.85Zm3.43,3.19a1.5,1.5,0,0,0,.89-1.84,8.64,8.64,0,0,0-.58-2c-.18-.27-.65-.63-1-.38-.62.41-1.71.52-2.16,1a17,17,0,0,1,.39,2.8,8,8,0,0,1,2.36.06,8.55,8.55,0,0,0-1.41.37,3,3,0,0,0,1.54,0Zm-6.18-4.12A14.3,14.3,0,0,0,14,20.05c-.68.47-1.42.9-1.61,1.74a15.9,15.9,0,0,0,3.19,1.45Zm1.15-3.46a14.49,14.49,0,0,1-.46,3.46,26.19,26.19,0,0,0,1.85-3,1.07,1.07,0,0,0-1.39-.48Zm-1.29-.47c-.26,0-.49.31-.83.16l-.23.27a21.87,21.87,0,0,1,1.69,3.35,15.22,15.22,0,0,0,.35-3.35c-.44,0-.68-.4-1-.43Zm-.84-1.13a2.59,2.59,0,0,0,.11.79C15.72,19.29,15.54,17.52,14.58,18.17Zm-1.14-.38a6.1,6.1,0,0,0-1.68-.63c-.71-.14-.65,1-.62,1.66a5.68,5.68,0,0,0,.42,1.45c0,.16.06.34.2.37a3.23,3.23,0,0,0,1.28-.4,15.35,15.35,0,0,0,1.28-1l0-.42a2.33,2.33,0,0,0-.9-.23c.24-.13.61-.13.83-.28v-.17a1.59,1.59,0,0,1-.84-.37ZM9.2,17c-.36.38,1,.9,1.48.93,0-.24.14-.47.11-.64A4.9,4.9,0,0,1,9.2,17Zm4.54.18s-.05,0-.06.05a1.87,1.87,0,0,0,1.47.43L16,17C15.31,17.05,14.43,17.49,13.74,17.18Zm4.16,1.29c0-.43-.13-1.3-.38-1.45-.54-.32-1.5.65-1.91.8a1.2,1.2,0,0,1,.13.39,1.11,1.11,0,0,1,.74.09,1.54,1.54,0,0,0-.67.14,4.36,4.36,0,0,0,0,.65,8,8,0,0,0,1.94.27A1.48,1.48,0,0,0,17.9,18.47Zm-9.32-1.1c-.11-.09-.9-1.12-1-1.08a16.38,16.38,0,0,0-3.92,2.49,22.07,22.07,0,0,1,1.66,8.4c1.29.62,2.43,1.51,4.18,1.6L9,24.63c-.44-.19-1.07,0-1.48-.06,0-.5.63-.22.68-.56s-.35-.28-.22-.68c.32.12.49.38.84.48.31-.7,0-1.94,0-2.54,0-.11.05-.61.29-.52s0,1.33,0,1.88A3,3,0,0,0,9.3,24a46.24,46.24,0,0,1,5.25-.44,14.31,14.31,0,0,1-1.41-.64c-.28-.17-1.18-.51-1.26-.79-.13-.44.34-.67.42-1.05-.85.48-1-.45-1.22-1.11a8.75,8.75,0,0,1-.33-1.39,14,14,0,0,1-2.16-1.18Zm8.57-.95c1.18-.59,1.39,2.18.93,3.07.07.26.32.36.42.6l-2.06,3.52c.5-.32,1.21-.06,1.79-.31.22-.08.37-.59.53-1a21.39,21.39,0,0,0,1.13-3.55,4.32,4.32,0,0,0,.15-1c-.05-.38-.56-.66-.82-.91L18,15.64c-.21.3-.64.51-.8.76ZM5.87,5.74c-.56.64-.45,1.82-.38,2.66A1.51,1.51,0,0,1,7.84,9.56c.49,0,.18-.62.1-1-.29-1.27.48-2.65,0-3.82a3.07,3.07,0,0,0-2.1,1Zm4-3.66A5.66,5.66,0,0,0,6.46,4.56c.41-.06.69-.27,1.09-.3a2.9,2.9,0,0,0,.52,0c.34-.09.64-.88.9-1.18s.56-.41.77-.67c.13-.06.33-.06.34-.27a.28.28,0,0,0-.2-.1Zm6.62.35c-1.32-.76-3.56-1.33-5-.62-1.14.58-2.67,1.53-3.19,2.74C8.85,5.72,8.22,6.79,8.18,8c0,.63.29,1.18.31,1.87-.17.28-.68.31-1,.3-.12-.61-.33-1.29-.94-1.36A1.43,1.43,0,0,0,5,10.18c0,.9.68,2.39,1.7,2.28.4,0,.5-.44.93-.44.23.48-.36.63-.42,1a2.42,2.42,0,0,0,.09.59,8,8,0,0,0,1,2.4c.51.76,1.53.87,2.63.95.2-.43.92-.4,1.39-.28a4.67,4.67,0,0,1-1.52-1.27,3.16,3.16,0,0,1-1-1.9c.94,1.34,1.72,2.5,3.43,3.09A4.5,4.5,0,0,0,17,15.65a4.5,4.5,0,0,0,.95-1.2,10.34,10.34,0,0,0,1.5-6.15,6.82,6.82,0,0,0-.35-2.45c-.31-.65-1.38-1.23-2-.64-.12-.63.52-1,1.27-.79a7.05,7.05,0,0,0-1.85-2ZM19,23.2c1-.53,3-1.41,3.6,0a12.63,12.63,0,0,1,.65,1.94c.17.75-.2,2.34-1,2.6a4.44,4.44,0,0,1-2.27,0,1.22,1.22,0,0,1-.27-.37,3,3,0,0,0-1.58.28c0,.43-.25.5-.52.6-.2.81.4,1.88.26,2.62-.11.53-.74.61-1.21.71a3.94,3.94,0,0,0,0,.79,1.19,1.19,0,0,1-1,.69,13,13,0,0,1-5.23-.27c-.4-1-.72-2.23-1-3.38-1.41.15-2.55-.62-3.62-1.13-.37-.17-.89-.27-1-.57a4.91,4.91,0,0,1-.11-1.38,22.64,22.64,0,0,0-.5-4c-.16-.62-.43-1.17-.62-1.76A12.48,12.48,0,0,1,3,18.77c-.12-.82.64-.86,1.12-1.22.75-.54,1.33-.85,2.14-1.34.24-.15,1-.51,1-.69.16-.34-.28-.82-.4-1.09a3.28,3.28,0,0,1-.31-1.19,2.27,2.27,0,0,1-1.51-1A3.83,3.83,0,0,1,4.63,9c0-.09.2-.25.23-.38a4.57,4.57,0,0,0-.1-.88c0-1.41.23-2.62,1.16-3,.38-1.52,1.73-2,3-2.81a10.22,10.22,0,0,1,1.54-.67C12.4.48,15.37.61,17,1.86A8.74,8.74,0,0,1,19.15,4.3c1,2.13,1,5.68.23,8.27A7.05,7.05,0,0,1,19,13.84c-.14.29-.56.88-.51,1.13s1,1,1.17,1.17c.35.35,1,.82,1.08,1.25A4.29,4.29,0,0,1,20.35,19L19,23.2" fill="#231f20" fill-rule="evenodd"/><path d="M12.08,12.77c.06-.08.37-.19.8,0,0,0-.51.09-.47,1l-.21,0s-.22-.79-.11-.93" fill="#f7e4cd" fill-rule="evenodd"/><path d="M15.81,20.23a.23.23,0,1,1-.23-.24.23.23,0,0,1,.23.24m.24,1.12a.23.23,0,0,1-.24.23.23.23,0,0,1-.23-.23.23.23,0,0,1,.23-.24.24.24,0,0,1,.24.24" fill="#1d1919" fill-rule="evenodd"/></svg>