<svg id="1ffd336d-4afb-43f4-a7b4-1607a286f033" data-name="Слой 1" xmlns="http://www.w3.org/2000/svg" viewBox="0 0 31.33 14.86"><title>LEMP</title><path d="M31.19,3.45a3,3,0,0,0-.7-1.36A3.14,3.14,0,0,0,29,1.24,8.15,8.15,0,0,0,26.8,1H5.71v9.48H5.08V1H0V14.86H27.77V10.08a4.81,4.81,0,0,0,1.87-.36A2.58,2.58,0,0,0,31,8.42a5.09,5.09,0,0,0,.32-2.07v-1A9,9,0,0,0,31.19,3.45ZM10.79,9.88h1.15v.61H10.79Zm1.15-4.26H10.79V5.37h1.15Z" fill="#262c3c"/><polygon points="0.5 13.36 0.5 0.5 4.58 0.5 4.58 9.98 6.46 9.98 6.46 13.36 0.5 13.36" fill="#3f4656"/><path d="M4.08,1v9.48H6v2.37H1V1H4.08m1-1H0V13.86H7V9.48H5.08V0Z" fill="#f2f2f2"/><polygon points="6.21 13.36 6.21 0.5 12.35 0.5 12.35 3.87 10.29 3.87 10.29 5.12 12.21 5.12 12.21 8.38 10.29 8.38 10.29 9.98 12.55 9.98 12.55 13.36 6.21 13.36" fill="#3f4656"/><path d="M11.85,1V3.37H9.79V5.62h1.93V7.88H9.79v2.61h2.26v2.37H6.71V1h5.14m1-1H5.71V13.86h7.35V9.48H10.79V8.88h1.93V4.62H10.79V4.37h2.06V0Z" fill="#f2f2f2"/><path d="M19.26,13.36v-1l-.14,1H16.34L16.13,12v1.39H12.44V.5h4.91l.07.42q.14.83.28,1.89L18,.5h5V13.36Z" fill="#3f4656"/><path d="M22.45,1V12.86h-2.7v-8l-1.07,8H16.77L15.64,5v7.82h-2.7V1h4q.18,1.07.37,2.52l.44,3L18.44,1h4m1-1H11.94V13.86H23.45V0Z" fill="#f2f2f2"/><path d="M23.19,13.36V.5H26.8a7.72,7.72,0,0,1,2.08.22,2.66,2.66,0,0,1,1.25.71,2.46,2.46,0,0,1,.58,1.13,8.51,8.51,0,0,1,.13,1.76v1a4.71,4.71,0,0,1-.28,1.86,2.1,2.1,0,0,1-1.11,1,4.51,4.51,0,0,1-1.84.32h-.33v4.78Z" fill="#3f4656"/><path d="M26.8,1a7.3,7.3,0,0,1,1.94.2,2.16,2.16,0,0,1,1,.57,2,2,0,0,1,.46.9,8.15,8.15,0,0,1,.12,1.64v1A4.31,4.31,0,0,1,30.1,7a1.6,1.6,0,0,1-.86.8,4.07,4.07,0,0,1-1.64.28h-.83v4.78H23.69V1H26.8M27,6.05a.72.72,0,0,0,.59-.21A1.54,1.54,0,0,0,27.75,5V4a1.15,1.15,0,0,0-.19-.79A1.2,1.2,0,0,0,26.77,3V6H27M26.8,0H22.69V13.86h5.08V9.08a4.81,4.81,0,0,0,1.87-.36A2.58,2.58,0,0,0,31,7.42a5.09,5.09,0,0,0,.32-2.07v-1a9,9,0,0,0-.14-1.86,3,3,0,0,0-.7-1.36A3.14,3.14,0,0,0,29,.24,8.15,8.15,0,0,0,26.8,0Z" fill="#f2f2f2"/></svg>