<svg id="76f232d0-e9f2-4384-af71-83abd57d7770" data-name="1ffd336d-4afb-43f4-a7b4-1607a286f033" xmlns="http://www.w3.org/2000/svg" viewBox="0 0 16 7.59"><title>LEMP_16</title><path d="M15.93,1.76a1.53,1.53,0,0,0-.36-.69,1.6,1.6,0,0,0-.76-.43A4.16,4.16,0,0,0,13.69.51H2.92V5.35H2.59V.51H0V7.59H14.18V5.15a2.46,2.46,0,0,0,1-.18,1.32,1.32,0,0,0,.69-.66A2.6,2.6,0,0,0,16,3.24V2.73A4.6,4.6,0,0,0,15.93,1.76ZM5.51,5H6.1v.31H5.51ZM6.1,2.87H5.51V2.74H6.1Z" fill="#262c3c"/><polygon points="0.26 6.83 0.26 0.26 2.34 0.26 2.34 5.1 3.3 5.1 3.3 6.83 0.26 6.83" fill="#3f4656"/><path d="M2.08.51V5.35h1V6.56H.51V.51H2.08M2.59,0H0V7.08H3.58V4.84h-1Z" fill="#f2f2f2"/><polygon points="3.17 6.83 3.17 0.26 6.31 0.26 6.31 1.98 5.25 1.98 5.25 2.62 6.24 2.62 6.24 4.28 5.25 4.28 5.25 5.1 6.41 5.1 6.41 6.83 3.17 6.83" fill="#3f4656"/><path d="M6.05.51V1.72H5V2.87H6V4H5V5.36H6.15V6.57H3.43V.51H6.05M6.56,0H2.92V7.08H6.67V4.84H5.51V4.54h1V2.36h-1V2.23H6.56Z" fill="#f2f2f2"/><path d="M9.84,6.83V6.31l-.07.51H8.35l-.11-.69v.71H6.35V.26H8.86l0,.21Q9,.9,9,1.44L9.19.26h2.55V6.83Z" fill="#3f4656"/><path d="M11.47.51V6.57H10.09V2.48L9.54,6.57h-1L8,2.56v4H6.61v-6h2q.09.55.19,1.29l.22,1.53L9.42.51h2M12,0H6.1V7.08H12V0Z" fill="#f2f2f2"/><path d="M11.84,6.83V.26h1.84a3.94,3.94,0,0,1,1.06.11,1.36,1.36,0,0,1,.64.36,1.26,1.26,0,0,1,.3.58,4.35,4.35,0,0,1,.07.9v.51a2.41,2.41,0,0,1-.14.95,1.07,1.07,0,0,1-.57.51,2.3,2.3,0,0,1-.94.16h-.17V6.78Z" fill="#3f4656"/><path d="M13.69.51a3.73,3.73,0,0,1,1,.1,1.1,1.1,0,0,1,.51.29,1,1,0,0,1,.23.46,4.16,4.16,0,0,1,.06.84v.51a2.2,2.2,0,0,1-.11.86.82.82,0,0,1-.44.41,2.08,2.08,0,0,1-.84.14h-.42V6.57H12.1V.51h1.59m.1,2.58a.37.37,0,0,0,.3-.11.79.79,0,0,0,.08-.43V2a.59.59,0,0,0-.1-.4.61.61,0,0,0-.4-.11V3.07h.12M13.69,0h-2.1V7.08h2.59V4.64a2.46,2.46,0,0,0,1-.18,1.32,1.32,0,0,0,.69-.66A2.6,2.6,0,0,0,16,2.73V2.22a4.6,4.6,0,0,0-.07-.95,1.53,1.53,0,0,0-.36-.69,1.6,1.6,0,0,0-.76-.45A4.16,4.16,0,0,0,13.69,0Z" fill="#f2f2f2"/></svg>