<svg id="afedac3d-5038-40b0-a007-50dde30861eb" data-name="a63bf576-de30-4ad3-941b-5ba837b11187" xmlns="http://www.w3.org/2000/svg" width="16" height="16" viewBox="0 0 16 16"><path d="M8,15.77A7.77,7.77,0,1,1,15.77,8h0A7.78,7.78,0,0,1,8,15.77Z" fill="#fff"/><path d="M8,.47A7.53,7.53,0,1,1,.47,8,7.53,7.53,0,0,1,8,.47H8M8,0a8,8,0,1,0,8,8A8,8,0,0,0,8,0Z" fill="#fff"/><circle cx="8" cy="8" r="7.53" fill="#5c2d91"/><path d="M7.08,9.07H6.45L4.2,5.74a2.15,2.15,0,0,1-.14-.26h0a2.71,2.71,0,0,1,0,.57v3H3.53V4.89h.69L6.4,8.18c.09.13.14.23.18.28h0a4.17,4.17,0,0,1,0-.61v-3h.54Z" fill="#fff"/><polygon points="10.36 9.09 8.04 9.09 8.04 4.88 10.26 4.88 10.26 5.33 8.55 5.33 8.55 6.73 10.13 6.73 10.13 7.17 8.55 7.17 8.55 8.64 10.36 8.64 10.36 9.09 10.36 9.09" fill="#fff"/><polygon points="13.87 5.33 12.61 5.33 12.61 9.09 12.1 9.09 12.1 5.33 10.84 5.33 10.84 4.88 13.87 4.88 13.87 5.33 13.87 5.33" fill="#fff"/><path d="M6.61,12.4a1.51,1.51,0,0,1-.59.11,1,1,0,0,1-1.09-1,.43.43,0,0,1,0-.16,1.11,1.11,0,0,1,1-1.17h.13a1.35,1.35,0,0,1,.53.1l-.07.24a1.12,1.12,0,0,0-.44-.09.83.83,0,0,0-.88.78.71.71,0,0,0,0,.14.79.79,0,0,0,.71.88h.14a1.18,1.18,0,0,0,.46-.09Z" fill="#fff"/><path d="M8.37,11.66a.78.78,0,0,1-.72.84H7.57a.76.76,0,0,1-.76-.76v-.06a.78.78,0,0,1,.71-.84H7.6a.75.75,0,0,1,.77.74Zm-1.27,0c0,.35.2.61.48.61s.49-.26.49-.62-.13-.6-.48-.6-.48.33-.48.62Z" fill="#fff"/><path d="M8.74,11.37v-.5H9v.32H9a.49.49,0,0,1,.44-.35h.08v.27h-.1a.42.42,0,0,0-.39.37v1H8.74Z" fill="#fff"/><path d="M9.94,11.73a.54.54,0,0,0,.53.54,1.33,1.33,0,0,0,.45-.08l.05.2a1.23,1.23,0,0,1-.53.11.75.75,0,0,1-.79-.7v-.11a.77.77,0,0,1,.69-.85h.06a.69.69,0,0,1,.67.68s0,.05,0,.07a.29.29,0,0,1,0,.13Zm.85-.2a.41.41,0,0,0-.35-.47h0a.46.46,0,0,0-.44.47Z" fill="#fff"/></svg>