<?xml version="1.0" encoding="utf-8"?>
<svg viewBox="0 0 32.04 33.9" xmlns="http://www.w3.org/2000/svg">
  <path d="M 15.95 29.51 C 5.943 29.425 -0.22 18.539 4.857 9.915 C 9.934 1.291 22.443 1.397 27.373 10.106 C 28.479 12.059 29.06 14.265 29.06 16.51 L 29.06 16.51 C 29.016 23.714 23.154 29.527 15.95 29.51 Z" fill="#fff"/>
  <path d="M 15.95 3.88 C 25.665 3.957 31.653 14.521 26.729 22.896 C 21.805 31.271 9.662 31.174 4.871 22.723 C 3.795 20.825 3.23 18.681 3.23 16.5 C 3.258 9.503 8.953 3.852 15.95 3.88 L 15.95 3.88 M 15.95 3.09 C 5.627 3.152 -0.758 14.365 4.457 23.274 C 9.672 32.183 22.575 32.106 27.683 23.135 C 28.835 21.113 29.44 18.827 29.44 16.5 C 29.412 9.074 23.376 3.073 15.95 3.09 Z" fill="#fff"/>
  <ellipse cx="15.95" cy="16.5" rx="12.72" ry="12.62" fill="#5c2d91"/>
  <path d="M 14.44 18.28 L 13.44 18.28 L 9.54 12.71 C 9.447 12.571 9.366 12.424 9.3 12.27 L 9.3 12.27 C 9.322 12.603 9.322 12.937 9.3 13.27 L 9.3 18.32 L 8.44 18.32 L 8.44 11.32 L 9.57 11.32 L 13.25 16.84 L 13.54 17.31 L 13.54 17.31 C 13.517 16.977 13.517 16.643 13.54 16.31 L 13.54 11.31 L 14.44 11.31 Z" fill="#fff"/>
  <polygon points="19.93 18.32 16.02 18.32 16.02 11.28 19.76 11.28 19.76 12.03 16.89 12.03 16.89 14.37 19.55 14.37 19.55 15.11 16.89 15.11 16.89 17.57 19.93 17.57 19.93 18.32 19.93 18.32" fill="#fff"/>
  <polygon points="25.86 12.03 23.73 12.03 23.73 18.32 22.87 18.32 22.87 12.03 20.74 12.03 20.74 11.28 25.86 11.28 25.86 12.03 25.86 12.03" fill="#fff"/>
  <path d="M 13.6 23.87 C 13.283 24 12.942 24.062 12.6 24.05 C 11.638 24.113 10.809 23.382 10.75 22.42 C 10.74 22.334 10.74 22.246 10.75 22.16 C 10.693 21.138 11.478 20.264 12.5 20.21 C 12.57 20.2 12.64 20.2 12.71 20.21 C 13.023 20.192 13.335 20.25 13.62 20.38 L 13.49 20.77 C 13.256 20.66 12.998 20.609 12.74 20.62 C 11.974 20.569 11.313 21.153 11.27 21.92 C 11.265 21.997 11.265 22.073 11.27 22.15 C 11.188 22.897 11.732 23.567 12.48 23.64 L 12.71 23.64 C 12.98 23.641 13.249 23.59 13.5 23.49 Z" fill="#fff"/>
  <path d="M 16.57 22.63 C 16.628 23.356 16.086 23.992 15.36 24.05 L 15.23 24.05 C 14.523 24.056 13.946 23.487 13.94 22.78 L 13.94 22.67 C 13.883 21.951 14.421 21.323 15.14 21.27 L 15.27 21.27 C 15.97 21.248 16.554 21.8 16.57 22.5 C 16.574 22.543 16.574 22.587 16.57 22.63 Z M 14.44 22.63 C 14.44 23.21 14.77 23.63 15.25 23.63 C 15.73 23.63 16.07 23.19 16.07 22.63 C 16.07 22.07 15.84 21.63 15.26 21.63 C 14.68 21.63 14.45 22.18 14.45 22.69 Z" fill="#fff"/>
  <path d="M 17.19 22.15 L 17.19 21.31 L 17.62 21.31 L 17.62 21.84 L 17.62 21.84 C 17.719 21.505 18.021 21.272 18.37 21.26 L 18.51 21.26 L 18.51 21.72 L 18.34 21.72 C 17.996 21.724 17.711 21.987 17.68 22.33 C 17.67 22.406 17.67 22.484 17.68 22.56 L 17.68 24 L 17.19 24 Z" fill="#fff"/>
  <path d="M 19.23 22.75 C 19.23 23.247 19.633 23.65 20.13 23.65 C 20.387 23.658 20.643 23.61 20.88 23.51 L 20.97 23.86 C 20.682 23.981 20.372 24.039 20.06 24.03 C 19.375 24.076 18.783 23.556 18.74 22.87 C 18.735 22.807 18.735 22.743 18.74 22.68 C 18.664 21.968 19.178 21.329 19.89 21.25 L 20 21.25 C 20.626 21.255 21.13 21.764 21.13 22.39 C 21.13 22.39 21.13 22.47 21.13 22.5 C 21.14 22.576 21.14 22.654 21.13 22.73 Z M 20.66 22.41 C 20.713 22.031 20.449 21.682 20.07 21.63 L 19.98 21.63 C 19.566 21.661 19.244 22.004 19.24 22.42 Z" fill="#fff"/>
</svg>