<svg id="be5c8558-9fa7-4a19-8ed9-cb60c0a50456" data-name="a63bf576-de30-4ad3-941b-5ba837b11187" xmlns="http://www.w3.org/2000/svg" width="32.04" height="33.9" viewBox="0 0 32.04 33.9"><path d="M13.51,33.51a13,13,0,1,1,13.11-13h0A13.08,13.08,0,0,1,13.51,33.51Z" fill="#fff"/><path d="M13.51,7.88A12.62,12.62,0,1,1,.79,20.5,12.67,12.67,0,0,1,13.51,7.88h0m0-.79A13.41,13.41,0,1,0,27,20.5,13.46,13.46,0,0,0,13.51,7.09Z" fill="#fff"/><ellipse cx="13.51" cy="20.5" rx="12.72" ry="12.62" fill="#5c2d91"/><path d="M12,22.28h-1L7.1,16.71a2.7,2.7,0,0,1-.24-.44h0a7.69,7.69,0,0,1,0,1v5.05H6v-7H7.13l3.68,5.52.29.47h0a7.11,7.11,0,0,1,0-1v-5H12Z" fill="#fff"/><polygon points="17.49 22.32 13.58 22.32 13.58 15.28 17.32 15.28 17.32 16.03 14.45 16.03 14.45 18.37 17.11 18.37 17.11 19.11 14.45 19.11 14.45 21.57 17.49 21.57 17.49 22.32 17.49 22.32" fill="#fff"/><polygon points="23.42 16.03 21.29 16.03 21.29 22.32 20.43 22.32 20.43 16.03 18.3 16.03 18.3 15.28 23.42 15.28 23.42 16.03 23.42 16.03" fill="#fff"/><path d="M11.16,27.87a2.41,2.41,0,0,1-1,.18,1.74,1.74,0,0,1-1.85-1.63,1.13,1.13,0,0,1,0-.26,1.85,1.85,0,0,1,1.75-1.95.74.74,0,0,1,.21,0,1.92,1.92,0,0,1,.91.17l-.13.39a1.6,1.6,0,0,0-.75-.15,1.38,1.38,0,0,0-1.47,1.3,1.76,1.76,0,0,0,0,.23,1.35,1.35,0,0,0,1.21,1.49h.23a2.13,2.13,0,0,0,.79-.15Z" fill="#fff"/><path d="M14.13,26.63a1.32,1.32,0,0,1-1.21,1.42h-.13a1.28,1.28,0,0,1-1.29-1.27v-.11a1.3,1.3,0,0,1,1.2-1.4h.13a1.26,1.26,0,0,1,1.3,1.23A.66.66,0,0,1,14.13,26.63Zm-2.13,0c0,.58.33,1,.81,1s.82-.44.82-1-.23-1-.81-1-.81.55-.81,1.06Z" fill="#fff"/><path d="M14.75,26.15v-.84h.43v.53h0a.81.81,0,0,1,.75-.58h.14v.46H15.9a.67.67,0,0,0-.66.61.89.89,0,0,0,0,.23V28h-.49Z" fill="#fff"/><path d="M16.79,26.75a.9.9,0,0,0,.9.9,1.78,1.78,0,0,0,.75-.14l.09.35a2.2,2.2,0,0,1-.91.17,1.24,1.24,0,0,1-1.32-1.16,1.21,1.21,0,0,1,0-.19,1.3,1.3,0,0,1,1.15-1.43h.11a1.14,1.14,0,0,1,1.13,1.14s0,.08,0,.11a.89.89,0,0,1,0,.23Zm1.43-.34a.69.69,0,0,0-.59-.78h-.09a.8.8,0,0,0-.74.79Z" fill="#fff"/><path d="M17.2,3.41a1.48,1.48,0,0,1-.14.65,1.22,1.22,0,0,1-.38.46,1.56,1.56,0,0,1-.6.31,3,3,0,0,1-.82.09H13.84V0h1.31a7.55,7.55,0,0,1,.79,0,1.54,1.54,0,0,1,.51.17.88.88,0,0,1,.39.37,1,1,0,0,1,.13.54,1.11,1.11,0,0,1-.19.62,1.2,1.2,0,0,1-.51.43v0a1.26,1.26,0,0,1,.69.43A1.28,1.28,0,0,1,17.2,3.41ZM16.28,1.2a.75.75,0,0,0-.06-.31A.46.46,0,0,0,16,.69a.89.89,0,0,0-.36-.11l-.54,0h-.64V2h.75a2.54,2.54,0,0,0,.46,0,1,1,0,0,0,.3-.13.65.65,0,0,0,.22-.25A1.1,1.1,0,0,0,16.28,1.2Zm.23,2.24A1,1,0,0,0,16.43,3a.69.69,0,0,0-.32-.31,1,1,0,0,0-.34-.1,3.51,3.51,0,0,0-.53,0h-.75V4.36H15a4,4,0,0,0,.68,0,.9.9,0,0,0,.44-.17.77.77,0,0,0,.28-.29A1,1,0,0,0,16.51,3.44Z" fill="#fff"/><path d="M18.72,4.92V0h3.1V.58H19.38V1.93h2.27v.58H19.38V4.34h2.44v.58Z" fill="#fff"/><path d="M25,4.92V.58H23.31V0h4V.58H25.64V4.92Z" fill="#fff"/><path d="M27.88,4.92,29.55,0h.82L32,4.92h-.7l-.45-1.37H29l-.45,1.37ZM30.71,3,29.94.67,29.18,3Z" fill="#fff"/><path d="M17.2,3.41a1.48,1.48,0,0,1-.14.65,1.22,1.22,0,0,1-.38.46,1.56,1.56,0,0,1-.6.31,3,3,0,0,1-.82.09H13.84V0h1.31a7.55,7.55,0,0,1,.79,0,1.54,1.54,0,0,1,.51.17.88.88,0,0,1,.39.37,1,1,0,0,1,.13.54,1.11,1.11,0,0,1-.19.62,1.2,1.2,0,0,1-.51.43v0a1.26,1.26,0,0,1,.69.43A1.28,1.28,0,0,1,17.2,3.41ZM16.28,1.2a.75.75,0,0,0-.06-.31A.46.46,0,0,0,16,.69a.89.89,0,0,0-.36-.11l-.54,0h-.64V2h.75a2.54,2.54,0,0,0,.46,0,1,1,0,0,0,.3-.13.65.65,0,0,0,.22-.25A1.1,1.1,0,0,0,16.28,1.2Zm.23,2.24A1,1,0,0,0,16.43,3a.69.69,0,0,0-.32-.31,1,1,0,0,0-.34-.1,3.51,3.51,0,0,0-.53,0h-.75V4.36H15a4,4,0,0,0,.68,0,.9.9,0,0,0,.44-.17.77.77,0,0,0,.28-.29A1,1,0,0,0,16.51,3.44Z" fill="#fff"/><path d="M18.72,4.92V0h3.1V.58H19.38V1.93h2.27v.58H19.38V4.34h2.44v.58Z" fill="#fff"/><path d="M25,4.92V.58H23.31V0h4V.58H25.64V4.92Z" fill="#fff"/><path d="M27.88,4.92,29.55,0h.82L32,4.92h-.7l-.45-1.37H29l-.45,1.37ZM30.71,3,29.94.67,29.18,3Z" fill="#fff"/></svg>