<svg id="Слой_1" data-name="Слой 1" xmlns="http://www.w3.org/2000/svg" viewBox="0 0 286.24 101.03"><title>11</title><g opacity="0.5"><path d="M53.14,46.33V59.54a2.61,2.61,0,0,1-2.6,2.6H3.13a2.61,2.61,0,0,1-2.6-2.6V46.33" fill="#71b429"/></g><g opacity="0.5"><path d="M50.54,62.67H47.38V61.61h3.16Zm-5.79,0H41.59V61.61h3.16Zm-5.79,0H35.81V61.61H39Zm-5.79,0H30V61.61h3.16Zm-5.79,0H24.23V61.61h3.16Zm-5.79,0H18.44V61.61H21.6Zm-5.79,0H12.65V61.61h3.16Zm-5.79,0H6.87V61.61H10Zm-5.79,0H3.13a3.11,3.11,0,0,1-2.22-.92L1.66,61a2.06,2.06,0,0,0,1.47.61H4.24Zm46.62,0-.11-1a2.09,2.09,0,0,0,1.8-1.54l1,.27A3.15,3.15,0,0,1,50.85,62.65ZM1.05,58.94H0V55.79H1.05Zm52.62-1.37H52.62V54.42h1.05ZM1.05,53.16H0V50H1.05Zm52.62-1.37H52.62V48.63h1.05ZM1.05,47.37H0V44.21H1.05ZM53.67,46H52.62V42.84h1.05ZM1.05,41.58H0V38.42H1.05Zm52.62-1.37H52.62V37.06h1.05ZM1.05,35.79H0V32.63H1.05Zm52.62-1.37H52.62V31.27h1.05ZM1.05,30H0V26.85H1.05Zm52.62-1.37H52.62V25.48h1.05ZM1.05,24.22H0V21.06H1.05Zm52.62-1.37H52.62V19.69h1.05ZM1.05,18.43H0V15.27H1.05Zm52.62-1.37H52.62V13.91h1.05ZM1.05,12.64H0v-.51A3.12,3.12,0,0,1,1.48,9.47l.56.89a2.07,2.07,0,0,0-1,1.77Zm51.45-1.18a2.09,2.09,0,0,0-1.9-1.41l0-1.05a3.15,3.15,0,0,1,2.87,2.12ZM48,10.05H44.83V9H48Zm-5.79,0H39V9H42.2Zm-5.79,0H33.25V9h3.16Zm-5.79,0H27.47V9h3.16Zm-5.79,0H21.68V9h3.16Zm-5.79,0H15.89V9H19Zm-5.79,0H10.1V9h3.16Zm-5.79,0H4.32V9H7.47Z" fill="#01abff"/></g><g opacity="0.5"><path d="M13.68,57.14h-2.1v-.53h2.1Zm-3.68,0H7.89v-.53H10Zm-3.42-.26H6.05v-2.1h.53Zm7.37-1.05h-.53V53.72h.53ZM6.58,53.2H6.05v-2.1h.53Zm7.37-1.05h-.53V50h.53ZM6.58,49.51H6.05V47.41h.53Zm7.37-1.05h-.53v-2.1h.53ZM6.58,45.83H6.05v-2.1h.53Zm7.37-1.05h-.53v-2.1h.53ZM6.58,42.15H6.05V40h.53Zm7.37-1.05h-.53V39h.53ZM6.58,38.46H6.05v-2.1h.53Zm7.37-1.05h-.53V35.31h.53ZM6.58,34.78H6.05v-2.1h.53Zm7.37-1.05h-.53v-2.1h.53ZM6.58,31.1H6.05V29h.53ZM13.94,30h-.53v-2.1h.53ZM6.58,27.41H6.05v-2.1h.53Zm7.37-1.05h-.53v-2.1h.53ZM6.58,23.73H6.05v-2.1h.53Zm7.37-1.05h-.53v-2.1h.53ZM6.58,20H6.05v-2.1h.53ZM13.94,19h-.53V16.89h.53ZM6.58,16.36H6.05V14.52h.79V15H6.58Zm7.37-1.05h-.53V15H12.1v-.53h1.84ZM10.52,15H8.42v-.53h2.1Z" fill="#01abff"/></g><g opacity="0.5"><path d="M24.73,57.14h-2.1v-.53h2.1Zm-3.68,0h-2.1v-.53H21Zm-3.42-.26H17.1v-2.1h.53ZM25,55.83h-.53V53.72H25ZM17.63,53.2H17.1v-2.1h.53ZM25,52.14h-.53V50H25Zm-7.37-2.63H17.1V47.41h.53ZM25,48.46h-.53v-2.1H25Zm-7.37-2.63H17.1v-2.1h.53ZM25,44.78h-.53v-2.1H25Zm-7.37-2.63H17.1V40h.53ZM25,41.09h-.53V39H25Zm-7.37-2.63H17.1v-2.1h.53ZM25,37.41h-.53V35.31H25Zm-7.37-2.63H17.1v-2.1h.53ZM25,33.73h-.53v-2.1H25ZM17.63,31.1H17.1V29h.53ZM25,30h-.53v-2.1H25Zm-7.37-2.63H17.1v-2.1h.53ZM25,26.36h-.53v-2.1H25Zm-7.37-2.63H17.1v-2.1h.53ZM25,22.68h-.53v-2.1H25ZM17.63,20H17.1v-2.1h.53ZM25,19h-.53V16.89H25Zm-7.37-2.63H17.1V14.52h.79V15h-.26ZM25,15.31h-.53V15H23.15v-.53H25ZM21.57,15h-2.1v-.53h2.1Z" fill="#01abff"/></g><g opacity="0.5"><path d="M35.78,57.14h-2.1v-.53h2.1Zm-3.68,0H30v-.53h2.1Zm-3.95-.26v-2.1h.53v2.1ZM36,55.83h-.53V53.72H36ZM28.68,53.2h-.53v-2.1h.53ZM36,52.14h-.53V50H36Zm-7.37-2.63h-.53V47.41h.53ZM36,48.46h-.53v-2.1H36Zm-7.37-2.63h-.53v-2.1h.53ZM36,44.78h-.53v-2.1H36Zm-7.37-2.63h-.53V40h.53ZM36,41.09h-.53V39H36Zm-7.37-2.63h-.53v-2.1h.53ZM36,37.41h-.53V35.3H36Zm-7.37-2.63h-.53v-2.1h.53ZM36,33.73h-.53v-2.1H36ZM28.68,31.1h-.53V29h.53ZM36,30h-.53v-2.1H36Zm-7.37-2.63h-.53v-2.1h.53ZM36,26.36h-.53v-2.1H36Zm-7.37-2.63h-.53V21.63h.53ZM36,22.68h-.53v-2.1H36ZM28.68,20h-.53v-2.1h.53ZM36,19h-.53V16.89H36Zm-7.37-2.63h-.53V14.52h.79V15h-.26ZM36,15.31h-.53V15H34.2v-.53H36ZM32.62,15h-2.1v-.53h2.1Z" fill="#01abff"/></g><g opacity="0.5"><path d="M46.83,57.14h-2.1v-.53h2.1Zm-3.68,0H41v-.53h2.1Zm-3.42-.26H39.2v-2.1h.53Zm7.37-1.05h-.53V53.72h.53ZM39.73,53.2H39.2v-2.1h.53Zm7.37-1.05h-.53V50h.53Zm-7.37-2.63H39.2V47.41h.53Zm7.37-1.05h-.53v-2.1h.53Zm-7.37-2.63H39.2v-2.1h.53Zm7.37-1.05h-.53v-2.1h.53Zm-7.37-2.63H39.2V40h.53Zm7.37-1.05h-.53V39h.53Zm-7.37-2.63H39.2v-2.1h.53Zm7.37-1.05h-.53V35.31h.53Zm-7.37-2.63H39.2v-2.1h.53Zm7.37-1.05h-.53v-2.1h.53ZM39.73,31.1H39.2V29h.53ZM47.09,30h-.53v-2.1h.53Zm-7.37-2.63H39.2v-2.1h.53Zm7.37-1.05h-.53v-2.1h.53Zm-7.37-2.63H39.2v-2.1h.53Zm7.37-1.05h-.53v-2.1h.53ZM39.73,20H39.2v-2.1h.53ZM47.09,19h-.53V16.89h.53Zm-7.37-2.63H39.2V14.52H40V15h-.26Zm7.37-1.05h-.53V15H45.25v-.53h1.84ZM43.67,15h-2.1v-.53h2.1Z" fill="#01abff"/></g><path d="M53.32,0a7.19,7.19,0,1,0,7.19,7.19A7.19,7.19,0,0,0,53.32,0Z" fill="#ed2226"/><path d="M58.17,8.45a.87.87,0,0,1-.74.9,29.64,29.64,0,0,1-4.12.24,29.64,29.64,0,0,1-4.12-.24.87.87,0,0,1-.74-.9V5.65a.93.93,0,0,1,.74-.9,9.66,9.66,0,0,1,1.29-.09.31.31,0,0,1,.31.34V7l2.52-.05L55.85,7V5a.31.31,0,0,1,.32-.34,9.65,9.65,0,0,1,1.29.09.92.92,0,0,1,.74.9c0,.92,0,1.87,0,2.8Z" fill="#fff"/><g opacity="0.5"><path d="M278.87,46.33V59.54a2.61,2.61,0,0,1-2.6,2.6H228.86a2.61,2.61,0,0,1-2.6-2.6V46.33" fill="#71b429"/></g><g opacity="0.5"><path d="M276.27,62.67h-3.16V61.61h3.16Zm-5.79,0h-3.16V61.61h3.16Zm-5.79,0h-3.16V61.61h3.16Zm-5.79,0h-3.16V61.61h3.16Zm-5.79,0H250V61.61h3.16Zm-5.79,0h-3.16V61.61h3.16Zm-5.79,0h-3.16V61.61h3.16Zm-5.79,0h-3.16V61.61h3.16Zm-5.79,0h-1.1a3.11,3.11,0,0,1-2.22-.93l.75-.74a2.06,2.06,0,0,0,1.47.62H230Zm46.62,0-.11-1a2.09,2.09,0,0,0,1.8-1.54l1,.27A3.15,3.15,0,0,1,276.58,62.65Zm-49.8-3.71h-1.05V55.79h1.05Zm52.62-1.36h-1.05V54.42h1.05Zm-52.62-4.42h-1.05V50h1.05Zm52.62-1.36h-1.05V48.63h1.05Zm-52.62-4.42h-1.05V44.21h1.05ZM279.4,46h-1.05V42.85h1.05Zm-52.62-4.42h-1.05V38.42h1.05Zm52.62-1.36h-1.05V37.06h1.05Zm-52.62-4.42h-1.05V32.63h1.05Zm52.62-1.36h-1.05V31.27h1.05ZM226.78,30h-1.05V26.85h1.05Zm52.62-1.36h-1.05V25.48h1.05Zm-52.62-4.42h-1.05V21.06h1.05Zm52.62-1.36h-1.05V19.69h1.05Zm-52.62-4.42h-1.05V15.27h1.05Zm52.62-1.36h-1.05V13.91h1.05Zm-52.62-4.42h-1.05v-.51a3.12,3.12,0,0,1,1.48-2.66l.56.89a2.07,2.07,0,0,0-1,1.77Zm51.45-1.18a2.09,2.09,0,0,0-1.9-1.41l0-1.05a3.15,3.15,0,0,1,2.87,2.12Zm-4.52-1.41h-3.16V9h3.16Zm-5.79,0h-3.16V9h3.16Zm-5.79,0H259V9h3.16Zm-5.79,0H253.2V9h3.16Zm-5.79,0h-3.16V9h3.16Zm-5.79,0h-3.16V9h3.16Zm-5.79,0h-3.16V9H239Zm-5.79,0H230V9h3.16Z" fill="#01abff"/></g><g opacity="0.5"><path d="M239.41,57.14h-2.1v-.53h2.1Zm-3.68,0h-2.1v-.53h2.1Zm-3.42-.26h-.53v-2.1h.53Zm7.37-1.05h-.53V53.72h.53ZM232.3,53.2h-.53v-2.1h.53Zm7.37-1.05h-.53V50h.53Zm-7.37-2.63h-.53V47.41h.53Zm7.37-1.05h-.53v-2.1h.53Zm-7.37-2.63h-.53v-2.1h.53Zm7.37-1.05h-.53v-2.1h.53Zm-7.37-2.63h-.53V40h.53Zm7.37-1.05h-.53V39h.53Zm-7.37-2.63h-.53v-2.1h.53Zm7.37-1.05h-.53V35.31h.53Zm-7.37-2.63h-.53v-2.1h.53Zm7.37-1.05h-.53v-2.1h.53ZM232.3,31.1h-.53V29h.53ZM239.67,30h-.53v-2.1h.53Zm-7.37-2.63h-.53v-2.1h.53Zm7.37-1.05h-.53v-2.1h.53Zm-7.37-2.63h-.53v-2.1h.53Zm7.37-1.05h-.53v-2.1h.53ZM232.3,20h-.53v-2.1h.53ZM239.67,19h-.53V16.89h.53Zm-7.37-2.63h-.53V14.52h.79V15h-.26Zm7.37-1.05h-.53V15h-1.32v-.53h1.84ZM236.25,15h-2.1v-.53h2.1Z" fill="#01abff"/></g><g opacity="0.5"><path d="M250.46,57.14h-2.1v-.53h2.1Zm-3.68,0h-2.1v-.53h2.1Zm-3.95-.26v-2.1h.53v2.1Zm7.89-1.05h-.53V53.72h.53Zm-7.37-2.63h-.53v-2.1h.53Zm7.37-1.05h-.53V50h.53Zm-7.37-2.63h-.53V47.41h.53Zm7.37-1.06h-.53v-2.1h.53Zm-7.37-2.63h-.53v-2.1h.53Zm7.37-1.05h-.53v-2.1h.53Zm-7.37-2.63h-.53V40h.53Zm7.37-1.05h-.53V39h.53Zm-7.37-2.63h-.53v-2.1h.53Zm7.37-1.05h-.53V35.3h.53Zm-7.37-2.63h-.53v-2.1h.53Zm7.37-1.05h-.53v-2.1h.53Zm-7.37-2.63h-.53V29h.53ZM250.72,30h-.53v-2.1h.53Zm-7.37-2.63h-.53v-2.1h.53Zm7.37-1.05h-.53v-2.1h.53Zm-7.37-2.63h-.53V21.63h.53Zm7.37-1.06h-.53v-2.1h.53ZM243.35,20h-.53v-2.1h.53ZM250.72,19h-.53V16.89h.53Zm-7.37-2.63h-.53V14.52h.79V15h-.26Zm7.37-1.05h-.53V15h-1.32v-.53h1.84ZM247.3,15h-2.1v-.53h2.1Z" fill="#01abff"/></g><g opacity="0.5"><path d="M261.51,57.14h-2.1v-.53h2.1Zm-3.68,0h-2.1v-.53h2.1Zm-3.42-.26h-.53v-2.1h.53Zm7.37-1.05h-.53V53.72h.53ZM254.4,53.2h-.53v-2.1h.53Zm7.37-1.05h-.53V50h.53Zm-7.37-2.63h-.53V47.41h.53Zm7.37-1.05h-.53v-2.1h.53Zm-7.37-2.63h-.53v-2.1h.53Zm7.37-1.05h-.53v-2.1h.53Zm-7.37-2.63h-.53V40h.53Zm7.37-1.05h-.53V39h.53Zm-7.37-2.63h-.53v-2.1h.53Zm7.37-1.05h-.53V35.31h.53Zm-7.37-2.63h-.53v-2.1h.53Zm7.37-1.05h-.53v-2.1h.53ZM254.4,31.1h-.53V29h.53ZM261.77,30h-.53v-2.1h.53Zm-7.37-2.63h-.53v-2.1h.53Zm7.37-1.05h-.53v-2.1h.53Zm-7.37-2.63h-.53v-2.1h.53Zm7.37-1.05h-.53v-2.1h.53ZM254.4,20h-.53v-2.1h.53ZM261.77,19h-.53V16.89h.53Zm-7.37-2.63h-.53V14.52h.79V15h-.26Zm7.37-1.05h-.53V15h-1.32v-.53h1.84ZM258.35,15h-2.1v-.53h2.1Z" fill="#01abff"/></g><g opacity="0.5"><path d="M272.56,57.14h-2.1v-.53h2.1Zm-3.68,0h-2.1v-.53h2.1Zm-3.42-.26h-.53v-2.1h.53Zm7.37-1.05h-.53V53.72h.53Zm-7.37-2.63h-.53v-2.1h.53Zm7.37-1.05h-.53V50h.53Zm-7.37-2.63h-.53V47.41h.53Zm7.37-1.05h-.53v-2.1h.53Zm-7.37-2.63h-.53v-2.1h.53Zm7.37-1.05h-.53v-2.1h.53Zm-7.37-2.63h-.53V40h.53Zm7.37-1.05h-.53V39h.53Zm-7.37-2.63h-.53v-2.1h.53Zm7.37-1.05h-.53V35.31h.53Zm-7.37-2.63h-.53v-2.1h.53Zm7.37-1.05h-.53v-2.1h.53Zm-7.37-2.63h-.53V29h.53ZM272.82,30h-.53v-2.1h.53Zm-7.37-2.63h-.53v-2.1h.53Zm7.37-1.05h-.53v-2.1h.53Zm-7.37-2.63h-.53v-2.1h.53Zm7.37-1.05h-.53v-2.1h.53ZM265.45,20h-.53v-2.1h.53ZM272.82,19h-.53V16.89h.53Zm-7.37-2.63h-.53V14.52h.79V15h-.26Zm7.37-1.05h-.53V15H271v-.53h1.84ZM269.4,15h-2.1v-.53h2.1Z" fill="#01abff"/></g><path d="M279,0a7.19,7.19,0,1,0,7.19,7.19A7.19,7.19,0,0,0,279,0Z" fill="#ed2226"/><path d="M283.9,8.45a.87.87,0,0,1-.74.9,29.64,29.64,0,0,1-4.12.24,29.64,29.64,0,0,1-4.12-.24.87.87,0,0,1-.74-.9V5.65a.93.93,0,0,1,.74-.9,9.66,9.66,0,0,1,1.29-.09.31.31,0,0,1,.31.34V7l2.52-.05,2.52.05V5a.31.31,0,0,1,.32-.34,9.65,9.65,0,0,1,1.29.09.92.92,0,0,1,.74.9c0,.92,0,1.87,0,2.8Z" fill="#fff"/><path d="M128.39,30.54v29a2.61,2.61,0,0,1-2.6,2.6H78.37a2.61,2.61,0,0,1-2.6-2.6v-29" fill="#71b429"/><path d="M125.78,62.67H78.37a3.13,3.13,0,0,1-3.13-3.13V12.13A3.13,3.13,0,0,1,78.37,9h47.41a3.13,3.13,0,0,1,3.13,3.13V59.54A3.13,3.13,0,0,1,125.78,62.67ZM78.37,10.05a2.08,2.08,0,0,0-2.08,2.08V59.54a2.08,2.08,0,0,0,2.08,2.08h47.41a2.08,2.08,0,0,0,2.08-2.08V12.13a2.08,2.08,0,0,0-2.08-2.08Z" fill="#01abff"/><path d="M89.19,57.15h-7.9V14.52h7.9Zm-7.37-.54h6.83V15.05H81.83Z" fill="#01abff"/><path d="M100.24,57.15h-7.9V14.52h7.9Zm-7.37-.54H99.7V15.05H92.88Z" fill="#01abff"/><path d="M111.29,57.15h-7.9V14.52h7.9Zm-7.37-.54h6.83V15.05h-6.83Z" fill="#01abff"/><path d="M122.34,57.15h-7.9V14.52h7.9ZM115,56.61h6.83V15.05H115Z" fill="#01abff"/><path d="M203.63,30.54v29a2.61,2.61,0,0,1-2.6,2.6H153.62a2.61,2.61,0,0,1-2.6-2.6v-29" fill="#71b429"/><path d="M201,62.67H153.62a3.13,3.13,0,0,1-3.13-3.13V12.13A3.13,3.13,0,0,1,153.62,9H201a3.13,3.13,0,0,1,3.13,3.13V59.54A3.13,3.13,0,0,1,201,62.67ZM153.62,10.05a2.08,2.08,0,0,0-2.08,2.08V59.54a2.08,2.08,0,0,0,2.08,2.08H201a2.08,2.08,0,0,0,2.08-2.08V12.13A2.08,2.08,0,0,0,201,10.05Z" fill="#01abff"/><path d="M164.43,57.15h-7.9V14.52h7.9Zm-7.37-.54h6.83V15.05h-6.83Z" fill="#01abff"/><path d="M175.48,57.15h-7.9V14.52h7.9Zm-7.37-.54h6.83V15.05h-6.83Z" fill="#01abff"/><path d="M186.53,57.15h-7.9V14.52h7.9Zm-7.37-.54H186V15.05h-6.83Z" fill="#01abff"/><path d="M197.58,57.15h-7.9V14.52h7.9Zm-7.37-.54H197V15.05h-6.83Z" fill="#01abff"/><circle cx="68.67" cy="35.57" r="1.32" fill="#5e6981"/><circle cx="64.46" cy="35.57" r="1.32" fill="#5e6981"/><circle cx="60.25" cy="35.57" r="1.32" fill="#5e6981"/><circle cx="219.15" cy="35.57" r="1.32" fill="#5e6981"/><circle cx="214.94" cy="35.57" r="1.32" fill="#5e6981"/><circle cx="210.73" cy="35.57" r="1.32" fill="#5e6981"/><path d="M113.2,98.92V91.76h3.17a4.22,4.22,0,0,1,1.46.19,1.59,1.59,0,0,1,.8.68,2,2,0,0,1,.3,1.08,1.8,1.8,0,0,1-.49,1.28,2.5,2.5,0,0,1-1.52.66,2.43,2.43,0,0,1,.57.36,4.92,4.92,0,0,1,.79,1l1.25,1.95h-1.19l-.95-1.49q-.41-.64-.68-1a2.12,2.12,0,0,0-.48-.48,1.42,1.42,0,0,0-.43-.19,2.88,2.88,0,0,0-.53,0h-1.1v3.18Zm.95-4h2a3.07,3.07,0,0,0,1-.13,1.09,1.09,0,0,0,.56-.43,1.16,1.16,0,0,0,.19-.64,1.07,1.07,0,0,0-.37-.83,1.73,1.73,0,0,0-1.17-.33h-2.27Z" fill="#fff"/><path d="M123.84,97.25l.91.11a2.22,2.22,0,0,1-.8,1.24,2.39,2.39,0,0,1-1.48.44,2.37,2.37,0,0,1-1.8-.7,2.73,2.73,0,0,1-.67-2,2.87,2.87,0,0,1,.67-2,2.28,2.28,0,0,1,1.75-.72,2.22,2.22,0,0,1,1.7.71,2.81,2.81,0,0,1,.66,2c0,.05,0,.13,0,.23h-3.87a2,2,0,0,0,.48,1.31,1.44,1.44,0,0,0,1.08.45,1.35,1.35,0,0,0,.83-.25A1.69,1.69,0,0,0,123.84,97.25ZM121,95.83h2.9a1.75,1.75,0,0,0-.33-1,1.35,1.35,0,0,0-1.09-.51,1.4,1.4,0,0,0-1,.41A1.61,1.61,0,0,0,121,95.83Z" fill="#fff"/><path d="M126.66,98.92h-.82V91.76h.88v2.55a1.74,1.74,0,0,1,1.42-.7,2.17,2.17,0,0,1,.91.19,1.84,1.84,0,0,1,.7.54,2.62,2.62,0,0,1,.43.84,3.47,3.47,0,0,1,.16,1.05,3,3,0,0,1-.66,2.06,2.06,2.06,0,0,1-1.58.73,1.65,1.65,0,0,1-1.44-.77Zm0-2.63a2.69,2.69,0,0,0,.25,1.35,1.26,1.26,0,0,0,2.12.18,2.27,2.27,0,0,0,.42-1.49,2.31,2.31,0,0,0-.4-1.5,1.22,1.22,0,0,0-1-.48,1.27,1.27,0,0,0-1,.5A2.2,2.2,0,0,0,126.65,96.29Z" fill="#fff"/><path d="M134.8,98.28a3.29,3.29,0,0,1-.94.59,2.72,2.72,0,0,1-1,.17,1.88,1.88,0,0,1-1.31-.42,1.38,1.38,0,0,1-.46-1.07,1.41,1.41,0,0,1,.17-.7,1.43,1.43,0,0,1,.45-.51,2.15,2.15,0,0,1,.63-.29,6.16,6.16,0,0,1,.78-.13,8,8,0,0,0,1.57-.3c0-.12,0-.2,0-.23a1,1,0,0,0-.25-.76,1.47,1.47,0,0,0-1-.3,1.55,1.55,0,0,0-.92.22,1.33,1.33,0,0,0-.44.77l-.86-.12a2.14,2.14,0,0,1,.39-.89,1.68,1.68,0,0,1,.78-.52,3.44,3.44,0,0,1,1.18-.18,3.11,3.11,0,0,1,1.08.16,1.43,1.43,0,0,1,.61.39,1.38,1.38,0,0,1,.27.6,5,5,0,0,1,0,.81v1.17a12.53,12.53,0,0,0,.06,1.55,2,2,0,0,0,.22.62H135A1.88,1.88,0,0,1,134.8,98.28Zm-.07-2a6.46,6.46,0,0,1-1.44.33,3.28,3.28,0,0,0-.77.18.76.76,0,0,0-.35.29.78.78,0,0,0,.14,1,1.15,1.15,0,0,0,.78.23,1.82,1.82,0,0,0,.9-.22,1.37,1.37,0,0,0,.58-.61,2.12,2.12,0,0,0,.14-.88Z" fill="#fff"/><path d="M137,98.92V91.76h.88v7.16Z" fill="#fff"/><path d="M142.58,98.28a3.29,3.29,0,0,1-.94.59,2.72,2.72,0,0,1-1,.17,1.88,1.88,0,0,1-1.31-.42,1.38,1.38,0,0,1-.46-1.07,1.41,1.41,0,0,1,.17-.7,1.43,1.43,0,0,1,.45-.51,2.15,2.15,0,0,1,.63-.29,6.16,6.16,0,0,1,.78-.13,8,8,0,0,0,1.57-.3c0-.12,0-.2,0-.23a1,1,0,0,0-.25-.76,1.47,1.47,0,0,0-1-.3,1.55,1.55,0,0,0-.92.22,1.33,1.33,0,0,0-.44.77l-.86-.12a2.14,2.14,0,0,1,.39-.89,1.68,1.68,0,0,1,.78-.52,3.44,3.44,0,0,1,1.18-.18,3.11,3.11,0,0,1,1.08.16,1.43,1.43,0,0,1,.61.39,1.38,1.38,0,0,1,.27.6,5,5,0,0,1,0,.81v1.17a12.53,12.53,0,0,0,.06,1.55,2,2,0,0,0,.22.62h-.92A1.88,1.88,0,0,1,142.58,98.28Zm-.07-2a6.46,6.46,0,0,1-1.44.33,3.28,3.28,0,0,0-.77.18.76.76,0,0,0-.35.29.78.78,0,0,0,.14,1,1.15,1.15,0,0,0,.78.23,1.82,1.82,0,0,0,.9-.22,1.37,1.37,0,0,0,.58-.61,2.12,2.12,0,0,0,.14-.88Z" fill="#fff"/><path d="M144.76,98.92V93.74h.79v.74a1.86,1.86,0,0,1,1.65-.85,2.19,2.19,0,0,1,.86.17,1.36,1.36,0,0,1,.59.44,1.7,1.7,0,0,1,.27.65,5.07,5.07,0,0,1,0,.85v3.19h-.88V95.77a2.36,2.36,0,0,0-.1-.8.85.85,0,0,0-.36-.43,1.16,1.16,0,0,0-.61-.16,1.43,1.43,0,0,0-1,.36,1.76,1.76,0,0,0-.41,1.35v2.83Z" fill="#fff"/><path d="M153.7,97l.86.11a2.24,2.24,0,0,1-.73,1.4,2.11,2.11,0,0,1-1.43.51,2.23,2.23,0,0,1-1.71-.7,2.83,2.83,0,0,1-.65-2,3.61,3.61,0,0,1,.28-1.47,2,2,0,0,1,.85-.95,2.53,2.53,0,0,1,1.24-.31,2.15,2.15,0,0,1,1.38.43,2,2,0,0,1,.69,1.21l-.85.13a1.41,1.41,0,0,0-.43-.79,1.12,1.12,0,0,0-.75-.26,1.36,1.36,0,0,0-1.08.48,2.26,2.26,0,0,0-.42,1.51,2.34,2.34,0,0,0,.4,1.52,1.3,1.3,0,0,0,1,.47,1.23,1.23,0,0,0,.86-.32A1.57,1.57,0,0,0,153.7,97Z" fill="#fff"/><path d="M155.33,92.77v-1h.88v1Zm0,6.15V93.74h.88v5.19Z" fill="#fff"/><path d="M157.54,98.92V93.74h.79v.74a1.86,1.86,0,0,1,1.65-.85,2.19,2.19,0,0,1,.86.17,1.36,1.36,0,0,1,.59.44,1.7,1.7,0,0,1,.27.65,5.07,5.07,0,0,1,0,.85v3.19h-.88V95.77a2.36,2.36,0,0,0-.1-.8.85.85,0,0,0-.36-.43,1.16,1.16,0,0,0-.61-.16,1.43,1.43,0,0,0-1,.36,1.76,1.76,0,0,0-.41,1.35v2.83Z" fill="#fff"/><path d="M162.94,99.35l.85.13a.81.81,0,0,0,.3.58,1.46,1.46,0,0,0,.89.24,1.57,1.57,0,0,0,.94-.24,1.2,1.2,0,0,0,.45-.68,5.61,5.61,0,0,0,.06-1.13,1.81,1.81,0,0,1-1.44.68,2,2,0,0,1-1.66-.77,3,3,0,0,1-.59-1.85,3.45,3.45,0,0,1,.27-1.37,2.15,2.15,0,0,1,.78-1,2.11,2.11,0,0,1,1.2-.34,1.86,1.86,0,0,1,1.51.74v-.62h.81v4.48a4.26,4.26,0,0,1-.25,1.72,1.82,1.82,0,0,1-.78.8A2.71,2.71,0,0,1,165,101a2.49,2.49,0,0,1-1.5-.42A1.41,1.41,0,0,1,162.94,99.35Zm.73-3.12a2.25,2.25,0,0,0,.41,1.49,1.29,1.29,0,0,0,1,.47,1.3,1.3,0,0,0,1-.47,2.18,2.18,0,0,0,.41-1.46,2.13,2.13,0,0,0-.42-1.44,1.31,1.31,0,0,0-1-.48,1.27,1.27,0,0,0-1,.48A2.12,2.12,0,0,0,163.67,96.24Z" fill="#fff"/><path d="M128.56,0a7.19,7.19,0,1,0,7.19,7.19A7.19,7.19,0,0,0,128.56,0Z" fill="#ed2226"/><path d="M133.42,8.45a.87.87,0,0,1-.74.9,29.64,29.64,0,0,1-4.12.24,29.64,29.64,0,0,1-4.12-.24.87.87,0,0,1-.74-.9V5.65a.93.93,0,0,1,.74-.9,9.66,9.66,0,0,1,1.29-.09.31.31,0,0,1,.31.34V7l2.52-.05,2.52.05V5a.31.31,0,0,1,.32-.34,9.65,9.65,0,0,1,1.29.09.92.92,0,0,1,.74.9c0,.92,0,1.87,0,2.8Z" fill="#fff"/><path d="M203.28,0a7.19,7.19,0,1,0,7.19,7.19A7.19,7.19,0,0,0,203.28,0Z" fill="#ed2226"/><path d="M208.13,8.45a.87.87,0,0,1-.74.9,29.64,29.64,0,0,1-4.12.24,29.64,29.64,0,0,1-4.12-.24.87.87,0,0,1-.74-.9V5.65a.93.93,0,0,1,.74-.9,9.66,9.66,0,0,1,1.29-.09.31.31,0,0,1,.31.34V7l2.52-.05,2.52.05V5a.31.31,0,0,1,.32-.34,9.65,9.65,0,0,1,1.29.09.92.92,0,0,1,.74.9c0,.92,0,1.87,0,2.8Z" fill="#fff"/><rect x="26.83" y="78.66" width="225.73" height="1.05" fill="#71b429"/><rect x="101.44" y="68.08" width="1.05" height="11.17" fill="#71b429"/><polygon points="101.97 64.74 99.6 69.66 104.33 69.66 101.97 64.74" fill="#71b429"/><rect x="26.2" y="68.08" width="1.05" height="11.17" fill="#71b429"/><polygon points="26.72 64.74 24.36 69.66 29.09 69.66 26.72 64.74" fill="#71b429"/><rect x="177.21" y="68.08" width="1.05" height="11.17" fill="#71b429"/><polygon points="177.73 64.74 175.37 69.66 180.1 69.66 177.73 64.74" fill="#71b429"/><rect x="251.98" y="68.08" width="1.05" height="11.17" fill="#71b429"/><polygon points="252.56 64.74 250.19 69.66 254.93 69.66 252.56 64.74" fill="#71b429"/><path d="M66,73.4H61.35a.84.84,0,0,0-.84.84v9.68a.85.85,0,0,0,.84.84h6.31a.84.84,0,0,0,.84-.84V76.35Z" fill="#fff"/><path d="M66,74l2,2.32H66.4a.46.46,0,0,1-.42-.42Z" fill="#3d4351"/><path d="M68.09,83.92a.42.42,0,0,1-.42.42H61.35a.42.42,0,0,1-.42-.42V74.24a.42.42,0,0,1,.42-.42h4.21v2.1a.84.84,0,0,0,.84.84h1.68Z" fill="#3d4351"/><path d="M68.09,83.92"/><path d="M141.22,73.4H136.6a.84.84,0,0,0-.84.84v9.68a.85.85,0,0,0,.84.84h6.31a.84.84,0,0,0,.84-.84V76.35Z" fill="#fff"/><path d="M141.22,74l2,2.32h-1.56a.46.46,0,0,1-.42-.42Z" fill="#3d4351"/><path d="M143.33,83.92a.42.42,0,0,1-.42.42H136.6a.42.42,0,0,1-.42-.42V74.24a.42.42,0,0,1,.42-.42h4.21v2.1a.84.84,0,0,0,.84.84h1.68Z" fill="#3d4351"/><path d="M143.33,83.92"/><path d="M216.47,73.4h-4.63a.84.84,0,0,0-.84.84v9.68a.85.85,0,0,0,.84.84h6.31a.84.84,0,0,0,.84-.84V76.35Z" fill="#fff"/><path d="M216.47,74l2,2.32h-1.56a.46.46,0,0,1-.42-.42Z" fill="#3d4351"/><path d="M218.57,83.92a.42.42,0,0,1-.42.42h-6.31a.42.42,0,0,1-.42-.42V74.24a.42.42,0,0,1,.42-.42H216v2.1a.84.84,0,0,0,.84.84h1.68Z" fill="#3d4351"/><path d="M218.57,83.92"/></svg>