<svg id="bf2b0dad-9803-4778-9061-f085f401fc85" data-name="Слой 1" xmlns="http://www.w3.org/2000/svg" width="129.97" height="152.96" viewBox="0 0 129.97 152.96">
  <defs>
    <style>
      .a444d8d6-85f8-4bb2-99bc-ebf209abf9d8 {
        fill: #e87474;
      }

      .a54bfdd5-0b69-4336-95e5-40229f05eb96 {
        fill: #71b429;
      }

      .bf081d8b-6ae3-495c-a510-b4bfec423b4a {
        opacity: 0.5;
      }

      .b28e2a59-3a8e-41c1-ac52-05e24eb1c825 {
        fill: #55990b;
      }

      .b2170534-53c5-49e0-866a-22f1ca55f4d5 {
        fill: #d65d5d;
      }

      .b2acefd1-3111-4313-b11e-b74014669c93 {
        fill: #fff;
      }

      .f509f215-b0dd-420d-a52f-10cba4f1bd27 {
        fill: #05acff;
      }

      .b8de090c-cbf6-4441-81c1-525952b5abd6 {
        fill: #5e6981;
      }

      .be082502-e16f-4f31-ae8d-0596aa133376 {
        fill: #ed2226;
      }
    </style>
  </defs>
  <rect class="a444d8d6-85f8-4bb2-99bc-ebf209abf9d8" x="26.77" y="20.91" width="36.87" height="1.15"/>
  <rect class="a54bfdd5-0b69-4336-95e5-40229f05eb96" x="67.01" y="3.65" width="1.15" height="21.29"/>
  <polygon class="a54bfdd5-0b69-4336-95e5-40229f05eb96" points="67.59 0 65 5.37 70.18 5.37 67.59 0"/>
  <rect class="a444d8d6-85f8-4bb2-99bc-ebf209abf9d8" x="61.83" width="1.15" height="21.29"/>
  <rect class="a54bfdd5-0b69-4336-95e5-40229f05eb96" x="30.16" y="24.94" width="1.15" height="21.29"/>
  <rect class="a54bfdd5-0b69-4336-95e5-40229f05eb96" x="30.22" y="24.94" width="38.42" height="1.15"/>
  <rect class="a444d8d6-85f8-4bb2-99bc-ebf209abf9d8" x="26.14" y="20.91" width="1.15" height="21.29"/>
  <polygon class="a444d8d6-85f8-4bb2-99bc-ebf209abf9d8" points="26.71 46.43 24.12 41.05 29.3 41.05 26.71 46.43"/>
  <g class="bf081d8b-6ae3-495c-a510-b4bfec423b4a">
    <rect class="a54bfdd5-0b69-4336-95e5-40229f05eb96" x="104.78" y="44.51" width="1.15" height="1.73"/>
    <path class="a54bfdd5-0b69-4336-95e5-40229f05eb96" d="M105.93,41.31h-1.15V37.47h1.15Zm0-7h-1.15V30.44h1.15Z"/>
    <polygon class="a54bfdd5-0b69-4336-95e5-40229f05eb96" points="105.93 27.24 104.78 27.24 104.78 26.09 103.62 26.09 103.62 24.94 105.93 24.94 105.93 27.24"/>
    <path class="a54bfdd5-0b69-4336-95e5-40229f05eb96" d="M100.75,26.09H97.29V24.94h3.46Zm-6.33,0H91V24.94h3.46Zm-6.33,0H84.63V24.94h3.42Zm-6.33,0H78.3V24.94h3.46Zm-6.33,0H72V24.94h3.46Z"/>
    <rect class="a54bfdd5-0b69-4336-95e5-40229f05eb96" x="67.37" y="24.94" width="1.73" height="1.15"/>
  </g>
  <path class="b28e2a59-3a8e-41c1-ac52-05e24eb1c825" d="M84.23,17.46V10.3H87.4a4.25,4.25,0,0,1,1.46.19,1.66,1.66,0,0,1,.8.68A2.16,2.16,0,0,1,90,12.25a1.81,1.81,0,0,1-.49,1.29,2.48,2.48,0,0,1-1.52.66,2.28,2.28,0,0,1,.57.36,4.76,4.76,0,0,1,.78.95l1.25,2H89.35l-1-1.49c-.28-.43-.5-.76-.68-1a2.73,2.73,0,0,0-.48-.48,1.89,1.89,0,0,0-.44-.19H85.13v3.18Zm1-4h2a3.06,3.06,0,0,0,1-.14,1.06,1.06,0,0,0,.56-.42,1.26,1.26,0,0,0,.19-.65,1.09,1.09,0,0,0-.37-.83,1.75,1.75,0,0,0-1.17-.33H85.13Z"/>
  <path class="b28e2a59-3a8e-41c1-ac52-05e24eb1c825" d="M94.88,15.79l.9.11A2.28,2.28,0,0,1,95,17.14a2.42,2.42,0,0,1-1.49.44,2.37,2.37,0,0,1-1.8-.71,2.67,2.67,0,0,1-.67-2,2.87,2.87,0,0,1,.68-2,2.28,2.28,0,0,1,1.74-.72,2.23,2.23,0,0,1,1.7.7,2.85,2.85,0,0,1,.66,2v.23H91.94a2,2,0,0,0,.48,1.31,1.44,1.44,0,0,0,1.09.45,1.35,1.35,0,0,0,.82-.25A1.78,1.78,0,0,0,94.88,15.79ZM92,14.37h2.89a1.71,1.71,0,0,0-.33-1,1.43,1.43,0,0,0-2.09-.11A1.54,1.54,0,0,0,92,14.37Z"/>
  <path class="b28e2a59-3a8e-41c1-ac52-05e24eb1c825" d="M100.27,16.82a3.27,3.27,0,0,1-.94.58,2.46,2.46,0,0,1-1,.18A1.88,1.88,0,0,1,97,17.16a1.36,1.36,0,0,1-.46-1.07,1.43,1.43,0,0,1,.63-1.2,2,2,0,0,1,.63-.29,7,7,0,0,1,.78-.13,8.37,8.37,0,0,0,1.57-.3v-.23a1,1,0,0,0-.25-.76,1.45,1.45,0,0,0-1-.3,1.6,1.6,0,0,0-.91.22,1.31,1.31,0,0,0-.44.77l-.86-.12a2.09,2.09,0,0,1,.39-.89,1.56,1.56,0,0,1,.77-.52,3.38,3.38,0,0,1,1.18-.18,3.32,3.32,0,0,1,1.08.15,1.64,1.64,0,0,1,.61.39,1.36,1.36,0,0,1,.27.6,5.47,5.47,0,0,1,0,.81v1.18a11.47,11.47,0,0,0,0,1.55,1.91,1.91,0,0,0,.22.62h-.91A1.75,1.75,0,0,1,100.27,16.82Zm-.07-2a6.53,6.53,0,0,1-1.44.33,3.22,3.22,0,0,0-.76.17.72.72,0,0,0-.35.29.78.78,0,0,0,.14,1,1.15,1.15,0,0,0,.78.24,1.8,1.8,0,0,0,.9-.23,1.37,1.37,0,0,0,.59-.6,2.39,2.39,0,0,0,.14-.88Z"/>
  <path class="b28e2a59-3a8e-41c1-ac52-05e24eb1c825" d="M105.81,17.46V16.8a1.6,1.6,0,0,1-1.45.78,2,2,0,0,1-1.14-.35,2.18,2.18,0,0,1-.8-.95,3.24,3.24,0,0,1-.29-1.41,3.6,3.6,0,0,1,.26-1.41,2,2,0,0,1,.78-1,2.11,2.11,0,0,1,1.15-.33,1.7,1.7,0,0,1,1.43.71V10.3h.88v7.16Zm-2.76-2.59a2.26,2.26,0,0,0,.42,1.49,1.26,1.26,0,0,0,1,.49,1.19,1.19,0,0,0,1-.47,2.19,2.19,0,0,0,.41-1.44,2.47,2.47,0,0,0-.41-1.56,1.27,1.27,0,0,0-1-.5,1.23,1.23,0,0,0-1,.48A2.32,2.32,0,0,0,103.05,14.87Z"/>
  <g>
    <path class="b2170534-53c5-49e0-866a-22f1ca55f4d5" d="M28,17.46l-1.9-7.16h1L28.2,15q.18.73.3,1.47c.18-.77.29-1.21.32-1.33l1.37-4.83H31.3l1,3.62a18.26,18.26,0,0,1,.56,2.54c.09-.46.21-1,.36-1.56l1.12-4.6h1l-2,7.16h-.91L31,12c-.13-.45-.2-.73-.23-.84q-.11.5-.21.84L29,17.46Z"/>
    <path class="b2170534-53c5-49e0-866a-22f1ca55f4d5" d="M35.92,17.46V12.27h.79v.79a2.1,2.1,0,0,1,.56-.73,1.06,1.06,0,0,1,.57-.17,1.7,1.7,0,0,1,.9.28l-.3.81a1.36,1.36,0,0,0-.65-.19.78.78,0,0,0-.51.18.84.84,0,0,0-.33.48,3.37,3.37,0,0,0-.15,1v2.72Z"/>
    <path class="b2170534-53c5-49e0-866a-22f1ca55f4d5" d="M39.3,11.31v-1h.88v1Zm0,6.15V12.27h.88v5.19Z"/>
    <path class="b2170534-53c5-49e0-866a-22f1ca55f4d5" d="M43.4,16.67l.13.78a3.72,3.72,0,0,1-.66.08,1.6,1.6,0,0,1-.75-.15.9.9,0,0,1-.37-.4,3.07,3.07,0,0,1-.1-1V13H41v-.69h.65V11l.87-.53v1.81h.88V13h-.88v3a1.57,1.57,0,0,0,0,.48.35.35,0,0,0,.15.17.51.51,0,0,0,.3.07Z"/>
    <path class="b2170534-53c5-49e0-866a-22f1ca55f4d5" d="M47.81,15.79l.91.11a2.24,2.24,0,0,1-.8,1.24,2.67,2.67,0,0,1-3.28-.27,2.67,2.67,0,0,1-.67-2,2.86,2.86,0,0,1,.67-2,2.3,2.3,0,0,1,1.75-.72,2.23,2.23,0,0,1,1.7.7,2.85,2.85,0,0,1,.66,2v.23H44.88a2,2,0,0,0,.48,1.31,1.44,1.44,0,0,0,1.09.45,1.36,1.36,0,0,0,.85-.24A1.73,1.73,0,0,0,47.81,15.79Zm-2.88-1.42h2.89a1.78,1.78,0,0,0-.33-1,1.36,1.36,0,0,0-1.09-.51,1.44,1.44,0,0,0-1,.4A1.65,1.65,0,0,0,44.93,14.37Z"/>
  </g>
  <g class="bf081d8b-6ae3-495c-a510-b4bfec423b4a">
    <rect class="a444d8d6-85f8-4bb2-99bc-ebf209abf9d8" x="108.94" y="38.18" width="1.15" height="1.73"/>
    <path class="a444d8d6-85f8-4bb2-99bc-ebf209abf9d8" d="M110.1,35.36H109V32h1.15Zm0-6.1H109V25.93h1.15Z"/>
    <polygon class="a444d8d6-85f8-4bb2-99bc-ebf209abf9d8" points="110.09 23.21 108.94 23.21 108.94 22.06 107.79 22.06 107.79 20.91 110.09 20.91 110.09 23.21"/>
    <rect class="a444d8d6-85f8-4bb2-99bc-ebf209abf9d8" x="101.38" y="20.91" width="3.5" height="1.15"/>
    <rect class="a444d8d6-85f8-4bb2-99bc-ebf209abf9d8" x="94.96" y="20.91" width="3.5" height="1.15"/>
    <rect class="a444d8d6-85f8-4bb2-99bc-ebf209abf9d8" x="88.54" y="20.91" width="3.5" height="1.15"/>
    <rect class="a444d8d6-85f8-4bb2-99bc-ebf209abf9d8" x="82.12" y="20.91" width="3.5" height="1.15"/>
    <rect class="a444d8d6-85f8-4bb2-99bc-ebf209abf9d8" x="75.7" y="20.91" width="3.5" height="1.15"/>
    <rect class="a444d8d6-85f8-4bb2-99bc-ebf209abf9d8" x="69.28" y="20.91" width="3.5" height="1.15"/>
    <rect class="a444d8d6-85f8-4bb2-99bc-ebf209abf9d8" x="62.86" y="20.91" width="3.5" height="1.15"/>
  </g>
  <g class="bf081d8b-6ae3-495c-a510-b4bfec423b4a">
    <polygon class="a444d8d6-85f8-4bb2-99bc-ebf209abf9d8" points="109.81 46.43 107.22 41.05 112.4 41.05 109.81 46.43"/>
  </g>
  <path class="b2acefd1-3111-4313-b11e-b74014669c93" d="M3.4,56.68H49.57a2.86,2.86,0,0,1,2.85,2.85h0v46.35a2.84,2.84,0,0,1-2.84,2.86H3.4a2.85,2.85,0,0,1-2.85-2.86V59.54A2.86,2.86,0,0,1,3.4,56.68Z"/>
  <path class="f509f215-b0dd-420d-a52f-10cba4f1bd27" d="M49.56,109.29H3.4A3.41,3.41,0,0,1,0,105.88V59.54a3.42,3.42,0,0,1,3.4-3.41H49.56a3.4,3.4,0,0,1,3.4,3.4h0v46.34a3.39,3.39,0,0,1-3.39,3.41ZM3.4,57.22a2.33,2.33,0,0,0-2.31,2.32v46.34A2.31,2.31,0,0,0,3.4,108.2H49.56a2.3,2.3,0,0,0,2.31-2.31h0V59.54a2.31,2.31,0,0,0-2.3-2.32H3.4Z"/>
  <path class="f509f215-b0dd-420d-a52f-10cba4f1bd27" d="M126.58,109.26H123.3v-1.1h3.25Zm-6,0h-3.24v-1.1h3.26Zm-6,0h-3.26v-1.1h3.26Zm-6,0h-3.25v-1.1h3.25Zm-6,0H99.34v-1.1h3.24Zm-6,0H93.34v-1.1h3.24Zm-6,0H87.38v-1.1h3.24Zm-6,0H81.38v-1.1h3.25Zm-6.16-.46a3.41,3.41,0,0,1-1.7-3v-.26h1.09v.26a2.36,2.36,0,0,0,1.15,2Zm50.64-1-.89-.63a2.33,2.33,0,0,0,.42-1.33v-1.51H130v1.51a3.32,3.32,0,0,1-.62,1.91Zm-51.23-4.94H77V99.65h1.09ZM130,101.65h-1.09V98.4H130ZM78.1,96.89H77V93.63h1.09ZM130,95.63h-1.09V92.38H130ZM78.1,90.87H77V87.64h1.09ZM130,89.61h-1.09V86.39H130ZM78.1,84.85H77V81.66h1.09ZM130,83.6h-1.09V80.4H130ZM78.1,78.83H77V75.68h1.09ZM130,77.58h-1.09V74.42H130ZM78.1,72.81H77V69.7h1.09ZM130,71.73h-1.09V68.48H130ZM78.1,67H77V63.72h1.09ZM130,65.71h-1.09V62.48H130ZM78.1,60.94H77V59.48a3.5,3.5,0,0,1,.62-2l.89.63a2.41,2.41,0,0,0-.42,1.34ZM130,59.69h-1.09v-.21a2.36,2.36,0,0,0-1.18-2l.54-1a3.42,3.42,0,0,1,1.73,3Zm-4.64-2.56h-3.21v-1h3.25Zm-6,0h-3.25v-1h3.25Zm-5.95,0h-3.26v-1h3.25Zm-6,0h-3.26v-1h3.26Zm-6,0H98.17v-1h3.26Zm-6,0H92.18v-1h3.26Zm-6,0H86.19v-1h3.24Zm-6,0H80.18v-1h3.25Z"/>
  <rect class="a54bfdd5-0b69-4336-95e5-40229f05eb96" x="26.38" y="116.54" width="1.09" height="20.28"/>
  <polygon class="a54bfdd5-0b69-4336-95e5-40229f05eb96" points="26.93 113.08 24.47 118.19 29.38 118.19 26.93 113.08"/>
  <g>
    <rect class="a54bfdd5-0b69-4336-95e5-40229f05eb96" x="102.83" y="116.7" width="1.09" height="21.21"/>
    <polygon class="a54bfdd5-0b69-4336-95e5-40229f05eb96" points="103.38 113.08 100.92 118.43 105.83 118.43 103.38 113.08"/>
  </g>
  <rect class="a54bfdd5-0b69-4336-95e5-40229f05eb96" x="26.38" y="136.82" width="77.26" height="1.1"/>
  <circle class="b8de090c-cbf6-4441-81c1-525952b5abd6" cx="69.02" cy="82.71" r="1.37"/>
  <circle class="b8de090c-cbf6-4441-81c1-525952b5abd6" cx="64.65" cy="82.71" r="1.37"/>
  <circle class="b8de090c-cbf6-4441-81c1-525952b5abd6" cx="60.28" cy="82.71" r="1.37"/>
  <g>
    <path class="be082502-e16f-4f31-ae8d-0596aa133376" d="M25.8,69.39A13.49,13.49,0,1,0,39.29,82.88,13.49,13.49,0,0,0,25.8,69.39Z"/>
    <path class="b2acefd1-3111-4313-b11e-b74014669c93" d="M35,85.25a1.63,1.63,0,0,1-1.39,1.68,55.5,55.5,0,0,1-7.73.45,55.41,55.41,0,0,1-7.73-.45,1.62,1.62,0,0,1-1.39-1.68V80a1.75,1.75,0,0,1,1.39-1.69,17.78,17.78,0,0,1,2.42-.16.57.57,0,0,1,.58.57v3.82l4.73-.1,4.73.1V78.77a.57.57,0,0,1,.52-.63.21.21,0,0,1,.08,0,17.88,17.88,0,0,1,2.42.16A1.74,1.74,0,0,1,35,80v5.26Z"/>
  </g>
  <g>
    <path class="be082502-e16f-4f31-ae8d-0596aa133376" d="M102.8,69.39a13.49,13.49,0,1,0,13.49,13.49A13.49,13.49,0,0,0,102.8,69.39Z"/>
    <path class="b2acefd1-3111-4313-b11e-b74014669c93" d="M112,85.25a1.63,1.63,0,0,1-1.39,1.68,55.5,55.5,0,0,1-7.73.45,55.41,55.41,0,0,1-7.73-.45,1.62,1.62,0,0,1-1.39-1.68V80a1.75,1.75,0,0,1,1.39-1.69,17.78,17.78,0,0,1,2.42-.16.57.57,0,0,1,.58.57v3.82l4.73-.1,4.73.1V78.77a.57.57,0,0,1,.52-.63.21.21,0,0,1,.08,0,17.88,17.88,0,0,1,2.42.16A1.74,1.74,0,0,1,112,80v5.26Z"/>
  </g>
  <g>
    <path class="a54bfdd5-0b69-4336-95e5-40229f05eb96" d="M38.08,150.88v-7.16h3.17a4,4,0,0,1,1.46.19,1.48,1.48,0,0,1,.8.68,1.94,1.94,0,0,1,.3,1.08,1.8,1.8,0,0,1-.49,1.28,2.57,2.57,0,0,1-1.52.66,2.12,2.12,0,0,1,.57.36,4.53,4.53,0,0,1,.79,1l1.25,1.95H43.22l-.95-1.49c-.27-.43-.5-.76-.68-1a1.83,1.83,0,0,0-.48-.48,1.11,1.11,0,0,0-.43-.19,2.35,2.35,0,0,0-.53,0h-1.1v3.18Zm1-4h2a3.35,3.35,0,0,0,1-.13,1.09,1.09,0,0,0,.56-.43,1.14,1.14,0,0,0,.19-.64,1,1,0,0,0-.37-.83,1.68,1.68,0,0,0-1.17-.33H39Z"/>
    <path class="a54bfdd5-0b69-4336-95e5-40229f05eb96" d="M48.72,149.21l.91.11a2.24,2.24,0,0,1-.8,1.24,2.68,2.68,0,0,1-3.28-.26,2.77,2.77,0,0,1-.67-2,2.84,2.84,0,0,1,.67-2,2.23,2.23,0,0,1,1.75-.72,2.14,2.14,0,0,1,1.7.71,2.79,2.79,0,0,1,.66,2v.23H45.79a2,2,0,0,0,.48,1.31,1.5,1.5,0,0,0,1.08.45,1.36,1.36,0,0,0,.83-.25A1.67,1.67,0,0,0,48.72,149.21Zm-2.84-1.42h2.9a1.71,1.71,0,0,0-.33-1,1.29,1.29,0,0,0-1.09-.51,1.37,1.37,0,0,0-1,.41A1.61,1.61,0,0,0,45.88,147.79Z"/>
    <path class="a54bfdd5-0b69-4336-95e5-40229f05eb96" d="M51.54,150.88h-.82v-7.16h.88v2.55a1.73,1.73,0,0,1,1.42-.7,2,2,0,0,1,.91.19,1.7,1.7,0,0,1,.7.54,2.39,2.39,0,0,1,.43.84,3.39,3.39,0,0,1,.16,1.05,3,3,0,0,1-.66,2.06A2.08,2.08,0,0,1,53,151a1.67,1.67,0,0,1-1.44-.77Zm0-2.63a2.76,2.76,0,0,0,.25,1.35,1.27,1.27,0,0,0,1.7.53,1.31,1.31,0,0,0,.42-.35,2.93,2.93,0,0,0,0-3,1.19,1.19,0,0,0-1-.48,1.25,1.25,0,0,0-1,.5,2.21,2.21,0,0,0-.4,1.44Z"/>
    <path class="a54bfdd5-0b69-4336-95e5-40229f05eb96" d="M59.68,150.24a3.64,3.64,0,0,1-.94.59,3.09,3.09,0,0,1-1,.17,1.89,1.89,0,0,1-1.31-.42,1.42,1.42,0,0,1-.46-1.07,1.51,1.51,0,0,1,.17-.7,1.39,1.39,0,0,1,.45-.51,2.24,2.24,0,0,1,.63-.29,5.29,5.29,0,0,1,.78-.13,8.37,8.37,0,0,0,1.57-.3v-.23a1,1,0,0,0-.25-.76,1.43,1.43,0,0,0-1-.3,1.5,1.5,0,0,0-.92.22,1.33,1.33,0,0,0-.44.77l-.86-.12a2.17,2.17,0,0,1,.39-.89,1.63,1.63,0,0,1,.78-.52,3.38,3.38,0,0,1,1.18-.18,2.84,2.84,0,0,1,1.08.16,1.21,1.21,0,0,1,.88,1,5.47,5.47,0,0,1,0,.81v1.17a13.47,13.47,0,0,0,.06,1.55,2.42,2.42,0,0,0,.22.62h-.81A2,2,0,0,1,59.68,150.24Zm-.07-2a7,7,0,0,1-1.44.33,2.61,2.61,0,0,0-.77.18.75.75,0,0,0-.35.29.79.79,0,0,0,.14,1,1.22,1.22,0,0,0,.78.23,1.85,1.85,0,0,0,.9-.22,1.42,1.42,0,0,0,.58-.61,2,2,0,0,0,.14-.88Z"/>
    <path class="a54bfdd5-0b69-4336-95e5-40229f05eb96" d="M61.88,150.88v-7.16h.88v7.16Z"/>
    <path class="a54bfdd5-0b69-4336-95e5-40229f05eb96" d="M67.46,150.24a3.64,3.64,0,0,1-.94.59,3.09,3.09,0,0,1-1,.17,1.89,1.89,0,0,1-1.31-.42,1.42,1.42,0,0,1-.46-1.07,1.51,1.51,0,0,1,.17-.7,1.39,1.39,0,0,1,.45-.51A2.24,2.24,0,0,1,65,148a5.29,5.29,0,0,1,.78-.13,8.37,8.37,0,0,0,1.57-.3v-.23a1,1,0,0,0-.25-.76,1.43,1.43,0,0,0-1-.3,1.5,1.5,0,0,0-.92.22,1.33,1.33,0,0,0-.44.77l-.86-.12a2.17,2.17,0,0,1,.39-.89,1.63,1.63,0,0,1,.78-.52,3.38,3.38,0,0,1,1.18-.18,2.84,2.84,0,0,1,1.08.16,1.21,1.21,0,0,1,.88,1,5.47,5.47,0,0,1,0,.81v1.17a13.47,13.47,0,0,0,.06,1.55,2.42,2.42,0,0,0,.22.62h-.92A2.28,2.28,0,0,1,67.46,150.24Zm-.07-2a7,7,0,0,1-1.44.33,2.61,2.61,0,0,0-.77.18.75.75,0,0,0-.35.29.79.79,0,0,0,.14,1,1.22,1.22,0,0,0,.78.23,1.85,1.85,0,0,0,.9-.22,1.42,1.42,0,0,0,.58-.61,2,2,0,0,0,.14-.88Z"/>
    <path class="a54bfdd5-0b69-4336-95e5-40229f05eb96" d="M69.64,150.88V145.7h.79v.74a1.84,1.84,0,0,1,1.65-.85,2,2,0,0,1,.86.17,1.23,1.23,0,0,1,.59.44,1.5,1.5,0,0,1,.27.65,4,4,0,0,1,0,.85v3.19h-.88v-3.16a2.12,2.12,0,0,0-.1-.8.8.8,0,0,0-.36-.43,1.07,1.07,0,0,0-.61-.16,1.39,1.39,0,0,0-1,.36,1.74,1.74,0,0,0-.41,1.35v2.83Z"/>
    <path class="a54bfdd5-0b69-4336-95e5-40229f05eb96" d="M78.58,149l.86.11a2.21,2.21,0,0,1-.73,1.4,2.11,2.11,0,0,1-1.43.51,2.29,2.29,0,0,1-1.71-.7,2.86,2.86,0,0,1-.65-2,3.67,3.67,0,0,1,.28-1.47,1.92,1.92,0,0,1,.85-.95,2.46,2.46,0,0,1,1.24-.31,2.12,2.12,0,0,1,1.38.43,2,2,0,0,1,.69,1.21l-.85.13a1.32,1.32,0,0,0-.43-.79,1.08,1.08,0,0,0-.75-.26,1.34,1.34,0,0,0-1.08.48,2.3,2.3,0,0,0-.42,1.51,2.42,2.42,0,0,0,.4,1.52,1.34,1.34,0,0,0,1,.47,1.27,1.27,0,0,0,.86-.32A1.54,1.54,0,0,0,78.58,149Z"/>
    <path class="a54bfdd5-0b69-4336-95e5-40229f05eb96" d="M80.21,144.73v-1h.88v1Zm0,6.15V145.7h.88v5.19Z"/>
    <path class="a54bfdd5-0b69-4336-95e5-40229f05eb96" d="M82.42,150.88V145.7h.79v.74a1.84,1.84,0,0,1,1.65-.85,2,2,0,0,1,.86.17,1.23,1.23,0,0,1,.59.44,1.5,1.5,0,0,1,.27.65,4,4,0,0,1,0,.85v3.19H85.7v-3.16a2.12,2.12,0,0,0-.1-.8.8.8,0,0,0-.36-.43,1.07,1.07,0,0,0-.61-.16,1.39,1.39,0,0,0-1,.36,1.74,1.74,0,0,0-.41,1.35v2.83Z"/>
    <path class="a54bfdd5-0b69-4336-95e5-40229f05eb96" d="M87.82,151.31l.85.13a.89.89,0,0,0,.3.58,1.57,1.57,0,0,0,.89.24,1.63,1.63,0,0,0,.94-.24,1.16,1.16,0,0,0,.45-.68,5.39,5.39,0,0,0,.06-1.13,1.86,1.86,0,0,1-1.44.68,2.06,2.06,0,0,1-1.66-.77,3.09,3.09,0,0,1-.59-1.85,3.56,3.56,0,0,1,.27-1.37,2.16,2.16,0,0,1,.78-1,2.07,2.07,0,0,1,1.2-.34,1.83,1.83,0,0,1,1.51.74v-.62h.81v4.48a4.21,4.21,0,0,1-.25,1.72,1.83,1.83,0,0,1-.78.8,2.82,2.82,0,0,1-1.28.28,2.57,2.57,0,0,1-1.5-.42A1.44,1.44,0,0,1,87.82,151.31Zm.73-3.12a2.29,2.29,0,0,0,.41,1.49,1.34,1.34,0,0,0,1,.47,1.31,1.31,0,0,0,1-.47,2.19,2.19,0,0,0,.41-1.46,2.11,2.11,0,0,0-.42-1.44,1.29,1.29,0,0,0-1-.48,1.23,1.23,0,0,0-1,.48,2.11,2.11,0,0,0-.4,1.42Z"/>
  </g>
</svg>
