<svg id="b0f54029-fb71-4fb8-84a4-91ae9e740e48" data-name="Слой 1" xmlns="http://www.w3.org/2000/svg" width="217.27" height="261.55" viewBox="0 0 217.27 261.55">
  <defs>
    <style>
      .a55eb3b0-4d39-41ba-9361-d78fa8d5ff51 {
        fill: #71b429;
      }

      .b2601fb4-85df-4a59-9ed3-c444efa70992 {
        fill: #fff;
      }

      .f2faf8e4-0a53-4764-917f-d098457fcd49 {
        fill: #05acff;
      }

      .b6c7d4aa-5508-4edc-91e1-7cbf66b1edc1 {
        fill: #5e6981;
      }

      .b45e39ac-eebe-415a-b4f2-cfdeeb535c78 {
        fill: #00002f;
      }

      .b83f937d-49f8-449c-aca3-a36d6b3591e9 {
        fill: #f60;
      }
    </style>
  </defs>
  <rect class="a55eb3b0-4d39-41ba-9361-d78fa8d5ff51" x="108.1" y="100.97" width="1.15" height="21.29"/>
  <rect class="a55eb3b0-4d39-41ba-9361-d78fa8d5ff51" x="108.1" y="78.97" width="1.15" height="21.29"/>
  <polygon class="a55eb3b0-4d39-41ba-9361-d78fa8d5ff51" points="108.68 125.9 106.09 120.53 111.27 120.53 108.68 125.9"/>
  <rect class="a55eb3b0-4d39-41ba-9361-d78fa8d5ff51" x="27.91" y="100.97" width="1.15" height="21.29"/>
  <polygon class="a55eb3b0-4d39-41ba-9361-d78fa8d5ff51" points="28.49 125.9 25.9 120.53 31.08 120.53 28.49 125.9"/>
  <polygon class="a55eb3b0-4d39-41ba-9361-d78fa8d5ff51" points="190.16 125.9 187.57 120.53 192.75 120.53 190.16 125.9"/>
  <rect class="a55eb3b0-4d39-41ba-9361-d78fa8d5ff51" x="28.17" y="99.81" width="81.14" height="1.15"/>
  <g>
    <rect class="a55eb3b0-4d39-41ba-9361-d78fa8d5ff51" x="189.3" y="117.65" width="1.15" height="1.73"/>
    <path class="a55eb3b0-4d39-41ba-9361-d78fa8d5ff51" d="M190.45,108.45H189.3V105h1.15Zm0,6.33H189.3v-3.46h1.15Z"/>
    <polygon class="a55eb3b0-4d39-41ba-9361-d78fa8d5ff51" points="190.45 99.81 188.15 99.81 188.15 100.97 189.3 100.97 189.3 102.11 190.45 102.11 190.45 99.81"/>
    <path class="a55eb3b0-4d39-41ba-9361-d78fa8d5ff51" d="M185.16,101h-3.59V99.81h3.59Zm-6.58,0H175V99.81h3.59ZM172,101h-3.59V99.81H172Zm-6.59,0h-3.59V99.81h3.59Zm-6.58,0h-3.59V99.81h3.59Zm-6.58,0h-3.59V99.81h3.59Zm-6.58,0h-3.59V99.81h3.59Zm-6.58,0H135.5V99.81h3.59Zm-6.58,0h-3.59V99.81h3.59Zm-6.58,0h-3.59V99.81h3.59Zm-6.59,0h-3.59V99.81h3.59Z"/>
    <rect class="a55eb3b0-4d39-41ba-9361-d78fa8d5ff51" x="111.04" y="99.81" width="1.73" height="1.15"/>
  </g>
  <g>
    <path class="b2601fb4-85df-4a59-9ed3-c444efa70992" d="M76.35,68.84V61.68h1V68h3.53v.85Z"/>
    <path class="b2601fb4-85df-4a59-9ed3-c444efa70992" d="M81.5,66.25a2.67,2.67,0,0,1,.8-2.13,2.47,2.47,0,0,1,1.63-.58,2.35,2.35,0,0,1,1.75.7,2.71,2.71,0,0,1,.68,1.94,3.52,3.52,0,0,1-.3,1.57,2.13,2.13,0,0,1-.87.89,2.43,2.43,0,0,1-1.25.32,2.29,2.29,0,0,1-1.76-.7A2.73,2.73,0,0,1,81.5,66.25Zm.9,0a2.19,2.19,0,0,0,.43,1.49,1.43,1.43,0,0,0,2,.14,1.85,1.85,0,0,0,.14-.14,2.31,2.31,0,0,0,.49-1.52,2.2,2.2,0,0,0-.44-1.46,1.45,1.45,0,0,0-2-.13,1.59,1.59,0,0,0-.13.13,2.15,2.15,0,0,0-.47,1.49Z"/>
    <path class="b2601fb4-85df-4a59-9ed3-c444efa70992" d="M90.78,68.2a3.31,3.31,0,0,1-.94.59,2.63,2.63,0,0,1-1,.17,1.86,1.86,0,0,1-1.31-.42,1.33,1.33,0,0,1-.46-1.07,1.42,1.42,0,0,1,.62-1.2,2.26,2.26,0,0,1,.63-.29c.25,0,.51-.1.78-.13a7.13,7.13,0,0,0,1.57-.3v-.23a1.06,1.06,0,0,0-.25-.76,1.56,1.56,0,0,0-1-.3,1.61,1.61,0,0,0-.92.22,1.34,1.34,0,0,0-.44.77l-.86-.12a2.15,2.15,0,0,1,.39-.89,1.68,1.68,0,0,1,.78-.52,3.93,3.93,0,0,1,1.18-.18,3.33,3.33,0,0,1,1.08.16,1.52,1.52,0,0,1,.61.39,1.55,1.55,0,0,1,.27.6,5.47,5.47,0,0,1,0,.81v1.17a10,10,0,0,0,.06,1.55,1.7,1.7,0,0,0,.22.62h-.92A1.71,1.71,0,0,1,90.78,68.2Zm-.07-2a6,6,0,0,1-1.44.33,3.32,3.32,0,0,0-.77.18.72.72,0,0,0-.35.29.77.77,0,0,0,.14,1,1.09,1.09,0,0,0,.78.23A1.79,1.79,0,0,0,90,68a1.37,1.37,0,0,0,.58-.61,2.39,2.39,0,0,0,.14-.88Z"/>
    <path class="b2601fb4-85df-4a59-9ed3-c444efa70992" d="M96.32,68.84v-.65a1.6,1.6,0,0,1-1.45.77,1.91,1.91,0,0,1-1.14-.34,2.15,2.15,0,0,1-.81-1,3.24,3.24,0,0,1-.29-1.41,3.6,3.6,0,0,1,.26-1.41,2,2,0,0,1,.78-1,2.13,2.13,0,0,1,1.16-.34,1.85,1.85,0,0,1,.83.2,2,2,0,0,1,.6.52v-2.5h.87v7.16ZM93.5,66.25a2.19,2.19,0,0,0,.42,1.49,1.26,1.26,0,0,0,1,.49,1.23,1.23,0,0,0,1-.47,2.15,2.15,0,0,0,.4-1.44,2.47,2.47,0,0,0-.41-1.56,1.31,1.31,0,0,0-1-.5,1.21,1.21,0,0,0-1,.48A2.34,2.34,0,0,0,93.5,66.25Z"/>
    <path class="b2601fb4-85df-4a59-9ed3-c444efa70992" d="M101.37,68.84V61.68h2.69a3.49,3.49,0,0,1,1.32.22,1.81,1.81,0,0,1,.78.67,1.87,1.87,0,0,1,.28.94,1.66,1.66,0,0,1-.25.87,1.81,1.81,0,0,1-.75.65,2,2,0,0,1,1,.65,1.85,1.85,0,0,1,.35,1.08,2.15,2.15,0,0,1-.21.94,1.76,1.76,0,0,1-.53.67,2.11,2.11,0,0,1-.78.35,4.53,4.53,0,0,1-1.16.12Zm.95-4.15h1.55a3.05,3.05,0,0,0,.9-.08,1,1,0,0,0,.54-.36,1,1,0,0,0,.18-.62,1.27,1.27,0,0,0-.17-.63,1,1,0,0,0-.49-.37,4.47,4.47,0,0,0-1.09-.1h-1.43Zm0,3.3h1.78a3.42,3.42,0,0,0,.64,0,1.41,1.41,0,0,0,.55-.2.93.93,0,0,0,.36-.4,1.36,1.36,0,0,0,.14-.6,1.25,1.25,0,0,0-.21-.7,1.14,1.14,0,0,0-.57-.42,4.27,4.27,0,0,0-1-.12h-1.66Z"/>
    <path class="b2601fb4-85df-4a59-9ed3-c444efa70992" d="M111.35,68.2a3.31,3.31,0,0,1-.94.59,2.63,2.63,0,0,1-1,.17,1.86,1.86,0,0,1-1.31-.42,1.33,1.33,0,0,1-.46-1.07,1.42,1.42,0,0,1,.62-1.2,2.26,2.26,0,0,1,.63-.29c.25,0,.51-.1.78-.13a7.13,7.13,0,0,0,1.57-.3v-.23a1.06,1.06,0,0,0-.25-.76,1.56,1.56,0,0,0-1-.3,1.61,1.61,0,0,0-.92.22,1.34,1.34,0,0,0-.44.77l-.86-.12a2.15,2.15,0,0,1,.39-.89,1.68,1.68,0,0,1,.78-.52,3.93,3.93,0,0,1,1.18-.18,3.33,3.33,0,0,1,1.08.16,1.52,1.52,0,0,1,.61.39,1.55,1.55,0,0,1,.27.6,5.48,5.48,0,0,1,0,.81v1.17a10,10,0,0,0,.06,1.55,1.7,1.7,0,0,0,.22.62h-.86A1.76,1.76,0,0,1,111.35,68.2Zm-.07-2a6,6,0,0,1-1.44.33,3.32,3.32,0,0,0-.77.18.72.72,0,0,0-.35.29.77.77,0,0,0,.14,1,1.09,1.09,0,0,0,.78.23,1.79,1.79,0,0,0,.9-.22,1.37,1.37,0,0,0,.58-.61,2.39,2.39,0,0,0,.14-.88Z"/>
    <path class="b2601fb4-85df-4a59-9ed3-c444efa70992" d="M113.5,68.84V61.68h.88v7.16Z"/>
    <path class="b2601fb4-85df-4a59-9ed3-c444efa70992" d="M119.13,68.2a3.31,3.31,0,0,1-.94.59,2.63,2.63,0,0,1-1,.17,1.86,1.86,0,0,1-1.31-.42,1.33,1.33,0,0,1-.46-1.07,1.42,1.42,0,0,1,.62-1.2,2.26,2.26,0,0,1,.63-.29c.25,0,.51-.1.78-.13a7.13,7.13,0,0,0,1.57-.3v-.23a1.06,1.06,0,0,0-.25-.76,1.56,1.56,0,0,0-1-.3,1.61,1.61,0,0,0-.92.22,1.34,1.34,0,0,0-.44.77l-.86-.12a2.15,2.15,0,0,1,.39-.89,1.68,1.68,0,0,1,.78-.52,3.93,3.93,0,0,1,1.18-.18,3.33,3.33,0,0,1,1.08.16,1.52,1.52,0,0,1,.61.39,1.55,1.55,0,0,1,.27.6,5.47,5.47,0,0,1,0,.81v1.17a10,10,0,0,0,.06,1.55,1.7,1.7,0,0,0,.22.62h-.92A1.71,1.71,0,0,1,119.13,68.2Zm-.07-2a6,6,0,0,1-1.44.33,3.32,3.32,0,0,0-.77.18.72.72,0,0,0-.35.29.77.77,0,0,0,.14,1,1.09,1.09,0,0,0,.78.23,1.79,1.79,0,0,0,.9-.22,1.37,1.37,0,0,0,.58-.61,2.39,2.39,0,0,0,.14-.88Z"/>
    <path class="b2601fb4-85df-4a59-9ed3-c444efa70992" d="M121.31,68.84V63.66h.79v.74a1.87,1.87,0,0,1,1.65-.85,2.35,2.35,0,0,1,.86.17,1.5,1.5,0,0,1,.59.44,2,2,0,0,1,.27.65,6,6,0,0,1,0,.85v3.18h-.88V65.69a2.41,2.41,0,0,0-.1-.8.92.92,0,0,0-.36-.42,1.32,1.32,0,0,0-.61-.16,1.45,1.45,0,0,0-1,.36,1.76,1.76,0,0,0-.41,1.35v2.82Z"/>
    <path class="b2601fb4-85df-4a59-9ed3-c444efa70992" d="M130.26,66.94l.86.11a2.28,2.28,0,0,1-.73,1.4A2,2,0,0,1,129,69a2.2,2.2,0,0,1-1.71-.7,2.78,2.78,0,0,1-.65-2,3.56,3.56,0,0,1,.28-1.47,1.91,1.91,0,0,1,.85-1,2.65,2.65,0,0,1,1.24-.31,2.28,2.28,0,0,1,1.38.43,2.07,2.07,0,0,1,.69,1.21l-.85.13a1.5,1.5,0,0,0-.43-.79,1.2,1.2,0,0,0-.75-.26,1.37,1.37,0,0,0-1.08.48,2.23,2.23,0,0,0-.43,1.51,2.27,2.27,0,0,0,.4,1.52,1.28,1.28,0,0,0,1,.47,1.21,1.21,0,0,0,.86-.32A1.6,1.6,0,0,0,130.26,66.94Z"/>
    <path class="b2601fb4-85df-4a59-9ed3-c444efa70992" d="M135.42,67.17l.91.11a2.21,2.21,0,0,1-.8,1.24,2.48,2.48,0,0,1-4-2.26,2.88,2.88,0,0,1,.67-2,2.3,2.3,0,0,1,1.75-.72,2.24,2.24,0,0,1,1.7.71,2.87,2.87,0,0,1,.66,2v.23H132.5a1.91,1.91,0,0,0,.48,1.31,1.41,1.41,0,0,0,1.08.46,1.33,1.33,0,0,0,.83-.25A1.66,1.66,0,0,0,135.42,67.17Zm-2.92-1.42h2.9a1.84,1.84,0,0,0-.33-1,1.37,1.37,0,0,0-1.09-.51,1.41,1.41,0,0,0-1,.4A1.63,1.63,0,0,0,132.5,65.75Z"/>
    <path class="b2601fb4-85df-4a59-9ed3-c444efa70992" d="M137.43,68.84V63.66h.79v.79a2.1,2.1,0,0,1,.56-.73,1.09,1.09,0,0,1,.56-.18,1.8,1.8,0,0,1,.9.28l-.3.81a1.36,1.36,0,0,0-.64-.19.87.87,0,0,0-.52.17.93.93,0,0,0-.33.48,3.46,3.46,0,0,0-.15,1v2.75Z"/>
  </g>
  <rect class="b2601fb4-85df-4a59-9ed3-c444efa70992" x="0.58" y="136.5" width="54.67" height="54.67" rx="3"/>
  <path class="f2faf8e4-0a53-4764-917f-d098457fcd49" d="M52.24,191.75H3.58A3.59,3.59,0,0,1,0,188.17V139.51a3.58,3.58,0,0,1,3.58-3.58H52.24a3.58,3.58,0,0,1,3.58,3.58v48.66A3.59,3.59,0,0,1,52.24,191.75ZM3.58,137.08a2.43,2.43,0,0,0-2.43,2.43v48.66a2.43,2.43,0,0,0,2.43,2.43H52.24a2.43,2.43,0,0,0,2.43-2.43V139.51a2.43,2.43,0,0,0-2.43-2.43Z"/>
  <rect class="b2601fb4-85df-4a59-9ed3-c444efa70992" x="80.88" y="136.54" width="54.67" height="54.67" rx="3"/>
  <path class="f2faf8e4-0a53-4764-917f-d098457fcd49" d="M132.54,191.79H83.88a3.59,3.59,0,0,1-3.58-3.58V139.54A3.58,3.58,0,0,1,83.88,136h48.66a3.57,3.57,0,0,1,3.58,3.57v48.67A3.58,3.58,0,0,1,132.54,191.79ZM83.88,137.12a2.43,2.43,0,0,0-2.43,2.42v48.67a2.43,2.43,0,0,0,2.43,2.43h48.66a2.43,2.43,0,0,0,2.43-2.43V139.54a2.43,2.43,0,0,0-2.43-2.42Z"/>
  <path class="f2faf8e4-0a53-4764-917f-d098457fcd49" d="M213.72,191.75h-3.46V190.6h3.43Zm-6.31,0H204V190.6h3.43Zm-6.28,0H197.7V190.6h3.43Zm-6.28,0h-3.43V190.6h3.43Zm-6.28,0h-3.42V190.6h3.42Zm-6.28,0h-3.42V190.6h3.42Zm-6.28,0h-3.42V190.6H176Zm-6.28,0h-3.42V190.6h3.42Zm-6.49-.48a3.59,3.59,0,0,1-1.79-3.1v-.28h1.15v.28a2.43,2.43,0,0,0,1.21,2.1Zm53.38-1.06-.94-.66a2.41,2.41,0,0,0,.44-1.38v-1.6h1.15v1.6A3.56,3.56,0,0,1,216.62,190.21Zm-54-5.17h-1.15v-3.43h1.15Zm54.67-1.32h-1.15v-3.43h1.15Zm-54.67-5h-1.15v-3.43h1.15Zm54.67-1.32h-1.15V174h1.15Zm-54.67-5h-1.15v-3.43h1.15Zm54.67-1.32h-1.15v-3.43h1.15Zm-54.67-5h-1.15v-3.42h1.15Zm54.67-1.32h-1.15v-3.42h1.15Zm-54.67-5h-1.15V156.5h1.15Zm54.67-1.32h-1.15v-3.42h1.15Zm-54.67-5h-1.15v-3.42h1.15Zm54.67-1.32h-1.15V148.9h1.15Zm-54.67-5h-1.15v-3.42h1.15ZM217.27,146h-1.15v-3.42h1.15Zm-54.67-4.95h-1.15v-1.58a3.55,3.55,0,0,1,.65-2.07l.94.67a2.4,2.4,0,0,0-.44,1.4Zm54.67-1.32h-1.15v-.26a2.44,2.44,0,0,0-1.24-2.11l.57-1a3.6,3.6,0,0,1,1.82,3.11Zm-4.89-2.69H209v-1.15h3.42Zm-6.27,0h-3.43v-1.15h3.43Zm-6.28,0H196.4v-1.15h3.43Zm-6.28,0h-3.43v-1.15h3.43Zm-6.28,0h-3.43v-1.15h3.43Zm-6.28,0h-3.43v-1.15H181Zm-6.28,0h-3.42v-1.15h3.42Zm-6.28,0H165v-1.15h3.42Z"/>
  <rect class="f2faf8e4-0a53-4764-917f-d098457fcd49" x="108.1" y="218.61" width="1.15" height="21.29"/>
  <polygon class="f2faf8e4-0a53-4764-917f-d098457fcd49" points="108.68 214.97 106.09 220.34 111.27 220.34 108.68 214.97"/>
  <rect class="f2faf8e4-0a53-4764-917f-d098457fcd49" x="27.91" y="218.61" width="1.15" height="21.29"/>
  <polygon class="f2faf8e4-0a53-4764-917f-d098457fcd49" points="28.49 214.97 25.9 220.34 31.08 220.34 28.49 214.97"/>
  <polygon class="f2faf8e4-0a53-4764-917f-d098457fcd49" points="190.16 214.97 187.57 220.34 192.75 220.34 190.16 214.97"/>
  <rect class="f2faf8e4-0a53-4764-917f-d098457fcd49" x="28.17" y="239.9" width="81.14" height="1.15"/>
  <g>
    <rect class="f2faf8e4-0a53-4764-917f-d098457fcd49" x="189.3" y="221.49" width="1.15" height="1.73"/>
    <path class="f2faf8e4-0a53-4764-917f-d098457fcd49" d="M190.45,235.88H189.3v-3.46h1.15Zm0-6.33H189.3v-3.46h1.15Z"/>
    <polygon class="f2faf8e4-0a53-4764-917f-d098457fcd49" points="190.45 241.06 188.15 241.06 188.15 239.9 189.3 239.9 189.3 238.75 190.45 238.75 190.45 241.06"/>
    <path class="f2faf8e4-0a53-4764-917f-d098457fcd49" d="M185.16,241.05h-3.59V239.9h3.59Zm-6.58,0H175V239.9h3.59Zm-6.58,0h-3.59V239.9H172Zm-6.59,0h-3.59V239.9h3.59Zm-6.58,0h-3.59V239.9h3.59Zm-6.58,0h-3.59V239.9h3.59Zm-6.58,0h-3.59V239.9h3.59Zm-6.58,0H135.5V239.9h3.59Zm-6.58,0h-3.59V239.9h3.59Zm-6.58,0h-3.59V239.9h3.59Zm-6.59,0h-3.59V239.9h3.59Z"/>
    <rect class="f2faf8e4-0a53-4764-917f-d098457fcd49" x="111.04" y="239.9" width="1.73" height="1.15"/>
  </g>
  <circle class="b6c7d4aa-5508-4edc-91e1-7cbf66b1edc1" cx="153.05" cy="163.88" r="1.44"/>
  <circle class="b6c7d4aa-5508-4edc-91e1-7cbf66b1edc1" cx="148.44" cy="163.88" r="1.44"/>
  <circle class="b6c7d4aa-5508-4edc-91e1-7cbf66b1edc1" cx="143.84" cy="163.88" r="1.44"/>
  <g>
    <path class="b2601fb4-85df-4a59-9ed3-c444efa70992" d="M18.27,203.8h-.94l-3.9-6h0c0,.7.07,1.35.07,1.93v4.06H12.7v-7.14h.94l3.89,6h0c0-.09,0-.37-.05-.85s0-.82,0-1v-4.1h.77Z"/>
    <path class="b2601fb4-85df-4a59-9ed3-c444efa70992" d="M24.73,201.12a2.94,2.94,0,0,1-.66,2,2.3,2.3,0,0,1-1.82.74,2.34,2.34,0,0,1-1.27-.34,2.2,2.2,0,0,1-.86-1,3.38,3.38,0,0,1-.3-1.47,2.94,2.94,0,0,1,.65-2,2.31,2.31,0,0,1,1.82-.73,2.25,2.25,0,0,1,1.78.75A2.94,2.94,0,0,1,24.73,201.12Zm-4.07,0a2.5,2.5,0,0,0,.41,1.56,1.41,1.41,0,0,0,1.2.54,1.44,1.44,0,0,0,1.21-.53,2.51,2.51,0,0,0,.41-1.57,2.45,2.45,0,0,0-.41-1.55,1.45,1.45,0,0,0-1.22-.53,1.42,1.42,0,0,0-1.2.52A2.53,2.53,0,0,0,20.66,201.12Z"/>
    <path class="b2601fb4-85df-4a59-9ed3-c444efa70992" d="M29.8,203.08h-.05a1.88,1.88,0,0,1-1.68.82,2,2,0,0,1-1.63-.72,3.16,3.16,0,0,1-.58-2,3.24,3.24,0,0,1,.58-2.06,2,2,0,0,1,1.63-.73,1.93,1.93,0,0,1,1.67.79h.07l0-.38,0-.38V196.2h.81v7.6H29.9Zm-1.62.14a1.48,1.48,0,0,0,1.2-.45,2.28,2.28,0,0,0,.37-1.46v-.17a2.68,2.68,0,0,0-.37-1.62,1.44,1.44,0,0,0-1.21-.49,1.25,1.25,0,0,0-1.1.55,2.81,2.81,0,0,0-.37,1.57,2.67,2.67,0,0,0,.37,1.55A1.27,1.27,0,0,0,28.18,203.22Z"/>
    <path class="b2601fb4-85df-4a59-9ed3-c444efa70992" d="M34.54,203.9a2.46,2.46,0,0,1-1.87-.72,2.82,2.82,0,0,1-.69-2,3.15,3.15,0,0,1,.64-2.06,2.15,2.15,0,0,1,1.71-.76,2.05,2.05,0,0,1,1.6.66,2.55,2.55,0,0,1,.58,1.75v.51H32.82a2.13,2.13,0,0,0,.48,1.43,1.64,1.64,0,0,0,1.27.49,4.3,4.3,0,0,0,1.71-.36v.72a4.27,4.27,0,0,1-.81.27A5,5,0,0,1,34.54,203.9ZM34.32,199a1.3,1.3,0,0,0-1,.42,2,2,0,0,0-.46,1.16h2.8a1.76,1.76,0,0,0-.34-1.17A1.21,1.21,0,0,0,34.32,199Z"/>
    <path class="b2601fb4-85df-4a59-9ed3-c444efa70992" d="M43.12,203.8h-.79v-5.09c0-.42,0-.82,0-1.2l-.23.22-1.16,1-.43-.56,1.89-1.46h.68Z"/>
  </g>
  <g>
    <path class="b2601fb4-85df-4a59-9ed3-c444efa70992" d="M68.59,257.24a1.73,1.73,0,0,1-.68,1.47,3,3,0,0,1-1.86.53,4.63,4.63,0,0,1-2-.33v-.8a5.15,5.15,0,0,0,1,.3,5,5,0,0,0,1,.1,2.06,2.06,0,0,0,1.25-.31,1,1,0,0,0,.42-.88,1.22,1.22,0,0,0-.14-.61,1.46,1.46,0,0,0-.5-.43,6.59,6.59,0,0,0-1.07-.46,3.41,3.41,0,0,1-1.42-.84,1.9,1.9,0,0,1-.43-1.28,1.59,1.59,0,0,1,.62-1.31,2.56,2.56,0,0,1,1.64-.49,4.83,4.83,0,0,1,2,.39l-.26.73a4.35,4.35,0,0,0-1.71-.38,1.69,1.69,0,0,0-1,.29,1,1,0,0,0-.37.78,1.22,1.22,0,0,0,.14.61,1.4,1.4,0,0,0,.46.44,6.1,6.1,0,0,0,1,.43,4.08,4.08,0,0,1,1.54.86A1.71,1.71,0,0,1,68.59,257.24Z"/>
    <path class="b2601fb4-85df-4a59-9ed3-c444efa70992" d="M72.19,259.24a2.46,2.46,0,0,1-1.87-.72,2.79,2.79,0,0,1-.69-2,3.1,3.1,0,0,1,.64-2,2.13,2.13,0,0,1,1.71-.77,2,2,0,0,1,1.59.67,2.53,2.53,0,0,1,.59,1.74v.51H70.47A2.13,2.13,0,0,0,71,258a1.62,1.62,0,0,0,1.27.49,4.3,4.3,0,0,0,1.71-.36v.72a3.84,3.84,0,0,1-.81.27A5,5,0,0,1,72.19,259.24ZM72,254.37a1.3,1.3,0,0,0-1,.42,2,2,0,0,0-.46,1.16h2.8a1.76,1.76,0,0,0-.34-1.17A1.21,1.21,0,0,0,72,254.37Z"/>
    <path class="b2601fb4-85df-4a59-9ed3-c444efa70992" d="M79,257.68a1.36,1.36,0,0,1-.55,1.16,2.62,2.62,0,0,1-1.57.4,3.34,3.34,0,0,1-1.66-.34v-.75a4.57,4.57,0,0,0,.83.31,3.74,3.74,0,0,0,.85.11,2,2,0,0,0,1-.2.67.67,0,0,0,.34-.62.65.65,0,0,0-.27-.53,4,4,0,0,0-1.06-.53,6.26,6.26,0,0,1-1.06-.48,1.53,1.53,0,0,1-.47-.48,1.31,1.31,0,0,1,.38-1.66,2.5,2.5,0,0,1,1.46-.38,4.17,4.17,0,0,1,1.69.36l-.29.65a3.85,3.85,0,0,0-1.46-.33,1.71,1.71,0,0,0-.87.18.57.57,0,0,0-.29.5.65.65,0,0,0,.11.37,1.13,1.13,0,0,0,.36.29,7.61,7.61,0,0,0,.93.39,3.36,3.36,0,0,1,1.29.7A1.23,1.23,0,0,1,79,257.68Z"/>
    <path class="b2601fb4-85df-4a59-9ed3-c444efa70992" d="M83.76,257.68a1.36,1.36,0,0,1-.55,1.16,2.61,2.61,0,0,1-1.56.4A3.32,3.32,0,0,1,80,258.9v-.75a4.22,4.22,0,0,0,.82.31,3.74,3.74,0,0,0,.85.11,2,2,0,0,0,1-.2.67.67,0,0,0,.34-.62.65.65,0,0,0-.27-.53,4,4,0,0,0-1.06-.53,6.26,6.26,0,0,1-1.06-.48,1.53,1.53,0,0,1-.47-.48,1.31,1.31,0,0,1,.38-1.66,2.5,2.5,0,0,1,1.46-.38,4.17,4.17,0,0,1,1.69.36l-.29.65a3.85,3.85,0,0,0-1.46-.33,1.71,1.71,0,0,0-.87.18.57.57,0,0,0-.29.5.65.65,0,0,0,.11.37,1.26,1.26,0,0,0,.36.29,7.61,7.61,0,0,0,.93.39,3.36,3.36,0,0,1,1.29.7A1.23,1.23,0,0,1,83.76,257.68Z"/>
    <path class="b2601fb4-85df-4a59-9ed3-c444efa70992" d="M85,252.34a.56.56,0,0,1,.14-.41.51.51,0,0,1,.34-.13.48.48,0,0,1,.34.14.52.52,0,0,1,.14.4.56.56,0,0,1-.14.41.51.51,0,0,1-.68,0A.56.56,0,0,1,85,252.34Zm.88,6.8h-.81v-5.35h.81Z"/>
    <path class="b2601fb4-85df-4a59-9ed3-c444efa70992" d="M92.23,256.46a3,3,0,0,1-.66,2.05,2.31,2.31,0,0,1-1.82.73,2.34,2.34,0,0,1-1.27-.34,2.18,2.18,0,0,1-.86-1,3.26,3.26,0,0,1-.31-1.48,2.94,2.94,0,0,1,.66-2,2.32,2.32,0,0,1,1.81-.73,2.27,2.27,0,0,1,1.79.75A2.94,2.94,0,0,1,92.23,256.46Zm-4.08,0a2.53,2.53,0,0,0,.41,1.56,1.44,1.44,0,0,0,1.21.54A1.46,1.46,0,0,0,91,258a2.58,2.58,0,0,0,.41-1.57,2.53,2.53,0,0,0-.41-1.55,1.46,1.46,0,0,0-1.22-.53,1.45,1.45,0,0,0-1.2.52A2.53,2.53,0,0,0,88.15,256.46Z"/>
    <path class="b2601fb4-85df-4a59-9ed3-c444efa70992" d="M97.31,259.14v-3.46a1.45,1.45,0,0,0-.29-1,1.24,1.24,0,0,0-.94-.32,1.52,1.52,0,0,0-1.23.46,2.29,2.29,0,0,0-.39,1.5v2.8h-.81v-5.35h.66l.13.73h0a1.74,1.74,0,0,1,.7-.61,2.33,2.33,0,0,1,1-.22,2,2,0,0,1,1.46.47,2,2,0,0,1,.48,1.49v3.49Z"/>
    <path class="b2601fb4-85df-4a59-9ed3-c444efa70992" d="M103.34,256.17v3h-.83V252h2a3.06,3.06,0,0,1,1.94.51A1.81,1.81,0,0,1,107,254a1.9,1.9,0,0,1-1.44,1.92l1.94,3.2h-1l-1.73-3Zm0-.71h1.14a2,2,0,0,0,1.29-.35,1.31,1.31,0,0,0,.41-1.05,1.19,1.19,0,0,0-.42-1,2.34,2.34,0,0,0-1.34-.31h-1.08Z"/>
    <path class="b2601fb4-85df-4a59-9ed3-c444efa70992" d="M110.83,259.24a2.45,2.45,0,0,1-1.87-.72,2.79,2.79,0,0,1-.69-2,3.05,3.05,0,0,1,.64-2,2.1,2.1,0,0,1,1.71-.77,2,2,0,0,1,1.59.67,2.53,2.53,0,0,1,.59,1.74v.51h-3.69a2.13,2.13,0,0,0,.48,1.43,1.62,1.62,0,0,0,1.27.49,4.34,4.34,0,0,0,1.71-.36v.72a3.73,3.73,0,0,1-.82.27A4.77,4.77,0,0,1,110.83,259.24Zm-.22-4.87a1.33,1.33,0,0,0-1,.42,2,2,0,0,0-.45,1.16h2.8a1.81,1.81,0,0,0-.34-1.17A1.22,1.22,0,0,0,110.61,254.37Z"/>
    <path class="b2601fb4-85df-4a59-9ed3-c444efa70992" d="M116.67,259.24a2.32,2.32,0,0,1-1-.19,1.87,1.87,0,0,1-.72-.6h-.06a7.12,7.12,0,0,1,.06.89v2.21h-.81v-7.76h.66l.11.73h0a1.89,1.89,0,0,1,.73-.63,2.18,2.18,0,0,1,1-.2,2,2,0,0,1,1.64.73,3.19,3.19,0,0,1,.58,2,3.15,3.15,0,0,1-.59,2.05A2,2,0,0,1,116.67,259.24Zm-.12-4.86a1.41,1.41,0,0,0-1.18.46,2.3,2.3,0,0,0-.38,1.44v.18a2.65,2.65,0,0,0,.38,1.62,1.43,1.43,0,0,0,1.2.48,1.27,1.27,0,0,0,1.09-.56,2.67,2.67,0,0,0,.39-1.55,2.56,2.56,0,0,0-.39-1.53A1.29,1.29,0,0,0,116.55,254.38Z"/>
    <path class="b2601fb4-85df-4a59-9ed3-c444efa70992" d="M121.12,259.14h-.81v-7.59h.81Z"/>
    <path class="b2601fb4-85df-4a59-9ed3-c444efa70992" d="M122.77,252.34a.56.56,0,0,1,.13-.41.54.54,0,0,1,.35-.13.45.45,0,0,1,.33.14.49.49,0,0,1,.15.4.53.53,0,0,1-.15.41.44.44,0,0,1-.33.13.49.49,0,0,1-.35-.13A.56.56,0,0,1,122.77,252.34Zm.88,6.8h-.81v-5.35h.81Z"/>
    <path class="b2601fb4-85df-4a59-9ed3-c444efa70992" d="M127.5,259.24a2.28,2.28,0,0,1-1.79-.71,3.58,3.58,0,0,1,0-4.1,2.32,2.32,0,0,1,1.84-.74,3.37,3.37,0,0,1,.77.09,2.6,2.6,0,0,1,.61.19l-.25.69a4.55,4.55,0,0,0-.59-.18,3.16,3.16,0,0,0-.56-.07c-1.09,0-1.63.7-1.63,2.08a2.48,2.48,0,0,0,.4,1.52,1.37,1.37,0,0,0,1.18.52,3.48,3.48,0,0,0,1.37-.29V259A2.89,2.89,0,0,1,127.5,259.24Z"/>
    <path class="b2601fb4-85df-4a59-9ed3-c444efa70992" d="M133.42,259.14l-.16-.76h0a2.28,2.28,0,0,1-.8.68,2.43,2.43,0,0,1-1,.18,1.81,1.81,0,0,1-1.25-.41,1.49,1.49,0,0,1-.45-1.17c0-1.08.86-1.64,2.59-1.7l.91,0v-.34a1.36,1.36,0,0,0-.27-.93,1.12,1.12,0,0,0-.87-.3,3.54,3.54,0,0,0-1.51.41l-.25-.62a3.84,3.84,0,0,1,.86-.33,3.45,3.45,0,0,1,.95-.13,2.06,2.06,0,0,1,1.42.43,1.8,1.8,0,0,1,.46,1.36v3.65Zm-1.83-.57a1.69,1.69,0,0,0,1.19-.41,1.59,1.59,0,0,0,.43-1.17v-.48l-.81,0a2.91,2.91,0,0,0-1.4.3.89.89,0,0,0-.42.82.81.81,0,0,0,.26.67A1.09,1.09,0,0,0,131.59,258.57Z"/>
    <path class="b2601fb4-85df-4a59-9ed3-c444efa70992" d="M137.42,258.57a2.73,2.73,0,0,0,.41,0,1.56,1.56,0,0,0,.32-.07v.62a1.32,1.32,0,0,1-.39.11,2.6,2.6,0,0,1-.46,0c-1,0-1.55-.54-1.55-1.63v-3.19H135V254l.77-.34.34-1.14h.47v1.24h1.55v.63h-1.55v3.15a1,1,0,0,0,.23.74A.77.77,0,0,0,137.42,258.57Z"/>
    <path class="b2601fb4-85df-4a59-9ed3-c444efa70992" d="M139.15,252.34a.56.56,0,0,1,.14-.41.5.5,0,0,1,.68,0,.52.52,0,0,1,.14.4.56.56,0,0,1-.14.41.48.48,0,0,1-.34.13.45.45,0,0,1-.34-.13A.56.56,0,0,1,139.15,252.34Zm.88,6.8h-.81v-5.35H140Z"/>
    <path class="b2601fb4-85df-4a59-9ed3-c444efa70992" d="M146.37,256.46a3,3,0,0,1-.66,2.05,2.32,2.32,0,0,1-1.82.73,2.38,2.38,0,0,1-1.28-.34,2.18,2.18,0,0,1-.86-1,3.4,3.4,0,0,1-.3-1.48,3,3,0,0,1,.65-2,2.36,2.36,0,0,1,1.82-.73,2.25,2.25,0,0,1,1.78.75A2.9,2.9,0,0,1,146.37,256.46Zm-4.08,0a2.53,2.53,0,0,0,.41,1.56,1.62,1.62,0,0,0,2.41,0,2.51,2.51,0,0,0,.42-1.57,2.47,2.47,0,0,0-.42-1.55,1.65,1.65,0,0,0-2.41,0A2.46,2.46,0,0,0,142.29,256.46Z"/>
    <path class="b2601fb4-85df-4a59-9ed3-c444efa70992" d="M151.45,259.14v-3.46a1.4,1.4,0,0,0-.3-1,1.23,1.23,0,0,0-.93-.32,1.52,1.52,0,0,0-1.23.46,2.29,2.29,0,0,0-.39,1.5v2.8h-.81v-5.35h.66l.13.73h0a1.67,1.67,0,0,1,.7-.61,2.33,2.33,0,0,1,1-.22,2,2,0,0,1,1.45.47,2,2,0,0,1,.49,1.49v3.49Z"/>
  </g>
  <g>
    <path class="b2601fb4-85df-4a59-9ed3-c444efa70992" d="M97.73,204.14h-.94l-3.91-6h0c.05.71.07,1.35.07,1.94v4h-.76V197h.93l3.9,6h0c0-.09,0-.37,0-.85s0-.81,0-1V197h.77Z"/>
    <path class="b2601fb4-85df-4a59-9ed3-c444efa70992" d="M104.19,201.46a3,3,0,0,1-.66,2,2.31,2.31,0,0,1-1.82.73,2.34,2.34,0,0,1-1.27-.34,2.18,2.18,0,0,1-.86-1,3.4,3.4,0,0,1-.3-1.48,2.94,2.94,0,0,1,.65-2,2.34,2.34,0,0,1,1.82-.73,2.25,2.25,0,0,1,1.78.75A2.94,2.94,0,0,1,104.19,201.46Zm-4.07,0a2.46,2.46,0,0,0,.41,1.56,1.41,1.41,0,0,0,1.2.54,1.44,1.44,0,0,0,1.21-.53,2.51,2.51,0,0,0,.41-1.57,2.47,2.47,0,0,0-.41-1.55,1.66,1.66,0,0,0-2.42,0A2.53,2.53,0,0,0,100.12,201.46Z"/>
    <path class="b2601fb4-85df-4a59-9ed3-c444efa70992" d="M109.26,203.43h-.05a1.9,1.9,0,0,1-1.68.81,2,2,0,0,1-1.63-.72,3.9,3.9,0,0,1,0-4.09,2.16,2.16,0,0,1,3.3,0h.07l0-.38,0-.38v-2.17H110v7.59h-.66Zm-1.62.13a1.48,1.48,0,0,0,1.2-.45,2.28,2.28,0,0,0,.37-1.46v-.17a2.61,2.61,0,0,0-.38-1.62,1.41,1.41,0,0,0-1.2-.49,1.26,1.26,0,0,0-1.1.56,2.77,2.77,0,0,0-.37,1.56,2.65,2.65,0,0,0,.37,1.55A1.27,1.27,0,0,0,107.64,203.56Z"/>
    <path class="b2601fb4-85df-4a59-9ed3-c444efa70992" d="M114,204.24a2.46,2.46,0,0,1-1.87-.72,2.79,2.79,0,0,1-.69-2,3.1,3.1,0,0,1,.64-2,2.13,2.13,0,0,1,1.71-.77,2,2,0,0,1,1.59.67,2.53,2.53,0,0,1,.59,1.74v.51h-3.69a2.13,2.13,0,0,0,.48,1.43,1.62,1.62,0,0,0,1.27.49,4.3,4.3,0,0,0,1.71-.36v.72a3.84,3.84,0,0,1-.81.27A5,5,0,0,1,114,204.24Zm-.22-4.87a1.3,1.3,0,0,0-1,.42,2,2,0,0,0-.46,1.16h2.8a1.76,1.76,0,0,0-.34-1.17A1.21,1.21,0,0,0,113.78,199.37Z"/>
    <path class="b2601fb4-85df-4a59-9ed3-c444efa70992" d="M124.27,204.14h-4.69v-.7l1.88-1.88a13.22,13.22,0,0,0,1.13-1.25,2.94,2.94,0,0,0,.41-.72,2,2,0,0,0,.14-.75,1.2,1.2,0,0,0-.35-.91,1.33,1.33,0,0,0-1-.33,2.32,2.32,0,0,0-.84.14,3.63,3.63,0,0,0-.89.53l-.43-.55a3.35,3.35,0,0,1,2.15-.82,2.25,2.25,0,0,1,1.58.52,1.76,1.76,0,0,1,.57,1.38,2.7,2.7,0,0,1-.38,1.34,8.27,8.27,0,0,1-1.43,1.68l-1.56,1.53v0h3.67Z"/>
  </g>
  <g>
    <path class="b2601fb4-85df-4a59-9ed3-c444efa70992" d="M178.19,204.14h-.95l-3.9-6h0c0,.7.08,1.35.08,1.93v4.06h-.77V197h.94l3.89,6h0c0-.09,0-.37,0-.85s0-.81,0-1V197h.78Z"/>
    <path class="b2601fb4-85df-4a59-9ed3-c444efa70992" d="M184.65,201.46a3,3,0,0,1-.66,2,2.61,2.61,0,0,1-3.1.39,2.18,2.18,0,0,1-.86-1,3.43,3.43,0,0,1-.3-1.48,3,3,0,0,1,.65-2,2.36,2.36,0,0,1,1.82-.73,2.25,2.25,0,0,1,1.78.75A2.9,2.9,0,0,1,184.65,201.46Zm-4.08,0A2.53,2.53,0,0,0,181,203a1.62,1.62,0,0,0,2.41,0,2.51,2.51,0,0,0,.42-1.57,2.45,2.45,0,0,0-.42-1.55,1.44,1.44,0,0,0-1.21-.53,1.47,1.47,0,0,0-1.21.52A2.53,2.53,0,0,0,180.57,201.46Z"/>
    <path class="b2601fb4-85df-4a59-9ed3-c444efa70992" d="M189.71,203.42h0a1.91,1.91,0,0,1-1.68.82,2,2,0,0,1-1.64-.72,3.9,3.9,0,0,1,0-4.09,2,2,0,0,1,1.64-.74,2,2,0,0,1,1.67.79h.06l0-.38,0-.38v-2.18h.81v7.6h-.66Zm-1.62.14a1.48,1.48,0,0,0,1.2-.45,2.28,2.28,0,0,0,.38-1.46v-.17a2.68,2.68,0,0,0-.38-1.62,1.44,1.44,0,0,0-1.21-.49,1.23,1.23,0,0,0-1.09.56,3.41,3.41,0,0,0,0,3.11A1.28,1.28,0,0,0,188.09,203.56Z"/>
    <path class="b2601fb4-85df-4a59-9ed3-c444efa70992" d="M194.46,204.24a2.47,2.47,0,0,1-1.88-.72,2.83,2.83,0,0,1-.68-2,3.15,3.15,0,0,1,.63-2.06,2.16,2.16,0,0,1,1.72-.76,2,2,0,0,1,1.59.67,2.52,2.52,0,0,1,.58,1.74v.51h-3.68a2.08,2.08,0,0,0,.47,1.43,1.64,1.64,0,0,0,1.27.49,4.3,4.3,0,0,0,1.71-.36v.72a3.5,3.5,0,0,1-.81.27A4.77,4.77,0,0,1,194.46,204.24Zm-.22-4.87a1.32,1.32,0,0,0-1,.42,1.88,1.88,0,0,0-.45,1.16h2.79a1.76,1.76,0,0,0-.34-1.17A1.2,1.2,0,0,0,194.24,199.37Z"/>
    <path class="b2601fb4-85df-4a59-9ed3-c444efa70992" d="M206.1,204.14h-.95l-3.9-6h0c.06.7.08,1.35.08,1.93v4.06h-.77V197h.94l3.89,6h0c0-.09,0-.37,0-.85s0-.81,0-1V197h.78Z"/>
  </g>
  <rect class="b2601fb4-85df-4a59-9ed3-c444efa70992" x="41.08" y="0.61" width="54.67" height="54.67" rx="3"/>
  <path class="a55eb3b0-4d39-41ba-9361-d78fa8d5ff51" d="M92.75,55.86H44.09a3.58,3.58,0,0,1-3.58-3.58V3.62A3.58,3.58,0,0,1,44.09,0H92.75a3.58,3.58,0,0,1,3.58,3.58V52.28A3.59,3.59,0,0,1,92.75,55.86ZM44.09,1.19a2.43,2.43,0,0,0-2.43,2.43V52.28a2.43,2.43,0,0,0,2.43,2.43H92.75a2.43,2.43,0,0,0,2.43-2.43V3.62a2.43,2.43,0,0,0-2.43-2.43Z"/>
  <path class="a55eb3b0-4d39-41ba-9361-d78fa8d5ff51" d="M173.93,55.82h-3.46V54.67h3.42Zm-6.32,0h-3.42V54.67h3.42Zm-6.28,0h-3.42V54.67h3.42Zm-6.28,0h-3.42V54.67h3.42Zm-6.27,0h-3.43V54.67h3.43Zm-6.28,0h-3.43V54.67h3.43Zm-6.28,0h-3.43V54.67h3.43Zm-6.28,0h-3.43V54.67h3.43Zm-6.5-.48a3.61,3.61,0,0,1-1.79-3.1V52h1.15v.28a2.44,2.44,0,0,0,1.22,2.1Zm53.39-1.05-1-.66a2.39,2.39,0,0,0,.44-1.39v-1.6h1.15v1.6A3.58,3.58,0,0,1,176.83,54.29Zm-54-5.18h-1.15V45.69h1.15Zm54.67-1.32h-1.15V44.37h1.15Zm-54.67-5h-1.15V39.41h1.15Zm54.67-1.32h-1.15V38.09h1.15Zm-54.67-5h-1.15V33.13h1.15Zm54.67-1.32h-1.15V31.81h1.15Zm-54.67-5h-1.15V26.85h1.15ZM177.47,29h-1.15V25.53h1.15ZM122.8,24h-1.15V20.57h1.15Zm54.67-1.33h-1.15V19.25h1.15Zm-54.67-5h-1.15V14.29h1.15Zm54.67-1.32h-1.15V13h1.15Zm-54.67-5h-1.15V8h1.15Zm54.67-1.32h-1.15V6.69h1.15Zm-54.67-5h-1.15V3.58a3.53,3.53,0,0,1,.66-2.06l.94.66a2.36,2.36,0,0,0-.45,1.4Zm54.67-1.32h-1.15V3.58a2.43,2.43,0,0,0-1.23-2.11l.57-1a3.59,3.59,0,0,1,1.81,3.11Zm-4.88-2.69h-3.43V0h3.43Zm-6.28,0h-3.42V0h3.42Zm-6.28,0h-3.42V0H160Zm-6.28,0h-3.42V0h3.42Zm-6.28,0h-3.42V0h3.42Zm-6.28,0h-3.42V0h3.42Zm-6.27,0h-3.43V0h3.43Zm-6.28,0h-3.41l0-1.15h3.43Z"/>
  <circle class="b6c7d4aa-5508-4edc-91e1-7cbf66b1edc1" cx="113.25" cy="27.95" r="1.44"/>
  <circle class="b6c7d4aa-5508-4edc-91e1-7cbf66b1edc1" cx="108.65" cy="27.95" r="1.44"/>
  <circle class="b6c7d4aa-5508-4edc-91e1-7cbf66b1edc1" cx="104.04" cy="27.95" r="1.44"/>
  <g>
    <rect class="a55eb3b0-4d39-41ba-9361-d78fa8d5ff51" x="68.17" y="19.86" width="1.68" height="16.21"/>
    <rect class="a55eb3b0-4d39-41ba-9361-d78fa8d5ff51" x="60.74" y="19.86" width="1.68" height="16.21" transform="translate(31.42 -32.57) rotate(39.1)"/>
    <rect class="a55eb3b0-4d39-41ba-9361-d78fa8d5ff51" x="75.6" y="19.86" width="1.68" height="16.21" transform="translate(153.39 1.46) rotate(140.9)"/>
    <circle class="a55eb3b0-4d39-41ba-9361-d78fa8d5ff51" cx="69.01" cy="18.75" r="5.07"/>
    <circle class="a55eb3b0-4d39-41ba-9361-d78fa8d5ff51" cx="69.01" cy="36.31" r="5.07"/>
    <circle class="a55eb3b0-4d39-41ba-9361-d78fa8d5ff51" cx="54.82" cy="36.31" r="5.07"/>
    <circle class="a55eb3b0-4d39-41ba-9361-d78fa8d5ff51" cx="82.52" cy="36.31" r="5.07"/>
  </g>
  <g>
    <rect class="a55eb3b0-4d39-41ba-9361-d78fa8d5ff51" x="149.17" y="19.86" width="1.68" height="16.21"/>
    <rect class="a55eb3b0-4d39-41ba-9361-d78fa8d5ff51" x="141.74" y="19.86" width="1.68" height="16.21" transform="translate(49.56 -83.65) rotate(39.1)"/>
    <rect class="a55eb3b0-4d39-41ba-9361-d78fa8d5ff51" x="156.6" y="19.86" width="1.68" height="16.21" transform="translate(297.25 -49.62) rotate(140.9)"/>
    <circle class="a55eb3b0-4d39-41ba-9361-d78fa8d5ff51" cx="150.01" cy="18.75" r="5.07"/>
    <circle class="a55eb3b0-4d39-41ba-9361-d78fa8d5ff51" cx="150.01" cy="36.31" r="5.07"/>
    <circle class="a55eb3b0-4d39-41ba-9361-d78fa8d5ff51" cx="135.82" cy="36.31" r="5.07"/>
    <circle class="a55eb3b0-4d39-41ba-9361-d78fa8d5ff51" cx="163.52" cy="36.31" r="5.07"/>
  </g>
  <g>
    <path class="b2601fb4-85df-4a59-9ed3-c444efa70992" d="M209.26,156.34h-.38a5.55,5.55,0,0,0,.71-1.42,1.79,1.79,0,0,0-.76-1.88h.06a1.68,1.68,0,0,0,1.68-1.68V149.3a1.68,1.68,0,0,0-1.68-1.68h-6.33a3.28,3.28,0,0,0-1,.12,1.51,1.51,0,0,0-.63-.13h-3.27a19,19,0,0,0-3.84.12,1.63,1.63,0,0,0-.59-.11h-1.37a1.53,1.53,0,0,1-1,0h-.25a1.74,1.74,0,0,1-1.23,0h-.24a1.51,1.51,0,0,0-.63.13,2.72,2.72,0,0,0-2.18.14l-.22.13a1.71,1.71,0,0,0-1.1-.4h-.14a1.69,1.69,0,0,0-1,.34,2.81,2.81,0,0,0-1.39-.34h-.76a1.58,1.58,0,0,1-1.61,0H180a1.62,1.62,0,0,0-.83.23,1.54,1.54,0,0,0-.83-.24h-9.91a1.68,1.68,0,0,0-1.68,1.68v2.11a1.68,1.68,0,0,0,1.68,1.68H170v7.07a1.68,1.68,0,0,0,1.68,1.68h1.41c.1.12.21.26.32.37a6.1,6.1,0,0,0,.59.55,1.77,1.77,0,0,0,.7.71,2.52,2.52,0,0,0,.63.38,4.47,4.47,0,0,0,1.3.35,1.52,1.52,0,0,0-.74,1.33,1.71,1.71,0,0,0,1.71,1.74,4.65,4.65,0,0,0,1.1-.1,4.51,4.51,0,0,0,.75,1,3.79,3.79,0,0,0,2.1,1.09,1.61,1.61,0,0,0,.46.81,1.64,1.64,0,0,0,1.22.49h.21v.08H173.05c-4.08.17-4.28.24-4.79.79a3.4,3.4,0,0,0,.41,3.42,1.62,1.62,0,0,0-.81,1.53,1.7,1.7,0,0,0,1.7,1.57H170a36.34,36.34,0,0,0,6-1.23c2.54-.63,4.16-1,5.33-1.22a3.2,3.2,0,0,0,1.45,1.22A2.71,2.71,0,0,0,184,177a6.44,6.44,0,0,0,.25.74h0a5.11,5.11,0,0,0,.16.66,3,3,0,0,0,.54,1.49,1.61,1.61,0,0,0,1.23,1.12,1.67,1.67,0,0,0,1.16.46h.26a1.68,1.68,0,0,0,.85.22,2,2,0,0,0,.54-.08,1.61,1.61,0,0,0,.63-.4h.12a1.76,1.76,0,0,0,1.75-1.63s.12-.4.28-.81a13.14,13.14,0,0,0,.49-1.5l.08-.31.78-.2a8.67,8.67,0,0,0,1.23-.36,3.16,3.16,0,0,0,1.37-1.16c1.23.13,3.13.41,4.91.75,4.14.74,5.56,1,6.93,1.1l.63.07h.35a1.76,1.76,0,0,0,1.61-1.08,1.71,1.71,0,0,0-.45-1.86,1.75,1.75,0,0,0-.94-.44,1.51,1.51,0,0,0,.13-.41,1.66,1.66,0,0,0,.65-.76,1.68,1.68,0,0,0-.36-1.83c-.48-.48-.83-.5-2.46-.6-.87,0-2.27-.07-3.29-.07-2.22,0-4.91,0-6.93.14h-.67a1.61,1.61,0,0,0,.48-1.3,3.88,3.88,0,0,0,2.36-2c.58.06,1,.1,1.14.1h.35a1.69,1.69,0,0,0,1.36-1.59,1.58,1.58,0,0,0-.28-1l.74-.69a4,4,0,0,0,1.84-.79l.14-.09a2.81,2.81,0,0,0,.66-.58,4.78,4.78,0,0,0,.59-.41l.21-.19h3.93A1.68,1.68,0,0,0,211,160v-2.11A1.69,1.69,0,0,0,209.26,156.34Zm-3.91,5.16"/>
    <g id="bb63abe9-6637-4186-a52c-78fa4f2ff5c8" data-name="843a5aa4-2814-412b-8703-323ea1b94520">
      <path id="acbade9f-33c4-4e6b-a469-0565230ebeba" data-name="089591c7-52d9-4e2d-841a-f348ac4293c8" class="b45e39ac-eebe-415a-b4f2-cfdeeb535c78" d="M188.25,179.79c-.07-.38-.1-.4-.18-.13s-.16.24-.29,0l-.11-.25-.18.28a1.18,1.18,0,0,1-.22.28.72.72,0,0,1-.08-.32c0-.47-.08-.49-.39-.29a1.29,1.29,0,0,1-.33.17,1.57,1.57,0,0,1-.06-.5v-.47l-.11.23a.26.26,0,0,1-.12.22,5.39,5.39,0,0,1-.19-.77c-.08-.42-.17-.76-.18-.79s-.42-1.69-.4-1.71a2.26,2.26,0,0,1,.32.54c.19.35.4.69.63,1a2.28,2.28,0,0,1,.5,1.22c0,.11,0,.11.09,0s.08-.09.37,0a1.19,1.19,0,0,0,.35.15.67.67,0,0,1,.15.21l.09.21V179a.15.15,0,0,1,.17-.15,2.09,2.09,0,0,0,.49-.13c.45-.16.44-.16.49,0s0,.08.1-.12a.49.49,0,0,1,.22-.34c.27-.15.39-.17.42-.06s0,.08,0,0a.83.83,0,0,1,.19-.34,3.16,3.16,0,0,0,.51-1.47,3.17,3.17,0,0,1,.17-.69,5.07,5.07,0,0,1-.19,1.45,12.19,12.19,0,0,1-.43,1.29,9.23,9.23,0,0,0-.35,1.05.82.82,0,0,1-.11.31.76.76,0,0,1-.11-.33l-.08-.33-.24.36c-.24.35-.25.36-.32.26a.7.7,0,0,1-.11-.23c0-.11,0,0-.2.29a1.6,1.6,0,0,1-.23.45,1.09,1.09,0,0,1-.14-.34Zm-.38-2.34-.8-.08-.55-.06-.33-.91-.33-.91h-1.05c-.94,0-1.05,0-1.31-.15a1.52,1.52,0,0,1-.71-.64,2.58,2.58,0,0,1-.24-.85c0-.14,0-.15-.17-.13l-.77.11c-1.23.19-3,.57-6,1.3a36.17,36.17,0,0,1-5.72,1.13h-.14a41,41,0,0,0,5.93-1.22,45.57,45.57,0,0,1,6-1.33l.85-.11a.38.38,0,0,0,0-.21v-.21h-1.34c-3.37.09-9.95.42-11.18.56h-.16s.84-.12,4.3-.39c2.92-.23,4.71-.33,6.69-.36h1.74v-.22a1,1,0,0,0,0-.24l-4.51-.08c-4.28-.06-6.87,0-8.28.08h-.34s2-.18,3.68-.26,7.13-.07,9.12,0h1.95c.8,0,.42.1-.57.15s-.93,0-.93.38v.13h1.23a6.32,6.32,0,0,1,1.23,0,7.36,7.36,0,0,1-1.69.11c-.52,0-.68,0-.67.07v.34h1c1.13,0,1.12.08,0,.13h-.92l.1.2a2.08,2.08,0,0,0,.86.78,3,3,0,0,0,2,0,4.66,4.66,0,0,0,.73-.3l.38-.25c.19-.13.38-.27.56-.42l.25-.21-.42-.28a2,2,0,0,1-.39-.32h.59l-.49-.19-.49-.18-.75-1a5.64,5.64,0,0,1-.7-1,4.8,4.8,0,0,0,.24-.82l.2-.79-.27-.26-.27-.25-.9.23a6.92,6.92,0,0,1-.92.22,11.19,11.19,0,0,1,1.17-.65,1.56,1.56,0,0,0,.28-.16.51.51,0,0,0-.16-.13c-.13-.1-.28-.13-1.15-.18-1.62-.08-2.14-.24-2.69-.78a3,3,0,0,1-.71-1.39c-.06-.29-.07-.3-.21-.28s-2.06.26-2.12.23a6.54,6.54,0,0,1,.95-.3l1.35-.38.32-.1h-.68c-.9,0-1-.14-.21-.15h1.65l1,.39,1.08.4a2.24,2.24,0,0,0,.33-.43l.28-.43-.12-.46c-.06-.24-.26-.81-.42-1.22a6.18,6.18,0,0,1-.27-.83s.39.59.85,1.35l.82,1.38v1.22l.6.23c.48.18.6.2.58.13a12.38,12.38,0,0,1-.46-1.61,4.34,4.34,0,0,1,.7.84l.68.91.45.19.46.2h-.6a4.24,4.24,0,0,0,.65.28.35.35,0,1,1,.53.47.35.35,0,0,1-.5,0,.37.37,0,0,1-.12-.24h-.72l-.26.46-.25.45-.08,1.36a12.19,12.19,0,0,1-.08,1.37l1,.41,1,.39,1.45-.32,1.44-.32v-3l-.19-.42-.2-.42H189c.24-.1.48-.19.73-.27l.68-.22.72-.94a5.75,5.75,0,0,1,.74-.88,6.11,6.11,0,0,1-.17.74l-.19.69.43-.15.43-.14V165l.83-1.15,1-1.34c.26-.34.19-.13-.16.43a9.46,9.46,0,0,0-.83,1.69c0,.15,0,.2.37.56l.4.39,1.45-.49,1.45-.49,1.12.07a6.12,6.12,0,0,1,1,.11l-.92.11-.84.07,1.38.39a9.71,9.71,0,0,1,1.23.39,6.52,6.52,0,0,1-1.06-.1l-1.09-.12c-.11,0-.14,0-.26.44a2.45,2.45,0,0,1-2,1.86c-.21,0-.82.1-1.39.14-1,0-1,0-1.23.21l-.17.15,1,.56a8.25,8.25,0,0,1,.94.59s-.52-.14-1.14-.33l-1.22-.36a1.28,1.28,0,0,0-.35.26l-.27.26.14.87c.12.77.14.88.24.89s-.12.21-.78.78c-.87.73-.91.76-1.4.93l-.51.17H190l-.51.3a4.59,4.59,0,0,0-.52.33,3.05,3.05,0,0,0,.88.69,5.64,5.64,0,0,0,1.91.66,2.45,2.45,0,0,0,2.08-.62c.26-.27.39-.51.33-.57a4.43,4.43,0,0,0-.72-.09l-.7-.06a4.16,4.16,0,0,1,1.22-.06c.36,0,.37,0,.41-.09v-.18a2.45,2.45,0,0,0-.85-.1c-.93,0-1.46-.13-.82-.13h1.73v0h3.29c3.44,0,5.95.08,8.48.29,1,.09,1.14.1.54.07l-2.11-.07H194.45v.36l.88.06a57.24,57.24,0,0,1,7.25,1.14c2.46.49,4.15.77,5.13.87a3.58,3.58,0,0,1,.73.11h-.11l-.76-.08c-1.3-.13-2.73-.36-6.79-1.08a35.82,35.82,0,0,0-6.33-1,1.29,1.29,0,0,0-.08.28,1.42,1.42,0,0,1-.84,1.07,7,7,0,0,1-.87.24l-.9.23a1.94,1.94,0,0,1-.76,0h-.48l-.12.67c-.24,1.23-.21,1.23-.43,1.23a13.79,13.79,0,0,1-2.13.07Zm1.85-.27c.31-.08.31-.09.35-.32a1.62,1.62,0,0,0,0-.44v0c-.09.56-.41.69-1.66.69a2.1,2.1,0,0,1-1-.11,1.21,1.21,0,0,0-.32-.11c-.1,0-.28-.22-.38-.43l-.08-.19v.22c0,.49,0,.53.43.62a5.57,5.57,0,0,0,1.68.14,3.72,3.72,0,0,0,.94-.06Zm-2.87-2.67a.42.42,0,0,1,.23.1c.14.09.35.16.45,0s.18,0,.28.13l.1.2.17-.2a.86.86,0,0,1,.19-.19.78.78,0,0,1,.16.24l.13.25.17-.22.17-.23.15.2.14.2.35-.11.33-.19.07.15a2,2,0,0,1,.1.54c0,.22,0,.38.07.37a2.89,2.89,0,0,0,.21-1v-.2l-.41-.1a8.78,8.78,0,0,0-2.61,0,6.1,6.1,0,0,0-.72.14c-.12.07-.12.52,0,1l.1.37.08-.63a2.69,2.69,0,0,1,.11-.7Zm-2.77-7.12a2.42,2.42,0,0,0,.79-.77,3.21,3.21,0,0,0,.19-.31s-.51-.2-1.11-.39c-.87-.3-1.13-.36-1.22-.31a1,1,0,0,0-.29.66v.3l-.07-.16a1.8,1.8,0,0,1-.11-.89v-.16l-.66-.22c-.25-.08-.5-.16-.75-.22a.53.53,0,0,0-.15.3,1.48,1.48,0,0,0,.64,1.54,2.49,2.49,0,0,0,1,.61,2.4,2.4,0,0,0,1.67,0Zm10.72,0a2.32,2.32,0,0,0,1.23-.66,1.45,1.45,0,0,0,.58-1.6c0-.19-.08-.21-.24-.18a5.75,5.75,0,0,0-.66.23l-.5.2v.28a1.73,1.73,0,0,1-.28.88c-.09,0,0-.11,0-.25,0-.35-.2-.75-.36-.73s-2.21.66-2.25.7a.79.79,0,0,0,.1.27,2.51,2.51,0,0,0,1,.91,2.59,2.59,0,0,0,1.46,0ZM193,172.3c-.29,0,.23-.09,3.52-.23,3.51-.16,8.3-.2,10-.09a6.29,6.29,0,0,1,1.35.12,2.71,2.71,0,0,1-.57,0c-1.05-.08-4.68,0-7.16.09s-6.77.18-7.17.11Zm-4.48-4.17a8.05,8.05,0,0,1,0-2.77l.14-1.05v1.79a16.06,16.06,0,0,1-.06,2.09v.29Zm-.27-4.43a.65.65,0,0,1,0-.51,1.62,1.62,0,0,0-.1-.59,2,2,0,0,1-.16-.49V162a.72.72,0,0,1-.18-.25c-.08-.15-.14-.26-.14-.11s0,.16-.15-.1-.14-.25-.21-.16-.07.06-.07-.12a1,1,0,0,0-.12-.43c-.11-.19-.14-.2-.2-.13a1.51,1.51,0,0,1-.23.21c-.15.11-.16.11-.12,0s0-.12-.26.26c-.14.17-.26.29-.27.27a2.2,2.2,0,0,1-.06-.37,2.09,2.09,0,0,0-.11-.43.94.94,0,0,1-.1-.28c0-.16,0-.17-.49-.29s-.56-.19-.37-.24-.17,0-.49-.1a2.29,2.29,0,0,1-.58-.11,13.8,13.8,0,0,1,2-.3,35.6,35.6,0,0,1,7,.12c.19,0,.18,0-.23.17a1.23,1.23,0,0,0-.4.19,1.34,1.34,0,0,1-.29.18.59.59,0,0,0-.36.39c-.07.21-.12.32-.16.22s-.08.1-.11.36-.06.31-.1.47a1.81,1.81,0,0,1-.46-.32c-.32-.26-.43-.34-.39-.25s0,.15-.23,0a1.13,1.13,0,0,0-.22-.11c-.11,0-.11.23,0,.79a4.1,4.1,0,0,1,.11.61,2.3,2.3,0,0,1-.25-.43l-.22-.45-.11.16-.11.15v-.12c0-.24-.41.54-.61,1.38-.11.41-.2.83-.21.92s0,.13-.13-.13Zm-10.32-1.08a6.59,6.59,0,0,1-1.87-.36c-.28-.14-.31-.16-.22-.2s.08,0,0,0-.3-.08-.3-.17a.59.59,0,0,1,.29-.07c.46-.06.46-.12,0-.16s-.64-.11-1.14-.64a6.12,6.12,0,0,1-1.4-2.28c-.13-.42-.09-.57.07-.27a8,8,0,0,0,1.31,1.53,7.41,7.41,0,0,0,2.6,1.38,5.35,5.35,0,0,1,2.09,1.08c.46.43.59.41-1.5.14Zm21.06-.15a9.68,9.68,0,0,1,3.15-1.87,19.06,19.06,0,0,0,3.6-1.9c.89-.51-1.34,1.71-1.66,2a6.79,6.79,0,0,1-.85.54c-.49.24-.59.32-.22.17s.32,0,0,.19c-.86.58-.7.53-2.39.81l-1.66.27c-.15,0-.13-.06,0-.17Z"/>
      <path id="ee5be055-513b-447c-80fb-3ffc674ee466" data-name="f38f5316-a64f-4d3f-b0c0-8dadeae6bac6" class="b83f937d-49f8-449c-aca3-a36d6b3591e9" d="M171.69,155.78v-4.36h-3.25v-2.11h9.9v2.11h-4.17v2.1a8.63,8.63,0,0,0,0,1.76,4.2,4.2,0,0,1,1.67-2.9,4.7,4.7,0,0,1,1.44-.61,5.15,5.15,0,0,1,2.21.09,3.87,3.87,0,0,1,2.6,2.82,4.36,4.36,0,0,1,.12,1.35,4.42,4.42,0,0,1-.12,1.35,3.78,3.78,0,0,1-1.84,2.45L180,160l-.34-.17a6.71,6.71,0,0,0-2.83-.51h-1.23c-.33,0-.33,0-.57-.34a4.77,4.77,0,0,1-.86-2.18v2.34h-.12a1.9,1.9,0,0,1-1-1l-.11-.2v.18a1,1,0,0,0-.09.6.38.38,0,0,1,0,.15s.14.37.28.72.27.65.27.67h-1.74Zm7.13,2.45a1.62,1.62,0,0,0,.76-.79,3.65,3.65,0,0,0,0-2.79,1.54,1.54,0,0,0-1.9-.76c-.94.4-1.35,2.05-.86,3.39a1.85,1.85,0,0,0,.92.95,1.61,1.61,0,0,0,1.06,0Zm27.13,1c.46-.81.55-1,.5-1s.11-.09,1.37-.09h1.44v2.09h-3.89ZM197,160c-.35-.07-2.51-.43-2.86-.46h-.34v-4.79c0-5.4,0-5.08.41-5.28.2-.09.43-.09,3.48-.09H201l-.31.34a2,2,0,0,1-.44.38c-.08,0-.11.06-.1.09a4.85,4.85,0,0,1-.55.65l-.58.6h-2.69v3.08h1.95a12.82,12.82,0,0,1,2,0s-.25.49-.56,1l-.55,1h-2.79v1.52h5.2v1.23h-.21l-.64.06a11.67,11.67,0,0,0-2.81.56,1.37,1.37,0,0,1-.85,0Zm-14.72-4c0-3.53,0-3.76.09-3.78a12.2,12.2,0,0,1,3.06-.42,3.81,3.81,0,0,1,2.46.58l.18.14.26-.16a4.23,4.23,0,0,1,2.28-.57,2.57,2.57,0,0,1,1.1.14,3.89,3.89,0,0,1,.66.29,2.68,2.68,0,0,1,1.12,1.54,16.21,16.21,0,0,1,.2,3.68v2.14h-.23l-1.23-.12-1-.1v-2.2a21.13,21.13,0,0,0-.08-2.39,1.15,1.15,0,0,0-.6-.71.94.94,0,0,0-.65-.13,2.23,2.23,0,0,0-.63.15l-.28.12.11.29c.11.27.11.38.13,2.54v2.26H187c-.09,0-.09-.16-.09-1.87,0-2,0-2.26-.25-2.76s-.75-.76-1.73-.73h-.24v2.77c0,2.57,0,2.76-.1,2.78l-.46.06-1.09.16-.73.13Zm19.22.36v-3l.4-.36.64-.57a13.82,13.82,0,0,0,2.33-2.32l.59-.77h2.27l-.17.19a4.16,4.16,0,0,1-.48.46c-.17.15-.56.51-.87.83l-.57.58H204V153l-.65.64-.65.66.6-.5c.33-.3.62-.54.65-.56a1.62,1.62,0,0,1,0,.62v.62h1.95c1.58,0,2,0,1.94.08a10.21,10.21,0,0,1-.57,1l-.54,1H204v1.52h.89a4.51,4.51,0,0,1,.9,0,2.24,2.24,0,0,1-.82.65,8.87,8.87,0,0,1-2.93.53h-.53Zm0-4v-1l.57-.5a10,10,0,0,0,.74-.71c.15-.2.17-.2.23-.12s.08.08.11-.14a.94.94,0,0,1,.19-.42l.14-.17h1.82l-.54.62a3.1,3.1,0,0,1-.76.73.26.26,0,0,0-.22.15,12.67,12.67,0,0,1-1.45,1.57l-.82.86Zm-2.22-1.23.47-.43a1,1,0,0,0,.24-.27h0a3,3,0,0,0,.54-.39,4.43,4.43,0,0,1,.54-.43,6.61,6.61,0,0,1,0,.89v.9H199l.25-.22Zm7-.21c.33-.37.41-.42.42-.32s.07,0,.27-.26.35-.48.54-.71l.29-.33h1v2.06h-2.93Zm-4.77-.49c0-.52,0-.65.09-.8a1.27,1.27,0,0,1,1.07-.33h.51l-.84.87-.83.87v-.62Z"/>
      <g id="bd9aef5d-a665-460b-b4d9-51e5064da9af" data-name="a7ed4bd4-7916-4d1d-a35a-56f1b6ba449f">
        <path id="ad792bf0-7079-47db-9ccf-bf6bf1a73d1e" data-name="64b9de2c-00ad-4f00-9c6e-3db924c71ae6" class="b83f937d-49f8-449c-aca3-a36d6b3591e9" d="M180,149.31h.15l.84,1.82h-.27l-.19-.39h-1l-.19.39h-.26Zm.42,1.23-.17-.38-.06-.15v-.15a.61.61,0,0,1,0-.19h0v.14l-.08.18-.07.14-.2.41Z"/>
        <path id="acd5dfee-719f-4647-8498-c44c9e804f7f" data-name="5e70a76a-6092-4981-b9f2-ed713ed30753" class="b83f937d-49f8-449c-aca3-a36d6b3591e9" d="M181.76,149.31h.76a1.09,1.09,0,0,1,.61.16.59.59,0,0,1,.25.52.66.66,0,0,1-.26.55,1.13,1.13,0,0,1-.64.2H182v.39h-.24Zm.76,1.23a.65.65,0,0,0,.44-.14.46.46,0,0,0,.17-.38.4.4,0,0,0-.18-.36.83.83,0,0,0-.46-.12H182v1Z"/>
        <path id="fe5a3a45-f0f1-46ff-bdd7-5ce215a74c3c" data-name="b453141c-787d-4815-88d6-7c93bf08dcd6" class="b83f937d-49f8-449c-aca3-a36d6b3591e9" d="M184.94,149.31h.14l.84,1.82h-.27l-.19-.39h-1l-.2.39h-.26Zm.41,1.23-.17-.38-.06-.15v-.34h0v.14l-.07.18-.08.14-.19.41Z"/>
        <path id="bed7c11e-689a-46b5-aa71-5e7756ad22c5" data-name="489f9fb7-2be1-43a1-aa34-7a0da8d85b4d" class="b83f937d-49f8-449c-aca3-a36d6b3591e9" d="M188.13,149.69a.62.62,0,0,0-.48-.18.76.76,0,0,0-.54.19.63.63,0,0,0-.22.51.68.68,0,0,0,.23.53.78.78,0,0,0,.56.2,1,1,0,0,0,.5-.08l.09.17a1.49,1.49,0,0,1-1,0,1.06,1.06,0,0,1-.33-.18,1.29,1.29,0,0,1-.22-.3.81.81,0,0,1-.08-.34.76.76,0,0,1,0-.3.7.7,0,0,1,.11-.23.79.79,0,0,1,.17-.2,1.1,1.1,0,0,1,.21-.14,1.13,1.13,0,0,1,.54-.13.84.84,0,0,1,.57.21Z"/>
        <path id="a576ce63-ef45-4b1f-9106-f1eb7266c4b4" data-name="4a0bee07-0eae-4195-af47-5058a6f8d6cd" class="b83f937d-49f8-449c-aca3-a36d6b3591e9" d="M189.19,149.31h.25v1h1.23v-1h.24v1.82h-.24v-.62h-1.23v.62h-.25Z"/>
        <path id="e736374b-3f1d-485e-a113-8908c0600f13" data-name="535da1f5-bdaf-4a7e-af65-593e96026a42" class="b83f937d-49f8-449c-aca3-a36d6b3591e9" d="M191.87,149.31h1.44v.22h-1.23v.92h.85l-.12.22h-.73v.25h1.23v.22h-1.44Z"/>
      </g>
    </g>
  </g>
  <g>
    <path class="b2601fb4-85df-4a59-9ed3-c444efa70992" d="M128.26,156.34h-.38a5.55,5.55,0,0,0,.71-1.42,1.79,1.79,0,0,0-.76-1.88h.06a1.68,1.68,0,0,0,1.68-1.68V149.3a1.68,1.68,0,0,0-1.68-1.68h-6.33a3.28,3.28,0,0,0-1,.12,1.51,1.51,0,0,0-.63-.13h-3.27a19,19,0,0,0-3.84.12,1.63,1.63,0,0,0-.59-.11h-1.37a1.53,1.53,0,0,1-1,0h-.25a1.74,1.74,0,0,1-1.23,0h-.24a1.51,1.51,0,0,0-.63.13,2.72,2.72,0,0,0-2.18.14l-.22.13a1.71,1.71,0,0,0-1.1-.4h-.14a1.69,1.69,0,0,0-1,.34,2.81,2.81,0,0,0-1.39-.34h-.76a1.6,1.6,0,0,0-.8.22,1.61,1.61,0,0,0-.81-.22H99a1.62,1.62,0,0,0-.83.23,1.54,1.54,0,0,0-.83-.24H87.39a1.68,1.68,0,0,0-1.68,1.68v2.11a1.68,1.68,0,0,0,1.68,1.68H89v7.07a1.68,1.68,0,0,0,1.68,1.68h1.41c.1.12.21.26.32.37a6.1,6.1,0,0,0,.59.55,1.77,1.77,0,0,0,.7.71,2.52,2.52,0,0,0,.63.38,4.47,4.47,0,0,0,1.3.35,1.52,1.52,0,0,0-.74,1.33,1.71,1.71,0,0,0,1.71,1.74,4.65,4.65,0,0,0,1.1-.1,4.51,4.51,0,0,0,.75,1,3.79,3.79,0,0,0,2.1,1.09,1.61,1.61,0,0,0,.46.81,1.64,1.64,0,0,0,1.22.49h.21v.08H92.05c-4.08.17-4.28.24-4.79.79a3.4,3.4,0,0,0,.41,3.42,1.62,1.62,0,0,0-.81,1.53,1.7,1.7,0,0,0,1.7,1.57H89a36.34,36.34,0,0,0,6-1.23c2.54-.63,4.16-1,5.33-1.22a3.2,3.2,0,0,0,1.45,1.22A2.71,2.71,0,0,0,103,177a6.44,6.44,0,0,0,.25.74h0a5.11,5.11,0,0,0,.16.66,3,3,0,0,0,.54,1.49,1.61,1.61,0,0,0,1.23,1.12,1.67,1.67,0,0,0,1.16.46h.26a1.68,1.68,0,0,0,.85.22,2,2,0,0,0,.54-.08,1.61,1.61,0,0,0,.63-.4h.12a1.76,1.76,0,0,0,1.75-1.63s.12-.4.28-.81a13.14,13.14,0,0,0,.49-1.5l.08-.31.78-.2a8.67,8.67,0,0,0,1.23-.36,3.16,3.16,0,0,0,1.37-1.16c1.23.13,3.13.41,4.91.75,4.14.74,5.56,1,6.93,1.1l.63.07h.35a1.76,1.76,0,0,0,1.61-1.08,1.71,1.71,0,0,0-.45-1.86,1.75,1.75,0,0,0-.94-.44,1.51,1.51,0,0,0,.13-.41,1.66,1.66,0,0,0,.65-.76,1.68,1.68,0,0,0-.36-1.83c-.48-.48-.83-.5-2.46-.6-.87,0-2.27-.07-3.29-.07-2.22,0-4.91,0-6.93.14h-.67a1.61,1.61,0,0,0,.48-1.3,3.88,3.88,0,0,0,2.36-2c.58.06,1,.1,1.14.1h.35a1.69,1.69,0,0,0,1.36-1.59,1.58,1.58,0,0,0-.28-1l.74-.69a4,4,0,0,0,1.84-.79l.14-.09a2.81,2.81,0,0,0,.66-.58,4.78,4.78,0,0,0,.59-.41l.21-.19h3.93A1.68,1.68,0,0,0,130,160v-2.11A1.69,1.69,0,0,0,128.26,156.34Zm-3.91,5.16"/>
    <g id="b0c45a66-eb24-455a-8640-8819ee67e84f" data-name="843a5aa4-2814-412b-8703-323ea1b94520">
      <path id="e9375959-e2bb-4108-967a-000a98f88cc2" data-name="089591c7-52d9-4e2d-841a-f348ac4293c8" class="b45e39ac-eebe-415a-b4f2-cfdeeb535c78" d="M107.25,179.79c-.07-.38-.1-.4-.18-.13s-.16.24-.29,0l-.11-.25-.18.28a1.18,1.18,0,0,1-.22.28.72.72,0,0,1-.08-.32c0-.47-.08-.49-.39-.29a1.29,1.29,0,0,1-.33.17,1.57,1.57,0,0,1-.06-.5v-.47l-.11.23a.26.26,0,0,1-.12.22,5.39,5.39,0,0,1-.19-.77c-.08-.42-.17-.76-.18-.79s-.42-1.69-.4-1.71a2.26,2.26,0,0,1,.32.54c.19.35.4.69.63,1a2.28,2.28,0,0,1,.5,1.22c0,.11,0,.11.09,0s.08-.09.37,0a1.19,1.19,0,0,0,.35.15.67.67,0,0,1,.15.21l.09.21V179a.15.15,0,0,1,.17-.15,2.09,2.09,0,0,0,.49-.13c.45-.16.44-.16.49,0s0,.08.1-.12a.49.49,0,0,1,.22-.34c.27-.15.39-.17.42-.06s0,.08,0,0a.83.83,0,0,1,.19-.34,3.16,3.16,0,0,0,.51-1.47,3.17,3.17,0,0,1,.17-.69,5.07,5.07,0,0,1-.19,1.45,12.19,12.19,0,0,1-.43,1.29,9.23,9.23,0,0,0-.35,1.05.82.82,0,0,1-.11.31.76.76,0,0,1-.11-.33l-.08-.33-.24.36c-.24.35-.25.36-.32.26a.7.7,0,0,1-.11-.23c0-.11,0,0-.2.29a1.6,1.6,0,0,1-.23.45,1.09,1.09,0,0,1-.14-.34Zm-.38-2.34-.8-.08-.55-.06-.33-.91-.33-.91h-1c-.94,0-1,0-1.31-.15a1.52,1.52,0,0,1-.71-.64,2.58,2.58,0,0,1-.24-.85c0-.14,0-.15-.17-.13l-.77.11c-1.23.19-3,.57-6,1.3a36.17,36.17,0,0,1-5.72,1.13h-.14A41,41,0,0,0,94.68,175a45.57,45.57,0,0,1,6-1.33l.85-.11a.38.38,0,0,0,0-.21v-.21h-1.34c-3.37.09-10,.42-11.18.56h-.16s.84-.12,4.3-.39c2.92-.23,4.71-.33,6.69-.36h1.74v-.22a1,1,0,0,0,0-.24l-4.51-.08c-4.28-.06-6.87,0-8.28.08h-.34s2-.18,3.68-.26,7.13-.07,9.12,0h2c.8,0,.42.1-.57.15s-.93,0-.93.38v.13h1.23a6.32,6.32,0,0,1,1.23,0,7.36,7.36,0,0,1-1.69.11c-.52,0-.68,0-.67.07v.34h1c1.13,0,1.12.08,0,.13h-.92l.1.2a2.08,2.08,0,0,0,.86.78,3,3,0,0,0,2,0,4.66,4.66,0,0,0,.73-.3l.38-.25c.19-.13.38-.27.56-.42l.25-.21-.42-.28a2,2,0,0,1-.39-.32h.59l-.49-.19-.49-.18-.75-1a5.64,5.64,0,0,1-.7-1,4.8,4.8,0,0,0,.24-.82l.2-.79-.27-.26-.27-.25-.9.23a6.92,6.92,0,0,1-.92.22,11.19,11.19,0,0,1,1.17-.65,1.56,1.56,0,0,0,.28-.16.51.51,0,0,0-.16-.13c-.13-.1-.28-.13-1.15-.18-1.62-.08-2.14-.24-2.69-.78a3,3,0,0,1-.71-1.39c-.06-.29-.07-.3-.21-.28s-2.06.26-2.12.23a6.54,6.54,0,0,1,1-.3l1.35-.38.32-.1h-.68c-.9,0-1-.14-.21-.15h1.65l1,.39,1.08.4a2.24,2.24,0,0,0,.33-.43l.28-.43-.12-.46c-.06-.24-.26-.81-.42-1.22a6.18,6.18,0,0,1-.27-.83s.39.59.85,1.35l.82,1.38v1.22l.6.23c.48.18.6.2.58.13a12.38,12.38,0,0,1-.46-1.61,4.34,4.34,0,0,1,.7.84l.68.91.45.19.46.2h-.6a4.24,4.24,0,0,0,.65.28.35.35,0,1,1,.53.47.35.35,0,0,1-.5,0,.37.37,0,0,1-.12-.24h-.72l-.26.46-.25.45-.08,1.36a12.19,12.19,0,0,1-.08,1.37l1,.41,1,.39,1.45-.32,1.44-.32v-3l-.19-.42-.2-.42H108c.24-.1.48-.19.73-.27l.68-.22.72-.94a5.75,5.75,0,0,1,.74-.88,6.11,6.11,0,0,1-.17.74l-.19.69.43-.15.43-.14V165l.83-1.15,1-1.34c.26-.34.19-.13-.16.43a9.46,9.46,0,0,0-.83,1.69c0,.15,0,.2.37.56l.4.39,1.45-.49,1.45-.49,1.12.07a6.12,6.12,0,0,1,1,.11l-.92.11-.84.07,1.38.39a9.71,9.71,0,0,1,1.23.39,6.52,6.52,0,0,1-1.06-.1l-1.09-.12c-.11,0-.14,0-.26.44a2.45,2.45,0,0,1-2,1.86c-.21,0-.82.1-1.39.14-1,0-1,0-1.23.21l-.17.15,1,.56a8.25,8.25,0,0,1,.94.59s-.52-.14-1.14-.33l-1.22-.36a1.28,1.28,0,0,0-.35.26l-.27.26.14.87c.12.77.14.88.24.89s-.12.21-.78.78c-.87.73-.91.76-1.4.93l-.51.17H109l-.51.3a4.59,4.59,0,0,0-.52.33,3.05,3.05,0,0,0,.88.69,5.64,5.64,0,0,0,1.91.66,2.45,2.45,0,0,0,2.08-.62c.26-.27.39-.51.33-.57a4.43,4.43,0,0,0-.72-.09l-.7-.06a4.16,4.16,0,0,1,1.22-.06c.36,0,.37,0,.41-.09v-.18a2.45,2.45,0,0,0-.85-.1c-.93,0-1.46-.13-.82-.13h1.73v0h3.29c3.44,0,6,.08,8.48.29,1,.09,1.14.1.54.07l-2.11-.07H113.45v.36l.88.06a57.24,57.24,0,0,1,7.25,1.14c2.46.49,4.15.77,5.13.87a3.58,3.58,0,0,1,.73.11h-.11l-.76-.08c-1.3-.13-2.73-.36-6.79-1.08a35.82,35.82,0,0,0-6.33-1,1.29,1.29,0,0,0-.08.28,1.42,1.42,0,0,1-.84,1.07,7,7,0,0,1-.87.24l-.9.23a1.94,1.94,0,0,1-.76,0h-.48l-.12.67c-.24,1.23-.21,1.23-.43,1.23a13.79,13.79,0,0,1-2.13.07Zm1.85-.27c.31-.08.31-.09.35-.32a1.62,1.62,0,0,0,0-.44v0c-.09.56-.41.69-1.66.69a2.1,2.1,0,0,1-1-.11,1.21,1.21,0,0,0-.32-.11c-.1,0-.28-.22-.38-.43l-.08-.19v.22c0,.49,0,.53.43.62a5.57,5.57,0,0,0,1.68.14,3.72,3.72,0,0,0,.94-.06Zm-2.87-2.67a.42.42,0,0,1,.23.1c.14.09.35.16.45,0s.18,0,.28.13l.1.2.17-.2a.86.86,0,0,1,.19-.19.78.78,0,0,1,.16.24l.13.25.17-.22.17-.23.15.2.14.2.35-.11.33-.19.07.15a2,2,0,0,1,.1.54c0,.22,0,.38.07.37a2.89,2.89,0,0,0,.21-1v-.2l-.41-.1a8.78,8.78,0,0,0-2.61,0,6.1,6.1,0,0,0-.72.14c-.12.07-.12.52,0,1l.1.37.08-.63a2.69,2.69,0,0,1,.11-.7Zm-2.77-7.12a2.42,2.42,0,0,0,.79-.77,3.21,3.21,0,0,0,.19-.31s-.51-.2-1.11-.39c-.87-.3-1.13-.36-1.22-.31a1,1,0,0,0-.29.66v.3l-.07-.16a1.8,1.8,0,0,1-.11-.89v-.16l-.66-.22c-.25-.08-.5-.16-.75-.22a.53.53,0,0,0-.15.3,1.48,1.48,0,0,0,.64,1.54,2.49,2.49,0,0,0,1,.61,2.4,2.4,0,0,0,1.67,0Zm10.72,0a2.32,2.32,0,0,0,1.23-.66,1.45,1.45,0,0,0,.58-1.6c0-.19-.08-.21-.24-.18a5.75,5.75,0,0,0-.66.23l-.5.2v.28a1.73,1.73,0,0,1-.28.88c-.09,0,0-.11,0-.25,0-.35-.2-.75-.36-.73s-2.21.66-2.25.7a.79.79,0,0,0,.1.27,2.51,2.51,0,0,0,1,.91,2.59,2.59,0,0,0,1.46,0ZM112,172.3c-.29,0,.23-.09,3.52-.23,3.51-.16,8.3-.2,10-.09a6.29,6.29,0,0,1,1.35.12,2.71,2.71,0,0,1-.57,0c-1-.08-4.68,0-7.16.09s-6.77.18-7.17.11Zm-4.48-4.17a8.05,8.05,0,0,1,0-2.77l.14-1.05v1.79a16.06,16.06,0,0,1-.06,2.09v.29Zm-.27-4.43a.65.65,0,0,1,0-.51,1.62,1.62,0,0,0-.1-.59,2,2,0,0,1-.16-.49V162a.72.72,0,0,1-.18-.25c-.08-.15-.14-.26-.14-.11s0,.16-.15-.1-.14-.25-.21-.16-.07.06-.07-.12a1,1,0,0,0-.12-.43c-.11-.19-.14-.2-.2-.13a1.51,1.51,0,0,1-.23.21c-.15.11-.16.11-.12,0s0-.12-.26.26c-.14.17-.26.29-.27.27a2.2,2.2,0,0,1-.06-.37,2.09,2.09,0,0,0-.11-.43.94.94,0,0,1-.1-.28c0-.16,0-.17-.49-.29s-.56-.19-.37-.24-.17,0-.49-.1a2.29,2.29,0,0,1-.58-.11,13.8,13.8,0,0,1,2-.3,35.6,35.6,0,0,1,7,.12c.19,0,.18,0-.23.17a1.23,1.23,0,0,0-.4.19,1.34,1.34,0,0,1-.29.18.59.59,0,0,0-.36.39c-.07.21-.12.32-.16.22s-.08.1-.11.36-.06.31-.1.47a1.81,1.81,0,0,1-.46-.32c-.32-.26-.43-.34-.39-.25s0,.15-.23,0a1.13,1.13,0,0,0-.22-.11c-.11,0-.11.23,0,.79a4.1,4.1,0,0,1,.11.61,2.3,2.3,0,0,1-.25-.43l-.22-.45-.11.16-.11.15v-.12c0-.24-.41.54-.61,1.38-.11.41-.2.83-.21.92s0,.13-.13-.13Zm-10.32-1.08a6.59,6.59,0,0,1-1.87-.36c-.28-.14-.31-.16-.22-.2s.08,0,0,0-.3-.08-.3-.17a.59.59,0,0,1,.29-.07c.46-.06.46-.12,0-.16s-.64-.11-1.14-.64a6.12,6.12,0,0,1-1.4-2.28c-.13-.42-.09-.57.07-.27A8,8,0,0,0,93.66,160a7.41,7.41,0,0,0,2.6,1.38,5.35,5.35,0,0,1,2.09,1.08c.46.43.59.41-1.5.14Zm21.06-.15a9.68,9.68,0,0,1,3.15-1.87,19.06,19.06,0,0,0,3.6-1.9c.89-.51-1.34,1.71-1.66,2a6.79,6.79,0,0,1-.85.54c-.49.24-.59.32-.22.17s.32,0,0,.19c-.86.58-.7.53-2.39.81l-1.66.27c-.15,0-.13-.06,0-.17Z"/>
      <path id="af4dc25c-02e0-4817-9f03-3656a126d329" data-name="f38f5316-a64f-4d3f-b0c0-8dadeae6bac6" class="b83f937d-49f8-449c-aca3-a36d6b3591e9" d="M90.69,155.78v-4.36H87.44v-2.11h9.9v2.11H93.17v2.1a8.63,8.63,0,0,0,0,1.76,4.2,4.2,0,0,1,1.67-2.9,4.7,4.7,0,0,1,1.44-.61,5.15,5.15,0,0,1,2.21.09,3.87,3.87,0,0,1,2.6,2.82,4.36,4.36,0,0,1,.12,1.35,4.42,4.42,0,0,1-.12,1.35,3.78,3.78,0,0,1-1.84,2.45L99,160l-.34-.17a6.71,6.71,0,0,0-2.83-.51H94.61c-.33,0-.33,0-.57-.34a4.77,4.77,0,0,1-.86-2.18v2.34h-.12a1.9,1.9,0,0,1-1-1l-.11-.2v.18a1,1,0,0,0-.09.6.38.38,0,0,1,0,.15l.28.72c.15.36.27.65.27.67H90.68Zm7.13,2.45a1.62,1.62,0,0,0,.76-.79,3.65,3.65,0,0,0,0-2.79,1.54,1.54,0,0,0-1.9-.76c-.94.4-1.35,2.05-.86,3.39a1.85,1.85,0,0,0,.92.95,1.61,1.61,0,0,0,1.06,0Zm27.13,1c.46-.81.55-1,.5-1s.11-.09,1.37-.09h1.44v2.09h-3.89ZM116,160c-.35-.07-2.51-.43-2.86-.46h-.34v-4.79c0-5.4,0-5.08.41-5.28.2-.09.43-.09,3.48-.09H120l-.31.34a2,2,0,0,1-.44.38c-.08,0-.11.06-.1.09a4.85,4.85,0,0,1-.55.65l-.58.6h-2.69v3.08h2a12.82,12.82,0,0,1,2,0s-.25.49-.56,1l-.55,1h-2.79v1.52h5.2v1.23h-.21l-.64.06a11.67,11.67,0,0,0-2.81.56,1.37,1.37,0,0,1-.85,0Zm-14.72-4c0-3.53,0-3.76.09-3.78a12.2,12.2,0,0,1,3.06-.42,3.81,3.81,0,0,1,2.46.58l.18.14.26-.16a4.23,4.23,0,0,1,2.28-.57,2.57,2.57,0,0,1,1.1.14,3.89,3.89,0,0,1,.66.29,2.68,2.68,0,0,1,1.12,1.54,16.21,16.21,0,0,1,.2,3.68v2.14h-.23l-1.23-.12-1-.1v-2.2a21.13,21.13,0,0,0-.08-2.39,1.15,1.15,0,0,0-.6-.71.94.94,0,0,0-.65-.13,2.23,2.23,0,0,0-.63.15l-.28.12.11.29c.11.27.11.38.13,2.54v2.26H106c-.09,0-.09-.16-.09-1.87,0-2,0-2.26-.25-2.76s-.75-.76-1.73-.73h-.24v2.77c0,2.57,0,2.76-.1,2.78l-.46.06-1.09.16-.73.13Zm19.22.36v-3l.4-.36.64-.57a13.82,13.82,0,0,0,2.33-2.32l.59-.77h2.27l-.17.19a4.16,4.16,0,0,1-.48.46c-.17.15-.56.51-.87.83l-.57.58H123V153l-.65.64-.65.66.6-.5c.33-.3.62-.54.65-.56a1.62,1.62,0,0,1,0,.62v.62h2c1.58,0,2,0,1.94.08a10.21,10.21,0,0,1-.57,1l-.54,1H123v1.52h.89a4.51,4.51,0,0,1,.9,0,2.24,2.24,0,0,1-.82.65,8.87,8.87,0,0,1-2.93.53h-.53Zm0-4v-1l.57-.5a10,10,0,0,0,.74-.71c.15-.2.17-.2.23-.12s.08.08.11-.14a.94.94,0,0,1,.19-.42l.14-.17h1.82l-.54.62a3.1,3.1,0,0,1-.76.73.26.26,0,0,0-.22.15,12.67,12.67,0,0,1-1.45,1.57l-.82.86Zm-2.22-1.23.47-.43a1,1,0,0,0,.24-.27h0a3,3,0,0,0,.54-.39,4.43,4.43,0,0,1,.54-.43,6.61,6.61,0,0,1,0,.89v.9H118l.25-.22Zm7-.21c.33-.37.41-.42.42-.32s.07,0,.27-.26.35-.48.54-.71l.29-.33h1v2.06h-2.93Zm-4.77-.49c0-.52,0-.65.09-.8a1.27,1.27,0,0,1,1.07-.33h.51l-.84.87-.83.87v-.62Z"/>
      <g id="fd735c10-abed-48a6-a405-ed0a456056b7" data-name="a7ed4bd4-7916-4d1d-a35a-56f1b6ba449f">
        <path id="b24a6e75-39d9-44b5-a557-d662e0d08402" data-name="64b9de2c-00ad-4f00-9c6e-3db924c71ae6" class="b83f937d-49f8-449c-aca3-a36d6b3591e9" d="M99,149.31h.15l.84,1.82h-.27l-.19-.39h-1l-.19.39h-.26Zm.42,1.23-.17-.38L99.2,150v-.15a.61.61,0,0,1,0-.19h0v.14l-.08.18-.07.14-.2.41Z"/>
        <path id="fb2e958e-10cf-48c0-87ff-d5d9878e960e" data-name="5e70a76a-6092-4981-b9f2-ed713ed30753" class="b83f937d-49f8-449c-aca3-a36d6b3591e9" d="M100.76,149.31h.76a1.09,1.09,0,0,1,.61.16.59.59,0,0,1,.25.52.66.66,0,0,1-.26.55,1.13,1.13,0,0,1-.64.2H101v.39h-.24Zm.76,1.23a.65.65,0,0,0,.44-.14.46.46,0,0,0,.17-.38.4.4,0,0,0-.18-.36.83.83,0,0,0-.46-.12H101v1Z"/>
        <path id="a4cbe048-9472-42f2-b511-7eef1b262483" data-name="b453141c-787d-4815-88d6-7c93bf08dcd6" class="b83f937d-49f8-449c-aca3-a36d6b3591e9" d="M103.94,149.31h.14l.84,1.82h-.27l-.19-.39h-.95l-.2.39h-.26Zm.41,1.23-.17-.38-.06-.15v-.34h0v.14l-.07.18-.08.14-.19.41Z"/>
        <path id="a71d5b8d-cc61-4c27-bc9c-b3e87495652f" data-name="489f9fb7-2be1-43a1-aa34-7a0da8d85b4d" class="b83f937d-49f8-449c-aca3-a36d6b3591e9" d="M107.13,149.69a.62.62,0,0,0-.48-.18.76.76,0,0,0-.54.19.63.63,0,0,0-.22.51.68.68,0,0,0,.23.53.78.78,0,0,0,.56.2,1,1,0,0,0,.5-.08l.09.17a1.49,1.49,0,0,1-1,0,1.06,1.06,0,0,1-.33-.18,1.29,1.29,0,0,1-.22-.3.81.81,0,0,1-.08-.34.76.76,0,0,1,0-.3.7.7,0,0,1,.11-.23.79.79,0,0,1,.17-.2,1.1,1.1,0,0,1,.21-.14,1.13,1.13,0,0,1,.54-.13.84.84,0,0,1,.57.21Z"/>
        <path id="b2ed697a-d142-4570-b926-f71195fa74a0" data-name="4a0bee07-0eae-4195-af47-5058a6f8d6cd" class="b83f937d-49f8-449c-aca3-a36d6b3591e9" d="M108.19,149.31h.25v1h1.23v-1h.24v1.82h-.24v-.62h-1.23v.62h-.25Z"/>
        <path id="f12f1111-e189-4751-8ced-69ebce1a1d8a" data-name="535da1f5-bdaf-4a7e-af65-593e96026a42" class="b83f937d-49f8-449c-aca3-a36d6b3591e9" d="M110.87,149.31h1.44v.22h-1.23v.92h.85l-.12.22h-.73v.25h1.23v.22h-1.44Z"/>
      </g>
    </g>
  </g>
  <g>
    <path class="b2601fb4-85df-4a59-9ed3-c444efa70992" d="M48.26,156.34h-.38a5.55,5.55,0,0,0,.71-1.42,1.79,1.79,0,0,0-.76-1.88h.06a1.68,1.68,0,0,0,1.68-1.68V149.3a1.68,1.68,0,0,0-1.68-1.68H41.56a3.28,3.28,0,0,0-1,.12,1.51,1.51,0,0,0-.63-.13H36.67a19,19,0,0,0-3.84.12,1.63,1.63,0,0,0-.59-.11H30.87a1.53,1.53,0,0,1-1,0h-.25a1.74,1.74,0,0,1-1.23,0h-.24a1.51,1.51,0,0,0-.63.13,2.72,2.72,0,0,0-2.18.14l-.22.13a1.71,1.71,0,0,0-1.1-.4h-.14a1.69,1.69,0,0,0-1,.34,2.81,2.81,0,0,0-1.39-.34h-.76a1.6,1.6,0,0,0-.8.22,1.61,1.61,0,0,0-.81-.22H19a1.62,1.62,0,0,0-.83.23,1.54,1.54,0,0,0-.83-.24H7.39a1.68,1.68,0,0,0-1.68,1.68v2.11a1.68,1.68,0,0,0,1.68,1.68H9v7.07a1.68,1.68,0,0,0,1.68,1.68h1.41c.1.12.21.26.32.37a6.1,6.1,0,0,0,.59.55,1.77,1.77,0,0,0,.7.71,2.52,2.52,0,0,0,.63.38,4.47,4.47,0,0,0,1.3.35,1.52,1.52,0,0,0-.74,1.33,1.71,1.71,0,0,0,1.71,1.74,4.65,4.65,0,0,0,1.1-.1,4.51,4.51,0,0,0,.75,1,3.79,3.79,0,0,0,2.1,1.09,1.61,1.61,0,0,0,.46.81,1.64,1.64,0,0,0,1.22.49h.21v.08H12.05c-4.08.17-4.28.24-4.79.79a3.4,3.4,0,0,0,.41,3.42,1.62,1.62,0,0,0-.81,1.53A1.7,1.7,0,0,0,8.56,178H9a36.34,36.34,0,0,0,6-1.23c2.54-.63,4.16-1,5.33-1.22a3.2,3.2,0,0,0,1.45,1.22A2.71,2.71,0,0,0,23,177a6.44,6.44,0,0,0,.25.74h0a5.11,5.11,0,0,0,.16.66,3,3,0,0,0,.54,1.49A1.61,1.61,0,0,0,25.13,181a1.67,1.67,0,0,0,1.16.46h.26a1.68,1.68,0,0,0,.85.22,2,2,0,0,0,.54-.08,1.61,1.61,0,0,0,.63-.4h.12a1.76,1.76,0,0,0,1.75-1.63s.12-.4.28-.81a13.14,13.14,0,0,0,.49-1.5l.08-.31.78-.2a8.67,8.67,0,0,0,1.23-.36,3.16,3.16,0,0,0,1.37-1.16c1.23.13,3.13.41,4.91.75,4.14.74,5.56,1,6.93,1.1l.63.07h.35a1.76,1.76,0,0,0,1.61-1.08,1.71,1.71,0,0,0-.45-1.86,1.75,1.75,0,0,0-.94-.44,1.51,1.51,0,0,0,.13-.41,1.66,1.66,0,0,0,.65-.76,1.68,1.68,0,0,0-.36-1.83c-.48-.48-.83-.5-2.46-.6-.87,0-2.27-.07-3.29-.07-2.22,0-4.91,0-6.93.14h-.67a1.61,1.61,0,0,0,.48-1.3,3.88,3.88,0,0,0,2.36-2c.58.06,1,.1,1.14.1h.35a1.69,1.69,0,0,0,1.36-1.59,1.58,1.58,0,0,0-.28-1l.74-.69a4,4,0,0,0,1.84-.79l.14-.09a2.81,2.81,0,0,0,.66-.58,4.78,4.78,0,0,0,.59-.41l.21-.19H48.3A1.68,1.68,0,0,0,50,160v-2.11A1.69,1.69,0,0,0,48.26,156.34Zm-3.91,5.16"/>
    <g id="fecc0308-369a-4d57-a910-02a6d432a63e" data-name="843a5aa4-2814-412b-8703-323ea1b94520">
      <path id="fdc5e83a-3605-4fdf-a47e-03f6410d612e" data-name="089591c7-52d9-4e2d-841a-f348ac4293c8" class="b45e39ac-eebe-415a-b4f2-cfdeeb535c78" d="M27.25,179.79c-.07-.38-.1-.4-.18-.13s-.16.24-.29,0l-.11-.25-.18.28a1.18,1.18,0,0,1-.22.28.72.72,0,0,1-.08-.32c0-.47-.08-.49-.39-.29a1.29,1.29,0,0,1-.33.17,1.57,1.57,0,0,1-.06-.5v-.47l-.11.23a.26.26,0,0,1-.12.22,5.39,5.39,0,0,1-.19-.77c-.08-.42-.17-.76-.18-.79s-.42-1.69-.4-1.71a2.26,2.26,0,0,1,.32.54c.19.35.4.69.63,1a2.28,2.28,0,0,1,.5,1.22c0,.11,0,.11.09,0s.08-.09.37,0a1.19,1.19,0,0,0,.35.15.67.67,0,0,1,.15.21l.09.21V179a.15.15,0,0,1,.17-.15,2.09,2.09,0,0,0,.49-.13c.45-.16.44-.16.49,0s0,.08.1-.12a.49.49,0,0,1,.22-.34c.27-.15.39-.17.42-.06s0,.08,0,0a.83.83,0,0,1,.19-.34,3.16,3.16,0,0,0,.51-1.47,3.17,3.17,0,0,1,.17-.69,5.07,5.07,0,0,1-.19,1.45,12.19,12.19,0,0,1-.43,1.29,9.23,9.23,0,0,0-.35,1.05.82.82,0,0,1-.11.31.76.76,0,0,1-.11-.33l-.08-.33-.24.36c-.24.35-.25.36-.32.26a.7.7,0,0,1-.11-.23c0-.11,0,0-.2.29a1.6,1.6,0,0,1-.23.45,1.09,1.09,0,0,1-.14-.34Zm-.38-2.34-.8-.08-.55-.06-.33-.91-.33-.91H23.81c-.94,0-1,0-1.31-.15a1.52,1.52,0,0,1-.71-.64,2.58,2.58,0,0,1-.24-.85c0-.14,0-.15-.17-.13l-.77.11c-1.23.19-3,.57-6,1.3a36.17,36.17,0,0,1-5.72,1.13H8.75A41,41,0,0,0,14.68,175a45.57,45.57,0,0,1,6-1.33l.85-.11a.37.37,0,0,0,0-.21v-.21H20.19c-3.37.09-10,.42-11.18.56H8.85s.84-.12,4.3-.39c2.92-.23,4.71-.33,6.69-.36h1.74v-.22a1,1,0,0,0,0-.24l-4.51-.08c-4.28-.06-6.87,0-8.28.08H8.45s2-.18,3.68-.26,7.13-.07,9.12,0H23.2c.8,0,.42.1-.57.15s-.93,0-.93.38v.13h1.23a6.32,6.32,0,0,1,1.23,0,7.36,7.36,0,0,1-1.69.11c-.52,0-.68,0-.67.07v.34h1c1.13,0,1.12.08,0,.13h-.92l.1.2a2.08,2.08,0,0,0,.86.78,3,3,0,0,0,2,0,4.66,4.66,0,0,0,.73-.3l.38-.25c.19-.13.38-.27.56-.42l.25-.21-.42-.28a2,2,0,0,1-.39-.32h.59l-.49-.19-.49-.18-.75-1a5.64,5.64,0,0,1-.7-1,4.8,4.8,0,0,0,.24-.82l.2-.79-.27-.26-.27-.25-.9.23a6.92,6.92,0,0,1-.92.22,11.19,11.19,0,0,1,1.17-.65,1.56,1.56,0,0,0,.28-.16.51.51,0,0,0-.16-.13c-.13-.1-.28-.13-1.15-.18-1.62-.08-2.14-.24-2.69-.78a3,3,0,0,1-.71-1.39c-.06-.29-.07-.3-.21-.28s-2.06.26-2.12.23a6.54,6.54,0,0,1,.95-.3l1.35-.38.32-.1h-.68c-.9,0-1-.14-.21-.15h1.65l1.05.39,1.08.4a2.24,2.24,0,0,0,.33-.43l.28-.43-.12-.46c-.06-.24-.26-.81-.42-1.22a6.18,6.18,0,0,1-.27-.83s.39.59.85,1.35l.82,1.38v1.22l.6.23c.48.18.6.2.58.13a12.38,12.38,0,0,1-.46-1.61,4.34,4.34,0,0,1,.7.84l.68.91.45.19.46.2h-.6a4.24,4.24,0,0,0,.65.28.35.35,0,1,1,.53.47.35.35,0,0,1-.5,0,.37.37,0,0,1-.12-.24h-.72l-.26.46-.25.45-.08,1.36a12.19,12.19,0,0,1-.08,1.37l1.05.41,1,.39,1.45-.32,1.44-.32v-3l-.19-.42-.2-.42H28c.24-.1.48-.19.73-.27l.68-.22.72-.94a5.75,5.75,0,0,1,.74-.88,6.11,6.11,0,0,1-.17.74l-.19.69.43-.15.43-.14V165l.83-1.15.95-1.34c.26-.34.19-.13-.16.43a9.46,9.46,0,0,0-.83,1.69c0,.15,0,.2.37.56l.4.39,1.45-.49,1.45-.49,1.12.07a6.12,6.12,0,0,1,1,.11l-.92.11-.84.07,1.38.39a9.71,9.71,0,0,1,1.23.39,6.52,6.52,0,0,1-1.06-.1l-1.09-.12c-.11,0-.14,0-.26.44a2.45,2.45,0,0,1-2,1.86c-.21,0-.82.1-1.39.14-1,0-1,0-1.23.21l-.17.15,1,.56a8.25,8.25,0,0,1,.94.59s-.52-.14-1.14-.33l-1.22-.36a1.28,1.28,0,0,0-.35.26l-.27.26.14.87c.12.77.14.88.24.89s-.12.21-.78.78c-.87.73-.91.76-1.4.93l-.51.17H29l-.51.3a4.59,4.59,0,0,0-.52.33,3.05,3.05,0,0,0,.88.69,5.64,5.64,0,0,0,1.91.66,2.45,2.45,0,0,0,2.08-.62c.26-.27.39-.51.33-.57a4.43,4.43,0,0,0-.72-.09l-.7-.06a4.16,4.16,0,0,1,1.22-.06c.36,0,.37,0,.41-.09v-.18a2.45,2.45,0,0,0-.85-.1c-.93,0-1.46-.13-.82-.13h1.73v0h3.29c3.44,0,6,.08,8.48.29,1,.09,1.14.1.54.07l-2.11-.07H33.45v.36l.88.06a57.24,57.24,0,0,1,7.25,1.14c2.46.49,4.15.77,5.13.87a3.58,3.58,0,0,1,.73.11h-.11l-.76-.08c-1.3-.13-2.73-.36-6.79-1.08a35.82,35.82,0,0,0-6.33-1,1.29,1.29,0,0,0-.08.28,1.42,1.42,0,0,1-.84,1.07,7,7,0,0,1-.87.24l-.9.23a1.94,1.94,0,0,1-.76,0h-.48l-.12.67c-.24,1.23-.21,1.23-.43,1.23a13.79,13.79,0,0,1-2.13.07Zm1.85-.27c.31-.08.31-.09.35-.32a1.62,1.62,0,0,0,0-.44v0c-.09.56-.41.69-1.66.69a2.1,2.1,0,0,1-1-.11,1.21,1.21,0,0,0-.32-.11c-.1,0-.28-.22-.38-.43l-.08-.19v.22c0,.49,0,.53.43.62a5.57,5.57,0,0,0,1.68.14,3.72,3.72,0,0,0,.94-.06Zm-2.87-2.67a.42.42,0,0,1,.23.1c.14.09.35.16.45,0s.18,0,.28.13l.1.2.17-.2a.86.86,0,0,1,.19-.19.78.78,0,0,1,.16.24l.13.25.17-.22.17-.23.15.2.14.2.35-.11.33-.19.07.15a2,2,0,0,1,.1.54c0,.22,0,.38.07.37a2.89,2.89,0,0,0,.21-1v-.2l-.41-.1a8.78,8.78,0,0,0-2.61,0,6.1,6.1,0,0,0-.72.14c-.12.07-.12.52,0,1l.1.37.08-.63a2.69,2.69,0,0,1,.11-.7Zm-2.77-7.12a2.42,2.42,0,0,0,.79-.77,3.21,3.21,0,0,0,.19-.31s-.51-.2-1.11-.39c-.87-.3-1.13-.36-1.22-.31a1,1,0,0,0-.29.66v.3l-.07-.16a1.8,1.8,0,0,1-.11-.89v-.16l-.66-.22c-.25-.08-.5-.16-.75-.22a.53.53,0,0,0-.15.3,1.48,1.48,0,0,0,.64,1.54,2.49,2.49,0,0,0,1,.61,2.4,2.4,0,0,0,1.67,0Zm10.72,0a2.32,2.32,0,0,0,1.23-.66,1.45,1.45,0,0,0,.58-1.6c0-.19-.08-.21-.24-.18a5.75,5.75,0,0,0-.66.23l-.5.2v.28a1.73,1.73,0,0,1-.28.88c-.09,0,0-.11,0-.25,0-.35-.2-.75-.36-.73s-2.21.66-2.25.7a.79.79,0,0,0,.1.27,2.51,2.51,0,0,0,1,.91,2.59,2.59,0,0,0,1.46,0ZM32,172.3c-.29,0,.23-.09,3.52-.23,3.51-.16,8.3-.2,10-.09a6.29,6.29,0,0,1,1.35.12,2.71,2.71,0,0,1-.57,0c-1-.08-4.68,0-7.16.09s-6.77.18-7.17.11Zm-4.48-4.17a8.05,8.05,0,0,1,0-2.77l.14-1.05v1.79a16.06,16.06,0,0,1-.06,2.09v.29Zm-.27-4.43a.65.65,0,0,1,0-.51,1.62,1.62,0,0,0-.1-.59,2,2,0,0,1-.16-.49V162a.72.72,0,0,1-.18-.25c-.08-.15-.14-.26-.14-.11s0,.16-.15-.1-.14-.25-.21-.16-.07.06-.07-.12a1,1,0,0,0-.12-.43c-.11-.19-.14-.2-.2-.13a1.51,1.51,0,0,1-.23.21c-.15.11-.16.11-.12,0s0-.12-.26.26c-.14.17-.26.29-.27.27a2.2,2.2,0,0,1-.06-.37,2.09,2.09,0,0,0-.11-.43.94.94,0,0,1-.1-.28c0-.16,0-.17-.49-.29s-.56-.19-.37-.24-.17,0-.49-.1a2.29,2.29,0,0,1-.58-.11,13.8,13.8,0,0,1,2-.3,35.6,35.6,0,0,1,7,.12c.19,0,.18,0-.23.17a1.23,1.23,0,0,0-.4.19,1.34,1.34,0,0,1-.29.18.59.59,0,0,0-.36.39c-.07.21-.12.32-.16.22s-.08.1-.11.36-.06.31-.1.47a1.81,1.81,0,0,1-.46-.32c-.32-.26-.43-.34-.39-.25s0,.15-.23,0a1.13,1.13,0,0,0-.22-.11c-.11,0-.11.23,0,.79a4.1,4.1,0,0,1,.11.61,2.3,2.3,0,0,1-.25-.43l-.22-.45-.11.16-.11.15v-.12c0-.24-.41.54-.61,1.38-.11.41-.2.83-.21.92s0,.13-.13-.13Zm-10.32-1.08a6.59,6.59,0,0,1-1.87-.36c-.28-.14-.31-.16-.22-.2s.08,0,0,0-.3-.08-.3-.17a.59.59,0,0,1,.29-.07c.46-.06.46-.12,0-.16s-.64-.11-1.14-.64a6.12,6.12,0,0,1-1.4-2.28c-.13-.42-.09-.57.07-.27A8,8,0,0,0,13.66,160a7.41,7.41,0,0,0,2.6,1.38,5.35,5.35,0,0,1,2.09,1.08c.46.43.59.41-1.5.14ZM38,162.47a9.68,9.68,0,0,1,3.15-1.87,19.06,19.06,0,0,0,3.6-1.9c.89-.51-1.34,1.71-1.66,2a6.79,6.79,0,0,1-.85.54c-.49.24-.59.32-.22.17s.32,0,0,.19c-.86.58-.7.53-2.39.81l-1.66.27c-.15,0-.13-.06,0-.17Z"/>
      <path id="f44d03ca-8e4f-44c7-b074-a033711cdb77" data-name="f38f5316-a64f-4d3f-b0c0-8dadeae6bac6" class="b83f937d-49f8-449c-aca3-a36d6b3591e9" d="M10.69,155.78v-4.36H7.44v-2.11h9.9v2.11H13.17v2.1a8.63,8.63,0,0,0,0,1.76,4.2,4.2,0,0,1,1.67-2.9,4.7,4.7,0,0,1,1.44-.61,5.15,5.15,0,0,1,2.21.09,3.87,3.87,0,0,1,2.6,2.82,4.36,4.36,0,0,1,.12,1.35,4.42,4.42,0,0,1-.12,1.35,3.78,3.78,0,0,1-1.84,2.45L19,160l-.34-.17a6.71,6.71,0,0,0-2.83-.51H14.61c-.33,0-.33,0-.57-.34a4.77,4.77,0,0,1-.86-2.18v2.34h-.12a1.9,1.9,0,0,1-1-1l-.11-.2v.18a1,1,0,0,0-.09.6.38.38,0,0,1,0,.15l.28.72c.15.36.27.65.27.67H10.68Zm7.13,2.45a1.62,1.62,0,0,0,.76-.79,3.65,3.65,0,0,0,0-2.79,1.54,1.54,0,0,0-1.9-.76c-.94.4-1.35,2.05-.86,3.39a1.85,1.85,0,0,0,.92.95,1.61,1.61,0,0,0,1.06,0Zm27.13,1c.46-.81.55-1,.5-1s.11-.09,1.37-.09h1.44v2.09H44.37ZM36,160c-.35-.07-2.51-.43-2.86-.46h-.34v-4.79c0-5.4,0-5.08.41-5.28.2-.09.43-.09,3.48-.09H40l-.31.34a2,2,0,0,1-.44.38c-.08,0-.11.06-.1.09a4.85,4.85,0,0,1-.55.65l-.58.6H35.31v3.08h1.95a12.82,12.82,0,0,1,2,0s-.25.49-.56,1l-.55,1H35.32v1.52h5.2v1.23h-.21l-.64.06a11.67,11.67,0,0,0-2.81.56,1.37,1.37,0,0,1-.85,0ZM21.3,156c0-3.53,0-3.76.09-3.78a12.2,12.2,0,0,1,3.06-.42,3.81,3.81,0,0,1,2.46.58l.18.14.26-.16a4.23,4.23,0,0,1,2.28-.57,2.57,2.57,0,0,1,1.1.14,3.89,3.89,0,0,1,.66.29,2.68,2.68,0,0,1,1.12,1.54,16.21,16.21,0,0,1,.2,3.68v2.14h-.23l-1.23-.12-1-.1v-2.2a21.13,21.13,0,0,0-.08-2.39,1.15,1.15,0,0,0-.6-.71.94.94,0,0,0-.65-.13,2.23,2.23,0,0,0-.63.15l-.28.12.11.29c.11.27.11.38.13,2.54v2.26H26c-.09,0-.09-.16-.09-1.87,0-2,0-2.26-.25-2.76s-.75-.76-1.73-.73h-.24v2.77c0,2.57,0,2.76-.1,2.78l-.46.06-1.09.16-.73.13Zm19.22.36v-3l.4-.36.64-.57a13.82,13.82,0,0,0,2.33-2.32l.59-.77h2.27l-.17.19a4.16,4.16,0,0,1-.48.46c-.17.15-.56.51-.87.83l-.57.58H43V153l-.65.64-.65.66.6-.5c.33-.3.62-.54.65-.56a1.62,1.62,0,0,1,0,.62v.62h1.95c1.58,0,2,0,1.94.08a10.21,10.21,0,0,1-.57,1l-.54,1H43v1.52h.89a4.51,4.51,0,0,1,.9,0,2.24,2.24,0,0,1-.82.65,8.87,8.87,0,0,1-2.93.53h-.53Zm0-4v-1l.57-.5a10,10,0,0,0,.74-.71c.15-.2.17-.2.23-.12s.08.08.11-.14a.94.94,0,0,1,.19-.42l.14-.17h1.82l-.54.62a3.1,3.1,0,0,1-.76.73.26.26,0,0,0-.22.15,12.67,12.67,0,0,1-1.45,1.57l-.82.86Zm-2.22-1.23.47-.43a1,1,0,0,0,.24-.27h0a3,3,0,0,0,.54-.39,4.43,4.43,0,0,1,.54-.43,6.61,6.61,0,0,1,0,.89v.9H38l.25-.22Zm7-.21c.33-.37.41-.42.42-.32s.07,0,.27-.26.35-.48.54-.71l.29-.33h1v2.06H44.89Zm-4.77-.49c0-.52,0-.65.09-.8a1.27,1.27,0,0,1,1.07-.33h.51l-.84.87-.83.87v-.62Z"/>
      <g id="e63e1dde-f6a0-4da0-abd2-7630490b4c31" data-name="a7ed4bd4-7916-4d1d-a35a-56f1b6ba449f">
        <path id="b8dfc444-ae57-4779-b1dc-83319b10c812" data-name="64b9de2c-00ad-4f00-9c6e-3db924c71ae6" class="b83f937d-49f8-449c-aca3-a36d6b3591e9" d="M19,149.31h.15l.84,1.82h-.27l-.19-.39h-1l-.19.39h-.26Zm.42,1.23-.17-.38L19.2,150v-.15a.61.61,0,0,1,0-.19h0v.14l-.08.18-.07.14-.2.41Z"/>
        <path id="a6736eba-adfa-47cd-bc78-273de80fe9fb" data-name="5e70a76a-6092-4981-b9f2-ed713ed30753" class="b83f937d-49f8-449c-aca3-a36d6b3591e9" d="M20.76,149.31h.76a1.09,1.09,0,0,1,.61.16.59.59,0,0,1,.25.52.66.66,0,0,1-.26.55,1.13,1.13,0,0,1-.64.2H21v.39h-.24Zm.76,1.23a.65.65,0,0,0,.44-.14.46.46,0,0,0,.17-.38.4.4,0,0,0-.18-.36.83.83,0,0,0-.46-.12H21v1Z"/>
        <path id="a8ab0ef8-5858-451f-91c6-8e8d296b79f0" data-name="b453141c-787d-4815-88d6-7c93bf08dcd6" class="b83f937d-49f8-449c-aca3-a36d6b3591e9" d="M23.94,149.31h.14l.84,1.82h-.27l-.19-.39h-.95l-.2.39h-.26Zm.41,1.23-.17-.38-.06-.15v-.34h0v.14l-.07.18-.08.14-.19.41Z"/>
        <path id="b2932959-6fa4-46c3-81ad-dcf93d4e1b44" data-name="489f9fb7-2be1-43a1-aa34-7a0da8d85b4d" class="b83f937d-49f8-449c-aca3-a36d6b3591e9" d="M27.13,149.69a.62.62,0,0,0-.48-.18.76.76,0,0,0-.54.19.63.63,0,0,0-.22.51.68.68,0,0,0,.23.53.78.78,0,0,0,.56.2,1,1,0,0,0,.5-.08l.09.17a1.49,1.49,0,0,1-1,0,1.06,1.06,0,0,1-.33-.18,1.29,1.29,0,0,1-.22-.3.81.81,0,0,1-.08-.34.76.76,0,0,1,0-.3.7.7,0,0,1,.11-.23.79.79,0,0,1,.17-.2,1.1,1.1,0,0,1,.21-.14,1.13,1.13,0,0,1,.54-.13.84.84,0,0,1,.57.21Z"/>
        <path id="a31d301f-6238-4802-b99d-11187433da6f" data-name="4a0bee07-0eae-4195-af47-5058a6f8d6cd" class="b83f937d-49f8-449c-aca3-a36d6b3591e9" d="M28.19,149.31h.25v1h1.23v-1h.24v1.82h-.24v-.62H28.44v.62h-.25Z"/>
        <path id="af33c457-4158-46e5-8b35-7fddb9335cd2" data-name="535da1f5-bdaf-4a7e-af65-593e96026a42" class="b83f937d-49f8-449c-aca3-a36d6b3591e9" d="M30.87,149.31h1.44v.22H31.08v.92h.85l-.12.22h-.73v.25h1.23v.22H30.87Z"/>
      </g>
    </g>
  </g>
</svg>
