<?xml version="1.0" encoding="utf-8"?>
<!-- Generator: Adobe Illustrator 24.1.0, SVG Export Plug-In . SVG Version: 6.00 Build 0)  -->
<svg version="1.1" id="b8f0a978-2d1c-4447-b63a-b542fe143a3e"
	 xmlns="http://www.w3.org/2000/svg" xmlns:xlink="http://www.w3.org/1999/xlink" x="0px" y="0px" viewBox="0 0 217.3 255"
	 style="enable-background:new 0 0 217.3 255;" xml:space="preserve">
<style type="text/css">
	.st0{fill:#71B429;}
	.st1{fill:#05ACFF;}
	.st2{fill:#FFFFFF;}
	.st3{fill:#5E6981;}
	.st4{fill:#E87474;}
	.st5{fill:#F0981B;}
</style>
<rect x="107.8" y="21.4" class="st0" width="1.2" height="21.3"/>
<rect x="27.9" y="21.4" class="st0" width="1.1" height="22.4"/>
<polygon class="st0" points="108.4,46.3 105.8,41 111,41 "/>
<path class="st1" d="M28.5,170.2V163h3.2c0.5,0,1,0,1.5,0.2c0.3,0.1,0.6,0.4,0.8,0.7c0.2,0.3,0.3,0.7,0.3,1.1c0,0.5-0.2,0.9-0.5,1.3
	c-0.4,0.4-1,0.6-1.5,0.7c0.2,0.1,0.4,0.2,0.6,0.4c0.3,0.3,0.6,0.6,0.8,0.9l1.2,2h-1.2l-0.9-1.5c-0.3-0.4-0.5-0.8-0.7-1
	c-0.1-0.2-0.3-0.3-0.5-0.5c-0.1-0.1-0.3-0.2-0.4-0.2c-0.2,0-0.4,0-0.5,0h-1.1v3.2L28.5,170.2z M29.5,166.2h2c0.3,0,0.7,0,1-0.1
	c0.2-0.1,0.4-0.2,0.5-0.4c0.1-0.2,0.2-0.4,0.2-0.6c0-0.3-0.1-0.6-0.4-0.8c-0.3-0.2-0.7-0.4-1.2-0.3h-2.2L29.5,166.2z"/>
<path class="st1" d="M39.2,168.5l0.9,0.1c-0.1,0.5-0.4,0.9-0.8,1.2c-1,0.7-2.4,0.6-3.3-0.3c-0.5-0.6-0.7-1.3-0.7-2
	c0-0.7,0.2-1.4,0.7-2c0.5-0.5,1.1-0.7,1.8-0.7c0.6,0,1.3,0.2,1.7,0.7c0.5,0.6,0.7,1.3,0.7,2c0,0.1,0,0.2,0,0.2h-3.9
	c0,0.5,0.2,0.9,0.5,1.3c0.3,0.3,0.7,0.5,1.1,0.5c0.3,0,0.6-0.1,0.8-0.3C38.9,169.1,39.1,168.8,39.2,168.5z M36.3,167.1h2.9
	c0-0.4-0.1-0.7-0.3-1c-0.3-0.3-0.7-0.5-1.1-0.5c-0.4,0-0.7,0.1-1,0.4C36.5,166.3,36.3,166.7,36.3,167.1z"/>
<path class="st1" d="M41.2,172.2V165H42v0.7c0.2-0.2,0.4-0.4,0.6-0.6c0.3-0.1,0.6-0.2,0.9-0.2c0.4,0,0.8,0.1,1.2,0.3
	c0.4,0.2,0.6,0.6,0.8,1c0.2,0.4,0.3,0.9,0.3,1.4c0,0.5-0.1,1-0.3,1.4c-0.3,0.8-1.1,1.3-2,1.3c-0.3,0-0.5-0.1-0.8-0.2
	c-0.2-0.1-0.4-0.3-0.6-0.5v2.5L41.2,172.2z M42,167.6c0,0.5,0.1,1,0.4,1.5c0.2,0.3,0.6,0.5,1,0.5c0.4,0,0.8-0.2,1-0.5
	c0.3-0.4,0.5-1,0.4-1.5c0-0.5-0.1-1-0.4-1.5c-0.2-0.3-0.6-0.5-1-0.5c-0.4,0-0.8,0.2-1,0.5C42.1,166.5,41.9,167.1,42,167.6L42,167.6z
	"/>
<path class="st1" d="M46.7,170.2V163h0.9v7.2L46.7,170.2z"/>
<path class="st1" d="M49,164v-1h0.9v1H49z M49,170.1V165h0.9v5.2L49,170.1z"/>
<path class="st1" d="M54.6,168.3l0.9,0.1c-0.1,0.5-0.3,1-0.7,1.4c-0.4,0.3-0.9,0.5-1.4,0.5c-0.6,0-1.3-0.2-1.7-0.7
	c-0.5-0.6-0.7-1.3-0.7-2c0-0.5,0.1-1,0.3-1.5c0.2-0.4,0.5-0.7,0.8-0.9c0.4-0.2,0.8-0.3,1.2-0.3c0.5,0,1,0.1,1.4,0.4
	c0.4,0.3,0.6,0.7,0.7,1.2l-0.8,0.1c-0.1-0.3-0.2-0.6-0.4-0.8c-0.2-0.2-0.5-0.3-0.8-0.3c-0.4,0-0.8,0.2-1.1,0.5
	c-0.3,0.4-0.5,1-0.4,1.5c0,0.5,0.1,1.1,0.4,1.5c0.3,0.3,0.6,0.5,1,0.5c0.3,0,0.6-0.1,0.9-0.3C54.4,169,54.5,168.6,54.6,168.3z"/>
<path class="st1" d="M59.6,169.5c-0.3,0.2-0.6,0.4-0.9,0.6c-0.3,0.1-0.7,0.2-1,0.2c-0.5,0-0.9-0.1-1.3-0.4c-0.3-0.3-0.5-0.7-0.5-1.1
	c0-0.2,0.1-0.5,0.2-0.7c0.1-0.2,0.3-0.4,0.5-0.5c0.2-0.1,0.4-0.2,0.6-0.3c0.3-0.1,0.5-0.1,0.8-0.1c0.5,0,1.1-0.1,1.6-0.3v-0.2
	c0-0.3-0.1-0.6-0.2-0.8c-0.3-0.2-0.6-0.3-1-0.3c-0.3,0-0.6,0.1-0.9,0.2c-0.2,0.2-0.4,0.5-0.4,0.8l-0.9-0.1c0.1-0.3,0.2-0.6,0.4-0.9
	c0.2-0.2,0.5-0.4,0.8-0.5c0.4-0.1,0.8-0.2,1.2-0.2c0.4,0,0.7,0,1.1,0.1c0.2,0.1,0.4,0.2,0.6,0.4c0.1,0.2,0.2,0.4,0.3,0.6
	c0,0.3,0,0.5,0,0.8v1.2c0,0.5,0,1,0,1.6c0,0.2,0.1,0.4,0.2,0.6h-0.9C59.6,170,59.6,169.8,59.6,169.5z M59.5,167.5
	c-0.5,0.2-0.9,0.3-1.4,0.3c-0.3,0-0.5,0.1-0.8,0.2c-0.1,0.1-0.3,0.2-0.3,0.3c-0.2,0.3-0.1,0.7,0.1,1c0.2,0.2,0.5,0.2,0.8,0.2
	c0.3,0,0.6-0.1,0.9-0.2c0.3-0.1,0.5-0.4,0.6-0.6c0.1-0.3,0.2-0.6,0.1-0.9L59.5,167.5z"/>
<path class="st1" d="M63.7,169.4l0.1,0.8c-0.2,0-0.4,0.1-0.7,0.1c-0.3,0-0.5,0-0.7-0.1c-0.2-0.1-0.3-0.2-0.4-0.4
	c-0.1-0.3-0.1-0.7-0.1-1v-3h-0.6V165h0.6v-1.3l0.9-0.5v1.8h0.9v0.7h-0.9v3c0,0.2,0,0.3,0,0.5c0,0.1,0.1,0.1,0.2,0.2
	c0.1,0,0.2,0.1,0.3,0.1C63.4,169.4,63.5,169.4,63.7,169.4z"/>
<path class="st1" d="M64.5,164v-1h0.9v1H64.5z M64.5,170.1V165h0.9v5.2L64.5,170.1z"/>
<path class="st1" d="M66.4,167.6c-0.1-0.8,0.2-1.6,0.8-2.1c0.5-0.4,1-0.6,1.6-0.6c0.7,0,1.3,0.2,1.8,0.7c0.5,0.5,0.7,1.2,0.7,1.9
	c0,0.5-0.1,1.1-0.3,1.6c-0.2,0.4-0.5,0.7-0.9,0.9c-0.4,0.2-0.8,0.3-1.3,0.3c-0.7,0-1.3-0.2-1.8-0.7C66.6,169,66.4,168.3,66.4,167.6z
	 M67.3,167.6c0,0.5,0.1,1.1,0.4,1.5c0.5,0.6,1.4,0.7,2,0.1c0.1,0,0.1-0.1,0.1-0.1c0.3-0.4,0.5-1,0.4-1.5c0-0.5-0.1-1-0.4-1.5
	c-0.5-0.6-1.5-0.7-2.1-0.1c0,0-0.1,0.1-0.1,0.1C67.4,166.5,67.3,167.1,67.3,167.6z"/>
<path class="st1" d="M72.3,170.2V165h0.8v0.7c0.4-0.6,1-0.9,1.7-0.9c0.3,0,0.6,0.1,0.9,0.2c0.2,0.1,0.4,0.2,0.6,0.4
	c0.1,0.2,0.2,0.4,0.3,0.6c0,0.3,0,0.6,0,0.9v3.2h-0.9V167c0-0.3,0-0.5-0.1-0.8c-0.1-0.2-0.2-0.3-0.4-0.4c-0.2-0.1-0.4-0.2-0.6-0.2
	c-0.4,0-0.7,0.1-1,0.4c-0.3,0.4-0.5,0.9-0.4,1.4v2.8L72.3,170.2z"/>
<path class="st2" d="M3.6,54h48.7c1.7,0,3,1.3,3,3v48.7c0,1.7-1.3,3-3,3H3.6c-1.7,0-3-1.3-3-3V57C0.6,55.4,1.9,54,3.6,54z"/>
<path class="st1" d="M52.2,109.3H3.6c-2,0-3.6-1.6-3.6-3.6V57c0-2,1.6-3.6,3.6-3.6h48.7c2,0,3.6,1.6,3.6,3.6v48.7
	C55.8,107.7,54.2,109.3,52.2,109.3C52.3,109.3,52.2,109.3,52.2,109.3z M3.6,54.6c-1.3,0-2.4,1.1-2.4,2.4v48.7c0,1.3,1.1,2.4,2.4,2.4
	h0h48.7c1.3,0,2.4-1.1,2.4-2.4l0,0V57c0-1.3-1.1-2.4-2.4-2.4L3.6,54.6z"/>
<path class="st2" d="M83.9,54.1h48.7c1.7,0,3,1.3,3,3v48.7c0,1.7-1.3,3-3,3H83.9c-1.7,0-3-1.3-3-3V57.1
	C80.9,55.4,82.2,54.1,83.9,54.1z"/>
<path class="st1" d="M132.5,109.3H83.9c-2,0-3.6-1.6-3.6-3.6l0,0V57.1c0-2,1.6-3.6,3.6-3.6h48.7c2,0,3.6,1.6,3.6,3.6v0v48.7
	C136.1,107.7,134.5,109.3,132.5,109.3z M83.9,54.7c-1.3,0-2.4,1.1-2.4,2.4l0,0v48.7c0,1.3,1.1,2.4,2.4,2.4l0,0h48.7
	c1.3,0,2.4-1.1,2.4-2.4V57.1c0-1.3-1.1-2.4-2.4-2.4H83.9z"/>
<path class="st1" d="M213.7,109.3h-3.5v-1.2h3.4L213.7,109.3z M207.4,109.3H204v-1.2h3.4L207.4,109.3z M201.1,109.3h-3.4v-1.2h3.4
	L201.1,109.3z M194.9,109.3h-3.4v-1.2h3.4V109.3z M188.6,109.3h-3.4v-1.2h3.4V109.3z M182.3,109.3h-3.4v-1.2h3.4V109.3z M176,109.3
	h-3.4v-1.2h3.4L176,109.3z M169.7,109.3h-3.4v-1.2h3.4V109.3z M163.2,108.8c-1.1-0.6-1.8-1.8-1.8-3.1v-0.3h1.1v0.3
	c0,0.9,0.5,1.7,1.2,2.1L163.2,108.8z M216.6,107.8l-0.9-0.7c0.3-0.4,0.4-0.9,0.4-1.4v-1.6h1.1v1.6
	C217.3,106.4,217,107.2,216.6,107.8L216.6,107.8z M162.6,102.6h-1.1v-3.4h1.1V102.6z M217.3,101.3h-1.1v-3.4h1.1V101.3z M162.6,96.3
	h-1.1v-3.4h1.1V96.3z M217.3,95h-1.1v-3.4h1.1V95z M162.6,90h-1.1v-3.4h1.1V90z M217.3,88.7h-1.1v-3.4h1.1V88.7z M162.6,83.7h-1.1
	v-3.4h1.1V83.7z M217.3,82.4h-1.1V79h1.1V82.4z M162.6,77.4h-1.1V74h1.1V77.4z M217.3,76h-1.1v-3.3h1.1V76z M162.6,71h-1.1v-3.3h1.1
	V71z M217.3,69.7h-1.1v-3.3h1.1V69.7z M162.6,64.7h-1.1v-3.2h1.1V64.7z M217.3,63.4h-1.1v-3.2h1.1V63.4z M162.6,58.4h-1.1V57
	c0-0.7,0.2-1.4,0.6-2l0.9,0.7c-0.3,0.4-0.4,0.9-0.4,1.3V58.4z M217.3,57.1h-1.1V57c0-0.9-0.5-1.7-1.2-2.1l0.6-1
	C216.6,54.5,217.3,55.7,217.3,57.1L217.3,57.1z M212.4,54.4H209v-0.9h3.4L212.4,54.4z M206.1,54.4h-3.4v-0.9h3.4V54.4z M199.8,54.4
	h-3.4v-0.9h3.4L199.8,54.4z M193.6,54.4h-3.4v-0.9h3.4V54.4z M187.3,54.4h-3.4v-0.9h3.4V54.4z M181,54.4h-3.4v-0.9h3.4L181,54.4z
	 M174.7,54.4h-3.4v-0.9h3.4V54.4z M168.4,54.4H165v-0.9h3.4L168.4,54.4z"/>
<rect x="108.1" y="136.1" class="st1" width="1.2" height="21.3"/>
<rect x="108.1" y="158.1" class="st1" width="1.2" height="21.3"/>
<polygon class="st1" points="108.7,132.5 106.1,137.9 111.3,137.9 "/>
<rect x="27.9" y="136.1" class="st1" width="1.1" height="21.3"/>
<polygon class="st1" points="28.5,132.5 25.9,137.9 31.1,137.9 "/>
<polygon class="st1" points="190.2,132.5 187.6,137.9 192.8,137.9 "/>
<rect x="28.2" y="157.4" class="st1" width="81.1" height="1.1"/>
<rect x="189.3" y="139" class="st1" width="1.1" height="1.7"/>
<path class="st1" d="M190.4,153.4h-1.1V150h1.1V153.4z M190.4,147.1h-1.1v-3.4h1.1V147.1z"/>
<polygon class="st1" points="190.4,158.6 188.1,158.6 188.1,157.4 189.3,157.4 189.3,156.3 190.4,156.3 "/>
<path class="st1" d="M185.2,158.6h-3.6v-1.1h3.6V158.6z M178.6,158.6H175v-1.1h3.6L178.6,158.6z M172,158.6h-3.6v-1.1h3.6V158.6z
	 M165.4,158.6h-3.6v-1.1h3.6V158.6z M158.8,158.6h-3.6v-1.1h3.6V158.6z M152.2,158.6h-3.6v-1.1h3.6V158.6z M145.7,158.6h-3.6v-1.1
	h3.6V158.6z M139.1,158.6h-3.6v-1.1h3.6V158.6z M132.5,158.6h-3.6v-1.1h3.6V158.6z M125.9,158.6h-3.6v-1.1h3.6V158.6z M119.3,158.6
	h-3.6v-1.1h3.6V158.6z"/>
<rect x="111" y="157.4" class="st1" width="1.7" height="1.1"/>
<circle class="st3" cx="153.1" cy="81.4" r="1.4"/>
<circle class="st3" cx="148.4" cy="81.4" r="1.4"/>
<circle class="st3" cx="143.8" cy="81.4" r="1.4"/>
<path d="M13.9,122.3H13l-1.4-4.8c-0.1-0.2-0.1-0.5-0.2-0.8c-0.1-0.2-0.1-0.4-0.1-0.6c-0.1,0.5-0.2,0.9-0.4,1.4l-1.4,4.8H8.7
	l-1.9-7.1h0.9l1.1,4.4c0.2,0.6,0.3,1.2,0.4,1.7c0.1-0.6,0.2-1.2,0.4-1.7l1.3-4.3h0.9l1.3,4.4c0.2,0.6,0.3,1.1,0.4,1.7
	c0.1-0.6,0.2-1.1,0.4-1.7l1.1-4.4h0.9L13.9,122.3z"/>
<path d="M21.4,119.6c0,0.7-0.2,1.4-0.7,2c-0.5,0.5-1.1,0.8-1.8,0.7c-0.4,0-0.9-0.1-1.3-0.3c-0.4-0.2-0.7-0.6-0.9-1
	c-0.2-0.5-0.3-1-0.3-1.5c0-0.7,0.2-1.4,0.6-2c0.5-0.5,1.1-0.8,1.8-0.7c0.7,0,1.3,0.2,1.8,0.8C21.2,118.1,21.4,118.9,21.4,119.6z
	 M17.3,119.6c0,0.6,0.1,1.1,0.4,1.6c0.3,0.4,0.7,0.6,1.2,0.5c0.5,0,0.9-0.2,1.2-0.5c0.3-0.5,0.4-1,0.4-1.6c0-0.5-0.1-1.1-0.4-1.6
	c-0.3-0.4-0.8-0.6-1.2-0.5c-0.5,0-0.9,0.2-1.2,0.5C17.4,118.5,17.3,119.1,17.3,119.6z"/>
<path d="M25.2,116.8c0.2,0,0.4,0,0.6,0.1l-0.1,0.8c-0.2,0-0.4-0.1-0.6-0.1c-0.4,0-0.8,0.2-1.1,0.5c-0.3,0.4-0.5,0.8-0.5,1.3v2.9
	h-0.8v-5.3h0.7l0.1,1l0,0c0.2-0.3,0.4-0.6,0.7-0.8C24.6,116.9,24.9,116.8,25.2,116.8z"/>
<path d="M27.7,119.6c0.1-0.2,0.4-0.4,0.6-0.8l1.7-1.8h1l-2.2,2.3l2.3,3.1h-1l-1.9-2.5l-0.6,0.5v2h-0.8v-7.6h0.8v4
	C27.6,118.9,27.6,119.2,27.7,119.6L27.7,119.6z"/>
<path d="M34.4,122.4c-0.7,0-1.4-0.2-1.9-0.7c-0.5-0.6-0.7-1.3-0.7-2c0-0.7,0.2-1.4,0.6-2c0.4-0.5,1.1-0.8,1.7-0.8
	c0.6,0,1.2,0.2,1.6,0.7c0.4,0.5,0.6,1.1,0.6,1.7v0.5h-3.7c0,0.5,0.1,1,0.5,1.4c0.3,0.3,0.8,0.5,1.3,0.5c0.6,0,1.2-0.1,1.7-0.4v0.6
	c-0.3,0.1-0.5,0.2-0.8,0.3C35,122.3,34.7,122.4,34.4,122.4z M34.2,117.5c-0.4,0-0.7,0.1-1,0.4c-0.3,0.3-0.4,0.7-0.5,1.2h2.8
	c0-0.4-0.1-0.8-0.3-1.2C34.9,117.6,34.5,117.5,34.2,117.5z"/>
<path d="M40.2,116.8c0.2,0,0.4,0,0.6,0.1l-0.1,0.8c-0.2,0-0.4-0.1-0.6-0.1c-0.4,0-0.8,0.2-1.1,0.5c-0.3,0.4-0.5,0.8-0.5,1.3v2.9
	h-0.8v-5.3h0.7l0.1,1l0,0c0.2-0.3,0.4-0.6,0.7-0.8C39.5,116.9,39.8,116.8,40.2,116.8z"/>
<path d="M47,122.3h-0.8v-5.1c0-0.4,0-0.8,0-1.2c-0.1,0.1-0.1,0.2-0.2,0.2l-1.2,1l-0.4-0.6l1.9-1.5H47L47,122.3z"/>
<path d="M93.9,122.3h-0.8l-1.4-4.8c-0.1-0.2-0.1-0.5-0.2-0.8c-0.1-0.2-0.1-0.4-0.1-0.6c-0.1,0.5-0.2,0.9-0.3,1.4l-1.4,4.8h-0.8
	l-1.9-7.1h0.9l1.1,4.4c0.1,0.6,0.3,1.1,0.3,1.7c0.1-0.6,0.2-1.2,0.4-1.7l1.3-4.3h0.9l1.3,4.4c0.2,0.6,0.3,1.1,0.4,1.7
	c0.1-0.6,0.2-1.1,0.3-1.7l1.1-4.4h0.9L93.9,122.3z"/>
<path d="M101.4,119.6c0,0.7-0.2,1.4-0.7,2c-0.5,0.5-1.1,0.8-1.8,0.7c-0.5,0-0.9-0.1-1.3-0.3c-0.4-0.2-0.7-0.6-0.9-1
	c-0.2-0.5-0.3-1-0.3-1.5c0-0.7,0.2-1.4,0.7-2c0.5-0.5,1.1-0.8,1.8-0.7c0.7,0,1.3,0.2,1.8,0.8C101.3,118.1,101.5,118.9,101.4,119.6z
	 M97.4,119.6c0,0.6,0.1,1.1,0.4,1.6c0.3,0.4,0.7,0.6,1.2,0.5c0.5,0,0.9-0.2,1.2-0.5c0.3-0.5,0.5-1,0.4-1.6c0-0.5-0.1-1.1-0.4-1.6
	c-0.6-0.7-1.7-0.7-2.3-0.1c0,0-0.1,0.1-0.1,0.1C97.5,118.5,97.3,119.1,97.4,119.6z"/>
<path d="M105.3,116.8c0.2,0,0.4,0,0.6,0.1l-0.1,0.8c-0.2,0-0.4-0.1-0.6-0.1c-0.4,0-0.8,0.2-1.1,0.5c-0.3,0.4-0.5,0.8-0.5,1.3v2.9
	h-0.8v-5.3h0.7l0.1,1l0,0c0.2-0.3,0.4-0.6,0.7-0.8C104.6,116.9,105,116.8,105.3,116.8z"/>
<path d="M107.7,119.6c0.1-0.2,0.3-0.4,0.6-0.8l1.7-1.8h1l-2.2,2.3l2.3,3.1h-1l-1.9-2.5l-0.6,0.5v2H107v-7.6h0.8v4
	C107.8,118.9,107.8,119.2,107.7,119.6L107.7,119.6z"/>
<path d="M114.4,122.4c-0.7,0-1.4-0.2-1.9-0.7c-0.5-0.6-0.7-1.3-0.7-2c0-0.7,0.2-1.4,0.6-2c0.4-0.5,1.1-0.8,1.7-0.8
	c0.6,0,1.2,0.2,1.6,0.7c0.4,0.5,0.6,1.1,0.6,1.7v0.5h-3.7c0,0.5,0.2,1,0.5,1.4c0.3,0.3,0.8,0.5,1.3,0.5c0.6,0,1.2-0.1,1.7-0.4v0.6
	c-0.3,0.1-0.5,0.2-0.8,0.3C115.1,122.3,114.8,122.4,114.4,122.4z M114.2,117.5c-0.4,0-0.7,0.1-1,0.4c-0.3,0.3-0.4,0.7-0.4,1.2h2.8
	c0-0.4-0.1-0.8-0.3-1.2C115,117.6,114.6,117.5,114.2,117.5z"/>
<path d="M120.2,116.8c0.2,0,0.4,0,0.6,0.1l-0.1,0.8c-0.2,0-0.4-0.1-0.6-0.1c-0.4,0-0.8,0.2-1.1,0.5c-0.3,0.4-0.5,0.8-0.5,1.3v2.9
	h-0.8v-5.3h0.7l0.1,1l0,0c0.2-0.3,0.4-0.6,0.7-0.8C119.6,116.9,119.9,116.8,120.2,116.8z"/>
<path d="M128.8,122.3h-4.7v-0.7l1.9-1.9c0.4-0.4,0.8-0.8,1.1-1.2c0.2-0.2,0.3-0.5,0.4-0.7c0.1-0.2,0.1-0.5,0.1-0.8
	c0-0.3-0.1-0.7-0.3-0.9c-0.3-0.2-0.6-0.4-1-0.3c-0.3,0-0.6,0-0.8,0.1c-0.3,0.1-0.6,0.3-0.9,0.5l-0.4-0.6c0.6-0.5,1.4-0.8,2.2-0.8
	c0.6,0,1.1,0.2,1.6,0.5c0.4,0.4,0.6,0.9,0.6,1.4c0,0.5-0.1,0.9-0.4,1.3c-0.4,0.6-0.9,1.2-1.4,1.7l-1.6,1.5l0,0h3.7L128.8,122.3z"/>
<path d="M174.9,122.3h-0.8l-1.4-4.8c-0.1-0.2-0.1-0.5-0.2-0.8c-0.1-0.2-0.1-0.4-0.1-0.6c-0.1,0.5-0.2,0.9-0.3,1.4l-1.4,4.8h-0.8
	l-1.9-7.1h0.9l1.1,4.4c0.1,0.6,0.3,1.1,0.3,1.7c0.1-0.6,0.2-1.2,0.4-1.7l1.3-4.3h0.9l1.3,4.4c0.2,0.6,0.3,1.1,0.4,1.7
	c0.1-0.6,0.2-1.1,0.4-1.7l1.1-4.4h0.9L174.9,122.3z"/>
<path d="M182.4,119.6c0,0.7-0.2,1.4-0.7,2c-0.5,0.5-1.1,0.8-1.8,0.7c-0.5,0-0.9-0.1-1.3-0.3c-0.4-0.2-0.7-0.6-0.9-1
	c-0.2-0.5-0.3-1-0.3-1.5c0-0.7,0.2-1.4,0.6-2c0.5-0.5,1.1-0.8,1.8-0.7c0.7,0,1.3,0.2,1.8,0.8C182.3,118.1,182.5,118.9,182.4,119.6z
	 M178.4,119.6c0,0.6,0.1,1.1,0.4,1.6c0.3,0.4,0.7,0.6,1.2,0.5c0.5,0,0.9-0.2,1.2-0.5c0.3-0.5,0.5-1,0.4-1.6c0-0.5-0.1-1.1-0.4-1.6
	c-0.6-0.7-1.7-0.7-2.3-0.1c0,0-0.1,0.1-0.1,0.1C178.5,118.5,178.3,119.1,178.4,119.6z"/>
<path d="M186.3,116.8c0.2,0,0.4,0,0.6,0.1l-0.1,0.8c-0.2,0-0.4-0.1-0.6-0.1c-0.4,0-0.8,0.2-1.1,0.5c-0.3,0.4-0.5,0.8-0.5,1.3v2.9
	h-0.8v-5.3h0.7l0.1,1l0,0c0.2-0.3,0.4-0.6,0.7-0.8C185.6,116.9,186,116.8,186.3,116.8z"/>
<path d="M188.7,119.6c0.1-0.2,0.4-0.4,0.6-0.8l1.7-1.8h1l-2.2,2.3l2.3,3.1h-1l-1.9-2.5l-0.6,0.5v2H188v-7.6h0.8v4
	C188.8,118.9,188.8,119.2,188.7,119.6L188.7,119.6z"/>
<path d="M195.4,122.4c-0.7,0-1.4-0.2-1.9-0.7c-0.5-0.6-0.7-1.3-0.7-2c0-0.7,0.2-1.4,0.6-2c0.4-0.5,1.1-0.8,1.7-0.8
	c0.6,0,1.2,0.2,1.6,0.7c0.4,0.5,0.6,1.1,0.6,1.7v0.5h-3.7c0,0.5,0.2,1,0.5,1.4c0.3,0.3,0.8,0.5,1.3,0.5c0.6,0,1.2-0.1,1.7-0.4v0.6
	c-0.3,0.1-0.5,0.2-0.8,0.3C196.1,122.3,195.8,122.4,195.4,122.4z M195.2,117.5c-0.4,0-0.7,0.1-1,0.4c-0.3,0.3-0.4,0.7-0.4,1.2h2.8
	c0-0.4-0.1-0.8-0.3-1.2C196,117.6,195.6,117.5,195.2,117.5z"/>
<path d="M201.2,116.8c0.2,0,0.4,0,0.6,0.1l-0.1,0.8c-0.2,0-0.4-0.1-0.6-0.1c-0.4,0-0.8,0.2-1.1,0.5c-0.3,0.4-0.5,0.8-0.5,1.3v2.9
	h-0.8v-5.3h0.7l0.1,1l0,0c0.2-0.3,0.4-0.6,0.7-0.8C200.6,116.9,200.9,116.8,201.2,116.8z"/>
<path d="M211.2,122.3h-1l-3.9-6l0,0c0.1,0.7,0.1,1.3,0.1,1.9v4.1h-0.8v-7.1h0.9l3.9,6l0,0c0-0.1,0-0.4-0.1-0.8s0-0.8,0-1v-4.1h0.8
	L211.2,122.3z"/>
<path class="st2" d="M83.9,186.3h48.7c1.7,0,3,1.3,3,3V238c0,1.7-1.3,3-3,3H83.9c-1.7,0-3-1.3-3-3v-48.7
	C80.9,187.7,82.2,186.3,83.9,186.3z"/>
<path class="st4" d="M136.1,189.3V238c0,2-1.6,3.6-3.6,3.6l0,0H83.9c-2,0-3.6-1.6-3.6-3.6v-48.7c0-2,1.6-3.6,3.6-3.6l0,0h48.7
	C134.5,185.8,136.1,187.4,136.1,189.3z M132.5,240.4c1.3,0,2.4-1.1,2.5-2.4c0,0,0,0,0,0v-48.7c0-1.3-1.1-2.4-2.4-2.4H83.9
	c-1.3,0-2.4,1.1-2.4,2.4V238c0,1.3,1.1,2.4,2.4,2.4H132.5z"/>
<path class="st4" d="M132.6,242.1H83.9c-2.3,0-4.1-1.8-4.1-4.1v-48.7c0-2.3,1.8-4.1,4.1-4.1c0,0,0,0,0,0h48.7c2.2,0,4.1,1.8,4.1,4.1
	V238C136.6,240.2,134.8,242.1,132.6,242.1z M83.9,186.3c-1.7,0-3.1,1.4-3.1,3.1l0,0V238c0,1.7,1.4,3.1,3.1,3.1l0,0h48.7
	c1.7,0,3.1-1.4,3.1-3.1v-48.7c0-1.7-1.4-3.1-3.1-3.1H83.9z M132.5,240.9H83.9c-1.6,0-2.9-1.3-2.9-2.9v-48.7c0-1.6,1.3-2.9,2.9-2.9
	h48.7c1.6,0,2.9,1.3,2.9,2.9V238C135.5,239.6,134.2,240.9,132.5,240.9C132.6,240.9,132.6,240.9,132.5,240.9L132.5,240.9z
	 M83.9,187.4c-1,0-1.9,0.9-1.9,1.9V238c0,1.1,0.9,1.9,1.9,1.9h48.7c1.1,0,1.9-0.9,1.9-1.9v-48.7c0-1.1-0.8-1.9-1.9-1.9c0,0,0,0,0,0
	H83.9z"/>
<path class="st2" d="M13.1,95.8c-0.1,0-0.2,0-0.3-0.1c-0.2-0.1-0.3-0.2-0.4-0.4c-0.6-1.3-1-2.7-1-4.1h-0.1c-0.1,0-0.2,0-0.3-0.1
	c-0.2-0.1-0.3-0.3-0.2-0.5c0.3-5.6,2.4-15.8,12.3-20.5c0.1,0,0.2-0.1,0.2-0.1c0.1,0,0.3,0.1,0.4,0.2c0.2,0.2,0.2,0.4,0.1,0.6
	c-0.2,1.4-0.2,2.8,0.1,4.2c2.1-0.3,4.1-0.4,6.2-0.5c0.9,0,1.8,0.1,2.8,0.2c2-2.6,9.4-4.5,10.2-4.7h0.1c0.3,0,0.6,0.2,0.6,0.5
	c0,0.2-0.1,0.4-0.2,0.5l-4.8,5.6l4.8,5.3c0.2,0.2,0.2,0.5,0,0.8c-0.1,0.1-0.3,0.2-0.4,0.2c-0.1,0-0.2,0-0.3-0.1
	c-2.7-1.6-5.6-2.8-8.7-3.3c-1.1-0.2-2.2-0.3-3.3-0.3c-4.7,0-8.2,2-9.1,3.9c-0.3,0.5-0.3,1.1,0,1.5c0.3,0.4,0.8,0.7,1.3,0.8
	c1.2,0,2.6-1.8,3.1-2.4c0.1-0.2,0.3-0.3,0.5-0.3h0.1c0.2,0,0.4,0.2,0.5,0.4c0,0.2,0.9,4-5.7,9.2C19.5,94,15.2,95.8,13.1,95.8
	L13.1,95.8z M13.5,90.8c0.4,0.7,0.8,1.4,1.4,2c0.4-0.5,0.8-1.1,1.1-1.6c-0.6-0.3-1.4-0.4-2.1-0.4L13.5,90.8z M15.8,88.3
	c0.2,0,0.3-0.1,0.4-0.2c0.2-0.4,0.3-0.8,0.4-1.2c-0.1,0.1-0.3,0.3-0.4,0.4C15.9,87.5,15.8,87.9,15.8,88.3L15.8,88.3z"/>
<path class="st2" d="M43.2,70.7L43.2,70.7 M43.2,70.7l-5.1,6l5.1,5.7c-2.7-1.7-5.8-2.8-8.9-3.4c-1.1-0.2-2.2-0.3-3.4-0.3
	c-7.2,0-11.1,4.3-9.5,6.3c0.4,0.6,1,1,1.7,1c1.8,0,3.5-2.7,3.5-2.7s0.9,3.6-5.5,8.6c-1.9,1.5-6.1,3.3-8.1,3.4H13l0,0
	c-0.6-1.2-1-2.6-1-4c0.5,1.2,1.2,2.4,2,3.4h0.1c-0.7-1.1-1.1-2.4-1.2-3.7c0.5,1.1,1.2,2,2,2.9c0.7-0.8,1.4-1.8,1.9-2.8l0,0
	c-0.9-0.5-1.8-0.8-2.8-0.7c-0.9,0-1.8,0.2-2.6,0.5c0.3-5.4,2.3-15.4,12-20C22.9,72,23.5,76,23.5,76c2.2-0.3,4.5-0.5,6.7-0.6
	c1,0,2,0.1,3,0.2c1.5-2.6,10.1-4.8,10.1-4.8 M22.8,79.6c0.5-0.9,0.4-1.8-1.2-2.3C22.4,77.8,22.8,78.7,22.8,79.6 M22.1,80.6
	c0.7-1.2,0.5-2.3-1.5-3C21.6,78.2,22.2,79.4,22.1,80.6 M21.4,81.6c0.8-1.5,0.6-2.9-1.9-3.8C20.7,78.7,21.5,80.1,21.4,81.6
	 M20.5,82.7c1-1.8,0.7-3.5-2.3-4.5C19.7,79.2,20.6,80.9,20.5,82.7 M17.2,85.9c-1.4,0.1-2.5,2.4-1.9,2.8c0.1,0.1,0.3,0.1,0.5,0.1
	c0.3,0,0.6-0.2,0.8-0.4C17,87.6,17.2,86.8,17.2,85.9L17.2,85.9 M43.2,69.5L43.2,69.5h-0.3c-1.5,0.4-8,2.1-10.3,4.6
	C31.8,74.1,31,74,30.1,74c-1.9,0-3.8,0.2-5.7,0.4c-0.2-1.1-0.2-2.2-0.1-3.4c0.2-0.6-0.1-1.3-0.7-1.5c-0.1-0.1-0.3-0.1-0.4-0.1
	c-0.2,0-0.3,0-0.5,0.1c-10.1,4.9-12.3,15.3-12.6,21c0,0.4,0.2,0.8,0.5,1l0.2,0.1c0.1,1.3,0.5,2.6,1.1,3.8c0.1,0.2,0.2,0.3,0.3,0.5
	c0.2,0.2,0.5,0.3,0.9,0.3h0.1c2.2-0.1,6.6-1.9,8.7-3.6c6.8-5.4,6-9.4,5.9-9.8c-0.1-0.4-0.5-0.8-0.9-0.8h-0.2c-0.4,0-0.8,0.2-1,0.5
	c-0.6,0.9-1.8,2.2-2.6,2.2c-0.1,0-0.4,0-0.8-0.6c-0.2-0.3-0.1-0.6,0-0.9C23,82,26,79.8,31,79.8c1.1,0,2.1,0.1,3.2,0.3
	c3,0.5,5.9,1.6,8.5,3.2c0.2,0.1,0.4,0.2,0.7,0.2c0.6,0,1.1-0.5,1.1-1.1c0-0.3-0.1-0.6-0.3-0.8l-4.5-4.9l4.4-5.1
	c0.2-0.2,0.3-0.5,0.3-0.8C44.4,70,43.9,69.5,43.2,69.5L43.2,69.5z M43.2,71.8L43.2,71.8z M14.8,91.9l-0.3-0.5c0.2,0,0.4,0.1,0.6,0.1
	C15,91.6,14.9,91.7,14.8,91.9z"/>
<path class="st5" d="M12.9,90.8c0.6,1.2,1.4,2.3,2.3,3.2c-0.2,0.4-0.5,0.6-0.9,0.7C14.2,94.7,12.8,92.4,12.9,90.8z M12,91.2
	c0.5,1.3,1.2,2.4,2.1,3.5c-0.3,0.3-0.7,0.6-1.1,0.6C13,95.2,11.8,92.7,12,91.2L12,91.2z"/>
<path class="st5" d="M43.2,70.7c0,0-8.6,2.2-10.1,4.8c-3.6-0.6-9.7,0.3-9.7,0.3s-0.6-4-0.1-5.1c-9.7,4.7-11.6,14.7-12,20
	c1.7-0.8,3.7-0.7,5.4,0.2c0.1-0.1-1.8,3.4-3.7,4.3c0,0,0.1,0,0.1,0c2-0.1,6.2-1.8,8.1-3.4c6.4-5.1,5.5-8.6,5.5-8.6s-3,4.7-5.3,1.7
	c-1.8-2.3,3.7-7.7,12.9-6c3.2,0.5,6.2,1.7,8.9,3.4l-5.1-5.7L43.2,70.7z M16.6,88.4c-0.3,0.4-0.9,0.6-1.3,0.3
	c-0.6-0.3,0.4-2.7,1.9-2.8C17.2,86.8,17,87.6,16.6,88.4z M20.5,82.7c0.1-1.8-0.7-3.5-2.3-4.5C21.2,79.2,21.5,80.9,20.5,82.7z
	 M21.4,81.6c0.1-1.5-0.6-3-1.9-3.8C22,78.7,22.2,80.1,21.4,81.6z M22.1,80.6c0.1-1.2-0.5-2.3-1.5-3C22.6,78.2,22.8,79.3,22.1,80.6z
	 M22.8,79.6c0.1-0.9-0.4-1.8-1.2-2.3C23.1,77.8,23.3,78.6,22.8,79.6z"/>
<path class="st2" d="M93.1,95.8c-0.1,0-0.2,0-0.3-0.1c-0.2-0.1-0.3-0.2-0.4-0.4c-0.6-1.3-1-2.7-1-4.1h-0.1c-0.1,0-0.2,0-0.3-0.1
	c-0.2-0.1-0.3-0.3-0.2-0.5c0.3-5.6,2.4-15.8,12.3-20.5c0.1,0,0.2-0.1,0.2-0.1c0.1,0,0.3,0.1,0.4,0.2c0.2,0.2,0.2,0.4,0.1,0.6
	c-0.2,1.4-0.2,2.8,0.1,4.2c2.1-0.3,4.1-0.4,6.2-0.5c0.9,0,1.8,0.1,2.8,0.2c2-2.6,9.4-4.5,10.2-4.7h0.1c0.3,0,0.6,0.2,0.6,0.5
	c0,0.2-0.1,0.4-0.2,0.5l-4.8,5.6l4.8,5.3c0.2,0.2,0.2,0.5,0,0.8c-0.1,0.1-0.3,0.2-0.4,0.2c-0.1,0-0.2,0-0.3-0.1
	c-2.7-1.6-5.6-2.8-8.7-3.3c-1.1-0.2-2.2-0.3-3.3-0.3c-4.7,0-8.2,2-9.1,3.9c-0.3,0.5-0.3,1.1,0,1.5c0.3,0.4,0.8,0.7,1.3,0.8
	c1.2,0,2.6-1.8,3.1-2.4c0.1-0.2,0.3-0.3,0.5-0.3h0.1c0.2,0,0.4,0.2,0.5,0.4c0,0.2,0.9,4-5.7,9.2C99.5,94,95.2,95.8,93.1,95.8
	L93.1,95.8z M93.5,90.8c0.4,0.7,0.8,1.4,1.4,2c0.4-0.5,0.8-1.1,1.1-1.6c-0.6-0.3-1.4-0.4-2.1-0.4L93.5,90.8z M95.8,88.3
	c0.2,0,0.3-0.1,0.4-0.2c0.2-0.4,0.3-0.8,0.4-1.2c-0.1,0.1-0.3,0.3-0.4,0.4C95.9,87.5,95.8,87.9,95.8,88.3L95.8,88.3z"/>
<path class="st2" d="M123.2,70.7L123.2,70.7 M123.2,70.7l-5.1,6l5.1,5.7c-2.7-1.7-5.8-2.8-8.9-3.4c-1.1-0.2-2.2-0.3-3.4-0.3
	c-7.2,0-11.1,4.3-9.5,6.3c0.4,0.6,1,1,1.7,1c1.8,0,3.6-2.7,3.6-2.7s0.9,3.6-5.5,8.6c-1.9,1.5-6.1,3.3-8.1,3.4H93l0,0
	c-0.6-1.2-1-2.6-1-4c0.5,1.2,1.2,2.4,2,3.4h0.1c-0.7-1.1-1.1-2.4-1.2-3.7c0.5,1.1,1.2,2,2,2.9c0.7-0.8,1.4-1.8,1.9-2.8l0,0
	c-0.9-0.5-1.8-0.8-2.8-0.7c-0.9,0-1.8,0.2-2.6,0.5c0.3-5.4,2.3-15.4,12-20c-0.5,1.1,0.2,5.1,0.2,5.1c2.2-0.3,4.5-0.5,6.7-0.6
	c1,0,2,0.1,3,0.2c1.5-2.6,10.1-4.8,10.1-4.8 M102.8,79.8c0.5-0.9,0.4-1.8-1.2-2.3C102.4,78,102.9,78.9,102.8,79.8 M102.2,80.8
	c0.7-1.2,0.5-2.3-1.5-3C101.7,78.5,102.2,79.6,102.2,80.8 M101.4,81.9c0.8-1.5,0.6-2.9-1.9-3.8C100.8,78.9,101.5,80.4,101.4,81.9
	 M100.5,83c1-1.8,0.7-3.5-2.3-4.5C99.8,79.4,100.7,81.2,100.5,83 M97.2,86.2c-1.4,0.1-2.5,2.4-1.9,2.8c0.1,0.1,0.3,0.1,0.5,0.1
	c0.3,0,0.6-0.2,0.8-0.4C97,87.9,97.2,87,97.2,86.2L97.2,86.2 M123.3,69.8L123.3,69.8H123c-1.4,0.4-8,2.1-10.3,4.6
	c-0.8-0.1-1.7-0.1-2.5-0.1c-1.9,0-3.8,0.2-5.7,0.4c-0.2-1.1-0.2-2.2-0.1-3.4c0.2-0.6-0.1-1.3-0.7-1.5c-0.1-0.1-0.3-0.1-0.4-0.1
	c-0.2,0-0.3,0-0.5,0.1c-10.2,4.9-12.3,15.3-12.6,21c0,0.4,0.2,0.8,0.5,1l0.2,0.1c0.1,1.3,0.5,2.6,1.1,3.8c0.1,0.2,0.2,0.3,0.3,0.5
	c0.2,0.2,0.5,0.3,0.9,0.3h0.1c2.2-0.1,6.6-1.9,8.7-3.6c6.8-5.4,6-9.4,5.9-9.8c-0.1-0.4-0.5-0.8-0.9-0.8h-0.2c-0.4,0-0.8,0.2-1,0.5
	c-0.6,0.9-1.8,2.2-2.6,2.2c-0.1,0-0.4,0-0.8-0.6c-0.2-0.3-0.1-0.6,0.1-0.9c0.6-1.5,3.6-3.8,8.6-3.8c1.1,0,2.1,0.1,3.2,0.3
	c3,0.5,5.9,1.6,8.5,3.2c0.2,0.1,0.4,0.2,0.7,0.2c0.6,0,1.1-0.5,1.1-1.1c0-0.3-0.1-0.6-0.3-0.8l-4.5-4.9l4.4-5.1
	c0.2-0.2,0.3-0.5,0.3-0.8c0-0.6-0.5-1.1-1.1-1.1L123.3,69.8z M123.3,72L123.3,72z M94.8,91.9l-0.3-0.5c0.2,0,0.4,0.1,0.6,0.1
	C95,91.6,94.9,91.7,94.8,91.9z"/>
<path class="st5" d="M92.8,90.8c0.6,1.2,1.4,2.3,2.3,3.2c-0.2,0.4-0.5,0.6-0.9,0.7C94.2,94.7,92.8,92.4,92.8,90.8z M92,91.2
	c0.5,1.3,1.2,2.4,2.1,3.5c-0.3,0.3-0.7,0.6-1.1,0.6C93,95.2,91.8,92.7,92,91.2L92,91.2z"/>
<path class="st5" d="M123.2,70.7c0,0-8.6,2.2-10.1,4.8c-3.6-0.6-9.7,0.3-9.7,0.3s-0.6-4-0.2-5.1c-9.7,4.7-11.7,14.7-12,20
	c1.7-0.8,3.7-0.7,5.4,0.2c0.1-0.1-1.8,3.4-3.7,4.3c0,0,0.1,0,0.1,0c2-0.1,6.2-1.8,8.1-3.4c6.4-5.1,5.5-8.6,5.5-8.6s-3,4.7-5.3,1.7
	c-1.8-2.3,3.7-7.7,12.9-6c3.2,0.5,6.2,1.7,8.9,3.4l-5.1-5.7L123.2,70.7z M96.6,88.4c-0.3,0.4-0.9,0.6-1.3,0.3
	c-0.6-0.3,0.4-2.7,1.9-2.8C97.2,86.8,97,87.6,96.6,88.4z M100.5,82.7c0.1-1.8-0.7-3.5-2.3-4.5C101.2,79.2,101.5,80.9,100.5,82.7z
	 M101.4,81.6c0.1-1.5-0.6-3-1.9-3.8C102,78.7,102.2,80.1,101.4,81.6z M102.1,80.6c0.1-1.2-0.5-2.3-1.5-3
	C102.6,78.2,102.8,79.3,102.1,80.6z M102.8,79.6c0.1-0.9-0.4-1.8-1.2-2.3C103.1,77.8,103.3,78.6,102.8,79.6z"/>
<path class="st2" d="M93.1,226.8c-0.1,0-0.2,0-0.3-0.1c-0.2-0.1-0.3-0.2-0.4-0.4c-0.6-1.3-1-2.7-1-4.1h-0.1c-0.1,0-0.2,0-0.3-0.1
	c-0.2-0.1-0.3-0.3-0.2-0.5c0.3-5.6,2.4-15.8,12.3-20.5c0.1,0,0.2-0.1,0.2-0.1c0.1,0,0.3,0.1,0.4,0.2c0.2,0.2,0.2,0.4,0.1,0.6
	c-0.2,1.4-0.2,2.8,0.1,4.2c2.1-0.3,4.1-0.4,6.2-0.5c0.9,0,1.8,0.1,2.8,0.2c2-2.6,9.4-4.5,10.2-4.7h0.1c0.3,0,0.6,0.3,0.6,0.6
	c0,0.1-0.1,0.3-0.1,0.4l-4.8,5.6l4.8,5.3c0.2,0.2,0.2,0.5,0,0.8c-0.1,0.1-0.3,0.2-0.4,0.2c-0.1,0-0.2,0-0.3-0.1
	c-2.7-1.6-5.6-2.8-8.7-3.3c-1.1-0.2-2.2-0.3-3.3-0.3c-4.7,0-8.2,2-9.1,3.9c-0.3,0.5-0.3,1.1,0,1.5c0.3,0.4,0.8,0.7,1.3,0.8
	c1.2,0,2.6-1.8,3.1-2.4c0.1-0.2,0.3-0.3,0.5-0.3h0.1c0.2,0,0.4,0.2,0.5,0.4c0,0.2,0.9,4-5.7,9.2C99.5,224.9,95.2,226.7,93.1,226.8
	L93.1,226.8z M93.5,221.8c0.4,0.7,0.8,1.4,1.4,2c0.4-0.5,0.8-1.1,1.1-1.6c-0.6-0.3-1.4-0.4-2.1-0.4L93.5,221.8z M95.8,219.3
	c0.2,0,0.3-0.1,0.4-0.2c0.2-0.4,0.3-0.8,0.4-1.2c-0.1,0.1-0.3,0.3-0.4,0.4C95.9,218.5,95.8,218.9,95.8,219.3L95.8,219.3z"/>
<path class="st2" d="M123.2,201.7L123.2,201.7 M123.2,201.7l-5.1,6l5.1,5.7c-2.7-1.7-5.8-2.8-8.9-3.4c-1.1-0.2-2.2-0.3-3.4-0.3
	c-7.2,0-11.1,4.3-9.5,6.4c0.4,0.6,1,1,1.7,1c1.8,0,3.6-2.7,3.6-2.7s0.9,3.6-5.5,8.6c-1.9,1.5-6.1,3.3-8.1,3.4H93l0,0
	c-0.6-1.2-1-2.6-1-4c0.5,1.2,1.2,2.4,2,3.4l0.1-0.1c-0.7-1.1-1.1-2.4-1.2-3.7c0.5,1.1,1.2,2,2,2.9c0.7-0.8,1.4-1.8,1.9-2.8l0,0
	c-0.9-0.5-1.8-0.8-2.8-0.7c-0.9,0-1.8,0.2-2.6,0.5c0.3-5.4,2.3-15.4,12-20.1c-0.5,1.1,0.2,5.1,0.2,5.1c2.2-0.3,4.5-0.5,6.7-0.6
	c1,0,2,0.1,3,0.2c1.5-2.6,10.1-4.8,10.1-4.8 M102.8,210.7c0.5-0.9,0.4-1.8-1.2-2.3C102.4,208.9,102.9,209.8,102.8,210.7
	 M102.2,211.7c0.7-1.2,0.5-2.3-1.5-3C101.7,209.4,102.2,210.5,102.2,211.7 M101.4,212.8c0.8-1.5,0.6-2.9-1.9-3.8
	C100.8,209.8,101.5,211.3,101.4,212.8 M100.5,213.9c1-1.8,0.7-3.5-2.3-4.5C99.8,210.3,100.7,212.1,100.5,213.9 M97.2,217.1
	c-1.4,0.1-2.5,2.4-1.9,2.8c0.1,0.1,0.3,0.1,0.5,0.1c0.3,0,0.6-0.2,0.8-0.4C97,218.8,97.2,217.9,97.2,217.1L97.2,217.1 M123.3,200.7
	L123.3,200.7H123c-1.4,0.4-8,2.1-10.3,4.6c-0.8-0.1-1.7-0.1-2.5-0.1c-1.9,0-3.8,0.2-5.7,0.4c-0.2-1.1-0.2-2.2-0.1-3.4
	c0.2-0.6-0.1-1.3-0.7-1.5c-0.1-0.1-0.3-0.1-0.4-0.1c-0.2,0-0.3,0-0.5,0.1c-10.2,4.9-12.3,15.3-12.6,21c0,0.4,0.2,0.8,0.5,1l0.2,0.1
	c0.1,1.3,0.5,2.6,1.1,3.8c0.1,0.2,0.2,0.3,0.3,0.5c0.2,0.2,0.5,0.3,0.9,0.3h0.1c2.2-0.1,6.6-1.9,8.7-3.6c6.8-5.4,6-9.4,5.9-9.8
	c-0.1-0.4-0.5-0.8-0.9-0.9h-0.2c-0.4,0-0.8,0.2-1,0.5c-0.6,0.9-1.8,2.2-2.6,2.2c-0.1,0-0.4,0-0.8-0.6c-0.2-0.3-0.1-0.6,0.1-0.9
	c0.7-1.4,3.6-3.6,8.6-3.6c1.1,0,2.1,0.1,3.2,0.3c3,0.5,5.9,1.6,8.5,3.2c0.2,0.1,0.4,0.2,0.7,0.2c0.6,0,1.1-0.5,1.1-1.1
	c0-0.3-0.1-0.6-0.3-0.8l-4.5-4.9l4.4-5.1c0.2-0.2,0.3-0.5,0.3-0.8C124.4,201.1,123.9,200.6,123.3,200.7L123.3,200.7z M123.3,203
	L123.3,203z M94.8,222.9l-0.3-0.5c0.2,0,0.4,0.1,0.6,0.1C95,222.6,94.9,222.7,94.8,222.9z"/>
<path class="st5" d="M92.8,221.8c0.6,1.2,1.4,2.3,2.3,3.2c-0.2,0.4-0.5,0.6-0.9,0.7C94.2,225.7,92.8,223.4,92.8,221.8z M92,222.1
	c0.5,1.3,1.2,2.4,2.1,3.5c-0.3,0.3-0.6,0.6-1.1,0.6C93,226.2,91.8,223.7,92,222.1L92,222.1z"/>
<path class="st5" d="M123.2,201.7c0,0-8.6,2.2-10.1,4.8c-3.6-0.6-9.7,0.3-9.7,0.3s-0.6-4-0.2-5.1c-9.7,4.6-11.7,14.6-12,20.1
	c1.7-0.8,3.7-0.7,5.4,0.2c0.1-0.1-1.8,3.4-3.7,4.3c0,0,0.1,0,0.1,0c2-0.1,6.2-1.8,8.1-3.4c6.4-5.1,5.5-8.6,5.5-8.6s-3,4.7-5.3,1.7
	c-1.8-2.3,3.7-7.7,12.9-6.1c3.2,0.5,6.2,1.7,8.9,3.4l-5.1-5.7L123.2,201.7z M96.6,219.4c-0.3,0.4-0.9,0.6-1.3,0.3
	c-0.6-0.3,0.4-2.6,1.9-2.8C97.2,217.8,97,218.6,96.6,219.4z M100.5,213.7c0.1-1.8-0.7-3.5-2.3-4.5
	C101.2,210.2,101.5,211.9,100.5,213.7z M101.4,212.6c0.1-1.5-0.6-3-1.9-3.8C102,209.7,102.2,211.1,101.4,212.6z M102.1,211.6
	c0.1-1.2-0.5-2.3-1.5-3C102.6,209.2,102.8,210.3,102.1,211.6L102.1,211.6z M102.8,210.6c0.1-0.9-0.4-1.8-1.2-2.3
	C103.1,208.8,103.3,209.6,102.8,210.6L102.8,210.6z"/>
<path class="st2" d="M175.1,95.8c-0.1,0-0.2,0-0.3-0.1c-0.2-0.1-0.3-0.2-0.4-0.4c-0.6-1.3-1-2.7-1-4.1h-0.1c-0.1,0-0.2,0-0.3-0.1
	c-0.2-0.1-0.3-0.3-0.2-0.5c0.3-5.6,2.4-15.8,12.3-20.5c0.1,0,0.2-0.1,0.2-0.1c0.1,0,0.3,0.1,0.4,0.2c0.2,0.2,0.2,0.4,0.1,0.6
	c-0.2,1.4-0.2,2.8,0.1,4.2c2.1-0.3,4.1-0.4,6.2-0.5c0.9,0,1.8,0.1,2.8,0.2c2-2.6,9.4-4.5,10.2-4.7h0.1c0.3,0,0.6,0.2,0.6,0.5
	c0,0.2-0.1,0.4-0.2,0.5l-4.8,5.6l4.8,5.3c0.2,0.2,0.2,0.5,0,0.8c-0.1,0.1-0.3,0.2-0.4,0.2c-0.1,0-0.2,0-0.3-0.1
	c-2.7-1.6-5.6-2.8-8.7-3.3c-1.1-0.2-2.2-0.3-3.3-0.3c-4.7,0-8.2,2-9.1,3.9c-0.3,0.5-0.3,1.1,0,1.5c0.3,0.4,0.8,0.7,1.3,0.8
	c1.2,0,2.6-1.8,3.1-2.4c0.1-0.2,0.3-0.3,0.5-0.3h0.1c0.2,0,0.4,0.2,0.5,0.4c0,0.2,0.9,4-5.7,9.2C181.6,94,177.2,95.8,175.1,95.8
	L175.1,95.8z M175.5,90.8c0.4,0.7,0.8,1.4,1.4,2c0.4-0.5,0.8-1.1,1.1-1.6c-0.6-0.3-1.4-0.4-2.1-0.4L175.5,90.8z M177.8,88.3
	c0.2,0,0.3-0.1,0.4-0.2c0.2-0.4,0.3-0.8,0.4-1.2c-0.1,0.1-0.3,0.3-0.4,0.4C177.9,87.5,177.8,87.9,177.8,88.3L177.8,88.3z"/>
<path class="st2" d="M205.2,70.7L205.2,70.7 M205.2,70.7l-5.1,6l5.1,5.7c-2.7-1.7-5.8-2.8-8.9-3.4c-1.1-0.2-2.2-0.3-3.4-0.3
	c-7.2,0-11.1,4.3-9.5,6.3c0.4,0.6,1,1,1.7,1c1.8,0,3.6-2.7,3.6-2.7s0.9,3.6-5.5,8.6c-1.9,1.5-6.1,3.3-8.1,3.4H175l0,0
	c-0.6-1.2-1-2.6-1-4c0.5,1.2,1.2,2.4,2,3.4h0.1c-0.7-1.1-1.1-2.4-1.2-3.7c0.5,1.1,1.2,2,2,2.9c0.7-0.8,1.4-1.8,1.9-2.8l0,0
	c-0.9-0.5-1.8-0.8-2.8-0.7c-0.9,0-1.8,0.2-2.6,0.5c0.3-5.4,2.3-15.4,12-20c-0.5,1.1,0.1,5.1,0.1,5.1c2.2-0.3,4.5-0.5,6.7-0.6
	c1,0,2,0.1,3,0.2c1.5-2.6,10.1-4.8,10.1-4.8 M184.8,79.8c0.5-0.9,0.4-1.8-1.2-2.3C184.4,78,184.9,78.9,184.8,79.8 M184.2,80.8
	c0.7-1.2,0.5-2.3-1.5-3C183.7,78.5,184.2,79.6,184.2,80.8 M183.4,81.9c0.8-1.5,0.6-2.9-1.9-3.8C182.8,78.9,183.5,80.4,183.4,81.9
	 M182.5,83c1-1.8,0.7-3.5-2.3-4.5C181.8,79.4,182.7,81.2,182.5,83 M179.2,86.2c-1.4,0.1-2.5,2.4-1.9,2.8c0.1,0.1,0.3,0.1,0.5,0.1
	c0.3,0,0.6-0.2,0.8-0.4C179,87.9,179.2,87,179.2,86.2L179.2,86.2 M205.3,69.8L205.3,69.8H205c-1.4,0.4-8,2.1-10.3,4.6
	c-0.8-0.1-1.7-0.1-2.5-0.1c-1.9,0-3.8,0.2-5.7,0.4c-0.2-1.1-0.2-2.2-0.1-3.4c0.2-0.6-0.1-1.3-0.7-1.5c-0.1-0.1-0.3-0.1-0.4-0.1
	c-0.2,0-0.3,0-0.5,0.1c-10.1,4.9-12.3,15.3-12.6,21c0,0.4,0.2,0.8,0.5,1l0.2,0.1c0.1,1.3,0.5,2.6,1.1,3.8c0.1,0.2,0.2,0.3,0.3,0.5
	c0.2,0.2,0.5,0.3,0.9,0.3h0.1c2.2-0.1,6.6-1.9,8.7-3.6c6.8-5.4,6-9.4,5.9-9.8c-0.1-0.4-0.5-0.8-0.9-0.8h-0.2c-0.4,0-0.8,0.2-1,0.5
	c-0.6,0.9-1.8,2.2-2.6,2.2c-0.1,0-0.4,0-0.8-0.6c-0.2-0.3-0.1-0.6,0.1-0.9c0.6-1.5,3.6-3.8,8.6-3.8c1.1,0,2.1,0.1,3.2,0.3
	c3,0.5,5.9,1.6,8.5,3.2c0.2,0.1,0.4,0.2,0.6,0.2c0.6,0,1.1-0.5,1.1-1.1c0-0.3-0.1-0.6-0.3-0.8l-4.5-4.9l4.4-5.1
	c0.2-0.2,0.3-0.5,0.3-0.8c0-0.6-0.5-1.1-1.1-1.1L205.3,69.8z M205.3,72L205.3,72z M176.8,91.9l-0.3-0.5c0.2,0,0.4,0.1,0.6,0.1
	C177,91.6,176.9,91.7,176.8,91.9z"/>
<path class="st5" d="M174.9,90.8c0.6,1.2,1.4,2.3,2.3,3.2c-0.2,0.4-0.5,0.6-0.9,0.7C176.2,94.7,174.8,92.4,174.9,90.8z M174,91.2
	c0.5,1.3,1.2,2.4,2.1,3.5c-0.3,0.3-0.6,0.6-1.1,0.6C175,95.2,173.8,92.7,174,91.2L174,91.2z"/>
<path class="st5" d="M205.2,70.7c0,0-8.6,2.2-10.1,4.8c-3.6-0.6-9.7,0.3-9.7,0.3s-0.6-4-0.1-5.1c-9.7,4.7-11.6,14.7-12,20
	c1.7-0.8,3.7-0.7,5.4,0.2c0.1-0.1-1.8,3.4-3.7,4.3c0,0,0.1,0,0.1,0c2-0.1,6.1-1.8,8.1-3.4c6.4-5.1,5.5-8.6,5.5-8.6s-3,4.7-5.3,1.7
	c-1.8-2.3,3.7-7.7,12.9-6c3.2,0.5,6.2,1.7,8.9,3.4l-5.1-5.7L205.2,70.7z M178.6,88.4c-0.3,0.4-0.9,0.6-1.3,0.3
	c-0.6-0.3,0.4-2.7,1.9-2.8C179.2,86.8,179,87.6,178.6,88.4z M182.5,82.7c0.1-1.8-0.7-3.5-2.3-4.5C183.2,79.2,183.5,80.9,182.5,82.7z
	 M183.4,81.6c0.1-1.5-0.6-3-1.9-3.8C184,78.7,184.2,80.1,183.4,81.6z M184.1,80.6c0.1-1.2-0.5-2.3-1.5-3
	C184.6,78.2,184.8,79.3,184.1,80.6z M184.8,79.6c0.1-0.9-0.4-1.8-1.2-2.3C185.1,77.8,185.3,78.6,184.8,79.6L184.8,79.6z"/>
<polygon class="st0" points="28.4,46.3 25.8,41 31,41 "/>
<polygon class="st0" points="189.4,46.3 186.8,41 191.9,41 "/>
<path class="st0" d="M189.9,42.3h-1v-4h1V42.3z M189.9,34.3h-1v-4h1V34.3z M189.9,26.3h-1v-4h1V26.3z"/>
<path class="st0" d="M89.1,4.2v3h-0.8V0h2c0.7-0.1,1.4,0.1,1.9,0.5c0.4,0.4,0.6,0.9,0.6,1.5c0,0.9-0.6,1.7-1.4,1.9l1.9,3.2h-1
	l-1.7-3L89.1,4.2z M89.1,3.5h1.1c0.5,0,0.9-0.1,1.3-0.3c0.3-0.3,0.4-0.6,0.4-1c0-0.4-0.1-0.8-0.4-1c-0.4-0.3-0.9-0.4-1.3-0.4h-1.1
	V3.5z"/>
<path class="st0" d="M96.6,7.2c-0.7,0-1.4-0.2-1.9-0.7c-0.5-0.6-0.7-1.3-0.7-2c0-0.7,0.2-1.5,0.6-2.1c0.4-0.5,1.1-0.8,1.7-0.8
	c0.6,0,1.2,0.2,1.6,0.7c0.4,0.5,0.6,1.1,0.6,1.8v0.5h-3.7c0,0.5,0.2,1,0.5,1.4c0.3,0.3,0.8,0.5,1.3,0.5c0.6,0,1.2-0.1,1.7-0.4v0.7
	c-0.3,0.1-0.5,0.2-0.8,0.3C97.2,7.2,96.9,7.2,96.6,7.2z M96.4,2.4c-0.4,0-0.7,0.1-1,0.4c-0.3,0.3-0.5,0.8-0.5,1.2h2.8
	c0-0.4-0.1-0.8-0.3-1.2C97.1,2.5,96.8,2.4,96.4,2.4z"/>
<path class="st0" d="M101.9,7.2c-0.6,0-1.2-0.2-1.6-0.7c-0.4-0.6-0.6-1.3-0.6-2c0-0.7,0.2-1.5,0.6-2c0.4-0.5,1-0.8,1.6-0.7
	c0.7,0,1.3,0.3,1.7,0.8h0.1l0.1-0.7h0.6v7.7h-0.8V7.2c0-0.3,0-0.6,0.1-0.8h-0.1C103.2,7,102.5,7.3,101.9,7.2z M102,6.6
	c0.4,0,0.9-0.1,1.2-0.4c0.3-0.4,0.4-0.9,0.4-1.5V4.5c0-0.6-0.1-1.1-0.4-1.6c-0.3-0.3-0.7-0.5-1.2-0.5c-0.4,0-0.9,0.2-1.1,0.5
	c-0.3,0.5-0.4,1-0.4,1.6c0,0.5,0.1,1.1,0.4,1.5C101.1,6.4,101.6,6.6,102,6.6L102,6.6z"/>
<path class="st0" d="M106.8,1.8v3.5c0,0.4,0.1,0.7,0.3,1c0.3,0.2,0.6,0.3,0.9,0.3c0.5,0,0.9-0.1,1.2-0.5c0.3-0.4,0.4-1,0.4-1.5V1.8
	h0.8v5.3h-0.7l-0.1-0.7l0,0c-0.2,0.3-0.4,0.5-0.7,0.6c-0.3,0.1-0.7,0.2-1,0.2c-0.5,0-1.1-0.1-1.5-0.5c-0.4-0.4-0.6-0.9-0.5-1.5V1.8
	H106.8z"/>
<path class="st0" d="M114.5,7.2c-0.7,0-1.4-0.2-1.9-0.7c-0.5-0.5-0.7-1.3-0.7-2c0-0.7,0.2-1.5,0.6-2.1c0.4-0.5,1.1-0.8,1.7-0.8
	c0.6,0,1.2,0.2,1.6,0.7c0.4,0.5,0.6,1.1,0.6,1.8v0.5h-3.7c0,0.5,0.2,1,0.5,1.4c0.3,0.3,0.8,0.5,1.3,0.5c0.6,0,1.2-0.1,1.7-0.4v0.7
	c-0.3,0.1-0.5,0.2-0.8,0.3C115.1,7.2,114.8,7.2,114.5,7.2z M114.3,2.4c-0.4,0-0.7,0.1-1,0.4c-0.3,0.3-0.5,0.8-0.5,1.2h2.8
	c0-0.4-0.1-0.8-0.3-1.2C115,2.5,114.7,2.4,114.3,2.4z"/>
<path class="st0" d="M121.3,5.7c0,0.5-0.2,0.9-0.6,1.2c-0.5,0.3-1,0.4-1.6,0.4c-0.6,0-1.1-0.1-1.7-0.3V6.2c0.3,0.1,0.5,0.2,0.8,0.3
	c0.3,0.1,0.6,0.1,0.8,0.1c0.3,0,0.7,0,1-0.2c0.3-0.2,0.4-0.6,0.2-1c0-0.1-0.1-0.1-0.2-0.2c-0.3-0.2-0.7-0.4-1.1-0.5
	c-0.4-0.1-0.7-0.3-1.1-0.5c-0.2-0.1-0.4-0.3-0.5-0.5c-0.1-0.2-0.2-0.4-0.2-0.6c0-0.4,0.2-0.8,0.5-1c0.4-0.3,0.9-0.4,1.5-0.4
	c0.6,0,1.2,0.1,1.7,0.4l-0.3,0.7c-0.5-0.2-1-0.3-1.5-0.3c-0.3,0-0.6,0-0.9,0.2c-0.2,0.1-0.3,0.3-0.3,0.5c0,0.1,0,0.3,0.1,0.4
	c0.1,0.1,0.2,0.2,0.3,0.3c0.2,0.1,0.5,0.2,0.9,0.4c0.5,0.1,0.9,0.4,1.3,0.7C121.2,5.1,121.3,5.4,121.3,5.7z"/>
<path class="st0" d="M124.3,6.6c0.1,0,0.3,0,0.4,0l0.3-0.1v0.6c-0.1,0.1-0.3,0.1-0.4,0.1c-0.2,0-0.3,0-0.5,0c-1,0-1.6-0.6-1.6-1.6
	V2.4h-0.8V2l0.8-0.3l0.3-1.1h0.5v1.2h1.5v0.6h-1.6v3.2c0,0.3,0.1,0.5,0.2,0.7C123.8,6.5,124.1,6.6,124.3,6.6z"/>
<path class="st0" d="M129.6,5.7c0,0.5-0.2,0.9-0.6,1.2c-0.5,0.3-1,0.4-1.6,0.4c-0.6,0-1.1-0.1-1.7-0.3V6.2c0.3,0.1,0.5,0.2,0.8,0.3
	c0.3,0.1,0.6,0.1,0.8,0.1c0.3,0,0.7,0,1-0.2c0.3-0.2,0.4-0.6,0.2-1c0-0.1-0.1-0.1-0.2-0.2c-0.3-0.2-0.7-0.4-1.1-0.5
	c-0.4-0.1-0.7-0.3-1.1-0.5c-0.2-0.1-0.4-0.3-0.5-0.5c-0.1-0.2-0.2-0.4-0.2-0.6c0-0.4,0.2-0.8,0.5-1c0.4-0.3,0.9-0.4,1.5-0.4
	c0.6,0,1.2,0.1,1.7,0.4l-0.3,0.7c-0.5-0.2-1-0.3-1.5-0.3c-0.3,0-0.6,0-0.9,0.2c-0.2,0.1-0.3,0.3-0.3,0.5c0,0.1,0,0.3,0.1,0.4
	c0.1,0.1,0.2,0.2,0.3,0.3c0.2,0.1,0.5,0.2,0.9,0.4c0.5,0.1,0.9,0.4,1.3,0.7C129.5,5.1,129.6,5.4,129.6,5.7z"/>
<path d="M105.5,251.3c0.1,1-0.3,2-1,2.7c-0.8,0.7-1.8,1-2.8,0.9h-2v-7.1h2.3c1.8-0.2,3.3,1.1,3.5,2.9
	C105.5,250.9,105.5,251.1,105.5,251.3L105.5,251.3z M104.6,251.3c0.1-0.8-0.2-1.5-0.7-2.1c-0.6-0.5-1.3-0.8-2.1-0.7h-1.2v5.7h1
	c0.8,0.1,1.6-0.2,2.2-0.7C104.4,252.9,104.7,252.1,104.6,251.3L104.6,251.3z"/>
<path d="M111.6,254.9l-0.9-2.3h-2.9l-0.9,2.3h-0.8l2.8-7.2h0.7l2.8,7.2H111.6z M110.4,251.9l-0.8-2.2c-0.1-0.3-0.2-0.7-0.3-1
	c-0.1,0.3-0.2,0.7-0.3,1l-0.8,2.2H110.4z"/>
<path d="M117.4,253c0,0.6-0.2,1.1-0.7,1.5c-0.5,0.4-1.2,0.6-1.9,0.5c-0.7,0-1.3-0.1-1.9-0.3v-0.8c0.6,0.3,1.3,0.4,2,0.4
	c0.4,0,0.9-0.1,1.2-0.3c0.3-0.2,0.4-0.5,0.4-0.9c0-0.2,0-0.4-0.1-0.6c-0.1-0.2-0.3-0.3-0.5-0.4c-0.3-0.2-0.7-0.3-1.1-0.4
	c-0.5-0.2-1-0.4-1.4-0.8c-0.3-0.4-0.4-0.8-0.4-1.3c0-0.5,0.2-1,0.6-1.3c0.5-0.3,1.1-0.5,1.7-0.5c0.7,0,1.3,0.1,1.9,0.4l-0.3,0.7
	c-0.5-0.2-1.1-0.4-1.7-0.4c-0.4,0-0.7,0.1-1,0.3c-0.2,0.2-0.4,0.5-0.4,0.8c0,0.2,0,0.4,0.1,0.6c0.1,0.2,0.3,0.3,0.5,0.4
	c0.3,0.2,0.7,0.3,1,0.4c0.6,0.2,1.1,0.5,1.5,0.9C117.3,252.1,117.5,252.6,117.4,253z"/>
</svg>
