<svg id="b42d219c-f433-4827-934d-712b2ca42a1f" data-name="Слой 1" xmlns="http://www.w3.org/2000/svg" width="136.96" height="338.02" viewBox="0 0 136.96 338.02">
  <defs>
    <style>
      .a5dce95d-ad09-4f7d-bd8b-9171fca15fc2 {
        fill: #05acff;
      }

      .f9718647-22ec-4eea-b13d-8b54537bbc2b {
        fill: #71b429;
      }

      .b6ddf0ad-12cb-4534-addd-9d6c848b35d9 {
        fill: #fff;
      }

      .b9d554af-06f5-4102-9aa1-6f9b9e6de389 {
        fill: #e87474;
      }

      .f2189f26-ce5b-4d2e-9d1d-716ced98cc78 {
        fill: #f0981b;
      }

      .a6ef3aed-aa88-4dc4-8af9-919ef428a5d2 {
        fill: #5e6981;
      }
    </style>
  </defs>
  <g>
    <path class="a5dce95d-ad09-4f7d-bd8b-9171fca15fc2" d="M43.08,235.32v-7.16h3.17a4.22,4.22,0,0,1,1.46.2,1.53,1.53,0,0,1,.79.68,2,2,0,0,1,.3,1.08,1.8,1.8,0,0,1-.49,1.28,2.47,2.47,0,0,1-1.53.66,2.35,2.35,0,0,1,.57.36,4.8,4.8,0,0,1,.79,1l1.25,1.95h-1.2l-.94-1.49c-.28-.43-.51-.76-.69-1a2.14,2.14,0,0,0-.48-.48,1.26,1.26,0,0,0-.43-.19,2.25,2.25,0,0,0-.53,0H44v3.18Zm.94-4h2a3.12,3.12,0,0,0,1-.13,1,1,0,0,0,.55-.43,1.14,1.14,0,0,0,.19-.64,1.07,1.07,0,0,0-.37-.84,1.69,1.69,0,0,0-1.16-.33H44Z"/>
    <path class="a5dce95d-ad09-4f7d-bd8b-9171fca15fc2" d="M53.72,233.65l.91.11a2.2,2.2,0,0,1-.8,1.24,2.39,2.39,0,0,1-1.48.44,2.34,2.34,0,0,1-1.8-.7,2.72,2.72,0,0,1-.67-2,2.86,2.86,0,0,1,.67-2A2.28,2.28,0,0,1,52.3,230a2.2,2.2,0,0,1,1.7.71,2.8,2.8,0,0,1,.66,2,2.2,2.2,0,0,1,0,.23H50.79a2,2,0,0,0,.48,1.31,1.45,1.45,0,0,0,1.08.46,1.35,1.35,0,0,0,.83-.26A1.65,1.65,0,0,0,53.72,233.65Zm-2.88-1.42h2.89a1.77,1.77,0,0,0-.33-1,1.34,1.34,0,0,0-1.09-.51,1.42,1.42,0,0,0-1,.41A1.57,1.57,0,0,0,50.84,232.23Z"/>
    <path class="a5dce95d-ad09-4f7d-bd8b-9171fca15fc2" d="M55.73,237.31v-7.17h.8v.67a2.08,2.08,0,0,1,.64-.59A1.7,1.7,0,0,1,58,230a2,2,0,0,1,1.17.34,2.14,2.14,0,0,1,.77,1,3.51,3.51,0,0,1,.25,1.36,3.44,3.44,0,0,1-.28,1.43,2.17,2.17,0,0,1-.83,1,2.11,2.11,0,0,1-1.15.34,1.55,1.55,0,0,1-.78-.19,1.69,1.69,0,0,1-.58-.47v2.53Zm.8-4.55a2.27,2.27,0,0,0,.4,1.48,1.25,1.25,0,0,0,1,.48,1.27,1.27,0,0,0,1-.5,2.34,2.34,0,0,0,.42-1.54,2.29,2.29,0,0,0-.41-1.48,1.23,1.23,0,0,0-1-.49,1.26,1.26,0,0,0-1,.52A2.34,2.34,0,0,0,56.53,232.76Z"/>
    <path class="a5dce95d-ad09-4f7d-bd8b-9171fca15fc2" d="M61.27,235.32v-7.16h.88v7.16Z"/>
    <path class="a5dce95d-ad09-4f7d-bd8b-9171fca15fc2" d="M63.52,229.17v-1h.88v1Zm0,6.15v-5.18h.88v5.18Z"/>
    <path class="a5dce95d-ad09-4f7d-bd8b-9171fca15fc2" d="M69.12,233.42l.87.11a2.24,2.24,0,0,1-.73,1.4,2.11,2.11,0,0,1-1.43.51,2.2,2.2,0,0,1-1.71-.7,2.78,2.78,0,0,1-.65-2,3.54,3.54,0,0,1,.28-1.47,2,2,0,0,1,.84-.95,2.54,2.54,0,0,1,1.24-.31,2.11,2.11,0,0,1,1.38.43,1.91,1.91,0,0,1,.69,1.21l-.85.13a1.47,1.47,0,0,0-.43-.79,1.16,1.16,0,0,0-.75-.26,1.34,1.34,0,0,0-1.08.48,2.22,2.22,0,0,0-.42,1.5,2.37,2.37,0,0,0,.4,1.52,1.31,1.31,0,0,0,1,.48,1.24,1.24,0,0,0,.86-.32A1.58,1.58,0,0,0,69.12,233.42Z"/>
    <path class="a5dce95d-ad09-4f7d-bd8b-9171fca15fc2" d="M74.12,234.68a3.3,3.3,0,0,1-.94.59,2.78,2.78,0,0,1-1,.17A1.87,1.87,0,0,1,70.9,235a1.36,1.36,0,0,1-.46-1.07,1.47,1.47,0,0,1,.17-.69,1.51,1.51,0,0,1,.46-.51,2.43,2.43,0,0,1,.63-.29,6.85,6.85,0,0,1,.78-.13,7.64,7.64,0,0,0,1.57-.3v-.23a1,1,0,0,0-.25-.76,1.49,1.49,0,0,0-1-.29,1.57,1.57,0,0,0-.91.21,1.36,1.36,0,0,0-.44.77l-.86-.11a2.19,2.19,0,0,1,.39-.9,1.7,1.7,0,0,1,.77-.52,3.53,3.53,0,0,1,1.18-.18,3.26,3.26,0,0,1,1.08.15,1.44,1.44,0,0,1,.61.4,1.33,1.33,0,0,1,.27.6,4.68,4.68,0,0,1,0,.81v1.17a14.9,14.9,0,0,0,0,1.55,1.87,1.87,0,0,0,.23.62H74.3A1.93,1.93,0,0,1,74.12,234.68Zm-.07-2a6.45,6.45,0,0,1-1.44.33,2.9,2.9,0,0,0-.76.18.76.76,0,0,0-.35.28.8.8,0,0,0,.14,1,1.19,1.19,0,0,0,.78.23,1.83,1.83,0,0,0,.91-.22,1.42,1.42,0,0,0,.58-.61,2.2,2.2,0,0,0,.14-.88Z"/>
    <path class="a5dce95d-ad09-4f7d-bd8b-9171fca15fc2" d="M78.22,234.54l.13.77a3.47,3.47,0,0,1-.67.08,1.49,1.49,0,0,1-.74-.15.84.84,0,0,1-.37-.4,3.16,3.16,0,0,1-.11-1v-3h-.64v-.68h.64v-1.29l.87-.53v1.82h.89v.68h-.89v3a1.49,1.49,0,0,0,0,.48.38.38,0,0,0,.15.18.61.61,0,0,0,.3.06Z"/>
    <path class="a5dce95d-ad09-4f7d-bd8b-9171fca15fc2" d="M79.08,229.17v-1H80v1Zm0,6.15v-5.18H80v5.18Z"/>
    <path class="a5dce95d-ad09-4f7d-bd8b-9171fca15fc2" d="M81,232.73a2.71,2.71,0,0,1,.8-2.14A2.44,2.44,0,0,1,83.4,230a2.31,2.31,0,0,1,1.75.7,2.68,2.68,0,0,1,.68,1.94,3.43,3.43,0,0,1-.3,1.57,2.13,2.13,0,0,1-.87.89,2.59,2.59,0,0,1-1.26.32,2.33,2.33,0,0,1-1.76-.7A2.83,2.83,0,0,1,81,232.73Zm.91,0a2.21,2.21,0,0,0,.43,1.49,1.44,1.44,0,0,0,2.18,0,2.26,2.26,0,0,0,.44-1.52,2.16,2.16,0,0,0-.44-1.46,1.46,1.46,0,0,0-2.18,0A2.19,2.19,0,0,0,81.88,232.73Z"/>
    <path class="a5dce95d-ad09-4f7d-bd8b-9171fca15fc2" d="M86.86,235.32v-5.18h.79v.73A1.86,1.86,0,0,1,89.3,230a2.2,2.2,0,0,1,.86.17,1.31,1.31,0,0,1,.59.44,1.83,1.83,0,0,1,.28.65,5.6,5.6,0,0,1,0,.85v3.19H90.2v-3.15a2.34,2.34,0,0,0-.11-.81.86.86,0,0,0-.36-.42,1.13,1.13,0,0,0-.61-.16,1.4,1.4,0,0,0-1,.36,1.75,1.75,0,0,0-.41,1.35v2.83Z"/>
  </g>
  <rect class="a5dce95d-ad09-4f7d-bd8b-9171fca15fc2" x="66.72" y="244.6" width="1.15" height="21.29"/>
  <rect class="a5dce95d-ad09-4f7d-bd8b-9171fca15fc2" x="26.72" y="243.9" width="40.53" height="1.15"/>
  <rect class="a5dce95d-ad09-4f7d-bd8b-9171fca15fc2" x="26.61" y="222.6" width="1.15" height="21.29"/>
  <polygon class="a5dce95d-ad09-4f7d-bd8b-9171fca15fc2" points="27.19 218.96 24.6 224.33 29.78 224.33 27.19 218.96"/>
  <polygon class="a5dce95d-ad09-4f7d-bd8b-9171fca15fc2" points="108.67 218.96 106.08 224.33 111.26 224.33 108.67 218.96"/>
  <rect class="a5dce95d-ad09-4f7d-bd8b-9171fca15fc2" x="107.81" y="225.48" width="1.15" height="1.73"/>
  <path class="a5dce95d-ad09-4f7d-bd8b-9171fca15fc2" d="M109,239.87h-1.15v-3.46H109Zm0-6.33h-1.15v-3.46H109Z"/>
  <polygon class="a5dce95d-ad09-4f7d-bd8b-9171fca15fc2" points="108.96 245.05 106.66 245.05 106.66 243.9 107.81 243.9 107.81 242.75 108.96 242.75 108.96 245.05"/>
  <rect class="a5dce95d-ad09-4f7d-bd8b-9171fca15fc2" x="100.07" y="243.9" width="3.59" height="1.15"/>
  <rect class="a5dce95d-ad09-4f7d-bd8b-9171fca15fc2" x="93.49" y="243.9" width="3.59" height="1.15"/>
  <rect class="a5dce95d-ad09-4f7d-bd8b-9171fca15fc2" x="86.91" y="243.9" width="3.59" height="1.15"/>
  <rect class="a5dce95d-ad09-4f7d-bd8b-9171fca15fc2" x="80.33" y="243.9" width="3.59" height="1.15"/>
  <rect class="a5dce95d-ad09-4f7d-bd8b-9171fca15fc2" x="73.75" y="243.9" width="3.59" height="1.15"/>
  <rect class="a5dce95d-ad09-4f7d-bd8b-9171fca15fc2" x="67.17" y="243.9" width="3.59" height="1.15"/>
  <rect class="a5dce95d-ad09-4f7d-bd8b-9171fca15fc2" x="29.54" y="243.9" width="1.73" height="1.15"/>
  <g>
    <rect class="f9718647-22ec-4eea-b13d-8b54537bbc2b" x="66.72" y="80.96" width="1.15" height="21.29"/>
    <rect class="f9718647-22ec-4eea-b13d-8b54537bbc2b" x="26.72" y="101.81" width="40.53" height="1.15"/>
    <rect class="f9718647-22ec-4eea-b13d-8b54537bbc2b" x="26.61" y="102.96" width="1.15" height="21.29"/>
    <polygon class="f9718647-22ec-4eea-b13d-8b54537bbc2b" points="27.19 127.9 24.6 122.52 29.78 122.52 27.19 127.9"/>
    <polygon class="f9718647-22ec-4eea-b13d-8b54537bbc2b" points="108.67 127.9 106.08 122.52 111.26 122.52 108.67 127.9"/>
    <rect class="f9718647-22ec-4eea-b13d-8b54537bbc2b" x="107.81" y="119.65" width="1.15" height="1.73"/>
    <path class="f9718647-22ec-4eea-b13d-8b54537bbc2b" d="M109,110.44h-1.15V107H109Zm0,6.33h-1.15v-3.45H109Z"/>
    <polygon class="f9718647-22ec-4eea-b13d-8b54537bbc2b" points="108.96 101.81 106.66 101.81 106.66 102.96 107.81 102.96 107.81 104.11 108.96 104.11 108.96 101.81"/>
    <rect class="f9718647-22ec-4eea-b13d-8b54537bbc2b" x="100.07" y="101.81" width="3.59" height="1.15"/>
    <rect class="f9718647-22ec-4eea-b13d-8b54537bbc2b" x="93.49" y="101.81" width="3.59" height="1.15"/>
    <rect class="f9718647-22ec-4eea-b13d-8b54537bbc2b" x="86.91" y="101.81" width="3.59" height="1.15"/>
    <rect class="f9718647-22ec-4eea-b13d-8b54537bbc2b" x="80.33" y="101.81" width="3.59" height="1.15"/>
    <rect class="f9718647-22ec-4eea-b13d-8b54537bbc2b" x="73.75" y="101.81" width="3.59" height="1.15"/>
    <rect class="f9718647-22ec-4eea-b13d-8b54537bbc2b" x="67.17" y="101.81" width="3.59" height="1.15"/>
    <rect class="f9718647-22ec-4eea-b13d-8b54537bbc2b" x="29.54" y="101.81" width="1.73" height="1.15"/>
  </g>
  <rect class="b6ddf0ad-12cb-4534-addd-9d6c848b35d9" x="40.5" y="269.32" width="54.67" height="54.67" rx="3"/>
  <g>
    <path class="b9d554af-06f5-4102-9aa1-6f9b9e6de389" d="M95.75,272.33V321a3.59,3.59,0,0,1-3.58,3.58H43.5A3.59,3.59,0,0,1,39.92,321V272.33a3.58,3.58,0,0,1,3.58-3.58H92.17A3.58,3.58,0,0,1,95.75,272.33Zm-3.58,51.09A2.43,2.43,0,0,0,94.59,321V272.33a2.43,2.43,0,0,0-2.42-2.43H43.5a2.42,2.42,0,0,0-2.42,2.43V321a2.42,2.42,0,0,0,2.42,2.43Z"/>
    <path class="b9d554af-06f5-4102-9aa1-6f9b9e6de389" d="M92.17,325.07H43.5A4.08,4.08,0,0,1,39.43,321V272.33a4.08,4.08,0,0,1,4.07-4.08H92.17a4.08,4.08,0,0,1,4.08,4.08V321A4.08,4.08,0,0,1,92.17,325.07ZM43.5,269.25a3.08,3.08,0,0,0-3.07,3.08V321a3.08,3.08,0,0,0,3.07,3.08H92.17A3.09,3.09,0,0,0,95.25,321V272.33a3.09,3.09,0,0,0-3.08-3.08Zm48.67,54.67H43.5A2.93,2.93,0,0,1,40.58,321V272.33a2.93,2.93,0,0,1,2.92-2.93H92.17a2.93,2.93,0,0,1,2.93,2.93V321A2.94,2.94,0,0,1,92.17,323.92ZM43.5,270.4a1.92,1.92,0,0,0-1.92,1.93V321a1.93,1.93,0,0,0,1.92,1.93H92.17A1.94,1.94,0,0,0,94.1,321V272.33a1.93,1.93,0,0,0-1.93-1.93Z"/>
  </g>
  <g>
    <g>
      <path class="b6ddf0ad-12cb-4534-addd-9d6c848b35d9" d="M52.72,309.79a.58.58,0,0,1-.26-.06.56.56,0,0,1-.2-.11.64.64,0,0,1-.18-.27,10,10,0,0,1-1-4.09h-.14a.51.51,0,0,1-.32-.1.53.53,0,0,1-.25-.5c.35-5.62,2.41-15.77,12.3-20.53a.57.57,0,0,1,.25-.06.59.59,0,0,1,.39.16.57.57,0,0,1,.14.63,13.65,13.65,0,0,0,.11,4.22,47.57,47.57,0,0,1,6.2-.47,20.09,20.09,0,0,1,2.76.17c2-2.55,9.37-4.47,10.23-4.69l.14,0a.58.58,0,0,1,.49.27.59.59,0,0,1,0,.68l-4.81,5.56,4.8,5.28a.58.58,0,0,1,0,.76.57.57,0,0,1-.43.2.63.63,0,0,1-.32-.1,23.61,23.61,0,0,0-8.7-3.26,18.31,18.31,0,0,0-3.26-.3c-4.73,0-8.16,2-9.1,3.91a1.42,1.42,0,0,0,0,1.52,1.66,1.66,0,0,0,1.29.76c1.25,0,2.64-1.77,3.06-2.45a.58.58,0,0,1,.49-.27h.09a.58.58,0,0,1,.46.43c0,.16.89,4-5.72,9.23-2,1.62-6.37,3.41-8.41,3.49Zm.38-5a12.44,12.44,0,0,0,1.35,2,17.15,17.15,0,0,0,1.11-1.63,5.11,5.11,0,0,0-2.07-.42Zm2.29-2.52a.53.53,0,0,0,.38-.22,2.81,2.81,0,0,0,.38-1.21,2,2,0,0,0-.37.4,2.4,2.4,0,0,0-.47,1Z"/>
      <path class="b6ddf0ad-12cb-4534-addd-9d6c848b35d9" d="M82.86,284.65h0m0,0-5.13,6,5.13,5.66a24.18,24.18,0,0,0-8.92-3.36,20.23,20.23,0,0,0-3.36-.3c-7.16,0-11.14,4.31-9.54,6.35a2.2,2.2,0,0,0,1.74,1c1.84,0,3.55-2.72,3.55-2.72s.87,3.55-5.53,8.64c-1.93,1.53-6.13,3.3-8.08,3.37l-.07,0h0c0-.08-1.2-2.49-1-4a13.89,13.89,0,0,0,2,3.38l.06,0a8.39,8.39,0,0,1-1.22-3.69,13.6,13.6,0,0,0,2,2.91,13.18,13.18,0,0,0,1.88-2.77h0a5.52,5.52,0,0,0-2.83-.74,6.62,6.62,0,0,0-2.58.52c.33-5.4,2.32-15.4,12-20.05-.46,1.12.15,5.09.15,5.09a49.28,49.28,0,0,1,6.69-.55,17.7,17.7,0,0,1,3,.22c1.51-2.58,10.11-4.76,10.11-4.76m-20.47,8.91c.51-.93.36-1.77-1.16-2.29a2.48,2.48,0,0,1,1.16,2.29m-.65,1c.66-1.23.48-2.34-1.52-3a3.32,3.32,0,0,1,1.52,3M61,295.63c.82-1.54.58-2.91-1.9-3.76a4.11,4.11,0,0,1,1.9,3.76m-.88,1.07c1-1.84.7-3.47-2.27-4.5a4.92,4.92,0,0,1,2.27,4.5m-3.32,3.22c-1.45.11-2.47,2.44-1.89,2.76a1,1,0,0,0,.49.13,1.07,1.07,0,0,0,.83-.43,5.42,5.42,0,0,0,.57-2.46h0m26.07-16.41h-.09l-.21,0c-1.45.37-8,2.14-10.3,4.63a23.67,23.67,0,0,0-2.53-.13,47,47,0,0,0-5.71.4,12,12,0,0,1-.07-3.37,1.18,1.18,0,0,0-.29-1.26,1.17,1.17,0,0,0-.78-.31,1.21,1.21,0,0,0-.49.11c-10.15,4.89-12.27,15.27-12.62,21a1.12,1.12,0,0,0,.5,1l.2.11a11.46,11.46,0,0,0,1.08,3.81,1.25,1.25,0,0,0,.31.46,1.41,1.41,0,0,0,.86.33h.05c2.17-.08,6.59-1.91,8.74-3.62,6.78-5.39,6-9.37,5.93-9.81a1.15,1.15,0,0,0-.93-.85h-.18a1.15,1.15,0,0,0-1,.53c-.56.88-1.76,2.19-2.58,2.19-.1,0-.41,0-.84-.55-.2-.25-.08-.63.05-.91.67-1.39,3.6-3.59,8.59-3.59a18.21,18.21,0,0,1,3.16.29,23.32,23.32,0,0,1,8.47,3.16,1.14,1.14,0,0,0,.65.21,1.14,1.14,0,0,0,.85-1.91l-4.46-4.91,4.45-5.14a1.16,1.16,0,0,0,.31-.79,1.14,1.14,0,0,0-1.13-1.14Zm0,2.28h0ZM54.44,305.85l-.34-.49a4,4,0,0,1,.6.11l-.26.38Z"/>
    </g>
    <g>
      <path class="f2189f26-ce5b-4d2e-9d1d-716ced98cc78" d="M52.47,304.78A13,13,0,0,0,54.75,308a1.54,1.54,0,0,1-.91.74S52.4,306.38,52.47,304.78Zm-.84.36a13.94,13.94,0,0,0,2.08,3.47,1.42,1.42,0,0,1-1.07.58S51.43,306.71,51.63,305.14Z"/>
      <path class="f2189f26-ce5b-4d2e-9d1d-716ced98cc78" d="M82.86,284.65s-8.6,2.18-10.11,4.76c-3.6-.64-9.71.33-9.71.33s-.61-4-.15-5.09c-9.66,4.65-11.65,14.65-12,20.05a6.21,6.21,0,0,1,5.41.22c.11-.08-1.79,3.44-3.69,4.26,0,0,.11,0,.09,0,2-.07,6.15-1.84,8.08-3.37,6.4-5.09,5.53-8.64,5.53-8.64S63.38,301.92,61,299c-1.84-2.34,3.68-7.67,12.9-6.05a24.18,24.18,0,0,1,8.92,3.36l-5.13-5.66ZM56.22,302.38a1,1,0,0,1-1.32.3c-.58-.32.44-2.65,1.89-2.76A5.34,5.34,0,0,1,56.22,302.38Zm3.89-5.68a4.92,4.92,0,0,0-2.27-4.5C60.81,293.23,61.09,294.86,60.11,296.7Zm.88-1.07a4.11,4.11,0,0,0-1.9-3.76C61.57,292.72,61.81,294.09,61,295.63Zm.75-1.07a3.32,3.32,0,0,0-1.52-3C62.22,292.22,62.4,293.33,61.74,294.56Zm.65-1a2.48,2.48,0,0,0-1.16-2.29C62.75,291.79,62.9,292.63,62.39,293.56Z"/>
    </g>
  </g>
  <g>
    <rect class="b6ddf0ad-12cb-4534-addd-9d6c848b35d9" x="0.58" y="137.07" width="54.67" height="54.67" rx="3"/>
    <path class="a5dce95d-ad09-4f7d-bd8b-9171fca15fc2" d="M52.24,192.31H3.58A3.58,3.58,0,0,1,0,188.73V140.07a3.59,3.59,0,0,1,3.58-3.58H52.24a3.59,3.59,0,0,1,3.58,3.58v48.66A3.58,3.58,0,0,1,52.24,192.31ZM3.58,137.64a2.43,2.43,0,0,0-2.43,2.43v48.66a2.43,2.43,0,0,0,2.43,2.43H52.24a2.43,2.43,0,0,0,2.43-2.43V140.07a2.43,2.43,0,0,0-2.43-2.43Z"/>
    <path class="a5dce95d-ad09-4f7d-bd8b-9171fca15fc2" d="M133.42,192.28H130v-1.15h3.42Zm-6.32,0h-3.42v-1.15h3.42Zm-6.27,0H117.4v-1.15h3.43Zm-6.28,0h-3.43v-1.15h3.43Zm-6.28,0h-3.43v-1.15h3.43Zm-6.28,0H98.56v-1.15H102Zm-6.28,0H92.28v-1.15h3.43Zm-6.28,0H86v-1.15h3.42Zm-6.5-.48a3.62,3.62,0,0,1-1.79-3.1v-.28h1.15v.28a2.45,2.45,0,0,0,1.22,2.1Zm53.39-1.06-.95-.66a2.38,2.38,0,0,0,.44-1.38v-1.6H137v1.6A3.55,3.55,0,0,1,136.32,190.74Zm-54-5.17H81.14v-3.43h1.15ZM137,184.25h-1.15v-3.43H137Zm-54.67-5H81.14v-3.43h1.15ZM137,178h-1.15v-3.43H137Zm-54.67-5H81.14v-3.43h1.15ZM137,171.69h-1.15v-3.43H137Zm-54.67-5H81.14V163.3h1.15ZM137,165.41h-1.15V162H137Zm-54.67-5H81.14V157h1.15ZM137,159.13h-1.15v-3.42H137Zm-54.67-5H81.14v-3.42h1.15ZM137,152.85h-1.15v-3.42H137Zm-54.67-5H81.14v-3.42h1.15ZM137,146.57h-1.15v-3.42H137Zm-54.67-5H81.14V140A3.56,3.56,0,0,1,81.8,138l.94.67a2.4,2.4,0,0,0-.45,1.39ZM137,140.29h-1.15V140a2.42,2.42,0,0,0-1.23-2.1l.57-1A3.57,3.57,0,0,1,137,140Zm-4.88-2.68h-3.42v-1.15h3.42Zm-6.28,0h-3.42v-1.15h3.42Zm-6.28,0H116.1v-1.15h3.42Zm-6.28,0h-3.42v-1.15h3.42Zm-6.28,0h-3.42v-1.15H107Zm-6.27,0H97.26v-1.15h3.43Zm-6.28,0H91v-1.15h3.43Zm-6.28,0H84.72l0-1.15h3.43Z"/>
    <circle class="a6ef3aed-aa88-4dc4-8af9-919ef428a5d2" cx="72.74" cy="164.4" r="1.44"/>
    <circle class="a6ef3aed-aa88-4dc4-8af9-919ef428a5d2" cx="68.14" cy="164.4" r="1.44"/>
    <circle class="a6ef3aed-aa88-4dc4-8af9-919ef428a5d2" cx="63.53" cy="164.4" r="1.44"/>
    <g>
      <path class="b6ddf0ad-12cb-4534-addd-9d6c848b35d9" d="M14.85,205.28H14l-1.44-4.78c-.07-.21-.14-.48-.23-.8a4.49,4.49,0,0,1-.13-.58,11.86,11.86,0,0,1-.34,1.41l-1.4,4.75H9.67l-1.9-7.14h.88l1.13,4.41c.15.62.27,1.18.34,1.68a12.87,12.87,0,0,1,.39-1.74l1.28-4.35h.88L14,202.52a13.51,13.51,0,0,1,.4,1.71,15.11,15.11,0,0,1,.35-1.69l1.12-4.4h.88Z"/>
      <path class="b6ddf0ad-12cb-4534-addd-9d6c848b35d9" d="M22.38,202.6a3,3,0,0,1-.66,2.05,2.33,2.33,0,0,1-1.83.73,2.37,2.37,0,0,1-1.27-.34,2.18,2.18,0,0,1-.86-1,3.4,3.4,0,0,1-.3-1.48,3,3,0,0,1,.65-2,2.34,2.34,0,0,1,1.82-.73,2.25,2.25,0,0,1,1.78.75A3,3,0,0,1,22.38,202.6Zm-4.08,0a2.51,2.51,0,0,0,.41,1.57,1.43,1.43,0,0,0,1.2.53,1.44,1.44,0,0,0,1.21-.53,2.51,2.51,0,0,0,.42-1.57,2.47,2.47,0,0,0-.42-1.55,1.45,1.45,0,0,0-1.22-.53,1.43,1.43,0,0,0-1.2.53A2.48,2.48,0,0,0,18.3,202.6Z"/>
      <path class="b6ddf0ad-12cb-4534-addd-9d6c848b35d9" d="M26.24,199.83a3.1,3.1,0,0,1,.64.06l-.11.75a3.59,3.59,0,0,0-.59-.07,1.44,1.44,0,0,0-1.11.53,1.91,1.91,0,0,0-.46,1.31v2.87H23.8v-5.35h.67l.09,1h0a2.32,2.32,0,0,1,.71-.8A1.65,1.65,0,0,1,26.24,199.83Z"/>
      <path class="b6ddf0ad-12cb-4534-addd-9d6c848b35d9" d="M28.68,202.54c.14-.19.35-.45.64-.78l1.73-1.83h1l-2.17,2.28,2.32,3.07h-1l-1.89-2.53-.61.53v2h-.8v-7.59h.8v4c0,.18,0,.46,0,.83Z"/>
      <path class="b6ddf0ad-12cb-4534-addd-9d6c848b35d9" d="M35.39,205.38a2.45,2.45,0,0,1-1.87-.72,2.79,2.79,0,0,1-.69-2,3.05,3.05,0,0,1,.64-2.05,2.1,2.1,0,0,1,1.71-.77,2,2,0,0,1,1.59.67,2.53,2.53,0,0,1,.59,1.74v.51H33.67a2.13,2.13,0,0,0,.47,1.43,1.66,1.66,0,0,0,1.28.49,4.38,4.38,0,0,0,1.71-.36V205a3.73,3.73,0,0,1-.82.27A4.77,4.77,0,0,1,35.39,205.38Zm-.22-4.87a1.33,1.33,0,0,0-1,.42,2,2,0,0,0-.45,1.17h2.8a1.77,1.77,0,0,0-.35-1.18A1.19,1.19,0,0,0,35.17,200.51Z"/>
      <path class="b6ddf0ad-12cb-4534-addd-9d6c848b35d9" d="M41.18,199.83a3.1,3.1,0,0,1,.64.06l-.11.75a3.59,3.59,0,0,0-.59-.07,1.44,1.44,0,0,0-1.11.53,1.91,1.91,0,0,0-.46,1.31v2.87h-.81v-5.35h.67l.09,1h0a2.35,2.35,0,0,1,.72-.8A1.59,1.59,0,0,1,41.18,199.83Z"/>
      <path class="b6ddf0ad-12cb-4534-addd-9d6c848b35d9" d="M48.05,205.28h-.79V200.2c0-.43,0-.83,0-1.21l-.23.22-1.16.95-.43-.56,1.89-1.46h.68Z"/>
    </g>
    <g>
      <path class="b6ddf0ad-12cb-4534-addd-9d6c848b35d9" d="M94.61,205.28h-.82l-1.44-4.78c-.07-.21-.15-.48-.23-.8a3.17,3.17,0,0,1-.13-.58,10.32,10.32,0,0,1-.35,1.41l-1.39,4.75h-.82l-1.9-7.14h.88l1.13,4.41c.15.62.27,1.18.34,1.68a10.42,10.42,0,0,1,.39-1.74l1.28-4.35h.88l1.34,4.38a13.58,13.58,0,0,1,.39,1.71,15.45,15.45,0,0,1,.36-1.69l1.12-4.4h.88Z"/>
      <path class="b6ddf0ad-12cb-4534-addd-9d6c848b35d9" d="M102.13,202.6a3,3,0,0,1-.66,2.05,2.31,2.31,0,0,1-1.82.73,2.34,2.34,0,0,1-1.27-.34,2.18,2.18,0,0,1-.86-1,3.4,3.4,0,0,1-.3-1.48,2.94,2.94,0,0,1,.65-2,2.34,2.34,0,0,1,1.82-.73,2.25,2.25,0,0,1,1.78.75A2.94,2.94,0,0,1,102.13,202.6Zm-4.07,0a2.51,2.51,0,0,0,.41,1.57,1.43,1.43,0,0,0,1.2.53,1.44,1.44,0,0,0,1.21-.53,2.51,2.51,0,0,0,.41-1.57,2.47,2.47,0,0,0-.41-1.55,1.45,1.45,0,0,0-1.22-.53,1.43,1.43,0,0,0-1.2.53A2.48,2.48,0,0,0,98.06,202.6Z"/>
      <path class="b6ddf0ad-12cb-4534-addd-9d6c848b35d9" d="M106,199.83a3,3,0,0,1,.63.06l-.11.75a3.36,3.36,0,0,0-.58-.07,1.41,1.41,0,0,0-1.11.53,1.91,1.91,0,0,0-.47,1.31v2.87h-.81v-5.35h.67l.1,1h0a2.35,2.35,0,0,1,.72-.8A1.63,1.63,0,0,1,106,199.83Z"/>
      <path class="b6ddf0ad-12cb-4534-addd-9d6c848b35d9" d="M108.44,202.54c.14-.19.35-.45.64-.78l1.72-1.83h1l-2.17,2.28,2.32,3.07h-1l-1.89-2.53-.61.53v2h-.8v-7.59h.8v4c0,.18,0,.46,0,.83Z"/>
      <path class="b6ddf0ad-12cb-4534-addd-9d6c848b35d9" d="M115.15,205.38a2.47,2.47,0,0,1-1.88-.72,2.83,2.83,0,0,1-.68-2,3.1,3.1,0,0,1,.63-2.05,2.14,2.14,0,0,1,1.72-.77,2,2,0,0,1,1.59.67,2.52,2.52,0,0,1,.58,1.74v.51h-3.68a2.08,2.08,0,0,0,.47,1.43,1.64,1.64,0,0,0,1.27.49,4.3,4.3,0,0,0,1.71-.36V205a3.5,3.5,0,0,1-.81.27A4.77,4.77,0,0,1,115.15,205.38Zm-.22-4.87a1.32,1.32,0,0,0-1,.42,1.89,1.89,0,0,0-.45,1.17h2.79a1.77,1.77,0,0,0-.34-1.18A1.2,1.2,0,0,0,114.93,200.51Z"/>
      <path class="b6ddf0ad-12cb-4534-addd-9d6c848b35d9" d="M120.94,199.83a3.16,3.16,0,0,1,.64.06l-.12.75a3.36,3.36,0,0,0-.58-.07,1.44,1.44,0,0,0-1.11.53,1.91,1.91,0,0,0-.46,1.31v2.87h-.81v-5.35h.66l.1,1h0a2.23,2.23,0,0,1,.71-.8A1.63,1.63,0,0,1,120.94,199.83Z"/>
      <path class="b6ddf0ad-12cb-4534-addd-9d6c848b35d9" d="M130.87,205.28h-.94l-3.91-6h0c.05.71.07,1.35.07,1.94v4.05h-.76v-7.14h.93l3.9,6h0c0-.09,0-.37,0-.85s0-.81,0-1v-4.1h.77Z"/>
    </g>
    <g>
      <g>
        <path class="b6ddf0ad-12cb-4534-addd-9d6c848b35d9" d="M12.8,178.79a.58.58,0,0,1-.26-.06.43.43,0,0,1-.2-.11.5.5,0,0,1-.18-.27,10.1,10.1,0,0,1-1-4.09H11a.55.55,0,0,1-.32-.1.56.56,0,0,1-.25-.5c.35-5.62,2.41-15.77,12.31-20.53a.53.53,0,0,1,.24-.06.59.59,0,0,1,.4.16.57.57,0,0,1,.13.63,14,14,0,0,0,.11,4.22,47.57,47.57,0,0,1,6.2-.47,20,20,0,0,1,2.76.17c2-2.55,9.37-4.47,10.24-4.69l.14,0a.57.57,0,0,1,.43.95l-4.81,5.56,4.8,5.28a.57.57,0,0,1-.42,1,.67.67,0,0,1-.33-.1,23.51,23.51,0,0,0-8.69-3.26,18.5,18.5,0,0,0-3.27-.3c-4.73,0-8.16,2-9.1,3.91a1.44,1.44,0,0,0,0,1.52,1.68,1.68,0,0,0,1.29.76c1.25,0,2.64-1.77,3.07-2.45a.57.57,0,0,1,.48-.27h.09a.59.59,0,0,1,.47.43c0,.16.89,4-5.73,9.23-2,1.62-6.36,3.41-8.41,3.49Zm.37-5a12.48,12.48,0,0,0,1.36,2,16.76,16.76,0,0,0,1.1-1.63,5.09,5.09,0,0,0-2.06-.42Zm2.29-2.52a.55.55,0,0,0,.39-.22,2.83,2.83,0,0,0,.37-1.21,2.4,2.4,0,0,0-.37.4,2.53,2.53,0,0,0-.47,1Z"/>
        <path class="b6ddf0ad-12cb-4534-addd-9d6c848b35d9" d="M42.94,153.65h0m0,0L37.8,159.6l5.14,5.66A24.28,24.28,0,0,0,34,161.9a20.34,20.34,0,0,0-3.37-.3c-7.15,0-11.14,4.31-9.53,6.35a2.19,2.19,0,0,0,1.73,1c1.85,0,3.55-2.72,3.55-2.72s.88,3.55-5.52,8.64c-1.94,1.53-6.13,3.3-8.08,3.37l-.08,0h0c0-.08-1.21-2.49-1-4a13.89,13.89,0,0,0,2,3.38s0,0,0-.05a8.53,8.53,0,0,1-1.21-3.69,13.24,13.24,0,0,0,2,2.91,12.91,12.91,0,0,0,1.87-2.77h0a5.55,5.55,0,0,0-2.83-.74,6.64,6.64,0,0,0-2.59.52c.34-5.4,2.33-15.4,12-20-.45,1.12.16,5.09.16,5.09a49,49,0,0,1,6.68-.55,17.82,17.82,0,0,1,3,.22c1.5-2.58,10.11-4.76,10.11-4.76m-20.47,8.91c.51-.93.35-1.77-1.16-2.29a2.51,2.51,0,0,1,1.16,2.29m-.65,1c.66-1.23.47-2.34-1.53-3a3.32,3.32,0,0,1,1.53,3m-.76,1.07c.82-1.54.59-2.91-1.89-3.76a4.08,4.08,0,0,1,1.89,3.76m-.87,1.07c1-1.84.7-3.47-2.28-4.5a4.91,4.91,0,0,1,2.28,4.5m-3.33,3.22c-1.44.11-2.46,2.44-1.89,2.76a1,1,0,0,0,.49.13,1.06,1.06,0,0,0,.83-.43,5.29,5.29,0,0,0,.57-2.46h0m26.08-16.41h-.1l-.21,0c-1.44.37-8,2.14-10.3,4.63a23.52,23.52,0,0,0-2.53-.13,46.82,46.82,0,0,0-5.7.4,12.13,12.13,0,0,1-.08-3.37A1.15,1.15,0,0,0,23,152.51a1.16,1.16,0,0,0-.48.11c-10.16,4.89-12.27,15.27-12.63,21a1.17,1.17,0,0,0,.5,1l.21.11a11.23,11.23,0,0,0,1.08,3.81,1,1,0,0,0,.31.46,1.1,1.1,0,0,0,.4.24,1.18,1.18,0,0,0,.46.09h0c2.18-.08,6.59-1.91,8.75-3.62,6.78-5.39,6-9.37,5.92-9.81a1.13,1.13,0,0,0-.93-.85H26.4a1.14,1.14,0,0,0-1,.53c-.56.88-1.77,2.19-2.59,2.19-.1,0-.41,0-.84-.55-.2-.25-.08-.63.06-.91.67-1.39,3.6-3.59,8.58-3.59a18.23,18.23,0,0,1,3.17.29,23.42,23.42,0,0,1,8.47,3.16,1.12,1.12,0,0,0,.65.21,1.17,1.17,0,0,0,.86-.39,1.14,1.14,0,0,0,0-1.52l-4.45-4.91,4.44-5.14a1.16,1.16,0,0,0,.31-.79A1.14,1.14,0,0,0,43,152.51Zm0,2.28h0ZM14.52,174.85c-.12-.16-.23-.33-.34-.49a3.84,3.84,0,0,1,.59.11l-.25.38Z"/>
      </g>
      <g>
        <path class="f2189f26-ce5b-4d2e-9d1d-716ced98cc78" d="M12.55,173.78A12.79,12.79,0,0,0,14.82,177a1.51,1.51,0,0,1-.91.74S12.47,175.38,12.55,173.78Zm-.84.36a14,14,0,0,0,2.07,3.47,1.42,1.42,0,0,1-1.07.58S11.5,175.71,11.71,174.14Z"/>
        <path class="f2189f26-ce5b-4d2e-9d1d-716ced98cc78" d="M42.94,153.65s-8.61,2.18-10.11,4.76c-3.6-.64-9.71.33-9.71.33s-.61-4-.16-5.09c-9.65,4.65-11.64,14.65-12,20a6.24,6.24,0,0,1,5.42.22c.11-.08-1.8,3.44-3.7,4.26,0,0,.12,0,.1,0,1.95-.07,6.14-1.84,8.08-3.37,6.4-5.09,5.52-8.64,5.52-8.64s-2.95,4.71-5.28,1.74c-1.84-2.34,3.67-7.67,12.9-6a24.28,24.28,0,0,1,8.92,3.36L37.8,159.6ZM16.29,171.38a1,1,0,0,1-1.32.3c-.57-.32.45-2.65,1.89-2.76A5.34,5.34,0,0,1,16.29,171.38Zm3.9-5.68a4.91,4.91,0,0,0-2.28-4.5C20.89,162.23,21.17,163.86,20.19,165.7Zm.87-1.07a4.08,4.08,0,0,0-1.89-3.76C21.65,161.72,21.88,163.09,21.06,164.63Zm.76-1.07a3.32,3.32,0,0,0-1.53-3C22.29,161.22,22.48,162.33,21.82,163.56Zm.65-1a2.51,2.51,0,0,0-1.16-2.29C22.82,160.79,23,161.63,22.47,162.56Z"/>
      </g>
    </g>
    <g>
      <g>
        <path class="b6ddf0ad-12cb-4534-addd-9d6c848b35d9" d="M94.8,178.79a.58.58,0,0,1-.26-.06.43.43,0,0,1-.2-.11.5.5,0,0,1-.18-.27,10.1,10.1,0,0,1-1-4.09H93a.55.55,0,0,1-.32-.1.56.56,0,0,1-.25-.5c.35-5.62,2.41-15.77,12.31-20.53a.53.53,0,0,1,.24-.06.59.59,0,0,1,.4.16.57.57,0,0,1,.13.63,14,14,0,0,0,.11,4.22,47.57,47.57,0,0,1,6.2-.47,20,20,0,0,1,2.76.17c2-2.55,9.37-4.47,10.24-4.69l.14,0a.57.57,0,0,1,.43.95l-4.81,5.56,4.8,5.28a.57.57,0,0,1-.42,1,.67.67,0,0,1-.33-.1,23.51,23.51,0,0,0-8.69-3.26,18.5,18.5,0,0,0-3.27-.3c-4.73,0-8.16,2-9.1,3.91a1.44,1.44,0,0,0,0,1.52,1.68,1.68,0,0,0,1.29.76c1.25,0,2.64-1.77,3.07-2.45a.57.57,0,0,1,.48-.27h.09a.59.59,0,0,1,.47.43c0,.16.89,4-5.73,9.23-2,1.62-6.36,3.41-8.41,3.49Zm.37-5a12.48,12.48,0,0,0,1.36,2,16.76,16.76,0,0,0,1.1-1.63,5.09,5.09,0,0,0-2.06-.42Zm2.29-2.52a.55.55,0,0,0,.39-.22,2.83,2.83,0,0,0,.37-1.21,2.4,2.4,0,0,0-.37.4,2.53,2.53,0,0,0-.47,1Z"/>
        <path class="b6ddf0ad-12cb-4534-addd-9d6c848b35d9" d="M124.94,153.65h0m0,0-5.14,5.95,5.14,5.66A24.28,24.28,0,0,0,116,161.9a20.34,20.34,0,0,0-3.37-.3c-7.15,0-11.14,4.31-9.53,6.35a2.19,2.19,0,0,0,1.73,1c1.85,0,3.55-2.72,3.55-2.72s.88,3.55-5.52,8.64c-1.94,1.53-6.13,3.3-8.08,3.37l-.08,0h0c0-.08-1.21-2.49-1-4a13.89,13.89,0,0,0,2,3.38l.05-.05a8.53,8.53,0,0,1-1.21-3.69,13.24,13.24,0,0,0,2,2.91,12.91,12.91,0,0,0,1.87-2.77h0a5.55,5.55,0,0,0-2.83-.74,6.64,6.64,0,0,0-2.59.52c.34-5.4,2.33-15.4,12-20-.45,1.12.16,5.09.16,5.09a49,49,0,0,1,6.68-.55,17.82,17.82,0,0,1,3,.22c1.5-2.58,10.11-4.76,10.11-4.76m-20.47,8.91c.51-.93.35-1.77-1.16-2.29a2.51,2.51,0,0,1,1.16,2.29m-.65,1c.66-1.23.47-2.34-1.53-3a3.32,3.32,0,0,1,1.53,3m-.76,1.07c.82-1.54.59-2.91-1.89-3.76a4.08,4.08,0,0,1,1.89,3.76m-.87,1.07c1-1.84.7-3.47-2.28-4.5a4.91,4.91,0,0,1,2.28,4.5m-3.33,3.22c-1.44.11-2.46,2.44-1.89,2.76a1,1,0,0,0,.49.13,1.06,1.06,0,0,0,.83-.43,5.29,5.29,0,0,0,.57-2.46h0m26.08-16.41h-.1l-.21,0c-1.44.37-8,2.14-10.3,4.63a23.52,23.52,0,0,0-2.53-.13,46.82,46.82,0,0,0-5.7.4,12.13,12.13,0,0,1-.08-3.37,1.15,1.15,0,0,0-1.07-1.57,1.16,1.16,0,0,0-.48.11c-10.16,4.89-12.27,15.27-12.63,21a1.17,1.17,0,0,0,.5,1l.21.11a11.23,11.23,0,0,0,1.08,3.81,1,1,0,0,0,.31.46,1.1,1.1,0,0,0,.4.24,1.18,1.18,0,0,0,.46.09h0c2.18-.08,6.59-1.91,8.75-3.62,6.78-5.39,6-9.37,5.92-9.81a1.13,1.13,0,0,0-.93-.85h-.18a1.14,1.14,0,0,0-1,.53c-.56.88-1.77,2.19-2.59,2.19-.1,0-.41,0-.84-.55-.2-.25-.08-.63.06-.91.67-1.39,3.6-3.59,8.58-3.59a18.23,18.23,0,0,1,3.17.29,23.42,23.42,0,0,1,8.47,3.16,1.12,1.12,0,0,0,.65.21,1.17,1.17,0,0,0,.86-.39,1.14,1.14,0,0,0,0-1.52l-4.45-4.91,4.44-5.14a1.16,1.16,0,0,0,.31-.79,1.14,1.14,0,0,0-1.12-1.14Zm0,2.28h0ZM96.52,174.85c-.12-.16-.23-.33-.34-.49a3.84,3.84,0,0,1,.59.11l-.25.38Z"/>
      </g>
      <g>
        <path class="f2189f26-ce5b-4d2e-9d1d-716ced98cc78" d="M94.55,173.78A12.79,12.79,0,0,0,96.82,177a1.51,1.51,0,0,1-.91.74S94.47,175.38,94.55,173.78Zm-.84.36a14,14,0,0,0,2.07,3.47,1.42,1.42,0,0,1-1.07.58S93.5,175.71,93.71,174.14Z"/>
        <path class="f2189f26-ce5b-4d2e-9d1d-716ced98cc78" d="M124.94,153.65s-8.61,2.18-10.11,4.76c-3.6-.64-9.71.33-9.71.33s-.61-4-.16-5.09c-9.65,4.65-11.64,14.65-12,20a6.24,6.24,0,0,1,5.42.22c.11-.08-1.8,3.44-3.7,4.26,0,0,.12,0,.1,0,2-.07,6.14-1.84,8.08-3.37,6.4-5.09,5.52-8.64,5.52-8.64s-3,4.71-5.28,1.74c-1.84-2.34,3.67-7.67,12.9-6a24.28,24.28,0,0,1,8.92,3.36l-5.14-5.66ZM98.29,171.38a1,1,0,0,1-1.32.3c-.57-.32.45-2.65,1.89-2.76A5.34,5.34,0,0,1,98.29,171.38Zm3.9-5.68a4.91,4.91,0,0,0-2.28-4.5C102.89,162.23,103.17,163.86,102.19,165.7Zm.87-1.07a4.08,4.08,0,0,0-1.89-3.76C103.65,161.72,103.88,163.09,103.06,164.63Zm.76-1.07a3.32,3.32,0,0,0-1.53-3C104.29,161.22,104.48,162.33,103.82,163.56Zm.65-1a2.51,2.51,0,0,0-1.16-2.29C104.82,160.79,105,161.63,104.47,162.56Z"/>
      </g>
    </g>
  </g>
  <g>
    <path class="b6ddf0ad-12cb-4534-addd-9d6c848b35d9" d="M65.1,334.28a3.59,3.59,0,0,1-1,2.7,3.77,3.77,0,0,1-2.76.94h-2v-7.14h2.19a3.21,3.21,0,0,1,3.51,3.5Zm-.88,0a2.89,2.89,0,0,0-.7-2.1,2.83,2.83,0,0,0-2.09-.71h-1.2v5.7h1a3.06,3.06,0,0,0,2.23-.73A2.86,2.86,0,0,0,64.22,334.31Z"/>
    <path class="b6ddf0ad-12cb-4534-addd-9d6c848b35d9" d="M71.18,337.92l-.89-2.27H67.43l-.88,2.27h-.84l2.82-7.17h.7L72,337.92Zm-1.15-3-.83-2.21a9.77,9.77,0,0,1-.33-1c-.08.31-.18.66-.31,1l-.84,2.21Z"/>
    <path class="b6ddf0ad-12cb-4534-addd-9d6c848b35d9" d="M77.05,336a1.74,1.74,0,0,1-.69,1.47,3,3,0,0,1-1.85.53,4.65,4.65,0,0,1-2-.33v-.8a5.39,5.39,0,0,0,1,.29,5.23,5.23,0,0,0,1,.11,2,2,0,0,0,1.25-.32,1,1,0,0,0,.42-.87,1.13,1.13,0,0,0-.15-.61,1.47,1.47,0,0,0-.5-.44,7.59,7.59,0,0,0-1.06-.45,3.5,3.5,0,0,1-1.43-.84,1.9,1.9,0,0,1-.42-1.28,1.55,1.55,0,0,1,.62-1.31,2.54,2.54,0,0,1,1.64-.49,4.78,4.78,0,0,1,2,.39l-.25.72a4.6,4.6,0,0,0-1.72-.37,1.7,1.7,0,0,0-1,.28.94.94,0,0,0-.37.79,1.23,1.23,0,0,0,.13.61,1.28,1.28,0,0,0,.46.43,6,6,0,0,0,1,.44,3.87,3.87,0,0,1,1.54.86A1.7,1.7,0,0,1,77.05,336Z"/>
  </g>
  <g>
    <path class="b6ddf0ad-12cb-4534-addd-9d6c848b35d9" d="M35.7,68.84V61.68h.95V68h3.53v.85Z"/>
    <path class="b6ddf0ad-12cb-4534-addd-9d6c848b35d9" d="M40.85,66.25a2.67,2.67,0,0,1,.8-2.13,2.47,2.47,0,0,1,1.63-.58,2.35,2.35,0,0,1,1.75.7,2.71,2.71,0,0,1,.68,1.94,3.52,3.52,0,0,1-.3,1.57,2.13,2.13,0,0,1-.87.89,2.43,2.43,0,0,1-1.25.32,2.29,2.29,0,0,1-1.76-.7A2.73,2.73,0,0,1,40.85,66.25Zm.9,0a2.13,2.13,0,0,0,.43,1.49,1.43,1.43,0,0,0,2,.14,1.85,1.85,0,0,0,.14-.14,2.31,2.31,0,0,0,.49-1.52,2.2,2.2,0,0,0-.44-1.46,1.45,1.45,0,0,0-2-.13l-.13.13a2.15,2.15,0,0,0-.47,1.49Z"/>
    <path class="b6ddf0ad-12cb-4534-addd-9d6c848b35d9" d="M50.13,68.2a3.31,3.31,0,0,1-.94.59,2.63,2.63,0,0,1-1,.17,1.86,1.86,0,0,1-1.31-.42,1.33,1.33,0,0,1-.46-1.07,1.42,1.42,0,0,1,.62-1.2,2.26,2.26,0,0,1,.63-.29c.25,0,.51-.1.78-.13a7.13,7.13,0,0,0,1.57-.3v-.23a1.06,1.06,0,0,0-.25-.76,1.56,1.56,0,0,0-1-.3,1.61,1.61,0,0,0-.92.22,1.34,1.34,0,0,0-.44.77l-.86-.12a2.15,2.15,0,0,1,.39-.89,1.68,1.68,0,0,1,.78-.52,3.93,3.93,0,0,1,1.18-.18A3.33,3.33,0,0,1,50,63.7a1.52,1.52,0,0,1,.61.39,1.55,1.55,0,0,1,.27.6,5.47,5.47,0,0,1,0,.81v1.17a10,10,0,0,0,.06,1.55,1.7,1.7,0,0,0,.22.62h-.92A1.71,1.71,0,0,1,50.13,68.2Zm-.07-2a6,6,0,0,1-1.44.33,3.21,3.21,0,0,0-.77.18.72.72,0,0,0-.35.29.77.77,0,0,0,.14,1,1.09,1.09,0,0,0,.78.23,1.79,1.79,0,0,0,.9-.22,1.37,1.37,0,0,0,.58-.61,2.39,2.39,0,0,0,.14-.88Z"/>
    <path class="b6ddf0ad-12cb-4534-addd-9d6c848b35d9" d="M55.67,68.84v-.65a1.6,1.6,0,0,1-1.45.77,1.91,1.91,0,0,1-1.14-.34,2.15,2.15,0,0,1-.81-1A3.24,3.24,0,0,1,52,66.21a3.6,3.6,0,0,1,.26-1.41,2,2,0,0,1,.78-1,2.13,2.13,0,0,1,1.16-.34,1.85,1.85,0,0,1,.83.2,2,2,0,0,1,.6.52v-2.5h.87v7.16Zm-2.82-2.59a2.19,2.19,0,0,0,.42,1.49,1.26,1.26,0,0,0,1,.49,1.24,1.24,0,0,0,1-.47,2.15,2.15,0,0,0,.4-1.44,2.47,2.47,0,0,0-.41-1.56,1.31,1.31,0,0,0-1-.5,1.21,1.21,0,0,0-1,.48A2.34,2.34,0,0,0,52.85,66.25Z"/>
    <path class="b6ddf0ad-12cb-4534-addd-9d6c848b35d9" d="M60.72,68.84V61.68h2.69a3.49,3.49,0,0,1,1.32.22,1.81,1.81,0,0,1,.78.67,1.87,1.87,0,0,1,.28.94,1.66,1.66,0,0,1-.25.87,1.81,1.81,0,0,1-.75.65,2,2,0,0,1,1,.65,1.85,1.85,0,0,1,.35,1.08,2.15,2.15,0,0,1-.21.94,1.76,1.76,0,0,1-.53.67,2.11,2.11,0,0,1-.78.35,4.53,4.53,0,0,1-1.16.12Zm1-4.15h1.55a3.05,3.05,0,0,0,.9-.08,1,1,0,0,0,.54-.36,1,1,0,0,0,.18-.62,1.27,1.27,0,0,0-.17-.63,1,1,0,0,0-.49-.37,4.47,4.47,0,0,0-1.09-.1H61.66Zm0,3.3h1.78a3.42,3.42,0,0,0,.64,0,1.41,1.41,0,0,0,.55-.2.93.93,0,0,0,.36-.4,1.36,1.36,0,0,0,.14-.6,1.25,1.25,0,0,0-.21-.7,1.14,1.14,0,0,0-.57-.42,4.27,4.27,0,0,0-1-.12H61.7Z"/>
    <path class="b6ddf0ad-12cb-4534-addd-9d6c848b35d9" d="M70.7,68.2a3.31,3.31,0,0,1-.94.59,2.63,2.63,0,0,1-1,.17,1.86,1.86,0,0,1-1.31-.42A1.33,1.33,0,0,1,67,67.47a1.42,1.42,0,0,1,.62-1.2,2.26,2.26,0,0,1,.63-.29c.25,0,.51-.1.78-.13a7.13,7.13,0,0,0,1.57-.3v-.23a1.06,1.06,0,0,0-.25-.76,1.56,1.56,0,0,0-1-.3,1.61,1.61,0,0,0-.92.22,1.34,1.34,0,0,0-.44.77l-.86-.12a2.15,2.15,0,0,1,.39-.89,1.68,1.68,0,0,1,.78-.52,3.93,3.93,0,0,1,1.18-.18,3.33,3.33,0,0,1,1.08.16,1.52,1.52,0,0,1,.61.39,1.55,1.55,0,0,1,.27.6,5.47,5.47,0,0,1,0,.81v1.17a10,10,0,0,0,.06,1.55,1.7,1.7,0,0,0,.22.62h-.86A1.76,1.76,0,0,1,70.7,68.2Zm-.07-2a6,6,0,0,1-1.44.33,3.21,3.21,0,0,0-.77.18.72.72,0,0,0-.35.29.77.77,0,0,0,.14,1,1.09,1.09,0,0,0,.78.23,1.79,1.79,0,0,0,.9-.22,1.37,1.37,0,0,0,.58-.61,2.39,2.39,0,0,0,.14-.88Z"/>
    <path class="b6ddf0ad-12cb-4534-addd-9d6c848b35d9" d="M72.85,68.84V61.68h.88v7.16Z"/>
    <path class="b6ddf0ad-12cb-4534-addd-9d6c848b35d9" d="M78.48,68.2a3.31,3.31,0,0,1-.94.59,2.63,2.63,0,0,1-1,.17,1.86,1.86,0,0,1-1.31-.42,1.33,1.33,0,0,1-.46-1.07,1.42,1.42,0,0,1,.62-1.2A2.26,2.26,0,0,1,76,66c.25,0,.51-.1.78-.13a7.13,7.13,0,0,0,1.57-.3v-.23a1.06,1.06,0,0,0-.25-.76,1.56,1.56,0,0,0-1-.3,1.61,1.61,0,0,0-.92.22,1.34,1.34,0,0,0-.44.77l-.86-.12a2.15,2.15,0,0,1,.39-.89,1.68,1.68,0,0,1,.78-.52,3.93,3.93,0,0,1,1.18-.18,3.33,3.33,0,0,1,1.08.16,1.52,1.52,0,0,1,.61.39,1.55,1.55,0,0,1,.27.6,5.47,5.47,0,0,1,0,.81v1.17a10,10,0,0,0,.06,1.55,1.7,1.7,0,0,0,.22.62h-.92A1.71,1.71,0,0,1,78.48,68.2Zm-.07-2a6,6,0,0,1-1.44.33,3.21,3.21,0,0,0-.77.18.72.72,0,0,0-.35.29A.77.77,0,0,0,76,68a1.09,1.09,0,0,0,.78.23,1.79,1.79,0,0,0,.9-.22,1.37,1.37,0,0,0,.58-.61,2.39,2.39,0,0,0,.14-.88Z"/>
    <path class="b6ddf0ad-12cb-4534-addd-9d6c848b35d9" d="M80.66,68.84V63.66h.79v.74a1.87,1.87,0,0,1,1.65-.85,2.35,2.35,0,0,1,.86.17,1.5,1.5,0,0,1,.59.44,2,2,0,0,1,.27.65,6,6,0,0,1,0,.85v3.18h-.88V65.69a2.7,2.7,0,0,0-.1-.8.92.92,0,0,0-.36-.42,1.32,1.32,0,0,0-.61-.16,1.45,1.45,0,0,0-1,.36A1.76,1.76,0,0,0,81.46,66v2.82Z"/>
    <path class="b6ddf0ad-12cb-4534-addd-9d6c848b35d9" d="M89.61,66.94l.86.11a2.28,2.28,0,0,1-.73,1.4,2,2,0,0,1-1.43.51,2.2,2.2,0,0,1-1.71-.7,2.78,2.78,0,0,1-.65-2,3.56,3.56,0,0,1,.28-1.47,1.91,1.91,0,0,1,.85-1,2.65,2.65,0,0,1,1.24-.31A2.28,2.28,0,0,1,89.7,64a2.07,2.07,0,0,1,.69,1.21l-.85.13a1.5,1.5,0,0,0-.43-.79,1.2,1.2,0,0,0-.75-.26,1.37,1.37,0,0,0-1.08.48,2.23,2.23,0,0,0-.43,1.51,2.27,2.27,0,0,0,.4,1.52,1.28,1.28,0,0,0,1,.47,1.21,1.21,0,0,0,.86-.32A1.6,1.6,0,0,0,89.61,66.94Z"/>
    <path class="b6ddf0ad-12cb-4534-addd-9d6c848b35d9" d="M94.77,67.17l.91.11a2.21,2.21,0,0,1-.8,1.24,2.48,2.48,0,0,1-4-2.26,2.88,2.88,0,0,1,.67-2,2.3,2.3,0,0,1,1.75-.72,2.24,2.24,0,0,1,1.7.71,2.87,2.87,0,0,1,.66,2v.23H91.85a1.91,1.91,0,0,0,.48,1.31,1.41,1.41,0,0,0,1.08.46,1.33,1.33,0,0,0,.83-.25A1.66,1.66,0,0,0,94.77,67.17Zm-2.92-1.42h2.9a1.84,1.84,0,0,0-.33-1,1.37,1.37,0,0,0-1.09-.51,1.41,1.41,0,0,0-1,.4A1.63,1.63,0,0,0,91.85,65.75Z"/>
    <path class="b6ddf0ad-12cb-4534-addd-9d6c848b35d9" d="M96.78,68.84V63.66h.79v.79a2.1,2.1,0,0,1,.56-.73,1.09,1.09,0,0,1,.56-.18,1.8,1.8,0,0,1,.9.28l-.3.81a1.36,1.36,0,0,0-.64-.19.87.87,0,0,0-.52.17.93.93,0,0,0-.33.48,3.46,3.46,0,0,0-.15,1v2.75Z"/>
  </g>
  <path class="f9718647-22ec-4eea-b13d-8b54537bbc2b" d="M133.28,55.82h-3.46V54.67h3.42Zm-6.32,0h-3.42V54.67H127Zm-6.28,0h-3.42V54.67h3.42Zm-6.28,0H111V54.67h3.42Zm-6.27,0H104.7V54.67h3.43Zm-6.28,0H98.42V54.67h3.43Zm-6.28,0H92.14V54.67h3.43Zm-6.28,0H85.86V54.67h3.43Zm-6.5-.48A3.61,3.61,0,0,1,81,52.24V52h1.15v.28a2.44,2.44,0,0,0,1.22,2.1Zm53.39-1.05-1-.66a2.39,2.39,0,0,0,.44-1.39v-1.6h1.15v1.6A3.58,3.58,0,0,1,136.18,54.29Zm-54-5.18H81V45.69h1.15Zm54.67-1.32h-1.15V44.37h1.15Zm-54.67-5H81V39.41h1.15Zm54.67-1.32h-1.15V38.09h1.15Zm-54.67-5H81V33.13h1.15Zm54.67-1.32h-1.15V31.81h1.15Zm-54.67-5H81V26.85h1.15ZM136.82,29h-1.15V25.53h1.15ZM82.15,24H81V20.57h1.15Zm54.67-1.33h-1.15V19.25h1.15Zm-54.67-5H81V14.29h1.15Zm54.67-1.32h-1.15V13h1.15Zm-54.67-5H81V8h1.15Zm54.67-1.32h-1.15V6.69h1.15Zm-54.67-5H81V3.58a3.53,3.53,0,0,1,.66-2.06l.94.66a2.36,2.36,0,0,0-.45,1.4Zm54.67-1.32h-1.15V3.58a2.43,2.43,0,0,0-1.23-2.11l.57-1a3.59,3.59,0,0,1,1.81,3.11Zm-4.88-2.69h-3.43V0h3.43Zm-6.28,0h-3.42V0h3.42Zm-6.28,0H116V0h3.42Zm-6.28,0h-3.42V0h3.42Zm-6.28,0H103.4V0h3.42Zm-6.28,0H97.12V0h3.42Zm-6.27,0H90.84V0h3.43ZM88,1.15H84.58l0-1.15H88Z"/>
  <circle class="a6ef3aed-aa88-4dc4-8af9-919ef428a5d2" cx="72.6" cy="27.95" r="1.44"/>
  <circle class="a6ef3aed-aa88-4dc4-8af9-919ef428a5d2" cx="68" cy="27.95" r="1.44"/>
  <circle class="a6ef3aed-aa88-4dc4-8af9-919ef428a5d2" cx="63.39" cy="27.95" r="1.44"/>
  <g>
    <rect class="f9718647-22ec-4eea-b13d-8b54537bbc2b" x="108.52" y="19.86" width="1.68" height="16.21"/>
    <rect class="f9718647-22ec-4eea-b13d-8b54537bbc2b" x="101.09" y="19.86" width="1.68" height="16.21" transform="translate(40.45 -58.02) rotate(39.1)"/>
    <rect class="f9718647-22ec-4eea-b13d-8b54537bbc2b" x="115.95" y="19.86" width="1.68" height="16.21" transform="translate(225.06 -23.98) rotate(140.9)"/>
    <circle class="f9718647-22ec-4eea-b13d-8b54537bbc2b" cx="109.36" cy="18.75" r="5.07"/>
    <circle class="f9718647-22ec-4eea-b13d-8b54537bbc2b" cx="109.36" cy="36.31" r="5.07"/>
    <circle class="f9718647-22ec-4eea-b13d-8b54537bbc2b" cx="95.17" cy="36.31" r="5.07"/>
    <circle class="f9718647-22ec-4eea-b13d-8b54537bbc2b" cx="122.87" cy="36.31" r="5.07"/>
  </g>
  <path class="f9718647-22ec-4eea-b13d-8b54537bbc2b" d="M52.28,55.82H48.82V54.67h3.42Zm-6.32,0H42.54V54.67H46Zm-6.28,0H36.26V54.67h3.42Zm-6.28,0H30V54.67H33.4Zm-6.27,0H23.7V54.67h3.43Zm-6.28,0H17.42V54.67h3.43Zm-6.28,0H11.14V54.67h3.43Zm-6.28,0H4.86V54.67H8.29Zm-6.5-.48A3.61,3.61,0,0,1,0,52.24V52H1.15v.28a2.44,2.44,0,0,0,1.22,2.1Zm53.39-1.05-1-.66a2.39,2.39,0,0,0,.44-1.39v-1.6h1.15v1.6A3.58,3.58,0,0,1,55.18,54.29Zm-54-5.18H0V45.69H1.15Zm54.67-1.32H54.67V44.37h1.15Zm-54.67-5H0V39.41H1.15Zm54.67-1.32H54.67V38.09h1.15Zm-54.67-5H0V33.13H1.15Zm54.67-1.32H54.67V31.81h1.15Zm-54.67-5H0V26.85H1.15ZM55.82,29H54.67V25.53h1.15ZM1.15,24H0V20.57H1.15Zm54.67-1.33H54.67V19.25h1.15Zm-54.67-5H0V14.29H1.15ZM55.82,16.4H54.67V13h1.15Zm-54.67-5H0V8H1.15Zm54.67-1.32H54.67V6.69h1.15Zm-54.67-5H0V3.58A3.53,3.53,0,0,1,.66,1.52l.94.66a2.36,2.36,0,0,0-.45,1.4ZM55.82,3.84H54.67V3.58a2.43,2.43,0,0,0-1.23-2.11l.57-1a3.59,3.59,0,0,1,1.81,3.11ZM50.94,1.15H47.51V0h3.43Zm-6.28,0H41.24V0h3.42Zm-6.28,0H35V0h3.42Zm-6.28,0H28.68V0H32.1Zm-6.28,0H22.4V0h3.42Zm-6.28,0H16.12V0h3.42Zm-6.27,0H9.84V0h3.43ZM7,1.15H3.58L3.56,0H7Z"/>
  <g>
    <rect class="f9718647-22ec-4eea-b13d-8b54537bbc2b" x="27.52" y="19.86" width="1.68" height="16.21"/>
    <rect class="f9718647-22ec-4eea-b13d-8b54537bbc2b" x="20.09" y="19.86" width="1.68" height="16.21" transform="translate(22.32 -6.94) rotate(39.1)"/>
    <rect class="f9718647-22ec-4eea-b13d-8b54537bbc2b" x="34.95" y="19.86" width="1.68" height="16.21" transform="translate(81.19 27.1) rotate(140.9)"/>
    <circle class="f9718647-22ec-4eea-b13d-8b54537bbc2b" cx="28.36" cy="18.75" r="5.07"/>
    <circle class="f9718647-22ec-4eea-b13d-8b54537bbc2b" cx="28.36" cy="36.31" r="5.07"/>
    <circle class="f9718647-22ec-4eea-b13d-8b54537bbc2b" cx="14.17" cy="36.31" r="5.07"/>
    <circle class="f9718647-22ec-4eea-b13d-8b54537bbc2b" cx="41.87" cy="36.31" r="5.07"/>
  </g>
</svg>
