<svg id="b8f0a978-2d1c-4447-b63a-b542fe143a3e" data-name="Слой 1" xmlns="http://www.w3.org/2000/svg" width="217.27" height="255.03" viewBox="0 0 217.27 255.03"><rect x="107.85" y="21.4" width="1.15" height="21.29" fill="#71b429"/><rect x="27.91" y="21.4" width="1.15" height="22.44" fill="#71b429"/><polygon points="108.42 46.34 105.83 40.96 111.01 40.96 108.42 46.34" fill="#71b429"/><path d="M28.53,170.18V163H31.7a4.22,4.22,0,0,1,1.46.2,1.53,1.53,0,0,1,.79.68,2,2,0,0,1,.3,1.08,1.8,1.8,0,0,1-.49,1.28,2.47,2.47,0,0,1-1.53.66,2.35,2.35,0,0,1,.57.36,4.8,4.8,0,0,1,.79.95l1.25,2h-1.2l-.94-1.49c-.28-.43-.51-.76-.69-1a2.14,2.14,0,0,0-.48-.48,1.26,1.26,0,0,0-.43-.19,2.25,2.25,0,0,0-.53,0h-1.1v3.18Zm.94-4h2a3.12,3.12,0,0,0,1-.13,1.09,1.09,0,0,0,.55-.43,1.14,1.14,0,0,0,.19-.64,1.07,1.07,0,0,0-.37-.84,1.69,1.69,0,0,0-1.16-.33H29.47Z" fill="#05acff"/><path d="M39.17,168.51l.91.11a2.2,2.2,0,0,1-.8,1.24A2.68,2.68,0,0,1,36,169.6a2.74,2.74,0,0,1-.67-2,2.86,2.86,0,0,1,.67-2,2.3,2.3,0,0,1,1.75-.72,2.2,2.2,0,0,1,1.7.71,2.8,2.8,0,0,1,.66,2,2.2,2.2,0,0,1,0,.23H36.24a2,2,0,0,0,.48,1.31,1.45,1.45,0,0,0,1.08.46,1.35,1.35,0,0,0,.83-.26A1.65,1.65,0,0,0,39.17,168.51Zm-2.88-1.42h2.89a1.77,1.77,0,0,0-.33-1,1.34,1.34,0,0,0-1.09-.51,1.42,1.42,0,0,0-1,.41A1.62,1.62,0,0,0,36.29,167.09Z" fill="#05acff"/><path d="M41.18,172.17V165H42v.67a2.08,2.08,0,0,1,.64-.59,1.7,1.7,0,0,1,.87-.2,2,2,0,0,1,1.17.34,2.17,2.17,0,0,1,.77,1,3.59,3.59,0,0,1,.26,1.37A3.45,3.45,0,0,1,45.4,169a2.17,2.17,0,0,1-2,1.32,1.55,1.55,0,0,1-.78-.19,1.69,1.69,0,0,1-.58-.47v2.53Zm.8-4.55a2.33,2.33,0,0,0,.4,1.48,1.25,1.25,0,0,0,1,.48,1.27,1.27,0,0,0,1-.5,2.34,2.34,0,0,0,.42-1.54,2.29,2.29,0,0,0-.41-1.48,1.22,1.22,0,0,0-1-.49,1.27,1.27,0,0,0-1,.52A2.34,2.34,0,0,0,42,167.62Z" fill="#05acff"/><path d="M46.73,170.18V163h.87v7.16Z" fill="#05acff"/><path d="M49,164v-1h.88v1Zm0,6.15V165h.88v5.18Z" fill="#05acff"/><path d="M54.57,168.28l.87.11a2.24,2.24,0,0,1-.73,1.4,2.11,2.11,0,0,1-1.43.51,2.2,2.2,0,0,1-1.71-.7,2.82,2.82,0,0,1-.65-2,3.54,3.54,0,0,1,.28-1.47,2,2,0,0,1,.84-.95,2.54,2.54,0,0,1,1.24-.31,2.09,2.09,0,0,1,1.38.43,1.91,1.91,0,0,1,.69,1.21l-.85.13a1.47,1.47,0,0,0-.43-.79,1.16,1.16,0,0,0-.75-.26,1.36,1.36,0,0,0-1.08.48,2.22,2.22,0,0,0-.42,1.5,2.37,2.37,0,0,0,.4,1.52,1.31,1.31,0,0,0,1.05.48,1.24,1.24,0,0,0,.86-.32A1.58,1.58,0,0,0,54.57,168.28Z" fill="#05acff"/><path d="M59.57,169.54a3.3,3.3,0,0,1-.94.59,2.78,2.78,0,0,1-1,.17,1.87,1.87,0,0,1-1.31-.42,1.36,1.36,0,0,1-.46-1.07,1.47,1.47,0,0,1,.17-.69,1.51,1.51,0,0,1,.46-.51,2.43,2.43,0,0,1,.63-.29,6.85,6.85,0,0,1,.78-.13,7.64,7.64,0,0,0,1.57-.3v-.23a1,1,0,0,0-.25-.76,1.49,1.49,0,0,0-1-.29,1.59,1.59,0,0,0-.91.21,1.36,1.36,0,0,0-.44.77l-.86-.12a2.21,2.21,0,0,1,.39-.89,1.75,1.75,0,0,1,.77-.52,3.57,3.57,0,0,1,1.18-.18,3.26,3.26,0,0,1,1.08.15,1.44,1.44,0,0,1,.61.4,1.33,1.33,0,0,1,.27.6,4.6,4.6,0,0,1,0,.81V168a14.9,14.9,0,0,0,0,1.55,1.87,1.87,0,0,0,.23.62h-.92A1.93,1.93,0,0,1,59.57,169.54Zm-.07-2a6.45,6.45,0,0,1-1.44.33,2.9,2.9,0,0,0-.76.18.76.76,0,0,0-.35.28.8.8,0,0,0,.14,1,1.19,1.19,0,0,0,.78.23,1.83,1.83,0,0,0,.91-.22,1.42,1.42,0,0,0,.58-.61,2.2,2.2,0,0,0,.14-.88Z" fill="#05acff"/><path d="M63.67,169.39l.13.78a3.47,3.47,0,0,1-.67.08,1.51,1.51,0,0,1-.74-.15.84.84,0,0,1-.37-.4,3.16,3.16,0,0,1-.11-1v-3h-.64V165h.64v-1.29l.88-.53V165h.88v.68h-.88v3a1.6,1.6,0,0,0,0,.48.38.38,0,0,0,.15.18.61.61,0,0,0,.3.06A2.13,2.13,0,0,0,63.67,169.39Z" fill="#05acff"/><path d="M64.53,164v-1h.88v1Zm0,6.15V165h.88v5.18Z" fill="#05acff"/><path d="M66.42,167.59a2.71,2.71,0,0,1,.8-2.14,2.44,2.44,0,0,1,1.63-.57,2.31,2.31,0,0,1,1.75.7,2.67,2.67,0,0,1,.68,1.93,3.44,3.44,0,0,1-.3,1.58,2.13,2.13,0,0,1-.87.89,2.59,2.59,0,0,1-1.26.32,2.33,2.33,0,0,1-1.76-.7A2.83,2.83,0,0,1,66.42,167.59Zm.91,0a2.21,2.21,0,0,0,.43,1.49,1.44,1.44,0,0,0,2.18,0,2.26,2.26,0,0,0,.44-1.52,2.16,2.16,0,0,0-.44-1.46,1.46,1.46,0,0,0-2.18,0A2.19,2.19,0,0,0,67.33,167.59Z" fill="#05acff"/><path d="M72.31,170.18V165h.79v.73a1.86,1.86,0,0,1,1.65-.85,2.08,2.08,0,0,1,.87.17,1.34,1.34,0,0,1,.58.44,1.83,1.83,0,0,1,.28.65,5.26,5.26,0,0,1,0,.85v3.19h-.88V167a2.34,2.34,0,0,0-.11-.81.81.81,0,0,0-.36-.42,1.11,1.11,0,0,0-.61-.16,1.4,1.4,0,0,0-1,.36,1.74,1.74,0,0,0-.41,1.35v2.83Z" fill="#05acff"/><rect x="0.58" y="54.04" width="54.67" height="54.67" rx="3" fill="#fff"/><path d="M52.24,109.29H3.58A3.59,3.59,0,0,1,0,105.71V57a3.58,3.58,0,0,1,3.58-3.57H52.24A3.58,3.58,0,0,1,55.82,57v48.67A3.59,3.59,0,0,1,52.24,109.29ZM3.58,54.62A2.43,2.43,0,0,0,1.15,57v48.67a2.43,2.43,0,0,0,2.43,2.43H52.24a2.43,2.43,0,0,0,2.43-2.43V57a2.43,2.43,0,0,0-2.43-2.42Z" fill="#05acff"/><rect x="80.88" y="54.08" width="54.67" height="54.67" rx="3" fill="#fff"/><path d="M132.54,109.32H83.88a3.58,3.58,0,0,1-3.58-3.58V57.08a3.59,3.59,0,0,1,3.58-3.58h48.66a3.58,3.58,0,0,1,3.58,3.58v48.66A3.58,3.58,0,0,1,132.54,109.32ZM83.88,54.65a2.43,2.43,0,0,0-2.43,2.43v48.66a2.43,2.43,0,0,0,2.43,2.43h48.66a2.43,2.43,0,0,0,2.43-2.43V57.08a2.43,2.43,0,0,0-2.43-2.43Z" fill="#05acff"/><path d="M213.72,109.29h-3.46v-1.15h3.43Zm-6.31,0H204v-1.15h3.43Zm-6.28,0H197.7v-1.15h3.43Zm-6.28,0h-3.43v-1.15h3.43Zm-6.28,0h-3.42v-1.15h3.42Zm-6.28,0h-3.42v-1.15h3.42Zm-6.28,0h-3.42v-1.15H176Zm-6.28,0h-3.42v-1.15h3.42Zm-6.49-.48a3.6,3.6,0,0,1-1.79-3.1v-.28h1.15v.28a2.44,2.44,0,0,0,1.21,2.1Zm53.38-1.06-.94-.66a2.46,2.46,0,0,0,.44-1.38v-1.6h1.15v1.6A3.56,3.56,0,0,1,216.62,107.75Zm-54-5.17h-1.15V99.15h1.15Zm54.67-1.32h-1.15V97.83h1.15Zm-54.67-5h-1.15V92.87h1.15ZM217.27,95h-1.15V91.55h1.15ZM162.6,90h-1.15V86.59h1.15Zm54.67-1.32h-1.15V85.27h1.15Zm-54.67-5h-1.15V80.31h1.15Zm54.67-1.32h-1.15V79h1.15Zm-54.67-5h-1.15V74h1.15Zm54.67-1.32h-1.15V72.72h1.15Zm-54.67-5h-1.15V67.76h1.15Zm54.67-1.32h-1.15V66.44h1.15Zm-54.67-5h-1.15V61.48h1.15Zm54.67-1.32h-1.15V60.16h1.15Zm-54.67-5h-1.15V57A3.55,3.55,0,0,1,162.1,55l.94.67A2.39,2.39,0,0,0,162.6,57Zm54.67-1.32h-1.15V57a2.43,2.43,0,0,0-1.24-2.1l.57-1a3.58,3.58,0,0,1,1.82,3.1Zm-4.89-2.68H209V53.47h3.42Zm-6.27,0h-3.43V53.47h3.43Zm-6.28,0H196.4V53.47h3.43Zm-6.28,0h-3.43V53.47h3.43Zm-6.28,0h-3.43V53.47h3.43Zm-6.28,0h-3.43V53.47H181Zm-6.28,0h-3.42V53.47h3.42Zm-6.28,0H165V53.47h3.42Z" fill="#05acff"/><rect x="108.1" y="136.15" width="1.15" height="21.29" fill="#05acff"/><rect x="108.1" y="158.15" width="1.15" height="21.29" fill="#05acff"/><polygon points="108.68 132.5 106.09 137.88 111.27 137.88 108.68 132.5" fill="#05acff"/><rect x="27.91" y="136.15" width="1.15" height="21.29" fill="#05acff"/><polygon points="28.49 132.5 25.9 137.88 31.08 137.88 28.49 132.5" fill="#05acff"/><polygon points="190.16 132.5 187.57 137.88 192.75 137.88 190.16 132.5" fill="#05acff"/><rect x="28.17" y="157.44" width="81.14" height="1.15" fill="#05acff"/><rect x="189.3" y="139.03" width="1.15" height="1.73" fill="#05acff"/><path d="M190.45,153.41H189.3V150h1.15Zm0-6.33H189.3v-3.45h1.15Z" fill="#05acff"/><polygon points="190.45 158.59 188.15 158.59 188.15 157.44 189.3 157.44 189.3 156.29 190.45 156.29 190.45 158.59" fill="#05acff"/><path d="M185.16,158.59h-3.59v-1.15h3.59Zm-6.58,0H175v-1.15h3.59Zm-6.58,0h-3.59v-1.15H172Zm-6.59,0h-3.59v-1.15h3.59Zm-6.58,0h-3.59v-1.15h3.59Zm-6.58,0h-3.59v-1.15h3.59Zm-6.58,0h-3.59v-1.15h3.59Zm-6.58,0H135.5v-1.15h3.59Zm-6.58,0h-3.59v-1.15h3.59Zm-6.58,0h-3.59v-1.15h3.59Zm-6.59,0h-3.59v-1.15h3.59Z" fill="#05acff"/><rect x="111.04" y="157.44" width="1.73" height="1.15" fill="#05acff"/><circle cx="153.05" cy="81.41" r="1.44" fill="#5e6981"/><circle cx="148.44" cy="81.41" r="1.44" fill="#5e6981"/><circle cx="143.84" cy="81.41" r="1.44" fill="#5e6981"/><path d="M13.85,122.29H13l-1.44-4.78c-.07-.21-.15-.48-.23-.8a3.17,3.17,0,0,1-.13-.58,12,12,0,0,1-.35,1.41l-1.39,4.75H8.67l-1.9-7.14h.88l1.12,4.41c.16.62.27,1.18.35,1.68a10.42,10.42,0,0,1,.39-1.74l1.28-4.35h.88L13,119.53a13.58,13.58,0,0,1,.39,1.71,15.11,15.11,0,0,1,.35-1.69l1.13-4.4h.88Z" fill="#fff"/><path d="M21.37,119.61a3,3,0,0,1-.66,2,2.31,2.31,0,0,1-1.82.73,2.34,2.34,0,0,1-1.27-.34,2.18,2.18,0,0,1-.86-1,3.4,3.4,0,0,1-.3-1.48,2.94,2.94,0,0,1,.65-2,2.34,2.34,0,0,1,1.82-.73,2.26,2.26,0,0,1,1.78.75A2.94,2.94,0,0,1,21.37,119.61Zm-4.08,0a2.51,2.51,0,0,0,.42,1.57,1.43,1.43,0,0,0,1.2.53,1.46,1.46,0,0,0,1.21-.53,2.58,2.58,0,0,0,.41-1.57,2.53,2.53,0,0,0-.41-1.55,1.46,1.46,0,0,0-1.22-.53,1.43,1.43,0,0,0-1.2.53A2.47,2.47,0,0,0,17.29,119.61Z" fill="#fff"/><path d="M25.23,116.84a3,3,0,0,1,.64.06l-.11.75a3.48,3.48,0,0,0-.58-.07,1.45,1.45,0,0,0-1.12.53,2,2,0,0,0-.46,1.31v2.87h-.81v-5.35h.67l.09,1h0a2.35,2.35,0,0,1,.72-.8A1.62,1.62,0,0,1,25.23,116.84Z" fill="#fff"/><path d="M27.68,119.55c.14-.19.35-.45.64-.78L30,116.94h1l-2.17,2.28,2.32,3.07h-1l-1.89-2.53-.61.53v2h-.8V114.7h.8v4c0,.18,0,.46,0,.83Z" fill="#fff"/><path d="M34.38,122.39a2.46,2.46,0,0,1-1.87-.72,2.78,2.78,0,0,1-.68-2,3.1,3.1,0,0,1,.63-2,2.13,2.13,0,0,1,1.71-.77,2,2,0,0,1,1.6.67,2.52,2.52,0,0,1,.58,1.74v.51H32.67a2.13,2.13,0,0,0,.47,1.44,1.67,1.67,0,0,0,1.27.48,4.3,4.3,0,0,0,1.71-.36V122a3.5,3.5,0,0,1-.81.27A4.88,4.88,0,0,1,34.38,122.39Zm-.21-4.87a1.32,1.32,0,0,0-1,.42,1.89,1.89,0,0,0-.45,1.17h2.79a1.77,1.77,0,0,0-.34-1.18A1.2,1.2,0,0,0,34.17,117.52Z" fill="#fff"/><path d="M40.18,116.84a3.16,3.16,0,0,1,.64.06l-.12.75a3.36,3.36,0,0,0-.58-.07,1.41,1.41,0,0,0-1.11.53,1.91,1.91,0,0,0-.47,1.31v2.87h-.81v-5.35h.67l.1,1h0a2.23,2.23,0,0,1,.71-.8A1.63,1.63,0,0,1,40.18,116.84Z" fill="#fff"/><path d="M47.05,122.29h-.8v-5.08c0-.43,0-.83,0-1.21a2.49,2.49,0,0,1-.23.22l-1.16,1-.43-.56,1.89-1.46h.69Z" fill="#fff"/><path d="M93.91,122.29h-.82l-1.44-4.78c-.07-.21-.14-.48-.23-.8a4.49,4.49,0,0,1-.13-.58,11.86,11.86,0,0,1-.34,1.41l-1.4,4.75h-.82l-1.9-7.14h.88l1.13,4.41a15.16,15.16,0,0,1,.34,1.68,12.87,12.87,0,0,1,.39-1.74l1.28-4.35h.88l1.34,4.38a13.51,13.51,0,0,1,.4,1.71,15.11,15.11,0,0,1,.35-1.69l1.12-4.4h.88Z" fill="#fff"/><path d="M101.44,119.61a3,3,0,0,1-.66,2,2.32,2.32,0,0,1-1.82.73,2.38,2.38,0,0,1-1.28-.34,2.18,2.18,0,0,1-.86-1,3.4,3.4,0,0,1-.3-1.48,3,3,0,0,1,.65-2,2.36,2.36,0,0,1,1.82-.73,2.25,2.25,0,0,1,1.78.75A2.9,2.9,0,0,1,101.44,119.61Zm-4.08,0a2.58,2.58,0,0,0,.41,1.57,1.44,1.44,0,0,0,1.21.53,1.43,1.43,0,0,0,1.2-.53,2.51,2.51,0,0,0,.42-1.57,2.47,2.47,0,0,0-.42-1.55,1.65,1.65,0,0,0-2.42,0A2.48,2.48,0,0,0,97.36,119.61Z" fill="#fff"/><path d="M105.3,116.84a3.1,3.1,0,0,1,.64.06l-.11.75a3.59,3.59,0,0,0-.59-.07,1.44,1.44,0,0,0-1.11.53,1.91,1.91,0,0,0-.46,1.31v2.87h-.81v-5.35h.67l.09,1h0a2.35,2.35,0,0,1,.72-.8A1.59,1.59,0,0,1,105.3,116.84Z" fill="#fff"/><path d="M107.74,119.55c.14-.19.35-.45.64-.78l1.73-1.83h1l-2.17,2.28,2.32,3.07h-1l-1.89-2.53-.61.53v2h-.8V114.7h.8v4c0,.18,0,.46,0,.83Z" fill="#fff"/><path d="M114.45,122.39a2.45,2.45,0,0,1-1.87-.72,2.79,2.79,0,0,1-.69-2,3.05,3.05,0,0,1,.64-2,2.1,2.1,0,0,1,1.71-.77,2,2,0,0,1,1.59.67,2.53,2.53,0,0,1,.59,1.74v.51h-3.69a2.18,2.18,0,0,0,.48,1.44,1.65,1.65,0,0,0,1.27.48,4.38,4.38,0,0,0,1.71-.36V122a3.73,3.73,0,0,1-.82.27A4.77,4.77,0,0,1,114.45,122.39Zm-.22-4.87a1.33,1.33,0,0,0-1,.42,2,2,0,0,0-.45,1.17h2.8a1.82,1.82,0,0,0-.34-1.18A1.22,1.22,0,0,0,114.23,117.52Z" fill="#fff"/><path d="M120.24,116.84a3.1,3.1,0,0,1,.64.06l-.11.75a3.47,3.47,0,0,0-.59-.07,1.44,1.44,0,0,0-1.11.53,1.91,1.91,0,0,0-.46,1.31v2.87h-.81v-5.35h.67l.09,1h0a2.35,2.35,0,0,1,.72-.8A1.62,1.62,0,0,1,120.24,116.84Z" fill="#fff"/><path d="M128.8,122.29h-4.69v-.69l1.88-1.89a15,15,0,0,0,1.13-1.24,3.18,3.18,0,0,0,.41-.73,2,2,0,0,0,.14-.75,1.21,1.21,0,0,0-.35-.91,1.33,1.33,0,0,0-1-.33,2.32,2.32,0,0,0-.84.14,3.63,3.63,0,0,0-.89.53l-.43-.55a3.33,3.33,0,0,1,2.15-.82,2.26,2.26,0,0,1,1.58.52,1.76,1.76,0,0,1,.57,1.38,2.7,2.7,0,0,1-.38,1.34,8.27,8.27,0,0,1-1.43,1.68l-1.56,1.53v0h3.67Z" fill="#fff"/><path d="M174.91,122.29h-.82l-1.44-4.78c-.07-.21-.14-.48-.23-.8a4.49,4.49,0,0,1-.13-.58,11.86,11.86,0,0,1-.34,1.41l-1.4,4.75h-.82l-1.9-7.14h.88l1.13,4.41a15.16,15.16,0,0,1,.34,1.68,12.87,12.87,0,0,1,.39-1.74l1.28-4.35h.88l1.34,4.38a13.51,13.51,0,0,1,.4,1.71,15.11,15.11,0,0,1,.35-1.69l1.12-4.4h.88Z" fill="#fff"/><path d="M182.44,119.61a3,3,0,0,1-.66,2,2.32,2.32,0,0,1-1.82.73,2.38,2.38,0,0,1-1.28-.34,2.18,2.18,0,0,1-.86-1,3.4,3.4,0,0,1-.3-1.48,3,3,0,0,1,.65-2,2.36,2.36,0,0,1,1.82-.73,2.25,2.25,0,0,1,1.78.75A2.9,2.9,0,0,1,182.44,119.61Zm-4.08,0a2.58,2.58,0,0,0,.41,1.57,1.44,1.44,0,0,0,1.21.53,1.43,1.43,0,0,0,1.2-.53,2.51,2.51,0,0,0,.42-1.57,2.47,2.47,0,0,0-.42-1.55,1.65,1.65,0,0,0-2.42,0A2.48,2.48,0,0,0,178.36,119.61Z" fill="#fff"/><path d="M186.3,116.84a3.1,3.1,0,0,1,.64.06l-.11.75a3.59,3.59,0,0,0-.59-.07,1.44,1.44,0,0,0-1.11.53,1.91,1.91,0,0,0-.46,1.31v2.87h-.81v-5.35h.67l.09,1h0a2.35,2.35,0,0,1,.72-.8A1.59,1.59,0,0,1,186.3,116.84Z" fill="#fff"/><path d="M188.74,119.55c.14-.19.35-.45.64-.78l1.73-1.83h1l-2.17,2.28,2.32,3.07h-1l-1.89-2.53-.61.53v2h-.8V114.7h.8v4c0,.18,0,.46,0,.83Z" fill="#fff"/><path d="M195.45,122.39a2.45,2.45,0,0,1-1.87-.72,2.79,2.79,0,0,1-.69-2,3.05,3.05,0,0,1,.64-2,2.1,2.1,0,0,1,1.71-.77,2,2,0,0,1,1.59.67,2.53,2.53,0,0,1,.59,1.74v.51h-3.69a2.18,2.18,0,0,0,.48,1.44,1.65,1.65,0,0,0,1.27.48,4.38,4.38,0,0,0,1.71-.36V122a3.73,3.73,0,0,1-.82.27A4.77,4.77,0,0,1,195.45,122.39Zm-.22-4.87a1.33,1.33,0,0,0-1,.42,2,2,0,0,0-.45,1.17h2.8a1.82,1.82,0,0,0-.34-1.18A1.22,1.22,0,0,0,195.23,117.52Z" fill="#fff"/><path d="M201.24,116.84a3.1,3.1,0,0,1,.64.06l-.11.75a3.47,3.47,0,0,0-.59-.07,1.44,1.44,0,0,0-1.11.53,1.91,1.91,0,0,0-.46,1.31v2.87h-.81v-5.35h.67l.09,1h0a2.35,2.35,0,0,1,.72-.8A1.62,1.62,0,0,1,201.24,116.84Z" fill="#fff"/><path d="M211.18,122.29h-1l-3.9-6h0c.05.71.08,1.35.08,1.94v4.05h-.77v-7.14h.94l3.89,6h0c0-.09,0-.37-.05-.85s0-.81,0-1v-4.1h.78Z" fill="#fff"/><rect x="80.88" y="186.33" width="54.67" height="54.67" rx="3" fill="#fff"/><path d="M136.12,189.34V238a3.58,3.58,0,0,1-3.58,3.58H83.88A3.59,3.59,0,0,1,80.3,238V189.34a3.58,3.58,0,0,1,3.58-3.58h48.66A3.58,3.58,0,0,1,136.12,189.34Zm-3.58,51.09A2.43,2.43,0,0,0,135,238V189.34a2.43,2.43,0,0,0-2.43-2.43H83.88a2.43,2.43,0,0,0-2.43,2.43V238a2.43,2.43,0,0,0,2.43,2.43Z" fill="#e87474"/><path d="M132.55,242.08H83.88A4.08,4.08,0,0,1,79.8,238V189.34a4.08,4.08,0,0,1,4.08-4.08h48.67a4.08,4.08,0,0,1,4.07,4.08V238A4.08,4.08,0,0,1,132.55,242.08ZM83.88,186.26a3.08,3.08,0,0,0-3.08,3.08V238a3.08,3.08,0,0,0,3.08,3.08h48.67a3.08,3.08,0,0,0,3.07-3.08V189.34a3.08,3.08,0,0,0-3.07-3.08Zm48.67,54.67H83.88A2.94,2.94,0,0,1,81,238V189.34a2.93,2.93,0,0,1,2.93-2.93h48.67a2.93,2.93,0,0,1,2.92,2.93V238A2.93,2.93,0,0,1,132.55,240.93ZM83.88,187.41A1.93,1.93,0,0,0,82,189.34V238a1.94,1.94,0,0,0,1.93,1.93h48.67a1.93,1.93,0,0,0,1.92-1.93V189.34a1.92,1.92,0,0,0-1.92-1.93Z" fill="#e87474"/><path d="M13.1,95.8a.58.58,0,0,1-.26-.06.58.58,0,0,1-.38-.38,10.1,10.1,0,0,1-1-4.09h-.13a.51.51,0,0,1-.32-.1.53.53,0,0,1-.25-.5c.34-5.62,2.41-15.77,12.3-20.53a.54.54,0,0,1,.25-.06.59.59,0,0,1,.39.16.57.57,0,0,1,.14.63,13.57,13.57,0,0,0,.1,4.22,47.91,47.91,0,0,1,6.21-.47,20.09,20.09,0,0,1,2.76.17c2-2.55,9.37-4.47,10.23-4.69l.14,0a.57.57,0,0,1,.43,1l-4.8,5.56,4.8,5.28a.58.58,0,0,1,0,.76.57.57,0,0,1-.43.2.63.63,0,0,1-.32-.1,23.71,23.71,0,0,0-8.7-3.26,18.39,18.39,0,0,0-3.26-.3c-4.73,0-8.16,2-9.1,3.91a1.42,1.42,0,0,0,0,1.52,1.65,1.65,0,0,0,1.29.76c1.25,0,2.63-1.77,3.06-2.45a.58.58,0,0,1,.49-.27h.09a.58.58,0,0,1,.46.43c0,.16.89,4-5.72,9.23-2.05,1.62-6.37,3.41-8.42,3.49Zm.37-5a13.16,13.16,0,0,0,1.36,2,15.1,15.1,0,0,0,1.1-1.63,5.06,5.06,0,0,0-2.06-.42Zm2.3-2.52a.53.53,0,0,0,.38-.22,2.81,2.81,0,0,0,.38-1.21,2.44,2.44,0,0,0-.38.4,2.35,2.35,0,0,0-.46,1Z" fill="#fff"/><path d="M43.24,70.66h0m0,0-5.13,6,5.13,5.66a24.28,24.28,0,0,0-8.92-3.36,20.23,20.23,0,0,0-3.36-.3c-7.16,0-11.14,4.31-9.54,6.35a2.19,2.19,0,0,0,1.74,1c1.84,0,3.55-2.72,3.55-2.72s.87,3.55-5.53,8.64c-1.93,1.54-6.13,3.3-8.08,3.37l-.07,0h0a9.37,9.37,0,0,1-1-4,13.89,13.89,0,0,0,2,3.38l.06,0a8.39,8.39,0,0,1-1.22-3.69,13.6,13.6,0,0,0,2,2.91,13.18,13.18,0,0,0,1.88-2.77h0a5.55,5.55,0,0,0-2.83-.74,6.62,6.62,0,0,0-2.58.52c.33-5.4,2.32-15.4,12-20-.46,1.12.15,5.09.15,5.09a49.28,49.28,0,0,1,6.69-.55,17.78,17.78,0,0,1,3,.22c1.5-2.58,10.11-4.76,10.11-4.76M22.77,79.57c.51-.93.36-1.77-1.16-2.29a2.48,2.48,0,0,1,1.16,2.29m-.65,1c.66-1.23.48-2.34-1.52-3a3.32,3.32,0,0,1,1.52,3m-.76,1.07c.83-1.54.59-2.91-1.89-3.76a4.08,4.08,0,0,1,1.89,3.76m-.87,1.07c1-1.84.7-3.47-2.27-4.5a4.92,4.92,0,0,1,2.27,4.5m-3.32,3.22c-1.45.11-2.47,2.44-1.89,2.76a1,1,0,0,0,.49.13,1.07,1.07,0,0,0,.83-.43,5.42,5.42,0,0,0,.57-2.46h0M43.24,69.52h-.09l-.21,0c-1.45.37-8,2.14-10.3,4.63a23.67,23.67,0,0,0-2.53-.13,47,47,0,0,0-5.71.4,11.59,11.59,0,0,1-.07-3.37,1.15,1.15,0,0,0-1.08-1.57,1.2,1.2,0,0,0-.48.11c-10.15,4.89-12.27,15.27-12.62,21a1.12,1.12,0,0,0,.5,1l.2.11a11.46,11.46,0,0,0,1.08,3.81,1.25,1.25,0,0,0,.31.46,1.41,1.41,0,0,0,.86.33h.05c2.17-.08,6.59-1.91,8.74-3.62,6.78-5.39,6-9.37,5.93-9.81a1.15,1.15,0,0,0-.93-.85h-.18a1.15,1.15,0,0,0-1,.53c-.56.88-1.76,2.19-2.58,2.19-.11,0-.41,0-.84-.55a.88.88,0,0,1,.05-.91C23,82,26,79.75,31,79.75a18.21,18.21,0,0,1,3.16.29,23.32,23.32,0,0,1,8.47,3.16,1.14,1.14,0,0,0,.65.21,1.14,1.14,0,0,0,.85-1.91l-4.46-4.91,4.44-5.14a1.13,1.13,0,0,0,.32-.79,1.14,1.14,0,0,0-1.13-1.14Zm0,2.28h0ZM14.82,91.86l-.34-.49a3.84,3.84,0,0,1,.59.11c-.07.12-.16.25-.25.38Z" fill="#fff"/><path d="M12.85,90.79A13.33,13.33,0,0,0,15.12,94a1.5,1.5,0,0,1-.9.74S12.78,92.39,12.85,90.79Zm-.84.36a13.64,13.64,0,0,0,2.08,3.47A1.42,1.42,0,0,1,13,95.2S11.8,92.72,12,91.15Z" fill="#f0981b"/><path d="M43.24,70.66s-8.61,2.18-10.11,4.76c-3.6-.64-9.71.33-9.71.33s-.61-4-.15-5.09c-9.66,4.65-11.65,14.65-12,20a6.21,6.21,0,0,1,5.41.22c.11-.08-1.79,3.44-3.7,4.26,0,0,.12,0,.1,0,2-.07,6.15-1.83,8.08-3.37,6.4-5.09,5.53-8.64,5.53-8.64s-3,4.71-5.29,1.74c-1.84-2.34,3.68-7.67,12.9-6a24.28,24.28,0,0,1,8.92,3.36l-5.13-5.66ZM16.6,88.39a1,1,0,0,1-1.32.3c-.58-.32.44-2.65,1.89-2.76A5.34,5.34,0,0,1,16.6,88.39Zm3.89-5.68a4.92,4.92,0,0,0-2.27-4.5C21.19,79.24,21.47,80.87,20.49,82.71Zm.87-1.07a4.08,4.08,0,0,0-1.89-3.76C22,78.73,22.19,80.1,21.36,81.64Zm.76-1.07a3.32,3.32,0,0,0-1.52-3C22.6,78.23,22.78,79.34,22.12,80.57Zm.65-1a2.48,2.48,0,0,0-1.16-2.29C23.13,77.8,23.28,78.64,22.77,79.57Z" fill="#f0981b"/><path d="M93.1,95.8a.58.58,0,0,1-.26-.06.58.58,0,0,1-.38-.38,10.1,10.1,0,0,1-1-4.09h-.13a.51.51,0,0,1-.32-.1.53.53,0,0,1-.25-.5c.34-5.62,2.41-15.77,12.3-20.53a.54.54,0,0,1,.25-.06.59.59,0,0,1,.39.16.57.57,0,0,1,.14.63,13.57,13.57,0,0,0,.1,4.22,47.91,47.91,0,0,1,6.21-.47,20.09,20.09,0,0,1,2.76.17c2-2.55,9.37-4.47,10.23-4.69l.14,0a.57.57,0,0,1,.43,1l-4.8,5.56,4.8,5.28a.58.58,0,0,1,0,.76.57.57,0,0,1-.43.2.63.63,0,0,1-.32-.1,23.71,23.71,0,0,0-8.7-3.26,18.39,18.39,0,0,0-3.26-.3c-4.73,0-8.16,2-9.1,3.91a1.42,1.42,0,0,0,0,1.52,1.65,1.65,0,0,0,1.29.76c1.25,0,2.63-1.77,3.06-2.45a.58.58,0,0,1,.49-.27h.09a.58.58,0,0,1,.46.43c0,.16.89,4-5.72,9.23-2.05,1.62-6.37,3.41-8.42,3.49Zm.37-5a13.16,13.16,0,0,0,1.36,2,15.1,15.1,0,0,0,1.1-1.63,5.06,5.06,0,0,0-2.06-.42Zm2.3-2.52a.53.53,0,0,0,.38-.22,2.81,2.81,0,0,0,.38-1.21,2.44,2.44,0,0,0-.38.4,2.35,2.35,0,0,0-.46,1Z" fill="#fff"/><path d="M123.24,70.66h0m0,0-5.13,6,5.13,5.66a24.28,24.28,0,0,0-8.92-3.36,20.23,20.23,0,0,0-3.36-.3c-7.16,0-11.14,4.31-9.54,6.35a2.19,2.19,0,0,0,1.74,1c1.84,0,3.55-2.72,3.55-2.72s.87,3.55-5.53,8.64c-1.93,1.54-6.13,3.3-8.08,3.37l-.07,0h0a9.37,9.37,0,0,1-1-4,13.89,13.89,0,0,0,2,3.38l.06,0a8.39,8.39,0,0,1-1.22-3.69,13.6,13.6,0,0,0,2,2.91,13.18,13.18,0,0,0,1.88-2.77h0a5.55,5.55,0,0,0-2.83-.74,6.62,6.62,0,0,0-2.58.52c.33-5.4,2.32-15.4,12-20-.46,1.12.15,5.09.15,5.09a49.28,49.28,0,0,1,6.69-.55,17.78,17.78,0,0,1,3,.22c1.5-2.58,10.11-4.76,10.11-4.76m-20.47,8.91c.51-.93.36-1.77-1.16-2.29a2.48,2.48,0,0,1,1.16,2.29m-.65,1c.66-1.23.48-2.34-1.52-3a3.32,3.32,0,0,1,1.52,3m-.76,1.07c.83-1.54.59-2.91-1.89-3.76a4.08,4.08,0,0,1,1.89,3.76m-.87,1.07c1-1.84.7-3.47-2.27-4.5a4.92,4.92,0,0,1,2.27,4.5m-3.32,3.22c-1.45.11-2.47,2.44-1.89,2.76a1,1,0,0,0,.49.13,1.07,1.07,0,0,0,.83-.43,5.42,5.42,0,0,0,.57-2.46h0m26.07-16.41h-.09l-.21,0c-1.45.37-8,2.14-10.3,4.63a23.67,23.67,0,0,0-2.53-.13,47,47,0,0,0-5.71.4,11.59,11.59,0,0,1-.07-3.37,1.15,1.15,0,0,0-1.08-1.57,1.2,1.2,0,0,0-.48.11c-10.15,4.89-12.27,15.27-12.62,21a1.12,1.12,0,0,0,.5,1l.2.11a11.46,11.46,0,0,0,1.08,3.81,1.25,1.25,0,0,0,.31.46,1.41,1.41,0,0,0,.86.33h.05c2.17-.08,6.59-1.91,8.74-3.62,6.78-5.39,6-9.37,5.93-9.81a1.15,1.15,0,0,0-.93-.85h-.18a1.15,1.15,0,0,0-1,.53c-.56.88-1.76,2.19-2.58,2.19-.11,0-.41,0-.84-.55a.88.88,0,0,1,.05-.91C103,82,106,79.75,111,79.75a18.21,18.21,0,0,1,3.16.29,23.32,23.32,0,0,1,8.47,3.16,1.14,1.14,0,0,0,.65.21,1.14,1.14,0,0,0,.85-1.91l-4.46-4.91,4.44-5.14a1.13,1.13,0,0,0,.32-.79,1.14,1.14,0,0,0-1.13-1.14Zm0,2.28h0ZM94.82,91.86l-.34-.49a3.84,3.84,0,0,1,.59.11c-.07.12-.16.25-.25.38Z" fill="#fff"/><path d="M92.85,90.79A13.33,13.33,0,0,0,95.12,94a1.5,1.5,0,0,1-.9.74S92.78,92.39,92.85,90.79Zm-.84.36a13.64,13.64,0,0,0,2.08,3.47A1.42,1.42,0,0,1,93,95.2S91.8,92.72,92,91.15Z" fill="#f0981b"/><path d="M123.24,70.66s-8.61,2.18-10.11,4.76c-3.6-.64-9.71.33-9.71.33s-.61-4-.15-5.09c-9.66,4.65-11.65,14.65-12,20a6.21,6.21,0,0,1,5.41.22c.11-.08-1.79,3.44-3.7,4.26,0,0,.12,0,.1,0,2-.07,6.15-1.83,8.08-3.37,6.4-5.09,5.53-8.64,5.53-8.64s-3,4.71-5.29,1.74c-1.84-2.34,3.68-7.67,12.9-6a24.28,24.28,0,0,1,8.92,3.36l-5.13-5.66ZM96.6,88.39a1,1,0,0,1-1.32.3c-.58-.32.44-2.65,1.89-2.76A5.34,5.34,0,0,1,96.6,88.39Zm3.89-5.68a4.92,4.92,0,0,0-2.27-4.5C101.19,79.24,101.47,80.87,100.49,82.71Zm.87-1.07a4.08,4.08,0,0,0-1.89-3.76C102,78.73,102.19,80.1,101.36,81.64Zm.76-1.07a3.32,3.32,0,0,0-1.52-3C102.6,78.23,102.78,79.34,102.12,80.57Zm.65-1a2.48,2.48,0,0,0-1.16-2.29C103.13,77.8,103.28,78.64,102.77,79.57Z" fill="#f0981b"/><path d="M93.1,226.8a.58.58,0,0,1-.26-.06.58.58,0,0,1-.38-.38,10.1,10.1,0,0,1-1-4.09h-.13a.51.51,0,0,1-.32-.1.53.53,0,0,1-.25-.5c.34-5.62,2.41-15.77,12.3-20.53a.54.54,0,0,1,.25-.06.59.59,0,0,1,.39.16.57.57,0,0,1,.14.63,13.57,13.57,0,0,0,.1,4.22,47.91,47.91,0,0,1,6.21-.47,20.09,20.09,0,0,1,2.76.17c2-2.55,9.37-4.47,10.23-4.69l.14,0a.57.57,0,0,1,.43.95l-4.8,5.56,4.8,5.28a.58.58,0,0,1,0,.76.57.57,0,0,1-.43.2.63.63,0,0,1-.32-.1,23.71,23.71,0,0,0-8.7-3.26,18.39,18.39,0,0,0-3.26-.3c-4.73,0-8.16,2-9.1,3.91a1.42,1.42,0,0,0,0,1.52,1.65,1.65,0,0,0,1.29.76c1.25,0,2.63-1.77,3.06-2.45a.58.58,0,0,1,.49-.27h.09a.58.58,0,0,1,.46.43c0,.16.89,4-5.72,9.23-2.05,1.62-6.37,3.41-8.42,3.49Zm.37-5a13.16,13.16,0,0,0,1.36,2,15.1,15.1,0,0,0,1.1-1.63,5.06,5.06,0,0,0-2.06-.42Zm2.3-2.52a.53.53,0,0,0,.38-.22,2.81,2.81,0,0,0,.38-1.21,2.44,2.44,0,0,0-.38.4,2.35,2.35,0,0,0-.46,1Z" fill="#fff"/><path d="M123.24,201.66h0m0,0-5.13,6,5.13,5.66a24.28,24.28,0,0,0-8.92-3.36,20.23,20.23,0,0,0-3.36-.3c-7.16,0-11.14,4.31-9.54,6.35a2.19,2.19,0,0,0,1.74,1c1.84,0,3.55-2.72,3.55-2.72s.87,3.55-5.53,8.64c-1.93,1.54-6.13,3.3-8.08,3.37l-.07,0h0a9.37,9.37,0,0,1-1-4,13.89,13.89,0,0,0,2,3.38l.06-.05a8.39,8.39,0,0,1-1.22-3.69,13.6,13.6,0,0,0,2,2.91,13.18,13.18,0,0,0,1.88-2.77h0a5.55,5.55,0,0,0-2.83-.74,6.62,6.62,0,0,0-2.58.52c.33-5.4,2.32-15.4,12-20.05-.46,1.12.15,5.09.15,5.09a49.28,49.28,0,0,1,6.69-.55,17.78,17.78,0,0,1,3,.22c1.5-2.58,10.11-4.76,10.11-4.76m-20.47,8.91c.51-.93.36-1.77-1.16-2.29a2.48,2.48,0,0,1,1.16,2.29m-.65,1c.66-1.23.48-2.34-1.52-3a3.32,3.32,0,0,1,1.52,3m-.76,1.07c.83-1.54.59-2.91-1.89-3.76a4.08,4.08,0,0,1,1.89,3.76m-.87,1.07c1-1.84.7-3.47-2.27-4.5a4.92,4.92,0,0,1,2.27,4.5m-3.32,3.22c-1.45.11-2.47,2.44-1.89,2.76a1,1,0,0,0,.49.13,1.07,1.07,0,0,0,.83-.43,5.42,5.42,0,0,0,.57-2.46h0m26.07-16.41h-.09l-.21,0c-1.45.37-8,2.14-10.3,4.63a23.67,23.67,0,0,0-2.53-.13,47,47,0,0,0-5.71.4,11.59,11.59,0,0,1-.07-3.37,1.15,1.15,0,0,0-1.08-1.57,1.2,1.2,0,0,0-.48.11c-10.15,4.89-12.27,15.27-12.62,21a1.12,1.12,0,0,0,.5,1l.2.11a11.46,11.46,0,0,0,1.08,3.81,1.25,1.25,0,0,0,.31.46,1.41,1.41,0,0,0,.86.33h.05c2.17-.08,6.59-1.91,8.74-3.62,6.78-5.39,6-9.37,5.93-9.81a1.15,1.15,0,0,0-.93-.85h-.18a1.15,1.15,0,0,0-1,.53c-.56.88-1.76,2.19-2.58,2.19-.11,0-.41,0-.84-.55a.88.88,0,0,1,.05-.91c.67-1.39,3.6-3.59,8.59-3.59a18.21,18.21,0,0,1,3.16.29,23.32,23.32,0,0,1,8.47,3.16,1.14,1.14,0,0,0,.65.21,1.14,1.14,0,0,0,.85-1.91l-4.46-4.91,4.44-5.14a1.13,1.13,0,0,0,.32-.79,1.14,1.14,0,0,0-1.13-1.14Zm0,2.28h0ZM94.82,222.86l-.34-.49a3.84,3.84,0,0,1,.59.11c-.07.12-.16.25-.25.38Z" fill="#fff"/><path d="M92.85,221.79A13.33,13.33,0,0,0,95.12,225a1.5,1.5,0,0,1-.9.74S92.78,223.39,92.85,221.79Zm-.84.36a13.64,13.64,0,0,0,2.08,3.47,1.42,1.42,0,0,1-1.07.58S91.8,223.72,92,222.15Z" fill="#f0981b"/><path d="M123.24,201.66s-8.61,2.18-10.11,4.76c-3.6-.64-9.71.33-9.71.33s-.61-4-.15-5.09c-9.66,4.65-11.65,14.65-12,20.05a6.21,6.21,0,0,1,5.41.22c.11-.08-1.79,3.44-3.7,4.26,0,0,.12,0,.1,0,2-.07,6.15-1.83,8.08-3.37,6.4-5.09,5.53-8.64,5.53-8.64s-3,4.71-5.29,1.74c-1.84-2.34,3.68-7.67,12.9-6.05a24.28,24.28,0,0,1,8.92,3.36l-5.13-5.66ZM96.6,219.39a1,1,0,0,1-1.32.3c-.58-.32.44-2.65,1.89-2.76A5.34,5.34,0,0,1,96.6,219.39Zm3.89-5.68a4.92,4.92,0,0,0-2.27-4.5C101.19,210.24,101.47,211.87,100.49,213.71Zm.87-1.07a4.08,4.08,0,0,0-1.89-3.76C102,209.73,102.19,211.1,101.36,212.64Zm.76-1.07a3.32,3.32,0,0,0-1.52-3C102.6,209.23,102.78,210.34,102.12,211.57Zm.65-1a2.48,2.48,0,0,0-1.16-2.29C103.13,208.8,103.28,209.64,102.77,210.57Z" fill="#f0981b"/><path d="M175.1,95.8a.58.58,0,0,1-.26-.06.58.58,0,0,1-.38-.38,10.1,10.1,0,0,1-1-4.09h-.13a.51.51,0,0,1-.32-.1.53.53,0,0,1-.25-.5c.34-5.62,2.41-15.77,12.3-20.53a.54.54,0,0,1,.25-.06.59.59,0,0,1,.39.16.57.57,0,0,1,.14.63,13.57,13.57,0,0,0,.1,4.22,47.91,47.91,0,0,1,6.21-.47,20.09,20.09,0,0,1,2.76.17c2-2.55,9.37-4.47,10.23-4.69l.14,0a.57.57,0,0,1,.43,1l-4.8,5.56,4.8,5.28a.58.58,0,0,1,0,.76.57.57,0,0,1-.43.2.63.63,0,0,1-.32-.1,23.71,23.71,0,0,0-8.7-3.26,18.39,18.39,0,0,0-3.26-.3c-4.73,0-8.16,2-9.1,3.91a1.42,1.42,0,0,0,0,1.52,1.65,1.65,0,0,0,1.29.76c1.25,0,2.63-1.77,3.06-2.45a.58.58,0,0,1,.49-.27h.09a.58.58,0,0,1,.46.43c0,.16.89,4-5.72,9.23-2,1.62-6.37,3.41-8.42,3.49Zm.37-5a13.16,13.16,0,0,0,1.36,2,15.1,15.1,0,0,0,1.1-1.63,5.06,5.06,0,0,0-2.06-.42Zm2.3-2.52a.53.53,0,0,0,.38-.22,2.81,2.81,0,0,0,.38-1.21,2.44,2.44,0,0,0-.38.4,2.35,2.35,0,0,0-.46,1Z" fill="#fff"/><path d="M205.24,70.66h0m0,0-5.13,6,5.13,5.66a24.28,24.28,0,0,0-8.92-3.36,20.23,20.23,0,0,0-3.36-.3c-7.16,0-11.14,4.31-9.54,6.35a2.19,2.19,0,0,0,1.74,1c1.84,0,3.55-2.72,3.55-2.72s.87,3.55-5.53,8.64c-1.93,1.54-6.13,3.3-8.08,3.37l-.07,0h0a9.37,9.37,0,0,1-1-4,13.89,13.89,0,0,0,2,3.38l.06,0a8.39,8.39,0,0,1-1.22-3.69,13.6,13.6,0,0,0,2,2.91,13.18,13.18,0,0,0,1.88-2.77h0a5.55,5.55,0,0,0-2.83-.74,6.62,6.62,0,0,0-2.58.52c.33-5.4,2.32-15.4,12-20-.46,1.12.15,5.09.15,5.09a49.28,49.28,0,0,1,6.69-.55,17.78,17.78,0,0,1,3,.22c1.5-2.58,10.11-4.76,10.11-4.76m-20.47,8.91c.51-.93.36-1.77-1.16-2.29a2.48,2.48,0,0,1,1.16,2.29m-.65,1c.66-1.23.48-2.34-1.52-3a3.32,3.32,0,0,1,1.52,3m-.76,1.07c.83-1.54.59-2.91-1.89-3.76a4.08,4.08,0,0,1,1.89,3.76m-.87,1.07c1-1.84.7-3.47-2.27-4.5a4.92,4.92,0,0,1,2.27,4.5m-3.32,3.22c-1.45.11-2.47,2.44-1.89,2.76a1,1,0,0,0,.49.13,1.07,1.07,0,0,0,.83-.43,5.42,5.42,0,0,0,.57-2.46h0m26.07-16.41h-.09l-.21,0c-1.45.37-8,2.14-10.3,4.63a23.67,23.67,0,0,0-2.53-.13,47,47,0,0,0-5.71.4,11.59,11.59,0,0,1-.07-3.37,1.15,1.15,0,0,0-1.08-1.57,1.2,1.2,0,0,0-.48.11c-10.15,4.89-12.27,15.27-12.62,21a1.12,1.12,0,0,0,.5,1l.2.11a11.46,11.46,0,0,0,1.08,3.81,1.25,1.25,0,0,0,.31.46,1.41,1.41,0,0,0,.86.33h.05c2.17-.08,6.59-1.91,8.74-3.62,6.78-5.39,6-9.37,5.93-9.81a1.15,1.15,0,0,0-.93-.85h-.18a1.15,1.15,0,0,0-1,.53c-.56.88-1.76,2.19-2.58,2.19-.11,0-.41,0-.84-.55a.88.88,0,0,1,.05-.91C185,82,188,79.75,193,79.75a18.21,18.21,0,0,1,3.16.29,23.32,23.32,0,0,1,8.47,3.16,1.14,1.14,0,0,0,.65.21,1.14,1.14,0,0,0,.85-1.91l-4.46-4.91,4.44-5.14a1.13,1.13,0,0,0,.32-.79,1.14,1.14,0,0,0-1.13-1.14Zm0,2.28h0ZM176.82,91.86l-.34-.49a3.84,3.84,0,0,1,.59.11c-.07.12-.16.25-.25.38Z" fill="#fff"/><path d="M174.85,90.79A13.33,13.33,0,0,0,177.12,94a1.5,1.5,0,0,1-.9.74S174.78,92.39,174.85,90.79Zm-.84.36a13.64,13.64,0,0,0,2.08,3.47,1.42,1.42,0,0,1-1.07.58S173.8,92.72,174,91.15Z" fill="#f0981b"/><path d="M205.24,70.66s-8.61,2.18-10.11,4.76c-3.6-.64-9.71.33-9.71.33s-.61-4-.15-5.09c-9.66,4.65-11.65,14.65-12,20a6.21,6.21,0,0,1,5.41.22c.11-.08-1.79,3.44-3.7,4.26,0,0,.12,0,.1,0,2-.07,6.15-1.83,8.08-3.37,6.4-5.09,5.53-8.64,5.53-8.64s-3,4.71-5.29,1.74c-1.84-2.34,3.68-7.67,12.9-6a24.28,24.28,0,0,1,8.92,3.36l-5.13-5.66ZM178.6,88.39a1,1,0,0,1-1.32.3c-.58-.32.44-2.65,1.89-2.76A5.34,5.34,0,0,1,178.6,88.39Zm3.89-5.68a4.92,4.92,0,0,0-2.27-4.5C183.19,79.24,183.47,80.87,182.49,82.71Zm.87-1.07a4.08,4.08,0,0,0-1.89-3.76C184,78.73,184.19,80.1,183.36,81.64Zm.76-1.07a3.32,3.32,0,0,0-1.52-3C184.6,78.23,184.78,79.34,184.12,80.57Zm.65-1a2.48,2.48,0,0,0-1.16-2.29C185.13,77.8,185.28,78.64,184.77,79.57Z" fill="#f0981b"/><polygon points="28.42 46.34 25.83 40.96 31.01 40.96 28.42 46.34" fill="#71b429"/><polygon points="189.35 46.34 186.77 40.96 191.94 40.96 189.35 46.34" fill="#71b429"/><path d="M189.86,42.35h-1v-4h1Zm0-8h-1v-4h1Zm0-8h-1v-4h1Z" fill="#71b429"/><path d="M89.12,4.17v3h-.83V0h2a3.11,3.11,0,0,1,1.94.5A1.83,1.83,0,0,1,92.82,2a1.89,1.89,0,0,1-1.44,1.91l1.94,3.21h-1l-1.73-3Zm0-.71h1.14a2,2,0,0,0,1.29-.35,1.31,1.31,0,0,0,.41-1,1.19,1.19,0,0,0-.42-1A2.22,2.22,0,0,0,90.2.73H89.12Z" fill="#71b429"/><path d="M96.61,7.24a2.43,2.43,0,0,1-1.87-.73,2.77,2.77,0,0,1-.68-2,3.13,3.13,0,0,1,.63-2.06,2.12,2.12,0,0,1,1.71-.76,2.05,2.05,0,0,1,1.6.66,2.53,2.53,0,0,1,.58,1.75v.51H94.89A2.15,2.15,0,0,0,95.37,6a1.64,1.64,0,0,0,1.27.49,4.3,4.3,0,0,0,1.71-.36v.72a5.12,5.12,0,0,1-.81.27A4.88,4.88,0,0,1,96.61,7.24Zm-.22-4.87a1.3,1.3,0,0,0-1,.42A2,2,0,0,0,94.91,4h2.8a1.76,1.76,0,0,0-.34-1.17A1.18,1.18,0,0,0,96.39,2.37Z" fill="#71b429"/><path d="M101.86,7.24a2,2,0,0,1-1.61-.73,3.16,3.16,0,0,1-.58-2,3.21,3.21,0,0,1,.58-2.05,2,2,0,0,1,1.63-.74,2,2,0,0,1,1.69.83h.05l.11-.73h.64V9.54h-.81V7.25a5,5,0,0,1,.06-.83h-.07A1.92,1.92,0,0,1,101.86,7.24Zm.12-.68a1.5,1.5,0,0,0,1.19-.44,2.36,2.36,0,0,0,.39-1.46V4.48a2.72,2.72,0,0,0-.38-1.62,1.42,1.42,0,0,0-1.2-.49,1.25,1.25,0,0,0-1.1.55,2.78,2.78,0,0,0-.37,1.57A2.68,2.68,0,0,0,100.88,6,1.27,1.27,0,0,0,102,6.56Z" fill="#71b429"/><path d="M106.85,1.79V5.26a1.4,1.4,0,0,0,.3,1,1.23,1.23,0,0,0,.93.32,1.55,1.55,0,0,0,1.23-.46,2.32,2.32,0,0,0,.39-1.5V1.79h.81V7.14h-.67l-.12-.72h0A1.7,1.7,0,0,1,109,7a2.34,2.34,0,0,1-1,.21,2,2,0,0,1-1.46-.47A1.94,1.94,0,0,1,106,5.29V1.79Z" fill="#71b429"/><path d="M114.49,7.24a2.42,2.42,0,0,1-1.87-.73,2.78,2.78,0,0,1-.69-2,3.08,3.08,0,0,1,.64-2.06,2.09,2.09,0,0,1,1.71-.76,2,2,0,0,1,1.59.66,2.54,2.54,0,0,1,.59,1.75v.51h-3.69A2.15,2.15,0,0,0,113.25,6a1.62,1.62,0,0,0,1.27.49,4.34,4.34,0,0,0,1.71-.36v.72a5.22,5.22,0,0,1-.82.27A4.77,4.77,0,0,1,114.49,7.24Zm-.22-4.87a1.33,1.33,0,0,0-1,.42A2,2,0,0,0,112.79,4h2.8a1.81,1.81,0,0,0-.34-1.17A1.19,1.19,0,0,0,114.27,2.37Z" fill="#71b429"/><path d="M121.29,5.68a1.32,1.32,0,0,1-.56,1.15,2.61,2.61,0,0,1-1.56.41,3.45,3.45,0,0,1-1.66-.34V6.15a4.57,4.57,0,0,0,.83.31,3.67,3.67,0,0,0,.85.11,2,2,0,0,0,1-.2.71.71,0,0,0,.07-1.16,4.08,4.08,0,0,0-1.06-.52,5.77,5.77,0,0,1-1.06-.49,1.4,1.4,0,0,1-.47-.47,1.28,1.28,0,0,1-.15-.63,1.2,1.2,0,0,1,.53-1,2.48,2.48,0,0,1,1.46-.38,4.34,4.34,0,0,1,1.69.35l-.29.66a3.89,3.89,0,0,0-1.46-.33,1.71,1.71,0,0,0-.87.18.56.56,0,0,0-.29.5.61.61,0,0,0,.11.36,1.06,1.06,0,0,0,.35.29c.17.09.48.22.94.4a3.6,3.6,0,0,1,1.29.69A1.26,1.26,0,0,1,121.29,5.68Z" fill="#71b429"/><path d="M124.34,6.57a2.73,2.73,0,0,0,.41,0l.32-.07v.62a1.72,1.72,0,0,1-.39.11,4.09,4.09,0,0,1-.46,0c-1,0-1.55-.55-1.55-1.64V2.42h-.77V2l.77-.34L123,.55h.47V1.79H125v.63h-1.55V5.57a1.09,1.09,0,0,0,.23.74A.8.8,0,0,0,124.34,6.57Z" fill="#71b429"/><path d="M129.59,5.68A1.33,1.33,0,0,1,129,6.83a2.66,2.66,0,0,1-1.57.41,3.45,3.45,0,0,1-1.66-.34V6.15a4.57,4.57,0,0,0,.83.31,3.67,3.67,0,0,0,.85.11,2,2,0,0,0,1-.2.71.71,0,0,0,.07-1.16,4.08,4.08,0,0,0-1.06-.52,5.77,5.77,0,0,1-1.06-.49,1.4,1.4,0,0,1-.47-.47,1.28,1.28,0,0,1-.15-.63,1.2,1.2,0,0,1,.53-1,2.48,2.48,0,0,1,1.46-.38,4.34,4.34,0,0,1,1.69.35l-.29.66a3.89,3.89,0,0,0-1.46-.33,1.71,1.71,0,0,0-.87.18.56.56,0,0,0-.29.5.61.61,0,0,0,.11.36,1.06,1.06,0,0,0,.35.29c.17.09.48.22.94.4a3.6,3.6,0,0,1,1.29.69A1.26,1.26,0,0,1,129.59,5.68Z" fill="#71b429"/><path d="M105.48,251.29a3.59,3.59,0,0,1-1,2.7,3.77,3.77,0,0,1-2.76.94h-2v-7.14H102a3.21,3.21,0,0,1,3.51,3.5Zm-.88,0a2.89,2.89,0,0,0-.7-2.1,2.83,2.83,0,0,0-2.09-.71h-1.2v5.7h1a3.06,3.06,0,0,0,2.23-.73A2.86,2.86,0,0,0,104.6,251.32Z" fill="#fff"/><path d="M111.55,254.93l-.88-2.27H107.8l-.87,2.27h-.84l2.82-7.17h.7l2.8,7.17Zm-1.14-3-.83-2.21a9.77,9.77,0,0,1-.33-1c-.08.31-.18.66-.31,1l-.84,2.21Z" fill="#fff"/><path d="M117.42,253a1.73,1.73,0,0,1-.68,1.47,3,3,0,0,1-1.86.53,4.63,4.63,0,0,1-1.95-.33v-.8a5.46,5.46,0,0,0,2,.4,2.06,2.06,0,0,0,1.25-.31,1,1,0,0,0,.42-.88,1.22,1.22,0,0,0-.14-.61,1.47,1.47,0,0,0-.5-.44,8.16,8.16,0,0,0-1.06-.45,3.5,3.5,0,0,1-1.43-.84,1.9,1.9,0,0,1-.43-1.28,1.58,1.58,0,0,1,.62-1.31,2.59,2.59,0,0,1,1.65-.49,4.82,4.82,0,0,1,1.95.39l-.26.72a4.51,4.51,0,0,0-1.71-.37,1.7,1.7,0,0,0-1,.28,1,1,0,0,0-.38.79,1.22,1.22,0,0,0,.14.61,1.28,1.28,0,0,0,.46.43,6,6,0,0,0,1,.44,4,4,0,0,1,1.54.86A1.7,1.7,0,0,1,117.42,253Z" fill="#fff"/></svg>