<svg id="Слой_1" data-name="Слой 1" xmlns="http://www.w3.org/2000/svg" viewBox="0 0 283.92 156"><title>9</title><rect x="122.75" width="38.14" height="42.06" rx="1.47" ry="1.47" fill="#5e6981"/><rect x="124.21" y="1.47" width="35.21" height="35.21" rx="0.96" ry="0.96" fill="#fff"/><rect x="127.39" y="4.65" width="28.85" height="28.85" rx="1.49" ry="1.49" fill="#71b429"/><rect x="122.75" y="59.17" width="38.14" height="42.06" rx="1.47" ry="1.47" fill="#5e6981"/><rect x="124.21" y="60.64" width="35.21" height="35.21" rx="0.96" ry="0.96" fill="#fff"/><path d="M156.24,70.2v21a1.5,1.5,0,0,1-1.49,1.49H128.88a1.5,1.5,0,0,1-1.49-1.49v-21" fill="#01abff"/><rect x="75.8" y="59.17" width="38.14" height="42.06" rx="1.47" ry="1.47" fill="#5e6981"/><rect x="77.27" y="60.64" width="35.21" height="35.21" rx="0.96" ry="0.96" fill="#fff"/><path d="M109.3,70.2v21a1.5,1.5,0,0,1-1.49,1.49H81.94a1.5,1.5,0,0,1-1.49-1.49v-21" fill="#01abff"/><g opacity="0.5"><rect x="19.07" y="59.17" width="38.14" height="42.06" rx="1.47" ry="1.47" fill="#5e6981"/></g><rect x="20.54" y="60.64" width="35.21" height="35.21" rx="0.96" ry="0.96" fill="#3d4351"/><g opacity="0.5"><path d="M52.57,70.2v21a1.5,1.5,0,0,1-1.49,1.49H25.21a1.5,1.5,0,0,1-1.49-1.49v-21" fill="#01abff"/></g><g opacity="0.5"><path d="M50.59,93.16H24.72a2,2,0,0,1-2-2V65.31a2,2,0,0,1,2-2H50.59a2,2,0,0,1,2,2V91.18A2,2,0,0,1,50.59,93.16ZM24.72,64.31a1,1,0,0,0-1,1V91.18a1,1,0,0,0,1,1H50.59a1,1,0,0,0,1-1V65.31a1,1,0,0,0-1-1Z" fill="#0173ff"/></g><path d="M107.81,93.16H81.94a2,2,0,0,1-2-2V65.31a2,2,0,0,1,2-2h25.87a2,2,0,0,1,2,2V91.18A2,2,0,0,1,107.81,93.16ZM81.94,64.31a1,1,0,0,0-1,1V91.18a1,1,0,0,0,1,1h25.87a1,1,0,0,0,1-1V65.31a1,1,0,0,0-1-1Z" fill="#0173ff"/><path d="M154.75,93.16H128.88a2,2,0,0,1-2-2V65.31a2,2,0,0,1,2-2h25.87a2,2,0,0,1,2,2V91.18A2,2,0,0,1,154.75,93.16ZM128.88,64.31a1,1,0,0,0-1,1V91.18a1,1,0,0,0,1,1h25.87a1,1,0,0,0,1-1V65.31a1,1,0,0,0-1-1Z" fill="#0173ff"/><rect x="169.69" y="59.17" width="38.14" height="42.06" rx="1.47" ry="1.47" fill="#5e6981"/><rect x="171.16" y="60.64" width="35.21" height="35.21" rx="0.96" ry="0.96" fill="#fff"/><path d="M203.19,70.2v21a1.5,1.5,0,0,1-1.49,1.49H175.83a1.5,1.5,0,0,1-1.49-1.49v-21" fill="#01abff"/><g opacity="0.5"><rect x="226.42" y="59.17" width="38.14" height="42.06" rx="1.47" ry="1.47" fill="#5e6981"/></g><rect x="227.89" y="60.64" width="35.21" height="35.21" rx="0.96" ry="0.96" fill="#3d4351"/><g opacity="0.5"><path d="M259.92,70.2v21a1.5,1.5,0,0,1-1.49,1.49H232.56a1.5,1.5,0,0,1-1.49-1.49v-21" fill="#01abff"/></g><rect x="122.75" y="113.94" width="38.14" height="42.06" rx="1.47" ry="1.47" fill="#5e6981"/><rect x="124.21" y="115.41" width="35.21" height="35.21" rx="0.96" ry="0.96" fill="#fff"/><rect x="127.39" y="118.59" width="28.85" height="28.85" rx="1.49" ry="1.49" fill="#f06c60"/><circle cx="220.8" cy="80.2" r="1.22" fill="#5e6981"/><circle cx="216.88" cy="80.2" r="1.22" fill="#5e6981"/><circle cx="212.97" cy="80.2" r="1.22" fill="#5e6981"/><circle cx="70.66" cy="80.2" r="1.22" fill="#5e6981"/><circle cx="66.75" cy="80.2" r="1.22" fill="#5e6981"/><circle cx="62.84" cy="80.2" r="1.22" fill="#5e6981"/><path d="M136.68,22.5V15.34h.95v6.31h3.53v.84Z" fill="#fff"/><path d="M142.24,22.5V15.34h2.69a3.34,3.34,0,0,1,1.32.22,1.69,1.69,0,0,1,.78.67,1.76,1.76,0,0,1,.28.94,1.62,1.62,0,0,1-.25.86,1.78,1.78,0,0,1-.75.65,1.88,1.88,0,0,1,1,.65,1.74,1.74,0,0,1,.35,1.08,2.1,2.1,0,0,1-.21.93,1.82,1.82,0,0,1-.53.67,2.2,2.2,0,0,1-.78.35,4.81,4.81,0,0,1-1.16.12Zm.95-4.15h1.55a3.44,3.44,0,0,0,.9-.08,1,1,0,0,0,.54-.36,1,1,0,0,0,.18-.62,1.15,1.15,0,0,0-.17-.63.86.86,0,0,0-.49-.37,4,4,0,0,0-1.09-.1h-1.43Zm0,3.31H145a4.15,4.15,0,0,0,.64,0,1.55,1.55,0,0,0,.55-.2,1,1,0,0,0,.36-.4,1.24,1.24,0,0,0,.14-.6,1.19,1.19,0,0,0-.21-.7,1.08,1.08,0,0,0-.57-.41,3.52,3.52,0,0,0-1-.12h-1.66Z" fill="#fff"/><path d="M132.81,136.93v-7.16h2.47a6,6,0,0,1,1.27.1,2.43,2.43,0,0,1,1,.51,2.91,2.91,0,0,1,.85,1.22,4.8,4.8,0,0,1,.28,1.7,5,5,0,0,1-.19,1.45,3.5,3.5,0,0,1-.49,1,2.6,2.6,0,0,1-.65.65,2.67,2.67,0,0,1-.86.36,4.89,4.89,0,0,1-1.15.12Zm.95-.84h1.53a3.7,3.7,0,0,0,1.11-.13,1.59,1.59,0,0,0,.64-.37,2.26,2.26,0,0,0,.53-.91,4.44,4.44,0,0,0,.19-1.38,3.33,3.33,0,0,0-.37-1.73,1.85,1.85,0,0,0-.9-.81,3.7,3.7,0,0,0-1.23-.15h-1.5Z" fill="#fff"/><path d="M139.24,136.93l2.75-7.16h1l2.93,7.16h-1.08l-.83-2.17h-3l-.79,2.17Zm2.07-2.94h2.43l-.75-2q-.34-.9-.51-1.48a9.08,9.08,0,0,1-.39,1.37Z" fill="#fff"/><path d="M146.38,134.63l.89-.08a2,2,0,0,0,.3.88,1.62,1.62,0,0,0,.72.56,2.74,2.74,0,0,0,1.1.21,2.63,2.63,0,0,0,1-.16,1.33,1.33,0,0,0,.62-.44,1,1,0,0,0,.2-.61.93.93,0,0,0-.2-.59,1.44,1.44,0,0,0-.64-.42,12.42,12.42,0,0,0-1.27-.35,6.55,6.55,0,0,1-1.38-.45,1.93,1.93,0,0,1-.76-.67,1.63,1.63,0,0,1-.25-.89,1.82,1.82,0,0,1,.31-1,1.91,1.91,0,0,1,.9-.72,3.4,3.4,0,0,1,1.31-.24,3.58,3.58,0,0,1,1.4.26,2,2,0,0,1,.93.75,2.17,2.17,0,0,1,.35,1.13l-.91.07a1.47,1.47,0,0,0-.5-1,1.93,1.93,0,0,0-1.25-.35,2,2,0,0,0-1.25.31,1,1,0,0,0-.39.76.81.81,0,0,0,.28.63,3.77,3.77,0,0,0,1.43.51,9.51,9.51,0,0,1,1.58.46,2.17,2.17,0,0,1,.92.73,1.78,1.78,0,0,1,.3,1,2,2,0,0,1-.33,1.08,2.15,2.15,0,0,1-.94.79,3.29,3.29,0,0,1-1.38.28,4.12,4.12,0,0,1-1.63-.28,2.28,2.28,0,0,1-1-.85A2.42,2.42,0,0,1,146.38,134.63Z" fill="#fff"/><rect x="270.43" y="79.38" width="10.39" height="0.98" fill="#5e6981"/><g opacity="0.5"><rect x="244.82" y="50.72" width="0.98" height="12.85" fill="#71b429"/></g><rect x="188.28" y="50.72" width="0.98" height="12.85" fill="#71b429"/><rect x="141.33" y="33.25" width="0.98" height="30.32" fill="#71b429"/><rect x="94.38" y="50.72" width="0.98" height="12.85" fill="#71b429"/><g opacity="0.5"><rect x="37.66" y="50.72" width="0.98" height="12.85" fill="#71b429"/></g><g opacity="0.5"><rect x="244.82" y="92.78" width="0.98" height="12.85" fill="#f06c60"/></g><rect x="188.28" y="92.78" width="0.98" height="12.85" fill="#f06c60"/><rect x="141.33" y="92.78" width="0.98" height="25.57" fill="#f06c60"/><rect x="94.38" y="92.78" width="0.98" height="12.85" fill="#f06c60"/><g opacity="0.5"><rect x="37.66" y="92.78" width="0.98" height="12.85" fill="#f06c60"/></g><g opacity="0.5"><rect x="38.14" y="104.81" width="207.46" height="0.98" fill="#f06c60"/></g><rect x="94.87" y="104.81" width="93.89" height="0.98" fill="#f06c60"/><g opacity="0.5"><rect x="38.14" y="50.53" width="207.46" height="0.98" fill="#71b429"/></g><rect x="94.87" y="50.53" width="94.38" height="0.98" fill="#71b429"/><polygon points="283.92 79.87 279.35 77.67 279.35 82.07 283.92 79.87" fill="#5e6981"/><rect x="3.1" y="79.38" width="10.38" height="0.98" fill="#5e6981"/><polygon points="0 79.87 4.57 77.67 4.57 82.07 0 79.87" fill="#5e6981"/><path d="M201.7,93.16H175.83a2,2,0,0,1-2-2V65.31a2,2,0,0,1,2-2H201.7a2,2,0,0,1,2,2V91.18A2,2,0,0,1,201.7,93.16ZM175.83,64.31a1,1,0,0,0-1,1V91.18a1,1,0,0,0,1,1H201.7a1,1,0,0,0,1-1V65.31a1,1,0,0,0-1-1Z" fill="#0173ff"/><g opacity="0.5"><path d="M258.43,93.16H232.56a2,2,0,0,1-2-2V65.31a2,2,0,0,1,2-2h25.87a2,2,0,0,1,2,2V91.18A2,2,0,0,1,258.43,93.16ZM232.56,64.31a1,1,0,0,0-1,1V91.18a1,1,0,0,0,1,1h25.87a1,1,0,0,0,1-1V65.31a1,1,0,0,0-1-1Z" fill="#0173ff"/></g><path d="M200.5,72.23l-3.63,4.21,3.37,3.71,0,.08-.41-.2a16.81,16.81,0,0,0-9.37-2.08A8.18,8.18,0,0,0,186,79.54,5.6,5.6,0,0,0,184.73,81a1.24,1.24,0,0,0,.24,1.64,1.34,1.34,0,0,0,1.73.36,10.61,10.61,0,0,0,1.47-1.19,4.51,4.51,0,0,0,.43-.51,3.7,3.7,0,0,1-.54,2.25,11.91,11.91,0,0,1-3.93,4.19,13.47,13.47,0,0,1-4.87,2c-.39.08-.59,0-.7-.4-.21-.72-.43-1.43-.65-2.15l.14,0,1.13,1.86.09,0-.68-2,.11-.05,1.35,1.87,1.4-2a4.43,4.43,0,0,0-3.94-.25,19.88,19.88,0,0,1,2.25-8.3,14,14,0,0,1,6.22-6l.21,3.56c1-.09,1.82-.23,2.68-.25,1.35,0,2.7,0,4.06,0a1.05,1.05,0,0,0,.55-.22c.29-.21.53-.48.82-.69A21.13,21.13,0,0,1,200.5,72.23ZM181.82,83.16a2,2,0,0,0-1.57,1.59c0,.37.2.57.49.48a1.26,1.26,0,0,0,.73-.58A7.88,7.88,0,0,0,181.82,83.16Zm2.39-2.54c.73-1.26.11-2.51-1.4-2.87C184,79.37,184,79.37,184.21,80.62Zm.72-.92a1.46,1.46,0,0,0-1.1-2.15Zm-.34-2.41.86,1.7A1.15,1.15,0,0,0,184.59,77.28Zm1.29,1c.25-.63.07-1-.63-1.23Z" fill="#fff"/><path d="M153.31,72.23l-3.63,4.21,3.37,3.71,0,.08-.41-.2a16.81,16.81,0,0,0-9.37-2.08,8.18,8.18,0,0,0-4.43,1.61A5.6,5.6,0,0,0,137.54,81a1.24,1.24,0,0,0,.24,1.64,1.34,1.34,0,0,0,1.73.36A10.61,10.61,0,0,0,141,81.83a4.51,4.51,0,0,0,.43-.51,3.7,3.7,0,0,1-.54,2.25,11.91,11.91,0,0,1-3.93,4.19,13.47,13.47,0,0,1-4.87,2c-.39.08-.59,0-.7-.4-.21-.72-.43-1.43-.65-2.15l.14,0L132,89.06l.09,0-.68-2,.11-.05,1.35,1.87,1.4-2a4.43,4.43,0,0,0-3.94-.25,19.88,19.88,0,0,1,2.25-8.3,14,14,0,0,1,6.22-6l.21,3.56c1-.09,1.82-.23,2.68-.25,1.35,0,2.7,0,4.06,0a1.05,1.05,0,0,0,.55-.22c.29-.21.53-.48.82-.69A21.13,21.13,0,0,1,153.31,72.23ZM134.63,83.16a2,2,0,0,0-1.57,1.59c0,.37.2.57.49.48a1.26,1.26,0,0,0,.73-.58A7.88,7.88,0,0,0,134.63,83.16ZM137,80.62c.73-1.26.11-2.51-1.4-2.87C136.78,79.37,136.78,79.37,137,80.62Zm.72-.92a1.46,1.46,0,0,0-1.1-2.15Zm-.34-2.41.86,1.7A1.15,1.15,0,0,0,137.39,77.28Zm1.29,1c.25-.63.07-1-.63-1.23Z" fill="#fff"/><path d="M106.36,72.23l-3.63,4.21,3.37,3.71,0,.08-.41-.2a16.81,16.81,0,0,0-9.37-2.08,8.18,8.18,0,0,0-4.43,1.61A5.6,5.6,0,0,0,90.59,81a1.24,1.24,0,0,0,.24,1.64,1.34,1.34,0,0,0,1.73.36A10.61,10.61,0,0,0,94,81.83a4.51,4.51,0,0,0,.43-.51,3.7,3.7,0,0,1-.54,2.25A11.91,11.91,0,0,1,90,87.76a13.47,13.47,0,0,1-4.87,2c-.39.08-.59,0-.7-.4-.21-.72-.43-1.43-.65-2.15l.14,0L85,89.06l.09,0-.68-2,.11-.05,1.35,1.87,1.4-2a4.43,4.43,0,0,0-3.94-.25,19.88,19.88,0,0,1,2.25-8.3,14,14,0,0,1,6.22-6l.21,3.56c1-.09,1.82-.23,2.68-.25,1.35,0,2.7,0,4.06,0a1.05,1.05,0,0,0,.55-.22c.29-.21.53-.48.82-.69A21.13,21.13,0,0,1,106.36,72.23ZM87.68,83.16a2,2,0,0,0-1.57,1.59c0,.37.2.57.49.48a1.26,1.26,0,0,0,.73-.58A7.88,7.88,0,0,0,87.68,83.16Zm2.39-2.54c.73-1.26.11-2.51-1.4-2.87C89.83,79.37,89.83,79.37,90.07,80.62Zm.72-.92a1.46,1.46,0,0,0-1.1-2.15Zm-.34-2.41L91.3,79A1.15,1.15,0,0,0,90.45,77.28Zm1.29,1c.25-.63.07-1-.63-1.23Z" fill="#fff"/><path d="M49.15,72.23l-3.63,4.21,3.37,3.71,0,.08-.41-.2a16.81,16.81,0,0,0-9.37-2.08,8.18,8.18,0,0,0-4.43,1.61A5.6,5.6,0,0,0,33.38,81a1.24,1.24,0,0,0,.24,1.64,1.34,1.34,0,0,0,1.73.36,10.61,10.61,0,0,0,1.47-1.19,4.51,4.51,0,0,0,.43-.51,3.7,3.7,0,0,1-.54,2.25,11.91,11.91,0,0,1-3.93,4.19,13.47,13.47,0,0,1-4.87,2c-.39.08-.59,0-.7-.4-.21-.72-.43-1.43-.65-2.15l.14,0,1.13,1.86.09,0-.68-2,.11-.05,1.35,1.87,1.4-2a4.43,4.43,0,0,0-3.94-.25,19.88,19.88,0,0,1,2.25-8.3,14,14,0,0,1,6.22-6l.21,3.56c1-.09,1.82-.23,2.68-.25,1.35,0,2.7,0,4.06,0a1.05,1.05,0,0,0,.55-.22c.29-.21.53-.48.82-.69A21.13,21.13,0,0,1,49.15,72.23ZM30.46,83.16a2,2,0,0,0-1.57,1.59c0,.37.2.57.49.48a1.26,1.26,0,0,0,.73-.58A7.88,7.88,0,0,0,30.46,83.16Zm2.39-2.54c.73-1.26.11-2.51-1.4-2.87C32.62,79.37,32.62,79.37,32.85,80.62Zm.72-.92a1.46,1.46,0,0,0-1.1-2.15Zm-.34-2.41.86,1.7A1.15,1.15,0,0,0,33.23,77.28Zm1.29,1c.25-.63.07-1-.63-1.23Z" fill="#fff"/><path d="M257.47,72.23l-3.63,4.21,3.37,3.71,0,.08-.41-.2a16.81,16.81,0,0,0-9.37-2.08A8.18,8.18,0,0,0,243,79.54,5.6,5.6,0,0,0,241.7,81a1.24,1.24,0,0,0,.24,1.64,1.34,1.34,0,0,0,1.73.36,10.61,10.61,0,0,0,1.47-1.19,4.51,4.51,0,0,0,.43-.51,3.7,3.7,0,0,1-.54,2.25,11.91,11.91,0,0,1-3.93,4.19,13.47,13.47,0,0,1-4.87,2c-.39.08-.59,0-.7-.4-.21-.72-.43-1.43-.65-2.15l.14,0,1.13,1.86.09,0-.68-2,.11-.05L237,88.84l1.4-2a4.43,4.43,0,0,0-3.94-.25,19.88,19.88,0,0,1,2.25-8.3,14,14,0,0,1,6.22-6l.21,3.56c1-.09,1.82-.23,2.68-.25,1.35,0,2.7,0,4.06,0a1.05,1.05,0,0,0,.55-.22c.29-.21.53-.48.82-.69A21.13,21.13,0,0,1,257.47,72.23ZM238.79,83.16a2,2,0,0,0-1.57,1.59c0,.37.2.57.49.48a1.26,1.26,0,0,0,.73-.58A7.88,7.88,0,0,0,238.79,83.16Zm2.39-2.54c.73-1.26.11-2.51-1.4-2.87C240.94,79.37,240.94,79.37,241.18,80.62Zm.72-.92a1.46,1.46,0,0,0-1.1-2.15Zm-.34-2.41.86,1.7A1.15,1.15,0,0,0,241.56,77.28Zm1.29,1c.25-.63.07-1-.63-1.23Z" fill="#fff"/></svg>