<svg id="bb222df0-60b4-419b-a505-9474a4c93e01"  xmlns="http://www.w3.org/2000/svg" xmlns:xlink="http://www.w3.org/1999/xlink" width="14" height="19.01" viewBox="0 0 14 19.01"><defs><linearGradient id="835b289d-d22f-4ded-a9a0-23efcd46fe90" x1="60.79" y1="262.69" x2="64.73" y2="263.79" gradientTransform="matrix(1.09, 0.16, 0.15, -1.04, -94.56, 266.29)" gradientUnits="userSpaceOnUse"><stop offset="0" stop-color="#f69923"/><stop offset="0.31" stop-color="#f79a23"/><stop offset="0.84" stop-color="#e97826"/></linearGradient><linearGradient id="3fdf48e3-8c40-47fc-b0c0-08522dae9b17" x1="52.09" y1="244.8" x2="60.2" y2="262.19" gradientTransform="matrix(1.09, 0.16, 0.15, -1.04, -94.56, 266.29)" gradientUnits="userSpaceOnUse"><stop offset="0.32" stop-color="#9e2064"/><stop offset="0.63" stop-color="#c92037"/><stop offset="0.75" stop-color="#cd2335"/><stop offset="1" stop-color="#e97826"/></linearGradient><linearGradient id="14f4c3b0-94ce-4eaf-9b04-25f628b94601" x1="54.91" y1="246.06" x2="59.72" y2="256.37" xlink:href="#3fdf48e3-8c40-47fc-b0c0-08522dae9b17"/><linearGradient id="df501e51-d9f6-465e-90ad-86a2ddb1a998" x1="52.46" y1="245.82" x2="60.58" y2="263.22" xlink:href="#3fdf48e3-8c40-47fc-b0c0-08522dae9b17"/><linearGradient id="5602e0bc-bdd8-48e8-85df-f442db299f15" x1="53.36" y1="246.96" x2="57.62" y2="256.11" xlink:href="#3fdf48e3-8c40-47fc-b0c0-08522dae9b17"/><linearGradient id="6bed457b-a2b1-402d-ae1b-a75856e3e0c0" x1="54.25" y1="245.02" x2="62.32" y2="262.34" xlink:href="#3fdf48e3-8c40-47fc-b0c0-08522dae9b17"/><linearGradient id="4cd5a45b-b637-4c6d-852b-e7334b21b4b6" x1="53.64" y1="244.06" x2="61.69" y2="261.34" xlink:href="#3fdf48e3-8c40-47fc-b0c0-08522dae9b17"/><linearGradient id="9629166e-cd7d-4df6-8b51-8f65609da9c6" x1="54.86" y1="244.93" x2="62.81" y2="261.98" xlink:href="#3fdf48e3-8c40-47fc-b0c0-08522dae9b17"/><linearGradient id="c7a4bbf1-d49c-4dc7-87ef-646ae2f2f9e1" x1="54.79" y1="244.98" x2="62.74" y2="262.04" xlink:href="#3fdf48e3-8c40-47fc-b0c0-08522dae9b17"/><linearGradient id="3e890570-0102-4d41-b215-c9683df6ae64" x1="260.04" y1="556.73" x2="263.43" y2="557.67" gradientTransform="matrix(0.9, -0.63, -0.6, -0.87, 101, 646.91)" xlink:href="#835b289d-d22f-4ded-a9a0-23efcd46fe90"/><linearGradient id="e85c7539-79b5-47d9-a028-047079a80b38" x1="252.56" y1="541.35" x2="259.53" y2="556.3" gradientTransform="matrix(0.9, -0.63, -0.6, -0.87, 101, 646.91)" xlink:href="#3fdf48e3-8c40-47fc-b0c0-08522dae9b17"/><linearGradient id="1a0967fb-103f-4d3f-9211-56c0baeb07b8" x1="254.99" y1="542.43" x2="259.12" y2="551.29" gradientTransform="matrix(0.9, -0.63, -0.6, -0.87, 101, 646.91)" xlink:href="#3fdf48e3-8c40-47fc-b0c0-08522dae9b17"/><linearGradient id="87468c2c-c702-4fa9-a82c-7e94887e7ed2" x1="252.88" y1="542.22" x2="259.86" y2="557.18" gradientTransform="matrix(0.9, -0.63, -0.6, -0.87, 101, 646.91)" xlink:href="#3fdf48e3-8c40-47fc-b0c0-08522dae9b17"/><linearGradient id="843e9b3c-4eea-4ed4-bda7-051239ced28d" x1="253.65" y1="543.2" x2="257.32" y2="551.07" gradientTransform="matrix(0.9, -0.63, -0.6, -0.87, 101, 646.91)" xlink:href="#3fdf48e3-8c40-47fc-b0c0-08522dae9b17"/><linearGradient id="1d7ce9dc-9dc1-4e07-98c4-050598e57dd4" x1="254.41" y1="541.54" x2="261.36" y2="556.43" gradientTransform="matrix(0.9, -0.63, -0.6, -0.87, 101, 646.91)" xlink:href="#3fdf48e3-8c40-47fc-b0c0-08522dae9b17"/><linearGradient id="3de64175-bba0-4f4a-8bf1-d312576d4eda" x1="253.89" y1="540.71" x2="260.82" y2="555.57" gradientTransform="matrix(0.9, -0.63, -0.6, -0.87, 101, 646.91)" xlink:href="#3fdf48e3-8c40-47fc-b0c0-08522dae9b17"/><linearGradient id="db07724f-4c58-4174-9bdf-e0b00da5646c" x1="254.94" y1="541.46" x2="261.78" y2="556.12" gradientTransform="matrix(0.9, -0.63, -0.6, -0.87, 101, 646.91)" xlink:href="#3fdf48e3-8c40-47fc-b0c0-08522dae9b17"/><linearGradient id="33524010-b5c7-43be-afe8-25c8abff6dbc" x1="254.88" y1="541.5" x2="261.72" y2="556.17" gradientTransform="matrix(0.9, -0.63, -0.6, -0.87, 101, 646.91)" xlink:href="#3fdf48e3-8c40-47fc-b0c0-08522dae9b17"/></defs><text></text><text></text><path d="M12.69.4A7.33,7.33,0,0,0,11,1.65l.44,1.17a14.05,14.05,0,0,1,1.46-1.34l.06,0-.06,0a12.36,12.36,0,0,0-1.39,1.38,22.67,22.67,0,0,0,2.31.07,2.35,2.35,0,0,0,0-1.82S13.4.12,12.69.4Z" fill="url(#835b289d-d22f-4ded-a9a0-23efcd46fe90)"/><path d="M9.48,9.18h0Z" fill="#be202e"/><path d="M9.48,9.18h0Z" fill="#be202e" opacity="0.35" style="isolation:isolate"/><path d="M9.8,8.26h0Z" fill="#be202e"/><path d="M9.8,8.26h0Z" fill="#be202e" opacity="0.35" style="isolation:isolate"/><path d="M9.33,5.34,10,4.47l.7-.85,0,0,.69-.76L11,1.65l-.16.14-.61.58-.74.75-.71.77-.64.73L8.7,6.2l.62-.86Z" fill="url(#3fdf48e3-8c40-47fc-b0c0-08522dae9b17)"/><path d="M4.72,13.1,4.24,14l-.37.71a1.57,1.57,0,0,1,.48.75,1.23,1.23,0,0,0-.28-.89A2.66,2.66,0,0,0,6.76,14l.15-.2A1.07,1.07,0,0,1,5.83,14h0a2.92,2.92,0,0,0,1.66-1q.16-.19.3-.38A2.44,2.44,0,0,1,5.42,13l-.62,0-.08.15Z" fill="url(#14f4c3b0-94ce-4eaf-9b04-25f628b94601)"/><path d="M5.19,11.8l.55-1,.55-.93L6.86,9,7.46,8l.61-.92.22-.33.39-.56,0,0L8.14,4.61l0,.05-.64.79-.64.83L6.29,7l-.1.15-.58.9L5.06,9l-.3.57-.22.47-.45,1.12.56,1.6L5.07,12l.12-.21Z" fill="url(#df501e51-d9f6-465e-90ad-86a2ddb1a998)"/><path d="M4.07,11.22a11.16,11.16,0,0,0-.39,1.38v0a3.08,3.08,0,0,0-.78-.87,4.23,4.23,0,0,1,.59,2.06,2,2,0,0,1-.95-.31,2,2,0,0,0,.76.62,2.35,2.35,0,0,0-1.22.38,2.52,2.52,0,0,1,1.39,0C2.74,15.87,2,17.39,1.24,19a.45.45,0,0,0,.35-.25c.14-.29,1-2.22,2.37-4.72l.15-.28.44-.8.1-.19h0l-.56-1.6,0,.05Z" fill="url(#5602e0bc-bdd8-48e8-85df-f442db299f15)"/><path d="M8.81,6.34l-.08.12-.26.38-.28.43L8,7.49l-.45.7L7,9.11l-.57.95-.56,1-.52.91L4.8,13l.62,0h0A4.38,4.38,0,0,0,7.91,12a5.67,5.67,0,0,0,1-1,8.92,8.92,0,0,0,.66-1c.19-.32.38-.66.56-1a2.25,2.25,0,0,1-.6.11H9.24A2.61,2.61,0,0,0,10.86,8a2.46,2.46,0,0,1-.87.23H9.8A2.73,2.73,0,0,0,10.46,8L10.58,8l.17-.12.1-.08a2.29,2.29,0,0,0,.23-.23l.07-.08.08-.12q.16-.23.3-.47l.11-.19,0-.07.09-.18a1.42,1.42,0,0,0,.07-.19l-.09,0a2.93,2.93,0,0,1-.89.15l.57,0-.57,0h-.09l-2-.09v0Z" fill="url(#6bed457b-a2b1-402d-ae1b-a75856e3e0c0)"/><path d="M11.51,2.85l-.68.8,0,0-.68.86-.66.88-.62.88,2,.09A2.31,2.31,0,0,0,12,5.76l.23-.26.7-.88.56-.86.24-.48.14-.36a22.67,22.67,0,0,1-2.31-.07Z" fill="url(#4cd5a45b-b637-4c6d-852b-e7334b21b4b6)"/><path d="M9.36,9.18h0Z" fill="#be202e"/><path d="M9.36,9.18h0Z" fill="#be202e" opacity="0.35" style="isolation:isolate"/><path d="M9.36,9.18h0Z" fill="url(#9629166e-cd7d-4df6-8b51-8f65609da9c6)"/><path d="M9.8,8.26h0Z" fill="#be202e"/><path d="M9.8,8.26h0Z" fill="#be202e" opacity="0.35" style="isolation:isolate"/><path d="M9.8,8.26h0Z" fill="url(#c7a4bbf1-d49c-4dc7-87ef-646ae2f2f9e1)"/><path d="M.42.34A6.3,6.3,0,0,0,.08,2.12L1,2.6A12.08,12.08,0,0,1,1.17.9v0a10.63,10.63,0,0,0-.06,1.68,19.5,19.5,0,0,0,1.5-1.31A2,2,0,0,0,1.55.11S.7-.25.42.34Z" fill="url(#3e890570-0102-4d41-b215-c9683df6ae64)"/><path d="M3.56,7.74l-.15.14.08-.07.07-.07Z" fill="#be202e"/><path d="M3.56,7.74l-.15.14.08-.07.07-.07Z" fill="#be202e" opacity="0.35" style="isolation:isolate"/><path d="M3.22,7l0,0,.09-.09L3.22,7Z" fill="#be202e"/><path d="M3.22,7l0,0,.09-.09L3.22,7Z" fill="#be202e" opacity="0.35" style="isolation:isolate"/><path d="M1.21,5.42l-.09-.94-.06-.94V2.6l-1-.48V2.3L0,3l0,.9v.9l0,.83,1.28.67-.11-.9Z" fill="url(#e85c7539-79b5-47d9-a028-047079a80b38)"/><path d="M2.87,13l.23.85.19.66a1.35,1.35,0,0,1,.74.19,1.05,1.05,0,0,0-.7-.39,2.29,2.29,0,0,0,1.32-2,1.74,1.74,0,0,0,0-.22.92.92,0,0,1-.55.76h0a2.51,2.51,0,0,0,.47-1.58q0-.21,0-.42a2.1,2.1,0,0,1-1.27,1.63l-.41.35,0,.14Z" fill="url(#1a0967fb-103f-4d3f-9211-56c0baeb07b8)"/><path d="M2.4,11.91,2.19,11,2,10.08,1.8,9.16l-.18-.95-.16-.94L1.4,6.94l-.08-.58v0L0,5.66v.06l.06.88.09.9.1.76,0,.15.16.91.21.91.15.53.14.43.38,1,1.29.67-.18-.72,0-.21Z" fill="url(#87468c2c-c702-4fa9-a82c-7e94887e7ed2)"/><path d="M1.36,12.2a9.6,9.6,0,0,0,.57,1.1l0,0a2.65,2.65,0,0,0-1-.09,3.63,3.63,0,0,1,1.58.95,1.73,1.73,0,0,1-.78.36,1.73,1.73,0,0,0,.84-.06,2,2,0,0,0-.54,1,2.17,2.17,0,0,1,.85-.84c.35,1.28.77,2.68,1.25,4.14a.39.39,0,0,0,.08-.36c-.09-.26-.65-2-1.29-4.36l-.07-.26L2.68,13l0-.18h0l-1.29-.67,0,0Z" fill="url(#843e9b3c-4eea-4ed4-bda7-051239ced28d)"/><path d="M1.47,6.36l0,.13.06.39.07.44,0,.23.13.7L2,9.15l.2.93.21.93.21.88.25,1,.41-.35h0a3.77,3.77,0,0,0,1-2.07,4.88,4.88,0,0,0,0-1.17,7.67,7.67,0,0,0-.16-1c-.07-.31-.15-.64-.26-1a1.93,1.93,0,0,1-.32.42l-.07.07-.08.07a2.25,2.25,0,0,0,.34-1.68,2.11,2.11,0,0,1-.42.66L3.25,7l0,0h0a2.35,2.35,0,0,0,.27-.54l0-.11a1.77,1.77,0,0,0,0-.18l0-.11a2,2,0,0,0,0-.28V5.67l0-.12q0-.24-.09-.47c0-.07,0-.13,0-.19l0-.06-.05-.16A1.22,1.22,0,0,0,3.3,4.5l0,.08a2.52,2.52,0,0,1-.47.62l.38-.32-.38.32h0l-.06.05h0L1.46,6.34v0Z" fill="url(#1d7ce9dc-9dc1-4e07-98c4-050598e57dd4)"/><path d="M1.11,2.58l0,.9v.05l.08.95.1.94.13.92,1.28-1.1a2,2,0,0,0,.35-1.1v-.3L3,2.88,2.86,2l-.13-.44-.13-.31a19.5,19.5,0,0,1-1.5,1.31Z" fill="url(#3de64175-bba0-4f4a-8bf1-d312576d4eda)"/><path d="M3.48,7.81l-.08.07Z" fill="#be202e"/><path d="M3.48,7.81l-.08.07Z" fill="#be202e" opacity="0.35" style="isolation:isolate"/><path d="M3.48,7.81l-.08.07Z" fill="url(#db07724f-4c58-4174-9bdf-e0b00da5646c)"/><path d="M3.22,7l0,0Z" fill="#be202e"/><path d="M3.22,7l0,0Z" fill="#be202e" opacity="0.35" style="isolation:isolate"/><path d="M3.22,7l0,0Z" fill="url(#33524010-b5c7-43be-afe8-25c8abff6dbc)"/><path d="M479.47,96.12" fill="#fff"/></svg>