<svg id="65424d3c-d6e1-4adf-9f11-bf992db5e94b"  xmlns="http://www.w3.org/2000/svg" xmlns:xlink="http://www.w3.org/1999/xlink" width="46.01" height="13.13" viewBox="0 0 46.01 13.13"><defs><linearGradient id="0c49565f-f53a-46ce-8f2c-8825d1ba373b" x1="72.73" y1="109.23" x2="74.57" y2="109.75" gradientTransform="matrix(1.09, 0.16, 0.15, -1.04, -68.33, 106.52)" gradientUnits="userSpaceOnUse"><stop offset="0" stop-color="#f69923"/><stop offset="0.31" stop-color="#f79a23"/><stop offset="0.84" stop-color="#e97826"/></linearGradient><linearGradient id="050b7233-7409-4d18-8344-f7d6cfdd23dd" x1="68.65" y1="100.84" x2="72.45" y2="109" gradientTransform="matrix(1.09, 0.16, 0.15, -1.04, -68.33, 106.52)" gradientUnits="userSpaceOnUse"><stop offset="0.32" stop-color="#9e2064"/><stop offset="0.63" stop-color="#c92037"/><stop offset="0.75" stop-color="#cd2335"/><stop offset="1" stop-color="#e97826"/></linearGradient><linearGradient id="a0e79673-6c75-4974-ad99-3c677aac916f" x1="69.97" y1="101.43" x2="72.22" y2="106.27" gradientTransform="matrix(1.09, 0.16, 0.15, -1.04, -68.33, 106.52)" gradientUnits="userSpaceOnUse"><stop offset="0" stop-color="#282662"/><stop offset="0.1" stop-color="#662e8d"/><stop offset="0.79" stop-color="#9f2064"/><stop offset="0.95" stop-color="#cd2032"/></linearGradient><linearGradient id="79ba38e4-a4a3-496e-9212-3d741398cd18" x1="68.82" y1="101.32" x2="72.63" y2="109.48" xlink:href="#050b7233-7409-4d18-8344-f7d6cfdd23dd"/><linearGradient id="6c44d16b-7b0b-4e73-a112-6aecd3ac424a" x1="69.24" y1="101.85" x2="71.24" y2="106.14" xlink:href="#a0e79673-6c75-4974-ad99-3c677aac916f"/><linearGradient id="552afa06-e73e-46f8-985e-5d36f57c48fc" x1="69.66" y1="100.95" x2="73.44" y2="109.07" xlink:href="#050b7233-7409-4d18-8344-f7d6cfdd23dd"/><linearGradient id="70d51a01-6f21-49c3-87b1-c1f394988118" x1="69.37" y1="100.5" x2="73.15" y2="108.6" xlink:href="#050b7233-7409-4d18-8344-f7d6cfdd23dd"/><linearGradient id="ba9b003b-d5e4-4c71-ac87-70db706fa441" x1="69.94" y1="100.9" x2="73.67" y2="108.9" xlink:href="#050b7233-7409-4d18-8344-f7d6cfdd23dd"/><linearGradient id="da85d12b-634e-4ec3-9d2c-81175a5a3684" x1="69.91" y1="100.93" x2="73.64" y2="108.92" xlink:href="#050b7233-7409-4d18-8344-f7d6cfdd23dd"/><linearGradient id="5c84fd63-1f0d-4752-a49d-096c9b8d0d73" x1="191.76" y1="304.94" x2="193.35" y2="305.38" gradientTransform="matrix(0.9, -0.63, -0.6, -0.87, 32.73, 388.29)" xlink:href="#0c49565f-f53a-46ce-8f2c-8825d1ba373b"/><linearGradient id="f793c645-e2fe-4dee-a76b-d9993b7747ad" x1="188.25" y1="297.73" x2="191.52" y2="304.74" gradientTransform="matrix(0.9, -0.63, -0.6, -0.87, 32.73, 388.29)" xlink:href="#050b7233-7409-4d18-8344-f7d6cfdd23dd"/><linearGradient id="e7a33b89-a561-41e7-87ae-4f5ffda727b6" x1="189.39" y1="298.23" x2="191.33" y2="302.39" gradientTransform="matrix(0.9, -0.63, -0.6, -0.87, 32.73, 388.29)" xlink:href="#a0e79673-6c75-4974-ad99-3c677aac916f"/><linearGradient id="90a0a516-a043-4815-bfee-540059fa537b" x1="188.4" y1="298.14" x2="191.67" y2="305.15" gradientTransform="matrix(0.9, -0.63, -0.6, -0.87, 32.73, 388.29)" xlink:href="#050b7233-7409-4d18-8344-f7d6cfdd23dd"/><linearGradient id="bfbb8c71-c717-4af2-a7a6-dfb6c7fb14a7" x1="188.76" y1="298.6" x2="190.48" y2="302.29" gradientTransform="matrix(0.9, -0.63, -0.6, -0.87, 32.73, 388.29)" xlink:href="#a0e79673-6c75-4974-ad99-3c677aac916f"/><linearGradient id="97d9b687-4074-45b1-9f1c-67440b97ec08" x1="189.12" y1="297.81" x2="192.38" y2="304.8" gradientTransform="matrix(0.9, -0.63, -0.6, -0.87, 32.73, 388.29)" xlink:href="#050b7233-7409-4d18-8344-f7d6cfdd23dd"/><linearGradient id="4803618c-271a-45fd-aefb-e7f681894610" x1="188.88" y1="297.43" x2="192.12" y2="304.39" gradientTransform="matrix(0.9, -0.63, -0.6, -0.87, 32.73, 388.29)" xlink:href="#050b7233-7409-4d18-8344-f7d6cfdd23dd"/><linearGradient id="d957e374-ae3e-4fe6-85e5-92cea93080e4" x1="189.37" y1="297.78" x2="192.57" y2="304.66" gradientTransform="matrix(0.9, -0.63, -0.6, -0.87, 32.73, 388.29)" xlink:href="#050b7233-7409-4d18-8344-f7d6cfdd23dd"/><linearGradient id="c856ab8a-e7d0-4e61-a0d6-64ae5365f56c" x1="189.34" y1="297.8" x2="192.55" y2="304.68" gradientTransform="matrix(0.9, -0.63, -0.6, -0.87, 32.73, 388.29)" xlink:href="#050b7233-7409-4d18-8344-f7d6cfdd23dd"/></defs><path d="M9.35,11a.5.5,0,0,1-.49-.6L9.73,6,7.8,9a.5.5,0,0,1-.42.23H6a.5.5,0,0,1-.48-.38l-.78-3L3.84,10.6a.5.5,0,0,1-.49.4H1a.5.5,0,0,1-.49-.6L2.38.9A.5.5,0,0,1,2.87.5h3a.5.5,0,0,1,.49.38l1,3.92L10,.73A.5.5,0,0,1,10.4.5h3.17a.5.5,0,0,1,.49.6l-1.88,9.5a.5.5,0,0,1-.49.4Z" fill="#fff"/><path d="M13.57,1h0m0,0-1.88,9.5H9.35l1.37-7L7.38,8.68H6L4.72,3.49l-1.37,7H1L2.87,1h3L7.16,6,10.4,1h3.17m0-1H10.4a1,1,0,0,0-.84.46l-2,3.09L6.89.76a1,1,0,0,0-1-.76h-3a1,1,0,0,0-1,.81L0,10.31A1,1,0,0,0,1,11.5H3.35a1,1,0,0,0,1-.81L4.85,8l.23.9a1,1,0,0,0,1,.75H7.38a1,1,0,0,0,.84-.46l.52-.8-.37,1.89a1,1,0,0,0,1,1.19h2.34a1,1,0,0,0,1-.81l1.87-9.43a1,1,0,0,0-1-1.26Zm0,2h0Z" fill="#fff"/><path d="M15.18,11.2a2.91,2.91,0,0,1-1.83-.64,2.29,2.29,0,0,1-.79-1.83A2.84,2.84,0,0,1,13.9,6.25a6,6,0,0,1,3-.82h1.15l-.06,0a2.11,2.11,0,0,0-.84-.18H17a6.26,6.26,0,0,0-1.32.13,5.68,5.68,0,0,0-1.19.4.5.5,0,0,1-.21,0A.49.49,0,0,1,14,5.69a.5.5,0,0,1-.18-.49l.35-1.74a.5.5,0,0,1,.37-.39,12.46,12.46,0,0,1,1.53-.27,13,13,0,0,1,1.63-.1h.35a4.67,4.67,0,0,1,2.34.63,2.38,2.38,0,0,1,1,2.11,3.39,3.39,0,0,1,0,.47,1.68,1.68,0,0,1-.12.71l0,.06-.77,3.92A.5.5,0,0,1,20,11H17.66a.5.5,0,0,1-.47-.33l-.28.17a3.71,3.71,0,0,1-1.59.36ZM17,7.78a2.09,2.09,0,0,0-.92.21.35.35,0,0,0-.16.31.34.34,0,0,0,.08.32.59.59,0,0,0,.33.09h.13a1.23,1.23,0,0,0,.8-.3,1.59,1.59,0,0,0,.4-.63H17Z" fill="#fff"/><path d="M18.05,3.19a4.17,4.17,0,0,1,2.09.56,1.88,1.88,0,0,1,.78,1.65,4,4,0,0,1,0,.47,1.28,1.28,0,0,1-.09.55h0L20,10.5H17.66l.2-1.1a3.92,3.92,0,0,1-1.19,1,3.17,3.17,0,0,1-1.35.3h-.14a2.41,2.41,0,0,1-1.51-.53,1.79,1.79,0,0,1-.6-1.42,2.35,2.35,0,0,1,1.1-2.08,5.5,5.5,0,0,1,2.75-.74h1.69V5.76a.68.68,0,0,0,0-.13.41.41,0,0,0,0-.07.67.67,0,0,0-.41-.63,2.6,2.6,0,0,0-1-.22h-.22a6.46,6.46,0,0,0-1.34.14,6.17,6.17,0,0,0-1.3.44l.35-1.74a12,12,0,0,1,1.47-.26,12.57,12.57,0,0,1,1.58-.1h.34m-1.69,6h.13a1.73,1.73,0,0,0,1.13-.42,2.13,2.13,0,0,0,.64-1.2V7.29H17a2.57,2.57,0,0,0-1.14.27.85.85,0,0,0-.44.78A.77.77,0,0,0,15.7,9a1.1,1.1,0,0,0,.66.22m1.69-7h-.34A13.76,13.76,0,0,0,16,2.31a13,13,0,0,0-1.58.28,1,1,0,0,0-.75.77L13.33,5.1a1,1,0,0,0,.19.8,3.37,3.37,0,0,0-1.45,2.84A2.78,2.78,0,0,0,13,10.92a3.45,3.45,0,0,0,2.18.79h.14a4.23,4.23,0,0,0,1.75-.39,1,1,0,0,0,.58.19H20a1,1,0,0,0,1-.81l.76-3.86,0,0a2.3,2.3,0,0,0,.16-.92c0-.16,0-.32,0-.48a2.86,2.86,0,0,0-1.2-2.46l-.08-.05a5.18,5.18,0,0,0-2.59-.7Z" fill="#fff"/><path d="M31.91,11.21a4.53,4.53,0,0,1-2.67-.87A3.22,3.22,0,0,1,28.13,7.7,4.8,4.8,0,0,1,28.45,6a5.11,5.11,0,0,1,1-1.56,4.84,4.84,0,0,1,1.76-1.28,5.68,5.68,0,0,1,2.19-.44h.25a3.81,3.81,0,0,1,2.45.89,3.15,3.15,0,0,1,1,2.43,4.22,4.22,0,0,1,0,.56,4,4,0,0,1-.13.72l-.08.38a.5.5,0,0,1-.49.39h-.1a.5.5,0,0,1,.08.39L36,10.2a.5.5,0,0,1-.32.37,10.5,10.5,0,0,1-1.76.47,9.83,9.83,0,0,1-1.75.16ZM33,8.63a5.43,5.43,0,0,0,1.12-.12,9.23,9.23,0,0,0,1.24-.45H31.53a.74.74,0,0,0,.22.35,1.49,1.49,0,0,0,.79.22H33Zm.81-2.94a.6.6,0,0,0-.15-.41.79.79,0,0,0-.3-.07h-.06a1.39,1.39,0,0,0-.85.27,1.62,1.62,0,0,0-.2.2Z" fill="#fff"/><path d="M33.61,3.19A3.3,3.3,0,0,1,35.74,4a2.64,2.64,0,0,1,.85,2,4.15,4.15,0,0,1,0,.54,3.48,3.48,0,0,1-.11.62v0l-.08.36H31v.22a1.26,1.26,0,0,0,.42,1,2,2,0,0,0,1.12.34H33A5.92,5.92,0,0,0,34.18,9a9.72,9.72,0,0,0,1.7-.65l-.36,1.75a10,10,0,0,1-1.68.45,9.32,9.32,0,0,1-1.67.15h-.26a4,4,0,0,1-2.37-.78,2.69,2.69,0,0,1-.91-2.2,4.4,4.4,0,0,1,.29-1.57,4.63,4.63,0,0,1,.86-1.41A4.33,4.33,0,0,1,31.36,3.6a5.2,5.2,0,0,1,2-.4h.25m-2.23,3h2.93l0-.09a1,1,0,0,0,0-.16,1.18,1.18,0,0,0,0-.18A1.1,1.1,0,0,0,34,5a1.1,1.1,0,0,0-.68-.24h-.11a1.83,1.83,0,0,0-1.1.37,2.27,2.27,0,0,0-.73,1.1m2.23-4h-.25A6.17,6.17,0,0,0,31,2.68,5.37,5.37,0,0,0,29,4.1a5.59,5.59,0,0,0-1,1.7,5.38,5.38,0,0,0-.36,1.9,3.71,3.71,0,0,0,1.25,3l.07.05a5,5,0,0,0,3,1h.27A10.41,10.41,0,0,0,34,11.53,11,11,0,0,0,35.86,11a1,1,0,0,0,.64-.74l.36-1.75a1,1,0,0,0,0-.12,1,1,0,0,0,.49-.66l.08-.36a4.46,4.46,0,0,0,.14-.79,5.25,5.25,0,0,0,0-.64,3.64,3.64,0,0,0-1.17-2.75,4.33,4.33,0,0,0-2.8-1Z" fill="#fff"/><path d="M41.72,11a.5.5,0,0,1-.49-.6L42,6.67c0-.23.08-.42.1-.58a2.11,2.11,0,0,0,0-.3A.41.41,0,0,0,42,5.47a.38.38,0,0,0-.22-.07,1.19,1.19,0,0,0-.92.38,2.58,2.58,0,0,0-.56,1.29l-.69,3.53a.5.5,0,0,1-.49.4H36.77a.5.5,0,0,1-.49-.6l1.41-7.13a.5.5,0,0,1,.49-.4H40.5a.5.5,0,0,1,.39.19.48.48,0,0,1,.08.13L41.36,3a3.69,3.69,0,0,1,1.56-.35H43a2.7,2.7,0,0,1,1.75.64,2.43,2.43,0,0,1,.71,1.94,3,3,0,0,1,0,.44,1.61,1.61,0,0,1-.13.7l0,.06-.85,4.21A.5.5,0,0,1,44,11Z" fill="#fff"/><path d="M43,3.12a2.2,2.2,0,0,1,1.42.52A1.91,1.91,0,0,1,45,5.15a3.67,3.67,0,0,1,0,.45,1.23,1.23,0,0,1-.09.54l0,0L44,10.5H41.72l.73-3.73a6.2,6.2,0,0,0,.11-.62,2.49,2.49,0,0,0,0-.4.84.84,0,0,0-.23-.63.88.88,0,0,0-.58-.22h-.07a1.63,1.63,0,0,0-1.22.55A3.1,3.1,0,0,0,39.77,7l-.69,3.5H36.77l1.41-7.13H40.5l-.21,1a4.74,4.74,0,0,1,1.29-1,3.16,3.16,0,0,1,1.34-.3H43m0-1h-.14a4.19,4.19,0,0,0-1.74.39l-.08,0a1,1,0,0,0-.58-.18H38.18a1,1,0,0,0-1,.81l-1.41,7.13a1,1,0,0,0,1,1.19h2.31a1,1,0,0,0,1-.81l.69-3.5V7.14a2.1,2.1,0,0,1,.46-1,.6.6,0,0,1,.35-.18,1.48,1.48,0,0,1,0,.16c0,.11,0,.28-.09.48l-.74,3.75a1,1,0,0,0,1,1.19H44a1,1,0,0,0,1-.8l.84-4.15v0A2.24,2.24,0,0,0,46,5.61c0-.15,0-.3,0-.45a2.9,2.9,0,0,0-.83-2.22l-.07-.06A3.2,3.2,0,0,0,43,2.12Z" fill="#fff"/><path d="M22.5,12.63a.5.5,0,0,1-.45-.71l.51-1.07a.5.5,0,0,1-.18-.46.5.5,0,0,1-.14-.32.5.5,0,0,1,0-.15l-.06,0a.5.5,0,0,1-.27-.71A.48.48,0,0,1,22.06,9l-.15-.39-.07-.22-.08-.27-.11-.45-.08-.45-.06-.45,0-.44,0-.42a.52.52,0,0,1,.23-.47A.54.54,0,0,1,22,5.37h0l0-.46V4.77l-.22-.11a.5.5,0,0,1-.28-.49,3.24,3.24,0,0,1,.2-1,.79.79,0,0,1,.74-.45,1.21,1.21,0,0,1,.44.09,1.41,1.41,0,0,1,.76.8l.07.16.08.26.08.46,0,.5V5l0,0,.07.16,0,.11,0,.14c0,.09,0,.17,0,.26v.11a.5.5,0,0,1,.07.2,1.93,1.93,0,0,1,0,.39l0,.12.23-.35.25-.34.31-.4.31-.38a.54.54,0,0,1,.41-.2h.08a.51.51,0,0,1,.37.25l.07-.1.33-.42.14-.16-.12-.31a.5.5,0,0,1,.13-.55,3.7,3.7,0,0,1,.94-.68.83.83,0,0,1,.3-.06,1,1,0,0,1,.88.65,1.56,1.56,0,0,1,0,1.22l-.07.19-.13.27-.29.45L28,6.11,28,6.17a.51.51,0,0,1,0,.09l-.06.17-.12.23-.18.28L27.51,7a.49.49,0,0,1-.09.22,2.12,2.12,0,0,1-.3.34l0,.08c-.09.19-.19.36-.28.52a5,5,0,0,1-.35.51,3.3,3.3,0,0,1-.4.43.5.5,0,0,1-.09.27l-.17.21-.18.19a.44.44,0,0,1-.06.12l-.1.14a1.46,1.46,0,0,1-1,.51.5.5,0,0,1-.3.34c.12.41.21.68.23.75a.69.69,0,0,1-.12.64.5.5,0,0,1-.39.18h-.09a.5.5,0,0,1-.38-.34l-.1-.31-.17.36a.72.72,0,0,1-.56.41Z" fill="#fff"/><path d="M22.4,3.21a.73.73,0,0,1,.25,0,1,1,0,0,1,.49.54h0L23.2,4l.06.21.07.41,0,.45v.14a.93.93,0,0,1-.17.51h0l0,0h0a1.18,1.18,0,0,0,.22-.29v0l0,.08,0,.08v0l0,.09q0,.11,0,.22v.1a.93.93,0,0,1,0,.13V6.1l0,.08,0,.05a1.1,1.1,0,0,1-.13.25l0,0h0a1,1,0,0,0,.19-.31,1.05,1.05,0,0,1-.16.79h0l.06-.06,0,0,0,0a.91.91,0,0,0,.15-.2c0,.16.09.32.12.46a3.6,3.6,0,0,1,.07.47,2.29,2.29,0,0,1,0,.55,1.85,1.85,0,0,1-.39.86l0,0,.17-.12c0-.13.07-.27.11-.4h0v0l.06.18-.06-.18.21-.53.1-.22.14-.27L24.55,7l.27-.42,0-.07.25-.34.3-.39.3-.37,0,0,.26.75h0l-.18.26-.1.15L25.42,7l-.28.44-.27.44-.26.44-.26.45h0l-.06.1-.2.35h0l0,.05a.91.91,0,0,1-.17.31l-.06.11-.07.13-.1.2.09.07.15-.28.23-.43h0l0-.07h0l.26-.48.24-.43.26-.45.27-.44.27-.43.21-.33.07-.1.13-.2L26,6.25l0-.06h0l.29-.41.31-.41L27,4.95l0,0,.32-.37h0l.35-.37c-.13.12-.26.22-.39.36L27.08,4a3.44,3.44,0,0,1,.79-.58l.12,0c.26,0,.42.35.42.35a1.1,1.1,0,0,1,0,.85h0l-.06.17L28.22,5l-.26.4-.33.41-.11.12a1.09,1.09,0,0,1-.55.31h0a1.37,1.37,0,0,0,.42-.07l0,0,0,.09,0,.08,0,0-.05.09-.14.22,0,.05,0,0L27,6.85l0,0-.08.06-.06,0a1.28,1.28,0,0,1-.31.11h.09A1.15,1.15,0,0,0,27,7a1.23,1.23,0,0,1-.76.54h.11a1.05,1.05,0,0,0,.28-.05c-.09.18-.17.34-.26.49a4.18,4.18,0,0,1-.31.46,2.66,2.66,0,0,1-.45.45,2.08,2.08,0,0,1-1.15.44h0a1.27,1.27,0,0,0,.41.07,1.15,1.15,0,0,0,.7-.25l-.14.18a1.37,1.37,0,0,1-.78.45l.19,0a.42.42,0,0,0,.31-.12l-.07.1a1,1,0,0,1-.83.34,2.21,2.21,0,0,1-.43,0,.57.57,0,0,1,.13.42.73.73,0,0,0-.23-.35l0,0-.1,0-.18.35c.22.79.41,1.35.44,1.45a.18.18,0,0,1,0,.17c-.17-.53-.32-1-.46-1.51-.42.81-.69,1.4-.74,1.51a.21.21,0,0,1-.16.12c.29-.63.58-1.21.87-1.76l-.08-.29a1,1,0,0,0-.4.39,1,1,0,0,1,.25-.45.66.66,0,0,1-.24,0h-.15a.81.81,0,0,0,.36-.17,1.7,1.7,0,0,0-.74-.44h.13a1,1,0,0,1,.34,0v0a4.5,4.5,0,0,1-.27-.52h0v0l.21.11-.21-.11-.18-.46-.07-.2L22.24,8l-.1-.43-.07-.42V7.09l0-.36,0-.42,0-.41v0l.6.31h0l0,.27,0,.16.07.44.08.44.09.43.09.43.1.43h0l0,.1.08.34h0l0,.08.08.31.11,0-.1-.36h0l0-.06h0l-.12-.46L23,8.38l-.1-.44-.09-.44-.08-.43-.06-.33,0-.11,0-.2,0-.18V6.2h0l-.06-.43,0-.44,0-.44v0l0-.42h0c0-.18,0-.32,0-.44,0,.15,0,.29,0,.45L22,4.21a3,3,0,0,1,.16-.83.29.29,0,0,1,.28-.16m.92,6.66h.09v0l-.12-.09,0,.07,0,.08m.1.38.11-.22h-.08v0h-.1l.07.26m-1-8a1.28,1.28,0,0,0-1.19.73A3.35,3.35,0,0,0,21,4.12a1,1,0,0,0,.43.91,1,1,0,0,0-.45.85s0,.07,0,.09l0,.41,0,.45,0,.39v.09l.08.45v.05l.1.43.08.3.08.24,0,0,0,.12a1.1,1.1,0,0,0-.07.17,1,1,0,0,0,.35,1.11,1,1,0,0,0,.13.33,1,1,0,0,0,.09.34l-.39.81a1,1,0,0,0,.91,1.42h.13a1.2,1.2,0,0,0,.65-.3,1,1,0,0,0,.4.17l.19,0a1,1,0,0,0,.77-.36,1.18,1.18,0,0,0,.23-1.05l0-.07-.13-.41.06-.07a1.91,1.91,0,0,0,1.08-.64l.15-.2.06-.1.14-.15.2-.25a1,1,0,0,0,.15-.31A3.92,3.92,0,0,0,26.86,9a5.19,5.19,0,0,0,.38-.56c.1-.17.2-.35.3-.55v0a2.68,2.68,0,0,0,.28-.34A1,1,0,0,0,28,7.27l0,0,.19-.29.09-.16.08-.16a1.63,1.63,0,0,0,.08-.23L28.75,6l.06-.08.26-.4.05-.09.11-.22,0-.1.06-.17a2.15,2.15,0,0,0,0-1.64A1.52,1.52,0,0,0,28,2.38a1.32,1.32,0,0,0-.49.09,3.75,3.75,0,0,0-1.09.77,1,1,0,0,0-.27,1.09v0l-.05.07-.16,0-.2,0A1,1,0,0,0,25,4.7l-.06.07-.3.37-.13.17,0-.09,0-.15a1.6,1.6,0,0,0-.08-.19l0-.4s0-.06,0-.09L24.25,4l0-.1-.06-.21,0-.1-.06-.14A2,2,0,0,0,23,2.33a1.71,1.71,0,0,0-.61-.12Z" fill="#fff"/><path d="M26.36,8a.5.5,0,1,1,.5-.5.5.5,0,0,1-.5.5Z" fill="#fff"/><path d="M26.37,7.52h0m0,0h0m0-1h0a1,1,0,0,0,0,2h0a1,1,0,0,0,0-2Zm0,2h0Z" fill="#fff"/><path d="M25.93,6.62a.5.5,0,0,1-.4-.33l-.26-.75A.5.5,0,0,1,25.36,5l.3-.34L26,4.34,26.36,4l.38-.36a.5.5,0,0,1,.33-.13h.12a.5.5,0,0,1,.35.31l.2.55a.5.5,0,0,1-.1.51l-.33.36-.33.4-.3.39-.28.39a.5.5,0,0,1-.41.21Z" fill="#fff"/><path d="M27.08,4l.2.55L27,4.89l0,0-.33.4-.31.41h0l-.29.4-.26-.75L26,5l.33-.36.35-.35L27,4.05,27.08,4m0-1a1,1,0,0,0-.67.26l-.07.07L26,3.6,25.66,4l-.35.38L25,4.72a1,1,0,0,0-.19,1l.26.75a1,1,0,0,0,.8.66H26a1,1,0,0,0,.81-.41l.29-.4.3-.38.31-.37L28,5.21a1,1,0,0,0,.2-1L28,3.64a1,1,0,0,0-.7-.62l-.24,0Z" fill="#fff"/><path d="M23.59,7.35a.5.5,0,0,1-.35-.85h0a.5.5,0,1,1,.35.85Z" fill="#fff"/><path d="M23.59,6.85h0m0,0h0m0-1h0a1,1,0,0,0-.72.3h0a1,1,0,1,0,.73-.31Zm0,2h0Z" fill="#fff"/><path d="M22.54,6.68a.5.5,0,0,1-.23-.06l-.6-.31a.5.5,0,0,1-.27-.42V4.62l0-.36a.58.58,0,0,1,.25-.44A.64.64,0,0,1,22,3.72a.37.37,0,0,1,.17,0l.45.23a.5.5,0,0,1,.28.44v.42l0,.44,0,.42.05.41a.5.5,0,0,1-.5.56Z" fill="#fff"/><path d="M22,4.21l.45.22v.44l0,.44,0,.44h0l.05.42-.6-.31V4.63l0-.34V4.21m0-1a1,1,0,0,0-1,.92v.08l0,.36V5.9a1,1,0,0,0,.54.85l.6.31a1,1,0,0,0,1.45-1l-.05-.42,0-.41,0-.41v-.4a1,1,0,0,0-.55-.88l-.45-.22A1,1,0,0,0,22,3.21Z" fill="#fff"/><g id="e0bd3a89-309f-4216-a2c0-c20c71b77652" ><polygon points="2.87 1 5.92 1 7.16 6.05 10.4 1 13.57 1 11.69 10.5 9.35 10.5 10.72 3.49 7.38 8.68 6.05 8.68 4.72 3.49 3.35 10.5 1 10.5 2.87 1"/></g><g id="b6c8d082-c42e-4645-b5c1-04014f6db8c1" ><path d="M17.2,7.29a2.57,2.57,0,0,0-1.31.26.85.85,0,0,0-.44.78A.77.77,0,0,0,15.7,9a1.1,1.1,0,0,0,.73.22,1.73,1.73,0,0,0,1.19-.42,2.13,2.13,0,0,0,.64-1.2V7.29Zm3.6-.86L20,10.5H17.66l.2-1.1a3.92,3.92,0,0,1-1.19,1,3.17,3.17,0,0,1-1.37.3,2.41,2.41,0,0,1-1.63-.53,1.79,1.79,0,0,1-.6-1.42,2.35,2.35,0,0,1,1.1-2.08,5.5,5.5,0,0,1,3.08-.73h1.36V5.76a.68.68,0,0,0,0-.13.41.41,0,0,0,0-.07.67.67,0,0,0-.41-.63A2.6,2.6,0,0,0,17,4.72a6.46,6.46,0,0,0-1.39.14,6.17,6.17,0,0,0-1.3.44l.35-1.74a12,12,0,0,1,1.47-.26,12.58,12.58,0,0,1,1.62-.1,4.17,4.17,0,0,1,2.39.55,1.88,1.88,0,0,1,.78,1.65,4,4,0,0,1,0,.47,1.28,1.28,0,0,1-.09.55Z"/></g><g id="e16f80b2-9faf-41d8-ad6c-09970794e0e2" ><path d="M36.47,7.2l-.08.36H31v.22a1.26,1.26,0,0,0,.42,1,2,2,0,0,0,1.26.34A5.92,5.92,0,0,0,34.18,9a9.72,9.72,0,0,0,1.7-.65l-.36,1.75a10,10,0,0,1-1.68.45,9.32,9.32,0,0,1-1.69.15,4,4,0,0,1-2.61-.77,2.69,2.69,0,0,1-.91-2.2,4.4,4.4,0,0,1,.29-1.57,4.63,4.63,0,0,1,.86-1.41A4.33,4.33,0,0,1,31.36,3.6a5.2,5.2,0,0,1,2.06-.4A3.3,3.3,0,0,1,35.74,4a2.64,2.64,0,0,1,.85,2,4.15,4.15,0,0,1,0,.54,3.48,3.48,0,0,1-.11.62Zm-2.2-1.1a1,1,0,0,0,0-.16,1.17,1.17,0,0,0,0-.18A1.1,1.1,0,0,0,34,5a1.1,1.1,0,0,0-.79-.23,1.83,1.83,0,0,0-1.1.37,2.27,2.27,0,0,0-.73,1.1h2.93Z"/></g><g id="a97267fe-ad0d-48d0-b7b3-7b1aa35b82fb" ><path d="M44.88,6.16,44,10.5H41.72l.73-3.73a6.2,6.2,0,0,0,.11-.62,2.49,2.49,0,0,0,0-.4.84.84,0,0,0-.23-.63.88.88,0,0,0-.65-.22,1.63,1.63,0,0,0-1.23.55A3.1,3.1,0,0,0,39.77,7l-.69,3.5H36.77l1.41-7.13H40.5l-.21,1a4.74,4.74,0,0,1,1.29-1,3.16,3.16,0,0,1,1.34-.3,2.2,2.2,0,0,1,1.54.52A1.91,1.91,0,0,1,45,5.15a3.66,3.66,0,0,1,0,.45,1.23,1.23,0,0,1-.09.54Z"/></g><path d="M27.87,3.4a3.44,3.44,0,0,0-.79.58l.2.55A6.59,6.59,0,0,1,28,3.91l0,0,0,0a5.8,5.8,0,0,0-.65.65,10.63,10.63,0,0,0,1.08,0,1.1,1.1,0,0,0,0-.85S28.21,3.27,27.87,3.4Z" fill="url(#0c49565f-f53a-46ce-8f2c-8825d1ba373b)"/><path d="M26.36,7.52h0Z" fill="#be202e"/><path d="M26.36,7.52h0Z" fill="#be202e" opacity="0.35" style="isolation:isolate"/><path d="M26.52,7.09h0Z" fill="#be202e"/><path d="M26.52,7.09h0Z" fill="#be202e" opacity="0.35" style="isolation:isolate"/><path d="M26.29,5.72l.31-.41.33-.4,0,0,.33-.36L27.08,4,27,4.05l-.29.27-.35.35L26,5l-.3.34.26.75.29-.4Z" fill="url(#050b7233-7409-4d18-8344-f7d6cfdd23dd)"/><path d="M24.13,9.36l-.23.43-.17.33a.74.74,0,0,1,.23.35.57.57,0,0,0-.13-.42,1.25,1.25,0,0,0,1.26-.29l.07-.1a.5.5,0,0,1-.5.1h0a1.37,1.37,0,0,0,.78-.45l.14-.18a1.14,1.14,0,0,1-1.11.17h-.29l0,.07Z" fill="url(#a0e79673-6c75-4974-ad99-3c677aac916f)"/><path d="M24.35,8.75l.26-.45.26-.44.27-.44L25.42,7l.29-.43.1-.15L26,6.14h0l-.26-.75,0,0-.3.37-.3.39-.25.34,0,.07L24.55,7l-.26.44-.14.27-.1.22-.21.53.26.75.2-.35.06-.1Z" fill="url(#79ba38e4-a4a3-496e-9212-3d741398cd18)"/><path d="M23.83,8.48a5.24,5.24,0,0,0-.18.65v0a1.44,1.44,0,0,0-.36-.41,2,2,0,0,1,.28,1,1,1,0,0,1-.44-.15.94.94,0,0,0,.36.29,1.1,1.1,0,0,0-.57.18,1.18,1.18,0,0,1,.65,0c-.34.64-.69,1.35-1,2.11a.21.21,0,0,0,.16-.12c.06-.14.48-1,1.11-2.21l.07-.13.2-.38,0-.09h0l-.26-.75v0Z" fill="url(#6c44d16b-7b0b-4e73-a112-6aecd3ac424a)"/><path d="M26,6.19l0,.06-.12.18-.13.2-.07.1-.21.33-.27.43-.27.44-.26.45-.24.43-.26.48h.28a2.06,2.06,0,0,0,1.18-.44,2.66,2.66,0,0,0,.45-.45A4.18,4.18,0,0,0,26.38,8c.09-.15.18-.31.26-.49a1.05,1.05,0,0,1-.28.05h-.11A1.23,1.23,0,0,0,27,7a1.15,1.15,0,0,1-.41.11h-.09A1.28,1.28,0,0,0,26.83,7l.06,0L27,6.89l0,0,.11-.11,0,0,0-.05.14-.22.05-.09,0,0,0-.08,0-.09,0,0a1.37,1.37,0,0,1-.42.07h0l-.92,0h0Z" fill="url(#552afa06-e73e-46f8-985e-5d36f57c48fc)"/><path d="M27.32,4.55,27,4.93l0,0-.32.41-.31.41-.29.41.92,0a1.08,1.08,0,0,0,.55-.31l.11-.12L28,5.38l.26-.4.11-.22.06-.17a10.63,10.63,0,0,1-1.08,0Z" fill="url(#70d51a01-6f21-49c3-87b1-c1f394988118)"/><path d="M26.31,7.52h0Z" fill="#be202e"/><path d="M26.31,7.52h0Z" fill="#be202e" opacity="0.35" style="isolation:isolate"/><path d="M26.31,7.52h0Z" fill="url(#ba9b003b-d5e4-4c71-ac87-70db706fa441)"/><path d="M26.52,7.09h0Z" fill="#be202e"/><path d="M26.52,7.09h0Z" fill="#be202e" opacity="0.35" style="isolation:isolate"/><path d="M26.52,7.09h0Z" fill="url(#da85d12b-634e-4ec3-9d2c-81175a5a3684)"/><path d="M22.12,3.38a3,3,0,0,0-.16.83l.45.22a5.67,5.67,0,0,1,.06-.8v0a5,5,0,0,0,0,.79,9.14,9.14,0,0,0,.7-.61,1,1,0,0,0-.49-.54S22.25,3.1,22.12,3.38Z" fill="url(#5c84fd63-1f0d-4752-a49d-096c9b8d0d73)"/><path d="M23.59,6.85l-.07.07,0,0,0,0Z" fill="#be202e"/><path d="M23.59,6.85l-.07.07,0,0,0,0Z" fill="#be202e" opacity="0.35" style="isolation:isolate"/><path d="M23.43,6.49h0l0,0-.05.05Z" fill="#be202e"/><path d="M23.43,6.49h0l0,0-.05.05Z" fill="#be202e" opacity="0.35" style="isolation:isolate"/><path d="M22.49,5.76l0-.44,0-.44V4.43L22,4.21v.08l0,.34V5.87l.6.31-.05-.42Z" fill="url(#f793c645-e2fe-4dee-a76b-d9993b7747ad)"/><path d="M23.27,9.31l.11.4.09.31a.63.63,0,0,1,.35.09.49.49,0,0,0-.33-.18A1.07,1.07,0,0,0,24.1,9a.82.82,0,0,0,0-.1.43.43,0,0,1-.26.36h0a1.18,1.18,0,0,0,.22-.74q0-.1,0-.19a1,1,0,0,1-.6.76l-.19.16,0,.06Z" fill="url(#e7a33b89-a561-41e7-87ae-4f5ffda727b6)"/><path d="M23,8.8l-.1-.43-.09-.43-.09-.43-.08-.44-.07-.44,0-.16,0-.27h0l-.6-.31v0l0,.41,0,.42,0,.36v.07l.07.42.1.43.07.25.07.2.18.46.61.32-.08-.34,0-.1Z" fill="url(#90a0a516-a043-4815-bfee-540059fa537b)"/><path d="M22.56,8.94a4.5,4.5,0,0,0,.27.52v0a1.24,1.24,0,0,0-.47,0,1.7,1.7,0,0,1,.74.44.81.81,0,0,1-.36.17.81.81,0,0,0,.39,0,1,1,0,0,0-.25.45,1,1,0,0,1,.4-.39c.16.6.36,1.26.59,1.94a.18.18,0,0,0,0-.17c0-.12-.31-.94-.6-2l0-.12-.09-.36,0-.08h0l-.61-.32v0Z" fill="url(#bfbb8c71-c717-4af2-a7a6-dfb6c7fb14a7)"/><path d="M22.61,6.2v.06l0,.18,0,.2,0,.11.06.33.08.43.09.44.1.44.1.41.12.46.19-.16h0a1.77,1.77,0,0,0,.49-1,2.29,2.29,0,0,0,0-.55,3.6,3.6,0,0,0-.07-.47c0-.15-.07-.3-.12-.46a.91.91,0,0,1-.15.2l0,0,0,0a1.05,1.05,0,0,0,.16-.79,1,1,0,0,1-.19.31l0,0h0a1.1,1.1,0,0,0,.13-.25l0-.05,0-.08V6a.92.92,0,0,0,0-.13v-.1q0-.11,0-.22l0-.09v0l0-.08,0-.08v0a1.18,1.18,0,0,1-.22.29l.18-.15-.18.15h0l0,0h0l-.6.51h0Z" fill="url(#97d9b687-4074-45b1-9f1c-67440b97ec08)"/><path d="M22.44,4.42l0,.42v0l0,.44,0,.44.06.43.6-.51a.93.93,0,0,0,.17-.51V5l0-.45-.07-.41L23.2,4l-.06-.14a9.14,9.14,0,0,1-.7.61Z" fill="url(#4803618c-271a-45fd-aefb-e7f681894610)"/><path d="M23.55,6.88l0,0Z" fill="#be202e"/><path d="M23.55,6.88l0,0Z" fill="#be202e" opacity="0.35" style="isolation:isolate"/><path d="M23.55,6.88l0,0Z" fill="url(#d957e374-ae3e-4fe6-85e5-92cea93080e4)"/><path d="M23.43,6.49h0Z" fill="#be202e"/><path d="M23.43,6.49h0Z" fill="#be202e" opacity="0.35" style="isolation:isolate"/><path d="M23.43,6.49h0Z" fill="url(#c856ab8a-e7d0-4e61-a0d6-64ae5365f56c)"/></svg>