<?xml version="1.0" encoding="UTF-8" standalone="no"?>
<!-- Generator: Adobe Illustrator 21.1.0, SVG Export Plug-In . SVG Version: 6.00 Build 0)  -->

<svg
   xmlns:dc="http://purl.org/dc/elements/1.1/"
   xmlns:cc="http://creativecommons.org/ns#"
   xmlns:rdf="http://www.w3.org/1999/02/22-rdf-syntax-ns#"
   xmlns:svg="http://www.w3.org/2000/svg"
   xmlns="http://www.w3.org/2000/svg"
   xmlns:sodipodi="http://sodipodi.sourceforge.net/DTD/sodipodi-0.dtd"
   xmlns:inkscape="http://www.inkscape.org/namespaces/inkscape"
   version="1.1"
   id="svg4831"
   inkscape:version="0.91 r13725"
   sodipodi:docname="maven icon (3).svg"
   x="0px"
   y="0px"
   viewBox="0 0 11.962 16"
   enable-background="new 0 0 11.962 16"
   xml:space="preserve"><metadata
     id="metadata5686"><rdf:RDF><cc:Work
         rdf:about=""><dc:format>image/svg+xml</dc:format><dc:type
           rdf:resource="http://purl.org/dc/dcmitype/StillImage" /><dc:title></dc:title></cc:Work></rdf:RDF></metadata><defs
     id="defs5684" /><sodipodi:namedview
     bordercolor="#666666"
     borderopacity="1.0"
     fit-margin-bottom="0"
     fit-margin-left="0"
     fit-margin-right="0"
     fit-margin-top="0"
     id="base"
     inkscape:current-layer="svg4831"
     inkscape:cx="1.3759787"
     inkscape:cy="9.2893162"
     inkscape:document-units="px"
     inkscape:pageopacity="0.0"
     inkscape:pageshadow="2"
     inkscape:window-height="1060"
     inkscape:window-maximized="1"
     inkscape:window-width="1920"
     inkscape:window-x="1918"
     inkscape:window-y="-3"
     inkscape:zoom="44.8"
     pagecolor="#ffffff"
     showgrid="false" /><g
     id="g5442"><linearGradient
       id="path7258_1_"
       gradientUnits="userSpaceOnUse"
       x1="-27530.252"
       y1="11463.9443"
       x2="-27508.1621"
       y2="11489.7764"
       gradientTransform="matrix(-0.0186 -0.093 0.093 -0.0186 -1577.1011 -2346.3293)"><stop
         offset="0"
         style="stop-color:#F69923"
         id="stop5445" /><stop
         offset="0.3123"
         style="stop-color:#F79A23"
         id="stop5447" /><stop
         offset="0.8383"
         style="stop-color:#E97826"
         id="stop5449" /></linearGradient><path
       id="path7258"
       inkscape:connector-curvature="0"
       d="M0.253,0.305   C0.148,0.554,0.064,1.096,0.026,1.822l0.816,0.395C0.829,1.697,0.848,1.209,0.9,0.765c0.003-0.033,0.006-0.053,0.006-0.053   c0,0.018-0.005,0.035-0.006,0.053C0.884,0.911,0.849,1.369,0.897,2.197c0.337-0.275,0.823-0.742,1.207-1.14   c-0.406-0.83-0.911-0.975-0.911-0.975S0.471-0.209,0.253,0.305z"
       fill="url(#path7258_1_)" /><path
       id="path7260"
       inkscape:connector-curvature="0"
       d="M2.374,4.412C2.377,4.411,2.379,4.409,2.38,4.405L2.334,4.446   C2.333,4.45,2.329,4.453,2.328,4.457C2.344,4.441,2.36,4.426,2.374,4.412z"
       fill="none" /><path
       id="path7262"
       inkscape:connector-curvature="0"
       d="M2.874,5.823C2.852,5.849,2.826,5.875,2.8,5.901   C2.826,5.875,2.852,5.849,2.874,5.823z"
       fill="none" /><path
       id="path7264"
       inkscape:connector-curvature="0"
       d="M2.405,10.158c-0.002-0.012-0.008-0.025-0.01-0.037   C2.325,9.866,2.257,9.62,2.192,9.376C2.12,9.105,2.052,8.839,1.987,8.581C1.919,8.311,1.855,8.045,1.795,7.79   C1.731,7.521,1.672,7.262,1.617,7.01C1.573,6.805,1.53,6.606,1.491,6.412C1.477,6.346,1.465,6.283,1.453,6.22   C1.429,6.093,1.404,5.97,1.381,5.85c-0.02-0.112-0.042-0.22-0.063-0.329C1.312,5.484,1.306,5.448,1.299,5.415   C1.298,5.409,1.297,5.403,1.296,5.397L1.257,5.432l-0.081-0.04C1.178,5.4,1.179,5.41,1.181,5.419   c0.027,0.163,0.055,0.328,0.087,0.493C1.285,6.006,1.304,6.102,1.321,6.2c0.05,0.265,0.103,0.529,0.161,0.796   c0.056,0.268,0.116,0.537,0.176,0.802C1.718,8.06,1.781,8.32,1.844,8.579c0.063,0.259,0.127,0.515,0.193,0.769   c0.068,0.266,0.137,0.528,0.209,0.785c0.015,0.058,0.031,0.118,0.049,0.174c0.057,0.209,0.113,0.412,0.172,0.613l0.131,0.066   l0.044-0.039c-0.001-0.006-0.002-0.012-0.005-0.017C2.549,10.667,2.475,10.408,2.405,10.158z"
       fill="none" /><path
       id="path7266"
       inkscape:connector-curvature="0"
       d="M2.78,5.92L2.78,5.92L2.78,5.92L2.78,5.92z"
       fill="none" /><path
       id="path7268"
       inkscape:connector-curvature="0"
       d="M3.08,6.568C3.042,6.61,3.003,6.65,2.963,6.689l0,0   c0.02-0.019,0.042-0.041,0.061-0.062C3.045,6.608,3.064,6.588,3.08,6.568z"
       fill="#BE202E" /><path
       id="path7270"
       inkscape:connector-curvature="0"
       enable-background="new    "
       d="M3.08,6.568   C3.042,6.61,3.003,6.65,2.963,6.689l0,0c0.02-0.019,0.042-0.041,0.061-0.062C3.045,6.608,3.064,6.588,3.08,6.568z"
       fill="#BE202E"
       opacity="0.35" /><path
       id="path7272"
       inkscape:connector-curvature="0"
       d="M2.782,5.918L2.782,5.918C2.78,5.92,2.78,5.92,2.782,5.918   C2.788,5.913,2.794,5.906,2.8,5.901c0.026-0.026,0.052-0.052,0.073-0.078C2.845,5.854,2.813,5.885,2.782,5.918L2.782,5.918   L2.782,5.918z"
       fill="#BE202E" /><path
       id="path7274"
       inkscape:connector-curvature="0"
       enable-background="new    "
       d="M2.782,5.918   L2.782,5.918C2.78,5.92,2.78,5.92,2.782,5.918C2.788,5.913,2.794,5.906,2.8,5.901c0.026-0.026,0.052-0.052,0.073-0.078   C2.845,5.854,2.813,5.885,2.782,5.918L2.782,5.918L2.782,5.918z"
       fill="#BE202E"
       opacity="0.35" /><linearGradient
       id="path7286_1_"
       gradientUnits="userSpaceOnUse"
       x1="-27692.1406"
       y1="11451.5049"
       x2="-27534.5312"
       y2="11451.5049"
       gradientTransform="matrix(-0.0186 -0.093 0.093 -0.0186 -1577.1011 -2346.3293)"><stop
         offset="0.3233"
         style="stop-color:#9E2064"
         id="stop5461" /><stop
         offset="0.6302"
         style="stop-color:#C92037"
         id="stop5463" /><stop
         offset="0.7514"
         style="stop-color:#CD2335"
         id="stop5465" /><stop
         offset="1"
         style="stop-color:#E97826"
         id="stop5467" /></linearGradient><path
       id="path7286"
       inkscape:connector-curvature="0"
       d="M1.055,4.624   C1.018,4.353,0.983,4.086,0.952,3.823C0.92,3.551,0.896,3.283,0.877,3.019C0.876,3.003,0.875,2.987,0.875,2.973   c-0.018-0.258-0.031-0.51-0.037-0.757L0.024,1.824c-0.002,0.049-0.005,0.1-0.008,0.153C0.008,2.172,0.002,2.379,0,2.597   c-0.002,0.245,0,0.502,0.005,0.77c0.006,0.247,0.016,0.504,0.029,0.766c0.013,0.224,0.028,0.45,0.046,0.681   c0,0.01,0.001,0.016,0.002,0.026l1.089,0.552C1.134,5.134,1.094,4.878,1.055,4.624z"
       fill="url(#path7286_1_)" /><linearGradient
       id="path7298_1_"
       gradientUnits="userSpaceOnUse"
       x1="-27673.1152"
       y1="11467.3086"
       x2="-27579.1953"
       y2="11467.3086"
       gradientTransform="matrix(-0.0186 -0.093 0.093 -0.0186 -1577.1011 -2346.3293)"><stop
         offset="0.3233"
         style="stop-color:#9E2064"
         id="stop5471" /><stop
         offset="0.6302"
         style="stop-color:#C92037"
         id="stop5473" /><stop
         offset="0.7514"
         style="stop-color:#CD2335"
         id="stop5475" /><stop
         offset="1"
         style="stop-color:#E97826"
         id="stop5477" /></linearGradient><path
       id="path7298"
       inkscape:connector-curvature="0"
       d="M2.664,11.064   c0.06,0.203,0.121,0.413,0.188,0.625c0.002,0.002,0.001,0.006,0.003,0.008c0.009,0.031,0.017,0.06,0.028,0.09   c0.043,0.143,0.085,0.271,0.175,0.562c0.176-0.036,0.396,0.043,0.625,0.149c-0.147-0.177-0.351-0.296-0.595-0.323   c0.667-0.445,1.106-1.018,1.044-1.701c-0.007-0.06-0.015-0.123-0.027-0.186c-0.01,0.262-0.119,0.452-0.438,0.658l-0.002,0.002   l0.002-0.002c0.301-0.531,0.384-0.891,0.349-1.356C4.007,9.48,3.994,9.363,3.973,9.237C3.877,9.93,3.505,10.378,2.96,10.644   l-0.33,0.304C2.642,10.987,2.652,11.024,2.664,11.064z"
       fill="url(#path7298_1_)" /><linearGradient
       id="path7310_1_"
       gradientUnits="userSpaceOnUse"
       x1="-27683.2891"
       y1="11450.0205"
       x2="-27525.6797"
       y2="11450.0205"
       gradientTransform="matrix(-0.0186 -0.093 0.093 -0.0186 -1577.1011 -2346.3293)"><stop
         offset="0.3233"
         style="stop-color:#9E2064"
         id="stop5481" /><stop
         offset="0.6302"
         style="stop-color:#C92037"
         id="stop5483" /><stop
         offset="0.7514"
         style="stop-color:#CD2335"
         id="stop5485" /><stop
         offset="1"
         style="stop-color:#E97826"
         id="stop5487" /></linearGradient><path
       id="path7310"
       inkscape:connector-curvature="0"
       d="M2.24,10.134   c-0.07-0.258-0.138-0.52-0.209-0.785C1.965,9.095,1.901,8.84,1.838,8.58C1.775,8.321,1.714,8.059,1.653,7.798   c-0.062-0.267-0.12-0.534-0.176-0.802C1.42,6.732,1.368,6.464,1.315,6.2C1.296,6.104,1.279,6.01,1.262,5.913   C1.232,5.75,1.203,5.585,1.175,5.42C1.173,5.411,1.172,5.401,1.169,5.393L0.087,4.84c0.001,0.016,0.005,0.034,0.004,0.052   c0.022,0.245,0.043,0.494,0.072,0.745c0.028,0.254,0.061,0.509,0.098,0.766c0.032,0.217,0.066,0.432,0.102,0.65   c0.007,0.043,0.016,0.088,0.024,0.13c0.05,0.269,0.103,0.529,0.161,0.772C0.613,8.232,0.682,8.49,0.752,8.731   C0.8,8.889,0.846,9.04,0.893,9.184c0.041,0.121,0.086,0.243,0.129,0.363c0.103,0.282,0.218,0.555,0.342,0.822l1.094,0.554   C2.4,10.722,2.346,10.517,2.286,10.31C2.271,10.252,2.256,10.194,2.24,10.134z"
       fill="url(#path7310_1_)" /><linearGradient
       id="path7322_2_"
       gradientUnits="userSpaceOnUse"
       x1="-27671.7949"
       y1="11452.1504"
       x2="-27588.9668"
       y2="11452.1504"
       gradientTransform="matrix(-0.0186 -0.093 0.093 -0.0186 -1577.1011 -2346.3293)"><stop
         offset="0.3233"
         style="stop-color:#9E2064"
         id="stop5491" /><stop
         offset="0.6302"
         style="stop-color:#C92037"
         id="stop5493" /><stop
         offset="0.7514"
         style="stop-color:#CD2335"
         id="stop5495" /><stop
         offset="1"
         style="stop-color:#E97826"
         id="stop5497" /></linearGradient><path
       id="path7322"
       inkscape:connector-curvature="0"
       d="M1.38,10.405   c0.151,0.322,0.317,0.633,0.504,0.93c0.007,0.009,0.013,0.022,0.019,0.031C1.6,11.243,1.064,11.3,1.068,11.301   c0.553,0.192,1.039,0.427,1.345,0.783c-0.122,0.134-0.349,0.236-0.636,0.319c0.396,0.043,0.617-0.026,0.697-0.062   c-0.207,0.172-0.323,0.488-0.424,0.827c0.233-0.381,0.464-0.633,0.689-0.729c0.328,1.089,0.724,2.27,1.162,3.509   c0.074-0.096,0.082-0.201,0.051-0.309c-0.081-0.223-0.602-1.696-1.197-3.696c-0.017-0.056-0.032-0.114-0.051-0.172   c-0.005-0.017-0.009-0.031-0.014-0.048c-0.061-0.21-0.123-0.425-0.186-0.647c-0.014-0.052-0.028-0.099-0.042-0.151L2.46,10.921   l-1.094-0.554C1.369,10.381,1.374,10.392,1.38,10.405z"
       fill="url(#path7322_2_)" /><linearGradient
       id="path7322_3_"
       gradientUnits="userSpaceOnUse"
       x1="-27671.7949"
       y1="11452.1504"
       x2="-27588.9668"
       y2="11452.1504"
       gradientTransform="matrix(-0.0186 -0.093 0.093 -0.0186 -1577.1011 -2346.3293)"><stop
         offset="0"
         style="stop-color:#F69923"
         id="stop5501" /><stop
         offset="0.3123"
         style="stop-color:#F79A23"
         id="stop5503" /><stop
         offset="0.8383"
         style="stop-color:#E97826"
         id="stop5505" /></linearGradient><path
       id="path7322_1_"
       inkscape:connector-curvature="0"
       enable-background="new    "
       d="   M1.38,10.405c0.151,0.322,0.317,0.633,0.504,0.93c0.007,0.009,0.013,0.022,0.019,0.031C1.6,11.243,1.064,11.3,1.068,11.301   c0.553,0.192,1.039,0.427,1.345,0.783c-0.122,0.134-0.349,0.236-0.636,0.319c0.396,0.043,0.617-0.026,0.697-0.062   c-0.207,0.172-0.323,0.488-0.424,0.827c0.233-0.381,0.464-0.633,0.689-0.729c0.328,1.089,0.724,2.27,1.162,3.509   c0.074-0.096,0.082-0.201,0.051-0.309c-0.081-0.223-0.602-1.696-1.197-3.696c-0.017-0.056-0.032-0.114-0.051-0.172   c-0.005-0.017-0.009-0.031-0.014-0.048c-0.061-0.21-0.123-0.425-0.186-0.647c-0.014-0.052-0.028-0.099-0.042-0.151L2.46,10.921   l-1.094-0.554C1.369,10.381,1.374,10.392,1.38,10.405z"
       fill="url(#path7322_3_)"
       opacity="0.7" /><linearGradient
       id="path7334_1_"
       gradientUnits="userSpaceOnUse"
       x1="-27683.2891"
       y1="11466.3467"
       x2="-27525.6797"
       y2="11466.3467"
       gradientTransform="matrix(-0.0186 -0.093 0.093 -0.0186 -1577.1011 -2346.3293)"><stop
         offset="0.3233"
         style="stop-color:#9E2064"
         id="stop5509" /><stop
         offset="0.6302"
         style="stop-color:#C92037"
         id="stop5511" /><stop
         offset="0.7514"
         style="stop-color:#CD2335"
         id="stop5513" /><stop
         offset="1"
         style="stop-color:#E97826"
         id="stop5515" /></linearGradient><path
       id="path7334"
       inkscape:connector-curvature="0"
       d="M1.299,5.415   c0.006,0.037,0.013,0.069,0.019,0.106c0.021,0.108,0.04,0.218,0.063,0.329c0.023,0.12,0.048,0.243,0.072,0.37   c0.012,0.063,0.024,0.127,0.038,0.192C1.53,6.606,1.573,6.805,1.617,7.01c0.055,0.252,0.114,0.511,0.178,0.78   c0.06,0.255,0.124,0.521,0.192,0.791c0.065,0.258,0.132,0.522,0.205,0.795c0.064,0.242,0.133,0.49,0.203,0.745   c0.002,0.012,0.008,0.025,0.01,0.037c0.071,0.251,0.144,0.51,0.22,0.773c0.001,0.006,0.002,0.012,0.005,0.017l0.33-0.304   c-0.008,0.003-0.015,0.008-0.026,0.012c0.392-0.37,0.728-1.111,0.804-1.78c0.035-0.308,0.032-0.635-0.01-0.993   C3.699,7.617,3.644,7.337,3.57,7.034c-0.065-0.262-0.145-0.54-0.243-0.832C3.266,6.325,3.18,6.447,3.075,6.566   c-0.019,0.02-0.038,0.041-0.057,0.062c-0.019,0.021-0.04,0.04-0.061,0.062l0,0l0,0l0,0C3.246,6.241,3.28,5.759,3.194,5.258   C3.142,5.406,3.039,5.626,2.868,5.824C2.846,5.85,2.82,5.876,2.794,5.902C2.787,5.907,2.782,5.914,2.773,5.921l0,0l0,0l0,0l0,0l0,0   C2.869,5.761,2.94,5.61,2.985,5.456C2.996,5.424,3.003,5.391,3.01,5.358c0.012-0.05,0.019-0.1,0.027-0.15   C3.041,5.175,3.045,5.144,3.048,5.11c0.006-0.076,0.006-0.156-0.001-0.236C3.045,4.848,3.045,4.824,3.041,4.8   C3.034,4.763,3.03,4.729,3.023,4.696C2.997,4.544,2.968,4.41,2.938,4.295c-0.015-0.058-0.029-0.11-0.044-0.158   C2.887,4.118,2.884,4.1,2.877,4.081c-0.018-0.052-0.032-0.1-0.048-0.14c-0.023-0.059-0.043-0.106-0.06-0.138l0,0l0,0   C2.764,3.824,2.757,3.847,2.745,3.869c-0.068,0.16-0.227,0.38-0.371,0.534l0.304-0.278L2.374,4.402   C2.372,4.404,2.37,4.406,2.369,4.41c-0.014,0.014-0.03,0.029-0.045,0.047C2.325,4.452,2.329,4.449,2.33,4.445L1.29,5.398   C1.298,5.405,1.299,5.411,1.299,5.415z"
       fill="url(#path7334_1_)" /><linearGradient
       id="path7346_1_"
       gradientUnits="userSpaceOnUse"
       x1="-27693.0664"
       y1="11465.5811"
       x2="-27535.457"
       y2="11465.5811"
       gradientTransform="matrix(-0.0186 -0.093 0.093 -0.0186 -1577.1011 -2346.3293)"><stop
         offset="0.3233"
         style="stop-color:#9E2064"
         id="stop5519" /><stop
         offset="0.6302"
         style="stop-color:#C92037"
         id="stop5521" /><stop
         offset="0.7514"
         style="stop-color:#CD2335"
         id="stop5523" /><stop
         offset="1"
         style="stop-color:#E97826"
         id="stop5525" /></linearGradient><path
       id="path7346"
       inkscape:connector-curvature="0"
       d="M0.897,2.197C0.91,2.425,0.93,2.682,0.956,2.965   c0.001,0.017,0,0.031,0.004,0.045c0.023,0.247,0.054,0.514,0.093,0.805c0.033,0.251,0.069,0.516,0.115,0.803   c0.037,0.248,0.083,0.506,0.13,0.781l1.04-0.952C2.555,4.054,2.602,3.81,2.599,3.506C2.598,3.424,2.593,3.338,2.587,3.25   C2.57,2.983,2.538,2.701,2.493,2.428C2.45,2.164,2.398,1.91,2.338,1.693C2.3,1.552,2.26,1.427,2.219,1.32   C2.181,1.227,2.143,1.142,2.104,1.06C1.72,1.455,1.234,1.922,0.897,2.197z"
       fill="url(#path7346_1_)" /><path
       id="path7348"
       inkscape:connector-curvature="0"
       d="M3.025,6.629C3.006,6.65,2.986,6.669,2.964,6.691l0,0   C2.983,6.67,3.003,6.65,3.025,6.629z"
       fill="#BE202E" /><path
       id="path7350"
       inkscape:connector-curvature="0"
       enable-background="new    "
       d="M3.025,6.629   C3.006,6.65,2.986,6.669,2.964,6.691l0,0C2.983,6.67,3.003,6.65,3.025,6.629z"
       fill="#BE202E"
       opacity="0.35" /><linearGradient
       id="path7362_1_"
       gradientUnits="userSpaceOnUse"
       x1="-27683.2891"
       y1="11471.2324"
       x2="-27525.6797"
       y2="11471.2324"
       gradientTransform="matrix(-0.0186 -0.093 0.093 -0.0186 -1577.1011 -2346.3293)"><stop
         offset="0.3233"
         style="stop-color:#9E2064"
         id="stop5531" /><stop
         offset="0.6302"
         style="stop-color:#C92037"
         id="stop5533" /><stop
         offset="0.7514"
         style="stop-color:#CD2335"
         id="stop5535" /><stop
         offset="1"
         style="stop-color:#E97826"
         id="stop5537" /></linearGradient><path
       id="path7362"
       inkscape:connector-curvature="0"
       d="M3.025,6.629   C3.006,6.65,2.986,6.669,2.964,6.691l0,0C2.983,6.67,3.003,6.65,3.025,6.629z"
       fill="url(#path7362_1_)" /><path
       id="path7364"
       inkscape:connector-curvature="0"
       d="M2.78,5.92C2.786,5.915,2.791,5.908,2.8,5.901   C2.794,5.906,2.788,5.913,2.78,5.92L2.78,5.92z"
       fill="#BE202E" /><path
       id="path7366"
       inkscape:connector-curvature="0"
       enable-background="new    "
       d="M2.78,5.92   C2.786,5.915,2.791,5.908,2.8,5.901C2.794,5.906,2.788,5.913,2.78,5.92L2.78,5.92z"
       fill="#BE202E"
       opacity="0.35" /><linearGradient
       id="path7378_1_"
       gradientUnits="userSpaceOnUse"
       x1="-27683.2891"
       y1="11470.668"
       x2="-27525.6797"
       y2="11470.668"
       gradientTransform="matrix(-0.0186 -0.093 0.093 -0.0186 -1577.1011 -2346.3293)"><stop
         offset="0.3233"
         style="stop-color:#9E2064"
         id="stop5543" /><stop
         offset="0.6302"
         style="stop-color:#C92037"
         id="stop5545" /><stop
         offset="0.7514"
         style="stop-color:#CD2335"
         id="stop5547" /><stop
         offset="1"
         style="stop-color:#E97826"
         id="stop5549" /></linearGradient><path
       id="path7378"
       inkscape:connector-curvature="0"
       d="M2.78,5.92C2.786,5.915,2.791,5.908,2.8,5.901   C2.794,5.906,2.788,5.913,2.78,5.92L2.78,5.92z"
       fill="url(#path7378_1_)" /><path
       id="path7380"
       inkscape:connector-curvature="0"
       d="M2.782,5.918L2.782,5.918L2.782,5.918L2.782,5.918   L2.782,5.918L2.782,5.918z"
       fill="#BE202E" /><path
       id="path7382"
       inkscape:connector-curvature="0"
       enable-background="new    "
       d="M2.782,5.918   L2.782,5.918L2.782,5.918L2.782,5.918L2.782,5.918L2.782,5.918z"
       fill="#BE202E"
       opacity="0.35" /><linearGradient
       id="path7394_1_"
       gradientUnits="userSpaceOnUse"
       x1="-27587.0957"
       y1="11470.5703"
       x2="-27587.0957"
       y2="11470.5703"
       gradientTransform="matrix(-0.0186 -0.093 0.093 -0.0186 -1577.1011 -2346.3293)"><stop
         offset="0.3233"
         style="stop-color:#9E2064"
         id="stop5555" /><stop
         offset="0.6302"
         style="stop-color:#C92037"
         id="stop5557" /><stop
         offset="0.7514"
         style="stop-color:#CD2335"
         id="stop5559" /><stop
         offset="1"
         style="stop-color:#E97826"
         id="stop5561" /></linearGradient><path
       id="path7394"
       inkscape:connector-curvature="0"
       d="M2.782,5.918L2.782,5.918L2.782,5.918   L2.782,5.918L2.782,5.918L2.782,5.918z"
       fill="url(#path7394_1_)" /><linearGradient
       id="path4710_1_"
       gradientUnits="userSpaceOnUse"
       x1="-13227.4873"
       y1="18122.7637"
       x2="-13205.3965"
       y2="18148.5957"
       gradientTransform="matrix(0.059 -0.0896 0.0896 0.059 -833.8603 -2252.6587)"><stop
         offset="0"
         style="stop-color:#F69923"
         id="stop5565" /><stop
         offset="0.3123"
         style="stop-color:#F79A23"
         id="stop5567" /><stop
         offset="0.8383"
         style="stop-color:#E97826"
         id="stop5569" /></linearGradient><path
       id="path4710"
       inkscape:connector-curvature="0"
       d="M10.911,0.509   C10.627,0.626,10.13,0.996,9.523,1.55l0.343,0.966c0.402-0.429,0.806-0.807,1.201-1.123c0.029-0.024,0.047-0.037,0.047-0.037   c-0.015,0.014-0.032,0.024-0.047,0.037c-0.129,0.105-0.522,0.446-1.141,1.15c0.49,0.047,1.252,0.057,1.879,0.041   c0.332-0.99,0.041-1.508,0.041-1.508S11.494,0.268,10.911,0.509z"
       fill="url(#path4710_1_)" /><path
       id="path4712"
       inkscape:connector-curvature="0"
       d="M9.355,5.501c0.003,0,0.006,0.001,0.01-0.002l-0.07-0.003   C9.292,5.498,9.285,5.497,9.282,5.5C9.307,5.5,9.332,5.501,9.355,5.501z"
       fill="none" /><path
       id="path4714"
       inkscape:connector-curvature="0"
       d="M8.636,7.033c-0.039,0.004-0.08,0.004-0.121,0.004   C8.556,7.037,8.597,7.037,8.636,7.033z"
       fill="none" /><path
       id="path4716"
       inkscape:connector-curvature="0"
       d="M4.814,10.15c0.008-0.011,0.013-0.027,0.021-0.038   C4.982,9.852,5.123,9.6,5.264,9.351C5.422,9.077,5.578,8.808,5.73,8.549C5.89,8.278,6.05,8.013,6.204,7.76   c0.163-0.268,0.321-0.523,0.477-0.77c0.128-0.2,0.251-0.394,0.374-0.582c0.041-0.064,0.082-0.124,0.122-0.185   c0.081-0.121,0.159-0.24,0.236-0.355c0.073-0.107,0.142-0.21,0.211-0.314c0.024-0.034,0.048-0.069,0.068-0.1   C7.696,5.448,7.7,5.442,7.704,5.436l-0.06-0.002L7.611,5.337C7.607,5.346,7.599,5.354,7.595,5.363   C7.487,5.515,7.378,5.67,7.273,5.829C7.212,5.918,7.151,6.011,7.087,6.103C6.917,6.357,6.75,6.611,6.585,6.872   C6.417,7.132,6.251,7.396,6.09,7.658C5.928,7.916,5.772,8.175,5.617,8.434C5.462,8.693,5.31,8.95,5.162,9.207   c-0.157,0.268-0.31,0.534-0.456,0.798c-0.034,0.058-0.068,0.12-0.099,0.179c-0.12,0.214-0.236,0.422-0.349,0.63l0.053,0.157   l0.066,0.003c0.004-0.006,0.008-0.011,0.009-0.018C4.525,10.675,4.672,10.408,4.814,10.15z"
       fill="none" /><path
       id="path4718"
       inkscape:connector-curvature="0"
       d="M8.483,7.036L8.483,7.036L8.483,7.036L8.483,7.036z"
       fill="none" /><path
       id="path4720"
       inkscape:connector-curvature="0"
       d="M8.21,7.798C8.146,7.801,8.083,7.801,8.019,7.801l0,0   c0.031,0.001,0.066,0,0.098-0.001C8.149,7.801,8.181,7.8,8.21,7.798z"
       fill="#BE202E" /><path
       id="path4722"
       inkscape:connector-curvature="0"
       enable-background="new    "
       d="M8.21,7.798   C8.146,7.801,8.083,7.801,8.019,7.801l0,0c0.031,0.001,0.066,0,0.098-0.001C8.149,7.801,8.181,7.8,8.21,7.798z"
       fill="#BE202E"
       opacity="0.35" /><path
       id="path4724"
       inkscape:connector-curvature="0"
       d="M8.486,7.037L8.486,7.037   C8.483,7.036,8.483,7.036,8.486,7.037c0.009,0.001,0.019,0,0.028,0.001c0.041,0,0.082-0.001,0.121-0.004   C8.588,7.036,8.537,7.035,8.486,7.037L8.486,7.037L8.486,7.037z"
       fill="#BE202E" /><path
       id="path4726"
       inkscape:connector-curvature="0"
       enable-background="new    "
       d="M8.486,7.037   L8.486,7.037C8.483,7.036,8.483,7.036,8.486,7.037c0.009,0.001,0.019,0,0.028,0.001c0.041,0,0.082-0.001,0.121-0.004   C8.588,7.036,8.537,7.035,8.486,7.037L8.486,7.037L8.486,7.037z"
       fill="#BE202E"
       opacity="0.35" /><linearGradient
       id="path4737_1_"
       gradientUnits="userSpaceOnUse"
       x1="-13387.5234"
       y1="18122.668"
       x2="-13229.915"
       y2="18122.668"
       gradientTransform="matrix(0.059 -0.0896 0.0896 0.059 -833.8603 -2252.6587)"><stop
         offset="0.3233"
         style="stop-color:#9E2064"
         id="stop5581" /><stop
         offset="0.6302"
         style="stop-color:#C92037"
         id="stop5583" /><stop
         offset="0.7514"
         style="stop-color:#CD2335"
         id="stop5585" /><stop
         offset="1"
         style="stop-color:#E97826"
         id="stop5587" /></linearGradient><path
       id="path4737"
       inkscape:connector-curvature="0"
       d="M8.124,4.624   c0.185-0.248,0.37-0.491,0.553-0.727c0.192-0.244,0.385-0.479,0.58-0.707C9.268,3.176,9.28,3.162,9.291,3.151   c0.191-0.222,0.381-0.435,0.572-0.638L9.519,1.55c-0.04,0.038-0.084,0.076-0.128,0.117C9.23,1.818,9.06,1.98,8.886,2.154   C8.689,2.35,8.488,2.558,8.278,2.777C8.087,2.98,7.89,3.196,7.693,3.417C7.526,3.608,7.358,3.802,7.189,4.002   C7.182,4.01,7.178,4.016,7.17,4.024l0.438,1.309C7.783,5.096,7.954,4.858,8.124,4.624z"
       fill="url(#path4737_1_)" /><linearGradient
       id="path4748_1_"
       gradientUnits="userSpaceOnUse"
       x1="-13368.498"
       y1="18138.5391"
       x2="-13274.5781"
       y2="18138.5391"
       gradientTransform="matrix(0.059 -0.0896 0.0896 0.059 -833.8603 -2252.6587)"><stop
         offset="0.3233"
         style="stop-color:#9E2064"
         id="stop5591" /><stop
         offset="0.6302"
         style="stop-color:#C92037"
         id="stop5593" /><stop
         offset="0.7514"
         style="stop-color:#CD2335"
         id="stop5595" /><stop
         offset="1"
         style="stop-color:#E97826"
         id="stop5597" /></linearGradient><path
       id="path4748"
       inkscape:connector-curvature="0"
       d="M4.303,11.086   c-0.113,0.211-0.231,0.429-0.346,0.652c0,0.003-0.004,0.006-0.004,0.009c-0.017,0.032-0.034,0.061-0.049,0.094   c-0.079,0.15-0.146,0.286-0.305,0.592c0.171,0.111,0.285,0.349,0.385,0.617c0.022-0.26-0.048-0.517-0.222-0.733   c0.89,0.172,1.699,0.059,2.192-0.54c0.043-0.054,0.086-0.111,0.127-0.171c-0.217,0.203-0.454,0.269-0.876,0.182H5.202h0.003   c0.664-0.188,1.017-0.411,1.358-0.814c0.081-0.096,0.163-0.201,0.246-0.319c-0.628,0.481-1.284,0.547-1.933,0.328l-0.507-0.017   C4.346,11.007,4.325,11.045,4.303,11.086z"
       fill="url(#path4748_1_)" /><linearGradient
       id="path4759_1_"
       gradientUnits="userSpaceOnUse"
       x1="-13378.6719"
       y1="18121.2266"
       x2="-13221.0625"
       y2="18121.2266"
       gradientTransform="matrix(0.059 -0.0896 0.0896 0.059 -833.8603 -2252.6587)"><stop
         offset="0.3233"
         style="stop-color:#9E2064"
         id="stop5601" /><stop
         offset="0.6302"
         style="stop-color:#C92037"
         id="stop5603" /><stop
         offset="0.7514"
         style="stop-color:#CD2335"
         id="stop5605" /><stop
         offset="1"
         style="stop-color:#E97826"
         id="stop5607" /></linearGradient><path
       id="path4759"
       inkscape:connector-curvature="0"
       d="M4.7,10c0.149-0.263,0.303-0.529,0.456-0.798   c0.149-0.257,0.3-0.513,0.455-0.773C5.766,8.17,5.925,7.911,6.083,7.652C6.245,7.388,6.41,7.127,6.578,6.866   C6.743,6.61,6.914,6.353,7.081,6.099c0.061-0.092,0.122-0.182,0.186-0.274C7.372,5.67,7.481,5.514,7.589,5.359   C7.593,5.35,7.601,5.342,7.605,5.333L7.173,4.028C7.161,4.042,7.149,4.059,7.135,4.073C6.957,4.288,6.777,4.505,6.601,4.73   c-0.179,0.227-0.355,0.458-0.53,0.695c-0.147,0.2-0.29,0.401-0.434,0.605C5.609,6.07,5.581,6.113,5.553,6.153   C5.379,6.41,5.215,6.661,5.069,6.903C4.902,7.176,4.753,7.439,4.618,7.689C4.53,7.853,4.447,8.012,4.371,8.166   C4.307,8.296,4.246,8.429,4.186,8.56c-0.14,0.309-0.265,0.62-0.378,0.933l0.44,1.316c0.113-0.208,0.232-0.416,0.349-0.63   C4.632,10.12,4.666,10.062,4.7,10z"
       fill="url(#path4759_1_)" /><linearGradient
       id="path4770_2_"
       gradientUnits="userSpaceOnUse"
       x1="-13367.1768"
       y1="18123.4082"
       x2="-13284.3486"
       y2="18123.4082"
       gradientTransform="matrix(0.059 -0.0896 0.0896 0.059 -833.8603 -2252.6587)"><stop
         offset="0.3233"
         style="stop-color:#9E2064"
         id="stop5611" /><stop
         offset="0.6302"
         style="stop-color:#C92037"
         id="stop5613" /><stop
         offset="0.7514"
         style="stop-color:#CD2335"
         id="stop5615" /><stop
         offset="1"
         style="stop-color:#E97826"
         id="stop5617" /></linearGradient><path
       id="path4770"
       inkscape:connector-curvature="0"
       d="M3.793,9.535   c-0.135,0.379-0.248,0.762-0.333,1.148c-0.002,0.012-0.007,0.027-0.009,0.04c-0.147-0.338-0.623-0.719-0.62-0.715   c0.293,0.594,0.497,1.169,0.46,1.699c-0.204,0.011-0.469-0.088-0.765-0.248c0.285,0.349,0.517,0.469,0.61,0.504   c-0.304-0.026-0.647,0.136-0.999,0.329c0.49-0.121,0.876-0.141,1.134-0.04C2.67,13.39,2.05,14.655,1.419,16   c0.136-0.018,0.226-0.097,0.287-0.208c0.112-0.243,0.863-1.844,1.973-3.927c0.031-0.059,0.065-0.117,0.096-0.179   c0.009-0.018,0.017-0.032,0.026-0.05c0.117-0.217,0.239-0.44,0.364-0.669c0.03-0.053,0.056-0.103,0.086-0.155v-0.003l-0.44-1.316   C3.803,9.508,3.798,9.52,3.793,9.535z"
       fill="url(#path4770_2_)" /><linearGradient
       id="path4770_3_"
       gradientUnits="userSpaceOnUse"
       x1="-13367.1768"
       y1="18123.4082"
       x2="-13284.3486"
       y2="18123.4082"
       gradientTransform="matrix(0.059 -0.0896 0.0896 0.059 -833.8603 -2252.6587)"><stop
         offset="0"
         style="stop-color:#F69923"
         id="stop5621" /><stop
         offset="0.3123"
         style="stop-color:#F79A23"
         id="stop5623" /><stop
         offset="0.8383"
         style="stop-color:#E97826"
         id="stop5625" /></linearGradient><path
       id="path4770_1_"
       inkscape:connector-curvature="0"
       enable-background="new    "
       d="   M3.793,9.535c-0.135,0.379-0.248,0.762-0.333,1.148c-0.002,0.012-0.007,0.027-0.009,0.04c-0.147-0.338-0.623-0.719-0.62-0.715   c0.293,0.594,0.497,1.169,0.46,1.699c-0.204,0.011-0.469-0.088-0.765-0.248c0.285,0.349,0.517,0.469,0.61,0.504   c-0.304-0.026-0.647,0.136-0.999,0.329c0.49-0.121,0.876-0.141,1.134-0.04C2.67,13.39,2.05,14.655,1.419,16   c0.136-0.018,0.226-0.097,0.287-0.208c0.112-0.243,0.863-1.844,1.973-3.927c0.031-0.059,0.065-0.117,0.096-0.179   c0.009-0.018,0.017-0.032,0.026-0.05c0.117-0.217,0.239-0.44,0.364-0.669c0.03-0.053,0.056-0.103,0.086-0.155v-0.003l-0.44-1.316   C3.803,9.508,3.798,9.52,3.793,9.535z"
       fill="url(#path4770_3_)"
       opacity="0.7" /><linearGradient
       id="path4781_1_"
       gradientUnits="userSpaceOnUse"
       x1="-13378.6719"
       y1="18137.5352"
       x2="-13221.0625"
       y2="18137.5352"
       gradientTransform="matrix(0.059 -0.0896 0.0896 0.059 -833.8603 -2252.6587)"><stop
         offset="0.3233"
         style="stop-color:#9E2064"
         id="stop5629" /><stop
         offset="0.6302"
         style="stop-color:#C92037"
         id="stop5631" /><stop
         offset="0.7514"
         style="stop-color:#CD2335"
         id="stop5633" /><stop
         offset="1"
         style="stop-color:#E97826"
         id="stop5635" /></linearGradient><path
       id="path4781"
       inkscape:connector-curvature="0"
       d="M7.692,5.454   c-0.024,0.034-0.044,0.066-0.068,0.1c-0.07,0.104-0.142,0.208-0.211,0.315C7.336,5.984,7.258,6.103,7.177,6.224   c-0.041,0.06-0.081,0.121-0.122,0.185C6.932,6.596,6.809,6.791,6.681,6.99C6.525,7.237,6.367,7.492,6.204,7.76   C6.05,8.013,5.89,8.278,5.73,8.549c-0.152,0.26-0.308,0.525-0.466,0.803c-0.141,0.245-0.282,0.5-0.428,0.761   c-0.008,0.011-0.013,0.027-0.021,0.038c-0.142,0.258-0.289,0.525-0.437,0.797c-0.004,0.006-0.008,0.011-0.009,0.018l0.507,0.017   c-0.009-0.004-0.018-0.006-0.03-0.011c0.609,0.013,1.469-0.317,2.061-0.794c0.273-0.22,0.531-0.486,0.78-0.807   c0.187-0.239,0.366-0.507,0.546-0.81C8.39,8.299,8.546,8.012,8.7,7.698C8.553,7.75,8.387,7.779,8.208,7.791   C8.176,7.793,8.144,7.794,8.112,7.796s-0.063,0-0.098,0.001l0,0l0,0l0,0c0.59-0.132,1-0.493,1.329-0.964   C9.183,6.911,8.925,7.006,8.63,7.029C8.591,7.033,8.55,7.033,8.509,7.034c-0.009-0.001-0.019,0-0.031-0.001l0,0l0,0l0,0l0,0l0,0   c0.204-0.052,0.382-0.118,0.54-0.206C9.052,6.81,9.084,6.789,9.115,6.768c0.049-0.031,0.095-0.065,0.141-0.1   c0.029-0.024,0.057-0.045,0.086-0.07c0.065-0.057,0.129-0.121,0.186-0.191c0.019-0.023,0.038-0.042,0.054-0.065   C9.607,6.308,9.63,6.276,9.651,6.245c0.1-0.144,0.183-0.274,0.251-0.391c0.034-0.058,0.064-0.111,0.09-0.161   c0.009-0.021,0.021-0.038,0.031-0.059c0.027-0.056,0.054-0.106,0.073-0.151c0.029-0.065,0.049-0.119,0.061-0.159l0,0l0,0   c-0.021,0.013-0.045,0.025-0.071,0.034C9.903,5.433,9.601,5.483,9.362,5.493L9.828,5.51L9.362,5.493   c-0.003,0-0.006-0.001-0.01,0.002c-0.022,0-0.047-0.001-0.073,0.002c0.004-0.003,0.01-0.002,0.013-0.004l-1.594-0.06   C7.7,5.445,7.696,5.451,7.692,5.454z"
       fill="url(#path4781_1_)" /><linearGradient
       id="path4792_1_"
       gradientUnits="userSpaceOnUse"
       x1="-13388.4492"
       y1="18136.7363"
       x2="-13230.8398"
       y2="18136.7363"
       gradientTransform="matrix(0.059 -0.0896 0.0896 0.059 -833.8603 -2252.6587)"><stop
         offset="0.3233"
         style="stop-color:#9E2064"
         id="stop5639" /><stop
         offset="0.6302"
         style="stop-color:#C92037"
         id="stop5641" /><stop
         offset="0.7514"
         style="stop-color:#CD2335"
         id="stop5643" /><stop
         offset="1"
         style="stop-color:#E97826"
         id="stop5645" /></linearGradient><path
       id="path4792"
       inkscape:connector-curvature="0"
       d="M9.925,2.544   C9.754,2.737,9.566,2.96,9.362,3.209C9.35,3.223,9.339,3.234,9.33,3.248C9.153,3.466,8.966,3.705,8.765,3.97   C8.592,4.198,8.411,4.441,8.22,4.707C8.053,4.936,7.884,5.181,7.704,5.439l1.594,0.06c0.487-0.144,0.719-0.303,0.958-0.55   c0.064-0.067,0.128-0.14,0.193-0.216c0.198-0.228,0.397-0.48,0.577-0.736c0.176-0.247,0.335-0.492,0.46-0.715   c0.081-0.143,0.148-0.276,0.201-0.395c0.044-0.104,0.081-0.204,0.114-0.3C11.177,2.601,10.415,2.59,9.925,2.544z"
       fill="url(#path4792_1_)" /><path
       id="path4794"
       inkscape:connector-curvature="0"
       d="M8.117,7.803c-0.032,0.002-0.063,0-0.098,0.001l0,0   C8.051,7.803,8.083,7.801,8.117,7.803z"
       fill="#BE202E" /><path
       id="path4796"
       inkscape:connector-curvature="0"
       enable-background="new    "
       d="M8.117,7.803   c-0.032,0.002-0.063,0-0.098,0.001l0,0C8.051,7.803,8.083,7.801,8.117,7.803z"
       fill="#BE202E"
       opacity="0.35" /><linearGradient
       id="path4807_1_"
       gradientUnits="userSpaceOnUse"
       x1="-13378.6719"
       y1="18142.4238"
       x2="-13221.0625"
       y2="18142.4238"
       gradientTransform="matrix(0.059 -0.0896 0.0896 0.059 -833.8603 -2252.6587)"><stop
         offset="0.3233"
         style="stop-color:#9E2064"
         id="stop5651" /><stop
         offset="0.6302"
         style="stop-color:#C92037"
         id="stop5653" /><stop
         offset="0.7514"
         style="stop-color:#CD2335"
         id="stop5655" /><stop
         offset="1"
         style="stop-color:#E97826"
         id="stop5657" /></linearGradient><path
       id="path4807"
       inkscape:connector-curvature="0"
       d="M8.117,7.803c-0.032,0.002-0.063,0-0.098,0.001   l0,0C8.051,7.803,8.083,7.801,8.117,7.803z"
       fill="url(#path4807_1_)" /><path
       id="path4809"
       inkscape:connector-curvature="0"
       d="M8.483,7.036c0.009,0.001,0.019,0,0.031,0.001   C8.505,7.036,8.496,7.038,8.483,7.036L8.483,7.036z"
       fill="#BE202E" /><path
       id="path4811"
       inkscape:connector-curvature="0"
       enable-background="new    "
       d="M8.483,7.036   c0.009,0.001,0.019,0,0.031,0.001C8.505,7.036,8.496,7.038,8.483,7.036L8.483,7.036z"
       fill="#BE202E"
       opacity="0.35" /><linearGradient
       id="path4822_1_"
       gradientUnits="userSpaceOnUse"
       x1="-13378.6719"
       y1="18141.8438"
       x2="-13221.0625"
       y2="18141.8438"
       gradientTransform="matrix(0.059 -0.0896 0.0896 0.059 -833.8603 -2252.6587)"><stop
         offset="0.3233"
         style="stop-color:#9E2064"
         id="stop5663" /><stop
         offset="0.6302"
         style="stop-color:#C92037"
         id="stop5665" /><stop
         offset="0.7514"
         style="stop-color:#CD2335"
         id="stop5667" /><stop
         offset="1"
         style="stop-color:#E97826"
         id="stop5669" /></linearGradient><path
       id="path4822"
       inkscape:connector-curvature="0"
       d="M8.483,7.036c0.009,0.001,0.019,0,0.031,0.001   C8.505,7.036,8.496,7.038,8.483,7.036L8.483,7.036z"
       fill="url(#path4822_1_)" /><path
       id="path4824"
       inkscape:connector-curvature="0"
       d="M8.486,7.037L8.486,7.037L8.486,7.037L8.486,7.037   L8.486,7.037L8.486,7.037z"
       fill="#BE202E" /><path
       id="path4826"
       inkscape:connector-curvature="0"
       enable-background="new    "
       d="M8.486,7.037   L8.486,7.037L8.486,7.037L8.486,7.037L8.486,7.037L8.486,7.037z"
       fill="#BE202E"
       opacity="0.35" /><linearGradient
       id="path4837_1_"
       gradientUnits="userSpaceOnUse"
       x1="-13273.8018"
       y1="18141.748"
       x2="-13273.8018"
       y2="18141.748"
       gradientTransform="matrix(0.059 -0.0896 0.0896 0.059 -833.8603 -2252.6587)"><stop
         offset="0.3233"
         style="stop-color:#9E2064"
         id="stop5675" /><stop
         offset="0.6302"
         style="stop-color:#C92037"
         id="stop5677" /><stop
         offset="0.7514"
         style="stop-color:#CD2335"
         id="stop5679" /><stop
         offset="1"
         style="stop-color:#E97826"
         id="stop5681" /></linearGradient><path
       id="path4837"
       inkscape:connector-curvature="0"
       d="M8.486,7.037L8.486,7.037L8.486,7.037   L8.486,7.037L8.486,7.037L8.486,7.037z"
       fill="url(#path4837_1_)" /></g></svg>