<?xml version="1.0" encoding="utf-8"?>
<!-- Generator: Adobe Illustrator 21.1.0, SVG Export Plug-In . SVG Version: 6.00 Build 0)  -->
<svg version="1.1"
	 id="svg3055" inkscape:version="0.91 r13725" sodipodi:docname="maven-32.svg" xmlns:cc="http://creativecommons.org/ns#" xmlns:dc="http://purl.org/dc/elements/1.1/" xmlns:inkscape="http://www.inkscape.org/namespaces/inkscape" xmlns:rdf="http://www.w3.org/1999/02/22-rdf-syntax-ns#" xmlns:sodipodi="http://sodipodi.sourceforge.net/DTD/sodipodi-0.dtd" xmlns:svg="http://www.w3.org/2000/svg"
	 xmlns="http://www.w3.org/2000/svg" xmlns:xlink="http://www.w3.org/1999/xlink" x="0px" y="0px" viewBox="0 0 41.5 11.641"
	 enable-background="new 0 0 41.5 11.641" xml:space="preserve">
<sodipodi:namedview  bordercolor="#666666" borderopacity="1" gridtolerance="10" guidetolerance="10" id="namedview3740" inkscape:current-layer="g8927" inkscape:cx="227.74288" inkscape:cy="39.920897" inkscape:pageopacity="0" inkscape:pageshadow="2" inkscape:window-height="1060" inkscape:window-maximized="1" inkscape:window-width="1920" inkscape:window-x="1918" inkscape:window-y="-3" inkscape:zoom="2.0588236" objecttolerance="10" pagecolor="#ffffff" showgrid="false">
	</sodipodi:namedview>
<g id="g4845" transform="translate(385.61463,-191.53704)">
</g>
<g id="g4847" transform="translate(385.61463,-191.53704)">
</g>
<g id="g4849" transform="translate(385.61463,-191.53704)">
</g>
<g id="g4851" transform="translate(385.61463,-191.53704)">
</g>
<g id="g4853" transform="translate(385.61463,-191.53704)">
</g>
<g id="g4855" transform="translate(385.61463,-191.53704)">
</g>
<path fill="#D9E0EC" d="M40.776,2.678c-0.471-0.448-1.115-0.676-1.917-0.676c-0.533,0-1.051,0.115-1.54,0.342
	c-0.036,0.017-0.072,0.034-0.108,0.052c-0.141-0.151-0.339-0.238-0.548-0.238h-2.108c-0.358,0-0.667,0.253-0.736,0.605l-0.232,1.179
	c-0.173-0.398-0.425-0.75-0.761-1.05c-0.656-0.59-1.534-0.891-2.607-0.891c-0.781,0-1.509,0.141-2.161,0.419
	c-0.534,0.229-0.994,0.569-1.408,0.97c-0.027-0.178-0.074-0.317-0.111-0.394c-0.159-0.345-0.523-0.737-1.046-0.737c0,0,0,0,0,0
	c-0.134,0-0.266,0.026-0.393,0.078c-0.087,0.036-0.353,0.144-0.932,0.666c-0.001,0.001-0.002,0.003-0.003,0.004
	c-0.003,0.003-0.007,0.003-0.009,0.006l-0.061,0.055c-0.089,0.082-0.182,0.17-0.278,0.264c-0.105,0.103-0.213,0.213-0.325,0.329
	c-0.107,0.112-0.212,0.226-0.318,0.344c-0.093,0.105-0.182,0.207-0.272,0.312c-0.012,0.015-0.024,0.03-0.036,0.045
	c-0.111,0.133-0.199,0.238-0.284,0.346c-0.095,0.119-0.191,0.243-0.286,0.37c-0.048,0.065-0.096,0.131-0.143,0.196
	c-0.015-0.067-0.039-0.13-0.07-0.188c0-0.002,0-0.003-0.001-0.005C22.08,5.072,22.069,5.01,22.067,5
	c-0.012-0.072-0.031-0.16-0.052-0.237l-0.031-0.11c-0.005-0.015-0.018-0.058-0.024-0.073c-0.002-0.004-0.028-0.079-0.029-0.083
	c-0.023-0.059-0.046-0.109-0.065-0.144c-0.004-0.007-0.007-0.014-0.011-0.021c-0.01-0.144-0.029-0.3-0.054-0.451
	c-0.026-0.159-0.059-0.316-0.096-0.45c-0.026-0.095-0.055-0.183-0.084-0.258c-0.031-0.076-0.057-0.134-0.084-0.189
	c-0.001-0.002-0.001-0.005-0.002-0.008c-0.299-0.603-0.71-0.806-0.887-0.868c-0.078-0.029-0.26-0.085-0.472-0.085
	c-0.433,0-0.789,0.228-0.952,0.609c-0.024,0.056-0.082,0.203-0.128,0.521c-0.166-0.217-0.346-0.399-0.521-0.521
	C17.97,2.21,17.12,2.002,15.98,2.002c-0.521,0-1.033,0.031-1.522,0.093c-0.48,0.057-0.962,0.144-1.427,0.259
	c-0.207,0.051-0.377,0.187-0.476,0.368l0.349-1.768c0.018-0.065,0.028-0.133,0.028-0.204c0-0.414-0.333-0.75-0.747-0.75h-0.005
	H9.298C9.043,0,8.806,0.13,8.667,0.344L6.661,3.466L5.952,0.572C5.87,0.236,5.569,0,5.223,0H2.454C2.096,0,1.787,0.253,1.718,0.605
	l-1.704,8.64c-0.043,0.22,0.014,0.448,0.156,0.621S0.526,10.14,0.75,10.14h2.137c0.359,0,0.667-0.254,0.736-0.606l0.609-3.113
	l0.382,1.493C4.699,8.247,4.998,8.479,5.34,8.479h1.212c0.255,0,0.493-0.13,0.631-0.344l0.914-1.422L7.602,9.246
	c-0.043,0.22,0.015,0.448,0.157,0.621c0.142,0.173,0.355,0.273,0.579,0.273h2.137c0.358,0,0.667-0.253,0.736-0.605l0.098-0.495
	c0.126,0.223,0.276,0.431,0.475,0.606c0.512,0.441,1.175,0.662,1.977,0.662c0.559,0,1.087-0.116,1.568-0.344
	c0.023-0.011,0.047-0.023,0.07-0.035c0.139,0.135,0.326,0.211,0.522,0.211h2.096c0.358,0,0.666-0.253,0.736-0.604l0.542-2.737
	c0.013,0.062,0.025,0.128,0.04,0.187c0.036,0.151,0.075,0.295,0.115,0.429c0.028,0.091,0.053,0.175,0.08,0.254l0.061,0.17
	c0.036,0.097,0.07,0.184,0.104,0.266c-0.086,0.139-0.107,0.282-0.112,0.354c-0.018,0.286,0.128,0.552,0.367,0.694
	c0.015,0.13,0.064,0.251,0.137,0.352c0.008,0.117,0.044,0.231,0.103,0.331c-0.117,0.237-0.236,0.482-0.356,0.734
	c-0.118,0.248-0.091,0.541,0.071,0.763c0.142,0.195,0.368,0.309,0.606,0.309c0.033,0,0.065-0.002,0.098-0.006
	c0.229-0.03,0.433-0.141,0.583-0.311c0.115,0.148,0.283,0.25,0.473,0.281c0.04,0.007,0.08,0.01,0.12,0.01
	c0.228,0,0.446-0.104,0.59-0.287c0.185-0.235,0.242-0.537,0.156-0.83c-0.005-0.016-0.01-0.033-0.016-0.049
	c-0.018-0.05-0.083-0.231-0.176-0.506c0.053-0.049,0.099-0.106,0.135-0.169c0.468-0.091,0.764-0.334,0.94-0.544
	c0.043-0.053,0.077-0.098,0.109-0.146c0.024-0.035,0.044-0.072,0.062-0.109c0.046-0.045,0.091-0.093,0.135-0.144
	c0.055-0.065,0.11-0.134,0.165-0.211c0.063-0.087,0.105-0.184,0.126-0.284c0.106-0.103,0.207-0.216,0.307-0.342
	c0.11-0.138,0.219-0.298,0.333-0.487c0.09-0.15,0.18-0.314,0.269-0.492C24.925,7,24.931,6.988,24.937,6.975
	c0.069-0.069,0.132-0.149,0.194-0.231c-0.001,0.045-0.012,0.089-0.012,0.135c0,1.08,0.37,1.939,1.098,2.553
	c0.696,0.582,1.656,0.877,2.854,0.877c0.566,0,1.13-0.051,1.676-0.151c0.541-0.095,1.098-0.244,1.648-0.443
	c0.067-0.024,0.113-0.076,0.169-0.117c0.028,0.097,0.071,0.19,0.136,0.27c0.142,0.173,0.355,0.274,0.579,0.274h2.102
	c0.358,0,0.666-0.253,0.736-0.604l0.632-3.189c0.091-0.446,0.246-0.79,0.458-1.018c0.17-0.182,0.345-0.264,0.569-0.264
	c0.018,0,0.033,0.001,0.046,0.002c0,0.007,0.001,0.015,0.001,0.024c0,0.057-0.012,0.135-0.029,0.234
	c-0.024,0.155-0.057,0.326-0.1,0.53l-0.664,3.392c-0.043,0.22,0.015,0.448,0.157,0.621c0.142,0.173,0.355,0.273,0.579,0.273h2.102
	c0.358,0,0.667-0.253,0.736-0.605l0.779-3.947c0.04-0.201,0.068-0.388,0.086-0.56C41.489,4.862,41.5,4.693,41.5,4.541
	C41.5,3.763,41.256,3.136,40.776,2.678z M15.373,7.225c-0.005,0.005-0.011,0.01-0.017,0.015c-0.09,0.08-0.254,0.191-0.577,0.191
	c-0.064,0-0.108-0.007-0.137-0.013c0.001-0.02,0.001-0.041,0.001-0.041C14.735,7.322,14.927,7.236,15.373,7.225z M12.384,5.212
	c-0.035,0.022-0.07,0.045-0.104,0.068c-0.105,0.071-0.184,0.16-0.277,0.239l0.166-0.839C12.174,4.88,12.235,5.074,12.384,5.212z"/>
<g id="path3554_1_">
	<polygon points="2.454,0.75 5.223,0.75 6.347,5.339 9.298,0.75 12.179,0.75 10.475,9.39 8.338,9.39 9.585,3.013 6.552,7.729 
		5.34,7.729 4.134,3.013 2.887,9.39 0.75,9.39 	"/>
</g>
<g id="path3556_1_">
	<path d="M15.476,6.474c-0.523,0-0.919,0.081-1.189,0.243C14.022,6.875,13.89,7.11,13.89,7.423c0,0.235,0.078,0.421,0.234,0.556
		c0.16,0.135,0.379,0.203,0.656,0.203c0.429,0,0.788-0.127,1.077-0.382c0.289-0.258,0.482-0.621,0.58-1.088l0.047-0.237
		C16.483,6.474,15.476,6.474,15.476,6.474z M18.749,5.692L18.017,9.39h-2.096l0.176-0.961c-0.343,0.386-0.707,0.671-1.089,0.857
		c-0.383,0.181-0.798,0.272-1.247,0.272c-0.621,0-1.114-0.158-1.481-0.475c-0.363-0.32-0.545-0.75-0.545-1.291
		c0-0.826,0.322-1.456,0.966-1.892c0.648-0.44,1.581-0.66,2.799-0.66h1.235l0.023-0.162c0.012-0.054,0.018-0.093,0.018-0.116
		c0.004-0.023,0.006-0.044,0.006-0.064c0-0.255-0.123-0.446-0.369-0.573C16.171,4.195,15.81,4.13,15.33,4.13
		c-0.433,0-0.853,0.044-1.259,0.133c-0.406,0.089-0.798,0.222-1.177,0.399l0.316-1.58c0.437-0.108,0.884-0.189,1.341-0.243
		c0.461-0.058,0.937-0.087,1.429-0.087c0.972,0,1.694,0.166,2.166,0.498c0.472,0.328,0.708,0.83,0.708,1.505
		c0,0.131-0.01,0.276-0.029,0.434C18.81,5.343,18.784,5.511,18.749,5.692L18.749,5.692z"/>
</g>
<g id="path3560_1_">
	<path d="M32.976,6.393l-0.07,0.33H28c0,0.023-0.002,0.058-0.006,0.104c-0.004,0.042-0.006,0.075-0.006,0.098
		c0,0.421,0.127,0.735,0.381,0.943c0.258,0.208,0.642,0.313,1.153,0.313c0.441,0,0.906-0.066,1.394-0.197
		c0.492-0.131,1.007-0.326,1.546-0.585l-0.322,1.609c-0.511,0.185-1.021,0.322-1.528,0.411c-0.504,0.093-1.017,0.139-1.54,0.139
		c-1.023,0-1.813-0.233-2.371-0.7c-0.554-0.467-0.831-1.127-0.831-1.979c0-0.494,0.088-0.972,0.263-1.435
		c0.18-0.467,0.439-0.893,0.779-1.279c0.402-0.463,0.882-0.814,1.44-1.053c0.562-0.239,1.185-0.359,1.868-0.359
		c0.886,0,1.589,0.233,2.108,0.7c0.523,0.467,0.785,1.096,0.785,1.887c0,0.154-0.012,0.318-0.035,0.492
		C33.056,6.001,33.023,6.188,32.976,6.393L32.976,6.393z M30.997,5.443c0.012-0.05,0.02-0.1,0.023-0.15
		c0.008-0.054,0.012-0.106,0.012-0.156c0-0.309-0.094-0.554-0.281-0.735C30.564,4.22,30.31,4.13,29.99,4.13
		c-0.41,0-0.759,0.112-1.048,0.336c-0.285,0.22-0.504,0.546-0.656,0.978H30.997L30.997,5.443z"/>
</g>
<g id="path3562_1_">
	<path d="M40.645,5.443L39.866,9.39h-2.102l0.662-3.38c0.047-0.22,0.082-0.405,0.105-0.556c0.027-0.154,0.041-0.276,0.041-0.365
		c0-0.247-0.07-0.438-0.211-0.573c-0.137-0.135-0.332-0.203-0.586-0.203c-0.433,0-0.806,0.168-1.118,0.503
		c-0.308,0.332-0.523,0.793-0.644,1.383L35.381,9.39h-2.102l1.276-6.482h2.108L36.47,3.858c0.386-0.374,0.775-0.652,1.165-0.833
		c0.39-0.181,0.798-0.272,1.224-0.272c0.605,0,1.071,0.156,1.399,0.469c0.328,0.313,0.492,0.752,0.492,1.319
		c0,0.123-0.01,0.26-0.029,0.411C40.705,5.102,40.68,5.266,40.645,5.443L40.645,5.443z"/>
</g>
<g>
	<g>
		<linearGradient id="SVGID_1_" gradientUnits="userSpaceOnUse" x1="19.7957" y1="3.3364" x2="20.8622" y2="3.3364">
			<stop  offset="0.3233" style="stop-color:#9E2064"/>
			<stop  offset="0.6302" style="stop-color:#C92037"/>
			<stop  offset="0.7514" style="stop-color:#CD2335"/>
			<stop  offset="1" style="stop-color:#E97826"/>
		</linearGradient>
		<path fill="url(#SVGID_1_)" d="M20.231,3.486c0,0.109,0.002,0.237,0.011,0.402c0.173-0.14,0.423-0.376,0.62-0.579
			c-0.208-0.421-0.468-0.494-0.468-0.494s-0.371-0.148-0.482,0.113c-0.054,0.127-0.097,0.402-0.116,0.77l0.419,0.2
			C20.21,3.751,20.224,3.623,20.231,3.486z"/>
	</g>
	<g>
		<linearGradient id="SVGID_2_" gradientUnits="userSpaceOnUse" x1="19.7821" y1="7.2818" x2="21.8195" y2="7.2818">
			<stop  offset="0.3233" style="stop-color:#9E2064"/>
			<stop  offset="0.6302" style="stop-color:#C92037"/>
			<stop  offset="0.7514" style="stop-color:#CD2335"/>
			<stop  offset="1" style="stop-color:#E97826"/>
		</linearGradient>
		<path fill="url(#SVGID_2_)" d="M21.17,8.745c-0.003-0.008-0.005-0.016-0.007-0.024c-0.031-0.106-0.063-0.216-0.096-0.328
			c-0.007-0.026-0.015-0.05-0.022-0.077l-0.001-0.001l-0.002-0.001c-0.03-0.102-0.057-0.205-0.088-0.309
			c-0.008-0.029-0.015-0.059-0.024-0.089c-0.036-0.131-0.071-0.264-0.107-0.398c-0.034-0.129-0.067-0.258-0.099-0.39
			S20.662,6.863,20.63,6.73c-0.032-0.136-0.062-0.271-0.09-0.407c-0.029-0.134-0.056-0.27-0.083-0.404
			c-0.01-0.049-0.019-0.096-0.027-0.146c-0.016-0.083-0.03-0.166-0.045-0.25c-0.001-0.004-0.002-0.009-0.003-0.013l-0.373-0.188
			l0.374,0.187c-0.019-0.131-0.04-0.26-0.06-0.389c-0.019-0.138-0.037-0.273-0.053-0.406c-0.016-0.138-0.029-0.274-0.038-0.408
			c-0.001-0.008-0.002-0.016-0.001-0.023c-0.009-0.131-0.016-0.259-0.019-0.384l-0.418-0.199c-0.001,0.025-0.003,0.051-0.004,0.078
			c-0.004,0.099-0.007,0.204-0.008,0.315c-0.001,0.125,0,0.254,0.002,0.391c0.003,0.125,0.008,0.256,0.015,0.388
			c0.007,0.114,0.014,0.228,0.024,0.345c0,0.005,0.001,0.008,0.001,0.013l0.002,0.001c0.001,0.008,0.002,0.017,0.002,0.026
			c0.011,0.124,0.022,0.251,0.037,0.378c0.015,0.129,0.031,0.258,0.051,0.389c0.016,0.11,0.034,0.219,0.053,0.33
			c0.004,0.022,0.008,0.045,0.012,0.066c0.026,0.137,0.053,0.268,0.083,0.392c0.033,0.14,0.069,0.271,0.105,0.393
			c0.024,0.08,0.048,0.157,0.072,0.23c0.021,0.061,0.044,0.123,0.066,0.184c0.053,0.143,0.112,0.281,0.175,0.417l0.002,0.001
			c0.002,0.006,0.004,0.012,0.007,0.017c0.077,0.164,0.163,0.321,0.258,0.472c0.003,0.005,0.006,0.011,0.01,0.016
			c-0.155-0.062-0.43-0.033-0.428-0.033c0.284,0.097,0.533,0.217,0.69,0.397c-0.062,0.068-0.179,0.12-0.326,0.162
			c0.203,0.022,0.316-0.013,0.358-0.031c-0.106,0.087-0.166,0.247-0.218,0.419c0.12-0.193,0.238-0.321,0.353-0.37
			c0.169,0.552,0.372,1.151,0.597,1.78c0.038-0.049,0.042-0.102,0.026-0.157c-0.042-0.113-0.309-0.86-0.614-1.875
			C21.188,8.804,21.18,8.775,21.17,8.745z"/>
	</g>
	<g>
		<linearGradient id="SVGID_3_" gradientUnits="userSpaceOnUse" x1="20.2423" y1="6.2134" x2="21.906" y2="6.2134">
			<stop  offset="0.3233" style="stop-color:#9E2064"/>
			<stop  offset="0.6302" style="stop-color:#C92037"/>
			<stop  offset="0.7514" style="stop-color:#CD2335"/>
			<stop  offset="1" style="stop-color:#E97826"/>
		</linearGradient>
		<path fill="url(#SVGID_3_)" d="M20.275,4.301c0.012,0.126,0.028,0.261,0.047,0.408c0.017,0.127,0.036,0.262,0.059,0.407
			c0.019,0.124,0.042,0.255,0.066,0.393l-0.003,0.003c0.001,0.001,0,0.001,0.001,0.002L20.427,5.53l-0.042-0.02
			c0.001,0.004,0.002,0.009,0.003,0.014c0.014,0.083,0.028,0.166,0.045,0.25c0.009,0.048,0.019,0.096,0.027,0.146
			c0.026,0.135,0.053,0.268,0.083,0.404c0.029,0.136,0.059,0.273,0.09,0.407c0.03,0.133,0.063,0.265,0.095,0.397
			c0.032,0.132,0.065,0.261,0.099,0.39c0.035,0.135,0.07,0.268,0.107,0.398c0.008,0.029,0.016,0.06,0.025,0.088
			c0.029,0.106,0.058,0.209,0.088,0.311l0.067,0.033l0.018-0.016c0.006,0.019,0.011,0.037,0.016,0.056
			c0.031,0.103,0.062,0.21,0.096,0.317c0.001,0.001,0.001,0.003,0.001,0.004c0.005,0.016,0.008,0.03,0.014,0.045
			c0.022,0.073,0.044,0.137,0.09,0.285c0.09-0.018,0.203,0.022,0.321,0.076c-0.076-0.09-0.18-0.15-0.305-0.164
			c0.342-0.226,0.567-0.516,0.536-0.863c-0.003-0.031-0.008-0.062-0.014-0.095c-0.005,0.133-0.061,0.229-0.225,0.334
			c0.155-0.269,0.197-0.452,0.179-0.688c-0.005-0.056-0.012-0.115-0.022-0.179c-0.049,0.352-0.24,0.579-0.52,0.714
			c-0.004,0.001-0.008,0.004-0.013,0.006c0.201-0.188,0.373-0.564,0.413-0.903c0.018-0.156,0.016-0.322-0.005-0.504
			c-0.016-0.135-0.043-0.277-0.082-0.431C21.581,6.21,21.54,6.069,21.49,5.92c-0.031,0.063-0.075,0.124-0.129,0.185
			c-0.01,0.011-0.02,0.021-0.029,0.032c-0.01,0.011-0.02,0.02-0.031,0.031c0.148-0.228,0.166-0.473,0.122-0.727
			c-0.027,0.075-0.08,0.187-0.168,0.287c-0.011,0.013-0.024,0.026-0.038,0.04c-0.003,0.003-0.006,0.006-0.011,0.009
			c0.049-0.081,0.086-0.158,0.109-0.236c0.006-0.016,0.009-0.033,0.013-0.049c0.006-0.025,0.01-0.051,0.014-0.076
			c0.002-0.017,0.004-0.033,0.006-0.049c0.003-0.039,0.003-0.079-0.001-0.12c-0.001-0.013-0.001-0.025-0.003-0.038
			c-0.003-0.019-0.006-0.036-0.009-0.053c-0.013-0.077-0.028-0.145-0.044-0.204c-0.008-0.029-0.015-0.056-0.022-0.08
			c-0.004-0.01-0.005-0.019-0.009-0.028c-0.009-0.027-0.017-0.051-0.025-0.071c-0.012-0.03-0.022-0.054-0.031-0.07
			c-0.003,0.011-0.006,0.022-0.012,0.033c-0.035,0.081-0.116,0.193-0.191,0.271c-0.001,0.001-0.002,0.002-0.003,0.004
			c-0.005,0.004-0.01,0.01-0.015,0.015c0.109-0.197,0.134-0.321,0.133-0.474c-0.001-0.041-0.003-0.085-0.006-0.13
			c-0.009-0.135-0.025-0.278-0.048-0.417c-0.022-0.134-0.049-0.263-0.079-0.373c-0.019-0.071-0.04-0.135-0.061-0.189
			c-0.019-0.047-0.039-0.09-0.059-0.132c-0.197,0.2-0.446,0.437-0.62,0.577c0.006,0.116,0.017,0.246,0.03,0.39
			C20.273,4.287,20.273,4.294,20.275,4.301z"/>
	</g>
</g>
<g>
	<g>
		<linearGradient id="SVGID_4_" gradientUnits="userSpaceOnUse" x1="24.6695" y1="3.5493" x2="25.9218" y2="3.5493">
			<stop  offset="0.3233" style="stop-color:#9E2064"/>
			<stop  offset="0.6302" style="stop-color:#C92037"/>
			<stop  offset="0.7514" style="stop-color:#CD2335"/>
			<stop  offset="1" style="stop-color:#E97826"/>
		</linearGradient>
		<path fill="url(#SVGID_4_)" d="M25.84,4.086c0.17-0.502,0.021-0.765,0.021-0.765s-0.18-0.41-0.479-0.288
			c-0.145,0.059-0.401,0.247-0.712,0.528l0.176,0.49c0.115-0.122,0.229-0.214,0.344-0.318c-0.088,0.087-0.189,0.192-0.314,0.332
			C25.128,4.088,25.519,4.094,25.84,4.086z"/>
	</g>
	<g>
		<linearGradient id="SVGID_5_" gradientUnits="userSpaceOnUse" x1="20.5102" y1="7.2257" x2="24.8442" y2="7.2257">
			<stop  offset="0.3233" style="stop-color:#9E2064"/>
			<stop  offset="0.6302" style="stop-color:#C92037"/>
			<stop  offset="0.7514" style="stop-color:#CD2335"/>
			<stop  offset="1" style="stop-color:#E97826"/>
		</linearGradient>
		<path fill="url(#SVGID_5_)" d="M21.719,8.703c0.005-0.009,0.009-0.016,0.014-0.025c0.06-0.11,0.123-0.223,0.187-0.339
			c0.015-0.027,0.029-0.052,0.044-0.079l0-0.002l-0.001-0.002c0.058-0.105,0.118-0.21,0.178-0.318
			c0.017-0.03,0.035-0.059,0.052-0.09c0.077-0.133,0.155-0.268,0.234-0.405c0.076-0.13,0.154-0.26,0.234-0.392
			s0.161-0.263,0.242-0.394c0.083-0.134,0.168-0.266,0.254-0.399c0.084-0.131,0.172-0.261,0.258-0.39
			c0.031-0.047,0.062-0.092,0.095-0.139c0.054-0.079,0.11-0.158,0.165-0.236c0.002-0.004,0.006-0.009,0.008-0.013L23.54,5.044
			l0.148,0.436c0.089-0.12,0.177-0.241,0.265-0.36c0.095-0.126,0.19-0.249,0.284-0.369c0.098-0.124,0.197-0.243,0.297-0.359
			c0.006-0.007,0.012-0.014,0.018-0.02c0.098-0.113,0.195-0.221,0.294-0.324L24.668,3.56c-0.021,0.019-0.043,0.039-0.066,0.06
			c-0.083,0.076-0.17,0.159-0.259,0.247c-0.101,0.099-0.204,0.205-0.312,0.316c-0.098,0.103-0.199,0.212-0.3,0.324
			c-0.086,0.097-0.172,0.195-0.259,0.297c-0.004,0.004-0.006,0.007-0.01,0.011l0.001,0.003c-0.006,0.007-0.012,0.015-0.019,0.022
			C23.353,4.949,23.26,5.06,23.17,5.173c-0.092,0.115-0.182,0.232-0.272,0.353c-0.075,0.102-0.149,0.203-0.223,0.307
			c-0.014,0.02-0.029,0.042-0.043,0.063c-0.089,0.13-0.173,0.258-0.248,0.38c-0.086,0.139-0.162,0.272-0.232,0.399
			c-0.045,0.083-0.088,0.164-0.127,0.242c-0.033,0.066-0.064,0.134-0.095,0.2c-0.072,0.157-0.136,0.315-0.194,0.473l0.001,0.002
			c-0.004,0.007-0.006,0.012-0.009,0.019c-0.069,0.192-0.127,0.387-0.171,0.583c-0.001,0.006-0.004,0.014-0.005,0.02
			c-0.075-0.172-0.32-0.365-0.318-0.363c0.15,0.301,0.255,0.593,0.236,0.862c-0.105,0.006-0.241-0.045-0.393-0.126
			c0.146,0.177,0.266,0.238,0.313,0.256c-0.156-0.013-0.332,0.069-0.512,0.167c0.251-0.062,0.45-0.071,0.582-0.02
			c-0.308,0.577-0.626,1.219-0.95,1.901c0.07-0.009,0.116-0.049,0.147-0.106c0.057-0.123,0.443-0.935,1.013-1.992
			C21.686,8.764,21.703,8.734,21.719,8.703z"/>
	</g>
	<g>
		<linearGradient id="SVGID_6_" gradientUnits="userSpaceOnUse" x1="21.6291" y1="6.7296" x2="25.8384" y2="6.7296">
			<stop  offset="0.3233" style="stop-color:#9E2064"/>
			<stop  offset="0.6302" style="stop-color:#C92037"/>
			<stop  offset="0.7514" style="stop-color:#CD2335"/>
			<stop  offset="1" style="stop-color:#E97826"/>
		</linearGradient>
		<path fill="url(#SVGID_6_)" d="M24.571,4.422c-0.091,0.111-0.187,0.232-0.29,0.366c-0.089,0.116-0.182,0.239-0.28,0.374
			C23.916,5.277,23.83,5.4,23.739,5.53l-0.005,0c0,0.001,0,0.001-0.001,0.002l-0.027-0.001l-0.017-0.049
			c-0.002,0.004-0.006,0.009-0.008,0.013c-0.055,0.077-0.111,0.156-0.165,0.236c-0.031,0.045-0.062,0.092-0.095,0.139
			c-0.087,0.129-0.173,0.258-0.258,0.39c-0.086,0.132-0.171,0.266-0.254,0.399c-0.083,0.131-0.163,0.263-0.242,0.394
			c-0.08,0.131-0.157,0.262-0.234,0.392c-0.08,0.136-0.159,0.271-0.234,0.405c-0.017,0.03-0.035,0.061-0.051,0.091
			c-0.062,0.108-0.121,0.214-0.179,0.32l0.027,0.079l0.028,0.001c-0.01,0.019-0.021,0.038-0.031,0.057
			c-0.058,0.107-0.118,0.217-0.178,0.331c0,0.002-0.002,0.003-0.002,0.005c-0.009,0.016-0.018,0.031-0.025,0.048
			c-0.041,0.076-0.075,0.145-0.157,0.3c0.088,0.056,0.146,0.177,0.197,0.313c0.011-0.132-0.024-0.262-0.114-0.372
			c0.457,0.087,0.872,0.03,1.125-0.274c0.022-0.027,0.044-0.056,0.065-0.087c-0.111,0.103-0.233,0.137-0.449,0.092
			c0.341-0.095,0.522-0.209,0.697-0.413c0.041-0.049,0.083-0.102,0.126-0.162c-0.322,0.244-0.659,0.277-0.992,0.166
			c-0.005-0.002-0.009-0.003-0.015-0.005c0.313,0.007,0.754-0.161,1.058-0.403c0.14-0.111,0.272-0.247,0.401-0.41
			c0.096-0.121,0.188-0.257,0.28-0.411c0.08-0.133,0.16-0.279,0.239-0.438c-0.075,0.026-0.161,0.041-0.252,0.047
			c-0.016,0.001-0.033,0.002-0.049,0.003c-0.016,0.001-0.033,0-0.051,0.001c0.303-0.067,0.513-0.25,0.682-0.489
			c-0.082,0.039-0.215,0.088-0.366,0.1c-0.02,0.002-0.041,0.002-0.062,0.002c-0.005-0.001-0.01,0-0.016-0.001
			c0.105-0.027,0.196-0.06,0.277-0.104c0.018-0.009,0.034-0.019,0.05-0.03c0.025-0.016,0.049-0.033,0.073-0.051
			c0.015-0.012,0.029-0.023,0.044-0.035c0.034-0.029,0.066-0.061,0.096-0.097c0.01-0.011,0.019-0.021,0.028-0.033
			c0.012-0.017,0.024-0.033,0.035-0.05c0.052-0.073,0.094-0.139,0.129-0.198c0.017-0.03,0.033-0.056,0.046-0.082
			c0.005-0.011,0.011-0.019,0.016-0.03c0.014-0.029,0.027-0.054,0.037-0.077c0.015-0.033,0.025-0.061,0.031-0.081
			c-0.011,0.006-0.023,0.013-0.037,0.017c-0.093,0.038-0.248,0.064-0.371,0.068c-0.002,0-0.003,0-0.005,0.001
			c-0.007,0-0.016,0-0.024,0.001c0.246-0.073,0.366-0.153,0.487-0.277c0.033-0.034,0.066-0.071,0.099-0.109
			c0.102-0.115,0.204-0.244,0.296-0.373c0.09-0.125,0.172-0.25,0.236-0.363c0.042-0.073,0.076-0.14,0.103-0.2
			c0.022-0.053,0.041-0.103,0.058-0.152c-0.32,0.007-0.711,0.001-0.962-0.022c-0.088,0.098-0.184,0.211-0.289,0.337
			C24.581,4.409,24.575,4.415,24.571,4.422z"/>
	</g>
</g>
<g id="g4855_1_" transform="translate(385.61463,-191.53704)">
</g>
<g>
	<g>
		<path fill="#D9E0EC" d="M8.338-65.735c-0.112,0-0.218-0.05-0.29-0.137c-0.071-0.086-0.1-0.2-0.079-0.311l0.871-4.455l-1.973,3.069
			c-0.069,0.107-0.188,0.172-0.315,0.172H5.34c-0.171,0-0.321-0.116-0.363-0.282l-0.794-3.105l-0.928,4.746
			c-0.035,0.176-0.189,0.303-0.368,0.303H0.75c-0.112,0-0.218-0.05-0.29-0.137s-0.1-0.201-0.079-0.311l1.704-8.641
			c0.034-0.176,0.188-0.303,0.368-0.303h2.77c0.173,0,0.323,0.118,0.364,0.286l0.917,3.742l2.479-3.856
			c0.069-0.107,0.188-0.172,0.315-0.172h2.88c0.112,0,0.218,0.05,0.29,0.137s0.1,0.201,0.079,0.311l-1.704,8.641
			c-0.034,0.176-0.188,0.303-0.368,0.303H8.338z"/>
		<path fill="#D9E0EC" d="M12.179-74.75h0.005 M12.179-74.75l-1.704,8.64H8.338l1.247-6.378l-3.033,4.717H5.34l-1.206-4.717
			L2.887-66.11H0.75l1.704-8.64h2.769l1.124,4.589l2.951-4.589H12.179 M12.184-75.5h-0.005H9.298c-0.255,0-0.493,0.13-0.631,0.344
			l-2.007,3.121l-0.709-2.894C5.87-75.264,5.569-75.5,5.223-75.5H2.454c-0.358,0-0.667,0.253-0.736,0.605l-1.704,8.64
			c-0.043,0.22,0.014,0.448,0.156,0.621C0.313-65.46,0.526-65.36,0.75-65.36h2.137c0.359,0,0.667-0.254,0.736-0.606l0.609-3.113
			l0.382,1.493c0.085,0.332,0.384,0.564,0.727,0.564h1.212c0.255,0,0.493-0.13,0.631-0.344l0.914-1.422l-0.495,2.533
			c-0.043,0.22,0.015,0.448,0.157,0.621c0.142,0.173,0.355,0.273,0.579,0.273h2.137c0.358,0,0.667-0.253,0.736-0.605l1.692-8.581
			c0.018-0.065,0.028-0.133,0.028-0.204C12.932-75.164,12.598-75.5,12.184-75.5L12.184-75.5z M12.179-74h0.005H12.179L12.179-74z"/>
	</g>
	<g>
		<path fill="#D9E0EC" d="M13.761-65.567c-0.71,0-1.291-0.19-1.726-0.565c-0.449-0.396-0.675-0.925-0.675-1.575
			c0-0.954,0.38-1.695,1.131-2.202c0.707-0.48,1.72-0.725,3.009-0.725h0.905c-0.007-0.08-0.043-0.144-0.164-0.206
			c-0.134-0.073-0.394-0.155-0.911-0.155c-0.401,0-0.798,0.042-1.18,0.124c-0.374,0.082-0.743,0.208-1.097,0.373
			c-0.051,0.023-0.105,0.035-0.159,0.035c-0.083,0-0.165-0.027-0.231-0.08c-0.111-0.087-0.164-0.229-0.136-0.368l0.316-1.579
			c0.028-0.143,0.137-0.256,0.277-0.291c0.451-0.111,0.917-0.196,1.387-0.251c0.465-0.06,0.962-0.09,1.472-0.09
			c1.061,0,1.839,0.185,2.382,0.565c0.576,0.399,0.868,1.01,0.868,1.812c0,0.145-0.011,0.306-0.032,0.48
			c-0.016,0.156-0.042,0.336-0.08,0.528l-0.732,3.7c-0.035,0.175-0.188,0.302-0.368,0.302h-2.096c-0.111,0-0.217-0.05-0.288-0.135
			c-0.052-0.063-0.083-0.141-0.086-0.221c-0.123,0.081-0.249,0.152-0.375,0.214C14.737-65.67,14.263-65.567,13.761-65.567z
			 M15.476-68.652c-0.562,0-0.852,0.103-0.995,0.189c-0.154,0.092-0.216,0.203-0.216,0.385c0,0.161,0.056,0.23,0.104,0.272
			c0.086,0.072,0.226,0.11,0.411,0.11c0.338,0,0.61-0.095,0.83-0.288c0.181-0.161,0.317-0.387,0.405-0.669H15.476z"/>
		<path fill="#D9E0EC" d="M15.98-72.748c0.972,0,1.694,0.166,2.166,0.498c0.472,0.328,0.708,0.83,0.708,1.505
			c0,0.131-0.01,0.276-0.029,0.434c-0.016,0.154-0.041,0.322-0.076,0.504l-0.732,3.698h-2.096l0.176-0.961
			c-0.344,0.386-0.707,0.671-1.089,0.857c-0.383,0.181-0.798,0.272-1.247,0.272c-0.621,0-1.114-0.158-1.481-0.475
			c-0.363-0.32-0.544-0.75-0.544-1.291c0-0.826,0.322-1.456,0.966-1.892c0.648-0.44,1.581-0.66,2.799-0.66h1.235l0.023-0.162
			c0.012-0.054,0.018-0.093,0.018-0.116c0.004-0.023,0.006-0.044,0.006-0.064c0-0.255-0.123-0.446-0.369-0.573
			c-0.242-0.131-0.603-0.197-1.083-0.197c-0.433,0-0.853,0.044-1.259,0.133c-0.406,0.089-0.798,0.222-1.177,0.399l0.316-1.58
			c0.437-0.108,0.884-0.189,1.341-0.243C15.012-72.719,15.488-72.748,15.98-72.748 M14.78-67.319c0.429,0,0.788-0.127,1.077-0.382
			c0.289-0.259,0.482-0.621,0.58-1.088l0.047-0.237h-1.007c-0.523,0-0.919,0.081-1.189,0.243c-0.265,0.158-0.398,0.394-0.398,0.706
			c0,0.235,0.078,0.421,0.234,0.556C14.284-67.387,14.502-67.319,14.78-67.319 M15.98-73.498c-0.521,0-1.033,0.031-1.522,0.093
			c-0.48,0.057-0.962,0.144-1.427,0.259c-0.282,0.07-0.498,0.296-0.555,0.581l-0.316,1.58c-0.051,0.257,0.035,0.521,0.225,0.697
			c-0.035,0.022-0.07,0.045-0.104,0.068c-0.847,0.573-1.295,1.442-1.295,2.513c0,0.752,0.276,1.392,0.798,1.853
			c0.512,0.441,1.175,0.662,1.977,0.662c0.559,0,1.087-0.116,1.568-0.344c0.023-0.011,0.047-0.023,0.07-0.035
			c0.139,0.135,0.326,0.211,0.522,0.211h2.096c0.358,0,0.666-0.253,0.736-0.604l0.732-3.698c0.04-0.209,0.069-0.399,0.087-0.574
			c0.022-0.175,0.033-0.351,0.033-0.51c0-1.161-0.56-1.794-1.031-2.121C17.97-73.29,17.12-73.498,15.98-73.498L15.98-73.498z
			 M14.643-68.083c0.001-0.02,0.001-0.041,0.001-0.041c0.091-0.054,0.283-0.14,0.729-0.152c-0.005,0.005-0.011,0.01-0.017,0.015
			c-0.09,0.08-0.254,0.191-0.577,0.191C14.716-68.069,14.671-68.076,14.643-68.083L14.643-68.083z"/>
	</g>
	<g>
		<path fill="#D9E0EC" d="M29.071-65.567c-1.108,0-1.987-0.265-2.612-0.787c-0.642-0.541-0.966-1.304-0.966-2.268
			c0-0.536,0.097-1.064,0.288-1.568c0.195-0.507,0.479-0.975,0.848-1.393c0.437-0.503,0.967-0.891,1.574-1.151
			c0.606-0.258,1.284-0.389,2.016-0.389c0.978,0,1.771,0.268,2.358,0.797c0.603,0.537,0.909,1.267,0.909,2.165
			c0,0.17-0.013,0.351-0.038,0.542c-0.021,0.175-0.056,0.376-0.106,0.595L33.274-68.7c-0.037,0.173-0.19,0.297-0.367,0.297h-0.223
			c0.002,0.002,0.005,0.004,0.007,0.006c0.112,0.087,0.166,0.23,0.139,0.369l-0.322,1.609c-0.026,0.129-0.117,0.234-0.24,0.279
			c-0.526,0.191-1.062,0.335-1.592,0.428C30.157-65.616,29.616-65.567,29.071-65.567z M28.378-68.403
			c0.027,0.229,0.103,0.378,0.228,0.48c0.187,0.15,0.495,0.228,0.916,0.228c0.407,0,0.843-0.062,1.296-0.184
			c0.444-0.118,0.917-0.294,1.405-0.524H28.378z M30.655-70.432c-0.015-0.226-0.1-0.333-0.164-0.396
			c-0.117-0.113-0.28-0.168-0.501-0.168c-0.327,0-0.595,0.084-0.818,0.258c-0.105,0.081-0.2,0.184-0.285,0.306H30.655z"/>
		<path fill="#D9E0EC" d="M30.219-72.748c0.886,0,1.589,0.233,2.108,0.7c0.523,0.467,0.785,1.096,0.785,1.887
			c0,0.154-0.012,0.318-0.035,0.492c-0.02,0.17-0.053,0.357-0.1,0.561l-0.07,0.33H28c0,0.023-0.002,0.058-0.006,0.104
			c-0.004,0.042-0.006,0.075-0.006,0.098c0,0.421,0.127,0.735,0.381,0.943c0.258,0.208,0.642,0.313,1.153,0.313
			c0.441,0,0.906-0.066,1.393-0.197c0.492-0.131,1.007-0.326,1.546-0.585l-0.322,1.609c-0.511,0.185-1.021,0.322-1.528,0.411
			c-0.504,0.093-1.017,0.139-1.54,0.139c-1.023,0-1.813-0.233-2.371-0.7c-0.554-0.467-0.831-1.127-0.831-1.979
			c0-0.494,0.088-0.972,0.263-1.435c0.18-0.467,0.439-0.893,0.779-1.279c0.402-0.463,0.882-0.814,1.44-1.053
			C28.913-72.628,29.536-72.748,30.219-72.748 M28.287-70.057h2.711c0.012-0.05,0.02-0.1,0.023-0.15
			c0.008-0.054,0.012-0.106,0.012-0.156c0-0.309-0.094-0.554-0.281-0.735S30.31-71.37,29.99-71.37c-0.41,0-0.759,0.112-1.048,0.336
			C28.657-70.815,28.439-70.489,28.287-70.057 M30.219-73.498c-0.782,0-1.509,0.141-2.161,0.419
			c-0.662,0.284-1.238,0.705-1.713,1.252c-0.394,0.447-0.702,0.954-0.912,1.501c-0.208,0.549-0.313,1.122-0.313,1.705
			c0,1.08,0.37,1.939,1.098,2.553c0.696,0.582,1.656,0.877,2.854,0.877c0.566,0,1.13-0.051,1.676-0.151
			c0.541-0.095,1.098-0.244,1.648-0.443c0.247-0.089,0.429-0.301,0.48-0.558l0.322-1.609c0.009-0.046,0.014-0.093,0.015-0.139
			c0.214-0.095,0.377-0.288,0.429-0.529l0.07-0.33c0.05-0.219,0.088-0.435,0.111-0.632c0.026-0.191,0.04-0.391,0.04-0.578
			c0-1.01-0.348-1.833-1.035-2.446C32.169-73.197,31.291-73.498,30.219-73.498L30.219-73.498z"/>
	</g>
	<g>
		<path fill="#D9E0EC" d="M37.764-65.735c-0.112,0-0.219-0.05-0.289-0.137c-0.071-0.087-0.101-0.2-0.079-0.311l0.662-3.38
			c0.047-0.218,0.08-0.396,0.104-0.541c0.022-0.133,0.035-0.233,0.035-0.307c0-0.211-0.072-0.28-0.096-0.304
			c-0.066-0.065-0.175-0.097-0.325-0.097c-0.327,0-0.604,0.126-0.844,0.384c-0.26,0.279-0.445,0.684-0.552,1.203l-0.631,3.187
			c-0.035,0.175-0.189,0.302-0.368,0.302h-2.103c-0.112,0-0.219-0.05-0.29-0.137s-0.1-0.201-0.078-0.311l1.277-6.481
			c0.035-0.176,0.189-0.303,0.368-0.303h2.107c0.112,0,0.219,0.051,0.29,0.138c0.06,0.072,0.089,0.163,0.085,0.254
			c0.146-0.093,0.292-0.173,0.438-0.241c0.44-0.204,0.904-0.307,1.382-0.307c0.703,0,1.261,0.192,1.658,0.572
			c0.403,0.385,0.608,0.92,0.608,1.591c0,0.138-0.011,0.291-0.032,0.459c-0.016,0.151-0.043,0.327-0.08,0.517l-0.778,3.946
			c-0.035,0.176-0.189,0.303-0.368,0.303H37.764z"/>
		<path fill="#D9E0EC" d="M38.859-72.748c0.605,0,1.071,0.156,1.399,0.469s0.492,0.752,0.492,1.32c0,0.123-0.01,0.26-0.029,0.411
			c-0.016,0.15-0.041,0.314-0.076,0.492l-0.779,3.947h-2.102l0.662-3.38c0.047-0.22,0.082-0.405,0.105-0.556
			c0.027-0.154,0.041-0.276,0.041-0.365c0-0.247-0.07-0.438-0.211-0.573c-0.137-0.135-0.332-0.203-0.586-0.203
			c-0.433,0-0.806,0.168-1.118,0.503c-0.308,0.332-0.523,0.793-0.644,1.383l-0.632,3.189h-2.102l1.276-6.482h2.108l-0.193,0.949
			c0.386-0.374,0.775-0.652,1.165-0.833C38.025-72.657,38.433-72.748,38.859-72.748 M38.859-73.498c-0.533,0-1.051,0.115-1.54,0.342
			c-0.036,0.017-0.072,0.034-0.108,0.052c-0.141-0.151-0.339-0.238-0.548-0.238h-2.108c-0.358,0-0.667,0.254-0.736,0.605
			l-1.276,6.482c-0.043,0.22,0.014,0.448,0.157,0.621c0.142,0.173,0.355,0.274,0.579,0.274h2.102c0.358,0,0.666-0.253,0.736-0.604
			l0.632-3.189c0.091-0.446,0.246-0.79,0.458-1.018c0.17-0.183,0.345-0.264,0.569-0.264c0.018,0,0.033,0.001,0.046,0.002
			c0,0.007,0.001,0.015,0.001,0.024c0,0.057-0.012,0.135-0.03,0.234c-0.024,0.155-0.057,0.326-0.1,0.53l-0.664,3.392
			c-0.043,0.22,0.015,0.448,0.157,0.621c0.142,0.173,0.355,0.273,0.579,0.273h2.102c0.358,0,0.666-0.253,0.736-0.605l0.779-3.947
			c0.04-0.201,0.068-0.388,0.086-0.56c0.022-0.167,0.033-0.336,0.033-0.488c0-0.778-0.244-1.404-0.724-1.862
			C40.305-73.27,39.66-73.498,38.859-73.498L38.859-73.498z"/>
	</g>
	<g>
		<path fill="#D9E0EC" d="M20.214-71.226c-0.055,0-0.11-0.012-0.162-0.037l-0.419-0.2c-0.137-0.064-0.221-0.206-0.213-0.357
			c0.022-0.421,0.072-0.723,0.146-0.898c0.102-0.239,0.329-0.382,0.607-0.382c0.178,0,0.331,0.058,0.359,0.068
			c0.033,0.008,0.396,0.134,0.665,0.677c0.071,0.143,0.043,0.314-0.067,0.428c-0.208,0.213-0.47,0.461-0.652,0.608
			c-0.038,0.031-0.081,0.054-0.126,0.067C20.308-71.235,20.261-71.226,20.214-71.226z"/>
		<path fill="#D9E0EC" d="M20.175-72.726c0.115,0,0.22,0.042,0.22,0.042s0.259,0.073,0.468,0.494
			c-0.197,0.202-0.447,0.439-0.62,0.579c-0.01-0.165-0.012-0.293-0.011-0.402c-0.007,0.136-0.021,0.265-0.017,0.412l-0.419-0.2
			c0.019-0.368,0.062-0.643,0.116-0.77C19.964-72.693,20.074-72.726,20.175-72.726 M20.175-73.476c-0.433,0-0.789,0.228-0.952,0.609
			c-0.034,0.08-0.139,0.324-0.176,1.026c-0.016,0.303,0.152,0.585,0.425,0.716l0.419,0.2c0.103,0.049,0.213,0.073,0.324,0.073
			c0.089,0,0.178-0.016,0.262-0.047c0.085-0.028,0.165-0.071,0.236-0.129c0.218-0.176,0.497-0.445,0.686-0.639
			c0.222-0.228,0.276-0.571,0.135-0.856c-0.299-0.603-0.71-0.806-0.887-0.868C20.569-73.419,20.387-73.476,20.175-73.476
			L20.175-73.476z"/>
	</g>
	<g>
		<path fill="#D9E0EC" d="M25.553-71.035c-0.259,0-0.523-0.009-0.713-0.027c-0.047-0.004-0.093-0.018-0.133-0.038
			c-0.099-0.04-0.178-0.12-0.214-0.222l-0.177-0.49c-0.052-0.144-0.012-0.304,0.103-0.406c0.354-0.317,0.63-0.518,0.821-0.596
			c0.082-0.034,0.167-0.051,0.252-0.051c0.353,0,0.604,0.288,0.713,0.535c0.021,0.033,0.204,0.406-0.01,1.037
			c-0.051,0.148-0.189,0.25-0.347,0.254L25.553-71.035z"/>
		<path fill="#D9E0EC" d="M25.492-72.49c0.233,0,0.369,0.311,0.369,0.311s0.15,0.263-0.021,0.765
			c-0.092,0.002-0.189,0.003-0.288,0.003c-0.246,0-0.497-0.008-0.676-0.024c0.125-0.14,0.226-0.245,0.314-0.332
			c-0.115,0.104-0.229,0.197-0.344,0.318l-0.176-0.49c0.312-0.281,0.567-0.469,0.712-0.528C25.421-72.483,25.458-72.49,25.492-72.49
			 M25.492-73.24c-0.134,0-0.266,0.026-0.393,0.078c-0.087,0.036-0.353,0.144-0.932,0.666c-0.226,0.204-0.306,0.524-0.203,0.81
			l0.176,0.49c0.071,0.197,0.219,0.353,0.407,0.434c0.08,0.039,0.167,0.064,0.259,0.073c0.256,0.024,0.578,0.028,0.747,0.028
			c0.105,0,0.209-0.001,0.306-0.004c0.314-0.008,0.591-0.211,0.692-0.509c0.234-0.688,0.075-1.15-0.012-1.329
			C26.379-72.848,26.015-73.24,25.492-73.24L25.492-73.24C25.492-73.24,25.492-73.24,25.492-73.24L25.492-73.24z"/>
	</g>
	<g>
		<path fill="#D9E0EC" d="M20.51-64.234c-0.118,0-0.231-0.056-0.302-0.153c-0.082-0.11-0.096-0.258-0.037-0.383
			c0.157-0.331,0.313-0.649,0.466-0.957c-0.137-0.084-0.207-0.248-0.168-0.406c-0.083-0.062-0.14-0.159-0.149-0.269
			c-0.006-0.064,0.006-0.128,0.031-0.185c-0.05-0.02-0.099-0.037-0.143-0.053c-0.151-0.052-0.253-0.194-0.253-0.354
			c0-0.15,0.062-0.257,0.185-0.318c-0.071-0.152-0.13-0.294-0.185-0.439l-0.069-0.194l-0.073-0.233
			c-0.042-0.141-0.079-0.277-0.113-0.424c-0.031-0.128-0.06-0.266-0.087-0.409l-0.066-0.41c-0.021-0.134-0.038-0.269-0.053-0.402
			c0,0-0.043-0.421-0.043-0.446l-0.024-0.336c-0.007-0.14-0.013-0.274-0.016-0.402l-0.002-0.402
			c0.001-0.115,0.004-0.226,0.009-0.328c0.005-0.126,0.076-0.279,0.184-0.344c0.074-0.045,0.162-0.08,0.246-0.08
			c0.038,0,0.075,0.007,0.11,0.023l0.21,0.101c0.139-0.125,0.296-0.276,0.428-0.411c0.071-0.072,0.168-0.112,0.268-0.112
			c0.02,0,0.04,0.002,0.06,0.005c0.121,0.02,0.224,0.097,0.277,0.206c0.023,0.048,0.046,0.098,0.069,0.154
			c0.027,0.069,0.052,0.146,0.076,0.233c0.033,0.117,0.063,0.261,0.088,0.41c0.025,0.149,0.043,0.307,0.052,0.453l0.002,0.058
			c0.017,0.02,0.031,0.041,0.043,0.063c0.008,0.015,0.047,0.099,0.053,0.113c0.005,0.014,0.071,0.229,0.071,0.229
			c0.017,0.062,0.034,0.14,0.049,0.23c0.003,0.015,0.015,0.102,0.017,0.121c0.036,0.047,0.061,0.103,0.072,0.164
			c0.021,0.125,0.03,0.245,0.025,0.359c0.011,0.02,0.021,0.041,0.028,0.063c0.051,0.151,0.094,0.295,0.128,0.431
			c0.03-0.051,0.061-0.102,0.093-0.152c0.076-0.126,0.164-0.258,0.256-0.395l0.275-0.382c0.092-0.123,0.186-0.244,0.28-0.362
			c0.086-0.11,0.177-0.219,0.266-0.324l0.308-0.357c0.105-0.117,0.209-0.229,0.309-0.334l0.32-0.324
			c0.094-0.093,0.184-0.178,0.27-0.257c0.077-0.07,0.2-0.125,0.31-0.125c0.023,0,0.046,0.002,0.066,0.008
			c0.122,0.029,0.254,0.089,0.296,0.207l0.099,0.271c0.139,0.007,0.297,0.01,0.451,0.01c0,0,0.265-0.003,0.268-0.003
			c0.119,0,0.231,0.057,0.303,0.153c0.072,0.099,0.092,0.227,0.053,0.343c-0.02,0.057-0.042,0.116-0.068,0.178
			c-0.035,0.079-0.075,0.157-0.124,0.242c-0.066,0.119-0.156,0.257-0.255,0.394c-0.1,0.14-0.21,0.277-0.319,0.402l-0.057,0.062
			c-0.001,0.038-0.008,0.076-0.021,0.113c-0.003,0.009-0.038,0.099-0.042,0.107l-0.121,0.23c-0.038,0.064-0.086,0.139-0.144,0.222
			c-0.01,0.013-0.091,0.116-0.092,0.118c-0.006,0.063-0.028,0.126-0.067,0.181c-0.084,0.119-0.175,0.222-0.271,0.309
			c-0.006,0.027-0.016,0.055-0.028,0.08c-0.084,0.169-0.169,0.323-0.254,0.464c-0.102,0.169-0.202,0.317-0.308,0.45
			c-0.117,0.149-0.239,0.28-0.371,0.396c0.006,0.084-0.018,0.17-0.07,0.243c-0.048,0.067-0.096,0.128-0.143,0.184
			c-0.057,0.065-0.113,0.124-0.174,0.176c-0.01,0.038-0.025,0.074-0.048,0.109c-0.025,0.039-0.053,0.074-0.08,0.108
			c-0.229,0.276-0.549,0.429-0.937,0.455c-0.017,0.17-0.146,0.308-0.315,0.333c0.147,0.447,0.254,0.746,0.278,0.814
			c0.06,0.204,0.026,0.379-0.085,0.519c-0.071,0.091-0.18,0.142-0.293,0.142c-0.021,0-0.041-0.002-0.062-0.005
			c-0.134-0.022-0.246-0.115-0.292-0.244c-0.066-0.186-0.13-0.367-0.192-0.547c-0.133,0.27-0.217,0.448-0.242,0.501
			c-0.101,0.188-0.252,0.293-0.435,0.318C20.545-64.235,20.527-64.234,20.51-64.234z"/>
		<path fill="#D9E0EC" d="M20.862-72.188c0.02,0.041,0.04,0.084,0.059,0.132c0.021,0.054,0.042,0.118,0.061,0.189
			c0.031,0.11,0.057,0.239,0.079,0.373c0.023,0.138,0.04,0.282,0.048,0.417c0.003,0.045,0.006,0.088,0.006,0.13
			c0.002,0.153-0.023,0.277-0.133,0.474c0.005-0.005,0.01-0.011,0.015-0.015c0-0.002,0.001-0.003,0.003-0.004
			c0.074-0.078,0.156-0.19,0.191-0.271c0.006-0.011,0.01-0.023,0.012-0.033c0.009,0.016,0.019,0.04,0.031,0.07
			c0.008,0.02,0.016,0.045,0.025,0.071c0.004,0.01,0.005,0.019,0.009,0.028c0.007,0.024,0.015,0.05,0.022,0.08
			c0.015,0.059,0.03,0.126,0.044,0.204c0.004,0.017,0.006,0.034,0.009,0.053c0.002,0.012,0.002,0.024,0.003,0.038
			c0.004,0.041,0.004,0.081,0.001,0.12c-0.002,0.017-0.004,0.033-0.006,0.049c-0.004,0.026-0.008,0.051-0.014,0.076
			c-0.004,0.017-0.007,0.033-0.013,0.049c-0.023,0.078-0.06,0.155-0.109,0.236c0.005-0.003,0.007-0.007,0.011-0.009
			c0.013-0.013,0.026-0.026,0.038-0.04c0.088-0.1,0.141-0.212,0.168-0.287c0.044,0.254,0.026,0.499-0.122,0.727
			c0.011-0.011,0.022-0.021,0.031-0.032c0.01-0.011,0.02-0.021,0.029-0.032c0.054-0.06,0.098-0.122,0.129-0.185
			c0.05,0.148,0.091,0.289,0.125,0.422c0.038,0.154,0.066,0.296,0.082,0.431c0.022,0.181,0.023,0.347,0.005,0.504
			c-0.031,0.263-0.142,0.546-0.284,0.748c0.01,0.011,0.02,0.021,0.03,0.033c0.068-0.05,0.146-0.09,0.196-0.156
			c0.029-0.097,0.051-0.194,0.085-0.29c0.003-0.007,0.005-0.013,0.009-0.019l-0.001-0.002c0.058-0.159,0.122-0.317,0.194-0.473
			c0.031-0.066,0.062-0.134,0.095-0.2c0.039-0.078,0.082-0.158,0.127-0.242c0.069-0.127,0.146-0.26,0.232-0.399
			c0.075-0.122,0.159-0.25,0.248-0.38c0.014-0.02,0.029-0.042,0.043-0.063c0.074-0.103,0.148-0.205,0.223-0.307
			c0.089-0.12,0.18-0.237,0.272-0.353c0.09-0.114,0.183-0.224,0.274-0.333c0.007-0.007,0.013-0.015,0.019-0.022l-0.001-0.002
			c0.004-0.004,0.006-0.007,0.01-0.011c0.087-0.102,0.173-0.2,0.259-0.297c0.101-0.112,0.202-0.221,0.3-0.324
			c0.108-0.111,0.211-0.217,0.312-0.316c0.09-0.088,0.177-0.17,0.259-0.247c0.023-0.021,0.045-0.04,0.066-0.06l0.176,0.488
			c-0.098,0.103-0.196,0.211-0.294,0.324c-0.006,0.006-0.012,0.013-0.018,0.02c-0.1,0.116-0.199,0.235-0.297,0.359
			c-0.094,0.12-0.189,0.243-0.284,0.369c-0.088,0.119-0.175,0.24-0.265,0.36l-0.148-0.436l0.146,0.435
			c-0.002,0.005-0.006,0.009-0.008,0.013c-0.056,0.079-0.111,0.157-0.165,0.236c-0.033,0.047-0.064,0.092-0.095,0.139
			c-0.086,0.129-0.173,0.259-0.258,0.39c-0.086,0.132-0.171,0.264-0.254,0.399c-0.081,0.131-0.163,0.262-0.242,0.394
			s-0.158,0.262-0.234,0.392c-0.079,0.136-0.157,0.271-0.234,0.405c-0.018,0.031-0.035,0.061-0.052,0.09
			c-0.06,0.108-0.121,0.213-0.178,0.318l0.001,0.002l0,0.002c-0.015,0.027-0.029,0.052-0.044,0.079
			c-0.064,0.116-0.127,0.229-0.187,0.339c-0.005,0.009-0.009,0.016-0.014,0.025c-0.016,0.031-0.033,0.061-0.049,0.091
			c-0.041,0.076-0.079,0.148-0.118,0.222c0.029,0.017,0.054,0.041,0.078,0.064c0.081-0.154,0.116-0.223,0.156-0.299
			c0.007-0.017,0.016-0.031,0.025-0.048c0-0.002,0.002-0.003,0.002-0.005c0.059-0.114,0.119-0.224,0.178-0.331
			c0.011-0.02,0.021-0.038,0.031-0.057l-0.028-0.001l-0.027-0.079c0.058-0.106,0.117-0.211,0.179-0.32
			c0.016-0.03,0.033-0.061,0.051-0.091c0.075-0.134,0.154-0.269,0.234-0.405c0.076-0.13,0.154-0.26,0.234-0.392
			c0.08-0.131,0.159-0.263,0.242-0.394c0.083-0.133,0.168-0.266,0.254-0.399c0.085-0.132,0.17-0.261,0.258-0.39
			c0.033-0.047,0.064-0.094,0.095-0.139c0.054-0.081,0.11-0.159,0.165-0.236c0.002-0.004,0.006-0.009,0.008-0.013l0.017,0.049
			l0.027,0.001c0-0.001,0.001-0.001,0.001-0.002l0.005,0c0.092-0.13,0.178-0.253,0.262-0.368c0.098-0.135,0.191-0.258,0.28-0.374
			c0.103-0.135,0.199-0.256,0.29-0.366c0.004-0.007,0.01-0.013,0.016-0.02c0.105-0.126,0.201-0.239,0.289-0.337
			c0.186,0.018,0.448,0.025,0.702,0.025c0.089,0,0.178-0.001,0.261-0.003c-0.017,0.049-0.036,0.099-0.058,0.152
			c-0.027,0.06-0.061,0.128-0.103,0.2c-0.064,0.113-0.146,0.238-0.236,0.363c-0.092,0.13-0.194,0.258-0.296,0.373
			c-0.033,0.039-0.067,0.076-0.099,0.109c-0.122,0.124-0.241,0.205-0.487,0.277c0.008,0,0.015-0.001,0.022-0.001
			c0,0,0.001,0,0.001,0c0.001-0.001,0.002-0.001,0.003-0.001c0.001,0,0.001,0,0.002,0c0.123-0.005,0.278-0.03,0.371-0.068
			c0.014-0.004,0.026-0.011,0.037-0.017c-0.006,0.02-0.017,0.047-0.031,0.081c-0.01,0.023-0.023,0.048-0.037,0.077
			c-0.005,0.01-0.011,0.019-0.016,0.03c-0.014,0.025-0.029,0.052-0.046,0.082c-0.035,0.059-0.077,0.125-0.129,0.198
			c-0.01,0.016-0.023,0.032-0.035,0.05c-0.008,0.012-0.018,0.022-0.028,0.033c-0.03,0.036-0.062,0.068-0.096,0.097
			c-0.015,0.012-0.029,0.023-0.044,0.035c-0.024,0.017-0.047,0.035-0.073,0.051c-0.016,0.01-0.032,0.021-0.05,0.03
			c-0.081,0.044-0.172,0.078-0.277,0.104c0.003,0,0.005,0,0.008,0c0.001,0,0.002,0,0.003,0c0.002,0,0.004,0,0.005,0
			c0.021,0,0.042,0,0.062-0.002c0.151-0.012,0.284-0.06,0.366-0.1c-0.169,0.239-0.38,0.422-0.682,0.489c0.007,0,0.014,0,0.021,0
			c0.002,0,0.003,0,0.005,0c0.008,0,0.016,0,0.024,0c0.016-0.001,0.033-0.002,0.049-0.003c0.092-0.006,0.177-0.021,0.252-0.047
			c-0.079,0.159-0.159,0.305-0.239,0.438c-0.093,0.154-0.184,0.29-0.28,0.411c-0.128,0.163-0.26,0.298-0.401,0.41
			c-0.298,0.237-0.728,0.403-1.04,0.403c-0.006,0-0.012,0-0.018,0c0.006,0.003,0.011,0.003,0.015,0.005
			c0.118,0.039,0.237,0.061,0.356,0.061c0.215,0,0.428-0.07,0.636-0.227c-0.043,0.06-0.085,0.113-0.126,0.162
			c-0.175,0.204-0.356,0.318-0.697,0.413c0.062,0.013,0.117,0.019,0.166,0.019c0.12,0,0.205-0.038,0.284-0.111
			c-0.021,0.031-0.043,0.06-0.065,0.087c-0.184,0.22-0.452,0.311-0.76,0.311c-0.117,0-0.239-0.013-0.365-0.037
			c0.089,0.109,0.125,0.24,0.114,0.372c-0.046-0.122-0.101-0.226-0.175-0.288c-0.042-0.019-0.083-0.035-0.123-0.047
			c-0.057,0.108-0.112,0.212-0.165,0.313c0.231,0.73,0.414,1.243,0.447,1.335c0.016,0.055,0.012,0.108-0.026,0.157
			c-0.174-0.487-0.33-0.949-0.472-1.393c-0.369,0.711-0.61,1.219-0.655,1.314c-0.031,0.057-0.078,0.096-0.147,0.106
			c0.26-0.547,0.514-1.057,0.764-1.539c-0.028-0.088-0.06-0.182-0.086-0.268c-0.115,0.049-0.234,0.177-0.353,0.37
			c0.052-0.172,0.112-0.332,0.218-0.419c-0.032,0.014-0.107,0.038-0.235,0.038c-0.037,0-0.078-0.002-0.123-0.007
			c0.147-0.042,0.264-0.094,0.326-0.162c-0.157-0.181-0.406-0.3-0.69-0.397c-0.001,0,0.063-0.007,0.146-0.007
			c0.09,0,0.202,0.008,0.282,0.04c-0.003-0.005-0.006-0.011-0.01-0.016c-0.096-0.15-0.181-0.308-0.258-0.472
			c-0.003-0.006-0.005-0.011-0.007-0.017l-0.002-0.001c-0.063-0.135-0.122-0.274-0.175-0.417c-0.022-0.061-0.045-0.122-0.066-0.184
			c-0.024-0.073-0.048-0.15-0.072-0.23c-0.036-0.122-0.072-0.253-0.105-0.393c-0.03-0.123-0.057-0.255-0.083-0.392
			c-0.004-0.022-0.008-0.044-0.012-0.066c-0.018-0.11-0.036-0.22-0.053-0.33c-0.019-0.131-0.036-0.26-0.051-0.389
			c-0.015-0.127-0.026-0.253-0.037-0.378c0-0.009-0.001-0.018-0.002-0.026l-0.002-0.001c0-0.005-0.001-0.008-0.001-0.013
			c-0.009-0.117-0.017-0.232-0.024-0.345c-0.007-0.133-0.012-0.263-0.015-0.388c-0.002-0.136-0.003-0.266-0.002-0.391
			c0.001-0.11,0.004-0.216,0.008-0.315c0.001-0.027,0.003-0.053,0.004-0.078l0.418,0.199c0.003,0.125,0.01,0.253,0.019,0.384
			c0,0.007,0.001,0.015,0.001,0.023c0.01,0.134,0.022,0.27,0.038,0.408c0.016,0.133,0.034,0.269,0.053,0.406
			c0.02,0.129,0.04,0.258,0.06,0.389l-0.374-0.187l0.373,0.188c0.001,0.004,0.002,0.009,0.003,0.013
			c0.014,0.084,0.029,0.167,0.045,0.25c0.009,0.05,0.017,0.097,0.027,0.146c0.027,0.134,0.054,0.27,0.083,0.404
			c0.029,0.136,0.059,0.271,0.09,0.407c0.031,0.132,0.063,0.265,0.095,0.397s0.065,0.261,0.099,0.39
			c0.036,0.134,0.071,0.267,0.107,0.398c0.008,0.03,0.016,0.06,0.024,0.089c0.03,0.105,0.058,0.208,0.088,0.309l0.002,0.001
			l0.001,0.001c0.007,0.026,0.015,0.05,0.022,0.077c0.022,0.075,0.042,0.146,0.063,0.218c0.035,0.017,0.068,0.032,0.1,0.045
			c-0.028-0.091-0.055-0.181-0.081-0.268c-0.006-0.019-0.011-0.037-0.016-0.056l-0.018,0.016l-0.067-0.033
			c-0.03-0.102-0.059-0.205-0.088-0.311c-0.009-0.028-0.017-0.059-0.025-0.088c-0.037-0.13-0.072-0.263-0.107-0.398
			c-0.034-0.129-0.067-0.258-0.099-0.39c-0.032-0.132-0.065-0.263-0.095-0.397c-0.031-0.134-0.062-0.271-0.09-0.407
			c-0.03-0.135-0.057-0.269-0.083-0.404c-0.009-0.05-0.018-0.098-0.027-0.146c-0.016-0.084-0.031-0.168-0.045-0.25
			c-0.001-0.004-0.002-0.009-0.003-0.014l0.042,0.02l0.018-0.016c-0.001-0.001,0-0.001-0.001-0.002l0.003-0.003
			c-0.024-0.138-0.047-0.268-0.066-0.393c-0.023-0.145-0.042-0.28-0.059-0.407c-0.02-0.148-0.035-0.283-0.047-0.408
			c-0.002-0.007-0.002-0.014-0.003-0.023c-0.013-0.144-0.024-0.274-0.03-0.39C20.416-71.751,20.665-71.987,20.862-72.188
			 M21.289-67.32c0.005-0.002,0.009-0.005,0.013-0.006c0.02-0.01,0.03-0.029,0.049-0.039c-0.003-0.007-0.006-0.013-0.008-0.02
			C21.324-67.364,21.307-67.338,21.289-67.32 M21.209-66.626c0.029-0.008,0.057-0.011,0.086-0.015
			c-0.011-0.033-0.02-0.062-0.028-0.09c-0.035-0.026-0.081-0.075-0.125-0.121c0.007,0.024,0.014,0.049,0.021,0.072
			c0.003,0.008,0.005,0.016,0.007,0.024c0.01,0.03,0.017,0.059,0.026,0.087C21.201-66.653,21.205-66.64,21.209-66.626
			 M21.325-66.248c0.035-0.068,0.072-0.141,0.107-0.208c-0.021-0.002-0.043-0.007-0.064-0.007c-0.006,0-0.012,0-0.017,0.002
			c-0.009-0.029-0.014-0.043-0.021-0.066c-0.031-0.004-0.057-0.012-0.092-0.012c-0.001,0-0.002,0-0.003,0
			C21.266-66.44,21.296-66.342,21.325-66.248 M20.862-72.938c-0.2,0-0.393,0.08-0.535,0.224c-0.075,0.077-0.154,0.154-0.23,0.227
			c-0.097-0.043-0.2-0.064-0.302-0.064c-0.135,0-0.27,0.037-0.39,0.109c-0.216,0.131-0.351,0.363-0.36,0.615
			c0,0-0.004,0.072-0.004,0.072c-0.004,0.107-0.008,0.221-0.009,0.34c-0.001,0.13,0,0.266,0.003,0.409
			c0.003,0.137,0.009,0.275,0.016,0.415c0.007,0.124,0.015,0.244,0.025,0.366c0.001,0.018,0.004,0.036,0.006,0.054
			c0.014,0.153,0.024,0.272,0.039,0.392c0.015,0.135,0.033,0.272,0.054,0.412c0.017,0.115,0.036,0.229,0.055,0.343
			c0.001,0.005,0.014,0.076,0.015,0.08c0.028,0.15,0.058,0.294,0.091,0.43c0.036,0.151,0.075,0.295,0.115,0.429
			c0.028,0.091,0.053,0.175,0.08,0.254l0.061,0.17c0.036,0.097,0.07,0.184,0.104,0.266c-0.086,0.139-0.107,0.282-0.112,0.354
			c-0.018,0.286,0.128,0.552,0.368,0.694c0.015,0.13,0.064,0.251,0.137,0.352c0.008,0.117,0.043,0.231,0.103,0.331
			c-0.117,0.237-0.236,0.482-0.356,0.734c-0.118,0.248-0.091,0.541,0.071,0.763c0.142,0.195,0.368,0.309,0.606,0.309
			c0.032,0,0.065-0.002,0.098-0.006c0.229-0.03,0.433-0.141,0.583-0.311c0.115,0.148,0.283,0.25,0.473,0.281
			c0.04,0.007,0.08,0.01,0.12,0.01c0.228,0,0.446-0.104,0.59-0.287c0.185-0.235,0.242-0.538,0.156-0.83
			c-0.005-0.016-0.01-0.033-0.016-0.049c-0.018-0.05-0.083-0.231-0.176-0.506c0.053-0.049,0.099-0.106,0.135-0.169
			c0.468-0.091,0.764-0.334,0.94-0.544c0.043-0.053,0.077-0.098,0.11-0.146c0.024-0.035,0.044-0.072,0.062-0.109
			c0.046-0.045,0.091-0.093,0.135-0.144c0.055-0.065,0.11-0.134,0.165-0.211c0.063-0.087,0.105-0.184,0.126-0.284
			c0.106-0.103,0.207-0.216,0.307-0.342c0.11-0.138,0.219-0.299,0.333-0.487c0.09-0.15,0.18-0.314,0.269-0.492
			c0.006-0.013,0.012-0.025,0.018-0.038c0.09-0.089,0.175-0.19,0.253-0.302c0.051-0.072,0.087-0.15,0.11-0.232
			c0.006-0.008,0.011-0.014,0.014-0.018c0.005-0.008,0.046-0.065,0.051-0.073c0.048-0.067,0.102-0.151,0.146-0.226l0.061-0.108
			c0.007-0.013,0.03-0.057,0.036-0.071c0.018-0.034,0.032-0.063,0.043-0.09c0.028-0.063,0.048-0.117,0.06-0.157
			c0.005-0.015,0.009-0.03,0.013-0.045c0.11-0.126,0.225-0.27,0.328-0.416c0.105-0.146,0.202-0.294,0.278-0.428
			c0.054-0.094,0.1-0.184,0.136-0.265c0.034-0.081,0.059-0.146,0.081-0.21c0.081-0.232,0.043-0.489-0.102-0.687
			c-0.141-0.194-0.367-0.309-0.607-0.309c-0.005,0-0.01,0-0.016,0c-0.078,0.002-0.161,0.003-0.245,0.003
			c-0.064,0-0.129,0-0.192-0.001l-0.012-0.032c-0.086-0.237-0.285-0.416-0.531-0.475c-0.058-0.014-0.117-0.021-0.175-0.021
			c-0.189,0-0.373,0.071-0.513,0.203l-0.061,0.055c-0.089,0.082-0.182,0.17-0.278,0.264c-0.105,0.103-0.213,0.213-0.325,0.329
			c-0.107,0.112-0.212,0.226-0.318,0.344c-0.093,0.105-0.182,0.207-0.272,0.312c-0.012,0.015-0.024,0.03-0.036,0.045
			c-0.111,0.133-0.199,0.238-0.284,0.346c-0.095,0.119-0.191,0.243-0.286,0.371c-0.048,0.065-0.096,0.131-0.143,0.196
			c-0.015-0.067-0.039-0.13-0.07-0.188c0-0.002-0.001-0.003-0.001-0.005c-0.002-0.01-0.013-0.072-0.015-0.082
			c-0.012-0.072-0.032-0.16-0.051-0.237l-0.031-0.11c-0.005-0.015-0.018-0.058-0.024-0.073c-0.001-0.004-0.028-0.079-0.029-0.083
			c-0.023-0.059-0.046-0.109-0.065-0.144c-0.004-0.007-0.007-0.014-0.011-0.021c-0.01-0.144-0.029-0.3-0.054-0.451
			c-0.026-0.159-0.059-0.316-0.096-0.45c-0.026-0.095-0.055-0.183-0.084-0.258c-0.031-0.076-0.057-0.134-0.084-0.19
			c-0.107-0.219-0.313-0.373-0.554-0.412C20.942-72.935,20.902-72.938,20.862-72.938L20.862-72.938z"/>
	</g>
</g>
<g id="path3554_2_">
	<polygon points="2.454,-74.75 5.223,-74.75 6.347,-70.161 9.298,-74.75 12.179,-74.75 10.475,-66.11 8.338,-66.11 9.585,-72.487 
		6.552,-67.771 5.34,-67.771 4.134,-72.487 2.887,-66.11 0.75,-66.11 	"/>
</g>
<g id="path3556_2_">
	<path d="M15.476-69.026c-0.523,0-0.919,0.081-1.189,0.243c-0.265,0.158-0.398,0.394-0.398,0.706c0,0.235,0.078,0.421,0.234,0.556
		c0.16,0.135,0.379,0.203,0.656,0.203c0.429,0,0.788-0.127,1.077-0.382c0.289-0.258,0.482-0.621,0.58-1.088l0.047-0.237
		C16.483-69.026,15.476-69.026,15.476-69.026z M18.749-69.808l-0.732,3.698h-2.096l0.176-0.961
		c-0.343,0.386-0.707,0.671-1.089,0.857c-0.383,0.181-0.798,0.272-1.247,0.272c-0.621,0-1.114-0.158-1.481-0.475
		c-0.363-0.32-0.545-0.75-0.545-1.291c0-0.826,0.322-1.456,0.966-1.892c0.648-0.44,1.581-0.66,2.799-0.66h1.235l0.023-0.162
		c0.012-0.054,0.018-0.093,0.018-0.116c0.004-0.023,0.006-0.044,0.006-0.064c0-0.255-0.123-0.446-0.369-0.573
		c-0.242-0.131-0.603-0.197-1.083-0.197c-0.433,0-0.853,0.044-1.259,0.133s-0.798,0.222-1.177,0.399l0.316-1.58
		c0.437-0.108,0.884-0.189,1.341-0.243c0.461-0.058,0.937-0.087,1.429-0.087c0.972,0,1.694,0.166,2.166,0.498
		c0.472,0.328,0.708,0.83,0.708,1.505c0,0.131-0.01,0.276-0.029,0.434C18.81-70.157,18.784-69.989,18.749-69.808L18.749-69.808z"/>
</g>
<g id="path3560_2_">
	<path d="M32.976-69.107l-0.07,0.33H28c0,0.023-0.002,0.058-0.006,0.104c-0.004,0.042-0.006,0.075-0.006,0.098
		c0,0.421,0.127,0.735,0.381,0.943c0.258,0.208,0.642,0.313,1.153,0.313c0.441,0,0.906-0.066,1.394-0.197
		c0.492-0.131,1.007-0.326,1.546-0.585l-0.322,1.609c-0.511,0.185-1.021,0.322-1.528,0.411c-0.504,0.093-1.017,0.139-1.54,0.139
		c-1.023,0-1.813-0.233-2.371-0.7c-0.554-0.467-0.831-1.127-0.831-1.979c0-0.494,0.088-0.972,0.263-1.435
		c0.18-0.467,0.439-0.893,0.779-1.279c0.402-0.463,0.882-0.814,1.44-1.053c0.562-0.239,1.185-0.359,1.868-0.359
		c0.886,0,1.589,0.233,2.108,0.7c0.523,0.467,0.785,1.096,0.785,1.887c0,0.154-0.012,0.318-0.035,0.492
		C33.056-69.499,33.023-69.312,32.976-69.107L32.976-69.107z M30.997-70.057c0.012-0.05,0.02-0.1,0.023-0.15
		c0.008-0.054,0.012-0.106,0.012-0.156c0-0.309-0.094-0.554-0.281-0.735c-0.187-0.181-0.441-0.272-0.761-0.272
		c-0.41,0-0.759,0.112-1.048,0.336c-0.285,0.22-0.504,0.546-0.656,0.978H30.997L30.997-70.057z"/>
</g>
<g id="path3562_2_">
	<path d="M40.645-70.057l-0.779,3.947h-2.102l0.662-3.38c0.047-0.22,0.082-0.405,0.105-0.556c0.027-0.154,0.041-0.276,0.041-0.365
		c0-0.247-0.07-0.438-0.211-0.573c-0.137-0.135-0.332-0.203-0.586-0.203c-0.433,0-0.806,0.168-1.118,0.503
		c-0.308,0.332-0.523,0.793-0.644,1.383l-0.632,3.189h-2.102l1.276-6.482h2.108l-0.193,0.949c0.386-0.374,0.775-0.652,1.165-0.833
		c0.39-0.181,0.798-0.272,1.224-0.272c0.605,0,1.071,0.156,1.399,0.469c0.328,0.313,0.492,0.752,0.492,1.319
		c0,0.123-0.01,0.26-0.029,0.411C40.705-70.398,40.68-70.234,40.645-70.057L40.645-70.057z"/>
</g>
<g>
	<g id="g7248_2_" transform="matrix(0.08794724,-0.06380117,0.06454857,0.08692892,138.77505,34.93791)">
		<g id="path7258_2_" inkscape:connector-curvature="0">
			
				<linearGradient id="SVGID_7_" gradientUnits="userSpaceOnUse" x1="-110447.9688" y1="-109149.2031" x2="-110438.1016" y2="-109160.7344" gradientTransform="matrix(0.095 -0.0527 -0.0515 -0.0952 4577.8398 -17663.3281)">
				<stop  offset="0" style="stop-color:#F69923"/>
				<stop  offset="0.3123" style="stop-color:#F79A23"/>
				<stop  offset="0.8383" style="stop-color:#E97826"/>
			</linearGradient>
			<path fill="url(#SVGID_7_)" d="M-288.438-1448.444c-1.095,0.652-2.92,2.477-5.084,5.123l1.995,3.767
				c1.395-2.008,2.829-3.807,4.263-5.345c0.104-0.117,0.169-0.182,0.169-0.182c-0.052,0.065-0.117,0.117-0.169,0.182
				c-0.469,0.508-1.877,2.151-4.002,5.423c2.047-0.104,5.189-0.521,7.757-0.965c0.769-4.276-0.743-6.231-0.743-6.231
				S-286.183-1449.787-288.438-1448.444z"/>
		</g>
		<g id="path7260_2_" inkscape:connector-curvature="0">
			<path fill="none" d="M-291.828-1426.96c0.013,0,0.026,0,0.039-0.013l-0.287,0.026c-0.013,0.013-0.039,0.013-0.052,0.026
				C-292.023-1426.934-291.919-1426.947-291.828-1426.96z"/>
		</g>
		<g id="path7262_2_" inkscape:connector-curvature="0">
			<path fill="none" d="M-293.861-1420.221c-0.156,0.039-0.326,0.065-0.495,0.091
				C-294.187-1420.156-294.018-1420.182-293.861-1420.221z"/>
		</g>
		<g id="path7264_2_" inkscape:connector-curvature="0">
			<path fill="none" d="M-307.706-1405.085c0.026-0.052,0.039-0.117,0.065-0.17c0.443-1.16,0.873-2.281,1.304-3.389
				c0.482-1.225,0.965-2.425,1.434-3.585c0.495-1.212,0.991-2.399,1.473-3.533c0.508-1.199,1.004-2.347,1.499-3.455
				c0.404-0.899,0.795-1.773,1.186-2.62c0.13-0.287,0.261-0.561,0.391-0.834c0.261-0.547,0.508-1.082,0.756-1.604
				c0.235-0.482,0.456-0.952,0.678-1.421c0.078-0.156,0.156-0.313,0.222-0.456c0.013-0.026,0.026-0.052,0.039-0.078l-0.248,0.026
				l-0.196-0.378c-0.013,0.039-0.039,0.078-0.052,0.117c-0.352,0.691-0.704,1.395-1.043,2.112c-0.196,0.404-0.391,0.821-0.6,1.238
				c-0.548,1.147-1.082,2.294-1.603,3.468c-0.534,1.173-1.056,2.36-1.564,3.533c-0.508,1.16-0.991,2.32-1.473,3.481
				s-0.952,2.307-1.408,3.455c-0.482,1.199-0.952,2.386-1.395,3.559c-0.104,0.261-0.209,0.535-0.3,0.795
				c-0.365,0.952-0.717,1.877-1.056,2.803l0.313,0.613l0.274-0.026c0.013-0.026,0.026-0.052,0.026-0.078
				C-308.58-1402.752-308.136-1403.938-307.706-1405.085z"/>
		</g>
		<g id="path7268_2_" inkscape:connector-curvature="0">
			<path fill="#BE202E" d="M-295.152-1416.818c-0.261,0.052-0.521,0.091-0.782,0.13l0,0c0.13-0.013,0.274-0.039,0.404-0.065
				C-295.4-1416.766-295.269-1416.792-295.152-1416.818z"/>
		</g>
		<g id="path7270_2_" inkscape:connector-curvature="0" opacity="0.35" enable-background="new    ">
			<path fill="#BE202E" d="M-295.152-1416.818c-0.261,0.052-0.521,0.091-0.782,0.13l0,0c0.13-0.013,0.274-0.039,0.404-0.065
				C-295.4-1416.766-295.269-1416.792-295.152-1416.818z"/>
		</g>
		<g id="path7272_2_" inkscape:connector-curvature="0">
			<path fill="#BE202E" d="M-294.474-1420.116L-294.474-1420.116C-294.487-1420.116-294.487-1420.116-294.474-1420.116
				c0.039,0,0.078-0.013,0.117-0.013c0.169-0.026,0.339-0.052,0.495-0.091C-294.057-1420.182-294.266-1420.156-294.474-1420.116
				L-294.474-1420.116L-294.474-1420.116z"/>
		</g>
		<g id="path7274_2_" inkscape:connector-curvature="0" opacity="0.35" enable-background="new    ">
			<path fill="#BE202E" d="M-294.474-1420.116L-294.474-1420.116C-294.487-1420.116-294.487-1420.116-294.474-1420.116
				c0.039,0,0.078-0.013,0.117-0.013c0.169-0.026,0.339-0.052,0.495-0.091C-294.057-1420.182-294.266-1420.156-294.474-1420.116
				L-294.474-1420.116L-294.474-1420.116z"/>
		</g>
		<g id="path7286_2_" inkscape:connector-curvature="0">
			
				<linearGradient id="SVGID_8_" gradientUnits="userSpaceOnUse" x1="-110994.4297" y1="-109535.2812" x2="-110924.0703" y2="-109535.2812" gradientTransform="matrix(0.095 -0.0527 -0.0515 -0.0952 4577.8398 -17663.3281)">
				<stop  offset="0.3233" style="stop-color:#9E2064"/>
				<stop  offset="0.6302" style="stop-color:#C92037"/>
				<stop  offset="0.7514" style="stop-color:#CD2335"/>
				<stop  offset="1" style="stop-color:#E97826"/>
			</linearGradient>
			<path fill="url(#SVGID_8_)" d="M-297.42-1429.828c0.613-1.134,1.225-2.242,1.838-3.324c0.639-1.121,1.291-2.203,1.955-3.259
				c0.039-0.065,0.078-0.13,0.117-0.182c0.652-1.03,1.304-2.021,1.969-2.972l-1.995-3.754c-0.143,0.182-0.3,0.365-0.456,0.561
				c-0.574,0.717-1.173,1.486-1.786,2.307c-0.691,0.926-1.395,1.903-2.125,2.933c-0.665,0.952-1.343,1.955-2.021,2.985
				c-0.574,0.886-1.147,1.786-1.721,2.712c-0.026,0.039-0.039,0.065-0.065,0.104l2.594,5.123
				C-298.541-1427.677-297.981-1428.76-297.42-1429.828z"/>
		</g>
		<g id="path7298_2_" inkscape:connector-curvature="0">
			
				<linearGradient id="SVGID_9_" gradientUnits="userSpaceOnUse" x1="-110892.875" y1="-109542.0781" x2="-110850.9453" y2="-109542.0781" gradientTransform="matrix(0.095 -0.0527 -0.0515 -0.0952 4577.8398 -17663.3281)">
				<stop  offset="0" style="stop-color:#282662"/>
				<stop  offset="0.0955" style="stop-color:#662E8D"/>
				<stop  offset="0.7882" style="stop-color:#9F2064"/>
				<stop  offset="0.9487" style="stop-color:#CD2032"/>
			</linearGradient>
			<path fill="url(#SVGID_9_)" d="M-309.244-1400.927c-0.339,0.939-0.691,1.903-1.03,2.894c0,0.013-0.013,0.026-0.013,0.039
				c-0.052,0.143-0.104,0.274-0.143,0.417c-0.235,0.665-0.43,1.265-0.9,2.62c0.769,0.352,1.382,1.265,1.955,2.307
				c-0.065-1.082-0.508-2.099-1.356-2.881c3.768,0.17,7.027-0.782,8.695-3.546c0.143-0.248,0.287-0.508,0.417-0.782
				c-0.769,0.965-1.708,1.382-3.494,1.278h-0.013h0.013c2.62-1.173,3.937-2.307,5.097-4.172c0.274-0.443,0.548-0.926,0.821-1.46
				c-2.294,2.36-4.954,3.024-7.757,2.516l-2.099,0.235C-309.114-1401.279-309.179-1401.109-309.244-1400.927z"/>
		</g>
		<g id="path7310_2_" inkscape:connector-curvature="0">
			
				<linearGradient id="SVGID_10_" gradientUnits="userSpaceOnUse" x1="-110968.7969" y1="-109508.9922" x2="-110898.4375" y2="-109508.9922" gradientTransform="matrix(0.095 -0.0527 -0.0515 -0.0952 4577.8398 -17663.3281)">
				<stop  offset="0.3233" style="stop-color:#9E2064"/>
				<stop  offset="0.6302" style="stop-color:#C92037"/>
				<stop  offset="0.7514" style="stop-color:#CD2335"/>
				<stop  offset="1" style="stop-color:#E97826"/>
			</linearGradient>
			<path fill="url(#SVGID_10_)" d="M-308.267-1405.633c0.456-1.173,0.926-2.359,1.395-3.559c0.456-1.147,0.926-2.294,1.408-3.455
				c0.482-1.16,0.978-2.32,1.473-3.481c0.508-1.186,1.03-2.359,1.564-3.533c0.521-1.16,1.069-2.32,1.603-3.468
				c0.196-0.417,0.391-0.821,0.6-1.238c0.339-0.704,0.691-1.408,1.043-2.112c0.013-0.039,0.039-0.078,0.052-0.117l-2.568-5.11
				c-0.039,0.065-0.078,0.143-0.13,0.209c-0.6,0.991-1.212,1.995-1.799,3.024c-0.6,1.043-1.186,2.099-1.76,3.181
				c-0.482,0.913-0.952,1.825-1.421,2.751c-0.091,0.182-0.182,0.378-0.274,0.561c-0.561,1.16-1.082,2.294-1.538,3.376
				c-0.521,1.225-0.978,2.399-1.382,3.507c-0.261,0.73-0.508,1.434-0.73,2.112c-0.182,0.574-0.352,1.16-0.521,1.734
				c-0.391,1.356-0.717,2.712-0.991,4.067l2.607,5.149c0.339-0.926,0.704-1.851,1.056-2.803
				C-308.475-1405.099-308.371-1405.359-308.267-1405.633z"/>
		</g>
		<g id="path7322_2_" inkscape:connector-curvature="0">
			
				<linearGradient id="SVGID_11_" gradientUnits="userSpaceOnUse" x1="-110925.5859" y1="-109488.3672" x2="-110888.6172" y2="-109488.3672" gradientTransform="matrix(0.095 -0.0527 -0.0515 -0.0952 4577.8398 -17663.3281)">
				<stop  offset="0" style="stop-color:#282662"/>
				<stop  offset="0.0955" style="stop-color:#662E8D"/>
				<stop  offset="0.7882" style="stop-color:#9F2064"/>
				<stop  offset="0.9487" style="stop-color:#CD2032"/>
			</linearGradient>
			<path fill="url(#SVGID_11_)" d="M-312.282-1407.002c-0.326,1.643-0.561,3.285-0.678,4.928c0,0.052-0.013,0.117-0.013,0.169
				c-0.808-1.304-2.998-2.581-2.985-2.568c1.564,2.268,2.751,4.511,2.92,6.714c-0.834,0.169-1.982-0.078-3.298-0.561
				c1.382,1.265,2.412,1.616,2.816,1.708c-1.265,0.078-2.581,0.952-3.911,1.955c1.942-0.795,3.52-1.108,4.641-0.847
				c-1.786,5.045-3.572,10.625-5.358,16.543c0.548-0.156,0.873-0.534,1.056-1.03c0.313-1.069,2.438-8.109,5.749-17.351
				c0.091-0.261,0.196-0.521,0.287-0.795c0.026-0.078,0.052-0.143,0.078-0.222c0.352-0.965,0.717-1.955,1.095-2.972
				c0.091-0.235,0.169-0.456,0.261-0.691v-0.013l-2.607-5.149C-312.256-1407.119-312.269-1407.067-312.282-1407.002z"/>
		</g>
		<g id="path7334_2_" inkscape:connector-curvature="0">
			
				<linearGradient id="SVGID_12_" gradientUnits="userSpaceOnUse" x1="-110928.8438" y1="-109563.4297" x2="-110858.4844" y2="-109563.4297" gradientTransform="matrix(0.095 -0.0527 -0.0515 -0.0952 4577.8398 -17663.3281)">
				<stop  offset="0.3233" style="stop-color:#9E2064"/>
				<stop  offset="0.6302" style="stop-color:#C92037"/>
				<stop  offset="0.7514" style="stop-color:#CD2335"/>
				<stop  offset="1" style="stop-color:#E97826"/>
			</linearGradient>
			<path fill="url(#SVGID_12_)" d="M-298.698-1426.152c-0.078,0.156-0.143,0.3-0.222,0.456c-0.222,0.469-0.456,0.939-0.678,1.421
				c-0.248,0.521-0.495,1.056-0.756,1.604c-0.13,0.274-0.261,0.547-0.391,0.834c-0.391,0.847-0.782,1.721-1.186,2.62
				c-0.495,1.108-0.991,2.255-1.499,3.455c-0.482,1.134-0.978,2.32-1.473,3.533c-0.469,1.16-0.952,2.347-1.434,3.585
				c-0.43,1.095-0.86,2.229-1.304,3.389c-0.026,0.052-0.039,0.117-0.065,0.17c-0.43,1.147-0.873,2.333-1.317,3.546
				c-0.013,0.026-0.026,0.052-0.026,0.078l2.099-0.235c-0.039-0.013-0.078-0.013-0.13-0.026c2.516-0.313,5.853-2.19,8.004-4.51
				c0.991-1.069,1.89-2.32,2.725-3.794c0.626-1.095,1.199-2.307,1.76-3.663c0.482-1.173,0.952-2.451,1.395-3.833
				c-0.574,0.3-1.238,0.521-1.969,0.678c-0.13,0.026-0.261,0.052-0.391,0.078c-0.13,0.026-0.261,0.039-0.404,0.065l0,0l0,0l0,0
				c2.347-0.9,3.82-2.633,4.889-4.771c-0.613,0.417-1.617,0.965-2.816,1.238c-0.156,0.039-0.326,0.065-0.495,0.091
				c-0.039,0-0.078,0.013-0.13,0.013l0,0l0,0l0,0l0,0l0,0c0.808-0.339,1.499-0.717,2.099-1.173c0.13-0.091,0.248-0.196,0.365-0.3
				c0.182-0.156,0.352-0.326,0.521-0.495c0.104-0.117,0.209-0.222,0.313-0.339c0.235-0.274,0.456-0.574,0.652-0.899
				c0.065-0.104,0.13-0.196,0.183-0.3c0.078-0.156,0.156-0.3,0.222-0.443c0.326-0.652,0.587-1.238,0.795-1.76
				c0.104-0.261,0.196-0.495,0.274-0.717c0.026-0.091,0.065-0.169,0.091-0.261c0.078-0.248,0.156-0.469,0.209-0.665
				c0.078-0.287,0.13-0.521,0.156-0.691l0,0l0,0c-0.078,0.065-0.169,0.13-0.274,0.182c-0.704,0.417-1.916,0.808-2.894,0.991
				l1.929-0.208l-1.929,0.208c-0.013,0-0.026,0-0.039,0.013c-0.091,0.013-0.196,0.026-0.3,0.052
				c0.013-0.013,0.039-0.013,0.052-0.026l-6.596,0.717C-298.672-1426.191-298.685-1426.165-298.698-1426.152z"/>
		</g>
		<g id="path7346_2_" inkscape:connector-curvature="0">
			
				<linearGradient id="SVGID_13_" gradientUnits="userSpaceOnUse" x1="-110963.0312" y1="-109584.4609" x2="-110892.6719" y2="-109584.4609" gradientTransform="matrix(0.095 -0.0527 -0.0515 -0.0952 4577.8398 -17663.3281)">
				<stop  offset="0.3233" style="stop-color:#9E2064"/>
				<stop  offset="0.6302" style="stop-color:#C92037"/>
				<stop  offset="0.7514" style="stop-color:#CD2335"/>
				<stop  offset="1" style="stop-color:#E97826"/>
			</linearGradient>
			<path fill="url(#SVGID_13_)" d="M-291.267-1439.475c-0.587,0.9-1.225,1.929-1.916,3.077c-0.039,0.065-0.078,0.117-0.104,0.182
				c-0.6,1.004-1.225,2.099-1.89,3.311c-0.574,1.043-1.173,2.151-1.799,3.363c-0.548,1.043-1.095,2.151-1.682,3.324l6.596-0.717
				c1.916-0.886,2.777-1.682,3.611-2.842c0.222-0.313,0.443-0.652,0.665-1.004c0.678-1.056,1.343-2.216,1.929-3.376
				c0.574-1.121,1.082-2.229,1.46-3.22c0.248-0.639,0.443-1.225,0.587-1.747c0.117-0.456,0.209-0.886,0.287-1.304
				C-286.079-1439.997-289.22-1439.58-291.267-1439.475z"/>
		</g>
		<g id="path7348_2_" inkscape:connector-curvature="0">
			<path fill="#BE202E" d="M-295.53-1416.74c-0.13,0.026-0.261,0.039-0.404,0.065l0,0
				C-295.804-1416.701-295.673-1416.727-295.53-1416.74z"/>
		</g>
		<g id="path7350_2_" inkscape:connector-curvature="0" opacity="0.35" enable-background="new    ">
			<path fill="#BE202E" d="M-295.53-1416.74c-0.13,0.026-0.261,0.039-0.404,0.065l0,0
				C-295.804-1416.701-295.673-1416.727-295.53-1416.74z"/>
		</g>
		<g id="path7362_2_" inkscape:connector-curvature="0">
			
				<linearGradient id="SVGID_14_" gradientUnits="userSpaceOnUse" x1="-110916.875" y1="-109579.7266" x2="-110846.5234" y2="-109579.7266" gradientTransform="matrix(0.095 -0.0527 -0.0515 -0.0952 4577.8398 -17663.3281)">
				<stop  offset="0.3233" style="stop-color:#9E2064"/>
				<stop  offset="0.6302" style="stop-color:#C92037"/>
				<stop  offset="0.7514" style="stop-color:#CD2335"/>
				<stop  offset="1" style="stop-color:#E97826"/>
			</linearGradient>
			<path fill="url(#SVGID_14_)" d="M-295.53-1416.74c-0.13,0.026-0.261,0.039-0.404,0.065l0,0
				C-295.804-1416.701-295.673-1416.727-295.53-1416.74z"/>
		</g>
		<g id="path7364_2_" inkscape:connector-curvature="0">
			<path fill="#BE202E" d="M-294.487-1420.116c0.039,0,0.078-0.013,0.13-0.013C-294.396-1420.129-294.435-1420.116-294.487-1420.116
				L-294.487-1420.116z"/>
		</g>
		<g id="path7366_2_" inkscape:connector-curvature="0" opacity="0.35" enable-background="new    ">
			<path fill="#BE202E" d="M-294.487-1420.116c0.039,0,0.078-0.013,0.13-0.013C-294.396-1420.129-294.435-1420.116-294.487-1420.116
				L-294.487-1420.116z"/>
		</g>
		<g id="path7378_2_" inkscape:connector-curvature="0">
			
				<linearGradient id="SVGID_15_" gradientUnits="userSpaceOnUse" x1="-110918.2812" y1="-109577.8125" x2="-110847.9297" y2="-109577.8125" gradientTransform="matrix(0.095 -0.0527 -0.0515 -0.0952 4577.8398 -17663.3281)">
				<stop  offset="0.3233" style="stop-color:#9E2064"/>
				<stop  offset="0.6302" style="stop-color:#C92037"/>
				<stop  offset="0.7514" style="stop-color:#CD2335"/>
				<stop  offset="1" style="stop-color:#E97826"/>
			</linearGradient>
			<path fill="url(#SVGID_15_)" d="M-294.487-1420.116c0.039,0,0.078-0.013,0.13-0.013
				C-294.396-1420.129-294.435-1420.116-294.487-1420.116L-294.487-1420.116z"/>
		</g>
	</g>
	<g id="g4701_2_" transform="matrix(0.12208398,0.01770582,-0.01791324,0.12067039,173.23166,13.301234)">
		<g id="path4710_2_" inkscape:connector-curvature="0">
			
				<linearGradient id="SVGID_16_" gradientUnits="userSpaceOnUse" x1="-99402.3203" y1="-33986.9258" x2="-99392.4609" y2="-33998.457" gradientTransform="matrix(0.0355 -0.1181 -0.1169 -0.0348 -1731.8512 -13439.834)">
				<stop  offset="0" style="stop-color:#F69923"/>
				<stop  offset="0.3123" style="stop-color:#F79A23"/>
				<stop  offset="0.8383" style="stop-color:#E97826"/>
			</linearGradient>
			<path fill="url(#SVGID_16_)" d="M-1287.616-521.839c-1.095,0.652-2.92,2.477-5.084,5.123l1.995,3.768
				c1.395-2.008,2.829-3.807,4.263-5.345c0.104-0.117,0.169-0.183,0.169-0.183c-0.052,0.065-0.117,0.117-0.169,0.183
				c-0.469,0.508-1.877,2.151-4.002,5.423c2.047-0.104,5.188-0.521,7.757-0.965c0.769-4.276-0.743-6.231-0.743-6.231
				S-1285.361-523.182-1287.616-521.839z"/>
		</g>
		<g id="path4712_2_" inkscape:connector-curvature="0">
			<path fill="none" d="M-1291.006-500.355c0.013,0,0.026,0,0.039-0.013l-0.287,0.026c-0.013,0.013-0.039,0.013-0.052,0.026
				C-1291.202-500.329-1291.097-500.342-1291.006-500.355z"/>
		</g>
		<g id="path4714_2_" inkscape:connector-curvature="0">
			<path fill="none" d="M-1293.04-493.615c-0.156,0.039-0.326,0.065-0.495,0.091C-1293.366-493.55-1293.196-493.576-1293.04-493.615
				z"/>
		</g>
		<g id="path4716_2_" inkscape:connector-curvature="0">
			<path fill="none" d="M-1306.884-478.48c0.026-0.052,0.039-0.117,0.065-0.169c0.443-1.16,0.873-2.281,1.304-3.389
				c0.482-1.225,0.965-2.425,1.434-3.585c0.495-1.212,0.991-2.399,1.473-3.533c0.508-1.199,1.004-2.347,1.499-3.455
				c0.404-0.9,0.795-1.773,1.186-2.62c0.13-0.287,0.261-0.561,0.391-0.834c0.261-0.548,0.508-1.082,0.756-1.603
				c0.235-0.482,0.456-0.952,0.678-1.421c0.078-0.156,0.156-0.313,0.222-0.456c0.013-0.026,0.026-0.052,0.039-0.078l-0.248,0.026
				l-0.196-0.378c-0.013,0.039-0.039,0.078-0.052,0.117c-0.352,0.691-0.704,1.395-1.043,2.112c-0.196,0.404-0.391,0.821-0.6,1.238
				c-0.548,1.147-1.082,2.294-1.604,3.468c-0.535,1.173-1.056,2.36-1.564,3.533c-0.508,1.16-0.991,2.32-1.473,3.481
				c-0.482,1.16-0.952,2.307-1.408,3.455c-0.482,1.199-0.952,2.386-1.395,3.559c-0.104,0.261-0.209,0.534-0.3,0.795
				c-0.365,0.952-0.717,1.877-1.056,2.803l0.313,0.613l0.274-0.026c0.013-0.026,0.026-0.052,0.026-0.078
				C-1307.758-476.146-1307.315-477.333-1306.884-478.48z"/>
		</g>
		<g id="path4720_2_" inkscape:connector-curvature="0">
			<path fill="#BE202E" d="M-1294.33-490.213c-0.261,0.052-0.521,0.091-0.782,0.13l0,0c0.13-0.013,0.274-0.039,0.404-0.065
				C-1294.578-490.16-1294.448-490.186-1294.33-490.213z"/>
		</g>
		<g id="path4722_2_" inkscape:connector-curvature="0" opacity="0.35" enable-background="new    ">
			<path fill="#BE202E" d="M-1294.33-490.213c-0.261,0.052-0.521,0.091-0.782,0.13l0,0c0.13-0.013,0.274-0.039,0.404-0.065
				C-1294.578-490.16-1294.448-490.186-1294.33-490.213z"/>
		</g>
		<g id="path4724_2_" inkscape:connector-curvature="0">
			<path fill="#BE202E" d="M-1293.652-493.511L-1293.652-493.511C-1293.665-493.511-1293.665-493.511-1293.652-493.511
				c0.039,0,0.078-0.013,0.117-0.013c0.169-0.026,0.339-0.052,0.495-0.091C-1293.235-493.576-1293.444-493.55-1293.652-493.511
				L-1293.652-493.511L-1293.652-493.511z"/>
		</g>
		<g id="path4726_2_" inkscape:connector-curvature="0" opacity="0.35" enable-background="new    ">
			<path fill="#BE202E" d="M-1293.652-493.511L-1293.652-493.511C-1293.665-493.511-1293.665-493.511-1293.652-493.511
				c0.039,0,0.078-0.013,0.117-0.013c0.169-0.026,0.339-0.052,0.495-0.091C-1293.235-493.576-1293.444-493.55-1293.652-493.511
				L-1293.652-493.511L-1293.652-493.511z"/>
		</g>
		<g id="path4737_2_" inkscape:connector-curvature="0">
			
				<linearGradient id="SVGID_17_" gradientUnits="userSpaceOnUse" x1="-99985.9688" y1="-33890.4883" x2="-99915.6094" y2="-33890.4883" gradientTransform="matrix(0.0355 -0.1181 -0.1169 -0.0348 -1731.8512 -13439.834)">
				<stop  offset="0.3233" style="stop-color:#9E2064"/>
				<stop  offset="0.6302" style="stop-color:#C92037"/>
				<stop  offset="0.7514" style="stop-color:#CD2335"/>
				<stop  offset="1" style="stop-color:#E97826"/>
			</linearGradient>
			<path fill="url(#SVGID_17_)" d="M-1296.599-503.223c0.613-1.134,1.225-2.242,1.838-3.324c0.639-1.121,1.291-2.203,1.955-3.259
				c0.039-0.065,0.078-0.13,0.117-0.183c0.652-1.03,1.304-2.021,1.969-2.972l-1.995-3.754c-0.143,0.182-0.3,0.365-0.456,0.561
				c-0.574,0.717-1.173,1.486-1.786,2.307c-0.691,0.926-1.395,1.903-2.125,2.933c-0.665,0.952-1.343,1.955-2.021,2.985
				c-0.574,0.886-1.147,1.786-1.721,2.712c-0.026,0.039-0.039,0.065-0.065,0.104l2.594,5.123
				C-1297.72-501.072-1297.159-502.154-1296.599-503.223z"/>
		</g>
		<g id="path4748_2_" inkscape:connector-curvature="0">
			
				<linearGradient id="SVGID_18_" gradientUnits="userSpaceOnUse" x1="-99926.2812" y1="-33957.8398" x2="-99884.3594" y2="-33957.8398" gradientTransform="matrix(0.0355 -0.1181 -0.1169 -0.0348 -1731.8512 -13439.834)">
				<stop  offset="0" style="stop-color:#282662"/>
				<stop  offset="0.0955" style="stop-color:#662E8D"/>
				<stop  offset="0.7882" style="stop-color:#9F2064"/>
				<stop  offset="0.9487" style="stop-color:#CD2032"/>
			</linearGradient>
			<path fill="url(#SVGID_18_)" d="M-1308.423-474.321c-0.339,0.939-0.691,1.903-1.03,2.894c0,0.013-0.013,0.026-0.013,0.039
				c-0.052,0.143-0.104,0.274-0.143,0.417c-0.235,0.665-0.43,1.265-0.9,2.62c0.769,0.352,1.382,1.265,1.955,2.307
				c-0.065-1.082-0.508-2.099-1.356-2.881c3.768,0.169,7.027-0.782,8.695-3.546c0.143-0.248,0.287-0.508,0.417-0.782
				c-0.769,0.965-1.708,1.382-3.494,1.278h-0.013h0.013c2.62-1.173,3.937-2.307,5.097-4.172c0.274-0.443,0.547-0.926,0.821-1.46
				c-2.294,2.36-4.954,3.024-7.757,2.516l-2.099,0.235C-1308.292-474.673-1308.357-474.504-1308.423-474.321z"/>
		</g>
		<g id="path4759_2_" inkscape:connector-curvature="0">
			
				<linearGradient id="SVGID_19_" gradientUnits="userSpaceOnUse" x1="-99953.5078" y1="-33889.8672" x2="-99883.1562" y2="-33889.8672" gradientTransform="matrix(0.0355 -0.1181 -0.1169 -0.0348 -1731.8512 -13439.834)">
				<stop  offset="0.3233" style="stop-color:#9E2064"/>
				<stop  offset="0.6302" style="stop-color:#C92037"/>
				<stop  offset="0.7514" style="stop-color:#CD2335"/>
				<stop  offset="1" style="stop-color:#E97826"/>
			</linearGradient>
			<path fill="url(#SVGID_19_)" d="M-1307.445-479.027c0.456-1.173,0.926-2.36,1.395-3.559c0.456-1.147,0.926-2.294,1.408-3.455
				c0.482-1.16,0.978-2.32,1.473-3.481c0.508-1.186,1.03-2.36,1.564-3.533c0.521-1.16,1.069-2.32,1.604-3.468
				c0.196-0.417,0.391-0.821,0.6-1.238c0.339-0.704,0.691-1.408,1.043-2.112c0.013-0.039,0.039-0.078,0.052-0.117l-2.568-5.11
				c-0.039,0.065-0.078,0.143-0.13,0.209c-0.6,0.991-1.212,1.995-1.799,3.024c-0.6,1.043-1.186,2.099-1.76,3.181
				c-0.482,0.913-0.952,1.825-1.421,2.751c-0.091,0.183-0.183,0.378-0.274,0.561c-0.561,1.16-1.082,2.294-1.538,3.376
				c-0.521,1.225-0.978,2.399-1.382,3.507c-0.261,0.73-0.508,1.434-0.73,2.112c-0.183,0.574-0.352,1.16-0.521,1.734
				c-0.391,1.356-0.717,2.712-0.991,4.067l2.607,5.149c0.339-0.926,0.704-1.851,1.056-2.803
				C-1307.653-478.493-1307.549-478.753-1307.445-479.027z"/>
		</g>
		<g id="path4770_2_" inkscape:connector-curvature="0">
			
				<linearGradient id="SVGID_20_" gradientUnits="userSpaceOnUse" x1="-99913.5078" y1="-33903.7227" x2="-99876.5391" y2="-33903.7227" gradientTransform="matrix(0.0355 -0.1181 -0.1169 -0.0348 -1731.8512 -13439.834)">
				<stop  offset="0" style="stop-color:#282662"/>
				<stop  offset="0.0955" style="stop-color:#662E8D"/>
				<stop  offset="0.7882" style="stop-color:#9F2064"/>
				<stop  offset="0.9487" style="stop-color:#CD2032"/>
			</linearGradient>
			<path fill="url(#SVGID_20_)" d="M-1311.46-480.396c-0.326,1.643-0.561,3.285-0.678,4.928c0,0.052-0.013,0.117-0.013,0.169
				c-0.808-1.304-2.998-2.581-2.985-2.568c1.564,2.268,2.751,4.511,2.92,6.714c-0.834,0.169-1.982-0.078-3.298-0.561
				c1.382,1.265,2.412,1.617,2.816,1.708c-1.265,0.078-2.581,0.952-3.911,1.955c1.943-0.795,3.52-1.108,4.641-0.847
				c-1.786,5.045-3.572,10.625-5.358,16.543c0.548-0.156,0.874-0.534,1.056-1.03c0.313-1.069,2.438-8.109,5.749-17.351
				c0.091-0.261,0.196-0.521,0.287-0.795c0.026-0.078,0.052-0.143,0.078-0.222c0.352-0.965,0.717-1.955,1.095-2.972
				c0.091-0.235,0.169-0.456,0.261-0.691v-0.013l-2.607-5.149C-1311.434-480.513-1311.447-480.461-1311.46-480.396z"/>
		</g>
		<g id="path4781_2_" inkscape:connector-curvature="0">
			
				<linearGradient id="SVGID_21_" gradientUnits="userSpaceOnUse" x1="-99962.1719" y1="-33948.9297" x2="-99891.8203" y2="-33948.9297" gradientTransform="matrix(0.0355 -0.1181 -0.1169 -0.0348 -1731.8512 -13439.834)">
				<stop  offset="0.3233" style="stop-color:#9E2064"/>
				<stop  offset="0.6302" style="stop-color:#C92037"/>
				<stop  offset="0.7514" style="stop-color:#CD2335"/>
				<stop  offset="1" style="stop-color:#E97826"/>
			</linearGradient>
			<path fill="url(#SVGID_21_)" d="M-1297.876-499.547c-0.078,0.156-0.143,0.3-0.222,0.456c-0.222,0.469-0.456,0.939-0.678,1.421
				c-0.248,0.521-0.495,1.056-0.756,1.603c-0.13,0.274-0.261,0.548-0.391,0.834c-0.391,0.847-0.782,1.721-1.186,2.62
				c-0.495,1.108-0.991,2.255-1.499,3.455c-0.482,1.134-0.978,2.32-1.473,3.533c-0.469,1.16-0.952,2.347-1.434,3.585
				c-0.43,1.095-0.86,2.229-1.304,3.389c-0.026,0.052-0.039,0.117-0.065,0.169c-0.43,1.147-0.874,2.334-1.317,3.546
				c-0.013,0.026-0.026,0.052-0.026,0.078l2.099-0.235c-0.039-0.013-0.078-0.013-0.13-0.026c2.516-0.313,5.853-2.19,8.004-4.511
				c0.991-1.069,1.89-2.32,2.725-3.794c0.626-1.095,1.199-2.307,1.76-3.663c0.482-1.173,0.952-2.451,1.395-3.833
				c-0.573,0.3-1.238,0.521-1.968,0.678c-0.13,0.026-0.261,0.052-0.391,0.078c-0.13,0.026-0.261,0.039-0.404,0.065l0,0l0,0l0,0
				c2.347-0.9,3.82-2.633,4.889-4.771c-0.613,0.417-1.617,0.965-2.816,1.238c-0.156,0.039-0.326,0.065-0.495,0.091
				c-0.039,0-0.078,0.013-0.13,0.013l0,0l0,0l0,0l0,0l0,0c0.808-0.339,1.499-0.717,2.099-1.173c0.13-0.091,0.248-0.196,0.365-0.3
				c0.182-0.156,0.352-0.326,0.521-0.495c0.104-0.117,0.209-0.222,0.313-0.339c0.235-0.274,0.456-0.574,0.652-0.9
				c0.065-0.104,0.13-0.196,0.182-0.3c0.078-0.156,0.156-0.3,0.222-0.443c0.326-0.652,0.587-1.238,0.795-1.76
				c0.104-0.261,0.196-0.495,0.274-0.717c0.026-0.091,0.065-0.169,0.091-0.261c0.078-0.248,0.156-0.469,0.209-0.665
				c0.078-0.287,0.13-0.521,0.156-0.691l0,0l0,0c-0.078,0.065-0.169,0.13-0.274,0.182c-0.704,0.417-1.916,0.808-2.894,0.991
				l1.929-0.209l-1.929,0.209c-0.013,0-0.026,0-0.039,0.013c-0.091,0.013-0.196,0.026-0.3,0.052
				c0.013-0.013,0.039-0.013,0.052-0.026l-6.596,0.717C-1297.85-499.586-1297.863-499.56-1297.876-499.547z"/>
		</g>
		<g id="path4792_2_" inkscape:connector-curvature="0">
			
				<linearGradient id="SVGID_22_" gradientUnits="userSpaceOnUse" x1="-99996.75" y1="-33940.9336" x2="-99926.3906" y2="-33940.9336" gradientTransform="matrix(0.0355 -0.1181 -0.1169 -0.0348 -1731.8512 -13439.834)">
				<stop  offset="0.3233" style="stop-color:#9E2064"/>
				<stop  offset="0.6302" style="stop-color:#C92037"/>
				<stop  offset="0.7514" style="stop-color:#CD2335"/>
				<stop  offset="1" style="stop-color:#E97826"/>
			</linearGradient>
			<path fill="url(#SVGID_22_)" d="M-1290.445-512.87c-0.587,0.899-1.225,1.929-1.916,3.077c-0.039,0.065-0.078,0.117-0.104,0.183
				c-0.6,1.004-1.225,2.099-1.89,3.311c-0.574,1.043-1.173,2.151-1.799,3.363c-0.547,1.043-1.095,2.151-1.682,3.324l6.596-0.717
				c1.916-0.886,2.777-1.682,3.611-2.842c0.222-0.313,0.443-0.652,0.665-1.004c0.678-1.056,1.343-2.216,1.929-3.376
				c0.574-1.121,1.082-2.229,1.46-3.22c0.248-0.639,0.443-1.225,0.587-1.747c0.117-0.456,0.209-0.886,0.287-1.304
				C-1285.257-513.391-1288.399-512.974-1290.445-512.87z"/>
		</g>
		<g id="path4794_2_" inkscape:connector-curvature="0">
			<path fill="#BE202E" d="M-1294.708-490.134c-0.13,0.026-0.261,0.039-0.404,0.065l0,0
				C-1294.982-490.095-1294.852-490.121-1294.708-490.134z"/>
		</g>
		<g id="path4796_2_" inkscape:connector-curvature="0" opacity="0.35" enable-background="new    ">
			<path fill="#BE202E" d="M-1294.708-490.134c-0.13,0.026-0.261,0.039-0.404,0.065l0,0
				C-1294.982-490.095-1294.852-490.121-1294.708-490.134z"/>
		</g>
		<g id="path4807_2_" inkscape:connector-curvature="0">
			
				<linearGradient id="SVGID_23_" gradientUnits="userSpaceOnUse" x1="-99964.7734" y1="-33966.6211" x2="-99894.4141" y2="-33966.6211" gradientTransform="matrix(0.0355 -0.1181 -0.1169 -0.0348 -1731.8512 -13439.834)">
				<stop  offset="0.3233" style="stop-color:#9E2064"/>
				<stop  offset="0.6302" style="stop-color:#C92037"/>
				<stop  offset="0.7514" style="stop-color:#CD2335"/>
				<stop  offset="1" style="stop-color:#E97826"/>
			</linearGradient>
			<path fill="url(#SVGID_23_)" d="M-1294.708-490.134c-0.13,0.026-0.261,0.039-0.404,0.065l0,0
				C-1294.982-490.095-1294.852-490.121-1294.708-490.134z"/>
		</g>
		<g id="path4809_2_" inkscape:connector-curvature="0">
			<path fill="#BE202E" d="M-1293.665-493.511c0.039,0,0.078-0.013,0.13-0.013C-1293.574-493.524-1293.613-493.511-1293.665-493.511
				L-1293.665-493.511z"/>
		</g>
		<g id="path4811_2_" inkscape:connector-curvature="0" opacity="0.35" enable-background="new    ">
			<path fill="#BE202E" d="M-1293.665-493.511c0.039,0,0.078-0.013,0.13-0.013C-1293.574-493.524-1293.613-493.511-1293.665-493.511
				L-1293.665-493.511z"/>
		</g>
		<g id="path4822_2_" inkscape:connector-curvature="0">
			
				<linearGradient id="SVGID_24_" gradientUnits="userSpaceOnUse" x1="-99964.4688" y1="-33964.543" x2="-99894.1094" y2="-33964.543" gradientTransform="matrix(0.0355 -0.1181 -0.1169 -0.0348 -1731.8512 -13439.834)">
				<stop  offset="0.3233" style="stop-color:#9E2064"/>
				<stop  offset="0.6302" style="stop-color:#C92037"/>
				<stop  offset="0.7514" style="stop-color:#CD2335"/>
				<stop  offset="1" style="stop-color:#E97826"/>
			</linearGradient>
			<path fill="url(#SVGID_24_)" d="M-1293.665-493.511c0.039,0,0.078-0.013,0.13-0.013
				C-1293.574-493.524-1293.613-493.511-1293.665-493.511L-1293.665-493.511z"/>
		</g>
	</g>
</g>
<g id="g4855_2_" transform="translate(385.61463,-191.53704)">
</g>
</svg>
