<svg id="e783c6e3-5b10-43bf-a680-5184bc7ebbaf" data-name="Слой 1" xmlns="http://www.w3.org/2000/svg" width="217.27" height="261.55" viewBox="0 0 217.27 261.55">
  <defs>
    <style>
      .a3e3cc1b-8d77-44c9-bc40-1fd9c6d92a3d {
        fill: #fff;
      }

      .a31d46e7-93f1-4443-9f4c-4ab81678a76f {
        fill: #05acff;
      }

      .f0840990-9447-431e-9d52-fc710c46fb20 {
        fill: #5e6981;
      }

      .e231009a-e95e-4094-a2f7-4f49822d5610 {
        fill: #71b429;
      }

      .b38c109a-b811-4fe1-a255-64972c93f96e {
        fill: #d1a41b;
      }

      .b499cae5-845e-448e-886a-514e470646cd {
        fill: #ffdc76;
      }

      .f59b7637-23e6-4017-a96f-24da1af14631 {
        fill: #010202;
      }
    </style>
  </defs>
  <rect class="a3e3cc1b-8d77-44c9-bc40-1fd9c6d92a3d" x="0.58" y="136.5" width="54.67" height="54.67" rx="3"/>
  <path class="a31d46e7-93f1-4443-9f4c-4ab81678a76f" d="M52.24,191.75H3.58A3.59,3.59,0,0,1,0,188.17V139.51a3.58,3.58,0,0,1,3.58-3.58H52.24a3.58,3.58,0,0,1,3.58,3.58v48.66A3.59,3.59,0,0,1,52.24,191.75ZM3.58,137.08a2.43,2.43,0,0,0-2.43,2.43v48.66a2.43,2.43,0,0,0,2.43,2.43H52.24a2.43,2.43,0,0,0,2.43-2.43V139.51a2.43,2.43,0,0,0-2.43-2.43Z"/>
  <rect class="a3e3cc1b-8d77-44c9-bc40-1fd9c6d92a3d" x="80.88" y="136.54" width="54.67" height="54.67" rx="3"/>
  <path class="a31d46e7-93f1-4443-9f4c-4ab81678a76f" d="M132.54,191.79H83.88a3.59,3.59,0,0,1-3.58-3.58V139.54A3.58,3.58,0,0,1,83.88,136h48.66a3.57,3.57,0,0,1,3.58,3.57v48.67A3.58,3.58,0,0,1,132.54,191.79ZM83.88,137.12a2.43,2.43,0,0,0-2.43,2.42v48.67a2.43,2.43,0,0,0,2.43,2.43h48.66a2.43,2.43,0,0,0,2.43-2.43V139.54a2.43,2.43,0,0,0-2.43-2.42Z"/>
  <path class="a31d46e7-93f1-4443-9f4c-4ab81678a76f" d="M213.72,191.75h-3.46V190.6h3.43Zm-6.31,0H204V190.6h3.43Zm-6.28,0H197.7V190.6h3.43Zm-6.28,0h-3.43V190.6h3.43Zm-6.28,0h-3.42V190.6h3.42Zm-6.28,0h-3.42V190.6h3.42Zm-6.28,0h-3.42V190.6H176Zm-6.28,0h-3.42V190.6h3.42Zm-6.49-.48a3.59,3.59,0,0,1-1.79-3.1v-.28h1.15v.28a2.43,2.43,0,0,0,1.21,2.1Zm53.38-1.06-.94-.66a2.41,2.41,0,0,0,.44-1.38v-1.6h1.15v1.6A3.56,3.56,0,0,1,216.62,190.21Zm-54-5.17h-1.15v-3.43h1.15Zm54.67-1.32h-1.15v-3.43h1.15Zm-54.67-5h-1.15v-3.43h1.15Zm54.67-1.32h-1.15V174h1.15Zm-54.67-5h-1.15v-3.43h1.15Zm54.67-1.32h-1.15v-3.43h1.15Zm-54.67-5h-1.15v-3.42h1.15Zm54.67-1.32h-1.15v-3.42h1.15Zm-54.67-5h-1.15V156.5h1.15Zm54.67-1.32h-1.15v-3.42h1.15Zm-54.67-5h-1.15v-3.42h1.15Zm54.67-1.32h-1.15V148.9h1.15Zm-54.67-5h-1.15v-3.42h1.15ZM217.27,146h-1.15v-3.42h1.15Zm-54.67-4.95h-1.15v-1.58a3.55,3.55,0,0,1,.65-2.07l.94.67a2.4,2.4,0,0,0-.44,1.4Zm54.67-1.32h-1.15v-.26a2.44,2.44,0,0,0-1.24-2.11l.57-1a3.6,3.6,0,0,1,1.82,3.11Zm-4.89-2.69H209v-1.15h3.42Zm-6.27,0h-3.43v-1.15h3.43Zm-6.28,0H196.4v-1.15h3.43Zm-6.28,0h-3.43v-1.15h3.43Zm-6.28,0h-3.43v-1.15h3.43Zm-6.28,0h-3.43v-1.15H181Zm-6.28,0h-3.42v-1.15h3.42Zm-6.28,0H165v-1.15h3.42Z"/>
  <rect class="a31d46e7-93f1-4443-9f4c-4ab81678a76f" x="108.1" y="218.61" width="1.15" height="21.29"/>
  <polygon class="a31d46e7-93f1-4443-9f4c-4ab81678a76f" points="108.68 214.97 106.09 220.34 111.27 220.34 108.68 214.97"/>
  <rect class="a31d46e7-93f1-4443-9f4c-4ab81678a76f" x="27.91" y="218.61" width="1.15" height="21.29"/>
  <polygon class="a31d46e7-93f1-4443-9f4c-4ab81678a76f" points="28.49 214.97 25.9 220.34 31.08 220.34 28.49 214.97"/>
  <polygon class="a31d46e7-93f1-4443-9f4c-4ab81678a76f" points="190.16 214.97 187.57 220.34 192.75 220.34 190.16 214.97"/>
  <rect class="a31d46e7-93f1-4443-9f4c-4ab81678a76f" x="28.17" y="239.9" width="81.14" height="1.15"/>
  <g>
    <rect class="a31d46e7-93f1-4443-9f4c-4ab81678a76f" x="189.3" y="221.49" width="1.15" height="1.73"/>
    <path class="a31d46e7-93f1-4443-9f4c-4ab81678a76f" d="M190.45,235.88H189.3v-3.46h1.15Zm0-6.33H189.3v-3.46h1.15Z"/>
    <polygon class="a31d46e7-93f1-4443-9f4c-4ab81678a76f" points="190.45 241.06 188.15 241.06 188.15 239.9 189.3 239.9 189.3 238.75 190.45 238.75 190.45 241.06"/>
    <path class="a31d46e7-93f1-4443-9f4c-4ab81678a76f" d="M185.16,241.05h-3.59V239.9h3.59Zm-6.58,0H175V239.9h3.59Zm-6.58,0h-3.59V239.9H172Zm-6.59,0h-3.59V239.9h3.59Zm-6.58,0h-3.59V239.9h3.59Zm-6.58,0h-3.59V239.9h3.59Zm-6.58,0h-3.59V239.9h3.59Zm-6.58,0H135.5V239.9h3.59Zm-6.58,0h-3.59V239.9h3.59Zm-6.58,0h-3.59V239.9h3.59Zm-6.59,0h-3.59V239.9h3.59Z"/>
    <rect class="a31d46e7-93f1-4443-9f4c-4ab81678a76f" x="111.04" y="239.9" width="1.73" height="1.15"/>
  </g>
  <circle class="f0840990-9447-431e-9d52-fc710c46fb20" cx="153.05" cy="163.88" r="1.44"/>
  <circle class="f0840990-9447-431e-9d52-fc710c46fb20" cx="148.44" cy="163.88" r="1.44"/>
  <circle class="f0840990-9447-431e-9d52-fc710c46fb20" cx="143.84" cy="163.88" r="1.44"/>
  <g>
    <path class="a3e3cc1b-8d77-44c9-bc40-1fd9c6d92a3d" d="M18.27,203.8h-.94l-3.9-6h0c0,.7.07,1.35.07,1.93v4.06H12.7v-7.14h.94l3.89,6h0c0-.09,0-.37-.05-.85s0-.82,0-1v-4.1h.77Z"/>
    <path class="a3e3cc1b-8d77-44c9-bc40-1fd9c6d92a3d" d="M24.73,201.12a2.94,2.94,0,0,1-.66,2,2.3,2.3,0,0,1-1.82.74,2.34,2.34,0,0,1-1.27-.34,2.2,2.2,0,0,1-.86-1,3.38,3.38,0,0,1-.3-1.47,2.94,2.94,0,0,1,.65-2,2.31,2.31,0,0,1,1.82-.73,2.25,2.25,0,0,1,1.78.75A2.94,2.94,0,0,1,24.73,201.12Zm-4.07,0a2.5,2.5,0,0,0,.41,1.56,1.41,1.41,0,0,0,1.2.54,1.44,1.44,0,0,0,1.21-.53,2.51,2.51,0,0,0,.41-1.57,2.45,2.45,0,0,0-.41-1.55,1.45,1.45,0,0,0-1.22-.53,1.42,1.42,0,0,0-1.2.52A2.53,2.53,0,0,0,20.66,201.12Z"/>
    <path class="a3e3cc1b-8d77-44c9-bc40-1fd9c6d92a3d" d="M29.8,203.08h-.05a1.88,1.88,0,0,1-1.68.82,2,2,0,0,1-1.63-.72,3.16,3.16,0,0,1-.58-2,3.24,3.24,0,0,1,.58-2.06,2,2,0,0,1,1.63-.73,1.93,1.93,0,0,1,1.67.79h.07l0-.38,0-.38V196.2h.81v7.6H29.9Zm-1.62.14a1.48,1.48,0,0,0,1.2-.45,2.28,2.28,0,0,0,.37-1.46v-.17a2.68,2.68,0,0,0-.37-1.62,1.44,1.44,0,0,0-1.21-.49,1.25,1.25,0,0,0-1.1.55,2.81,2.81,0,0,0-.37,1.57,2.67,2.67,0,0,0,.37,1.55A1.27,1.27,0,0,0,28.18,203.22Z"/>
    <path class="a3e3cc1b-8d77-44c9-bc40-1fd9c6d92a3d" d="M34.54,203.9a2.46,2.46,0,0,1-1.87-.72,2.82,2.82,0,0,1-.69-2,3.15,3.15,0,0,1,.64-2.06,2.15,2.15,0,0,1,1.71-.76,2.05,2.05,0,0,1,1.6.66,2.55,2.55,0,0,1,.58,1.75v.51H32.82a2.13,2.13,0,0,0,.48,1.43,1.64,1.64,0,0,0,1.27.49,4.3,4.3,0,0,0,1.71-.36v.72a4.27,4.27,0,0,1-.81.27A5,5,0,0,1,34.54,203.9ZM34.32,199a1.3,1.3,0,0,0-1,.42,2,2,0,0,0-.46,1.16h2.8a1.76,1.76,0,0,0-.34-1.17A1.21,1.21,0,0,0,34.32,199Z"/>
    <path class="a3e3cc1b-8d77-44c9-bc40-1fd9c6d92a3d" d="M43.12,203.8h-.79v-5.09c0-.42,0-.82,0-1.2l-.23.22-1.16,1-.43-.56,1.89-1.46h.68Z"/>
  </g>
  <g>
    <path class="a3e3cc1b-8d77-44c9-bc40-1fd9c6d92a3d" d="M68.59,257.24a1.73,1.73,0,0,1-.68,1.47,3,3,0,0,1-1.86.53,4.63,4.63,0,0,1-2-.33v-.8a5.15,5.15,0,0,0,1,.3,5,5,0,0,0,1,.1,2.06,2.06,0,0,0,1.25-.31,1,1,0,0,0,.42-.88,1.22,1.22,0,0,0-.14-.61,1.46,1.46,0,0,0-.5-.43,6.59,6.59,0,0,0-1.07-.46,3.41,3.41,0,0,1-1.42-.84,1.9,1.9,0,0,1-.43-1.28,1.59,1.59,0,0,1,.62-1.31,2.56,2.56,0,0,1,1.64-.49,4.83,4.83,0,0,1,2,.39l-.26.73a4.35,4.35,0,0,0-1.71-.38,1.69,1.69,0,0,0-1,.29,1,1,0,0,0-.37.78,1.22,1.22,0,0,0,.14.61,1.4,1.4,0,0,0,.46.44,6.1,6.1,0,0,0,1,.43,4.08,4.08,0,0,1,1.54.86A1.71,1.71,0,0,1,68.59,257.24Z"/>
    <path class="a3e3cc1b-8d77-44c9-bc40-1fd9c6d92a3d" d="M72.19,259.24a2.46,2.46,0,0,1-1.87-.72,2.79,2.79,0,0,1-.69-2,3.1,3.1,0,0,1,.64-2,2.13,2.13,0,0,1,1.71-.77,2,2,0,0,1,1.59.67,2.53,2.53,0,0,1,.59,1.74v.51H70.47A2.13,2.13,0,0,0,71,258a1.62,1.62,0,0,0,1.27.49,4.3,4.3,0,0,0,1.71-.36v.72a3.84,3.84,0,0,1-.81.27A5,5,0,0,1,72.19,259.24ZM72,254.37a1.3,1.3,0,0,0-1,.42,2,2,0,0,0-.46,1.16h2.8a1.76,1.76,0,0,0-.34-1.17A1.21,1.21,0,0,0,72,254.37Z"/>
    <path class="a3e3cc1b-8d77-44c9-bc40-1fd9c6d92a3d" d="M79,257.68a1.36,1.36,0,0,1-.55,1.16,2.62,2.62,0,0,1-1.57.4,3.34,3.34,0,0,1-1.66-.34v-.75a4.57,4.57,0,0,0,.83.31,3.74,3.74,0,0,0,.85.11,2,2,0,0,0,1-.2.67.67,0,0,0,.34-.62.65.65,0,0,0-.27-.53,4,4,0,0,0-1.06-.53,6.26,6.26,0,0,1-1.06-.48,1.53,1.53,0,0,1-.47-.48,1.31,1.31,0,0,1,.38-1.66,2.5,2.5,0,0,1,1.46-.38,4.17,4.17,0,0,1,1.69.36l-.29.65a3.85,3.85,0,0,0-1.46-.33,1.71,1.71,0,0,0-.87.18.57.57,0,0,0-.29.5.65.65,0,0,0,.11.37,1.13,1.13,0,0,0,.36.29,7.61,7.61,0,0,0,.93.39,3.36,3.36,0,0,1,1.29.7A1.23,1.23,0,0,1,79,257.68Z"/>
    <path class="a3e3cc1b-8d77-44c9-bc40-1fd9c6d92a3d" d="M83.76,257.68a1.36,1.36,0,0,1-.55,1.16,2.61,2.61,0,0,1-1.56.4A3.32,3.32,0,0,1,80,258.9v-.75a4.22,4.22,0,0,0,.82.31,3.74,3.74,0,0,0,.85.11,2,2,0,0,0,1-.2.67.67,0,0,0,.34-.62.65.65,0,0,0-.27-.53,4,4,0,0,0-1.06-.53,6.26,6.26,0,0,1-1.06-.48,1.53,1.53,0,0,1-.47-.48,1.31,1.31,0,0,1,.38-1.66,2.5,2.5,0,0,1,1.46-.38,4.17,4.17,0,0,1,1.69.36l-.29.65a3.85,3.85,0,0,0-1.46-.33,1.71,1.71,0,0,0-.87.18.57.57,0,0,0-.29.5.65.65,0,0,0,.11.37,1.26,1.26,0,0,0,.36.29,7.61,7.61,0,0,0,.93.39,3.36,3.36,0,0,1,1.29.7A1.23,1.23,0,0,1,83.76,257.68Z"/>
    <path class="a3e3cc1b-8d77-44c9-bc40-1fd9c6d92a3d" d="M85,252.34a.56.56,0,0,1,.14-.41.51.51,0,0,1,.34-.13.48.48,0,0,1,.34.14.52.52,0,0,1,.14.4.56.56,0,0,1-.14.41.51.51,0,0,1-.68,0A.56.56,0,0,1,85,252.34Zm.88,6.8h-.81v-5.35h.81Z"/>
    <path class="a3e3cc1b-8d77-44c9-bc40-1fd9c6d92a3d" d="M92.23,256.46a3,3,0,0,1-.66,2.05,2.31,2.31,0,0,1-1.82.73,2.34,2.34,0,0,1-1.27-.34,2.18,2.18,0,0,1-.86-1,3.26,3.26,0,0,1-.31-1.48,2.94,2.94,0,0,1,.66-2,2.32,2.32,0,0,1,1.81-.73,2.27,2.27,0,0,1,1.79.75A2.94,2.94,0,0,1,92.23,256.46Zm-4.08,0a2.53,2.53,0,0,0,.41,1.56,1.44,1.44,0,0,0,1.21.54A1.46,1.46,0,0,0,91,258a2.58,2.58,0,0,0,.41-1.57,2.53,2.53,0,0,0-.41-1.55,1.46,1.46,0,0,0-1.22-.53,1.45,1.45,0,0,0-1.2.52A2.53,2.53,0,0,0,88.15,256.46Z"/>
    <path class="a3e3cc1b-8d77-44c9-bc40-1fd9c6d92a3d" d="M97.31,259.14v-3.46a1.45,1.45,0,0,0-.29-1,1.24,1.24,0,0,0-.94-.32,1.52,1.52,0,0,0-1.23.46,2.29,2.29,0,0,0-.39,1.5v2.8h-.81v-5.35h.66l.13.73h0a1.74,1.74,0,0,1,.7-.61,2.33,2.33,0,0,1,1-.22,2,2,0,0,1,1.46.47,2,2,0,0,1,.48,1.49v3.49Z"/>
    <path class="a3e3cc1b-8d77-44c9-bc40-1fd9c6d92a3d" d="M103.34,256.17v3h-.83V252h2a3.06,3.06,0,0,1,1.94.51A1.81,1.81,0,0,1,107,254a1.9,1.9,0,0,1-1.44,1.92l1.94,3.2h-1l-1.73-3Zm0-.71h1.14a2,2,0,0,0,1.29-.35,1.31,1.31,0,0,0,.41-1.05,1.19,1.19,0,0,0-.42-1,2.34,2.34,0,0,0-1.34-.31h-1.08Z"/>
    <path class="a3e3cc1b-8d77-44c9-bc40-1fd9c6d92a3d" d="M110.83,259.24a2.45,2.45,0,0,1-1.87-.72,2.79,2.79,0,0,1-.69-2,3.05,3.05,0,0,1,.64-2,2.1,2.1,0,0,1,1.71-.77,2,2,0,0,1,1.59.67,2.53,2.53,0,0,1,.59,1.74v.51h-3.69a2.13,2.13,0,0,0,.48,1.43,1.62,1.62,0,0,0,1.27.49,4.34,4.34,0,0,0,1.71-.36v.72a3.73,3.73,0,0,1-.82.27A4.77,4.77,0,0,1,110.83,259.24Zm-.22-4.87a1.33,1.33,0,0,0-1,.42,2,2,0,0,0-.45,1.16h2.8a1.81,1.81,0,0,0-.34-1.17A1.22,1.22,0,0,0,110.61,254.37Z"/>
    <path class="a3e3cc1b-8d77-44c9-bc40-1fd9c6d92a3d" d="M116.67,259.24a2.32,2.32,0,0,1-1-.19,1.87,1.87,0,0,1-.72-.6h-.06a7.12,7.12,0,0,1,.06.89v2.21h-.81v-7.76h.66l.11.73h0a1.89,1.89,0,0,1,.73-.63,2.18,2.18,0,0,1,1-.2,2,2,0,0,1,1.64.73,3.19,3.19,0,0,1,.58,2,3.15,3.15,0,0,1-.59,2.05A2,2,0,0,1,116.67,259.24Zm-.12-4.86a1.41,1.41,0,0,0-1.18.46,2.3,2.3,0,0,0-.38,1.44v.18a2.65,2.65,0,0,0,.38,1.62,1.43,1.43,0,0,0,1.2.48,1.27,1.27,0,0,0,1.09-.56,2.67,2.67,0,0,0,.39-1.55,2.56,2.56,0,0,0-.39-1.53A1.29,1.29,0,0,0,116.55,254.38Z"/>
    <path class="a3e3cc1b-8d77-44c9-bc40-1fd9c6d92a3d" d="M121.12,259.14h-.81v-7.59h.81Z"/>
    <path class="a3e3cc1b-8d77-44c9-bc40-1fd9c6d92a3d" d="M122.77,252.34a.56.56,0,0,1,.13-.41.54.54,0,0,1,.35-.13.45.45,0,0,1,.33.14.49.49,0,0,1,.15.4.53.53,0,0,1-.15.41.44.44,0,0,1-.33.13.49.49,0,0,1-.35-.13A.56.56,0,0,1,122.77,252.34Zm.88,6.8h-.81v-5.35h.81Z"/>
    <path class="a3e3cc1b-8d77-44c9-bc40-1fd9c6d92a3d" d="M127.5,259.24a2.28,2.28,0,0,1-1.79-.71,3.58,3.58,0,0,1,0-4.1,2.32,2.32,0,0,1,1.84-.74,3.37,3.37,0,0,1,.77.09,2.6,2.6,0,0,1,.61.19l-.25.69a4.55,4.55,0,0,0-.59-.18,3.16,3.16,0,0,0-.56-.07c-1.09,0-1.63.7-1.63,2.08a2.48,2.48,0,0,0,.4,1.52,1.37,1.37,0,0,0,1.18.52,3.48,3.48,0,0,0,1.37-.29V259A2.89,2.89,0,0,1,127.5,259.24Z"/>
    <path class="a3e3cc1b-8d77-44c9-bc40-1fd9c6d92a3d" d="M133.42,259.14l-.16-.76h0a2.28,2.28,0,0,1-.8.68,2.43,2.43,0,0,1-1,.18,1.81,1.81,0,0,1-1.25-.41,1.49,1.49,0,0,1-.45-1.17c0-1.08.86-1.64,2.59-1.7l.91,0v-.34a1.36,1.36,0,0,0-.27-.93,1.12,1.12,0,0,0-.87-.3,3.54,3.54,0,0,0-1.51.41l-.25-.62a3.84,3.84,0,0,1,.86-.33,3.45,3.45,0,0,1,.95-.13,2.06,2.06,0,0,1,1.42.43,1.8,1.8,0,0,1,.46,1.36v3.65Zm-1.83-.57a1.69,1.69,0,0,0,1.19-.41,1.59,1.59,0,0,0,.43-1.17v-.48l-.81,0a2.91,2.91,0,0,0-1.4.3.89.89,0,0,0-.42.82.81.81,0,0,0,.26.67A1.09,1.09,0,0,0,131.59,258.57Z"/>
    <path class="a3e3cc1b-8d77-44c9-bc40-1fd9c6d92a3d" d="M137.42,258.57a2.73,2.73,0,0,0,.41,0,1.56,1.56,0,0,0,.32-.07v.62a1.32,1.32,0,0,1-.39.11,2.6,2.6,0,0,1-.46,0c-1,0-1.55-.54-1.55-1.63v-3.19H135V254l.77-.34.34-1.14h.47v1.24h1.55v.63h-1.55v3.15a1,1,0,0,0,.23.74A.77.77,0,0,0,137.42,258.57Z"/>
    <path class="a3e3cc1b-8d77-44c9-bc40-1fd9c6d92a3d" d="M139.15,252.34a.56.56,0,0,1,.14-.41.5.5,0,0,1,.68,0,.52.52,0,0,1,.14.4.56.56,0,0,1-.14.41.48.48,0,0,1-.34.13.45.45,0,0,1-.34-.13A.56.56,0,0,1,139.15,252.34Zm.88,6.8h-.81v-5.35H140Z"/>
    <path class="a3e3cc1b-8d77-44c9-bc40-1fd9c6d92a3d" d="M146.37,256.46a3,3,0,0,1-.66,2.05,2.32,2.32,0,0,1-1.82.73,2.38,2.38,0,0,1-1.28-.34,2.18,2.18,0,0,1-.86-1,3.4,3.4,0,0,1-.3-1.48,3,3,0,0,1,.65-2,2.36,2.36,0,0,1,1.82-.73,2.25,2.25,0,0,1,1.78.75A2.9,2.9,0,0,1,146.37,256.46Zm-4.08,0a2.53,2.53,0,0,0,.41,1.56,1.62,1.62,0,0,0,2.41,0,2.51,2.51,0,0,0,.42-1.57,2.47,2.47,0,0,0-.42-1.55,1.65,1.65,0,0,0-2.41,0A2.46,2.46,0,0,0,142.29,256.46Z"/>
    <path class="a3e3cc1b-8d77-44c9-bc40-1fd9c6d92a3d" d="M151.45,259.14v-3.46a1.4,1.4,0,0,0-.3-1,1.23,1.23,0,0,0-.93-.32,1.52,1.52,0,0,0-1.23.46,2.29,2.29,0,0,0-.39,1.5v2.8h-.81v-5.35h.66l.13.73h0a1.67,1.67,0,0,1,.7-.61,2.33,2.33,0,0,1,1-.22,2,2,0,0,1,1.45.47,2,2,0,0,1,.49,1.49v3.49Z"/>
  </g>
  <g>
    <path class="a3e3cc1b-8d77-44c9-bc40-1fd9c6d92a3d" d="M97.73,204.14h-.94l-3.91-6h0c.05.71.07,1.35.07,1.94v4h-.76V197h.93l3.9,6h0c0-.09,0-.37,0-.85s0-.81,0-1V197h.77Z"/>
    <path class="a3e3cc1b-8d77-44c9-bc40-1fd9c6d92a3d" d="M104.19,201.46a3,3,0,0,1-.66,2,2.31,2.31,0,0,1-1.82.73,2.34,2.34,0,0,1-1.27-.34,2.18,2.18,0,0,1-.86-1,3.4,3.4,0,0,1-.3-1.48,2.94,2.94,0,0,1,.65-2,2.34,2.34,0,0,1,1.82-.73,2.25,2.25,0,0,1,1.78.75A2.94,2.94,0,0,1,104.19,201.46Zm-4.07,0a2.46,2.46,0,0,0,.41,1.56,1.41,1.41,0,0,0,1.2.54,1.44,1.44,0,0,0,1.21-.53,2.51,2.51,0,0,0,.41-1.57,2.47,2.47,0,0,0-.41-1.55,1.66,1.66,0,0,0-2.42,0A2.53,2.53,0,0,0,100.12,201.46Z"/>
    <path class="a3e3cc1b-8d77-44c9-bc40-1fd9c6d92a3d" d="M109.26,203.43h-.05a1.9,1.9,0,0,1-1.68.81,2,2,0,0,1-1.63-.72,3.9,3.9,0,0,1,0-4.09,2.16,2.16,0,0,1,3.3,0h.07l0-.38,0-.38v-2.17H110v7.59h-.66Zm-1.62.13a1.48,1.48,0,0,0,1.2-.45,2.28,2.28,0,0,0,.37-1.46v-.17a2.61,2.61,0,0,0-.38-1.62,1.41,1.41,0,0,0-1.2-.49,1.26,1.26,0,0,0-1.1.56,2.77,2.77,0,0,0-.37,1.56,2.65,2.65,0,0,0,.37,1.55A1.27,1.27,0,0,0,107.64,203.56Z"/>
    <path class="a3e3cc1b-8d77-44c9-bc40-1fd9c6d92a3d" d="M114,204.24a2.46,2.46,0,0,1-1.87-.72,2.79,2.79,0,0,1-.69-2,3.1,3.1,0,0,1,.64-2,2.13,2.13,0,0,1,1.71-.77,2,2,0,0,1,1.59.67,2.53,2.53,0,0,1,.59,1.74v.51h-3.69a2.13,2.13,0,0,0,.48,1.43,1.62,1.62,0,0,0,1.27.49,4.3,4.3,0,0,0,1.71-.36v.72a3.84,3.84,0,0,1-.81.27A5,5,0,0,1,114,204.24Zm-.22-4.87a1.3,1.3,0,0,0-1,.42,2,2,0,0,0-.46,1.16h2.8a1.76,1.76,0,0,0-.34-1.17A1.21,1.21,0,0,0,113.78,199.37Z"/>
    <path class="a3e3cc1b-8d77-44c9-bc40-1fd9c6d92a3d" d="M124.27,204.14h-4.69v-.7l1.88-1.88a13.22,13.22,0,0,0,1.13-1.25,2.94,2.94,0,0,0,.41-.72,2,2,0,0,0,.14-.75,1.2,1.2,0,0,0-.35-.91,1.33,1.33,0,0,0-1-.33,2.32,2.32,0,0,0-.84.14,3.63,3.63,0,0,0-.89.53l-.43-.55a3.35,3.35,0,0,1,2.15-.82,2.25,2.25,0,0,1,1.58.52,1.76,1.76,0,0,1,.57,1.38,2.7,2.7,0,0,1-.38,1.34,8.27,8.27,0,0,1-1.43,1.68l-1.56,1.53v0h3.67Z"/>
  </g>
  <g>
    <path class="a3e3cc1b-8d77-44c9-bc40-1fd9c6d92a3d" d="M178.19,204.14h-.95l-3.9-6h0c0,.7.08,1.35.08,1.93v4.06h-.77V197h.94l3.89,6h0c0-.09,0-.37,0-.85s0-.81,0-1V197h.78Z"/>
    <path class="a3e3cc1b-8d77-44c9-bc40-1fd9c6d92a3d" d="M184.65,201.46a3,3,0,0,1-.66,2,2.61,2.61,0,0,1-3.1.39,2.18,2.18,0,0,1-.86-1,3.43,3.43,0,0,1-.3-1.48,3,3,0,0,1,.65-2,2.36,2.36,0,0,1,1.82-.73,2.25,2.25,0,0,1,1.78.75A2.9,2.9,0,0,1,184.65,201.46Zm-4.08,0A2.53,2.53,0,0,0,181,203a1.62,1.62,0,0,0,2.41,0,2.51,2.51,0,0,0,.42-1.57,2.45,2.45,0,0,0-.42-1.55,1.44,1.44,0,0,0-1.21-.53,1.47,1.47,0,0,0-1.21.52A2.53,2.53,0,0,0,180.57,201.46Z"/>
    <path class="a3e3cc1b-8d77-44c9-bc40-1fd9c6d92a3d" d="M189.71,203.42h0a1.91,1.91,0,0,1-1.68.82,2,2,0,0,1-1.64-.72,3.9,3.9,0,0,1,0-4.09,2,2,0,0,1,1.64-.74,2,2,0,0,1,1.67.79h.06l0-.38,0-.38v-2.18h.81v7.6h-.66Zm-1.62.14a1.48,1.48,0,0,0,1.2-.45,2.28,2.28,0,0,0,.38-1.46v-.17a2.68,2.68,0,0,0-.38-1.62,1.44,1.44,0,0,0-1.21-.49,1.23,1.23,0,0,0-1.09.56,3.41,3.41,0,0,0,0,3.11A1.28,1.28,0,0,0,188.09,203.56Z"/>
    <path class="a3e3cc1b-8d77-44c9-bc40-1fd9c6d92a3d" d="M194.46,204.24a2.47,2.47,0,0,1-1.88-.72,2.83,2.83,0,0,1-.68-2,3.15,3.15,0,0,1,.63-2.06,2.16,2.16,0,0,1,1.72-.76,2,2,0,0,1,1.59.67,2.52,2.52,0,0,1,.58,1.74v.51h-3.68a2.08,2.08,0,0,0,.47,1.43,1.64,1.64,0,0,0,1.27.49,4.3,4.3,0,0,0,1.71-.36v.72a3.5,3.5,0,0,1-.81.27A4.77,4.77,0,0,1,194.46,204.24Zm-.22-4.87a1.32,1.32,0,0,0-1,.42,1.88,1.88,0,0,0-.45,1.16h2.79a1.76,1.76,0,0,0-.34-1.17A1.2,1.2,0,0,0,194.24,199.37Z"/>
    <path class="a3e3cc1b-8d77-44c9-bc40-1fd9c6d92a3d" d="M206.1,204.14h-.95l-3.9-6h0c.06.7.08,1.35.08,1.93v4.06h-.77V197h.94l3.89,6h0c0-.09,0-.37,0-.85s0-.81,0-1V197h.78Z"/>
  </g>
  <rect class="e231009a-e95e-4094-a2f7-4f49822d5610" x="108.1" y="100.97" width="1.15" height="21.29"/>
  <rect class="e231009a-e95e-4094-a2f7-4f49822d5610" x="108.1" y="78.97" width="1.15" height="21.29"/>
  <polygon class="e231009a-e95e-4094-a2f7-4f49822d5610" points="108.68 125.9 106.09 120.53 111.27 120.53 108.68 125.9"/>
  <rect class="e231009a-e95e-4094-a2f7-4f49822d5610" x="27.91" y="100.97" width="1.15" height="21.29"/>
  <polygon class="e231009a-e95e-4094-a2f7-4f49822d5610" points="28.49 125.9 25.9 120.53 31.08 120.53 28.49 125.9"/>
  <polygon class="e231009a-e95e-4094-a2f7-4f49822d5610" points="190.16 125.9 187.57 120.53 192.75 120.53 190.16 125.9"/>
  <rect class="e231009a-e95e-4094-a2f7-4f49822d5610" x="28.17" y="99.81" width="81.14" height="1.15"/>
  <g>
    <rect class="e231009a-e95e-4094-a2f7-4f49822d5610" x="189.3" y="117.65" width="1.15" height="1.73"/>
    <path class="e231009a-e95e-4094-a2f7-4f49822d5610" d="M190.45,108.45H189.3V105h1.15Zm0,6.33H189.3v-3.46h1.15Z"/>
    <polygon class="e231009a-e95e-4094-a2f7-4f49822d5610" points="190.45 99.81 188.15 99.81 188.15 100.97 189.3 100.97 189.3 102.11 190.45 102.11 190.45 99.81"/>
    <path class="e231009a-e95e-4094-a2f7-4f49822d5610" d="M185.16,101h-3.59V99.81h3.59Zm-6.58,0H175V99.81h3.59ZM172,101h-3.59V99.81H172Zm-6.59,0h-3.59V99.81h3.59Zm-6.58,0h-3.59V99.81h3.59Zm-6.58,0h-3.59V99.81h3.59Zm-6.58,0h-3.59V99.81h3.59Zm-6.58,0H135.5V99.81h3.59Zm-6.58,0h-3.59V99.81h3.59Zm-6.58,0h-3.59V99.81h3.59Zm-6.59,0h-3.59V99.81h3.59Z"/>
    <rect class="e231009a-e95e-4094-a2f7-4f49822d5610" x="111.04" y="99.81" width="1.73" height="1.15"/>
  </g>
  <g>
    <path class="a3e3cc1b-8d77-44c9-bc40-1fd9c6d92a3d" d="M76.35,68.84V61.68h1V68h3.53v.85Z"/>
    <path class="a3e3cc1b-8d77-44c9-bc40-1fd9c6d92a3d" d="M81.5,66.25a2.67,2.67,0,0,1,.8-2.13,2.47,2.47,0,0,1,1.63-.58,2.35,2.35,0,0,1,1.75.7,2.71,2.71,0,0,1,.68,1.94,3.52,3.52,0,0,1-.3,1.57,2.13,2.13,0,0,1-.87.89,2.43,2.43,0,0,1-1.25.32,2.29,2.29,0,0,1-1.76-.7A2.73,2.73,0,0,1,81.5,66.25Zm.9,0a2.19,2.19,0,0,0,.43,1.49,1.43,1.43,0,0,0,2,.14,1.85,1.85,0,0,0,.14-.14,2.31,2.31,0,0,0,.49-1.52,2.2,2.2,0,0,0-.44-1.46,1.45,1.45,0,0,0-2-.13,1.59,1.59,0,0,0-.13.13,2.15,2.15,0,0,0-.47,1.49Z"/>
    <path class="a3e3cc1b-8d77-44c9-bc40-1fd9c6d92a3d" d="M90.78,68.2a3.31,3.31,0,0,1-.94.59,2.63,2.63,0,0,1-1,.17,1.86,1.86,0,0,1-1.31-.42,1.33,1.33,0,0,1-.46-1.07,1.42,1.42,0,0,1,.62-1.2,2.26,2.26,0,0,1,.63-.29c.25,0,.51-.1.78-.13a7.13,7.13,0,0,0,1.57-.3v-.23a1.06,1.06,0,0,0-.25-.76,1.56,1.56,0,0,0-1-.3,1.61,1.61,0,0,0-.92.22,1.34,1.34,0,0,0-.44.77l-.86-.12a2.15,2.15,0,0,1,.39-.89,1.68,1.68,0,0,1,.78-.52,3.93,3.93,0,0,1,1.18-.18,3.33,3.33,0,0,1,1.08.16,1.52,1.52,0,0,1,.61.39,1.55,1.55,0,0,1,.27.6,5.47,5.47,0,0,1,0,.81v1.17a10,10,0,0,0,.06,1.55,1.7,1.7,0,0,0,.22.62h-.92A1.71,1.71,0,0,1,90.78,68.2Zm-.07-2a6,6,0,0,1-1.44.33,3.32,3.32,0,0,0-.77.18.72.72,0,0,0-.35.29.77.77,0,0,0,.14,1,1.09,1.09,0,0,0,.78.23A1.79,1.79,0,0,0,90,68a1.37,1.37,0,0,0,.58-.61,2.39,2.39,0,0,0,.14-.88Z"/>
    <path class="a3e3cc1b-8d77-44c9-bc40-1fd9c6d92a3d" d="M96.32,68.84v-.65a1.6,1.6,0,0,1-1.45.77,1.91,1.91,0,0,1-1.14-.34,2.15,2.15,0,0,1-.81-1,3.24,3.24,0,0,1-.29-1.41,3.6,3.6,0,0,1,.26-1.41,2,2,0,0,1,.78-1,2.13,2.13,0,0,1,1.16-.34,1.85,1.85,0,0,1,.83.2,2,2,0,0,1,.6.52v-2.5h.87v7.16ZM93.5,66.25a2.19,2.19,0,0,0,.42,1.49,1.26,1.26,0,0,0,1,.49,1.23,1.23,0,0,0,1-.47,2.15,2.15,0,0,0,.4-1.44,2.47,2.47,0,0,0-.41-1.56,1.31,1.31,0,0,0-1-.5,1.21,1.21,0,0,0-1,.48A2.34,2.34,0,0,0,93.5,66.25Z"/>
    <path class="a3e3cc1b-8d77-44c9-bc40-1fd9c6d92a3d" d="M101.37,68.84V61.68h2.69a3.49,3.49,0,0,1,1.32.22,1.81,1.81,0,0,1,.78.67,1.87,1.87,0,0,1,.28.94,1.66,1.66,0,0,1-.25.87,1.81,1.81,0,0,1-.75.65,2,2,0,0,1,1,.65,1.85,1.85,0,0,1,.35,1.08,2.15,2.15,0,0,1-.21.94,1.76,1.76,0,0,1-.53.67,2.11,2.11,0,0,1-.78.35,4.53,4.53,0,0,1-1.16.12Zm.95-4.15h1.55a3.05,3.05,0,0,0,.9-.08,1,1,0,0,0,.54-.36,1,1,0,0,0,.18-.62,1.27,1.27,0,0,0-.17-.63,1,1,0,0,0-.49-.37,4.47,4.47,0,0,0-1.09-.1h-1.43Zm0,3.3h1.78a3.42,3.42,0,0,0,.64,0,1.41,1.41,0,0,0,.55-.2.93.93,0,0,0,.36-.4,1.36,1.36,0,0,0,.14-.6,1.25,1.25,0,0,0-.21-.7,1.14,1.14,0,0,0-.57-.42,4.27,4.27,0,0,0-1-.12h-1.66Z"/>
    <path class="a3e3cc1b-8d77-44c9-bc40-1fd9c6d92a3d" d="M111.35,68.2a3.31,3.31,0,0,1-.94.59,2.63,2.63,0,0,1-1,.17,1.86,1.86,0,0,1-1.31-.42,1.33,1.33,0,0,1-.46-1.07,1.42,1.42,0,0,1,.62-1.2,2.26,2.26,0,0,1,.63-.29c.25,0,.51-.1.78-.13a7.13,7.13,0,0,0,1.57-.3v-.23a1.06,1.06,0,0,0-.25-.76,1.56,1.56,0,0,0-1-.3,1.61,1.61,0,0,0-.92.22,1.34,1.34,0,0,0-.44.77l-.86-.12a2.15,2.15,0,0,1,.39-.89,1.68,1.68,0,0,1,.78-.52,3.93,3.93,0,0,1,1.18-.18,3.33,3.33,0,0,1,1.08.16,1.52,1.52,0,0,1,.61.39,1.55,1.55,0,0,1,.27.6,5.48,5.48,0,0,1,0,.81v1.17a10,10,0,0,0,.06,1.55,1.7,1.7,0,0,0,.22.62h-.86A1.76,1.76,0,0,1,111.35,68.2Zm-.07-2a6,6,0,0,1-1.44.33,3.32,3.32,0,0,0-.77.18.72.72,0,0,0-.35.29.77.77,0,0,0,.14,1,1.09,1.09,0,0,0,.78.23,1.79,1.79,0,0,0,.9-.22,1.37,1.37,0,0,0,.58-.61,2.39,2.39,0,0,0,.14-.88Z"/>
    <path class="a3e3cc1b-8d77-44c9-bc40-1fd9c6d92a3d" d="M113.5,68.84V61.68h.88v7.16Z"/>
    <path class="a3e3cc1b-8d77-44c9-bc40-1fd9c6d92a3d" d="M119.13,68.2a3.31,3.31,0,0,1-.94.59,2.63,2.63,0,0,1-1,.17,1.86,1.86,0,0,1-1.31-.42,1.33,1.33,0,0,1-.46-1.07,1.42,1.42,0,0,1,.62-1.2,2.26,2.26,0,0,1,.63-.29c.25,0,.51-.1.78-.13a7.13,7.13,0,0,0,1.57-.3v-.23a1.06,1.06,0,0,0-.25-.76,1.56,1.56,0,0,0-1-.3,1.61,1.61,0,0,0-.92.22,1.34,1.34,0,0,0-.44.77l-.86-.12a2.15,2.15,0,0,1,.39-.89,1.68,1.68,0,0,1,.78-.52,3.93,3.93,0,0,1,1.18-.18,3.33,3.33,0,0,1,1.08.16,1.52,1.52,0,0,1,.61.39,1.55,1.55,0,0,1,.27.6,5.47,5.47,0,0,1,0,.81v1.17a10,10,0,0,0,.06,1.55,1.7,1.7,0,0,0,.22.62h-.92A1.71,1.71,0,0,1,119.13,68.2Zm-.07-2a6,6,0,0,1-1.44.33,3.32,3.32,0,0,0-.77.18.72.72,0,0,0-.35.29.77.77,0,0,0,.14,1,1.09,1.09,0,0,0,.78.23,1.79,1.79,0,0,0,.9-.22,1.37,1.37,0,0,0,.58-.61,2.39,2.39,0,0,0,.14-.88Z"/>
    <path class="a3e3cc1b-8d77-44c9-bc40-1fd9c6d92a3d" d="M121.31,68.84V63.66h.79v.74a1.87,1.87,0,0,1,1.65-.85,2.35,2.35,0,0,1,.86.17,1.5,1.5,0,0,1,.59.44,2,2,0,0,1,.27.65,6,6,0,0,1,0,.85v3.18h-.88V65.69a2.41,2.41,0,0,0-.1-.8.92.92,0,0,0-.36-.42,1.32,1.32,0,0,0-.61-.16,1.45,1.45,0,0,0-1,.36,1.76,1.76,0,0,0-.41,1.35v2.82Z"/>
    <path class="a3e3cc1b-8d77-44c9-bc40-1fd9c6d92a3d" d="M130.26,66.94l.86.11a2.28,2.28,0,0,1-.73,1.4A2,2,0,0,1,129,69a2.2,2.2,0,0,1-1.71-.7,2.78,2.78,0,0,1-.65-2,3.56,3.56,0,0,1,.28-1.47,1.91,1.91,0,0,1,.85-1,2.65,2.65,0,0,1,1.24-.31,2.28,2.28,0,0,1,1.38.43,2.07,2.07,0,0,1,.69,1.21l-.85.13a1.5,1.5,0,0,0-.43-.79,1.2,1.2,0,0,0-.75-.26,1.37,1.37,0,0,0-1.08.48,2.23,2.23,0,0,0-.43,1.51,2.27,2.27,0,0,0,.4,1.52,1.28,1.28,0,0,0,1,.47,1.21,1.21,0,0,0,.86-.32A1.6,1.6,0,0,0,130.26,66.94Z"/>
    <path class="a3e3cc1b-8d77-44c9-bc40-1fd9c6d92a3d" d="M135.42,67.17l.91.11a2.21,2.21,0,0,1-.8,1.24,2.48,2.48,0,0,1-4-2.26,2.88,2.88,0,0,1,.67-2,2.3,2.3,0,0,1,1.75-.72,2.24,2.24,0,0,1,1.7.71,2.87,2.87,0,0,1,.66,2v.23H132.5a1.91,1.91,0,0,0,.48,1.31,1.41,1.41,0,0,0,1.08.46,1.33,1.33,0,0,0,.83-.25A1.66,1.66,0,0,0,135.42,67.17Zm-2.92-1.42h2.9a1.84,1.84,0,0,0-.33-1,1.37,1.37,0,0,0-1.09-.51,1.41,1.41,0,0,0-1,.4A1.63,1.63,0,0,0,132.5,65.75Z"/>
    <path class="a3e3cc1b-8d77-44c9-bc40-1fd9c6d92a3d" d="M137.43,68.84V63.66h.79v.79a2.1,2.1,0,0,1,.56-.73,1.09,1.09,0,0,1,.56-.18,1.8,1.8,0,0,1,.9.28l-.3.81a1.36,1.36,0,0,0-.64-.19.87.87,0,0,0-.52.17.93.93,0,0,0-.33.48,3.46,3.46,0,0,0-.15,1v2.75Z"/>
  </g>
  <rect class="a3e3cc1b-8d77-44c9-bc40-1fd9c6d92a3d" x="41.08" y="0.61" width="54.67" height="54.67" rx="3"/>
  <path class="e231009a-e95e-4094-a2f7-4f49822d5610" d="M92.75,55.86H44.09a3.58,3.58,0,0,1-3.58-3.58V3.62A3.58,3.58,0,0,1,44.09,0H92.75a3.58,3.58,0,0,1,3.58,3.58V52.28A3.59,3.59,0,0,1,92.75,55.86ZM44.09,1.19a2.43,2.43,0,0,0-2.43,2.43V52.28a2.43,2.43,0,0,0,2.43,2.43H92.75a2.43,2.43,0,0,0,2.43-2.43V3.62a2.43,2.43,0,0,0-2.43-2.43Z"/>
  <path class="e231009a-e95e-4094-a2f7-4f49822d5610" d="M173.93,55.82h-3.46V54.67h3.42Zm-6.32,0h-3.42V54.67h3.42Zm-6.28,0h-3.42V54.67h3.42Zm-6.28,0h-3.42V54.67h3.42Zm-6.27,0h-3.43V54.67h3.43Zm-6.28,0h-3.43V54.67h3.43Zm-6.28,0h-3.43V54.67h3.43Zm-6.28,0h-3.43V54.67h3.43Zm-6.5-.48a3.61,3.61,0,0,1-1.79-3.1V52h1.15v.28a2.44,2.44,0,0,0,1.22,2.1Zm53.39-1.05-1-.66a2.39,2.39,0,0,0,.44-1.39v-1.6h1.15v1.6A3.58,3.58,0,0,1,176.83,54.29Zm-54-5.18h-1.15V45.69h1.15Zm54.67-1.32h-1.15V44.37h1.15Zm-54.67-5h-1.15V39.41h1.15Zm54.67-1.32h-1.15V38.09h1.15Zm-54.67-5h-1.15V33.13h1.15Zm54.67-1.32h-1.15V31.81h1.15Zm-54.67-5h-1.15V26.85h1.15ZM177.47,29h-1.15V25.53h1.15ZM122.8,24h-1.15V20.57h1.15Zm54.67-1.33h-1.15V19.25h1.15Zm-54.67-5h-1.15V14.29h1.15Zm54.67-1.32h-1.15V13h1.15Zm-54.67-5h-1.15V8h1.15Zm54.67-1.32h-1.15V6.69h1.15Zm-54.67-5h-1.15V3.58a3.53,3.53,0,0,1,.66-2.06l.94.66a2.36,2.36,0,0,0-.45,1.4Zm54.67-1.32h-1.15V3.58a2.43,2.43,0,0,0-1.23-2.11l.57-1a3.59,3.59,0,0,1,1.81,3.11Zm-4.88-2.69h-3.43V0h3.43Zm-6.28,0h-3.42V0h3.42Zm-6.28,0h-3.42V0H160Zm-6.28,0h-3.42V0h3.42Zm-6.28,0h-3.42V0h3.42Zm-6.28,0h-3.42V0h3.42Zm-6.27,0h-3.43V0h3.43Zm-6.28,0h-3.41l0-1.15h3.43Z"/>
  <circle class="f0840990-9447-431e-9d52-fc710c46fb20" cx="113.25" cy="27.95" r="1.44"/>
  <circle class="f0840990-9447-431e-9d52-fc710c46fb20" cx="108.65" cy="27.95" r="1.44"/>
  <circle class="f0840990-9447-431e-9d52-fc710c46fb20" cx="104.04" cy="27.95" r="1.44"/>
  <g>
    <rect class="e231009a-e95e-4094-a2f7-4f49822d5610" x="68.17" y="19.86" width="1.68" height="16.21"/>
    <rect class="e231009a-e95e-4094-a2f7-4f49822d5610" x="60.74" y="19.86" width="1.68" height="16.21" transform="translate(31.42 -32.57) rotate(39.1)"/>
    <rect class="e231009a-e95e-4094-a2f7-4f49822d5610" x="75.6" y="19.86" width="1.68" height="16.21" transform="translate(153.39 1.46) rotate(140.9)"/>
    <circle class="e231009a-e95e-4094-a2f7-4f49822d5610" cx="69.01" cy="18.75" r="5.07"/>
    <circle class="e231009a-e95e-4094-a2f7-4f49822d5610" cx="69.01" cy="36.31" r="5.07"/>
    <circle class="e231009a-e95e-4094-a2f7-4f49822d5610" cx="54.82" cy="36.31" r="5.07"/>
    <circle class="e231009a-e95e-4094-a2f7-4f49822d5610" cx="82.52" cy="36.31" r="5.07"/>
  </g>
  <g>
    <rect class="e231009a-e95e-4094-a2f7-4f49822d5610" x="149.17" y="19.86" width="1.68" height="16.21"/>
    <rect class="e231009a-e95e-4094-a2f7-4f49822d5610" x="141.74" y="19.86" width="1.68" height="16.21" transform="translate(49.56 -83.65) rotate(39.1)"/>
    <rect class="e231009a-e95e-4094-a2f7-4f49822d5610" x="156.6" y="19.86" width="1.68" height="16.21" transform="translate(297.25 -49.62) rotate(140.9)"/>
    <circle class="e231009a-e95e-4094-a2f7-4f49822d5610" cx="150.01" cy="18.75" r="5.07"/>
    <circle class="e231009a-e95e-4094-a2f7-4f49822d5610" cx="150.01" cy="36.31" r="5.07"/>
    <circle class="e231009a-e95e-4094-a2f7-4f49822d5610" cx="135.82" cy="36.31" r="5.07"/>
    <circle class="e231009a-e95e-4094-a2f7-4f49822d5610" cx="163.52" cy="36.31" r="5.07"/>
  </g>
  <g>
    <path class="a3e3cc1b-8d77-44c9-bc40-1fd9c6d92a3d" d="M50.1,177.17l-.12-.11a6.26,6.26,0,0,0-4.11-1.62c-1.1-1.23-3.68-4-5.26-5.64a18.79,18.79,0,0,0,3.81-4.2h1.93a1.18,1.18,0,0,0,1.18-1.18h0v-.56a1.28,1.28,0,0,0,0-.39,1.21,1.21,0,0,0,0-.38v-.56a1.19,1.19,0,0,0-1-1.17A20.72,20.72,0,0,0,47.7,154a22.86,22.86,0,0,0-.85-6,1.18,1.18,0,0,0-1.49-.59,10.55,10.55,0,0,0-4.6,3.67,29.39,29.39,0,0,0-6.76,0,9.76,9.76,0,0,0-4.54-3.68,1.18,1.18,0,0,0-1.52.47,14.31,14.31,0,0,0-1.09,6.27.61.61,0,0,0,0,.19,24.53,24.53,0,0,0,.46,3.92,37.78,37.78,0,0,0-13.79,7.82,9.6,9.6,0,0,1-1.46-3.72,4.65,4.65,0,0,1,.93-3.65,4,4,0,0,1,3.41-1.48h.81a2,2,0,0,0,.23.52c.86,1.29,3.14,1.37,4.11,1.37a8.19,8.19,0,0,0,3.31-.63,1.18,1.18,0,0,0,.44-1.6,8.05,8.05,0,0,0-5.74-3.29,2.35,2.35,0,0,0-1,.19,2.4,2.4,0,0,0-.63.45,11.41,11.41,0,0,0-1.65-.09,7,7,0,0,0-5.73,2.59A7.69,7.69,0,0,0,9,162.8a13.44,13.44,0,0,0,2.34,5.48l-.1.1C8.11,172,4.5,177.11,4.5,178.59V179a1.17,1.17,0,0,0,1.16,1.19h4.92A1.18,1.18,0,0,0,11.76,179a1.23,1.23,0,0,0,0-.19l-.08-.45a4.82,4.82,0,0,1,1.14-3.66,5.57,5.57,0,0,1,2.5-1.78A51.65,51.65,0,0,0,21,177.5a1.22,1.22,0,0,0,.67.22h3.63a1.18,1.18,0,0,0,1.18-1.18h0v-.39a2.46,2.46,0,0,0-1.13-2,3.37,3.37,0,0,0-1.86-.52H23a3.76,3.76,0,0,1-.36-.79c7.74,1,15.06,4.45,22,8a1.14,1.14,0,0,0,.55.13H49.8A1.16,1.16,0,0,0,51,180v-.3A3.19,3.19,0,0,0,50.1,177.17Z"/>
    <path class="b38c109a-b811-4fe1-a255-64972c93f96e" d="M13.3,169.09A25.31,25.31,0,0,0,15,171a7.52,7.52,0,0,0-3.64,2.42,6.9,6.9,0,0,0-1.63,4.82H6.57a44.7,44.7,0,0,1,6.73-9.15Zm35.72,10H45.28c-8.6-4.5-16.13-7.67-24.18-8.35a15.14,15.14,0,0,1,.6-3.78l-.77-.21a17.42,17.42,0,0,0-.63,3.93c-.81,0-1.64-.08-2.49-.08a10.86,10.86,0,0,0-2,.18,26.32,26.32,0,0,1-2-2.23,34.24,34.24,0,0,1,15.06-8.64,18.27,18.27,0,0,0,8.62,10.69l.84-.52,6.85,7.31h.28a3.71,3.71,0,0,1,3.17,1.17,1.65,1.65,0,0,1,.41.6Z"/>
    <path class="b499cae5-845e-448e-886a-514e470646cd" d="M45.72,154.63A16.44,16.44,0,0,1,37.6,169.5c-8.22-4.11-9.71-14.39-8.33-19.94.39,2.12,1.1,3.45,2.62,4.11a22.87,22.87,0,0,1,11.24-.1,6.34,6.34,0,0,0,2.25-3.94,32.26,32.26,0,0,1,.31,5Z"/>
    <path class="f59b7637-23e6-4017-a96f-24da1af14631" d="M25.15,161l1.25,3.7-3.78-2.54Zm-3.64,1.62,1.37,2.3-2.82-1.37Zm-3,1.82.64,2.3-1.94-1.37Zm20.65,6.15-1.21,1.85,2.13-1ZM41,172.7l-1.93,1.48,2.74-.7Zm-4.73-20,1.37,3.13.93-3.17ZM29,157.26l2.25,1.2-2,.14Zm.56,2.45,1.37.56-1.17.31Zm16.17-1.56-1.86.78,1.52.23ZM45,160.41l-1.37.41,1.15.41Zm-16.72,3.45h4.46v.56H28.29Zm0-1.37h4.46v.56H28.29Zm13.62,1.37h4.47v.56H41.91Zm0-1.37h4.47v.56H41.91Zm-1.59-3.22H33.07v-.49h2.25a4.53,4.53,0,0,0,0-2.91.65.65,0,0,0-.63-.35,2.14,2.14,0,0,0-1.84,1.37l-.46-.18A2.75,2.75,0,0,1,34.71,155a1.14,1.14,0,0,1,1,.61,4.76,4.76,0,0,1,.08,3.18h4a3.19,3.19,0,0,1,3.45-2.27V157a2.73,2.73,0,0,0-3,1.8h2.16v.5Z"/>
    <path class="f59b7637-23e6-4017-a96f-24da1af14631" d="M40.67,161.75a2.76,2.76,0,0,1-.57-2.47h-.5a2.73,2.73,0,0,0,.33,2.14h-5a11.5,11.5,0,0,0,.81-2.14H35.2a10.61,10.61,0,0,1-.92,2.26l-.11.21L37,163.53l-1.59,1.05.27.41,1.78-1.17,1.94,1.24.27-.41-1.78-1.09,2.74-1.83Zm-3.21,1.49-2.09-1.37h4.1ZM46.55,154a21.94,21.94,0,0,0-.76-5.47c-1.37.52-3.77,2.15-4.33,3.85a27.29,27.29,0,0,0-8.22.09c-.41-1.82-2.61-3.2-4.27-4a13.35,13.35,0,0,0-.93,5.83h0a18.57,18.57,0,0,0,9.48,16.24,18.24,18.24,0,0,0,9-16.43Zm-4.45-1.56-.33,0h0Zm3.95,2.15a16.43,16.43,0,0,1-8.11,14.88c-8.21-4.11-9.72-14.4-8.32-19.94.38,2.12,1.09,3.45,2.61,4.11a22.87,22.87,0,0,1,11.24-.1,6.36,6.36,0,0,0,2.25-3.94,32.26,32.26,0,0,1,.31,5Z"/>
    <path class="f59b7637-23e6-4017-a96f-24da1af14631" d="M49.21,178a5.27,5.27,0,0,0-3.86-1.37c-1-1.16-6.63-7.12-6.63-7.12l-.38.51,6.84,7.34h.28a3.79,3.79,0,0,1,3.17,1.16,1.94,1.94,0,0,1,.39.6H45.27c-8.6-4.49-16.16-7.65-24.17-8.35a15.14,15.14,0,0,1,.6-3.78l-.77-.2a17.42,17.42,0,0,0-.63,3.93c-.82-.07-1.65-.1-2.49-.1a10.86,10.86,0,0,0-2,.18,28.29,28.29,0,0,1-2-2.23A34.15,34.15,0,0,1,29,159.84l-.17-.75a35.28,35.28,0,0,0-15.52,8.75,11.87,11.87,0,0,1-2.46-5.35,5.85,5.85,0,0,1,1.2-4.58c1.58-1.93,3.86-2.08,6.2-1.68a1.46,1.46,0,0,0,.14.94c.61.92,3.94,1.24,5.91.35-1.45-2-4.42-3-5.24-2.66a1.35,1.35,0,0,0-.62.67,14.54,14.54,0,0,0-2.19-.25,5.9,5.9,0,0,0-4.81,2.2,6.6,6.6,0,0,0-1.37,5.16,13.08,13.08,0,0,0,2.74,5.8l-.75.77c-3.71,4.11-6.42,8.61-6.42,9.35V179h4.9l-.08-.45a6,6,0,0,1,1.37-4.65,6.79,6.79,0,0,1,3.72-2.28,48.13,48.13,0,0,0,6.08,5H25.3v-.38a1.26,1.26,0,0,0-.6-1.07,2.75,2.75,0,0,0-2.28-.13,5.57,5.57,0,0,1-1.36-3.46c7.88.7,15.46,3.89,24,8.34H49.7v-.3a2.13,2.13,0,0,0-.65-1.56Zm-37.86-4.64a7,7,0,0,0-1.63,4.82H6.57A45.07,45.07,0,0,1,13.3,169c.51.63,1.07,1.25,1.69,1.89A7.63,7.63,0,0,0,11.35,173.32Z"/>
  </g>
  <g>
    <path class="a3e3cc1b-8d77-44c9-bc40-1fd9c6d92a3d" d="M130.1,177.17l-.12-.11a6.26,6.26,0,0,0-4.11-1.62c-1.1-1.23-3.68-4-5.26-5.64a18.79,18.79,0,0,0,3.81-4.2h1.93a1.18,1.18,0,0,0,1.18-1.18h0v-.56a1.28,1.28,0,0,0,0-.39,1.21,1.21,0,0,0,0-.38v-.56a1.19,1.19,0,0,0-1-1.17A20.72,20.72,0,0,0,127.7,154a22.86,22.86,0,0,0-.85-6,1.18,1.18,0,0,0-1.49-.59,10.55,10.55,0,0,0-4.6,3.67,29.39,29.39,0,0,0-6.76,0,9.76,9.76,0,0,0-4.54-3.68,1.18,1.18,0,0,0-1.52.47,14.31,14.31,0,0,0-1.09,6.27.61.61,0,0,0,0,.19,24.53,24.53,0,0,0,.46,3.92,37.78,37.78,0,0,0-13.79,7.82,9.6,9.6,0,0,1-1.46-3.72,4.65,4.65,0,0,1,.93-3.65,4,4,0,0,1,3.41-1.48h.81a2,2,0,0,0,.23.52c.86,1.29,3.14,1.37,4.11,1.37a8.19,8.19,0,0,0,3.31-.63,1.18,1.18,0,0,0,.44-1.6,8.05,8.05,0,0,0-5.74-3.29,2.35,2.35,0,0,0-1,.19,2.4,2.4,0,0,0-.63.45,11.41,11.41,0,0,0-1.65-.09,7,7,0,0,0-5.73,2.59A7.69,7.69,0,0,0,89,162.8a13.44,13.44,0,0,0,2.34,5.48l-.1.1c-3.11,3.57-6.72,8.73-6.72,10.21V179a1.17,1.17,0,0,0,1.16,1.19h4.92A1.18,1.18,0,0,0,91.76,179a1.23,1.23,0,0,0,0-.19l-.08-.45a4.82,4.82,0,0,1,1.14-3.66,5.57,5.57,0,0,1,2.5-1.78A51.65,51.65,0,0,0,101,177.5a1.22,1.22,0,0,0,.67.22h3.63a1.18,1.18,0,0,0,1.18-1.18h0v-.39a2.46,2.46,0,0,0-1.13-2,3.37,3.37,0,0,0-1.86-.52H103a3.76,3.76,0,0,1-.36-.79c7.74,1,15.06,4.45,22,8a1.14,1.14,0,0,0,.55.13h4.68a1.16,1.16,0,0,0,1.16-1v-.3A3.19,3.19,0,0,0,130.1,177.17Z"/>
    <path class="b38c109a-b811-4fe1-a255-64972c93f96e" d="M93.3,169.09A25.31,25.31,0,0,0,95,171a7.52,7.52,0,0,0-3.64,2.42,6.9,6.9,0,0,0-1.63,4.82H86.57a44.7,44.7,0,0,1,6.73-9.15Zm35.72,10h-3.74c-8.6-4.5-16.13-7.67-24.18-8.35a15.14,15.14,0,0,1,.6-3.78l-.77-.21a17.42,17.42,0,0,0-.63,3.93c-.81,0-1.64-.08-2.49-.08a10.86,10.86,0,0,0-2,.18,26.32,26.32,0,0,1-2-2.23,34.24,34.24,0,0,1,15.06-8.64,18.27,18.27,0,0,0,8.62,10.69l.84-.52,6.85,7.31h.28a3.71,3.71,0,0,1,3.17,1.17,1.65,1.65,0,0,1,.41.6Z"/>
    <path class="b499cae5-845e-448e-886a-514e470646cd" d="M125.72,154.63a16.44,16.44,0,0,1-8.12,14.87c-8.22-4.11-9.71-14.39-8.33-19.94.39,2.12,1.1,3.45,2.62,4.11a22.87,22.87,0,0,1,11.24-.1,6.34,6.34,0,0,0,2.25-3.94,32.26,32.26,0,0,1,.31,5Z"/>
    <path class="f59b7637-23e6-4017-a96f-24da1af14631" d="M105.15,161l1.25,3.7-3.78-2.54Zm-3.64,1.62,1.37,2.3-2.82-1.37Zm-3,1.82.64,2.3-1.94-1.37Zm20.65,6.15-1.21,1.85,2.13-1ZM121,172.7l-1.93,1.48,2.74-.7Zm-4.73-20,1.37,3.13.93-3.17ZM109,157.26l2.25,1.2-2,.14Zm.56,2.45,1.37.56-1.17.31Zm16.17-1.56-1.86.78,1.52.23Zm-.75,2.26-1.37.41,1.15.41Zm-16.72,3.45h4.46v.56h-4.46Zm0-1.37h4.46v.56h-4.46Zm13.62,1.37h4.47v.56h-4.47Zm0-1.37h4.47v.56h-4.47Zm-1.59-3.22h-7.25v-.49h2.25a4.53,4.53,0,0,0,0-2.91.65.65,0,0,0-.63-.35,2.14,2.14,0,0,0-1.84,1.37l-.46-.18a2.75,2.75,0,0,1,2.32-1.75,1.14,1.14,0,0,1,1.05.61,4.76,4.76,0,0,1,.08,3.18h4a3.19,3.19,0,0,1,3.45-2.27V157a2.73,2.73,0,0,0-3,1.8h2.16v.5Z"/>
    <path class="f59b7637-23e6-4017-a96f-24da1af14631" d="M120.67,161.75a2.76,2.76,0,0,1-.57-2.47h-.5a2.73,2.73,0,0,0,.33,2.14h-5a11.5,11.5,0,0,0,.81-2.14h-.52a10.61,10.61,0,0,1-.92,2.26l-.11.21,2.84,1.78-1.59,1.05.27.41,1.78-1.17,1.94,1.24.27-.41-1.78-1.09,2.74-1.83Zm-3.21,1.49-2.09-1.37h4.1Zm9.09-9.22a21.94,21.94,0,0,0-.76-5.47c-1.37.52-3.77,2.15-4.33,3.85a27.29,27.29,0,0,0-8.22.09c-.41-1.82-2.61-3.2-4.27-4a13.35,13.35,0,0,0-.93,5.83h0a18.57,18.57,0,0,0,9.48,16.24,18.24,18.24,0,0,0,9-16.43Zm-4.45-1.56-.33,0h0Zm4,2.15a16.43,16.43,0,0,1-8.11,14.88c-8.21-4.11-9.72-14.4-8.32-19.94.38,2.12,1.09,3.45,2.61,4.11a22.87,22.87,0,0,1,11.24-.1,6.36,6.36,0,0,0,2.25-3.94,32.26,32.26,0,0,1,.31,5Z"/>
    <path class="f59b7637-23e6-4017-a96f-24da1af14631" d="M129.21,178a5.27,5.27,0,0,0-3.86-1.37c-1-1.16-6.63-7.12-6.63-7.12l-.38.51,6.84,7.34h.28a3.79,3.79,0,0,1,3.17,1.16,1.94,1.94,0,0,1,.39.6h-3.75c-8.6-4.49-16.16-7.65-24.17-8.35a15.14,15.14,0,0,1,.6-3.78l-.77-.2a17.42,17.42,0,0,0-.63,3.93c-.82-.07-1.65-.1-2.49-.1a10.86,10.86,0,0,0-2,.18,28.29,28.29,0,0,1-2-2.23A34.15,34.15,0,0,1,109,159.84l-.17-.75a35.28,35.28,0,0,0-15.52,8.75,11.87,11.87,0,0,1-2.46-5.35,5.85,5.85,0,0,1,1.2-4.58c1.58-1.93,3.86-2.08,6.2-1.68a1.46,1.46,0,0,0,.14.94c.61.92,3.94,1.24,5.91.35-1.45-2-4.42-3-5.24-2.66a1.35,1.35,0,0,0-.62.67,14.54,14.54,0,0,0-2.19-.25,5.9,5.9,0,0,0-4.81,2.2,6.6,6.6,0,0,0-1.37,5.16,13.08,13.08,0,0,0,2.74,5.8l-.75.77c-3.71,4.11-6.42,8.61-6.42,9.35V179h4.9l-.08-.45a6,6,0,0,1,1.37-4.65,6.79,6.79,0,0,1,3.72-2.28,48.13,48.13,0,0,0,6.08,5h3.63v-.38a1.26,1.26,0,0,0-.6-1.07,2.75,2.75,0,0,0-2.28-.13,5.57,5.57,0,0,1-1.36-3.46c7.88.7,15.46,3.89,24,8.34h4.68v-.3a2.13,2.13,0,0,0-.65-1.56Zm-37.86-4.64a7,7,0,0,0-1.63,4.82H86.57A45.07,45.07,0,0,1,93.3,169c.51.63,1.07,1.25,1.69,1.89A7.63,7.63,0,0,0,91.35,173.32Z"/>
  </g>
  <g>
    <path class="a3e3cc1b-8d77-44c9-bc40-1fd9c6d92a3d" d="M211.1,177.17l-.12-.11a6.26,6.26,0,0,0-4.11-1.62c-1.1-1.23-3.68-4-5.26-5.64a18.79,18.79,0,0,0,3.81-4.2h1.93a1.18,1.18,0,0,0,1.18-1.18h0v-.56a1.28,1.28,0,0,0,0-.39,1.21,1.21,0,0,0,0-.38v-.56a1.19,1.19,0,0,0-1-1.17A20.72,20.72,0,0,0,208.7,154a22.86,22.86,0,0,0-.85-6,1.18,1.18,0,0,0-1.49-.59,10.55,10.55,0,0,0-4.6,3.67,29.39,29.39,0,0,0-6.76,0,9.76,9.76,0,0,0-4.54-3.68,1.18,1.18,0,0,0-1.52.47,14.31,14.31,0,0,0-1.09,6.27.61.61,0,0,0,0,.19,24.53,24.53,0,0,0,.46,3.92,37.78,37.78,0,0,0-13.79,7.82,9.6,9.6,0,0,1-1.46-3.72,4.65,4.65,0,0,1,.93-3.65,4,4,0,0,1,3.41-1.48h.81a2,2,0,0,0,.23.52c.86,1.29,3.14,1.37,4.11,1.37a8.19,8.19,0,0,0,3.31-.63,1.18,1.18,0,0,0,.44-1.6,8.05,8.05,0,0,0-5.74-3.29,2.35,2.35,0,0,0-1,.19,2.4,2.4,0,0,0-.63.45,11.41,11.41,0,0,0-1.65-.09,7,7,0,0,0-5.73,2.59A7.69,7.69,0,0,0,170,162.8a13.44,13.44,0,0,0,2.34,5.48l-.1.1c-3.11,3.57-6.72,8.73-6.72,10.21V179a1.17,1.17,0,0,0,1.16,1.19h4.92a1.18,1.18,0,0,0,1.18-1.18,1.23,1.23,0,0,0,0-.19l-.08-.45a4.82,4.82,0,0,1,1.14-3.66,5.57,5.57,0,0,1,2.5-1.78A51.65,51.65,0,0,0,182,177.5a1.22,1.22,0,0,0,.67.22h3.63a1.18,1.18,0,0,0,1.18-1.18h0v-.39a2.46,2.46,0,0,0-1.13-2,3.37,3.37,0,0,0-1.86-.52H184a3.76,3.76,0,0,1-.36-.79c7.74,1,15.06,4.45,22,8a1.14,1.14,0,0,0,.55.13h4.68a1.16,1.16,0,0,0,1.16-1v-.3A3.19,3.19,0,0,0,211.1,177.17Z"/>
    <path class="b38c109a-b811-4fe1-a255-64972c93f96e" d="M174.3,169.09A25.31,25.31,0,0,0,176,171a7.52,7.52,0,0,0-3.64,2.42,6.9,6.9,0,0,0-1.63,4.82h-3.15a44.7,44.7,0,0,1,6.73-9.15Zm35.72,10h-3.74c-8.6-4.5-16.13-7.67-24.18-8.35a15.14,15.14,0,0,1,.6-3.78l-.77-.21a17.42,17.42,0,0,0-.63,3.93c-.81,0-1.64-.08-2.49-.08a10.86,10.86,0,0,0-2,.18,26.32,26.32,0,0,1-2-2.23,34.24,34.24,0,0,1,15.06-8.64,18.27,18.27,0,0,0,8.62,10.69l.84-.52,6.85,7.31h.28a3.71,3.71,0,0,1,3.17,1.17,1.65,1.65,0,0,1,.41.6Z"/>
    <path class="b499cae5-845e-448e-886a-514e470646cd" d="M206.72,154.63a16.44,16.44,0,0,1-8.12,14.87c-8.22-4.11-9.71-14.39-8.33-19.94.39,2.12,1.1,3.45,2.62,4.11a22.87,22.87,0,0,1,11.24-.1,6.34,6.34,0,0,0,2.25-3.94,32.26,32.26,0,0,1,.31,5Z"/>
    <path class="f59b7637-23e6-4017-a96f-24da1af14631" d="M186.15,161l1.25,3.7-3.78-2.54Zm-3.64,1.62,1.37,2.3-2.82-1.37Zm-3,1.82.64,2.3-1.94-1.37Zm20.65,6.15-1.21,1.85,2.13-1ZM202,172.7l-1.93,1.48,2.74-.7Zm-4.73-20,1.37,3.13.93-3.17ZM190,157.26l2.25,1.2-2,.14Zm.56,2.45,1.37.56-1.17.31Zm16.17-1.56-1.86.78,1.52.23Zm-.75,2.26-1.37.41,1.15.41Zm-16.72,3.45h4.46v.56h-4.46Zm0-1.37h4.46v.56h-4.46Zm13.62,1.37h4.47v.56h-4.47Zm0-1.37h4.47v.56h-4.47Zm-1.59-3.22h-7.25v-.49h2.25a4.53,4.53,0,0,0,0-2.91.65.65,0,0,0-.63-.35,2.14,2.14,0,0,0-1.84,1.37l-.46-.18a2.75,2.75,0,0,1,2.32-1.75,1.14,1.14,0,0,1,1,.61,4.76,4.76,0,0,1,.08,3.18h4a3.19,3.19,0,0,1,3.45-2.27V157a2.73,2.73,0,0,0-3,1.8h2.16v.5Z"/>
    <path class="f59b7637-23e6-4017-a96f-24da1af14631" d="M201.67,161.75a2.76,2.76,0,0,1-.57-2.47h-.5a2.73,2.73,0,0,0,.33,2.14h-5a11.5,11.5,0,0,0,.81-2.14h-.52a10.61,10.61,0,0,1-.92,2.26l-.11.21,2.84,1.78-1.59,1.05.27.41,1.78-1.17,1.94,1.24.27-.41-1.78-1.09,2.74-1.83Zm-3.21,1.49-2.09-1.37h4.1Zm9.09-9.22a21.94,21.94,0,0,0-.76-5.47c-1.37.52-3.77,2.15-4.33,3.85a27.29,27.29,0,0,0-8.22.09c-.41-1.82-2.61-3.2-4.27-4a13.35,13.35,0,0,0-.93,5.83h0a18.57,18.57,0,0,0,9.48,16.24,18.24,18.24,0,0,0,9-16.43Zm-4.45-1.56-.33,0h0Zm3.95,2.15a16.43,16.43,0,0,1-8.11,14.88c-8.21-4.11-9.72-14.4-8.32-19.94.38,2.12,1.09,3.45,2.61,4.11a22.87,22.87,0,0,1,11.24-.1,6.36,6.36,0,0,0,2.25-3.94,32.26,32.26,0,0,1,.31,5Z"/>
    <path class="f59b7637-23e6-4017-a96f-24da1af14631" d="M210.21,178a5.27,5.27,0,0,0-3.86-1.37c-1-1.16-6.63-7.12-6.63-7.12l-.38.51,6.84,7.34h.28a3.79,3.79,0,0,1,3.17,1.16,1.94,1.94,0,0,1,.39.6h-3.75c-8.6-4.49-16.16-7.65-24.17-8.35a15.14,15.14,0,0,1,.6-3.78l-.77-.2a17.42,17.42,0,0,0-.63,3.93c-.82-.07-1.65-.1-2.49-.1a10.86,10.86,0,0,0-2,.18,28.29,28.29,0,0,1-2-2.23A34.15,34.15,0,0,1,190,159.84l-.17-.75a35.28,35.28,0,0,0-15.52,8.75,11.87,11.87,0,0,1-2.46-5.35,5.85,5.85,0,0,1,1.2-4.58c1.58-1.93,3.86-2.08,6.2-1.68a1.46,1.46,0,0,0,.14.94c.61.92,3.94,1.24,5.91.35-1.45-2-4.42-3-5.24-2.66a1.35,1.35,0,0,0-.62.67,14.54,14.54,0,0,0-2.19-.25,5.9,5.9,0,0,0-4.81,2.2,6.6,6.6,0,0,0-1.37,5.16,13.08,13.08,0,0,0,2.74,5.8l-.75.77c-3.71,4.11-6.42,8.61-6.42,9.35V179h4.9l-.08-.45a6,6,0,0,1,1.37-4.65,6.79,6.79,0,0,1,3.72-2.28,48.13,48.13,0,0,0,6.08,5h3.63v-.38a1.26,1.26,0,0,0-.6-1.07,2.75,2.75,0,0,0-2.28-.13,5.57,5.57,0,0,1-1.36-3.46c7.88.7,15.46,3.89,24,8.34h4.68v-.3a2.13,2.13,0,0,0-.65-1.56Zm-37.86-4.64a7,7,0,0,0-1.63,4.82h-3.15A45.07,45.07,0,0,1,174.3,169c.51.63,1.07,1.25,1.69,1.89A7.63,7.63,0,0,0,172.35,173.32Z"/>
  </g>
</svg>
