<svg id="1dd85017-310c-4689-a3e2-cef0ab242232" data-name="Слой 1" xmlns="http://www.w3.org/2000/svg" viewBox="0 0 32 31.16"><title>kubernetes_32svg</title><path d="M10.22,31.08a2.44,2.44,0,0,1-1.92-.93l-7.24-9A2.43,2.43,0,0,1,.57,19L3.16,7.81A2.45,2.45,0,0,1,4.51,6.13L15,1.12a2.46,2.46,0,0,1,2.15,0l10.47,5a2.45,2.45,0,0,1,1.34,1.68L31.53,19a2.5,2.5,0,0,1-.48,2.11l-7.24,9a2.5,2.5,0,0,1-1.92.93l-11.67,0Z" transform="translate(0 -0.42)" fill="#326de6"/><path d="M16,1.39a2,2,0,0,1,.85.19l10.47,5a2,2,0,0,1,1.08,1.34L31,19.15a1.93,1.93,0,0,1-.39,1.7l-7.24,9a2,2,0,0,1-1.55.74H10.22a2,2,0,0,1-1.55-.74l-7.24-9A2.07,2.07,0,0,1,1,19.15L3.62,7.91A2,2,0,0,1,4.69,6.56l10.47-5A2.49,2.49,0,0,1,16,1.39Zm0-1h0a3.13,3.13,0,0,0-1.28.29l-10.47,5a2.93,2.93,0,0,0-1.61,2L.08,19a2.93,2.93,0,0,0,.58,2.52l7.24,9a2.92,2.92,0,0,0,2.3,1.1H21.8a2.92,2.92,0,0,0,2.3-1.1l7.24-9A2.92,2.92,0,0,0,31.92,19L29.34,7.72a2.93,2.93,0,0,0-1.61-2L17.29.71A3,3,0,0,0,16,.42Z" transform="translate(0 -0.42)" fill="#fff"/><path d="M26.52,18.26h0s0,0,0,0l-.12,0a2.83,2.83,0,0,0-.39,0,.78.78,0,0,1-.21,0h0A5.46,5.46,0,0,1,24.6,18a.4.4,0,0,1-.23-.23s0,0,0,0h0l-.27-.08a8.18,8.18,0,0,0-.14-2.92A8.53,8.53,0,0,0,22.78,12L23,11.8v0a.47.47,0,0,1,.1-.31,6,6,0,0,1,.93-.64h0l.19-.1a3.11,3.11,0,0,0,.35-.21l.1-.08s0,0,0,0h0a.69.69,0,0,0,.14-.93.59.59,0,0,0-.48-.23.77.77,0,0,0-.46.17h0l0,0s-.06.06-.1.08a3.44,3.44,0,0,0-.27.29,1,1,0,0,1-.14.14h0a5.26,5.26,0,0,1-.83.74.33.33,0,0,1-.19.06.26.26,0,0,1-.12,0h0l-.25.17a10,10,0,0,0-.85-.79,8.26,8.26,0,0,0-4.32-1.72l0-.27,0,0a.43.43,0,0,1-.17-.27,7.26,7.26,0,0,1,.06-1.12v0a.74.74,0,0,1,0-.21c0-.12,0-.25.06-.39V5.88h0a.63.63,0,0,0-1.1-.48.66.66,0,0,0-.19.48h0V6a1.2,1.2,0,0,0,.06.39c0,.06,0,.12,0,.21v0a5.34,5.34,0,0,1,.06,1.12.43.43,0,0,1-.17.27l0,0h0l0,.27a10.4,10.4,0,0,0-1.12.17,8,8,0,0,0-4.1,2.32l-.21-.14h0l-.12,0a.33.33,0,0,1-.19-.06,5.49,5.49,0,0,1-.83-.77h0a1,1,0,0,0-.14-.14,3.44,3.44,0,0,0-.27-.29l-.1-.08s0,0,0,0h0a.72.72,0,0,0-.46-.17.59.59,0,0,0-.48.23.69.69,0,0,0,.14.93h0s0,0,0,0,.06.06.1.08a3.11,3.11,0,0,0,.35.21.84.84,0,0,1,.19.1h0a6,6,0,0,1,.93.64.38.38,0,0,1,.1.31v0h0l.21.19a.73.73,0,0,0-.1.17,8.06,8.06,0,0,0-1.16,5.46l-.27.08s0,0,0,0a.48.48,0,0,1-.23.23,5.23,5.23,0,0,1-1.12.19h0a.7.7,0,0,0-.21,0,2.83,2.83,0,0,0-.39,0l-.12,0a.08.08,0,0,0-.06,0h0a.68.68,0,0,0-.54.77.64.64,0,0,0,.66.48.46.46,0,0,0,.17,0h0s0,0,0,0l.12,0a2,2,0,0,0,.37-.14l.19-.08h0a5.08,5.08,0,0,1,1.08-.31h0a.46.46,0,0,1,.27.1s0,0,0,0h0l.29,0a8.18,8.18,0,0,0,2.71,3.89,8.38,8.38,0,0,0,.89.6l-.12.27s0,0,0,0a.42.42,0,0,1,0,.33,5.83,5.83,0,0,1-.54,1v0l-.12.17c-.08.1-.14.21-.23.33a.45.45,0,0,0-.06.1.07.07,0,0,1,0,0h0a.65.65,0,0,0,.27.89.55.55,0,0,0,.25.06.74.74,0,0,0,.62-.39h0a.07.07,0,0,1,0,0,.45.45,0,0,1,.06-.1,3.92,3.92,0,0,0,.12-.37l.06-.19h0a4.86,4.86,0,0,1,.43-1,.53.53,0,0,1,.27-.19s0,0,0,0h0l.14-.27a8.08,8.08,0,0,0,2.9.54,7.51,7.51,0,0,0,1.8-.21A9.2,9.2,0,0,0,19,24l.12.23s0,0,0,0a.38.38,0,0,1,.27.19,7.08,7.08,0,0,1,.43,1v0l.06.19a2.62,2.62,0,0,0,.12.37l.06.1a.07.07,0,0,0,0,0h0a.7.7,0,0,0,.62.39.55.55,0,0,0,.25-.06.62.62,0,0,0,.31-.37.75.75,0,0,0,0-.52h0s0,0,0,0a.45.45,0,0,0-.06-.1,1.87,1.87,0,0,0-.23-.33L20.85,25v0a4.64,4.64,0,0,1-.54-1,.58.58,0,0,1,0-.33s0,0,0,0h0l-.1-.25a8.21,8.21,0,0,0,3.6-4.53l.25,0s0,0,0,0a.53.53,0,0,1,.27-.1h0a5.08,5.08,0,0,1,1.08.31h0l.19.08a2,2,0,0,0,.37.14l.12,0a.08.08,0,0,1,.06,0h0a.46.46,0,0,0,.17,0,.7.7,0,0,0,.66-.48.8.8,0,0,0-.6-.68Zm-9.58-1-.91.43-.91-.43-.23-1,.62-.79h1l.62.79-.21,1Zm5.4-2.15a6.52,6.52,0,0,1,.14,2.09l-3.17-.91a.56.56,0,0,1-.39-.66.49.49,0,0,1,.12-.23l2.5-2.26a6.63,6.63,0,0,1,.79,2Zm-1.78-3.21-2.71,1.92a.55.55,0,0,1-.72-.12.46.46,0,0,1-.1-.23l-.19-3.37a6.28,6.28,0,0,1,3.72,1.8Zm-6-1.7.66-.12L15,13.37a.57.57,0,0,1-.56.54.49.49,0,0,1-.25-.06l-2.75-2a6.31,6.31,0,0,1,3.08-1.7Zm-4.08,2.94,2.46,2.19a.55.55,0,0,1,.06.77.41.41,0,0,1-.25.17l-3.21.93a6.66,6.66,0,0,1,.93-4.06Zm-.56,5.61,3.29-.56a.56.56,0,0,1,.58.43.59.59,0,0,1,0,.33h0l-1.26,3a6.52,6.52,0,0,1-2.59-3.25Zm7.55,4.12A6.76,6.76,0,0,1,16,23a7,7,0,0,1-2.09-.33l1.63-3a.54.54,0,0,1,.66-.14.88.88,0,0,1,.25.23h0l1.59,2.88c-.19.06-.39.1-.6.17Zm4-2.88a6.57,6.57,0,0,1-2,2l-1.3-3.12a.56.56,0,0,1,.29-.64.66.66,0,0,1,.29-.06l3.31.56a4.16,4.16,0,0,1-.6,1.26Z" transform="translate(0 -0.42)" fill="#fff"/></svg>