<svg id="f2fa07fd-8b61-4b54-980e-8558a6ee38b6"  xmlns="http://www.w3.org/2000/svg" width="18.5" height="17.92" viewBox="0 0 18.5 17.92"><path id="5dec2014-a39e-4d39-8ee6-e49a17855831"  d="M9.2.71a1.12,1.12,0,0,0-.44.11L2.85,3.62a1.12,1.12,0,0,0-.62.76L.79,10.75a1.12,1.12,0,0,0,.16.86L1,11.7l4.09,5.08a1.12,1.12,0,0,0,.89.43h6.56a1.12,1.12,0,0,0,.89-.43l4.09-5.09a1.12,1.12,0,0,0,.21-1L16.27,4.4a1.12,1.12,0,0,0-.61-.79L9.75.82A1.12,1.12,0,0,0,9.2.71Z" fill="#326ce5"/><g id="41414bb4-93ed-49fb-b2fb-2f96baca205c" ><path d="M9.19.25a1.2,1.2,0,0,0-.46.11l-6.2,3a1.19,1.19,0,0,0-.65.81L.29,10.85a1.12,1.12,0,0,0,.16.91l.07.09,4.32,5.37a1.2,1.2,0,0,0,.93.45h6.92a1.2,1.2,0,0,0,.93-.45l4.32-5.37a1.12,1.12,0,0,0,.3-1L16.69,4.12A1.19,1.19,0,0,0,16,3.35L9.77.36A1.2,1.2,0,0,0,9.19.25Zm0,.46a1.12,1.12,0,0,1,.55.11l5.92,2.79a1.12,1.12,0,0,1,.62.76l1.46,6.35a1.12,1.12,0,0,1-.21,1l-4.09,5.09a1.12,1.12,0,0,1-.89.43H6a1.12,1.12,0,0,1-.89-.43L1,11.7l-.07-.09a1.12,1.12,0,0,1-.16-.86L2.25,4.4a1.12,1.12,0,0,1,.61-.79L8.76.82A1.12,1.12,0,0,1,9.2.71Z" fill="#fff"/><path d="M12.68,17.92H5.76a1.44,1.44,0,0,1-1.13-.54L.24,11.91A1.38,1.38,0,0,1,0,10.79L1.63,4.1a1.43,1.43,0,0,1,.79-1l6.2-3A1.44,1.44,0,0,1,9.18,0a1.41,1.41,0,0,1,.7.14l6.22,3a1.44,1.44,0,0,1,.84.93l1.54,6.74A1.38,1.38,0,0,1,18.1,12l-4.3,5.35A1.44,1.44,0,0,1,12.68,17.92ZM5,17.05H5a.94.94,0,0,0,.65.35A1.36,1.36,0,0,1,5,17.05ZM9.21,1h0A.87.87,0,0,0,8.87,1L3,3.84a.87.87,0,0,0-.47.61L1,10.81a.88.88,0,0,0,.12.67l.06.08,4.09,5.06a.87.87,0,0,0,.69.33h6.57a.88.88,0,0,0,.68-.33l4.09-5.09a.87.87,0,0,0,.17-.74L16,4.44a.86.86,0,0,0-.48-.59L9.63,1.05A.82.82,0,0,0,9.21,1ZM.5,11.06a.87.87,0,0,0,.15.56h0A1.39,1.39,0,0,1,.5,11.06Z" fill="#fff"/></g><path id="cdfba860-d582-4f74-a4fe-6362b2900f15"  d="M9.26,2.88a.37.37,0,0,0-.36.38h0v.09a3,3,0,0,0,0,.34,3.36,3.36,0,0,1,0,.64.38.38,0,0,1-.11.18v.15a4.6,4.6,0,0,0-.56.08A4.55,4.55,0,0,0,5.89,6.1L5.77,6a.28.28,0,0,1-.21,0,3.36,3.36,0,0,1-.48-.43l-.24-.25-.07-.09a.43.43,0,0,0-.25-.09.34.34,0,0,0-.28.12.37.37,0,0,0,.09.52h0l.09.07L4.77,6a3.3,3.3,0,0,1,.53.37.39.39,0,0,1,.07.2l.11.1a4.58,4.58,0,0,0-.76,3.2H4.57a.49.49,0,0,1-.16.16,3.3,3.3,0,0,1-.64.1H3.35a.36.36,0,1,0,.16.68h.09l.31-.12a3.36,3.36,0,0,1,.62-.18.39.39,0,0,1,.25.15h.16a4.6,4.6,0,0,0,2,2.55l-.07.16a.35.35,0,0,1,0,.2,3.45,3.45,0,0,1-.33.57,3,3,0,0,0-.19.28v.09a.36.36,0,1,0,.63.3H7v-.09a3,3,0,0,0,.1-.33,2.47,2.47,0,0,1,.28-.71.29.29,0,0,1,.16,0l.08-.15a4.58,4.58,0,0,0,3.26,0l.08.13a.28.28,0,0,1,.18.11,3.3,3.3,0,0,1,.25.59,3,3,0,0,0,.1.33v.1a.36.36,0,1,0,.64-.3v-.09a3,3,0,0,0-.19-.28,3.36,3.36,0,0,1-.31-.56.28.28,0,0,1,0-.21l-.06-.15a4.6,4.6,0,0,0,2.05-2.59h.15a.28.28,0,0,1,.2-.08,3.36,3.36,0,0,1,.62.18l.27.16H15a.36.36,0,1,0,.16-.68h-.44a3.3,3.3,0,0,1-.64-.1.39.39,0,0,1-.16-.16h-.15A4.6,4.6,0,0,0,13,6.78l.12-.11a.28.28,0,0,1,.07-.2A3.3,3.3,0,0,1,13.74,6l.34-.17.08-.07a.36.36,0,1,0-.41-.56l-.08.07-.24.25a3.36,3.36,0,0,1-.48.43.39.39,0,0,1-.21,0l-.11.12a4.63,4.63,0,0,0-3-1.41V4.53a.28.28,0,0,1-.11-.18,3.36,3.36,0,0,1,0-.64,3,3,0,0,0,0-.34v-.1A.37.37,0,0,0,9.26,2.88ZM8.81,5.61l-.1,1.86h0a.31.31,0,0,1-.49.24h0L6.69,6.59a3.64,3.64,0,0,1,1.75-1Zm.89,0a3.68,3.68,0,0,1,2.12,1L10.3,7.76h0a.31.31,0,0,1-.49-.24h0ZM6.13,7.33,7.52,8.57h0a.31.31,0,0,1-.12.54h0l-1.78.52a3.64,3.64,0,0,1,.52-2.31Zm6.25,0a3.71,3.71,0,0,1,.54,2.3l-1.79-.52h0A.31.31,0,0,1,11,8.57h0l1.38-1.23ZM9,8.66h.57l.36.44-.12.55-.56.26-.52-.25-.12-.55Zm1.78,1.51h.08l1.84.31a3.64,3.64,0,0,1-1.47,1.85l-.72-1.73h0a.31.31,0,0,1,.15-.4h.12Zm-3.1,0a.31.31,0,0,1,.28.44H8l-.71,1.7A3.67,3.67,0,0,1,5.81,10.5l1.83-.31H7.7Zm1.56.76a.31.31,0,0,1,.28.17h0l.9,1.63-.36.1a3.66,3.66,0,0,1-1.94-.11L9,11.1H9A.31.31,0,0,1,9.26,10.94Z" fill="#fff"/></svg>