<?xml version="1.0" encoding="UTF-8"?>
<svg id="8f953b26-eaae-46b3-acd8-3089845c672f" data-name="47fe80e0-18db-405f-a93f-a1ba9150bd6e" version="1.1" viewBox="0 0 40 30" xmlns="http://www.w3.org/2000/svg" xmlns:cc="http://creativecommons.org/ns#" xmlns:dc="http://purl.org/dc/elements/1.1/" xmlns:rdf="http://www.w3.org/1999/02/22-rdf-syntax-ns#">
 <metadata>
  <rdf:RDF>
   <cc:Work rdf:about="">
    <dc:format>image/svg+xml</dc:format>
    <dc:type rdf:resource="http://purl.org/dc/dcmitype/StillImage"/>
    <dc:title>K_40x30-dt_01</dc:title>
   </cc:Work>
  </rdf:RDF>
 </metadata>
 <title>K_40x30-dt_01</title>
 <g transform="matrix(.97679 0 0 .97679 .49323 -5.9778e-5)" data-name="path68">
  <path d="m31 6.48a2 2 0 0 0-1-1.13l-9.26-4.44a1.78 1.78 0 0 0-0.74-0.16 3.22 3.22 0 0 0-0.76 0.06l-9.34 4.44a1.63 1.63 0 0 0-0.9 1.13l-2.3 10.08a1.93 1.93 0 0 0 0.3 1.46l6.44 8a2.22 2.22 0 0 0 1.4 0.65h10.3a1.53 1.53 0 0 0 1.36-0.67l6.44-8a2.09 2.09 0 0 0 0.36-1.46z" fill="#326de6"/>
  <path d="m25.23 27.31h-10.35a3 3 0 0 1-1.93-0.87l-6.49-8a2.71 2.71 0 0 1-0.46-2.11l2.28-10.12a2.36 2.36 0 0 1 1.29-1.63l9.49-4.5a3.9 3.9 0 0 1 0.94-0.08 2.58 2.58 0 0 1 1 0.23l9.32 4.44a2.71 2.71 0 0 1 1.37 1.56v0.07l2.27 10a2.86 2.86 0 0 1-0.48 2.06l-6.46 8a2.25 2.25 0 0 1-1.79 0.95zm-5.79-25.78-9.22 4.4a0.88 0.88 0 0 0-0.48 0.61l-2.31 10.08a1.17 1.17 0 0 0 0.21 0.86l6.41 8a1.46 1.46 0 0 0 0.88 0.37h10.2a0.83 0.83 0 0 0 0.74-0.34l6.47-8a1.32 1.32 0 0 0 0.2-0.9l-2.24-9.92a1.21 1.21 0 0 0-0.59-0.69l-9.3-4.43a1 1 0 0 0-0.41-0.07 2.63 2.63 0 0 0-0.56 0.03z" fill="#fff"/>
 </g>
 <g transform="matrix(.97679 0 0 .97679 .49323 -5.9778e-5)" data-name="71a2c843-c163-4766-a3f9-d7b9b9d52fa8">
  <path d="m29.6 15.89h-0.19a1.49 1.49 0 0 0-0.36 0 0.38 0.38 0 0 1-0.19 0 6.21 6.21 0 0 1-1-0.19 0.36 0.36 0 0 1-0.22-0.22l-0.21-0.05a8 8 0 0 0-0.12-2.66 8.26 8.26 0 0 0-1.07-2.5l0.19-0.19a0.43 0.43 0 0 1 0.1-0.28 5.46 5.46 0 0 1 0.89-0.61l0.19-0.1 0.34-0.19a0.12 0.12 0 0 0 0.1-0.06v-0.06a0.6 0.6 0 0 0 0.15-0.83 0.59 0.59 0 0 0-0.43-0.22 0.73 0.73 0 0 0-0.47 0s-0.06 0.06-0.1 0.06a2 2 0 0 0-0.24 0.28c0 0.06-0.1 0.1-0.12 0.12a4 4 0 0 1-0.76 0.67 0.43 0.43 0 0 1-0.19 0.06 0.19 0.19 0 0 1-0.12 0l-0.24 0.16c-0.24-0.24-0.52-0.49-0.76-0.73a7.83 7.83 0 0 0-4-1.58v-0.25a0.42 0.42 0 0 1-0.16-0.24 6.09 6.09 0 0 1 0.06-1v-0.22a0.89 0.89 0 0 1 0.06-0.36v-0.22a0.6 0.6 0 0 0-0.52-0.65 0.61 0.61 0 0 0-0.52 0.22 0.6 0.6 0 0 0-0.19 0.43v0.16a1.53 1.53 0 0 0 0.06 0.36 0.38 0.38 0 0 1 0 0.19 5.75 5.75 0 0 1 0.06 1 0.42 0.42 0 0 1-0.16 0.24v0.3a6.5 6.5 0 0 0-1.09 0.16 7.27 7.27 0 0 0-3.75 2.14l-0.19-0.12h-0.12a0.43 0.43 0 0 1-0.19-0.06 5.63 5.63 0 0 1-0.76-0.7c0-0.06-0.1-0.1-0.12-0.12l-0.24-0.25c-0.09-0.1-0.06 0-0.1-0.06a0.73 0.73 0 0 0-0.43-0.16 0.46 0.46 0 0 0-0.43 0.22 0.66 0.66 0 0 0 0.12 0.89s0.06 0.06 0.1 0.06l0.34 0.19 0.19 0.1a4.35 4.35 0 0 1 0.89 0.61 0.3 0.3 0 0 1 0.1 0.28l0.19 0.19c0 0.06-0.06 0.1-0.1 0.16a7.24 7.24 0 0 0-1.07 5l-0.24 0.06a0.48 0.48 0 0 1-0.22 0.22 5.67 5.67 0 0 1-1 0.19 0.38 0.38 0 0 0-0.19 0h-0.55a0.59 0.59 0 0 0-0.49 0.67 0.57 0.57 0 0 0 0.61 0.43 0.28 0.28 0 0 0 0.16 0h0.12l0.34-0.12a0.43 0.43 0 0 1 0.19-0.06 5.44 5.44 0 0 1 0.95-0.2 0.35 0.35 0 0 1 0.24 0.1h0.28a7.37 7.37 0 0 0 2.5 3.55 4.84 4.84 0 0 0 0.83 0.55l-0.16 0.22a0.36 0.36 0 0 1 0 0.3 5 5 0 0 1-0.49 0.89 0.54 0.54 0 0 1-0.12 0.16c-0.06 0.06-0.12 0.19-0.22 0.3s0 0.06-0.06 0.1a0.63 0.63 0 0 0 0.24 0.83 0.57 0.57 0 0 0 0.22 0.06 0.68 0.68 0 0 0 0.59-0.36 0.12 0.12 0 0 1 0.06-0.1c0.06 0 0.1-0.22 0.12-0.34l0.06-0.19a5.17 5.17 0 0 1 0.4-0.95 0.48 0.48 0 0 1 0.24-0.19l0.12-0.24a7.19 7.19 0 0 0 2.66 0.49 6.09 6.09 0 0 0 1.64-0.22 9.12 9.12 0 0 0 1-0.28l0.12 0.22a0.48 0.48 0 0 1 0.24 0.19 5.17 5.17 0 0 1 0.55 1l0.06 0.19a1.09 1.09 0 0 0 0.12 0.34 0.12 0.12 0 0 0 0.06 0.1 0.68 0.68 0 0 0 0.59 0.36 0.72 0.72 0 0 0 0.24-0.06 0.51 0.51 0 0 0 0.28-0.34 0.78 0.78 0 0 0 0-0.46 0.12 0.12 0 0 0-0.06-0.1 1.09 1.09 0 0 0-0.22-0.3 0.54 0.54 0 0 0-0.12-0.16v-0.11a3.6 3.6 0 0 1-0.49-0.89 0.36 0.36 0 0 1 0-0.3l-0.06-0.24a7.55 7.55 0 0 0 3.29-4.15h0.24a0.35 0.35 0 0 1 0.24-0.1 5.13 5.13 0 0 1 1 0.28 0.43 0.43 0 0 0 0.19 0.06 1.63 1.63 0 0 0 0.34 0.16h0.19a0.28 0.28 0 0 0 0.16 0 0.66 0.66 0 0 0 0.61-0.43 0.72 0.72 0 0 0-0.55-0.65zm-8.82-1-0.83 0.4-0.83-0.4-0.22-0.89 0.59-0.73h0.89l0.62 0.73zm5-2a5.85 5.85 0 0 1 0.12 2l-2.95-0.89a0.5 0.5 0 0 1-0.37-0.59 0.5 0.5 0 0 1 0.12-0.22l2.3-2.05a6.21 6.21 0 0 1 0.73 1.78zm-1.67-2.89-2.5 1.78a0.52 0.52 0 0 1-0.67-0.12 0.28 0.28 0 0 1-0.1-0.22l-0.19-3.08a5.74 5.74 0 0 1 3.49 1.64zm-5.52-1.54 0.61-0.12-0.17 3a0.51 0.51 0 0 1-0.52 0.49 0.72 0.72 0 0 1-0.24-0.06l-2.53-1.77a6.09 6.09 0 0 1 2.84-1.55zm-3.72 2.66 2.25 2a0.49 0.49 0 0 1 0.08 0.68 0.34 0.34 0 0 1-0.2 0.2l-3 0.93a6.42 6.42 0 0 1 0.88-3.76zm-0.52 5.16 3-0.47a0.5 0.5 0 0 1 0.52 0.4 0.36 0.36 0 0 1 0 0.3l-1.14 2.79a6 6 0 0 1-2.4-3zm7 3.78a6.21 6.21 0 0 1-1.31 0.16 6.84 6.84 0 0 1-1.93-0.3l1.5-2.72a0.47 0.47 0 0 1 0.61-0.12 1.53 1.53 0 0 1 0.24 0.22l1.42 2.7a5 5 0 0 0-0.61 0.12zm3.65-2.66a5.83 5.83 0 0 1-1.83 1.83l-1.17-2.85a0.5 0.5 0 0 1 0.28-0.59 0.89 0.89 0 0 1 0.28 0l3.05 0.52a4.59 4.59 0 0 1-0.61 1.16z" fill="#fff" data-name="path72"/>
 </g>
 <rect id="72ac1c7c-5c9f-4abc-b22d-974b64b1bd7e" width="40" height="30" fill="none" data-name="rect75"/>
</svg>
