<svg id="8091e586-edff-4bc5-adba-afc35198c0ee" data-name="Слой 1" xmlns="http://www.w3.org/2000/svg" viewBox="0 0 16 15.58"><title>kubernetes_16svg</title><path d="M5.11,15.54a1.22,1.22,0,0,1-1-.47L.53,10.58A1.21,1.21,0,0,1,.29,9.52L1.58,3.9a1.22,1.22,0,0,1,.67-.84L7.49.56a1.23,1.23,0,0,1,1.08,0L13.8,3.05a1.22,1.22,0,0,1,.67.84l1.29,5.62a1.25,1.25,0,0,1-.24,1.06l-3.62,4.5a1.25,1.25,0,0,1-1,.47Z" transform="translate(0 -0.21)" fill="#326de6"/><path d="M8,.7a1,1,0,0,1,.42.09l5.23,2.49a1,1,0,0,1,.54.67l1.29,5.62a1,1,0,0,1-.2.85l-3.62,4.5a1,1,0,0,1-.78.37H5.11a1,1,0,0,1-.78-.37L.71,10.42a1,1,0,0,1-.2-.85L1.81,4a1,1,0,0,1,.54-.67L7.58.78A1.25,1.25,0,0,1,8,.7ZM8,.21H8a1.57,1.57,0,0,0-.64.14L2.14,2.86a1.47,1.47,0,0,0-.81,1L0,9.48a1.47,1.47,0,0,0,.29,1.26l3.62,4.5a1.46,1.46,0,0,0,1.15.55h5.8a1.46,1.46,0,0,0,1.15-.55l3.62-4.5A1.46,1.46,0,0,0,16,9.48L14.67,3.86a1.47,1.47,0,0,0-.81-1L8.65.35A1.48,1.48,0,0,0,8,.21Z" transform="translate(0 -0.21)" fill="#fff"/><path d="M13.26,9.13h0s0,0,0,0h-.06l-.2,0h-.11A2.73,2.73,0,0,1,12.3,9a.2.2,0,0,1-.11-.11s0,0,0,0h0l-.13,0A4.09,4.09,0,0,0,12,7.35,4.26,4.26,0,0,0,11.39,6l.1-.09v0a.23.23,0,0,1,.05-.16A3,3,0,0,1,12,5.4h0l.09-.05.18-.1.05,0s0,0,0,0h0a.35.35,0,0,0,.07-.47.29.29,0,0,0-.24-.11.38.38,0,0,0-.23.08h0l0,0-.05,0-.13.14a.48.48,0,0,1-.07.07h0a2.63,2.63,0,0,1-.41.37.17.17,0,0,1-.09,0h-.08L11,5.44a5,5,0,0,0-.42-.39,4.13,4.13,0,0,0-2.16-.86V4.06l0,0a.22.22,0,0,1-.08-.13,3.63,3.63,0,0,1,0-.56h0a.37.37,0,0,1,0-.1l0-.2V2.94h0A.32.32,0,0,0,7.8,2.7a.33.33,0,0,0-.09.24h0V3a.6.6,0,0,0,0,.2s0,.06,0,.1h0a2.67,2.67,0,0,1,0,.56A.22.22,0,0,1,7.71,4l0,0h0v.13a5.2,5.2,0,0,0-.56.08,4,4,0,0,0-2,1.16L5,5.35H4.88a.17.17,0,0,1-.09,0,2.74,2.74,0,0,1-.41-.38h0a.48.48,0,0,0-.07-.07l-.13-.14-.05,0s0,0,0,0h0a.36.36,0,0,0-.23-.08.29.29,0,0,0-.24.11.35.35,0,0,0,.07.47h0l.05,0,.18.1L4,5.37H4a3,3,0,0,1,.47.32.19.19,0,0,1,.05.16v0h0l.1.09A.36.36,0,0,0,4.61,6,4,4,0,0,0,4,8.78l-.13,0s0,0,0,0A.24.24,0,0,1,3.77,9,2.61,2.61,0,0,1,3.22,9H3.1l-.2,0H2.81a.34.34,0,0,0-.27.38.32.32,0,0,0,.33.24H3s0,0,0,0H3l.19-.07.09,0h0a2.54,2.54,0,0,1,.54-.16h0A.23.23,0,0,1,4,9.47H4l.14,0A4.09,4.09,0,0,0,5.54,11.4a4.19,4.19,0,0,0,.44.3l-.06.13s0,0,0,0A.21.21,0,0,1,6,12a2.92,2.92,0,0,1-.27.49h0l-.06.08-.11.17,0,.05a0,0,0,0,1,0,0h0a.33.33,0,0,0,.13.44.28.28,0,0,0,.12,0,.37.37,0,0,0,.31-.2H6a0,0,0,0,1,0,0l0-.05a2,2,0,0,0,.06-.19l0-.09h0a2.43,2.43,0,0,1,.22-.52.27.27,0,0,1,.13-.09h0L6.62,12a4,4,0,0,0,1.45.27,3.76,3.76,0,0,0,.9-.1A4.6,4.6,0,0,0,9.51,12l.06.11h0a.19.19,0,0,1,.13.09,3.54,3.54,0,0,1,.22.52h0l0,.09A1.31,1.31,0,0,0,10,13l0,.05a0,0,0,0,0,0,0h0a.35.35,0,0,0,.31.2.28.28,0,0,0,.12,0,.31.31,0,0,0,.16-.19.37.37,0,0,0,0-.26h0s0,0,0,0l0-.05a.94.94,0,0,0-.11-.17l-.06-.08h0a2.32,2.32,0,0,1-.27-.49.29.29,0,0,1,0-.17s0,0,0,0h0l-.05-.12a4.1,4.1,0,0,0,1.8-2.27l.12,0h0a.26.26,0,0,1,.13-.05h0a2.54,2.54,0,0,1,.54.16h0l.09,0,.19.07h.18a.35.35,0,0,0,.33-.24.4.4,0,0,0-.3-.34ZM8.47,8.62,8,8.84l-.46-.22-.11-.49.31-.39h.51l.31.39-.1.49Zm2.7-1.08a3.26,3.26,0,0,1,.07,1L9.66,8.13a.28.28,0,0,1-.2-.33.25.25,0,0,1,.06-.11l1.25-1.13a3.31,3.31,0,0,1,.39,1Zm-.89-1.6-1.36,1a.28.28,0,0,1-.36-.06.23.23,0,0,1-.05-.11L8.42,5a3.14,3.14,0,0,1,1.86.9Zm-3-.85L7.61,5,7.52,6.69A.28.28,0,0,1,7.24,7a.25.25,0,0,1-.12,0l-1.38-1a3.16,3.16,0,0,1,1.54-.85Zm-2,1.47,1.23,1.1a.28.28,0,0,1,0,.38.21.21,0,0,1-.12.08l-1.6.47a3.33,3.33,0,0,1,.47-2ZM5,9.37l1.64-.28a.28.28,0,0,1,.29.22.3.3,0,0,1,0,.17h0L6.26,11A3.26,3.26,0,0,1,5,9.37Zm3.78,2.06a3.38,3.38,0,0,1-.72.08,3.51,3.51,0,0,1-1-.17l.82-1.48a.27.27,0,0,1,.33-.07.44.44,0,0,1,.12.11h0L9,11.34l-.3.08Zm2-1.44a3.28,3.28,0,0,1-1,1L9.11,9.43a.28.28,0,0,1,.14-.32.33.33,0,0,1,.14,0l1.66.28a2.08,2.08,0,0,1-.3.63Z" transform="translate(0 -0.21)" fill="#fff"/></svg>