<?xml version="1.0" encoding="UTF-8" standalone="no"?>
<svg
   xmlns:dc="http://purl.org/dc/elements/1.1/"
   xmlns:cc="http://creativecommons.org/ns#"
   xmlns:rdf="http://www.w3.org/1999/02/22-rdf-syntax-ns#"
   xmlns:svg="http://www.w3.org/2000/svg"
   xmlns="http://www.w3.org/2000/svg"
   xmlns:sodipodi="http://sodipodi.sourceforge.net/DTD/sodipodi-0.dtd"
   xmlns:inkscape="http://www.inkscape.org/namespaces/inkscape"
   id="14f367a5-b280-487a-8f0d-ec882020c04a"
   data-name="3f373b21-f09f-4564-b8ad-ac82496ce5d2"
   viewBox="0 0 16 16"
   version="1.1"
   sodipodi:docname="2.svg"
   inkscape:version="0.92.3 (2405546, 2018-03-11)">
  <metadata
     id="metadata82">
    <rdf:RDF>
      <cc:Work
         rdf:about="">
        <dc:format>image/svg+xml</dc:format>
        <dc:type
           rdf:resource="http://purl.org/dc/dcmitype/StillImage" />
        <dc:title>2</dc:title>
      </cc:Work>
    </rdf:RDF>
  </metadata>
  <defs
     id="defs80" />
  <sodipodi:namedview
     pagecolor="#ffffff"
     bordercolor="#666666"
     borderopacity="1"
     objecttolerance="10"
     gridtolerance="10"
     guidetolerance="10"
     inkscape:pageopacity="0"
     inkscape:pageshadow="2"
     inkscape:window-width="1735"
     inkscape:window-height="972"
     id="namedview78"
     showgrid="false"
     inkscape:pagecheckerboard="true"
     inkscape:measure-start="7.73,15.75"
     inkscape:measure-end="7.72414,0.367816"
     inkscape:zoom="27.1875"
     inkscape:cx="1.7687562"
     inkscape:cy="6.3365437"
     inkscape:window-x="1960"
     inkscape:window-y="40"
     inkscape:window-maximized="0"
     inkscape:current-layer="14f367a5-b280-487a-8f0d-ec882020c04a" />
  <title
     id="title66">2</title>
  <rect
     width="16"
     height="16"
     fill="none"
     id="rect68" />
  <g
     id="g88"
     transform="matrix(0.79207299,0,0,0.79207299,1.666733,1.7069736)">
    <path
       id="path70"
       d="M 5,15.23 A 0.94,0.94 0 0 1 4.39,15 L 0.6,10.27 A 0.76,0.76 0 0 1 0.48,9.7 l 1.36,-6 A 0.62,0.62 0 0 1 2.18,3.28 l 5.45,-2.6 h 0.3 a 0.78,0.78 0 0 1 0.34,0.06 l 5.51,2.69 a 0.79,0.79 0 0 1 0.39,0.45 l 0.06,0.17 1.31,5.67 a 0.86,0.86 0 0 1 -0.16,0.57 L 11.58,15 a 0.54,0.54 0 0 1 -0.45,0.25 z"
       inkscape:connector-curvature="0"
       style="fill:#326de6" />
    <path
       id="path72"
       d="M 7.76,1 H 8.1 l 5.51,2.68 a 0.42,0.42 0 0 1 0.21,0.24 v 0.13 l 1.3,5.63 a 0.47,0.47 0 0 1 -0.06,0.28 l -3.82,4.72 v 0 0 A 0.16,0.16 0 0 1 11.1,14.74 H 5 A 0.57,0.57 0 0 1 4.69,14.6 L 0.92,10.07 A 0.39,0.39 0 0 1 0.84,9.81 l 1.36,-6 A 0.25,0.25 0 0 1 2.34,3.64 L 7.73,1 v 0 m 0,-0.75 H 7.53 L 2,3 A 1,1 0 0 0 1.46,3.67 l -1.36,6 a 1.14,1.14 0 0 0 0.2,0.87 l 3.82,4.72 a 1.32,1.32 0 0 0 0.83,0.38 h 6.17 a 0.9,0.9 0 0 0 0.74,-0.38 l 3.82,-4.72 A 1.24,1.24 0 0 0 15.9,9.67 L 14.54,3.72 v 0 A 1.17,1.17 0 0 0 14,3.09 L 8.43,0.4 A 1,1 0 0 0 8,0.31 H 7.76 Z"
       inkscape:connector-curvature="0"
       style="fill:#ffffff" />
    <g
       data-name="2dd5481b-0069-426e-ab0d-f3d00d0f2060"
       id="274d8460-31c8-494e-96ea-47a9a15a59a7">
      <path
         id="path74"
         d="m 13.68,9.4 h -0.4 A 3.66,3.66 0 0 1 12.66,9.29 0.22,0.22 0 0 1 12.53,9.16 H 12.39 A 4.72,4.72 0 0 0 12.22,7.5 4.9,4.9 0 0 0 11.59,6 L 11.7,5.89 v 0 a 0.25,0.25 0 0 1 0.05,-0.16 3.24,3.24 0 0 1 0.51,-0.36 v 0 l 0.11,-0.05 0.2,-0.11 h 0.05 a 0.35,0.35 0 0 0 0.09,-0.49 v 0 A 0.35,0.35 0 0 0 12.46,4.59 0.43,0.43 0 0 0 12.21,4.68 H 12.16 L 12,4.84 11.93,4.91 v 0 a 2.38,2.38 0 0 1 -0.45,0.4 H 11.3 L 11.16,5.4 10.71,5 A 4.64,4.64 0 0 0 8.36,4 v -0.11 0 a 0.25,0.25 0 0 1 -0.09,-0.14 3.61,3.61 0 0 1 0,-0.62 v 0 -0.46 0 A 0.35,0.35 0 0 0 7.65,2.42 0.36,0.36 0 0 0 7.54,2.67 v 0 0.09 a 0.91,0.91 0 0 0 0,0.22 0.23,0.23 0 0 1 0,0.11 v 0 a 3.41,3.41 0 0 1 0,0.62 0.25,0.25 0 0 1 -0.09,0.14 v 0 V 4 A 3.57,3.57 0 0 0 6.83,4.09 4.31,4.31 0 0 0 4.74,5.4 L 4.63,5.33 H 4.45 A 3.34,3.34 0 0 1 4,4.91 v 0 L 3.93,4.84 3.79,4.68 H 3.74 A 0.43,0.43 0 0 0 3.49,4.59 0.27,0.27 0 0 0 3.24,4.72 0.39,0.39 0 0 0 3.31,5.23 h 0.05 l 0.2,0.11 0.11,0.05 v 0 a 2.57,2.57 0 0 1 0.51,0.36 0.18,0.18 0 0 1 0.05,0.16 v 0 L 4.34,6 4.29,6.09 a 4.3,4.3 0 0 0 -0.63,3 H 3.52 A 0.29,0.29 0 0 1 3.39,9.22 3.36,3.36 0 0 1 2.77,9.33 h -0.4 a 0.35,0.35 0 0 0 -0.29,0.4 v 0 0 A 0.34,0.34 0 0 0 2.44,9.98 H 2.6 L 2.8,9.91 h 0.11 a 3.23,3.23 0 0 1 0.6,-0.16 v 0 a 0.21,0.21 0 0 1 0.14,0 H 3.81 A 4.37,4.37 0 0 0 5.29,12 2.87,2.87 0 0 0 5.78,12.33 l -0.09,0.13 v 0 a 0.21,0.21 0 0 1 0,0.18 3,3 0 0 1 -0.29,0.52 v 0 A 0.32,0.32 0 0 1 5.33,13.25 1.94,1.94 0 0 1 5.2,13.43 v 0 0 a 0.37,0.37 0 0 0 0.14,0.49 H 5.47 A 0.41,0.41 0 0 0 5.81,13.7 v 0 0 a 1.21,1.21 0 0 1 0.07,-0.2 v -0.11 0 a 3.06,3.06 0 0 1 0.24,-0.56 0.28,0.28 0 0 1 0.14,-0.11 v 0 l 0.07,-0.14 a 4.26,4.26 0 0 0 1.57,0.29 3.62,3.62 0 0 0 1,-0.13 5.41,5.41 0 0 0 0.58,-0.16 l 0.07,0.13 v 0 a 0.28,0.28 0 0 1 0.14,0.11 3.06,3.06 0 0 1 0.24,0.56 v 0 0.11 a 0.65,0.65 0 0 0 0.07,0.2 v 0 0 a 0.41,0.41 0 0 0 0.34,0.22 h 0.14 a 0.3,0.3 0 0 0 0.16,-0.2 0.47,0.47 0 0 0 0,-0.27 v 0 0 a 0.65,0.65 0 0 0 -0.13,-0.18 0.32,0.32 0 0 0 -0.07,-0.09 v 0 a 2.14,2.14 0 0 1 -0.29,-0.52 0.21,0.21 0 0 1 0,-0.18 v 0 L 10.1,12.33 a 4.47,4.47 0 0 0 2,-2.46 h 0.14 a 0.21,0.21 0 0 1 0.14,0 v 0 a 3,3 0 0 1 0.58,0.16 h 0.11 l 0.2,0.09 h 0.16 A 0.39,0.39 0 0 0 13.79,9.87 0.43,0.43 0 0 0 13.46,9.49 Z M 8.45,8.84 8,9.08 7.51,8.84 7.38,8.32 7.72,7.89 H 8.26 L 8.6,8.32 Z M 11.4,7.66 A 3.46,3.46 0 0 1 11.47,8.8 L 9.75,8.31 v 0 A 0.3,0.3 0 0 1 9.53,8 0.29,0.29 0 0 1 9.6,7.87 L 11,6.59 a 3.68,3.68 0 0 1 0.4,1.11 z m -1,-1.74 -1.48,1 A 0.31,0.31 0 0 1 8.52,6.85 0.16,0.16 0 0 1 8.47,6.72 L 8.36,4.89 a 3.4,3.4 0 0 1 2,1 z M 7.13,5 7.49,4.93 7.4,6.74 v 0 A 0.3,0.3 0 0 1 7.09,7 H 7 L 5.45,6 A 3.59,3.59 0 0 1 7.15,5 Z M 4.92,6.59 6.26,7.78 v 0 a 0.29,0.29 0 0 1 0,0.41 v 0 A 0.2,0.2 0 0 1 6.12,8.28 L 4.37,8.8 A 3.81,3.81 0 0 1 4.94,6.63 Z M 4.61,9.65 6.4,9.34 a 0.3,0.3 0 0 1 0.31,0.24 0.21,0.21 0 0 1 0,0.18 v 0 L 6,11.42 A 3.56,3.56 0 0 1 4.63,9.69 Z m 4.11,2.24 A 3.66,3.66 0 0 1 7.94,11.98 4,4 0 0 1 6.8,11.8 l 0.89,-1.61 a 0.28,0.28 0 0 1 0.36,-0.07 l 0.14,0.13 v 0 l 0.87,1.57 z m 2.21,-1.57 A 3.45,3.45 0 0 1 9.86,11.4 L 9.15,9.7 A 0.29,0.29 0 0 1 9.31,9.36 h 0.16 l 1.81,0.31 a 2.72,2.72 0 0 1 -0.33,0.73 z"
         inkscape:connector-curvature="0"
         style="fill:#ffffff" />
    </g>
  </g>
</svg>
