<?xml version="1.0" encoding="UTF-8" standalone="no"?>
<svg
   xmlns:dc="http://purl.org/dc/elements/1.1/"
   xmlns:cc="http://creativecommons.org/ns#"
   xmlns:rdf="http://www.w3.org/1999/02/22-rdf-syntax-ns#"
   xmlns:svg="http://www.w3.org/2000/svg"
   xmlns="http://www.w3.org/2000/svg"
   xmlns:sodipodi="http://sodipodi.sourceforge.net/DTD/sodipodi-0.dtd"
   xmlns:inkscape="http://www.inkscape.org/namespaces/inkscape"
   id="47fe80e0-18db-405f-a93f-a1ba9150bd6e"
   data-name="595cf8f2-f9be-428c-b432-b5f0e5f9de3d"
   viewBox="0 0 40 30"
   version="1.1"
   sodipodi:docname="K_40x30_2copyw.svg"
   inkscape:version="0.92.3 (2405546, 2018-03-11)">
  <metadata
     id="metadata82">
    <rdf:RDF>
      <cc:Work
         rdf:about="">
        <dc:format>image/svg+xml</dc:format>
        <dc:type
           rdf:resource="http://purl.org/dc/dcmitype/StillImage" />
        <dc:title>K_40x30_2</dc:title>
      </cc:Work>
    </rdf:RDF>
  </metadata>
  <defs
     id="defs80" />
  <sodipodi:namedview
     pagecolor="#ffffff"
     bordercolor="#666666"
     borderopacity="1"
     objecttolerance="10"
     gridtolerance="10"
     guidetolerance="10"
     inkscape:pageopacity="0"
     inkscape:pageshadow="2"
     inkscape:window-width="1920"
     inkscape:window-height="1052"
     id="namedview78"
     showgrid="false"
     inkscape:zoom="20.506097"
     inkscape:cx="13.831647"
     inkscape:cy="14.528654"
     inkscape:window-x="1920"
     inkscape:window-y="0"
     inkscape:window-maximized="1"
     inkscape:current-layer="47fe80e0-18db-405f-a93f-a1ba9150bd6e"
     inkscape:pagecheckerboard="true" />
  <title
     id="title66">K_40x30_2</title>
  <path
     d="M 31.025276,6.1381672 A 1.9706928,1.9706928 0 0 0 30.048806,5.0107889 L 20.736839,0.57229171 a 1.7753988,1.7753988 0 0 0 -0.763422,-0.1597859 3.222349,3.222349 0 0 0 -0.763421,0.062139 L 9.8980291,4.9131419 A 1.633367,1.633367 0 0 0 9.0103296,6.0405202 L 6.702311,16.115909 a 1.9263078,1.9263078 0 0 0 0.3373258,1.464703 l 6.4358212,7.989295 a 2.2192486,2.2192486 0 0 0 1.402565,0.648021 h 10.261806 a 1.526843,1.526843 0 0 0 1.35818,-0.665774 l 6.43582,-7.989295 a 2.0860937,2.0860937 0 0 0 0.363957,-1.464705 z"
     id="path68"
     inkscape:connector-curvature="0"
     style="fill:#326de6;stroke-width:0.88769943" />
  <path
     d="M 25.290738,26.635147 H 14.878023 A 2.6630983,2.6630983 0 0 1 13.182517,25.853971 L 6.7111881,17.864676 A 2.3790345,2.3790345 0 0 1 6.2850923,16.089278 L 8.5664799,5.9783813 A 2.0772167,2.0772167 0 0 1 9.7204892,4.5491852 L 19.121227,0.110688 a 3.8259846,3.8259846 0 0 1 0.887698,-0.07101595 2.3168955,2.3168955 0 0 1 0.8877,0.19529387 l 9.311967,4.43849718 a 2.3967884,2.3967884 0 0 1 1.198394,1.3848111 v 0 l 2.316896,9.9777418 a 2.5388204,2.5388204 0 0 1 -0.434973,1.775399 l -6.453575,7.989295 a 1.9440617,1.9440617 0 0 1 -1.544596,0.834437 z m -0.150909,-0.887699 a 1.1096243,1.1096243 0 0 0 1.047484,-0.452727 l 6.453575,-7.989295 a 1.642244,1.642244 0 0 0 0.275188,-1.136255 L 30.608057,6.2624451 A 1.53572,1.53572 0 0 0 29.853513,5.3747456 L 20.5593,0.93624847 a 1.1628863,1.1628863 0 0 0 -0.568128,-0.11540092 2.7607453,2.7607453 0 0 0 -0.639144,0 L 10.093323,5.2593447 A 1.2072712,1.2072712 0 0 0 9.4186713,6.0937822 L 7.1284068,16.213556 a 1.482458,1.482458 0 0 0 0.2663099,1.109624 l 6.4269443,7.989295 a 1.7753988,1.7753988 0 0 0 1.09187,0.479358 z"
     id="path70"
     inkscape:connector-curvature="0"
     style="fill:#ffffff;stroke-width:0.88769943" />
  <g
     id="71a2c843-c163-4766-a3f9-d7b9b9d52fa8"
     data-name="b65081d1-42a1-4088-a512-c0cca7a1a579"
     transform="matrix(0.88769944,0,0,0.88769944,2.2549369,0.00416407)">
    <path
       d="m 98.49,37.09 h -0.21 a 1.68,1.68 0 0 0 -0.41,0 0.43,0.43 0 0 1 -0.21,0 v 0 a 7,7 0 0 1 -1.17,-0.21 0.41,0.41 0 0 1 -0.25,-0.25 v 0 L 96,36.57 a 9,9 0 0 0 -0.14,-3 9.31,9.31 0 0 0 -1.21,-2.82 l 0.21,-0.21 v 0 a 0.48,0.48 0 0 1 0.11,-0.31 6.15,6.15 0 0 1 1,-0.69 v 0 l 0.21,-0.11 0.38,-0.21 a 0.13,0.13 0 0 0 0.11,-0.07 c 0,-0.07 0,0 0,-0.07 v 0 a 0.68,0.68 0 0 0 0.17,-0.94 v 0 a 0.66,0.66 0 0 0 -0.48,-0.25 0.82,0.82 0 0 0 -0.53,0 v 0 c 0,0 -0.07,0.07 -0.11,0.07 a 2.22,2.22 0 0 0 -0.27,0.31 c 0,0.07 -0.11,0.11 -0.14,0.14 v 0 a 4.52,4.52 0 0 1 -0.86,0.75 0.49,0.49 0 0 1 -0.21,0.07 0.21,0.21 0 0 1 -0.14,0 v 0 l -0.27,0.18 C 93.56,29.14 93.24,28.86 92.97,28.59 A 8.82,8.82 0 0 0 88.5,26.81 v -0.27 0 a 0.47,0.47 0 0 1 -0.18,-0.27 6.86,6.86 0 0 1 0.07,-1.17 v 0 -0.21 a 1,1 0 0 1 0.07,-0.41 v -0.24 0 a 0.68,0.68 0 0 0 -0.59,-0.73 0.69,0.69 0 0 0 -0.59,0.25 0.68,0.68 0 0 0 -0.21,0.48 v 0 0.18 a 1.72,1.72 0 0 0 0.07,0.41 0.43,0.43 0 0 1 0,0.21 v 0 a 6.48,6.48 0 0 1 0.07,1.17 0.47,0.47 0 0 1 -0.18,0.27 v 0.07 0 0.27 A 7.32,7.32 0 0 0 85.8,27 8.19,8.19 0 0 0 81.58,29.41 L 81.37,29.27 H 81.23 A 0.49,0.49 0 0 1 81.02,29.2 6.34,6.34 0 0 1 80.16,28.41 v 0 c 0,-0.07 -0.11,-0.11 -0.14,-0.14 l -0.27,-0.31 c -0.1,-0.11 -0.07,0 -0.11,-0.07 v 0 a 0.82,0.82 0 0 0 -0.48,-0.18 0.52,0.52 0 0 0 -0.48,0.25 0.74,0.74 0 0 0 0.14,1 v 0 c 0,0 0.07,0.07 0.11,0.07 l 0.38,0.21 0.21,0.11 v 0 a 4.9,4.9 0 0 1 1,0.69 0.34,0.34 0 0 1 0.11,0.31 v 0 l 0.21,0.21 c 0,0.07 -0.07,0.11 -0.11,0.18 a 8.16,8.16 0 0 0 -1.21,5.64 l -0.27,0.07 v 0 A 0.54,0.54 0 0 1 79,36.7 6.39,6.39 0 0 1 77.83,36.91 v 0 a 0.43,0.43 0 0 0 -0.21,0 H 77 a 0.67,0.67 0 0 0 -0.55,0.76 v 0 0 a 0.64,0.64 0 0 0 0.69,0.48 0.31,0.31 0 0 0 0.18,0 h 0.14 c 0,0 0.27,-0.11 0.38,-0.14 a 0.49,0.49 0 0 1 0.21,-0.07 v 0 a 6.13,6.13 0 0 1 1.07,-0.23 v 0 a 0.39,0.39 0 0 1 0.27,0.11 h 0.31 a 8.3,8.3 0 0 0 2.82,4 5.45,5.45 0 0 0 0.93,0.62 l -0.18,0.25 v 0 a 0.41,0.41 0 0 1 0,0.34 5.65,5.65 0 0 1 -0.55,1 v 0 a 0.61,0.61 0 0 1 -0.14,0.18 c -0.07,0.07 -0.14,0.21 -0.25,0.34 -0.11,0.13 0,0.07 -0.07,0.11 v 0 a 0.71,0.71 0 0 0 0.27,0.93 0.64,0.64 0 0 0 0.25,0.07 0.77,0.77 0 0 0 0.66,-0.41 v 0 a 0.13,0.13 0 0 1 0.07,-0.11 c 0.07,0 0.11,-0.25 0.14,-0.38 l 0.07,-0.21 v 0 a 5.82,5.82 0 0 1 0.45,-1.07 0.54,0.54 0 0 1 0.27,-0.21 v 0 L 84.58,43 a 8.1,8.1 0 0 0 3,0.55 6.86,6.86 0 0 0 1.85,-0.25 10.27,10.27 0 0 0 1.1,-0.31 l 0.14,0.25 v 0 a 0.54,0.54 0 0 1 0.27,0.21 5.82,5.82 0 0 1 0.62,1.14 v 0 l 0.07,0.21 a 1.23,1.23 0 0 0 0.14,0.38 0.13,0.13 0 0 0 0.07,0.11 v 0 a 0.77,0.77 0 0 0 0.66,0.41 0.81,0.81 0 0 0 0.27,-0.07 0.58,0.58 0 0 0 0.31,-0.38 0.88,0.88 0 0 0 0,-0.52 v 0 A 0.13,0.13 0 0 0 93.01,44.62 1.23,1.23 0 0 0 92.76,44.28 0.61,0.61 0 0 0 92.62,44.1 V 44 a 4.06,4.06 0 0 1 -0.55,-1 0.41,0.41 0 0 1 0,-0.34 v 0 L 92,42.39 a 8.5,8.5 0 0 0 3.71,-4.67 h 0.27 a 0.39,0.39 0 0 1 0.27,-0.11 v 0 a 5.78,5.78 0 0 1 1.1,0.31 v 0 a 0.49,0.49 0 0 0 0.21,0.07 1.84,1.84 0 0 0 0.38,0.18 h 0.21 a 0.31,0.31 0 0 0 0.18,0 0.74,0.74 0 0 0 0.69,-0.48 0.81,0.81 0 0 0 -0.62,-0.73 z M 88.55,36 87.62,36.45 86.69,36 86.44,35 87.1,34.18 h 1 L 88.76,35 Z m 5.61,-2.23 A 6.59,6.59 0 0 1 94.29,36 L 91,35 v 0 a 0.56,0.56 0 0 1 -0.42,-0.67 v 0 a 0.56,0.56 0 0 1 0.14,-0.25 l 2.58,-2.34 a 7,7 0 0 1 0.82,2 z m -1.85,-3.3 -2.82,2 a 0.59,0.59 0 0 1 -0.75,-0.14 0.31,0.31 0 0 1 -0.11,-0.25 l -0.21,-3.47 a 6.47,6.47 0 0 1 3.92,1.85 z M 86.09,28.72 86.78,28.58 86.59,32 v 0 A 0.57,0.57 0 0 1 86,32.55 v 0 a 0.81,0.81 0 0 1 -0.27,-0.07 l -2.85,-2 a 6.86,6.86 0 0 1 3.2,-1.75 z m -4.19,3 2.53,2.28 v 0 a 0.55,0.55 0 0 1 0.09,0.77 v 0 a 0.38,0.38 0 0 1 -0.27,0.18 L 80.9,36 a 7.23,7.23 0 0 1 0.99,-4.24 z M 81.31,37.53 84.7,37 a 0.56,0.56 0 0 1 0.59,0.45 0.41,0.41 0 0 1 0,0.34 v 0 L 84,40.93 a 6.76,6.76 0 0 1 -2.7,-3.36 z m 7.84,4.26 a 7,7 0 0 1 -1.48,0.18 7.7,7.7 0 0 1 -2.17,-0.34 l 1.69,-3.06 a 0.53,0.53 0 0 1 0.69,-0.14 1.72,1.72 0 0 1 0.27,0.25 v 0 l 1.65,3 a 5.59,5.59 0 0 0 -0.69,0.13 z m 4.19,-3 a 6.57,6.57 0 0 1 -2.06,2.06 l -1.4,-3.21 A 0.56,0.56 0 0 1 90.19,36.98 1,1 0 0 1 90.5,37 l 3.44,0.59 a 5.17,5.17 0 0 1 -0.65,1.28 z"
       transform="translate(-67.69,-19.58)"
       id="path72"
       inkscape:connector-curvature="0"
       style="fill:#ffffff" />
  </g>
  <rect
     width="40"
     height="30"
     fill="none"
     id="rect75" />
</svg>
