<svg id="891ec17b-0ea0-404f-96ae-0762c51b5b25"  xmlns="http://www.w3.org/2000/svg" width="30.79" height="29.89" viewBox="0 0 30.79 29.89"><g id="294472cf-333c-4496-a99e-372c6d6c1070" ><path d="M15.27,1.15a1.9,1.9,0,0,0-.72.18L4.67,6a1.88,1.88,0,0,0-1,1.27L1.21,17.93a1.86,1.86,0,0,0,.25,1.45l.11.15L8.37,28a1.9,1.9,0,0,0,1.48.71h11a1.9,1.9,0,0,0,1.48-.7l6.84-8.5a1.86,1.86,0,0,0,.37-1.59L27.09,7.32a1.88,1.88,0,0,0-1-1.27l-9.9-4.67A1.9,1.9,0,0,0,15.27,1.15Z" fill="#326ce5"/></g><g id="a5fe6017-e23f-4a81-899c-5330bcb5cdc3" ><path d="M15.27.38a2,2,0,0,0-.76.19l-10.44,5A2,2,0,0,0,3,6.9L.42,18.1a2,2,0,0,0,.27,1.52l.11.16,7.22,9a2,2,0,0,0,1.56.74H21.16a2,2,0,0,0,1.56-.74l7.22-9a2,2,0,0,0,.43-1.69L27.74,6.9a2,2,0,0,0-1.08-1.34L16.23.58A2,2,0,0,0,15.27.38Zm0,.77a1.9,1.9,0,0,1,.92.18L26.07,6a1.88,1.88,0,0,1,1,1.27l2.44,10.6a1.86,1.86,0,0,1-.37,1.59L22.37,28a1.9,1.9,0,0,1-1.48.7h-11A1.9,1.9,0,0,1,8.37,28l-6.8-8.5-.11-.14a1.86,1.86,0,0,1-.26-1.44L3.64,7.33a1.88,1.88,0,0,1,1-1.27l9.91-4.68A1.9,1.9,0,0,1,15.27,1.15Z" fill="#fff"/><path d="M21.17,29.89H9.58A2.38,2.38,0,0,1,7.73,29L.38,19.83A2.4,2.4,0,0,1,.06,18L2.63,6.81A2.37,2.37,0,0,1,3.91,5.22l10.44-5a2.36,2.36,0,0,1,.9-.23h0A2.41,2.41,0,0,1,16.4.24l10.43,5a2.36,2.36,0,0,1,1.28,1.59L30.74,18a2.37,2.37,0,0,1-.51,2L23,29A2.36,2.36,0,0,1,21.17,29.89ZM9.58,29.14H21.17a1.62,1.62,0,0,0,1.26-.6l.2-.24a2.27,2.27,0,0,1-1.73.79h-11a2.35,2.35,0,0,1-1.78-.8l.2.25a1.62,1.62,0,0,0,1.26.6ZM15.3,1.52a1.52,1.52,0,0,0-.57.18L4.8,6.39a1.5,1.5,0,0,0-.79,1L1.57,18a1.5,1.5,0,0,0,.21,1.15l.09.11,6.8,8.5a1.58,1.58,0,0,0,1.22.56h11a1.52,1.52,0,0,0,1.18-.56l6.77-8.51a1.5,1.5,0,0,0,.3-1.27L26.71,7.4a1.5,1.5,0,0,0-.8-1L16,1.66A1.51,1.51,0,0,0,15.3,1.52ZM27.52,7.6l2.35,10.23a2.25,2.25,0,0,1-.44,1.91L22.85,28l6.8-8.47A1.62,1.62,0,0,0,30,18.16ZM.79,18.18A1.64,1.64,0,0,0,1,19.41l.1.15,6.6,8.23L1.17,19.61A2.28,2.28,0,0,1,.79,18.18ZM26.67,6a2.24,2.24,0,0,1,.74,1.14l0-.14A1.62,1.62,0,0,0,26.67,6ZM4,6a1.62,1.62,0,0,0-.65.92A2.24,2.24,0,0,1,4,6ZM15.29.75a1.62,1.62,0,0,0-.62.15h0a2.29,2.29,0,0,1,.57-.14h0a2.26,2.26,0,0,1,.51,0A1.66,1.66,0,0,0,15.29.75Z" fill="#fff"/></g><g id="7e9776da-4043-4eab-a31a-7160fa484ecb" ><path d="M15.37,4.76a.63.63,0,0,0-.59.66h0v.15a4.93,4.93,0,0,0,.08.56,5.52,5.52,0,0,1,.07,1.07.65.65,0,0,1-.19.31v.27a7.7,7.7,0,0,0-1.07.16,7.61,7.61,0,0,0-3.88,2.21L9.57,10a.47.47,0,0,1-.35,0,5.52,5.52,0,0,1-.8-.72A4.93,4.93,0,0,0,8,8.87l-.13-.1a.7.7,0,0,0-.41-.16A.57.57,0,0,0,7,8.82a.63.63,0,0,0,.15.87h0l.12.1a4.93,4.93,0,0,0,.49.29,5.52,5.52,0,0,1,.88.62.66.66,0,0,1,.12.34l.19.17a7.65,7.65,0,0,0-1.2,5.29l-.25.07a.82.82,0,0,1-.25.26A5.52,5.52,0,0,1,6.21,17a5,5,0,0,0-.57,0H5.48a.59.59,0,1,0,.21,1.16h.2a4.94,4.94,0,0,0,.53-.2,5.53,5.53,0,0,1,1-.3.65.65,0,0,1,.34.12H8A7.7,7.7,0,0,0,11.43,22l-.11.26a.59.59,0,0,1,.05.33,5.78,5.78,0,0,1-.54,1,5,5,0,0,0-.32.47l-.08.16a.59.59,0,1,0,1.07.51h0l.07-.15a4.93,4.93,0,0,0,.17-.54A4.13,4.13,0,0,1,12.2,23a.48.48,0,0,1,.25-.12l.13-.24a7.65,7.65,0,0,0,5.46,0l.13.23a.47.47,0,0,1,.3.18,5.52,5.52,0,0,1,.41,1,5,5,0,0,0,.17.54l.07.15a.59.59,0,1,0,1.07-.51h0l-.08-.16a4.93,4.93,0,0,0-.32-.47,5.53,5.53,0,0,1-.52-.94.46.46,0,0,1,0-.35,2,2,0,0,1-.1-.24,7.7,7.7,0,0,0,3.41-4.29h.25a.47.47,0,0,1,.33-.12,5.53,5.53,0,0,1,1,.3,4.94,4.94,0,0,0,.53.2h.15A.59.59,0,0,0,25.15,17h-.22a5,5,0,0,0-.57,0,5.52,5.52,0,0,1-1.06-.17.66.66,0,0,1-.26-.26l-.24-.07a7.68,7.68,0,0,0-1.23-5.32l.21-.19a.47.47,0,0,1,.11-.33,5.52,5.52,0,0,1,.88-.62,4.94,4.94,0,0,0,.49-.29l.13-.1a.59.59,0,0,0-.74-.92l-.13.1a5,5,0,0,0-.39.41,5.54,5.54,0,0,1-.8.72A.66.66,0,0,1,21,10l-.22.16A7.75,7.75,0,0,0,16,7.78V7.52a.47.47,0,0,1-.19-.3,5.53,5.53,0,0,1,.07-1.07A4.93,4.93,0,0,0,16,5.59V5.42a.63.63,0,0,0-.6-.66Zm-.74,4.62-.18,3.1h0a.52.52,0,0,1-.83.4h0l-2.54-1.8A6.09,6.09,0,0,1,14,9.48,6.23,6.23,0,0,1,14.63,9.38Zm1.48,0a6.14,6.14,0,0,1,3.54,1.71l-2.53,1.79h0a.52.52,0,0,1-.83-.4h0Zm-6,2.87,2.32,2.08h0a.52.52,0,0,1-.2.9h0l-3,.86a6.09,6.09,0,0,1,.86-3.86Zm10.44,0a6.2,6.2,0,0,1,.89,3.84l-3-.86h0a.52.52,0,0,1-.2-.9h0l2.31-2.07Zm-5.69,2.24h1l.59.74-.21.92-.85.41-.86-.41-.21-.92Zm3,2.53H18l3.08.52a6.1,6.1,0,0,1-2.47,3.1l-1.2-2.89h0A.52.52,0,0,1,17.9,17Zm-5.17,0a.52.52,0,0,1,.47.73h0l-1.14,2.84a6.12,6.12,0,0,1-2.46-3.08L12.66,17h.11Zm2.63,1.22a.53.53,0,0,1,.48.27h0l1.52,2.73q-.3.1-.6.17a6.11,6.11,0,0,1-3.4-.18l1.5-2.71h0A.52.52,0,0,1,15.37,18.24Z" fill="#fff"/></g></svg>