<svg id="86eebe0b-604c-4424-839c-f16db983760d" data-name="14f367a5-b280-487a-8f0d-ec882020c04a" xmlns="http://www.w3.org/2000/svg" viewBox="0 0 16 16"><title>2-dt_01</title><rect id="1cfb18d6-1a8a-4fbb-a363-33c719eb0374" data-name="rect68" width="16" height="16" fill="none"/><g id="a9d054b7-8af7-42d2-ab72-a301acb5562d" data-name="path70"><path d="M5.63,14.27a1.25,1.25,0,0,1-.81-.3L1.75,10.15a1.13,1.13,0,0,1-.2-.86L2.64,4.53a1,1,0,0,1,.55-.68L7.6,1.75H8a1.14,1.14,0,0,1,.46.09L12.8,4a1.13,1.13,0,0,1,.56.64l0,.13,1.05,4.54a1.21,1.21,0,0,1-.21.86l-3,3.75a.89.89,0,0,1-.74.38h0Z" fill="#326de6"/><path d="M8,2.24a.62.62,0,0,1,.24,0l4.36,2.13a.63.63,0,0,1,.31.36l0,.13,1,4.49a.68.68,0,0,1-.13.45l-3,3.73a.43.43,0,0,1-.36.2l-4.86,0a.74.74,0,0,1-.48-.18l-3-3.75A.6.6,0,0,1,2,9.39L3.12,4.64a.49.49,0,0,1,.27-.33L7.71,2.25H8m0-1H7.48l-.2.1L3,3.4a1.48,1.48,0,0,0-.81,1L1.07,9.17a1.61,1.61,0,0,0,.25,1.24l0,0,0,0,3,3.75.06.07.07.06a1.75,1.75,0,0,0,1.13.43l4.86,0a1.43,1.43,0,0,0,1.16-.6l3-3.7,0,0,0,0A1.68,1.68,0,0,0,15,9.33V9.25l0-.07-1-4.49V4.64l0-.05,0-.13a1.61,1.61,0,0,0-.8-.92L8.66,1.39H8.6A1.61,1.61,0,0,0,8,1.24Z" fill="#fff"/></g><g id="0b0e9c21-8ef3-498f-8f97-2d06e5ecfe87" data-name="274d8460-31c8-494e-96ea-47a9a15a59a7"><path id="ccd66f98-1786-41d0-a91d-3afa68d11cfe" data-name="path74" d="M12.5,9.15h-.32a2.9,2.9,0,0,1-.49-.09.17.17,0,0,1-.1-.1h-.11a3.74,3.74,0,0,0-.13-1.31,3.88,3.88,0,0,0-.5-1.19l.09-.09h0a.2.2,0,0,1,0-.13,2.57,2.57,0,0,1,.4-.29h0l.09,0,.16-.09h0a.28.28,0,0,0,.07-.39h0a.28.28,0,0,0-.2-.1.34.34,0,0,0-.2.07h0l-.13.13-.06.06h0a1.89,1.89,0,0,1-.36.32h-.14L10.51,6l-.36-.32a3.68,3.68,0,0,0-1.86-.79V4.79h0a.2.2,0,0,1-.07-.11,2.86,2.86,0,0,1,0-.49h0V3.82h0a.28.28,0,0,0-.49-.2.29.29,0,0,0-.09.2h0v.07a.72.72,0,0,0,0,.17.18.18,0,0,1,0,.09h0a2.7,2.7,0,0,1,0,.49.2.2,0,0,1-.07.11h0v.12a2.83,2.83,0,0,0-.49.07A3.41,3.41,0,0,0,5.42,6l-.09-.06H5.19a2.65,2.65,0,0,1-.36-.33h0l-.06-.06-.11-.13h0a.34.34,0,0,0-.2-.07.21.21,0,0,0-.2.1.31.31,0,0,0,.06.4h0l.16.09.09,0h0a2,2,0,0,1,.4.29.14.14,0,0,1,0,.13H5l.09.07,0,.07a3.41,3.41,0,0,0-.5,2.38H4.45a.23.23,0,0,1-.1.1,2.66,2.66,0,0,1-.49.09H3.54a.28.28,0,0,0-.23.32h0a.27.27,0,0,0,.29.2h.13l.16-.06H4a2.56,2.56,0,0,1,.48-.13h0a.17.17,0,0,1,.11,0h.13a3.46,3.46,0,0,0,1.17,1.78,2.27,2.27,0,0,0,.39.26l-.07.1h0a.17.17,0,0,1,0,.14,2.38,2.38,0,0,1-.23.41h0l-.06.07-.1.14h0a.29.29,0,0,0,.11.39H6a.32.32,0,0,0,.27-.17h0a1,1,0,0,1,.06-.16v-.09h0a2.42,2.42,0,0,1,.19-.44.22.22,0,0,1,.11-.09h0l.06-.11a3.37,3.37,0,0,0,1.24.23,2.87,2.87,0,0,0,.79-.1l.46-.13.06.1h0a.22.22,0,0,1,.11.09,2.42,2.42,0,0,1,.19.44h0v.09a.51.51,0,0,0,.06.16h0a.32.32,0,0,0,.27.17H10a.24.24,0,0,0,.13-.16.37.37,0,0,0,0-.21h0a.51.51,0,0,0-.1-.14l-.06-.07h0a1.7,1.7,0,0,1-.23-.41.17.17,0,0,1,0-.14h0l0-.11a3.54,3.54,0,0,0,1.58-1.95h.11a.17.17,0,0,1,.11,0h0a2.38,2.38,0,0,1,.46.13H12l.16.07h.13a.31.31,0,0,0,.29-.2.34.34,0,0,0-.26-.3ZM8.36,8.71,8,8.9l-.39-.19-.1-.41L7.78,8h.43l.27.34Zm2.34-.93a2.74,2.74,0,0,1,.06.9L9.39,8.29h0A.24.24,0,0,1,9.22,8a.23.23,0,0,1,.06-.1l1.11-1a2.91,2.91,0,0,1,.32.88ZM9.9,6.4l-1.17.79a.25.25,0,0,1-.32-.06.13.13,0,0,1,0-.1L8.29,5.58a2.69,2.69,0,0,1,1.58.79ZM7.31,5.67l.29-.06L7.53,7h0a.24.24,0,0,1-.25.21H7.21L6,6.46a2.84,2.84,0,0,1,1.35-.79ZM5.56,6.93l1.06.94h0a.23.23,0,0,1,0,.32h0a.16.16,0,0,1-.11.07l-1.39.41A3,3,0,0,1,5.58,7ZM5.32,9.35,6.74,9.1A.24.24,0,0,1,7,9.3a.17.17,0,0,1,0,.14H7l-.56,1.31A2.82,2.82,0,0,1,5.33,9.38Zm3.26,1.77A2.9,2.9,0,0,1,8,11.2a3.17,3.17,0,0,1-.9-.14l.7-1.28A.22.22,0,0,1,8,9.72l.11.1h0l.69,1.24Zm1.75-1.24a2.73,2.73,0,0,1-.85.86L8.91,9.39A.23.23,0,0,1,9,9.12h.13l1.43.25a2.15,2.15,0,0,1-.26.58Z" fill="#fff"/></g></svg>