<svg id="b4f588af-18d7-4906-8105-45aee20d6ab5" data-name="Слой 1" xmlns="http://www.w3.org/2000/svg" width="217.27" height="255.03" viewBox="0 0 217.27 255.03"><rect x="107.85" y="21.4" width="1.15" height="21.29" fill="#71b429"/><rect x="27.91" y="21.4" width="1.15" height="22.44" fill="#71b429"/><polygon points="108.42 46.34 105.83 40.96 111.01 40.96 108.42 46.34" fill="#71b429"/><path d="M28.53,170.18V163H31.7a4.22,4.22,0,0,1,1.46.2,1.53,1.53,0,0,1,.79.68,2,2,0,0,1,.3,1.08,1.8,1.8,0,0,1-.49,1.28,2.47,2.47,0,0,1-1.53.66,2.35,2.35,0,0,1,.57.36,4.8,4.8,0,0,1,.79.95l1.25,2h-1.2l-.94-1.49c-.28-.43-.51-.76-.69-1a2.14,2.14,0,0,0-.48-.48,1.26,1.26,0,0,0-.43-.19,2.25,2.25,0,0,0-.53,0h-1.1v3.18Zm.94-4h2a3.12,3.12,0,0,0,1-.13,1.09,1.09,0,0,0,.55-.43,1.14,1.14,0,0,0,.19-.64,1.07,1.07,0,0,0-.37-.84,1.69,1.69,0,0,0-1.16-.33H29.47Z" fill="#05acff"/><path d="M39.17,168.51l.91.11a2.2,2.2,0,0,1-.8,1.24A2.68,2.68,0,0,1,36,169.6a2.74,2.74,0,0,1-.67-2,2.86,2.86,0,0,1,.67-2,2.3,2.3,0,0,1,1.75-.72,2.2,2.2,0,0,1,1.7.71,2.8,2.8,0,0,1,.66,2,2.2,2.2,0,0,1,0,.23H36.24a2,2,0,0,0,.48,1.31,1.45,1.45,0,0,0,1.08.46,1.35,1.35,0,0,0,.83-.26A1.65,1.65,0,0,0,39.17,168.51Zm-2.88-1.42h2.89a1.77,1.77,0,0,0-.33-1,1.34,1.34,0,0,0-1.09-.51,1.42,1.42,0,0,0-1,.41A1.62,1.62,0,0,0,36.29,167.09Z" fill="#05acff"/><path d="M41.18,172.17V165H42v.67a2.08,2.08,0,0,1,.64-.59,1.7,1.7,0,0,1,.87-.2,2,2,0,0,1,1.17.34,2.17,2.17,0,0,1,.77,1,3.59,3.59,0,0,1,.26,1.37A3.45,3.45,0,0,1,45.4,169a2.17,2.17,0,0,1-2,1.32,1.55,1.55,0,0,1-.78-.19,1.69,1.69,0,0,1-.58-.47v2.53Zm.8-4.55a2.33,2.33,0,0,0,.4,1.48,1.25,1.25,0,0,0,1,.48,1.27,1.27,0,0,0,1-.5,2.34,2.34,0,0,0,.42-1.54,2.29,2.29,0,0,0-.41-1.48,1.22,1.22,0,0,0-1-.49,1.27,1.27,0,0,0-1,.52A2.34,2.34,0,0,0,42,167.62Z" fill="#05acff"/><path d="M46.73,170.18V163h.87v7.16Z" fill="#05acff"/><path d="M49,164v-1h.88v1Zm0,6.15V165h.88v5.18Z" fill="#05acff"/><path d="M54.57,168.28l.87.11a2.24,2.24,0,0,1-.73,1.4,2.11,2.11,0,0,1-1.43.51,2.2,2.2,0,0,1-1.71-.7,2.82,2.82,0,0,1-.65-2,3.54,3.54,0,0,1,.28-1.47,2,2,0,0,1,.84-.95,2.54,2.54,0,0,1,1.24-.31,2.09,2.09,0,0,1,1.38.43,1.91,1.91,0,0,1,.69,1.21l-.85.13a1.47,1.47,0,0,0-.43-.79,1.16,1.16,0,0,0-.75-.26,1.36,1.36,0,0,0-1.08.48,2.22,2.22,0,0,0-.42,1.5,2.37,2.37,0,0,0,.4,1.52,1.31,1.31,0,0,0,1.05.48,1.24,1.24,0,0,0,.86-.32A1.58,1.58,0,0,0,54.57,168.28Z" fill="#05acff"/><path d="M59.57,169.54a3.3,3.3,0,0,1-.94.59,2.78,2.78,0,0,1-1,.17,1.87,1.87,0,0,1-1.31-.42,1.36,1.36,0,0,1-.46-1.07,1.47,1.47,0,0,1,.17-.69,1.51,1.51,0,0,1,.46-.51,2.43,2.43,0,0,1,.63-.29,6.85,6.85,0,0,1,.78-.13,7.64,7.64,0,0,0,1.57-.3v-.23a1,1,0,0,0-.25-.76,1.49,1.49,0,0,0-1-.29,1.59,1.59,0,0,0-.91.21,1.36,1.36,0,0,0-.44.77l-.86-.12a2.21,2.21,0,0,1,.39-.89,1.75,1.75,0,0,1,.77-.52,3.57,3.57,0,0,1,1.18-.18,3.26,3.26,0,0,1,1.08.15,1.44,1.44,0,0,1,.61.4,1.33,1.33,0,0,1,.27.6,4.6,4.6,0,0,1,0,.81V168a14.9,14.9,0,0,0,0,1.55,1.87,1.87,0,0,0,.23.62h-.92A1.93,1.93,0,0,1,59.57,169.54Zm-.07-2a6.45,6.45,0,0,1-1.44.33,2.9,2.9,0,0,0-.76.18.76.76,0,0,0-.35.28.8.8,0,0,0,.14,1,1.19,1.19,0,0,0,.78.23,1.83,1.83,0,0,0,.91-.22,1.42,1.42,0,0,0,.58-.61,2.2,2.2,0,0,0,.14-.88Z" fill="#05acff"/><path d="M63.67,169.39l.13.78a3.47,3.47,0,0,1-.67.08,1.51,1.51,0,0,1-.74-.15.84.84,0,0,1-.37-.4,3.16,3.16,0,0,1-.11-1v-3h-.64V165h.64v-1.29l.88-.53V165h.88v.68h-.88v3a1.6,1.6,0,0,0,0,.48.38.38,0,0,0,.15.18.61.61,0,0,0,.3.06A2.13,2.13,0,0,0,63.67,169.39Z" fill="#05acff"/><path d="M64.53,164v-1h.88v1Zm0,6.15V165h.88v5.18Z" fill="#05acff"/><path d="M66.42,167.59a2.71,2.71,0,0,1,.8-2.14,2.44,2.44,0,0,1,1.63-.57,2.31,2.31,0,0,1,1.75.7,2.67,2.67,0,0,1,.68,1.93,3.44,3.44,0,0,1-.3,1.58,2.13,2.13,0,0,1-.87.89,2.59,2.59,0,0,1-1.26.32,2.33,2.33,0,0,1-1.76-.7A2.83,2.83,0,0,1,66.42,167.59Zm.91,0a2.21,2.21,0,0,0,.43,1.49,1.44,1.44,0,0,0,2.18,0,2.26,2.26,0,0,0,.44-1.52,2.16,2.16,0,0,0-.44-1.46,1.46,1.46,0,0,0-2.18,0A2.19,2.19,0,0,0,67.33,167.59Z" fill="#05acff"/><path d="M72.31,170.18V165h.79v.73a1.86,1.86,0,0,1,1.65-.85,2.08,2.08,0,0,1,.87.17,1.34,1.34,0,0,1,.58.44,1.83,1.83,0,0,1,.28.65,5.26,5.26,0,0,1,0,.85v3.19h-.88V167a2.34,2.34,0,0,0-.11-.81.81.81,0,0,0-.36-.42,1.11,1.11,0,0,0-.61-.16,1.4,1.4,0,0,0-1,.36,1.74,1.74,0,0,0-.41,1.35v2.83Z" fill="#05acff"/><rect x="0.58" y="54.04" width="54.67" height="54.67" rx="3" fill="#fff"/><path d="M52.24,109.29H3.58A3.59,3.59,0,0,1,0,105.71V57a3.58,3.58,0,0,1,3.58-3.57H52.24A3.58,3.58,0,0,1,55.82,57v48.67A3.59,3.59,0,0,1,52.24,109.29ZM3.58,54.62A2.43,2.43,0,0,0,1.15,57v48.67a2.43,2.43,0,0,0,2.43,2.43H52.24a2.43,2.43,0,0,0,2.43-2.43V57a2.43,2.43,0,0,0-2.43-2.42Z" fill="#05acff"/><rect x="80.88" y="54.08" width="54.67" height="54.67" rx="3" fill="#fff"/><path d="M132.54,109.32H83.88a3.58,3.58,0,0,1-3.58-3.58V57.08a3.59,3.59,0,0,1,3.58-3.58h48.66a3.58,3.58,0,0,1,3.58,3.58v48.66A3.58,3.58,0,0,1,132.54,109.32ZM83.88,54.65a2.43,2.43,0,0,0-2.43,2.43v48.66a2.43,2.43,0,0,0,2.43,2.43h48.66a2.43,2.43,0,0,0,2.43-2.43V57.08a2.43,2.43,0,0,0-2.43-2.43Z" fill="#05acff"/><path d="M213.72,109.29h-3.46v-1.15h3.43Zm-6.31,0H204v-1.15h3.43Zm-6.28,0H197.7v-1.15h3.43Zm-6.28,0h-3.43v-1.15h3.43Zm-6.28,0h-3.42v-1.15h3.42Zm-6.28,0h-3.42v-1.15h3.42Zm-6.28,0h-3.42v-1.15H176Zm-6.28,0h-3.42v-1.15h3.42Zm-6.49-.48a3.6,3.6,0,0,1-1.79-3.1v-.28h1.15v.28a2.44,2.44,0,0,0,1.21,2.1Zm53.38-1.06-.94-.66a2.46,2.46,0,0,0,.44-1.38v-1.6h1.15v1.6A3.56,3.56,0,0,1,216.62,107.75Zm-54-5.17h-1.15V99.15h1.15Zm54.67-1.32h-1.15V97.83h1.15Zm-54.67-5h-1.15V92.87h1.15ZM217.27,95h-1.15V91.55h1.15ZM162.6,90h-1.15V86.59h1.15Zm54.67-1.32h-1.15V85.27h1.15Zm-54.67-5h-1.15V80.31h1.15Zm54.67-1.32h-1.15V79h1.15Zm-54.67-5h-1.15V74h1.15Zm54.67-1.32h-1.15V72.72h1.15Zm-54.67-5h-1.15V67.76h1.15Zm54.67-1.32h-1.15V66.44h1.15Zm-54.67-5h-1.15V61.48h1.15Zm54.67-1.32h-1.15V60.16h1.15Zm-54.67-5h-1.15V57A3.55,3.55,0,0,1,162.1,55l.94.67A2.39,2.39,0,0,0,162.6,57Zm54.67-1.32h-1.15V57a2.43,2.43,0,0,0-1.24-2.1l.57-1a3.58,3.58,0,0,1,1.82,3.1Zm-4.89-2.68H209V53.47h3.42Zm-6.27,0h-3.43V53.47h3.43Zm-6.28,0H196.4V53.47h3.43Zm-6.28,0h-3.43V53.47h3.43Zm-6.28,0h-3.43V53.47h3.43Zm-6.28,0h-3.43V53.47H181Zm-6.28,0h-3.42V53.47h3.42Zm-6.28,0H165V53.47h3.42Z" fill="#05acff"/><rect x="108.1" y="136.15" width="1.15" height="21.29" fill="#05acff"/><rect x="108.1" y="158.15" width="1.15" height="21.29" fill="#05acff"/><polygon points="108.68 132.5 106.09 137.88 111.27 137.88 108.68 132.5" fill="#05acff"/><rect x="27.91" y="136.15" width="1.15" height="21.29" fill="#05acff"/><polygon points="28.49 132.5 25.9 137.88 31.08 137.88 28.49 132.5" fill="#05acff"/><polygon points="190.16 132.5 187.57 137.88 192.75 137.88 190.16 132.5" fill="#05acff"/><rect x="28.17" y="157.44" width="81.14" height="1.15" fill="#05acff"/><rect x="189.3" y="139.03" width="1.15" height="1.73" fill="#05acff"/><path d="M190.45,153.41H189.3V150h1.15Zm0-6.33H189.3v-3.45h1.15Z" fill="#05acff"/><polygon points="190.45 158.59 188.15 158.59 188.15 157.44 189.3 157.44 189.3 156.29 190.45 156.29 190.45 158.59" fill="#05acff"/><path d="M185.16,158.59h-3.59v-1.15h3.59Zm-6.58,0H175v-1.15h3.59Zm-6.58,0h-3.59v-1.15H172Zm-6.59,0h-3.59v-1.15h3.59Zm-6.58,0h-3.59v-1.15h3.59Zm-6.58,0h-3.59v-1.15h3.59Zm-6.58,0h-3.59v-1.15h3.59Zm-6.58,0H135.5v-1.15h3.59Zm-6.58,0h-3.59v-1.15h3.59Zm-6.58,0h-3.59v-1.15h3.59Zm-6.59,0h-3.59v-1.15h3.59Z" fill="#05acff"/><rect x="111.04" y="157.44" width="1.73" height="1.15" fill="#05acff"/><circle cx="153.05" cy="81.41" r="1.44" fill="#5e6981"/><circle cx="148.44" cy="81.41" r="1.44" fill="#5e6981"/><circle cx="143.84" cy="81.41" r="1.44" fill="#5e6981"/><path d="M13.85,122.29H13l-1.44-4.78c-.07-.21-.15-.48-.23-.8a3.17,3.17,0,0,1-.13-.58,12,12,0,0,1-.35,1.41l-1.39,4.75H8.67l-1.9-7.14h.88l1.12,4.41c.16.62.27,1.18.35,1.68a10.42,10.42,0,0,1,.39-1.74l1.28-4.35h.88L13,119.53a13.58,13.58,0,0,1,.39,1.71,15.11,15.11,0,0,1,.35-1.69l1.13-4.4h.88Z" fill="#fff"/><path d="M21.37,119.61a3,3,0,0,1-.66,2,2.31,2.31,0,0,1-1.82.73,2.34,2.34,0,0,1-1.27-.34,2.18,2.18,0,0,1-.86-1,3.4,3.4,0,0,1-.3-1.48,2.94,2.94,0,0,1,.65-2,2.34,2.34,0,0,1,1.82-.73,2.26,2.26,0,0,1,1.78.75A2.94,2.94,0,0,1,21.37,119.61Zm-4.08,0a2.51,2.51,0,0,0,.42,1.57,1.43,1.43,0,0,0,1.2.53,1.46,1.46,0,0,0,1.21-.53,2.58,2.58,0,0,0,.41-1.57,2.53,2.53,0,0,0-.41-1.55,1.46,1.46,0,0,0-1.22-.53,1.43,1.43,0,0,0-1.2.53A2.47,2.47,0,0,0,17.29,119.61Z" fill="#fff"/><path d="M25.23,116.84a3,3,0,0,1,.64.06l-.11.75a3.48,3.48,0,0,0-.58-.07,1.45,1.45,0,0,0-1.12.53,2,2,0,0,0-.46,1.31v2.87h-.81v-5.35h.67l.09,1h0a2.35,2.35,0,0,1,.72-.8A1.62,1.62,0,0,1,25.23,116.84Z" fill="#fff"/><path d="M27.68,119.55c.14-.19.35-.45.64-.78L30,116.94h1l-2.17,2.28,2.32,3.07h-1l-1.89-2.53-.61.53v2h-.8V114.7h.8v4c0,.18,0,.46,0,.83Z" fill="#fff"/><path d="M34.38,122.39a2.46,2.46,0,0,1-1.87-.72,2.78,2.78,0,0,1-.68-2,3.1,3.1,0,0,1,.63-2,2.13,2.13,0,0,1,1.71-.77,2,2,0,0,1,1.6.67,2.52,2.52,0,0,1,.58,1.74v.51H32.67a2.13,2.13,0,0,0,.47,1.44,1.67,1.67,0,0,0,1.27.48,4.3,4.3,0,0,0,1.71-.36V122a3.5,3.5,0,0,1-.81.27A4.88,4.88,0,0,1,34.38,122.39Zm-.21-4.87a1.32,1.32,0,0,0-1,.42,1.89,1.89,0,0,0-.45,1.17h2.79a1.77,1.77,0,0,0-.34-1.18A1.2,1.2,0,0,0,34.17,117.52Z" fill="#fff"/><path d="M40.18,116.84a3.16,3.16,0,0,1,.64.06l-.12.75a3.36,3.36,0,0,0-.58-.07,1.41,1.41,0,0,0-1.11.53,1.91,1.91,0,0,0-.47,1.31v2.87h-.81v-5.35h.67l.1,1h0a2.23,2.23,0,0,1,.71-.8A1.63,1.63,0,0,1,40.18,116.84Z" fill="#fff"/><path d="M47.05,122.29h-.8v-5.08c0-.43,0-.83,0-1.21a2.49,2.49,0,0,1-.23.22l-1.16,1-.43-.56,1.89-1.46h.69Z" fill="#fff"/><path d="M93.91,122.29h-.82l-1.44-4.78c-.07-.21-.14-.48-.23-.8a4.49,4.49,0,0,1-.13-.58,11.86,11.86,0,0,1-.34,1.41l-1.4,4.75h-.82l-1.9-7.14h.88l1.13,4.41a15.16,15.16,0,0,1,.34,1.68,12.87,12.87,0,0,1,.39-1.74l1.28-4.35h.88l1.34,4.38a13.51,13.51,0,0,1,.4,1.71,15.11,15.11,0,0,1,.35-1.69l1.12-4.4h.88Z" fill="#fff"/><path d="M101.44,119.61a3,3,0,0,1-.66,2,2.32,2.32,0,0,1-1.82.73,2.38,2.38,0,0,1-1.28-.34,2.18,2.18,0,0,1-.86-1,3.4,3.4,0,0,1-.3-1.48,3,3,0,0,1,.65-2,2.36,2.36,0,0,1,1.82-.73,2.25,2.25,0,0,1,1.78.75A2.9,2.9,0,0,1,101.44,119.61Zm-4.08,0a2.58,2.58,0,0,0,.41,1.57,1.44,1.44,0,0,0,1.21.53,1.43,1.43,0,0,0,1.2-.53,2.51,2.51,0,0,0,.42-1.57,2.47,2.47,0,0,0-.42-1.55,1.65,1.65,0,0,0-2.42,0A2.48,2.48,0,0,0,97.36,119.61Z" fill="#fff"/><path d="M105.3,116.84a3.1,3.1,0,0,1,.64.06l-.11.75a3.59,3.59,0,0,0-.59-.07,1.44,1.44,0,0,0-1.11.53,1.91,1.91,0,0,0-.46,1.31v2.87h-.81v-5.35h.67l.09,1h0a2.35,2.35,0,0,1,.72-.8A1.59,1.59,0,0,1,105.3,116.84Z" fill="#fff"/><path d="M107.74,119.55c.14-.19.35-.45.64-.78l1.73-1.83h1l-2.17,2.28,2.32,3.07h-1l-1.89-2.53-.61.53v2h-.8V114.7h.8v4c0,.18,0,.46,0,.83Z" fill="#fff"/><path d="M114.45,122.39a2.45,2.45,0,0,1-1.87-.72,2.79,2.79,0,0,1-.69-2,3.05,3.05,0,0,1,.64-2,2.1,2.1,0,0,1,1.71-.77,2,2,0,0,1,1.59.67,2.53,2.53,0,0,1,.59,1.74v.51h-3.69a2.18,2.18,0,0,0,.48,1.44,1.65,1.65,0,0,0,1.27.48,4.38,4.38,0,0,0,1.71-.36V122a3.73,3.73,0,0,1-.82.27A4.77,4.77,0,0,1,114.45,122.39Zm-.22-4.87a1.33,1.33,0,0,0-1,.42,2,2,0,0,0-.45,1.17h2.8a1.82,1.82,0,0,0-.34-1.18A1.22,1.22,0,0,0,114.23,117.52Z" fill="#fff"/><path d="M120.24,116.84a3.1,3.1,0,0,1,.64.06l-.11.75a3.47,3.47,0,0,0-.59-.07,1.44,1.44,0,0,0-1.11.53,1.91,1.91,0,0,0-.46,1.31v2.87h-.81v-5.35h.67l.09,1h0a2.35,2.35,0,0,1,.72-.8A1.62,1.62,0,0,1,120.24,116.84Z" fill="#fff"/><path d="M128.8,122.29h-4.69v-.69l1.88-1.89a15,15,0,0,0,1.13-1.24,3.18,3.18,0,0,0,.41-.73,2,2,0,0,0,.14-.75,1.21,1.21,0,0,0-.35-.91,1.33,1.33,0,0,0-1-.33,2.32,2.32,0,0,0-.84.14,3.63,3.63,0,0,0-.89.53l-.43-.55a3.33,3.33,0,0,1,2.15-.82,2.26,2.26,0,0,1,1.58.52,1.76,1.76,0,0,1,.57,1.38,2.7,2.7,0,0,1-.38,1.34,8.27,8.27,0,0,1-1.43,1.68l-1.56,1.53v0h3.67Z" fill="#fff"/><path d="M174.91,122.29h-.82l-1.44-4.78c-.07-.21-.14-.48-.23-.8a4.49,4.49,0,0,1-.13-.58,11.86,11.86,0,0,1-.34,1.41l-1.4,4.75h-.82l-1.9-7.14h.88l1.13,4.41a15.16,15.16,0,0,1,.34,1.68,12.87,12.87,0,0,1,.39-1.74l1.28-4.35h.88l1.34,4.38a13.51,13.51,0,0,1,.4,1.71,15.11,15.11,0,0,1,.35-1.69l1.12-4.4h.88Z" fill="#fff"/><path d="M182.44,119.61a3,3,0,0,1-.66,2,2.32,2.32,0,0,1-1.82.73,2.38,2.38,0,0,1-1.28-.34,2.18,2.18,0,0,1-.86-1,3.4,3.4,0,0,1-.3-1.48,3,3,0,0,1,.65-2,2.36,2.36,0,0,1,1.82-.73,2.25,2.25,0,0,1,1.78.75A2.9,2.9,0,0,1,182.44,119.61Zm-4.08,0a2.58,2.58,0,0,0,.41,1.57,1.44,1.44,0,0,0,1.21.53,1.43,1.43,0,0,0,1.2-.53,2.51,2.51,0,0,0,.42-1.57,2.47,2.47,0,0,0-.42-1.55,1.65,1.65,0,0,0-2.42,0A2.48,2.48,0,0,0,178.36,119.61Z" fill="#fff"/><path d="M186.3,116.84a3.1,3.1,0,0,1,.64.06l-.11.75a3.59,3.59,0,0,0-.59-.07,1.44,1.44,0,0,0-1.11.53,1.91,1.91,0,0,0-.46,1.31v2.87h-.81v-5.35h.67l.09,1h0a2.35,2.35,0,0,1,.72-.8A1.59,1.59,0,0,1,186.3,116.84Z" fill="#fff"/><path d="M188.74,119.55c.14-.19.35-.45.64-.78l1.73-1.83h1l-2.17,2.28,2.32,3.07h-1l-1.89-2.53-.61.53v2h-.8V114.7h.8v4c0,.18,0,.46,0,.83Z" fill="#fff"/><path d="M195.45,122.39a2.45,2.45,0,0,1-1.87-.72,2.79,2.79,0,0,1-.69-2,3.05,3.05,0,0,1,.64-2,2.1,2.1,0,0,1,1.71-.77,2,2,0,0,1,1.59.67,2.53,2.53,0,0,1,.59,1.74v.51h-3.69a2.18,2.18,0,0,0,.48,1.44,1.65,1.65,0,0,0,1.27.48,4.38,4.38,0,0,0,1.71-.36V122a3.73,3.73,0,0,1-.82.27A4.77,4.77,0,0,1,195.45,122.39Zm-.22-4.87a1.33,1.33,0,0,0-1,.42,2,2,0,0,0-.45,1.17h2.8a1.82,1.82,0,0,0-.34-1.18A1.22,1.22,0,0,0,195.23,117.52Z" fill="#fff"/><path d="M201.24,116.84a3.1,3.1,0,0,1,.64.06l-.11.75a3.47,3.47,0,0,0-.59-.07,1.44,1.44,0,0,0-1.11.53,1.91,1.91,0,0,0-.46,1.31v2.87h-.81v-5.35h.67l.09,1h0a2.35,2.35,0,0,1,.72-.8A1.62,1.62,0,0,1,201.24,116.84Z" fill="#fff"/><path d="M211.18,122.29h-1l-3.9-6h0c.05.71.08,1.35.08,1.94v4.05h-.77v-7.14h.94l3.89,6h0c0-.09,0-.37-.05-.85s0-.81,0-1v-4.1h.78Z" fill="#fff"/><rect x="80.88" y="186.33" width="54.67" height="54.67" rx="3" fill="#fff"/><path d="M136.12,189.34V238a3.58,3.58,0,0,1-3.58,3.58H83.88A3.59,3.59,0,0,1,80.3,238V189.34a3.58,3.58,0,0,1,3.58-3.58h48.66A3.58,3.58,0,0,1,136.12,189.34Zm-3.58,51.09A2.43,2.43,0,0,0,135,238V189.34a2.43,2.43,0,0,0-2.43-2.43H83.88a2.43,2.43,0,0,0-2.43,2.43V238a2.43,2.43,0,0,0,2.43,2.43Z" fill="#e87474"/><path d="M132.55,242.08H83.88A4.08,4.08,0,0,1,79.8,238V189.34a4.08,4.08,0,0,1,4.08-4.08h48.67a4.08,4.08,0,0,1,4.07,4.08V238A4.08,4.08,0,0,1,132.55,242.08ZM83.88,186.26a3.08,3.08,0,0,0-3.08,3.08V238a3.08,3.08,0,0,0,3.08,3.08h48.67a3.08,3.08,0,0,0,3.07-3.08V189.34a3.08,3.08,0,0,0-3.07-3.08Zm48.67,54.67H83.88A2.94,2.94,0,0,1,81,238V189.34a2.93,2.93,0,0,1,2.93-2.93h48.67a2.93,2.93,0,0,1,2.92,2.93V238A2.93,2.93,0,0,1,132.55,240.93ZM83.88,187.41A1.93,1.93,0,0,0,82,189.34V238a1.94,1.94,0,0,0,1.93,1.93h48.67a1.93,1.93,0,0,0,1.92-1.93V189.34a1.92,1.92,0,0,0-1.92-1.93Z" fill="#e87474"/><path d="M33.28,91.06a2.08,2.08,0,0,1-1-.23,17.92,17.92,0,0,0-2.07-.34c-.83-.09-2.13-.26-2.42-.34a1,1,0,0,1-.72-.8,1.35,1.35,0,0,1,.37-1.07A21.72,21.72,0,0,0,21.3,87a5.54,5.54,0,0,0-.73,0,2.3,2.3,0,0,1-.14.45,5.25,5.25,0,0,1-3.22,2.18,7,7,0,0,1-1.54.2,8,8,0,0,1-1.57-.19c-1.94-.38-6.93-3-8-4.11a1.52,1.52,0,0,1-.4-1.13,1,1,0,0,1,.45-1q.06-.17.12-.36a.49.49,0,0,1,0-.12c0-1.12,1.43-2.74,2.92-3.86a26.91,26.91,0,0,1,15.16-5,4.13,4.13,0,0,0,2.29-.41,18.79,18.79,0,0,1,2.31-1c.77-.27,1.78-.68,2.21-.89a3.47,3.47,0,0,1,1.48-.44h.11c.83,0,1.36.71,1.91,1.5a2.57,2.57,0,0,0,.86.67c.86.38,1.87,1.09,1.94,1.82a3.8,3.8,0,0,1,.2,1.09,1.71,1.71,0,0,0,.4,1.22,3.89,3.89,0,0,0,2.39.89,1.79,1.79,0,0,0,.59-.08,24.8,24.8,0,0,1,6.18-2.78h0a1.3,1.3,0,0,1,1,.39c.5.54.53,1.56.4,3.37a37,37,0,0,0,0,5.69l0,.7c.06,1,.08,1.79.06,2.41,0,1-.06,1.44-.29,1.71a1.08,1.08,0,0,1-.81.48h0a1.08,1.08,0,0,1-.63-.24,9.76,9.76,0,0,1-1.21-1.58c-1.27-1.91-1.63-2.16-2.88-2.6l-1.11-.39a13.87,13.87,0,0,0-4.79.82c0,.32-.34.55-.64.77-1.16.86-1.26,1.17-1.26,1.84a1.91,1.91,0,0,1-.57,1.59,1,1,0,0,1-.19.12,1.64,1.64,0,0,1-.94.25Z" fill="#fff"/><path d="M32.65,71.94h0c.55,0,.94.38,1.56,1.26a3.14,3.14,0,0,0,1.08.86c.92.41,1.62,1,1.62,1.4v0c.36.79,0,1.85.77,2.6a4.43,4.43,0,0,0,2.77,1A2.59,2.59,0,0,0,41.3,79h0a25.51,25.51,0,0,1,5.94-2.75h0c.87,0,1,.64.86,3.17a38,38,0,0,0,0,5.75l0,.71c.06,1,.08,1.75.06,2.36A3,3,0,0,1,48,89.65c-.16.19-.27.28-.39.28a.56.56,0,0,1-.31-.14,10.33,10.33,0,0,1-1.07-1.44C45,86.44,44.5,86,43.07,85.54l-1.29-.45h0l.09,0a12.91,12.91,0,0,0-6,1.32h0a1.51,1.51,0,0,1,.41-.06h0c.31,0,.27.09-.22.45-1.18.87-1.48,1.33-1.48,2.28,0,.61-.11,1-.35,1.15a1.12,1.12,0,0,1-.16.1h0a1.07,1.07,0,0,1-.63.16h-.11a1.59,1.59,0,0,1-.72-.16,12.28,12.28,0,0,0-2.28-.41c-1.09-.12-2.14-.27-2.33-.32-.5-.15-.42-.81.16-1.19a1.59,1.59,0,0,1,.86-.19h.09a25.47,25.47,0,0,0-7.76-1.8,5.35,5.35,0,0,0-1.35.15h0c.1,0,.13.33,0,.67a4.69,4.69,0,0,1-2.82,1.87,6.79,6.79,0,0,1-1.43.19,7.21,7.21,0,0,1-1.46-.18c-1.8-.36-6.72-2.88-7.68-3.94a1,1,0,0,1-.26-.74c0-.32.06-.52.28-.61,0,0,0,0,0,0l.23,0a.75.75,0,0,0-.21,0,5.76,5.76,0,0,0,.25-.71.42.42,0,0,0,.18.22,1.18,1.18,0,0,0,.39.15,1.21,1.21,0,0,1-.38-.15c-.74-.45.44-2.26,2.48-3.78a26.39,26.39,0,0,1,14.84-4.87,4.59,4.59,0,0,0,2.55-.48,18.58,18.58,0,0,1,2.23-1c.79-.28,1.81-.69,2.26-.91a3.07,3.07,0,0,1,1.24-.39m4.19,3.71h0a.87.87,0,0,1-.28-.19,4.09,4.09,0,0,0-1.32-.56,3.72,3.72,0,0,1-1.73-1l-.76-.79h0l.75.79a3.67,3.67,0,0,0,1.73,1,4.09,4.09,0,0,1,1.32.56c.15.13.24.19.28.19M35,77.12l-.2-.05a23.91,23.91,0,0,0-6.61-1.14,24,24,0,0,1,6.61,1.14l.2.05m-.86-.89h0m2.45,1.08a19.18,19.18,0,0,0-2.42-1.06,19.18,19.18,0,0,1,2.42,1.06m5.1,1.89c-.24,0-.37,0-.37-.13h0c0,.09.12.14.37.14a17.18,17.18,0,0,0,3.07-.55,8.83,8.83,0,0,1,1.63-.27h.13c.08,0,.12.38.12.93,0-.55,0-.89-.12-.93s-.06,0-.13,0a8.83,8.83,0,0,0-1.63.27,17,17,0,0,1-3.07.55m5.56,7.88a15.17,15.17,0,0,0-.39-2.7,11.31,11.31,0,0,1-.3-2.79,11.38,11.38,0,0,0,.3,2.8,15,15,0,0,1,.39,2.69m-11.79-.47h0m-15.58,0v0h0v0m15.2.23-.05,0,.05,0,.07,0-.07,0M19.53,87l0,0,0,0m15.13.16-.09.08.09-.08.06,0-.06,0m-15.38.07a.1.1,0,0,0-.05,0,.1.1,0,0,1,.05,0l0,0,0,0m-.33.24-.07,0,.07,0,.09-.07-.09.07m15.31.11-.06.07.06-.07.11-.12-.11.12m-17,.64a3.13,3.13,0,0,0,1.26-.49l.29-.18-.3.18a3,3,0,0,1-1.25.49M34,88l-.06.1L34,88l.09-.14L34,88m-16.75.23-.17,0h0l.17,0m16.51.24a.49.49,0,0,0,0,.11.49.49,0,0,1,0-.11.71.71,0,0,1,.08-.18.71.71,0,0,0-.08.18m-3.9-.12h0m1.07.26-.14,0,.14,0m2.67.45v0a1.91,1.91,0,0,1,.06-.33,1.91,1.91,0,0,0-.06.33m-1.61-.1L32,89l-.06,0-.16,0,.16,0m1.6.26a.66.66,0,0,1,0,.15h0a.66.66,0,0,0,0-.15m0,.21h0a.05.05,0,0,1,0,0,.05.05,0,0,0,0,0h0m-.85-18.57a4.06,4.06,0,0,0-1.72.5c-.41.2-1.4.59-2.15.86a19.37,19.37,0,0,0-2.41,1c-.4.23-.68.32-2,.33A27.49,27.49,0,0,0,8.87,78.65C7.31,79.82,5.66,81.57,5.73,83v0l0,.07a1.6,1.6,0,0,0-.55,1.41A2.14,2.14,0,0,0,5.72,86c1.2,1.32,6.38,3.9,8.27,4.27a8.45,8.45,0,0,0,1.68.2,7.36,7.36,0,0,0,1.66-.21,5.71,5.71,0,0,0,3.6-2.49,1.22,1.22,0,0,1,.07-.17h.3a19.66,19.66,0,0,1,5.32,1,1.85,1.85,0,0,0-.09.84,1.56,1.56,0,0,0,1.12,1.25c.45.13,2.49.36,2.51.36a18,18,0,0,1,1.94.31,2.69,2.69,0,0,0,1.18.26h.08a2.25,2.25,0,0,0,1.22-.31,1.46,1.46,0,0,0,.29-.18,2.42,2.42,0,0,0,.77-2c0-.46,0-.63,1-1.39a2.39,2.39,0,0,0,.76-.81,14.15,14.15,0,0,1,4.26-.67l1,.35c1.15.4,1.42.59,2.62,2.39,1,1.47,1.24,1.65,1.35,1.73a1.7,1.7,0,0,0,.94.33,1.6,1.6,0,0,0,1.23-.68,3.15,3.15,0,0,0,.43-2.08c0-.6,0-1.4-.07-2.43l0-.7a36,36,0,0,1,0-5.61c.14-2,.1-3.09-.54-3.79a1.87,1.87,0,0,0-1.42-.56,1.05,1.05,0,0,0-.4.07,28.67,28.67,0,0,0-6,2.75,1.48,1.48,0,0,1-.38,0,3.3,3.3,0,0,1-2-.74c-.15-.15-.19-.37-.23-.87A4.43,4.43,0,0,0,38,75.25c-.17-1.16-1.74-2-2.24-2.19a2,2,0,0,1-.64-.47,3.26,3.26,0,0,0-2.3-1.74Z" fill="#fff"/><path d="M32.75,73.07l-.71.56-1.18.87c-.27.16-.45.38-.42.48a6.56,6.56,0,0,0,1.82.65c1.62.43,4.79,1.76,4.61,2a15.36,15.36,0,0,1-2.12-.51,25.74,25.74,0,0,0-9.5-1.13,21.19,21.19,0,0,0-5.56.59,22.64,22.64,0,0,0-9.9,5.39,13.67,13.67,0,0,1-1.65,1.49A1.3,1.3,0,0,1,7,83.32a.42.42,0,0,1-.18-.22,5.76,5.76,0,0,1-.25.71,1.55,1.55,0,0,1,.31,0,2.12,2.12,0,0,1,.87.15l.87.63c3.65,2.7,5.62,3.64,7.66,3.68a3.31,3.31,0,0,0,2.22-.53,4.81,4.81,0,0,0,1.07-.81.22.22,0,0,0,.05-.08c.12-.2.23-.26.29-.23,1.65-.42,4.55,0,9.11,1.65a13,13,0,0,1,4.14,1.2c.27.11.35,0,.35-.29a3.45,3.45,0,0,1,2.26-2.7h0a12.91,12.91,0,0,1,6-1.32l-.09,0,.88-.06a3.91,3.91,0,0,1,3.41,1.57,4.28,4.28,0,0,0,1,1c.27,0,.19-1.21-.23-3.18a12.07,12.07,0,0,1-.26-3.86,5.26,5.26,0,0,0-.08-2.13,6,6,0,0,0-1.76.26c-2.36.56-3.44.69-3.44.41a.09.09,0,0,1,0,0,4.13,4.13,0,0,1-3.61-.92c-.79-.75-.4-1.83-.78-2.63,0,.25,0,.25-.35,0a4.09,4.09,0,0,0-1.32-.56,3.67,3.67,0,0,1-1.73-1Z" fill="#f2f2f2"/><path d="M22.59,82.57l-.25-3.37c-.07-.42,0-.74.06-.74s.71,1.07,1,2a2.41,2.41,0,0,0,.44.84c.27.31.27.38,0,.71a1.86,1.86,0,0,0-.33,1c0,.83-.35,2.16-.57,2.16a10.89,10.89,0,0,1-.29-2.62Zm2.56,1.59c0-.14-.13-1.4-.19-2.8-.08-2.14-.06-2.5.17-2.31a1.91,1.91,0,0,1,.41.86A3.71,3.71,0,0,0,26,81a.8.8,0,0,1,.09.89,6,6,0,0,0-.33,1.36c-.12.93-.43,1.4-.58.9Zm2.41-2.57V79.06c.13-.15.44.42.69,1.28a2.35,2.35,0,0,0,.43.92c.1.07.11.28,0,.5A9.7,9.7,0,0,0,28.31,83c-.39,1.65-.65,1.17-.75-1.41Zm2.61,1.08A19.8,19.8,0,0,0,30,80.48a2.42,2.42,0,0,1,0-1.14c.21-.13.53.34.69,1a1.8,1.8,0,0,0,.56.93l.42.34-.45.32a1.07,1.07,0,0,0-.44.78c0,.59-.2,1.09-.42,1.09s-.18-.51-.19-1.13Zm2.38-.48a16,16,0,0,0-.12-2c-.18-1,.17-.81.81.53.42.87.45,1.07.22,1.33a1.74,1.74,0,0,0-.34.78c0,.26-.18.52-.32.56s-.24-.26-.24-1.18Zm2.18-.8c0-1.66,0-1.8.32-1.52a3.23,3.23,0,0,1,.29,2.62c-.4,1.2-.61.82-.61-1.1Zm2.07.33c-.37-.29-.36-.3.21-.25.33,0,.58.15.56.25C37.51,82,37.21,82,36.8,81.72Z" fill="#febc5b"/><path d="M32.65,71.94a3.07,3.07,0,0,0-1.24.39c-.45.22-1.47.63-2.26.91a18.58,18.58,0,0,0-2.23,1,4.59,4.59,0,0,1-2.55.48A26.39,26.39,0,0,0,9.53,79.54c-2,1.52-3.22,3.33-2.48,3.78a1.26,1.26,0,0,0,1.1.09A13.67,13.67,0,0,0,9.8,81.92a22.47,22.47,0,0,1,9.9-5.38,20.55,20.55,0,0,1,5.56-.6,25.66,25.66,0,0,1,9.49,1.13,14.11,14.11,0,0,0,2.12.51c.18-.18-3-1.52-4.6-2A6.56,6.56,0,0,1,30.45,75c0-.1.15-.32.41-.48a13.68,13.68,0,0,0,1.19-.87l.71-.56.76.79a3.72,3.72,0,0,0,1.73,1,4.09,4.09,0,0,1,1.32.56c.3.26.35.26.35,0s-.7-1-1.62-1.4a3.14,3.14,0,0,1-1.08-.86c-.62-.88-1-1.26-1.56-1.26Zm14.58,4.34c-.7,0-6,2.46-6,2.78s1.08.15,3.44-.41a5.53,5.53,0,0,1,1.76-.25,5.18,5.18,0,0,1,.08,2.12,12.07,12.07,0,0,0,.26,3.86c.42,2,.5,3.18.23,3.18a4.06,4.06,0,0,1-1-1A4,4,0,0,0,42.64,85l-.88.06,1.31.46c1.43.5,1.88.9,3.16,2.81a10.33,10.33,0,0,0,1.07,1.44c.3.21.42.18.7-.14a3,3,0,0,0,.16-1.38c0-.61,0-1.39-.06-2.36l0-.71a38,38,0,0,1,0-5.75c.18-2.53,0-3.17-.86-3.17ZM15.11,80.07a1.73,1.73,0,0,0-1.46.84c-.34.53-.22,1,.47,1.77.42.48,1.36.3,2-.37s.55-.81.05-1.63a1.21,1.21,0,0,0-1-.61Zm-.6,1a1,1,0,0,1,.79.55c.12.35-.74.28-.88-.07a.5.5,0,0,1,0-.44l.08,0ZM6.92,83.78a1.84,1.84,0,0,0-.33,0s0,0,0,0c-.22.09-.32.29-.28.61a1,1,0,0,0,.26.74c1,1.06,5.88,3.58,7.68,3.94a5.89,5.89,0,0,0,2.89,0,4.69,4.69,0,0,0,2.82-1.87c.26-.56,0-1-.26-.44a3.82,3.82,0,0,1-1.11.89,3.4,3.4,0,0,1-2.22.53c-2,0-4-1-7.66-3.68l-.87-.63a2.18,2.18,0,0,0-.88-.15Zm29.32,2.6a3.33,3.33,0,0,0-2.69,2.77c0,.34-.08.4-.35.29-2.69-1.13-4.39-1.46-5.09-1s-.66,1-.16,1.19c.19,0,1.24.2,2.33.32a12.28,12.28,0,0,1,2.28.41,1.64,1.64,0,0,0,.79.16h0a1.07,1.07,0,0,0,.63-.16h0a1.12,1.12,0,0,0,.16-.1c.24-.18.35-.54.35-1.15,0-.95.3-1.41,1.48-2.28.49-.36.53-.44.22-.45Z"/><path d="M15.34,87.31l-.69-.21,1.23-.23c1.63-.31,2-.69,2-1.92,0-1,.21-1.2.69-.52a1.93,1.93,0,0,1-1,2.85,2.93,2.93,0,0,1-2.26,0Zm27.21-4.26a2.67,2.67,0,0,0-.18-1.53c-.38-.92-.38-.9.07-.9s1.45,1.14,1.3,1.66a2.85,2.85,0,0,1-1.07,1.47C42.48,83.82,42.45,83.65,42.55,83.05Zm-7.12-4.83c-3.91-1.26-10.83-1.3-15.5-.08-.95.25-1.17.25-1.4,0-.39-.39.32-.8,2.27-1.31,3.8-.73,13.1-1,16.31,1.69,0,.17-.4.09-1.68-.32Z" fill="#71a0fe"/><path d="M114.28,91.06a2.08,2.08,0,0,1-1-.23,17.92,17.92,0,0,0-2.07-.34c-.83-.09-2.13-.26-2.42-.34a1,1,0,0,1-.72-.8,1.35,1.35,0,0,1,.37-1.07A21.72,21.72,0,0,0,102.3,87a5.54,5.54,0,0,0-.73,0,2.3,2.3,0,0,1-.14.45,5.25,5.25,0,0,1-3.22,2.18,7,7,0,0,1-1.54.2,8,8,0,0,1-1.57-.19c-1.94-.38-6.93-3-8-4.11a1.52,1.52,0,0,1-.4-1.13,1,1,0,0,1,.45-1l.12-.36a.49.49,0,0,1,0-.12c0-1.12,1.43-2.74,2.92-3.86a26.91,26.91,0,0,1,15.16-5,4.13,4.13,0,0,0,2.29-.41,18.79,18.79,0,0,1,2.31-1c.77-.27,1.78-.68,2.21-.89a3.47,3.47,0,0,1,1.48-.44h.11c.83,0,1.36.71,1.91,1.5a2.57,2.57,0,0,0,.86.67c.86.38,1.87,1.09,1.94,1.82a3.8,3.8,0,0,1,.2,1.09,1.71,1.71,0,0,0,.4,1.22,3.89,3.89,0,0,0,2.39.89,1.79,1.79,0,0,0,.59-.08,24.8,24.8,0,0,1,6.18-2.78h0a1.3,1.3,0,0,1,1,.39c.5.54.53,1.56.4,3.37a37,37,0,0,0,0,5.69l0,.7c.06,1,.08,1.79.06,2.41,0,1-.06,1.44-.29,1.71a1.08,1.08,0,0,1-.81.48h0a1.08,1.08,0,0,1-.63-.24,9.76,9.76,0,0,1-1.21-1.58c-1.27-1.91-1.63-2.16-2.88-2.6l-1.11-.39a13.87,13.87,0,0,0-4.79.82c0,.32-.34.55-.64.77-1.16.86-1.26,1.17-1.26,1.84a1.91,1.91,0,0,1-.57,1.59,1,1,0,0,1-.19.12,1.64,1.64,0,0,1-.94.25Z" fill="#fff"/><path d="M113.65,71.94h0c.55,0,.94.38,1.56,1.26a3.14,3.14,0,0,0,1.08.86c.92.41,1.62,1,1.62,1.4v0c.36.79,0,1.85.77,2.6a4.43,4.43,0,0,0,2.77,1,2.59,2.59,0,0,0,.84-.12h0a25.51,25.51,0,0,1,5.94-2.75h0c.87,0,1,.64.86,3.17a38,38,0,0,0,0,5.75l0,.71c.06,1,.08,1.75.06,2.36a3,3,0,0,1-.16,1.38c-.16.19-.27.28-.39.28a.56.56,0,0,1-.31-.14,10.33,10.33,0,0,1-1.07-1.44c-1.28-1.91-1.73-2.31-3.16-2.81l-1.29-.45h0l.09,0a12.91,12.91,0,0,0-6,1.32h0a1.51,1.51,0,0,1,.41-.06h0c.31,0,.27.09-.22.45-1.18.87-1.48,1.33-1.48,2.28,0,.61-.11,1-.35,1.15a1.12,1.12,0,0,1-.16.1h0a1.07,1.07,0,0,1-.63.16h-.11a1.59,1.59,0,0,1-.72-.16,12.28,12.28,0,0,0-2.28-.41c-1.09-.12-2.14-.27-2.33-.32-.5-.15-.42-.81.16-1.19a1.59,1.59,0,0,1,.86-.19h.09a25.47,25.47,0,0,0-7.76-1.8,5.35,5.35,0,0,0-1.35.15h0c.1,0,.13.33,0,.67a4.69,4.69,0,0,1-2.82,1.87,6.79,6.79,0,0,1-1.43.19,7.21,7.21,0,0,1-1.46-.18c-1.8-.36-6.72-2.88-7.68-3.94a1,1,0,0,1-.26-.74c0-.32.06-.52.28-.61l0,0,.23,0a.75.75,0,0,0-.21,0,5.76,5.76,0,0,0,.25-.71.42.42,0,0,0,.18.22,1.18,1.18,0,0,0,.39.15,1.21,1.21,0,0,1-.38-.15c-.74-.45.44-2.26,2.48-3.78a26.39,26.39,0,0,1,14.84-4.87,4.59,4.59,0,0,0,2.55-.48,18.58,18.58,0,0,1,2.23-1c.79-.28,1.81-.69,2.26-.91a3.07,3.07,0,0,1,1.24-.39m4.19,3.71h0a.87.87,0,0,1-.28-.19,4.09,4.09,0,0,0-1.32-.56,3.72,3.72,0,0,1-1.73-1l-.76-.79h0l.75.79a3.67,3.67,0,0,0,1.73,1,4.09,4.09,0,0,1,1.32.56c.15.13.24.19.28.19M116,77.12l-.2-.05a23.91,23.91,0,0,0-6.61-1.14,24,24,0,0,1,6.61,1.14l.2.05m-.86-.89h0m2.45,1.08a19.18,19.18,0,0,0-2.42-1.06,19.18,19.18,0,0,1,2.42,1.06m5.1,1.89c-.24,0-.37,0-.37-.13h0c0,.09.12.14.37.14a17.18,17.18,0,0,0,3.07-.55,8.83,8.83,0,0,1,1.63-.27h.13c.08,0,.12.38.12.93,0-.55,0-.89-.12-.93s-.06,0-.13,0a8.83,8.83,0,0,0-1.63.27,17,17,0,0,1-3.07.55m5.56,7.88a15.17,15.17,0,0,0-.39-2.7,11.31,11.31,0,0,1-.3-2.79,11.38,11.38,0,0,0,.3,2.8,15,15,0,0,1,.39,2.69m-11.79-.47h0m-15.58,0v0h0v0m15.2.23,0,0,0,0,.07,0-.07,0m-15.5.14,0,0,0,0m15.13.16-.09.08.09-.08.06,0-.06,0m-15.38.07a.1.1,0,0,0,0,0,.1.1,0,0,1,0,0l0,0,0,0m-.33.24-.07,0,.07,0,.09-.07-.09.07m15.31.11-.06.07.06-.07.11-.12-.11.12m-17,.64a3.13,3.13,0,0,0,1.26-.49l.29-.18-.3.18a3,3,0,0,1-1.25.49M115,88l-.06.1L115,88l.09-.14L115,88m-16.75.23-.17,0h0l.17,0m16.51.24a.49.49,0,0,0,0,.11.49.49,0,0,1,0-.11.71.71,0,0,1,.08-.18.71.71,0,0,0-.08.18m-3.9-.12h0m1.07.26-.14,0,.14,0m2.67.45v0a1.91,1.91,0,0,1,.06-.33,1.91,1.91,0,0,0-.06.33m-1.61-.1.06,0-.06,0-.16,0,.16,0m1.6.26a.66.66,0,0,1,0,.15h0a.66.66,0,0,0,0-.15m0,.21h0a.05.05,0,0,1,0,0,.05.05,0,0,0,0,0h0m-.85-18.57a4.06,4.06,0,0,0-1.72.5c-.41.2-1.4.59-2.15.86a19.37,19.37,0,0,0-2.41,1c-.4.23-.68.32-2,.33a27.49,27.49,0,0,0-15.49,5.09c-1.56,1.17-3.21,2.92-3.14,4.32v0l0,.07a1.6,1.6,0,0,0-.55,1.41A2.14,2.14,0,0,0,86.72,86c1.2,1.32,6.38,3.9,8.27,4.27a8.45,8.45,0,0,0,1.68.2,7.36,7.36,0,0,0,1.66-.21,5.71,5.71,0,0,0,3.6-2.49,1.22,1.22,0,0,1,.07-.17h.3a19.66,19.66,0,0,1,5.32,1,1.85,1.85,0,0,0-.09.84,1.56,1.56,0,0,0,1.12,1.25c.45.13,2.49.36,2.51.36a18,18,0,0,1,1.94.31,2.69,2.69,0,0,0,1.18.26h.08a2.25,2.25,0,0,0,1.22-.31,1.46,1.46,0,0,0,.29-.18,2.42,2.42,0,0,0,.77-2c0-.46,0-.63,1-1.39a2.39,2.39,0,0,0,.76-.81,14.15,14.15,0,0,1,4.26-.67l1,.35c1.15.4,1.42.59,2.62,2.39,1,1.47,1.24,1.65,1.35,1.73a1.7,1.7,0,0,0,.94.33,1.6,1.6,0,0,0,1.23-.68,3.15,3.15,0,0,0,.43-2.08c0-.6,0-1.4-.07-2.43l0-.7a36,36,0,0,1,0-5.61c.14-2,.1-3.09-.54-3.79a1.87,1.87,0,0,0-1.42-.56,1.05,1.05,0,0,0-.4.07,28.67,28.67,0,0,0-6,2.75,1.48,1.48,0,0,1-.38,0,3.3,3.3,0,0,1-2-.74c-.15-.15-.19-.37-.23-.87a4.43,4.43,0,0,0-.22-1.18c-.17-1.16-1.74-2-2.24-2.19a2,2,0,0,1-.64-.47,3.26,3.26,0,0,0-2.3-1.74Z" fill="#fff"/><path d="M113.75,73.07l-.71.56-1.18.87c-.27.16-.45.38-.42.48a6.56,6.56,0,0,0,1.82.65c1.62.43,4.79,1.76,4.61,2a15.36,15.36,0,0,1-2.12-.51,25.74,25.74,0,0,0-9.5-1.13,21.19,21.19,0,0,0-5.56.59,22.64,22.64,0,0,0-9.9,5.39,13.67,13.67,0,0,1-1.65,1.49,1.3,1.3,0,0,1-1.1-.09.42.42,0,0,1-.18-.22,5.76,5.76,0,0,1-.25.71,1.55,1.55,0,0,1,.31,0,2.12,2.12,0,0,1,.87.15l.87.63c3.65,2.7,5.62,3.64,7.66,3.68a3.31,3.31,0,0,0,2.22-.53,4.81,4.81,0,0,0,1.07-.81.22.22,0,0,0,0-.08c.12-.2.23-.26.29-.23,1.65-.42,4.55,0,9.11,1.65a13,13,0,0,1,4.14,1.2c.27.11.35,0,.35-.29a3.45,3.45,0,0,1,2.26-2.7h0a12.91,12.91,0,0,1,6-1.32l-.09,0,.88-.06a3.91,3.91,0,0,1,3.41,1.57,4.28,4.28,0,0,0,1,1c.27,0,.19-1.21-.23-3.18a12.07,12.07,0,0,1-.26-3.86,5.26,5.26,0,0,0-.08-2.13,6,6,0,0,0-1.76.26c-2.36.56-3.44.69-3.44.41a.09.09,0,0,1,0,0,4.13,4.13,0,0,1-3.61-.92c-.79-.75-.4-1.83-.78-2.63,0,.25,0,.25-.35,0a4.09,4.09,0,0,0-1.32-.56,3.67,3.67,0,0,1-1.73-1Z" fill="#f2f2f2"/><path d="M103.59,82.57l-.25-3.37c-.07-.42,0-.74.06-.74s.71,1.07,1,2a2.41,2.41,0,0,0,.44.84c.27.31.27.38,0,.71a1.86,1.86,0,0,0-.33,1c0,.83-.35,2.16-.57,2.16a10.89,10.89,0,0,1-.29-2.62Zm2.56,1.59c-.05-.14-.13-1.4-.19-2.8-.08-2.14-.06-2.5.17-2.31a1.91,1.91,0,0,1,.41.86A3.71,3.71,0,0,0,107,81a.8.8,0,0,1,.09.89,6,6,0,0,0-.33,1.36c-.12.93-.43,1.4-.58.9Zm2.41-2.57V79.06c.13-.15.44.42.69,1.28a2.35,2.35,0,0,0,.43.92c.1.07.11.28,0,.5a9.7,9.7,0,0,0-.38,1.24c-.39,1.65-.65,1.17-.75-1.41Zm2.61,1.08a19.8,19.8,0,0,0-.17-2.19,2.42,2.42,0,0,1,0-1.14c.21-.13.53.34.69,1a1.8,1.8,0,0,0,.56.93l.42.34-.45.32a1.07,1.07,0,0,0-.44.78c0,.59-.2,1.09-.42,1.09s-.18-.51-.19-1.13Zm2.38-.48a16,16,0,0,0-.12-2c-.18-1,.17-.81.81.53.42.87.45,1.07.22,1.33a1.74,1.74,0,0,0-.34.78c0,.26-.18.52-.32.56s-.24-.26-.24-1.18Zm2.18-.8c0-1.66,0-1.8.32-1.52a3.23,3.23,0,0,1,.29,2.62c-.4,1.2-.61.82-.61-1.1Zm2.07.33c-.37-.29-.36-.3.21-.25.33,0,.58.15.56.25C118.51,82,118.21,82,117.8,81.72Z" fill="#febc5b"/><path d="M113.65,71.94a3.07,3.07,0,0,0-1.24.39c-.45.22-1.47.63-2.26.91a18.58,18.58,0,0,0-2.23,1,4.59,4.59,0,0,1-2.55.48,26.39,26.39,0,0,0-14.84,4.87c-2,1.52-3.22,3.33-2.48,3.78a1.26,1.26,0,0,0,1.1.09,13.67,13.67,0,0,0,1.65-1.49,22.47,22.47,0,0,1,9.9-5.38,20.55,20.55,0,0,1,5.56-.6,25.66,25.66,0,0,1,9.49,1.13,14.11,14.11,0,0,0,2.12.51c.18-.18-3-1.52-4.6-2a6.56,6.56,0,0,1-1.82-.65c0-.1.15-.32.41-.48a13.68,13.68,0,0,0,1.19-.87l.71-.56.76.79a3.72,3.72,0,0,0,1.73,1,4.09,4.09,0,0,1,1.32.56c.3.26.35.26.35,0s-.7-1-1.62-1.4a3.14,3.14,0,0,1-1.08-.86c-.62-.88-1-1.26-1.56-1.26Zm14.58,4.34c-.7,0-6,2.46-6,2.78s1.08.15,3.44-.41a5.53,5.53,0,0,1,1.76-.25,5.18,5.18,0,0,1,.08,2.12,12.07,12.07,0,0,0,.26,3.86c.42,2,.5,3.18.23,3.18a4.06,4.06,0,0,1-1-1A4,4,0,0,0,123.64,85l-.88.06,1.31.46c1.43.5,1.88.9,3.16,2.81a10.33,10.33,0,0,0,1.07,1.44c.3.21.42.18.7-.14a3,3,0,0,0,.16-1.38c0-.61,0-1.39-.06-2.36l0-.71a38,38,0,0,1,0-5.75c.18-2.53,0-3.17-.86-3.17ZM96.11,80.07a1.73,1.73,0,0,0-1.46.84c-.34.53-.22,1,.47,1.77.42.48,1.36.3,2-.37s.55-.81,0-1.63a1.21,1.21,0,0,0-1-.61Zm-.6,1a1,1,0,0,1,.79.55c.12.35-.74.28-.88-.07a.5.5,0,0,1,0-.44.2.2,0,0,1,.08,0Zm-7.59,2.74a1.84,1.84,0,0,0-.33,0l0,0c-.22.09-.32.29-.28.61a1,1,0,0,0,.26.74c1,1.06,5.88,3.58,7.68,3.94a5.89,5.89,0,0,0,2.89,0,4.69,4.69,0,0,0,2.82-1.87c.26-.56,0-1-.26-.44a3.82,3.82,0,0,1-1.11.89,3.4,3.4,0,0,1-2.22.53c-2,0-4-1-7.66-3.68l-.87-.63a2.18,2.18,0,0,0-.88-.15Zm29.32,2.6a3.33,3.33,0,0,0-2.69,2.77c0,.34-.08.4-.35.29-2.69-1.13-4.39-1.46-5.09-1s-.66,1-.16,1.19c.19,0,1.24.2,2.33.32a12.28,12.28,0,0,1,2.28.41,1.64,1.64,0,0,0,.79.16h0a1.07,1.07,0,0,0,.63-.16h0a1.12,1.12,0,0,0,.16-.1c.24-.18.35-.54.35-1.15,0-.95.3-1.41,1.48-2.28.49-.36.53-.44.22-.45Z"/><path d="M96.34,87.31l-.69-.21,1.23-.23c1.63-.31,2-.69,2-1.92,0-1,.21-1.2.69-.52a1.93,1.93,0,0,1-1,2.85,2.93,2.93,0,0,1-2.26,0Zm27.21-4.26a2.67,2.67,0,0,0-.18-1.53c-.38-.92-.38-.9.07-.9s1.45,1.14,1.3,1.66a2.85,2.85,0,0,1-1.07,1.47C123.48,83.82,123.45,83.65,123.55,83.05Zm-7.12-4.83c-3.91-1.26-10.83-1.3-15.5-.08-1,.25-1.17.25-1.4,0-.39-.39.32-.8,2.27-1.31,3.8-.73,13.1-1,16.31,1.69,0,.17-.4.09-1.68-.32Z" fill="#71a0fe"/><path d="M114.28,223.06a2.08,2.08,0,0,1-1-.23,17.92,17.92,0,0,0-2.07-.34c-.83-.09-2.13-.26-2.42-.34a1,1,0,0,1-.72-.8,1.35,1.35,0,0,1,.37-1.07A21.72,21.72,0,0,0,102.3,219a5.54,5.54,0,0,0-.73,0,2.3,2.3,0,0,1-.14.45,5.25,5.25,0,0,1-3.22,2.18,7,7,0,0,1-1.54.2,8,8,0,0,1-1.57-.19c-1.94-.38-6.93-3-8-4.11a1.52,1.52,0,0,1-.4-1.13,1,1,0,0,1,.45-1l.12-.36a.49.49,0,0,1,0-.12c0-1.12,1.43-2.74,2.92-3.86a26.91,26.91,0,0,1,15.16-5,4.13,4.13,0,0,0,2.29-.41,18.79,18.79,0,0,1,2.31-1c.77-.27,1.78-.68,2.21-.89a3.47,3.47,0,0,1,1.48-.44h.11c.83,0,1.36.71,1.91,1.5a2.57,2.57,0,0,0,.86.67c.86.38,1.87,1.09,1.94,1.82a3.8,3.8,0,0,1,.2,1.09,1.71,1.71,0,0,0,.4,1.22,3.89,3.89,0,0,0,2.39.89,1.79,1.79,0,0,0,.59-.08,24.8,24.8,0,0,1,6.18-2.78h0a1.3,1.3,0,0,1,1,.39c.5.54.53,1.56.4,3.37a37,37,0,0,0,0,5.69l0,.7c.06,1,.08,1.79.06,2.41,0,1-.06,1.44-.29,1.71a1.08,1.08,0,0,1-.81.48h0a1.08,1.08,0,0,1-.63-.24,9.76,9.76,0,0,1-1.21-1.58c-1.27-1.91-1.63-2.16-2.88-2.6l-1.11-.39a13.87,13.87,0,0,0-4.79.82c0,.32-.34.55-.64.77-1.16.86-1.26,1.17-1.26,1.84a1.91,1.91,0,0,1-.57,1.59,1,1,0,0,1-.19.12,1.64,1.64,0,0,1-.94.25Z" fill="#fff"/><path d="M113.65,203.94h0c.55,0,.94.38,1.56,1.26a3.14,3.14,0,0,0,1.08.86c.92.41,1.62,1,1.62,1.4v0c.36.79,0,1.85.77,2.6a4.43,4.43,0,0,0,2.77,1,2.59,2.59,0,0,0,.84-.12h0a25.51,25.51,0,0,1,5.94-2.75h0c.87,0,1,.64.86,3.17a38,38,0,0,0,0,5.75l0,.71c.06,1,.08,1.75.06,2.36a3,3,0,0,1-.16,1.38c-.16.19-.27.28-.39.28a.56.56,0,0,1-.31-.14,10.33,10.33,0,0,1-1.07-1.44c-1.28-1.91-1.73-2.31-3.16-2.81l-1.29-.45h0l.09,0a12.91,12.91,0,0,0-6,1.32h0a1.51,1.51,0,0,1,.41-.06h0c.31,0,.27.09-.22.45-1.18.87-1.48,1.33-1.48,2.28,0,.61-.11,1-.35,1.15a1.12,1.12,0,0,1-.16.1h0a1.07,1.07,0,0,1-.63.16h-.11a1.59,1.59,0,0,1-.72-.16,12.28,12.28,0,0,0-2.28-.41c-1.09-.12-2.14-.27-2.33-.32-.5-.15-.42-.81.16-1.19a1.59,1.59,0,0,1,.86-.19h.09a25.47,25.47,0,0,0-7.76-1.8,5.35,5.35,0,0,0-1.35.15h0c.1,0,.13.33,0,.67a4.69,4.69,0,0,1-2.82,1.87,6.79,6.79,0,0,1-1.43.19,7.21,7.21,0,0,1-1.46-.18c-1.8-.36-6.72-2.88-7.68-3.94a1,1,0,0,1-.26-.74c0-.32.06-.52.28-.61,0,0,0,0,0,0l.23,0a.75.75,0,0,0-.21,0,5.76,5.76,0,0,0,.25-.71.42.42,0,0,0,.18.22,1.18,1.18,0,0,0,.39.15,1.21,1.21,0,0,1-.38-.15c-.74-.45.44-2.26,2.48-3.78a26.39,26.39,0,0,1,14.84-4.87,4.59,4.59,0,0,0,2.55-.48,18.58,18.58,0,0,1,2.23-.95c.79-.28,1.81-.69,2.26-.91a3.07,3.07,0,0,1,1.24-.39m4.19,3.71h0a.87.87,0,0,1-.28-.19,4.09,4.09,0,0,0-1.32-.56,3.72,3.72,0,0,1-1.73-1l-.76-.79h0l.75.79a3.67,3.67,0,0,0,1.73,1,4.09,4.09,0,0,1,1.32.56c.15.13.24.19.28.19M116,209.12l-.2-.05a23.91,23.91,0,0,0-6.61-1.14,24,24,0,0,1,6.61,1.14l.2.05m-.86-.89h0m2.45,1.08a19.18,19.18,0,0,0-2.42-1.06,19.18,19.18,0,0,1,2.42,1.06m5.1,1.89c-.24,0-.37,0-.37-.13h0c0,.09.12.14.37.14a17.18,17.18,0,0,0,3.07-.55,8.83,8.83,0,0,1,1.63-.27h.13c.08,0,.12.38.12.93,0-.55,0-.89-.12-.93s-.06,0-.13,0a8.83,8.83,0,0,0-1.63.27,17,17,0,0,1-3.07.55m5.56,7.88a15.17,15.17,0,0,0-.39-2.7,11.31,11.31,0,0,1-.3-2.79,11.38,11.38,0,0,0,.3,2.8,15,15,0,0,1,.39,2.69m-11.79-.47h0m-15.58,0v0h0v0m15.2.23,0,0,0,0,.07,0-.07,0m-15.5.14,0,0,0,0m15.13.16-.09.08.09-.08.06,0-.06,0m-15.38.07a.1.1,0,0,0,0,0,.1.1,0,0,1,0,0l0,0,0,0m-.33.24-.07.05.07-.05.09-.07-.09.07m15.31.11-.06.07.06-.07.11-.12-.11.12m-17,.64a3.13,3.13,0,0,0,1.26-.49l.29-.18-.3.18a3,3,0,0,1-1.25.49M115,220l-.06.1.06-.1.09-.14L115,220m-16.75.23-.17,0h0l.17,0m16.51.24a.49.49,0,0,0,0,.11.49.49,0,0,1,0-.11.71.71,0,0,1,.08-.18.71.71,0,0,0-.08.18m-3.9-.12h0m1.07.26-.14,0,.14,0m2.67.45v0a1.91,1.91,0,0,1,.06-.33,1.91,1.91,0,0,0-.06.33m-1.61-.1.06,0-.06,0-.16-.05.16.05m1.6.26a.66.66,0,0,1,0,.15h0a.66.66,0,0,0,0-.15m0,.21h0a.05.05,0,0,1,0,0,.05.05,0,0,0,0,0h0m-.85-18.57a4.06,4.06,0,0,0-1.72.5c-.41.2-1.4.59-2.15.86a19.37,19.37,0,0,0-2.41,1c-.4.23-.68.32-2,.33a27.49,27.49,0,0,0-15.49,5.09c-1.56,1.17-3.21,2.92-3.14,4.32V215l0,.07a1.6,1.6,0,0,0-.55,1.41,2.14,2.14,0,0,0,.56,1.45c1.2,1.32,6.38,3.9,8.27,4.27a8.45,8.45,0,0,0,1.68.2,7.36,7.36,0,0,0,1.66-.21,5.71,5.71,0,0,0,3.6-2.49,1.22,1.22,0,0,1,.07-.17h.3a19.66,19.66,0,0,1,5.32,1,1.85,1.85,0,0,0-.09.84,1.56,1.56,0,0,0,1.12,1.25c.45.13,2.49.36,2.51.36a18,18,0,0,1,1.94.31,2.69,2.69,0,0,0,1.18.26h.08a2.25,2.25,0,0,0,1.22-.31,1.46,1.46,0,0,0,.29-.18,2.42,2.42,0,0,0,.77-2c0-.46,0-.63,1-1.39a2.39,2.39,0,0,0,.76-.81,14.15,14.15,0,0,1,4.26-.67l1,.35c1.15.4,1.42.59,2.62,2.39,1,1.47,1.24,1.65,1.35,1.73a1.7,1.7,0,0,0,.94.33,1.6,1.6,0,0,0,1.23-.68,3.15,3.15,0,0,0,.43-2.08c0-.6,0-1.4-.07-2.43l0-.7a36,36,0,0,1,0-5.61c.14-2,.1-3.09-.54-3.79a1.87,1.87,0,0,0-1.42-.56,1.05,1.05,0,0,0-.4.07,28.67,28.67,0,0,0-6,2.75,1.48,1.48,0,0,1-.38,0,3.3,3.3,0,0,1-2-.74c-.15-.15-.19-.37-.23-.87a4.43,4.43,0,0,0-.22-1.18c-.17-1.16-1.74-2-2.24-2.19a2,2,0,0,1-.64-.47,3.26,3.26,0,0,0-2.3-1.74Z" fill="#fff"/><path d="M113.75,205.07l-.71.56-1.18.87c-.27.16-.45.38-.42.48a6.56,6.56,0,0,0,1.82.65c1.62.43,4.79,1.76,4.61,2a15.36,15.36,0,0,1-2.12-.51,25.74,25.74,0,0,0-9.5-1.13,21.19,21.19,0,0,0-5.56.59,22.64,22.64,0,0,0-9.9,5.39,13.67,13.67,0,0,1-1.65,1.49,1.3,1.3,0,0,1-1.1-.09.42.42,0,0,1-.18-.22,5.76,5.76,0,0,1-.25.71,1.55,1.55,0,0,1,.31,0,2.12,2.12,0,0,1,.87.15l.87.63c3.65,2.7,5.62,3.64,7.66,3.68a3.31,3.31,0,0,0,2.22-.53,4.81,4.81,0,0,0,1.07-.81.22.22,0,0,0,0-.08c.12-.2.23-.26.29-.23,1.65-.42,4.55,0,9.11,1.65a13,13,0,0,1,4.14,1.2c.27.11.35.05.35-.29a3.45,3.45,0,0,1,2.26-2.7h0a12.91,12.91,0,0,1,6-1.32l-.09,0,.88-.06a3.91,3.91,0,0,1,3.41,1.57,4.28,4.28,0,0,0,1,1c.27,0,.19-1.21-.23-3.18a12.07,12.07,0,0,1-.26-3.86,5.26,5.26,0,0,0-.08-2.13,6,6,0,0,0-1.76.26c-2.36.56-3.44.69-3.44.41a.09.09,0,0,1,0,0,4.13,4.13,0,0,1-3.61-.92c-.79-.75-.4-1.83-.78-2.63,0,.25,0,.25-.35,0a4.09,4.09,0,0,0-1.32-.56,3.67,3.67,0,0,1-1.73-1Z" fill="#f2f2f2"/><path d="M103.59,214.57l-.25-3.37c-.07-.42,0-.74.06-.74s.71,1.07,1,2a2.41,2.41,0,0,0,.44.84c.27.31.27.38,0,.71a1.86,1.86,0,0,0-.33,1c0,.83-.35,2.16-.57,2.16a10.89,10.89,0,0,1-.29-2.62Zm2.56,1.59c-.05-.14-.13-1.4-.19-2.8-.08-2.14-.06-2.5.17-2.31a1.91,1.91,0,0,1,.41.86A3.71,3.71,0,0,0,107,213a.8.8,0,0,1,.09.89,6,6,0,0,0-.33,1.36c-.12.93-.43,1.4-.58.9Zm2.41-2.57v-2.53c.13-.15.44.42.69,1.28a2.35,2.35,0,0,0,.43.92c.1.07.11.28,0,.5a9.7,9.7,0,0,0-.38,1.24c-.39,1.65-.65,1.17-.75-1.41Zm2.61,1.08a19.8,19.8,0,0,0-.17-2.19,2.42,2.42,0,0,1,0-1.14c.21-.13.53.34.69,1a1.8,1.8,0,0,0,.56.93l.42.34-.45.32a1.07,1.07,0,0,0-.44.78c0,.59-.2,1.09-.42,1.09s-.18-.51-.19-1.13Zm2.38-.48a16,16,0,0,0-.12-2c-.18-1,.17-.81.81.53.42.87.45,1.07.22,1.33a1.74,1.74,0,0,0-.34.78c0,.26-.18.52-.32.56s-.24-.26-.24-1.18Zm2.18-.8c0-1.66,0-1.8.32-1.52a3.23,3.23,0,0,1,.29,2.62c-.4,1.2-.61.82-.61-1.1Zm2.07.33c-.37-.29-.36-.3.21-.25.33,0,.58.15.56.25C118.51,214,118.21,214,117.8,213.72Z" fill="#febc5b"/><path d="M113.65,203.94a3.07,3.07,0,0,0-1.24.39c-.45.22-1.47.63-2.26.91a18.58,18.58,0,0,0-2.23.95,4.59,4.59,0,0,1-2.55.48,26.39,26.39,0,0,0-14.84,4.87c-2,1.52-3.22,3.33-2.48,3.78a1.26,1.26,0,0,0,1.1.09,13.67,13.67,0,0,0,1.65-1.49,22.47,22.47,0,0,1,9.9-5.38,20.55,20.55,0,0,1,5.56-.6,25.66,25.66,0,0,1,9.49,1.13,14.11,14.11,0,0,0,2.12.51c.18-.18-3-1.52-4.6-2a6.56,6.56,0,0,1-1.82-.65c0-.1.15-.32.41-.48a13.68,13.68,0,0,0,1.19-.87l.71-.56.76.79a3.72,3.72,0,0,0,1.73,1,4.09,4.09,0,0,1,1.32.56c.3.26.35.26.35,0s-.7-1-1.62-1.4a3.14,3.14,0,0,1-1.08-.86c-.62-.88-1-1.26-1.56-1.26Zm14.58,4.34c-.7,0-6,2.46-6,2.78s1.08.15,3.44-.41a5.53,5.53,0,0,1,1.76-.25,5.18,5.18,0,0,1,.08,2.12,12.07,12.07,0,0,0,.26,3.86c.42,2,.5,3.18.23,3.18a4.06,4.06,0,0,1-1-1,4,4,0,0,0-3.41-1.57l-.88.06,1.31.46c1.43.5,1.88.9,3.16,2.81a10.33,10.33,0,0,0,1.07,1.44c.3.21.42.18.7-.14a3,3,0,0,0,.16-1.38c0-.61,0-1.39-.06-2.36l0-.71a38,38,0,0,1,0-5.75c.18-2.53,0-3.17-.86-3.17Zm-32.12,3.79a1.73,1.73,0,0,0-1.46.84c-.34.53-.22,1,.47,1.77.42.48,1.36.3,2-.37s.55-.81,0-1.63a1.21,1.21,0,0,0-1-.61Zm-.6,1a1,1,0,0,1,.79.55c.12.35-.74.28-.88-.07a.5.5,0,0,1,0-.44.2.2,0,0,1,.08,0Zm-7.59,2.74a1.84,1.84,0,0,0-.33,0s0,0,0,0c-.22.09-.32.29-.28.61a1,1,0,0,0,.26.74c1,1.06,5.88,3.58,7.68,3.94a5.89,5.89,0,0,0,2.89,0,4.69,4.69,0,0,0,2.82-1.87c.26-.56,0-.95-.26-.44a3.82,3.82,0,0,1-1.11.89,3.4,3.4,0,0,1-2.22.53c-2,0-4-1-7.66-3.68l-.87-.63a2.18,2.18,0,0,0-.88-.15Zm29.32,2.6a3.33,3.33,0,0,0-2.69,2.77c0,.34-.08.4-.35.29-2.69-1.13-4.39-1.46-5.09-1s-.66,1-.16,1.19c.19,0,1.24.2,2.33.32a12.28,12.28,0,0,1,2.28.41,1.64,1.64,0,0,0,.79.16h0a1.07,1.07,0,0,0,.63-.16h0a1.12,1.12,0,0,0,.16-.1c.24-.18.35-.54.35-1.15,0-.95.3-1.41,1.48-2.28.49-.36.53-.44.22-.45Z"/><path d="M96.34,219.31l-.69-.21,1.23-.23c1.63-.31,2-.69,2-1.92,0-1,.21-1.2.69-.52a1.93,1.93,0,0,1-1,2.85,2.93,2.93,0,0,1-2.26,0Zm27.21-4.26a2.67,2.67,0,0,0-.18-1.53c-.38-.92-.38-.9.07-.9s1.45,1.14,1.3,1.66a2.85,2.85,0,0,1-1.07,1.47C123.48,215.82,123.45,215.65,123.55,215.05Zm-7.12-4.83c-3.91-1.26-10.83-1.3-15.5-.08-1,.25-1.17.25-1.4,0-.39-.39.32-.8,2.27-1.31,3.8-.73,13.1-1,16.31,1.69,0,.17-.4.09-1.68-.32Z" fill="#71a0fe"/><path d="M195.28,91.06a2.08,2.08,0,0,1-1-.23,17.92,17.92,0,0,0-2.07-.34c-.83-.09-2.13-.26-2.42-.34a1,1,0,0,1-.72-.8,1.35,1.35,0,0,1,.37-1.07A21.72,21.72,0,0,0,183.3,87a5.54,5.54,0,0,0-.73,0,2.3,2.3,0,0,1-.14.45,5.25,5.25,0,0,1-3.22,2.18,7,7,0,0,1-1.54.2,8,8,0,0,1-1.57-.19c-1.94-.38-6.93-3-8-4.11a1.52,1.52,0,0,1-.4-1.13,1,1,0,0,1,.45-1q.06-.17.12-.36a.49.49,0,0,1,0-.12c-.05-1.12,1.43-2.74,2.92-3.86a26.91,26.91,0,0,1,15.16-5,4.13,4.13,0,0,0,2.29-.41,18.79,18.79,0,0,1,2.31-1c.77-.27,1.78-.68,2.21-.89a3.47,3.47,0,0,1,1.48-.44h.11c.83,0,1.36.71,1.91,1.5a2.57,2.57,0,0,0,.86.67c.86.38,1.87,1.09,1.94,1.82a3.8,3.8,0,0,1,.2,1.09,1.71,1.71,0,0,0,.4,1.22,3.89,3.89,0,0,0,2.39.89,1.79,1.79,0,0,0,.59-.08,24.8,24.8,0,0,1,6.18-2.78h0a1.3,1.3,0,0,1,1,.39c.5.54.53,1.56.4,3.37a37,37,0,0,0,0,5.69l0,.7c.06,1,.08,1.79.06,2.41,0,1-.06,1.44-.29,1.71a1.08,1.08,0,0,1-.81.48h0a1.08,1.08,0,0,1-.63-.24,9.76,9.76,0,0,1-1.21-1.58c-1.27-1.91-1.63-2.16-2.88-2.6l-1.11-.39a13.87,13.87,0,0,0-4.79.82c0,.32-.34.55-.64.77-1.16.86-1.26,1.17-1.26,1.84a1.91,1.91,0,0,1-.57,1.59,1,1,0,0,1-.19.12,1.64,1.64,0,0,1-.94.25Z" fill="#fff"/><path d="M194.65,71.94h0c.55,0,.94.38,1.56,1.26a3.14,3.14,0,0,0,1.08.86c.92.41,1.62,1,1.62,1.4v0c.36.79,0,1.85.77,2.6a4.43,4.43,0,0,0,2.77,1,2.59,2.59,0,0,0,.84-.12h0a25.51,25.51,0,0,1,5.94-2.75h0c.87,0,1,.64.86,3.17a38,38,0,0,0,0,5.75l0,.71c.06,1,.08,1.75.06,2.36a3,3,0,0,1-.16,1.38c-.16.19-.27.28-.39.28a.56.56,0,0,1-.31-.14,10.33,10.33,0,0,1-1.07-1.44c-1.28-1.91-1.73-2.31-3.16-2.81l-1.29-.45h0l.09,0a12.91,12.91,0,0,0-6,1.32h0a1.51,1.51,0,0,1,.41-.06h0c.31,0,.27.09-.22.45-1.18.87-1.48,1.33-1.48,2.28,0,.61-.11,1-.35,1.15a1.12,1.12,0,0,1-.16.1h0a1.07,1.07,0,0,1-.63.16h-.11a1.59,1.59,0,0,1-.72-.16,12.28,12.28,0,0,0-2.28-.41c-1.09-.12-2.14-.27-2.33-.32-.5-.15-.42-.81.16-1.19a1.59,1.59,0,0,1,.86-.19h.09a25.47,25.47,0,0,0-7.76-1.8,5.35,5.35,0,0,0-1.35.15h0c.1,0,.13.33,0,.67a4.69,4.69,0,0,1-2.82,1.87,6.79,6.79,0,0,1-1.43.19,7.21,7.21,0,0,1-1.46-.18c-1.8-.36-6.72-2.88-7.68-3.94a1,1,0,0,1-.26-.74c0-.32.06-.52.28-.61,0,0,0,0,0,0l.23,0a.75.75,0,0,0-.21,0,5.76,5.76,0,0,0,.25-.71.42.42,0,0,0,.18.22,1.18,1.18,0,0,0,.39.15,1.21,1.21,0,0,1-.38-.15c-.74-.45.44-2.26,2.48-3.78a26.39,26.39,0,0,1,14.84-4.87,4.59,4.59,0,0,0,2.55-.48,18.58,18.58,0,0,1,2.23-1c.79-.28,1.81-.69,2.26-.91a3.07,3.07,0,0,1,1.24-.39m4.19,3.71h0a.87.87,0,0,1-.28-.19,4.09,4.09,0,0,0-1.32-.56,3.72,3.72,0,0,1-1.73-1l-.76-.79h0l.75.79a3.67,3.67,0,0,0,1.73,1,4.09,4.09,0,0,1,1.32.56c.15.13.24.19.28.19M197,77.12l-.2-.05a23.91,23.91,0,0,0-6.61-1.14,24,24,0,0,1,6.61,1.14l.2.05m-.86-.89h0m2.45,1.08a19.18,19.18,0,0,0-2.42-1.06,19.18,19.18,0,0,1,2.42,1.06m5.1,1.89c-.24,0-.37,0-.37-.13h0c0,.09.12.14.37.14a17.18,17.18,0,0,0,3.07-.55,8.83,8.83,0,0,1,1.63-.27h.13c.08,0,.12.38.12.93,0-.55,0-.89-.12-.93s-.06,0-.13,0a8.83,8.83,0,0,0-1.63.27,17,17,0,0,1-3.07.55m5.56,7.88a15.17,15.17,0,0,0-.39-2.7,11.31,11.31,0,0,1-.3-2.79,11.38,11.38,0,0,0,.3,2.8,15,15,0,0,1,.39,2.69m-11.79-.47h0m-15.58,0v0h0v0m15.2.23-.05,0,.05,0,.07,0-.07,0m-15.5.14,0,0,0,0m15.13.16-.09.08.09-.08.06,0-.06,0m-15.38.07a.1.1,0,0,0-.05,0,.1.1,0,0,1,.05,0l0,0,0,0m-.33.24-.07,0,.07,0,.09-.07-.09.07m15.31.11-.06.07.06-.07.11-.12-.11.12m-17,.64a3.13,3.13,0,0,0,1.26-.49l.29-.18-.3.18a3,3,0,0,1-1.25.49M196,88l-.06.1L196,88l.09-.14L196,88m-16.75.23-.17,0h0l.17,0m16.51.24a.49.49,0,0,0,0,.11.49.49,0,0,1,0-.11.71.71,0,0,1,.08-.18.71.71,0,0,0-.08.18m-3.9-.12h0m1.07.26-.14,0,.14,0m2.67.45v0a1.91,1.91,0,0,1,.06-.33,1.91,1.91,0,0,0-.06.33m-1.61-.1.06,0-.06,0-.16,0,.16,0m1.6.26a.66.66,0,0,1,0,.15h0a.66.66,0,0,0,0-.15m0,.21h0a.05.05,0,0,1,0,0,.05.05,0,0,0,0,0h0m-.85-18.57a4.06,4.06,0,0,0-1.72.5c-.41.2-1.4.59-2.15.86a19.37,19.37,0,0,0-2.41,1c-.4.23-.68.32-2,.33a27.49,27.49,0,0,0-15.49,5.09c-1.56,1.17-3.21,2.92-3.14,4.32v0l0,.07a1.6,1.6,0,0,0-.55,1.41,2.14,2.14,0,0,0,.56,1.45c1.2,1.32,6.38,3.9,8.27,4.27a8.45,8.45,0,0,0,1.68.2,7.36,7.36,0,0,0,1.66-.21,5.71,5.71,0,0,0,3.6-2.49,1.22,1.22,0,0,1,.07-.17h.3a19.66,19.66,0,0,1,5.32,1,1.85,1.85,0,0,0-.09.84,1.56,1.56,0,0,0,1.12,1.25c.45.13,2.49.36,2.51.36a18,18,0,0,1,1.94.31,2.69,2.69,0,0,0,1.18.26h.08a2.25,2.25,0,0,0,1.22-.31,1.46,1.46,0,0,0,.29-.18,2.42,2.42,0,0,0,.77-2c0-.46,0-.63,1-1.39a2.39,2.39,0,0,0,.76-.81,14.15,14.15,0,0,1,4.26-.67l1,.35c1.15.4,1.42.59,2.62,2.39,1,1.47,1.24,1.65,1.35,1.73a1.7,1.7,0,0,0,.94.33,1.6,1.6,0,0,0,1.23-.68,3.15,3.15,0,0,0,.43-2.08c0-.6,0-1.4-.07-2.43l0-.7a36,36,0,0,1,0-5.61c.14-2,.1-3.09-.54-3.79a1.87,1.87,0,0,0-1.42-.56,1.05,1.05,0,0,0-.4.07,28.67,28.67,0,0,0-6,2.75,1.48,1.48,0,0,1-.38,0,3.3,3.3,0,0,1-2-.74c-.15-.15-.19-.37-.23-.87a4.43,4.43,0,0,0-.22-1.18c-.17-1.16-1.74-2-2.24-2.19a2,2,0,0,1-.64-.47,3.26,3.26,0,0,0-2.3-1.74Z" fill="#fff"/><path d="M194.75,73.07l-.71.56-1.18.87c-.27.16-.45.38-.42.48a6.56,6.56,0,0,0,1.82.65c1.62.43,4.79,1.76,4.61,2a15.36,15.36,0,0,1-2.12-.51,25.74,25.74,0,0,0-9.5-1.13,21.19,21.19,0,0,0-5.56.59,22.64,22.64,0,0,0-9.9,5.39,13.67,13.67,0,0,1-1.65,1.49,1.3,1.3,0,0,1-1.1-.09.42.42,0,0,1-.18-.22,5.76,5.76,0,0,1-.25.71,1.55,1.55,0,0,1,.31,0,2.12,2.12,0,0,1,.87.15l.87.63c3.65,2.7,5.62,3.64,7.66,3.68a3.31,3.31,0,0,0,2.22-.53,4.81,4.81,0,0,0,1.07-.81.22.22,0,0,0,0-.08c.12-.2.23-.26.29-.23,1.65-.42,4.55,0,9.11,1.65a13,13,0,0,1,4.14,1.2c.27.11.35,0,.35-.29a3.45,3.45,0,0,1,2.26-2.7h0a12.91,12.91,0,0,1,6-1.32l-.09,0,.88-.06a3.91,3.91,0,0,1,3.41,1.57,4.28,4.28,0,0,0,1,1c.27,0,.19-1.21-.23-3.18a12.07,12.07,0,0,1-.26-3.86,5.26,5.26,0,0,0-.08-2.13,6,6,0,0,0-1.76.26c-2.36.56-3.44.69-3.44.41a.09.09,0,0,1,0,0,4.13,4.13,0,0,1-3.61-.92c-.79-.75-.4-1.83-.78-2.63,0,.25,0,.25-.35,0a4.09,4.09,0,0,0-1.32-.56,3.67,3.67,0,0,1-1.73-1Z" fill="#f2f2f2"/><path d="M184.59,82.57l-.25-3.37c-.07-.42,0-.74.06-.74s.71,1.07,1,2a2.41,2.41,0,0,0,.44.84c.27.31.27.38,0,.71a1.86,1.86,0,0,0-.33,1c0,.83-.35,2.16-.57,2.16a10.89,10.89,0,0,1-.29-2.62Zm2.56,1.59c-.05-.14-.13-1.4-.19-2.8-.08-2.14-.06-2.5.17-2.31a1.91,1.91,0,0,1,.41.86A3.71,3.71,0,0,0,188,81a.8.8,0,0,1,.09.89,6,6,0,0,0-.33,1.36c-.12.93-.43,1.4-.58.9Zm2.41-2.57V79.06c.13-.15.44.42.69,1.28a2.35,2.35,0,0,0,.43.92c.1.07.11.28,0,.5a9.7,9.7,0,0,0-.38,1.24c-.39,1.65-.65,1.17-.75-1.41Zm2.61,1.08a19.8,19.8,0,0,0-.17-2.19,2.42,2.42,0,0,1,0-1.14c.21-.13.53.34.69,1a1.8,1.8,0,0,0,.56.93l.42.34-.45.32a1.07,1.07,0,0,0-.44.78c0,.59-.2,1.09-.42,1.09s-.18-.51-.19-1.13Zm2.38-.48a16,16,0,0,0-.12-2c-.18-1,.17-.81.81.53.42.87.45,1.07.22,1.33a1.74,1.74,0,0,0-.34.78c0,.26-.18.52-.32.56s-.24-.26-.24-1.18Zm2.18-.8c0-1.66,0-1.8.32-1.52a3.23,3.23,0,0,1,.29,2.62c-.4,1.2-.61.82-.61-1.1Zm2.07.33c-.37-.29-.36-.3.21-.25.33,0,.58.15.56.25C199.51,82,199.21,82,198.8,81.72Z" fill="#febc5b"/><path d="M194.65,71.94a3.07,3.07,0,0,0-1.24.39c-.45.22-1.47.63-2.26.91a18.58,18.58,0,0,0-2.23,1,4.59,4.59,0,0,1-2.55.48,26.39,26.39,0,0,0-14.84,4.87c-2,1.52-3.22,3.33-2.48,3.78a1.26,1.26,0,0,0,1.1.09,13.67,13.67,0,0,0,1.65-1.49,22.47,22.47,0,0,1,9.9-5.38,20.55,20.55,0,0,1,5.56-.6,25.66,25.66,0,0,1,9.49,1.13,14.11,14.11,0,0,0,2.12.51c.18-.18-3-1.52-4.6-2a6.56,6.56,0,0,1-1.82-.65c0-.1.15-.32.41-.48a13.68,13.68,0,0,0,1.19-.87l.71-.56.76.79a3.72,3.72,0,0,0,1.73,1,4.09,4.09,0,0,1,1.32.56c.3.26.35.26.35,0s-.7-1-1.62-1.4a3.14,3.14,0,0,1-1.08-.86c-.62-.88-1-1.26-1.56-1.26Zm14.58,4.34c-.7,0-6,2.46-6,2.78s1.08.15,3.44-.41a5.53,5.53,0,0,1,1.76-.25,5.18,5.18,0,0,1,.08,2.12,12.07,12.07,0,0,0,.26,3.86c.42,2,.5,3.18.23,3.18a4.06,4.06,0,0,1-1-1A4,4,0,0,0,204.64,85l-.88.06,1.31.46c1.43.5,1.88.9,3.16,2.81a10.33,10.33,0,0,0,1.07,1.44c.3.21.42.18.7-.14a3,3,0,0,0,.16-1.38c0-.61,0-1.39-.06-2.36l0-.71a38,38,0,0,1,0-5.75c.18-2.53,0-3.17-.86-3.17Zm-32.12,3.79a1.73,1.73,0,0,0-1.46.84c-.34.53-.22,1,.47,1.77.42.48,1.36.3,2-.37s.55-.81,0-1.63a1.21,1.21,0,0,0-1-.61Zm-.6,1a1,1,0,0,1,.79.55c.12.35-.74.28-.88-.07a.5.5,0,0,1,0-.44l.08,0Zm-7.59,2.74a1.84,1.84,0,0,0-.33,0s0,0,0,0c-.22.09-.32.29-.28.61a1,1,0,0,0,.26.74c1,1.06,5.88,3.58,7.68,3.94a5.89,5.89,0,0,0,2.89,0,4.69,4.69,0,0,0,2.82-1.87c.26-.56,0-1-.26-.44a3.82,3.82,0,0,1-1.11.89,3.4,3.4,0,0,1-2.22.53c-2.05,0-4-1-7.66-3.68l-.87-.63a2.18,2.18,0,0,0-.88-.15Zm29.32,2.6a3.33,3.33,0,0,0-2.69,2.77c0,.34-.08.4-.35.29-2.69-1.13-4.39-1.46-5.09-1s-.66,1-.16,1.19c.19,0,1.24.2,2.33.32a12.28,12.28,0,0,1,2.28.41,1.64,1.64,0,0,0,.79.16h0a1.07,1.07,0,0,0,.63-.16h0a1.12,1.12,0,0,0,.16-.1c.24-.18.35-.54.35-1.15,0-.95.3-1.41,1.48-2.28.49-.36.53-.44.22-.45Z"/><path d="M177.34,87.31l-.69-.21,1.23-.23c1.63-.31,2-.69,2-1.92,0-1,.21-1.2.69-.52a1.93,1.93,0,0,1-1,2.85,2.93,2.93,0,0,1-2.26,0Zm27.21-4.26a2.67,2.67,0,0,0-.18-1.53c-.38-.92-.38-.9.07-.9s1.45,1.14,1.3,1.66a2.85,2.85,0,0,1-1.07,1.47C204.48,83.82,204.45,83.65,204.55,83.05Zm-7.12-4.83c-3.91-1.26-10.83-1.3-15.5-.08-1,.25-1.17.25-1.4,0-.39-.39.32-.8,2.27-1.31,3.8-.73,13.1-1,16.31,1.69,0,.17-.4.09-1.68-.32Z" fill="#71a0fe"/><polygon points="189.64 46.34 187.05 40.96 192.23 40.96 189.64 46.34" fill="#71b429"/><polygon points="28.42 46.34 25.83 40.96 31.01 40.96 28.42 46.34" fill="#71b429"/><path d="M190.14,42.35h-1v-4h1Zm0-8h-1v-4h1Zm0-8h-1v-4h1Z" fill="#71b429"/><path d="M88.53,4.17v3H87.7V0h2A3.13,3.13,0,0,1,91.6.5,1.83,1.83,0,0,1,92.23,2a1.89,1.89,0,0,1-1.44,1.91l1.94,3.21h-1L90,4.17Zm0-.71h1.14A2,2,0,0,0,91,3.11a1.31,1.31,0,0,0,.41-1A1.19,1.19,0,0,0,91,1,2.26,2.26,0,0,0,89.61.73H88.53Z" fill="#71b429"/><path d="M96,7.24a2.43,2.43,0,0,1-1.87-.73,2.78,2.78,0,0,1-.69-2,3.08,3.08,0,0,1,.64-2.06,2.09,2.09,0,0,1,1.71-.76,2,2,0,0,1,1.59.66A2.54,2.54,0,0,1,98,4.1v.51H94.3A2.15,2.15,0,0,0,94.78,6a1.62,1.62,0,0,0,1.27.49,4.3,4.3,0,0,0,1.71-.36v.72a5.48,5.48,0,0,1-.81.27A5,5,0,0,1,96,7.24ZM95.8,2.37a1.33,1.33,0,0,0-1,.42A2,2,0,0,0,94.32,4h2.8a1.81,1.81,0,0,0-.34-1.17A1.19,1.19,0,0,0,95.8,2.37Z" fill="#71b429"/><path d="M101.27,7.24a2,2,0,0,1-1.62-.73,3.23,3.23,0,0,1-.58-2,3.21,3.21,0,0,1,.59-2.05,2.15,2.15,0,0,1,3.32.09h0l.12-.73h.64V9.54H103V7.25a6.48,6.48,0,0,1,0-.83H103A1.94,1.94,0,0,1,101.27,7.24Zm.12-.68a1.46,1.46,0,0,0,1.18-.44,2.36,2.36,0,0,0,.4-1.46V4.48a2.72,2.72,0,0,0-.38-1.62,1.44,1.44,0,0,0-1.21-.49,1.24,1.24,0,0,0-1.09.55,2.78,2.78,0,0,0-.38,1.57A2.67,2.67,0,0,0,100.29,6,1.25,1.25,0,0,0,101.39,6.56Z" fill="#71b429"/><path d="M106.26,1.79V5.26a1.4,1.4,0,0,0,.3,1,1.23,1.23,0,0,0,.93.32,1.55,1.55,0,0,0,1.23-.46,2.32,2.32,0,0,0,.39-1.5V1.79h.81V7.14h-.67l-.12-.72h0a1.7,1.7,0,0,1-.69.61,2.34,2.34,0,0,1-1,.21,2,2,0,0,1-1.46-.47,1.94,1.94,0,0,1-.49-1.48V1.79Z" fill="#71b429"/><path d="M113.9,7.24A2.46,2.46,0,0,1,112,6.51a2.82,2.82,0,0,1-.68-2A3.08,3.08,0,0,1,112,2.45a2.09,2.09,0,0,1,1.71-.76,2,2,0,0,1,1.59.66,2.53,2.53,0,0,1,.58,1.75v.51h-3.68A2.1,2.1,0,0,0,112.65,6a1.66,1.66,0,0,0,1.28.49,4.29,4.29,0,0,0,1.7-.36v.72a3.79,3.79,0,0,1-1.73.35Zm-.22-4.87a1.32,1.32,0,0,0-1,.42A1.88,1.88,0,0,0,112.2,4H115a1.76,1.76,0,0,0-.35-1.17A1.16,1.16,0,0,0,113.68,2.37Z" fill="#71b429"/><path d="M120.7,5.68a1.34,1.34,0,0,1-.56,1.15,2.61,2.61,0,0,1-1.56.41,3.45,3.45,0,0,1-1.66-.34V6.15a4.31,4.31,0,0,0,.83.31,3.67,3.67,0,0,0,.85.11,2,2,0,0,0,1-.2.7.7,0,0,0,.34-.62.68.68,0,0,0-.27-.54,4.46,4.46,0,0,0-1.06-.52,5.77,5.77,0,0,1-1.06-.49,1.4,1.4,0,0,1-.47-.47,1.28,1.28,0,0,1-.16-.63,1.18,1.18,0,0,1,.54-1,2.48,2.48,0,0,1,1.46-.38,4.37,4.37,0,0,1,1.69.35l-.29.66a3.94,3.94,0,0,0-1.46-.33,1.66,1.66,0,0,0-.87.18.54.54,0,0,0-.29.5.55.55,0,0,0,.11.36,1.06,1.06,0,0,0,.35.29,9.52,9.52,0,0,0,.94.4,3.54,3.54,0,0,1,1.28.69A1.22,1.22,0,0,1,120.7,5.68Z" fill="#71b429"/><path d="M123.75,6.57a2.73,2.73,0,0,0,.41,0l.32-.07v.62a1.72,1.72,0,0,1-.39.11,4.3,4.3,0,0,1-.46,0c-1,0-1.55-.55-1.55-1.64V2.42h-.77V2l.77-.34.34-1.14h.47V1.79h1.55v.63h-1.55V5.57a1,1,0,0,0,.23.74A.8.8,0,0,0,123.75,6.57Z" fill="#71b429"/><path d="M129,5.68a1.34,1.34,0,0,1-.56,1.15,2.61,2.61,0,0,1-1.56.41,3.45,3.45,0,0,1-1.66-.34V6.15a4.31,4.31,0,0,0,.83.31,3.67,3.67,0,0,0,.85.11,2,2,0,0,0,1-.2.7.7,0,0,0,.34-.62.68.68,0,0,0-.27-.54,4.26,4.26,0,0,0-1.06-.52,5.77,5.77,0,0,1-1.06-.49,1.4,1.4,0,0,1-.47-.47,1.28,1.28,0,0,1-.15-.63,1.18,1.18,0,0,1,.53-1,2.48,2.48,0,0,1,1.46-.38,4.37,4.37,0,0,1,1.69.35l-.29.66a3.89,3.89,0,0,0-1.46-.33,1.66,1.66,0,0,0-.87.18.54.54,0,0,0-.29.5.55.55,0,0,0,.11.36,1.06,1.06,0,0,0,.35.29,9.52,9.52,0,0,0,.94.4,3.54,3.54,0,0,1,1.28.69A1.22,1.22,0,0,1,129,5.68Z" fill="#71b429"/><path d="M105.08,251.29a3.59,3.59,0,0,1-1,2.7,3.77,3.77,0,0,1-2.76.94h-2v-7.14h2.19a3.2,3.2,0,0,1,3.51,3.5Zm-.88,0a2.85,2.85,0,0,0-.7-2.1,2.82,2.82,0,0,0-2.08-.71h-1.21v5.7h1a3.08,3.08,0,0,0,2.24-.73A2.9,2.9,0,0,0,104.2,251.32Z" fill="#fff"/><path d="M111.16,254.93l-.89-2.27h-2.86l-.88,2.27h-.84l2.82-7.17h.7l2.81,7.17Zm-1.15-3-.83-2.21c-.1-.28-.22-.62-.33-1a7.74,7.74,0,0,1-.31,1l-.84,2.21Z" fill="#fff"/><path d="M117,253a1.76,1.76,0,0,1-.68,1.47,3,3,0,0,1-1.86.53,4.57,4.57,0,0,1-1.95-.33v-.8a5.35,5.35,0,0,0,2,.4,2.08,2.08,0,0,0,1.25-.31,1,1,0,0,0,.42-.88,1.13,1.13,0,0,0-.15-.61,1.38,1.38,0,0,0-.5-.44,7.09,7.09,0,0,0-1.06-.45,3.45,3.45,0,0,1-1.42-.84,1.85,1.85,0,0,1-.43-1.28,1.58,1.58,0,0,1,.62-1.31,2.54,2.54,0,0,1,1.64-.49,4.86,4.86,0,0,1,2,.39l-.26.72a4.56,4.56,0,0,0-1.72-.37,1.73,1.73,0,0,0-1,.28.94.94,0,0,0-.37.79,1.22,1.22,0,0,0,.14.61,1.21,1.21,0,0,0,.46.43,5.8,5.8,0,0,0,1,.44,3.93,3.93,0,0,1,1.55.86A1.7,1.7,0,0,1,117,253Z" fill="#fff"/></svg>