<svg id="af149d75-5aa3-41e5-b03e-73bdd71e9195" data-name="Слой 1" xmlns="http://www.w3.org/2000/svg" width="136.96" height="338.13" viewBox="0 0 136.96 338.13">
  <defs>
    <style>
      .b98e4dcd-1a5f-4100-9e59-5a63b8368035 {
        fill: #05acff;
      }

      .bd817da2-4e75-4402-b272-f01707b05679 {
        fill: #71b429;
      }

      .a77fe34a-c272-4ba4-9f9d-e30533588d05 {
        fill: #fff;
      }

      .a9213ed6-f89f-4ed9-9957-19ce5b863aee {
        fill: #e87474;
      }

      .af54ebaf-b3c3-4057-88a4-1b4628c016b7 {
        fill: #f2f2f2;
      }

      .a853b5a9-38ec-4659-9d47-2b40b02fc034 {
        fill: #febc5b;
      }

      .f3607bb1-b8c7-4a30-aea0-802055b18b4f {
        fill: #71a0fe;
      }

      .b7480087-84cf-448e-a4b8-fbb49da1cb24 {
        fill: #5e6981;
      }
    </style>
  </defs>
  <g>
    <path class="b98e4dcd-1a5f-4100-9e59-5a63b8368035" d="M43.14,233v-7.16h3.17a4.22,4.22,0,0,1,1.46.19,1.58,1.58,0,0,1,.79.68,2,2,0,0,1,.3,1.08,1.81,1.81,0,0,1-.49,1.29,2.53,2.53,0,0,1-1.52.66,2.35,2.35,0,0,1,.57.36,4.77,4.77,0,0,1,.78,1L49.45,233H48.26l-.95-1.49c-.28-.43-.5-.76-.68-1a2.14,2.14,0,0,0-.48-.48,1.68,1.68,0,0,0-.44-.19,3.1,3.1,0,0,0-.52,0h-1.1V233Zm1-4h2a3,3,0,0,0,1-.14,1.11,1.11,0,0,0,.56-.43,1.2,1.2,0,0,0,.19-.64,1.06,1.06,0,0,0-.37-.83,1.74,1.74,0,0,0-1.17-.33H44.09Z"/>
    <path class="b98e4dcd-1a5f-4100-9e59-5a63b8368035" d="M53.78,231.37l.91.11a2.21,2.21,0,0,1-.79,1.23,2.7,2.7,0,0,1-3.29-.26,2.69,2.69,0,0,1-.67-2,2.86,2.86,0,0,1,.68-2,2.27,2.27,0,0,1,1.74-.73,2.22,2.22,0,0,1,1.7.71,2.81,2.81,0,0,1,.66,2v.24H50.85a2,2,0,0,0,.48,1.31,1.45,1.45,0,0,0,1.09.45,1.31,1.31,0,0,0,.82-.25A1.65,1.65,0,0,0,53.78,231.37ZM50.9,230h2.89a1.73,1.73,0,0,0-.33-1,1.36,1.36,0,0,0-1.09-.5,1.41,1.41,0,0,0-1,.4A1.63,1.63,0,0,0,50.9,230Z"/>
    <path class="b98e4dcd-1a5f-4100-9e59-5a63b8368035" d="M55.8,235v-7.17h.8v.68a1.9,1.9,0,0,1,.64-.6,1.74,1.74,0,0,1,.86-.2,2,2,0,0,1,1.17.35,2,2,0,0,1,.77,1,3.56,3.56,0,0,1,.26,1.37,3.48,3.48,0,0,1-.29,1.43,2.18,2.18,0,0,1-2,1.31,1.67,1.67,0,0,1-.79-.18,1.89,1.89,0,0,1-.57-.47V235Zm.79-4.55A2.25,2.25,0,0,0,57,232a1.24,1.24,0,0,0,1,.48,1.26,1.26,0,0,0,1-.49,2.36,2.36,0,0,0,.42-1.54,2.27,2.27,0,0,0-.41-1.48,1.22,1.22,0,0,0-1-.5,1.28,1.28,0,0,0-1,.53A2.39,2.39,0,0,0,56.59,230.47Z"/>
    <path class="b98e4dcd-1a5f-4100-9e59-5a63b8368035" d="M61.34,233v-7.16h.88V233Z"/>
    <path class="b98e4dcd-1a5f-4100-9e59-5a63b8368035" d="M63.58,226.89v-1h.88v1Zm0,6.15v-5.19h.88V233Z"/>
    <path class="b98e4dcd-1a5f-4100-9e59-5a63b8368035" d="M69.18,231.14l.87.11a2.27,2.27,0,0,1-.73,1.4,2.08,2.08,0,0,1-1.43.5,2.23,2.23,0,0,1-1.71-.69,2.85,2.85,0,0,1-.65-2,3.71,3.71,0,0,1,.28-1.47,2,2,0,0,1,.85-.94,2.52,2.52,0,0,1,1.24-.32,2.19,2.19,0,0,1,1.38.43,2,2,0,0,1,.69,1.21l-.86.14a1.41,1.41,0,0,0-.43-.79,1.11,1.11,0,0,0-.75-.26,1.39,1.39,0,0,0-1.08.47,2.25,2.25,0,0,0-.41,1.51,2.32,2.32,0,0,0,.4,1.52,1.3,1.3,0,0,0,1,.47,1.2,1.2,0,0,0,.87-.32A1.54,1.54,0,0,0,69.18,231.14Z"/>
    <path class="b98e4dcd-1a5f-4100-9e59-5a63b8368035" d="M74.18,232.4a3.21,3.21,0,0,1-.93.58,2.64,2.64,0,0,1-1,.17,1.9,1.9,0,0,1-1.32-.41,1.47,1.47,0,0,1-.28-1.77,1.36,1.36,0,0,1,.45-.5,2.26,2.26,0,0,1,.63-.29,5.38,5.38,0,0,1,.78-.13,9.1,9.1,0,0,0,1.57-.3c0-.12,0-.2,0-.23a1,1,0,0,0-.25-.76,1.48,1.48,0,0,0-1-.3,1.52,1.52,0,0,0-.92.22,1.32,1.32,0,0,0-.44.77l-.86-.12a2.15,2.15,0,0,1,.39-.89,1.65,1.65,0,0,1,.78-.52,3.26,3.26,0,0,1,1.17-.19,3.16,3.16,0,0,1,1.08.16,1.43,1.43,0,0,1,.61.39,1.52,1.52,0,0,1,.28.6,5,5,0,0,1,0,.81v1.17a11.54,11.54,0,0,0,.06,1.55,1.82,1.82,0,0,0,.22.63h-.92A2.08,2.08,0,0,1,74.18,232.4Zm-.07-2a6.39,6.39,0,0,1-1.43.34,3.49,3.49,0,0,0-.77.17.77.77,0,0,0-.35.29.74.74,0,0,0-.12.42.73.73,0,0,0,.27.58,1.1,1.1,0,0,0,.78.24,1.8,1.8,0,0,0,.9-.23,1.34,1.34,0,0,0,.58-.6,2.24,2.24,0,0,0,.14-.88Z"/>
    <path class="b98e4dcd-1a5f-4100-9e59-5a63b8368035" d="M78.28,232.25l.13.78a3.47,3.47,0,0,1-.67.08A1.53,1.53,0,0,1,77,233a.87.87,0,0,1-.37-.39,3.2,3.2,0,0,1-.11-1v-3h-.64v-.69h.64v-1.28l.88-.53v1.81h.88v.69H77.4v3a1.6,1.6,0,0,0,0,.48.44.44,0,0,0,.16.17.6.6,0,0,0,.3.07Z"/>
    <path class="b98e4dcd-1a5f-4100-9e59-5a63b8368035" d="M79.15,226.89v-1H80v1Zm0,6.15v-5.19H80V233Z"/>
    <path class="b98e4dcd-1a5f-4100-9e59-5a63b8368035" d="M81,230.44a2.64,2.64,0,0,1,.8-2.13,2.43,2.43,0,0,1,1.63-.58,2.34,2.34,0,0,1,1.75.71,2.65,2.65,0,0,1,.67,1.93,3.47,3.47,0,0,1-.3,1.58,2.19,2.19,0,0,1-.87.89,2.55,2.55,0,0,1-1.25.31,2.33,2.33,0,0,1-1.76-.69A2.8,2.8,0,0,1,81,230.44Zm.9,0a2.22,2.22,0,0,0,.43,1.5,1.4,1.4,0,0,0,1.1.49,1.37,1.37,0,0,0,1.09-.5,2.24,2.24,0,0,0,.43-1.52,2.08,2.08,0,0,0-.44-1.45,1.38,1.38,0,0,0-1.08-.5,1.43,1.43,0,0,0-1.1.49A2.21,2.21,0,0,0,81.94,230.44Z"/>
    <path class="b98e4dcd-1a5f-4100-9e59-5a63b8368035" d="M86.92,233v-5.19h.8v.74a1.87,1.87,0,0,1,1.65-.86,2.2,2.2,0,0,1,.86.17,1.52,1.52,0,0,1,.59.44,1.72,1.72,0,0,1,.27.65,5.4,5.4,0,0,1,0,.86V233h-.88v-3.16a2.32,2.32,0,0,0-.1-.8.85.85,0,0,0-.37-.43,1.2,1.2,0,0,0-.61-.15,1.46,1.46,0,0,0-1,.35,1.77,1.77,0,0,0-.41,1.35V233Z"/>
  </g>
  <rect class="b98e4dcd-1a5f-4100-9e59-5a63b8368035" x="66.78" y="242.32" width="1.15" height="21.29"/>
  <rect class="b98e4dcd-1a5f-4100-9e59-5a63b8368035" x="26.78" y="241.61" width="40.53" height="1.15"/>
  <rect class="b98e4dcd-1a5f-4100-9e59-5a63b8368035" x="26.67" y="220.32" width="1.15" height="21.29"/>
  <polygon class="b98e4dcd-1a5f-4100-9e59-5a63b8368035" points="27.25 216.67 24.66 222.05 29.84 222.05 27.25 216.67"/>
  <polygon class="b98e4dcd-1a5f-4100-9e59-5a63b8368035" points="108.73 216.67 106.14 222.05 111.32 222.05 108.73 216.67"/>
  <rect class="b98e4dcd-1a5f-4100-9e59-5a63b8368035" x="107.87" y="223.2" width="1.15" height="1.73"/>
  <path class="b98e4dcd-1a5f-4100-9e59-5a63b8368035" d="M109,237.58h-1.15v-3.45H109Zm0-6.33h-1.15V227.8H109Z"/>
  <polygon class="b98e4dcd-1a5f-4100-9e59-5a63b8368035" points="109.02 242.76 106.72 242.76 106.72 241.61 107.87 241.61 107.87 240.46 109.02 240.46 109.02 242.76"/>
  <rect class="b98e4dcd-1a5f-4100-9e59-5a63b8368035" x="100.14" y="241.61" width="3.59" height="1.15"/>
  <rect class="b98e4dcd-1a5f-4100-9e59-5a63b8368035" x="93.56" y="241.61" width="3.59" height="1.15"/>
  <rect class="b98e4dcd-1a5f-4100-9e59-5a63b8368035" x="86.98" y="241.61" width="3.59" height="1.15"/>
  <rect class="b98e4dcd-1a5f-4100-9e59-5a63b8368035" x="80.39" y="241.61" width="3.59" height="1.15"/>
  <rect class="b98e4dcd-1a5f-4100-9e59-5a63b8368035" x="73.81" y="241.61" width="3.59" height="1.15"/>
  <rect class="b98e4dcd-1a5f-4100-9e59-5a63b8368035" x="67.23" y="241.61" width="3.59" height="1.15"/>
  <rect class="b98e4dcd-1a5f-4100-9e59-5a63b8368035" x="29.61" y="241.61" width="1.73" height="1.15"/>
  <g>
    <rect class="bd817da2-4e75-4402-b272-f01707b05679" x="66.78" y="78.67" width="1.15" height="21.29"/>
    <rect class="bd817da2-4e75-4402-b272-f01707b05679" x="26.78" y="99.52" width="40.53" height="1.15"/>
    <rect class="bd817da2-4e75-4402-b272-f01707b05679" x="26.67" y="100.67" width="1.15" height="21.29"/>
    <polygon class="bd817da2-4e75-4402-b272-f01707b05679" points="27.25 125.61 24.66 120.24 29.84 120.24 27.25 125.61"/>
    <polygon class="bd817da2-4e75-4402-b272-f01707b05679" points="108.73 125.61 106.14 120.24 111.32 120.24 108.73 125.61"/>
    <rect class="bd817da2-4e75-4402-b272-f01707b05679" x="107.87" y="117.36" width="1.15" height="1.73"/>
    <path class="bd817da2-4e75-4402-b272-f01707b05679" d="M109,108.15h-1.15V104.7H109Zm0,6.33h-1.15V111H109Z"/>
    <polygon class="bd817da2-4e75-4402-b272-f01707b05679" points="109.02 99.52 106.72 99.52 106.72 100.67 107.87 100.67 107.87 101.82 109.02 101.82 109.02 99.52"/>
    <rect class="bd817da2-4e75-4402-b272-f01707b05679" x="100.14" y="99.52" width="3.59" height="1.15"/>
    <rect class="bd817da2-4e75-4402-b272-f01707b05679" x="93.56" y="99.52" width="3.59" height="1.15"/>
    <rect class="bd817da2-4e75-4402-b272-f01707b05679" x="86.98" y="99.52" width="3.59" height="1.15"/>
    <rect class="bd817da2-4e75-4402-b272-f01707b05679" x="80.39" y="99.52" width="3.59" height="1.15"/>
    <rect class="bd817da2-4e75-4402-b272-f01707b05679" x="73.81" y="99.52" width="3.59" height="1.15"/>
    <rect class="bd817da2-4e75-4402-b272-f01707b05679" x="67.23" y="99.52" width="3.59" height="1.15"/>
    <rect class="bd817da2-4e75-4402-b272-f01707b05679" x="29.61" y="99.52" width="1.73" height="1.15"/>
  </g>
  <rect class="a77fe34a-c272-4ba4-9f9d-e30533588d05" x="39.87" y="269.43" width="54.67" height="54.67" rx="3"/>
  <g>
    <path class="a9213ed6-f89f-4ed9-9957-19ce5b863aee" d="M95.11,272.44V321.1a3.58,3.58,0,0,1-3.58,3.58H42.87a3.59,3.59,0,0,1-3.58-3.58V272.44a3.58,3.58,0,0,1,3.58-3.58H91.53A3.58,3.58,0,0,1,95.11,272.44Zm-3.58,51.09A2.43,2.43,0,0,0,94,321.1V272.44A2.43,2.43,0,0,0,91.53,270H42.87a2.43,2.43,0,0,0-2.43,2.43V321.1a2.43,2.43,0,0,0,2.43,2.43Z"/>
    <path class="a9213ed6-f89f-4ed9-9957-19ce5b863aee" d="M91.53,325.18H42.87a4.08,4.08,0,0,1-4.08-4.08V272.44a4.08,4.08,0,0,1,4.08-4.08H91.53a4.08,4.08,0,0,1,4.08,4.08V321.1A4.08,4.08,0,0,1,91.53,325.18ZM42.87,269.36a3.08,3.08,0,0,0-3.08,3.08V321.1a3.08,3.08,0,0,0,3.08,3.08H91.53a3.08,3.08,0,0,0,3.08-3.08V272.44a3.08,3.08,0,0,0-3.08-3.08ZM91.53,324H42.87a2.94,2.94,0,0,1-2.93-2.93V272.44a2.93,2.93,0,0,1,2.93-2.93H91.53a2.93,2.93,0,0,1,2.93,2.93V321.1A2.93,2.93,0,0,1,91.53,324ZM42.87,270.51a1.93,1.93,0,0,0-1.93,1.93V321.1A1.94,1.94,0,0,0,42.87,323H91.53a1.93,1.93,0,0,0,1.93-1.93V272.44a1.92,1.92,0,0,0-1.93-1.93Z"/>
  </g>
  <g>
    <g>
      <path class="a77fe34a-c272-4ba4-9f9d-e30533588d05" d="M73.27,306.16a2.11,2.11,0,0,1-1-.23,17.54,17.54,0,0,0-2.06-.34c-.84-.09-2.14-.26-2.42-.34a1,1,0,0,1-.72-.8,1.28,1.28,0,0,1,.37-1.07,21.79,21.79,0,0,0-6.15-1.28,5.7,5.7,0,0,0-.74,0,1.77,1.77,0,0,1-.14.45,5.2,5.2,0,0,1-3.21,2.18,7,7,0,0,1-1.54.2,8,8,0,0,1-1.57-.19c-1.94-.38-6.94-3-8-4.11a1.57,1.57,0,0,1-.41-1.13,1,1,0,0,1,.46-1q.06-.16.12-.36a.5.5,0,0,1,0-.12c0-1.12,1.43-2.74,2.92-3.86a26.92,26.92,0,0,1,15.17-5,4.13,4.13,0,0,0,2.29-.41,18.15,18.15,0,0,1,2.31-1c.77-.27,1.78-.68,2.21-.89a3.47,3.47,0,0,1,1.48-.44h.1c.84.05,1.37.71,1.92,1.5a2.57,2.57,0,0,0,.86.67c.86.38,1.86,1.09,1.93,1.82a3.51,3.51,0,0,1,.21,1.09,1.71,1.71,0,0,0,.4,1.22,3.89,3.89,0,0,0,2.39.89,1.79,1.79,0,0,0,.59-.08,24.8,24.8,0,0,1,6.18-2.78h0a1.3,1.3,0,0,1,1,.39c.5.54.53,1.56.4,3.37a37,37,0,0,0,0,5.69l0,.7c.06,1,.08,1.79.06,2.41,0,1-.07,1.44-.29,1.71a1.08,1.08,0,0,1-.82.48h0a1,1,0,0,1-.62-.24,9.76,9.76,0,0,1-1.21-1.58c-1.27-1.91-1.63-2.16-2.89-2.6l-1.1-.39a13.87,13.87,0,0,0-4.79.82c0,.32-.34.55-.64.77-1.16.86-1.27,1.17-1.27,1.84a1.9,1.9,0,0,1-.56,1.59l-.19.12a1.66,1.66,0,0,1-.94.25Z"/>
      <path class="a77fe34a-c272-4ba4-9f9d-e30533588d05" d="M72.64,287h0c.55,0,1,.38,1.56,1.26a3.09,3.09,0,0,0,1.09.86c.91.41,1.62,1,1.62,1.4,0,0,0,0,0,0,.37.79,0,1.85.78,2.6a4.4,4.4,0,0,0,2.77,1,2.49,2.49,0,0,0,.83-.12h0a25.51,25.51,0,0,1,5.94-2.75h0c.86,0,1,.64.86,3.17a38,38,0,0,0,0,5.75l0,.71c.06,1,.08,1.75.06,2.36,0,.84-.05,1.24-.17,1.38s-.26.28-.39.28a.62.62,0,0,1-.31-.14,11.61,11.61,0,0,1-1.06-1.44c-1.28-1.91-1.73-2.31-3.17-2.81l-1.28-.45h0l.08,0a12.9,12.9,0,0,0-6,1.32h0a1.44,1.44,0,0,1,.4-.06h0c.32,0,.28.09-.21.45-1.19.87-1.49,1.33-1.49,2.28,0,.61-.1,1-.34,1.15l-.16.1h0a1.07,1.07,0,0,1-.63.16h-.11a1.67,1.67,0,0,1-.73-.16,12.11,12.11,0,0,0-2.27-.41c-1.09-.12-2.14-.27-2.33-.32-.51-.15-.42-.81.15-1.19a1.64,1.64,0,0,1,.86-.19h.1a25.47,25.47,0,0,0-7.76-1.8,5.35,5.35,0,0,0-1.35.15h0c.1.05.13.33,0,.67a4.68,4.68,0,0,1-2.83,1.87,6.71,6.71,0,0,1-1.42.19,7.21,7.21,0,0,1-1.46-.18c-1.8-.36-6.72-2.88-7.68-3.94a1.06,1.06,0,0,1-.27-.74c0-.32.06-.52.29-.61l0,0,.23,0a.75.75,0,0,0-.21,0,5.85,5.85,0,0,0,.24-.71.5.5,0,0,0,.19.22,1.18,1.18,0,0,0,.39.15,1.38,1.38,0,0,1-.39-.15c-.73-.45.45-2.26,2.48-3.78a26.42,26.42,0,0,1,14.85-4.87,4.59,4.59,0,0,0,2.55-.48,18.58,18.58,0,0,1,2.23-1c.79-.28,1.8-.69,2.26-.91a3.07,3.07,0,0,1,1.24-.39m4.19,3.71h0a.87.87,0,0,1-.27-.19,4.09,4.09,0,0,0-1.32-.56,3.67,3.67,0,0,1-1.73-1l-.76-.79h0l.76.79a3.62,3.62,0,0,0,1.73,1,4.2,4.2,0,0,1,1.32.56c.15.13.23.19.28.19m-1.89,1.47-.2-.05A23.91,23.91,0,0,0,68.13,291a23.91,23.91,0,0,1,6.6,1.14l.21.05m-.87-.89h0m2.46,1.08a19.18,19.18,0,0,0-2.42-1.06,19.18,19.18,0,0,1,2.42,1.06m5.1,1.89c-.25,0-.37,0-.37-.13h0c0,.09.13.14.38.14a17.18,17.18,0,0,0,3.07-.55,8.71,8.71,0,0,1,1.63-.27h.13c.08.05.12.38.12.93,0-.55,0-.89-.12-.93s-.07,0-.13,0a8.58,8.58,0,0,0-1.63.27,17.18,17.18,0,0,1-3.07.55m5.55,7.88a14,14,0,0,0-.38-2.7,11.85,11.85,0,0,1-.31-2.79,11.93,11.93,0,0,0,.31,2.8,13.87,13.87,0,0,1,.38,2.69m-11.79-.47h0m-15.57,0,0,0h0l0,0m15.2.23,0,0,0,0,.06,0-.06,0m-15.5.14,0,0,0,0m15.13.16-.09.08.09-.08.06-.05-.06.05m-15.39.07,0,0,0,0,0,0,0,0m-.32.24-.07.05.07-.05.09-.07-.09.07m15.31.11-.06.07.06-.07.1-.12-.1.12m-17,.64a3.13,3.13,0,0,0,1.26-.49l.28-.18-.29.18a3,3,0,0,1-1.25.49m16.66-.22-.06.1.06-.1.09-.14-.09.14m-16.75.23-.17,0h0l.17,0m16.5.24,0,.11,0-.11.08-.18-.08.18m-3.89-.12h0m1.07.26-.14,0,.14,0m2.67.45s0,.07,0,.1,0-.07,0-.1a1.91,1.91,0,0,1,.06-.33,1.91,1.91,0,0,0-.06.33m-1.62-.1.07,0-.07,0-.15-.05.15.05m1.61.26c0,.06,0,.11,0,.15h0s0-.09,0-.15m0,.21h0a.05.05,0,0,1,0,0,.05.05,0,0,0,0,0h0m-.85-18.57a4.06,4.06,0,0,0-1.72.5c-.42.2-1.4.59-2.15.86a19.37,19.37,0,0,0-2.41,1c-.4.23-.68.32-2,.33a27.55,27.55,0,0,0-15.5,5.09c-1.56,1.17-3.2,2.92-3.14,4.32v.05l0,.07a1.62,1.62,0,0,0-.54,1.41,2.14,2.14,0,0,0,.56,1.45c1.19,1.32,6.38,3.9,8.27,4.27a8.37,8.37,0,0,0,1.68.2,7.5,7.5,0,0,0,1.66-.21,5.71,5.71,0,0,0,3.59-2.49,1.22,1.22,0,0,0,.07-.17h.31a19.66,19.66,0,0,1,5.32,1,1.72,1.72,0,0,0-.09.84,1.56,1.56,0,0,0,1.11,1.25c.46.13,2.49.36,2.51.36a17.94,17.94,0,0,1,2,.31,2.69,2.69,0,0,0,1.18.26h.08a2.25,2.25,0,0,0,1.22-.31,1.83,1.83,0,0,0,.29-.18,2.42,2.42,0,0,0,.77-2c0-.46,0-.63,1-1.39a2.32,2.32,0,0,0,.77-.81,14.13,14.13,0,0,1,4.25-.67l1,.35c1.15.4,1.42.59,2.61,2.39,1,1.47,1.24,1.65,1.36,1.73a1.67,1.67,0,0,0,.93.33,1.61,1.61,0,0,0,1.24-.68,3.09,3.09,0,0,0,.42-2.08c0-.6,0-1.4-.06-2.43l0-.7a36,36,0,0,1,0-5.61c.14-2,.1-3.09-.55-3.79a1.85,1.85,0,0,0-1.41-.56,1.05,1.05,0,0,0-.4.07,28.44,28.44,0,0,0-6,2.75,1.48,1.48,0,0,1-.38,0,3.28,3.28,0,0,1-2-.74c-.16-.15-.19-.37-.23-.87a4.43,4.43,0,0,0-.22-1.18c-.17-1.16-1.74-2-2.25-2.19a2,2,0,0,1-.63-.47,3.26,3.26,0,0,0-2.3-1.74Z"/>
    </g>
    <g>
      <path class="af54ebaf-b3c3-4057-88a4-1b4628c016b7" d="M72.74,288.17l-.71.56-1.19.87c-.26.16-.44.38-.41.48a6.56,6.56,0,0,0,1.82.65c1.62.43,4.79,1.76,4.61,1.95a15.31,15.31,0,0,1-2.13-.51A25.66,25.66,0,0,0,65.24,291a21.07,21.07,0,0,0-5.56.59,22.64,22.64,0,0,0-9.9,5.39,13.67,13.67,0,0,1-1.65,1.49,1.29,1.29,0,0,1-1.1-.09.5.5,0,0,1-.19-.22,5.85,5.85,0,0,1-.24.71,1.53,1.53,0,0,1,.3,0,2.18,2.18,0,0,1,.88.15l.87.63c3.65,2.7,5.61,3.64,7.66,3.68a3.34,3.34,0,0,0,2.22-.53A4.81,4.81,0,0,0,59.6,302a.22.22,0,0,0,0-.08c.12-.2.22-.26.29-.23,1.65-.42,4.55,0,9.11,1.65a13.09,13.09,0,0,1,4.14,1.2c.26.11.34,0,.34-.29a3.46,3.46,0,0,1,2.27-2.7h0a12.9,12.9,0,0,1,6-1.32l-.08,0,.88-.06A3.91,3.91,0,0,1,86,301.7a4.56,4.56,0,0,0,1,1c.28,0,.19-1.21-.22-3.18a12.07,12.07,0,0,1-.26-3.86,5.48,5.48,0,0,0-.08-2.13,6,6,0,0,0-1.76.26c-2.36.56-3.45.69-3.45.41l0-.05a4.11,4.11,0,0,1-3.6-.92c-.79-.75-.4-1.83-.79-2.63,0,.25,0,.25-.34,0a4.2,4.2,0,0,0-1.32-.56,3.62,3.62,0,0,1-1.73-1Z"/>
      <path class="a853b5a9-38ec-4659-9d47-2b40b02fc034" d="M62.57,297.67l-.24-3.37c-.07-.42,0-.74.06-.74s.71,1.07,1,2a2.57,2.57,0,0,0,.43.84c.28.31.28.38,0,.71a1.79,1.79,0,0,0-.33,1c0,.83-.35,2.16-.57,2.16a10.89,10.89,0,0,1-.29-2.62Zm2.57,1.59c0-.14-.13-1.4-.19-2.8-.09-2.14-.06-2.5.17-2.31a1.81,1.81,0,0,1,.4.86,4.35,4.35,0,0,0,.43,1.1.78.78,0,0,1,.1.89,5.49,5.49,0,0,0-.33,1.36c-.13.93-.43,1.4-.58.9Zm2.41-2.57v-2.53c.13-.15.43.42.69,1.28a2.54,2.54,0,0,0,.42.92c.11.07.12.28,0,.5a8.3,8.3,0,0,0-.38,1.24c-.4,1.65-.65,1.17-.75-1.41Zm2.6,1.08a19.8,19.8,0,0,0-.16-2.19,2.65,2.65,0,0,1,0-1.14c.22-.13.54.34.69,1a1.94,1.94,0,0,0,.56.93l.42.34-.44.32a1.08,1.08,0,0,0-.45.78c0,.59-.19,1.09-.41,1.09s-.19-.51-.2-1.13Zm2.39-.48a15.83,15.83,0,0,0-.13-2c-.17-1,.17-.81.82.53.41.87.45,1.07.21,1.33a1.73,1.73,0,0,0-.33.78c0,.26-.18.52-.32.56s-.25-.26-.25-1.18Zm2.18-.8c0-1.66,0-1.8.31-1.52a3.15,3.15,0,0,1,.29,2.62c-.39,1.2-.6.82-.6-1.1Zm2.07.33c-.37-.29-.36-.3.21-.25.33,0,.58.14.56.25C77.5,297.14,77.2,297.14,76.79,296.82Z"/>
      <path d="M72.64,287a3.07,3.07,0,0,0-1.24.39c-.46.22-1.47.63-2.26.91a18.58,18.58,0,0,0-2.23,1,4.59,4.59,0,0,1-2.55.48,26.42,26.42,0,0,0-14.85,4.87c-2,1.52-3.21,3.33-2.48,3.78a1.26,1.26,0,0,0,1.1.09A13.59,13.59,0,0,0,49.79,297a22.44,22.44,0,0,1,9.89-5.38,20.66,20.66,0,0,1,5.56-.6,25.69,25.69,0,0,1,9.5,1.13,13.82,13.82,0,0,0,2.12.51c.18-.18-3-1.52-4.61-1.95a6.72,6.72,0,0,1-1.82-.65c0-.1.16-.32.42-.48a13.68,13.68,0,0,0,1.19-.87l.71-.56.76.79a3.67,3.67,0,0,0,1.73,1,4.09,4.09,0,0,1,1.32.56c.3.26.35.26.35,0s-.71-1-1.62-1.4a3.09,3.09,0,0,1-1.09-.86c-.61-.88-1-1.26-1.56-1.26Zm14.58,4.34c-.71,0-6,2.46-6,2.78s1.09.15,3.45-.41a5.51,5.51,0,0,1,1.76-.25,5.39,5.39,0,0,1,.08,2.12,12.07,12.07,0,0,0,.26,3.86c.41,2,.5,3.18.22,3.18a4.31,4.31,0,0,1-1-1,4,4,0,0,0-3.41-1.57l-.88.06,1.3.46c1.44.5,1.89.9,3.17,2.81a11.61,11.61,0,0,0,1.06,1.44c.3.21.43.18.7-.14.12-.14.17-.54.17-1.38,0-.61,0-1.39-.06-2.36l0-.71a38,38,0,0,1,0-5.75c.18-2.53,0-3.17-.86-3.17Zm-32.13,3.79a1.72,1.72,0,0,0-1.45.84c-.34.53-.22,1,.47,1.77.42.48,1.36.3,2-.37s.54-.81,0-1.63a1.22,1.22,0,0,0-1-.61Zm-.59,1a1,1,0,0,1,.79.55c.11.35-.75.28-.88-.07a.44.44,0,0,1,0-.44l.08,0Zm-7.6,2.74a1.66,1.66,0,0,0-.32,0l0,0c-.23.09-.32.29-.29.61a1.06,1.06,0,0,0,.27.74c1,1.06,5.88,3.58,7.68,3.94a5.84,5.84,0,0,0,2.88,0,4.68,4.68,0,0,0,2.83-1.87c.26-.56,0-.95-.26-.44a4,4,0,0,1-1.11.89,3.4,3.4,0,0,1-2.22.53c-2,0-4-1-7.67-3.68l-.86-.63a2.18,2.18,0,0,0-.88-.15Zm29.32,2.6a3.34,3.34,0,0,0-2.69,2.77c0,.34-.07.4-.34.29-2.69-1.13-4.39-1.46-5.1-1s-.66,1-.15,1.19c.19,0,1.24.2,2.33.32a12.11,12.11,0,0,1,2.27.41,1.66,1.66,0,0,0,.8.16h0a1.07,1.07,0,0,0,.63-.16h0l.16-.1c.24-.18.34-.54.34-1.15,0-.95.31-1.41,1.49-2.28.49-.36.53-.44.21-.45Z"/>
      <path class="f3607bb1-b8c7-4a30-aea0-802055b18b4f" d="M55.33,302.41l-.7-.21,1.24-.23c1.63-.31,2-.69,2-1.92,0-1.05.2-1.2.68-.52a1.92,1.92,0,0,1-1,2.85,2.9,2.9,0,0,1-2.25,0Zm27.21-4.26a2.67,2.67,0,0,0-.18-1.53c-.38-.92-.39-.9.07-.9s1.44,1.14,1.29,1.66a2.79,2.79,0,0,1-1.06,1.47C82.46,298.92,82.44,298.75,82.54,298.15Zm-7.12-4.83c-3.91-1.26-10.84-1.3-15.5-.08-1,.25-1.17.25-1.4,0-.39-.39.32-.8,2.26-1.31,3.81-.73,13.1-1,16.32,1.69,0,.17-.41.09-1.68-.32Z"/>
    </g>
  </g>
  <g>
    <rect class="a77fe34a-c272-4ba4-9f9d-e30533588d05" x="0.58" y="137.18" width="54.67" height="54.67" rx="3"/>
    <path class="b98e4dcd-1a5f-4100-9e59-5a63b8368035" d="M52.24,192.42H3.58A3.58,3.58,0,0,1,0,188.84V140.18a3.59,3.59,0,0,1,3.58-3.58H52.24a3.59,3.59,0,0,1,3.58,3.58v48.66A3.58,3.58,0,0,1,52.24,192.42ZM3.58,137.75a2.43,2.43,0,0,0-2.43,2.43v48.66a2.43,2.43,0,0,0,2.43,2.43H52.24a2.43,2.43,0,0,0,2.43-2.43V140.18a2.43,2.43,0,0,0-2.43-2.43Z"/>
    <path class="b98e4dcd-1a5f-4100-9e59-5a63b8368035" d="M133.42,192.39H130v-1.15h3.42Zm-6.32,0h-3.42v-1.15h3.42Zm-6.27,0H117.4v-1.15h3.43Zm-6.28,0h-3.43v-1.15h3.43Zm-6.28,0h-3.43v-1.15h3.43Zm-6.28,0H98.56v-1.15H102Zm-6.28,0H92.28v-1.15h3.43Zm-6.28,0H86v-1.15h3.42Zm-6.5-.48a3.62,3.62,0,0,1-1.79-3.1v-.28h1.15v.28a2.45,2.45,0,0,0,1.22,2.1Zm53.39-1.06-.95-.66a2.38,2.38,0,0,0,.44-1.38v-1.6H137v1.6A3.55,3.55,0,0,1,136.32,190.85Zm-54-5.17H81.14v-3.43h1.15ZM137,184.36h-1.15v-3.43H137Zm-54.67-5H81.14V176h1.15ZM137,178.08h-1.15v-3.43H137Zm-54.67-5H81.14v-3.43h1.15ZM137,171.8h-1.15v-3.43H137Zm-54.67-5H81.14v-3.43h1.15ZM137,165.52h-1.15v-3.43H137Zm-54.67-5H81.14v-3.42h1.15ZM137,159.24h-1.15v-3.42H137Zm-54.67-5H81.14v-3.42h1.15ZM137,153h-1.15v-3.42H137Zm-54.67-5H81.14v-3.42h1.15ZM137,146.68h-1.15v-3.42H137Zm-54.67-5H81.14v-1.58a3.56,3.56,0,0,1,.66-2.06l.94.67a2.4,2.4,0,0,0-.45,1.39ZM137,140.4h-1.15v-.26a2.42,2.42,0,0,0-1.23-2.1l.57-1a3.57,3.57,0,0,1,1.81,3.1Zm-4.88-2.68h-3.42v-1.15h3.42Zm-6.28,0h-3.42v-1.15h3.42Zm-6.28,0H116.1v-1.15h3.42Zm-6.28,0h-3.42v-1.15h3.42Zm-6.28,0h-3.42v-1.15H107Zm-6.27,0H97.26v-1.15h3.43Zm-6.28,0H91v-1.15h3.43Zm-6.28,0H84.72l0-1.15h3.43Z"/>
    <circle class="b7480087-84cf-448e-a4b8-fbb49da1cb24" cx="72.74" cy="164.51" r="1.44"/>
    <circle class="b7480087-84cf-448e-a4b8-fbb49da1cb24" cx="68.14" cy="164.51" r="1.44"/>
    <circle class="b7480087-84cf-448e-a4b8-fbb49da1cb24" cx="63.53" cy="164.51" r="1.44"/>
    <g>
      <path class="a77fe34a-c272-4ba4-9f9d-e30533588d05" d="M14.85,205.39H14l-1.44-4.78c-.07-.21-.14-.48-.23-.8a4.49,4.49,0,0,1-.13-.58,11.86,11.86,0,0,1-.34,1.41l-1.4,4.75H9.67l-1.9-7.14h.88l1.13,4.41c.15.62.27,1.18.34,1.68a12.87,12.87,0,0,1,.39-1.74l1.28-4.35h.88L14,202.63a13.51,13.51,0,0,1,.4,1.71,15.11,15.11,0,0,1,.35-1.69l1.12-4.4h.88Z"/>
      <path class="a77fe34a-c272-4ba4-9f9d-e30533588d05" d="M22.38,202.71a3,3,0,0,1-.66,2,2.32,2.32,0,0,1-1.82.73,2.38,2.38,0,0,1-1.28-.34,2.18,2.18,0,0,1-.86-1,3.4,3.4,0,0,1-.3-1.48,3,3,0,0,1,.65-2,2.34,2.34,0,0,1,1.82-.73,2.25,2.25,0,0,1,1.78.75A3,3,0,0,1,22.38,202.71Zm-4.08,0a2.58,2.58,0,0,0,.41,1.57,1.43,1.43,0,0,0,1.2.53,1.44,1.44,0,0,0,1.21-.53,2.51,2.51,0,0,0,.42-1.57,2.47,2.47,0,0,0-.42-1.55,1.45,1.45,0,0,0-1.22-.53,1.43,1.43,0,0,0-1.2.53A2.48,2.48,0,0,0,18.3,202.71Z"/>
      <path class="a77fe34a-c272-4ba4-9f9d-e30533588d05" d="M26.24,199.94a3.1,3.1,0,0,1,.64.06l-.11.75a3.59,3.59,0,0,0-.59-.07,1.44,1.44,0,0,0-1.11.53,1.91,1.91,0,0,0-.46,1.31v2.87H23.8V200h.67l.09,1h0a2.32,2.32,0,0,1,.71-.8A1.65,1.65,0,0,1,26.24,199.94Z"/>
      <path class="a77fe34a-c272-4ba4-9f9d-e30533588d05" d="M28.68,202.65c.14-.19.35-.45.64-.78L31.05,200h1l-2.17,2.28,2.32,3.07h-1l-1.89-2.53-.61.53v2h-.8V197.8h.8v4c0,.18,0,.46,0,.83Z"/>
      <path class="a77fe34a-c272-4ba4-9f9d-e30533588d05" d="M35.39,205.49a2.45,2.45,0,0,1-1.87-.72,2.79,2.79,0,0,1-.69-2,3.05,3.05,0,0,1,.64-2,2.1,2.1,0,0,1,1.71-.77,2,2,0,0,1,1.59.67,2.53,2.53,0,0,1,.59,1.74v.51H33.67a2.08,2.08,0,0,0,.48,1.43,1.62,1.62,0,0,0,1.27.49,4.38,4.38,0,0,0,1.71-.36v.72a3.73,3.73,0,0,1-.82.27A4.77,4.77,0,0,1,35.39,205.49Zm-.22-4.87a1.33,1.33,0,0,0-1,.42,2,2,0,0,0-.45,1.17h2.8a1.82,1.82,0,0,0-.34-1.18A1.22,1.22,0,0,0,35.17,200.62Z"/>
      <path class="a77fe34a-c272-4ba4-9f9d-e30533588d05" d="M41.18,199.94a3.1,3.1,0,0,1,.64.06l-.11.75a3.59,3.59,0,0,0-.59-.07,1.44,1.44,0,0,0-1.11.53,1.91,1.91,0,0,0-.46,1.31v2.87h-.81V200h.67l.09,1h0a2.35,2.35,0,0,1,.72-.8A1.59,1.59,0,0,1,41.18,199.94Z"/>
      <path class="a77fe34a-c272-4ba4-9f9d-e30533588d05" d="M48.05,205.39h-.79v-5.08c0-.43,0-.83,0-1.21l-.23.22-1.16,1-.43-.56,1.89-1.46h.68Z"/>
    </g>
    <g>
      <path class="a77fe34a-c272-4ba4-9f9d-e30533588d05" d="M94.61,205.39h-.82l-1.44-4.78c-.07-.21-.15-.48-.23-.8a3.17,3.17,0,0,1-.13-.58,10.32,10.32,0,0,1-.35,1.41l-1.39,4.75h-.82l-1.9-7.14h.88l1.13,4.41c.15.62.27,1.18.34,1.68a10.42,10.42,0,0,1,.39-1.74l1.28-4.35h.88l1.34,4.38a13.58,13.58,0,0,1,.39,1.71,15.45,15.45,0,0,1,.36-1.69l1.12-4.4h.88Z"/>
      <path class="a77fe34a-c272-4ba4-9f9d-e30533588d05" d="M102.13,202.71a3,3,0,0,1-.66,2,2.31,2.31,0,0,1-1.82.73,2.34,2.34,0,0,1-1.27-.34,2.18,2.18,0,0,1-.86-1,3.4,3.4,0,0,1-.3-1.48,2.94,2.94,0,0,1,.65-2,2.34,2.34,0,0,1,1.82-.73,2.25,2.25,0,0,1,1.78.75A2.94,2.94,0,0,1,102.13,202.71Zm-4.07,0a2.51,2.51,0,0,0,.41,1.57,1.43,1.43,0,0,0,1.2.53,1.44,1.44,0,0,0,1.21-.53,2.51,2.51,0,0,0,.41-1.57,2.47,2.47,0,0,0-.41-1.55,1.45,1.45,0,0,0-1.22-.53,1.43,1.43,0,0,0-1.2.53A2.48,2.48,0,0,0,98.06,202.71Z"/>
      <path class="a77fe34a-c272-4ba4-9f9d-e30533588d05" d="M106,199.94a3,3,0,0,1,.63.06l-.11.75a3.36,3.36,0,0,0-.58-.07,1.41,1.41,0,0,0-1.11.53,1.91,1.91,0,0,0-.47,1.31v2.87h-.81V200h.67l.1,1h0a2.35,2.35,0,0,1,.72-.8A1.63,1.63,0,0,1,106,199.94Z"/>
      <path class="a77fe34a-c272-4ba4-9f9d-e30533588d05" d="M108.44,202.65c.14-.19.35-.45.64-.78L110.8,200h1l-2.17,2.28,2.32,3.07h-1l-1.89-2.53-.61.53v2h-.8V197.8h.8v4c0,.18,0,.46,0,.83Z"/>
      <path class="a77fe34a-c272-4ba4-9f9d-e30533588d05" d="M115.15,205.49a2.47,2.47,0,0,1-1.88-.72,2.83,2.83,0,0,1-.68-2,3.1,3.1,0,0,1,.63-2,2.14,2.14,0,0,1,1.72-.77,2,2,0,0,1,1.59.67,2.52,2.52,0,0,1,.58,1.74v.51h-3.68a2.08,2.08,0,0,0,.47,1.43,1.64,1.64,0,0,0,1.27.49,4.3,4.3,0,0,0,1.71-.36v.72a3.5,3.5,0,0,1-.81.27A4.77,4.77,0,0,1,115.15,205.49Zm-.22-4.87a1.32,1.32,0,0,0-1,.42,1.89,1.89,0,0,0-.45,1.17h2.79a1.77,1.77,0,0,0-.34-1.18A1.2,1.2,0,0,0,114.93,200.62Z"/>
      <path class="a77fe34a-c272-4ba4-9f9d-e30533588d05" d="M120.94,199.94a3.16,3.16,0,0,1,.64.06l-.12.75a3.36,3.36,0,0,0-.58-.07,1.44,1.44,0,0,0-1.11.53,1.91,1.91,0,0,0-.46,1.31v2.87h-.81V200h.66l.1,1h0a2.23,2.23,0,0,1,.71-.8A1.63,1.63,0,0,1,120.94,199.94Z"/>
      <path class="a77fe34a-c272-4ba4-9f9d-e30533588d05" d="M130.87,205.39h-.94l-3.91-6h0c.05.71.07,1.35.07,1.94v4h-.76v-7.14h.93l3.9,6h0c0-.09,0-.37,0-.85s0-.81,0-1v-4.1h.77Z"/>
    </g>
    <g>
      <g>
        <path class="a77fe34a-c272-4ba4-9f9d-e30533588d05" d="M34,174.16a2.11,2.11,0,0,1-1-.23,17.47,17.47,0,0,0-2.07-.34c-.83-.09-2.13-.26-2.41-.34a1,1,0,0,1-.72-.8,1.28,1.28,0,0,1,.37-1.07A21.79,21.79,0,0,0,22,170.1a5.7,5.7,0,0,0-.74,0,1.77,1.77,0,0,1-.14.45,5.2,5.2,0,0,1-3.21,2.18,7,7,0,0,1-1.54.2,8,8,0,0,1-1.57-.19c-1.94-.38-6.94-3-8-4.11a1.57,1.57,0,0,1-.41-1.13,1,1,0,0,1,.46-1,3.07,3.07,0,0,0,.11-.36s0-.08,0-.12c0-1.12,1.43-2.74,2.92-3.86a26.92,26.92,0,0,1,15.17-5,4.15,4.15,0,0,0,2.29-.41,18.15,18.15,0,0,1,2.31-1c.77-.27,1.78-.68,2.21-.89a3.47,3.47,0,0,1,1.48-.44h.1c.84.05,1.37.71,1.92,1.5a2.47,2.47,0,0,0,.86.67c.86.38,1.86,1.09,1.93,1.82a3.82,3.82,0,0,1,.21,1.09,1.71,1.71,0,0,0,.4,1.22,3.87,3.87,0,0,0,2.39.89,1.87,1.87,0,0,0,.59-.08,24.8,24.8,0,0,1,6.18-2.78h0a1.33,1.33,0,0,1,1,.39c.5.54.53,1.56.4,3.37a35.8,35.8,0,0,0,0,5.69l0,.7c.06,1,.08,1.79.06,2.41,0,1-.07,1.44-.29,1.71a1.08,1.08,0,0,1-.82.48h0a1.1,1.1,0,0,1-.63-.24,9.8,9.8,0,0,1-1.2-1.58c-1.28-1.91-1.63-2.16-2.89-2.6l-1.1-.39a14,14,0,0,0-4.8.82c0,.32-.33.55-.63.77-1.16.86-1.27,1.17-1.27,1.84a1.9,1.9,0,0,1-.56,1.59,1.17,1.17,0,0,1-.2.12,1.62,1.62,0,0,1-.93.25Z"/>
        <path class="a77fe34a-c272-4ba4-9f9d-e30533588d05" d="M33.35,155h0c.55,0,.95.38,1.56,1.26a3.09,3.09,0,0,0,1.09.86c.91.41,1.61,1,1.61,1.4v0c.37.79,0,1.85.78,2.6a4.4,4.4,0,0,0,2.77,1,2.53,2.53,0,0,0,.83-.12h0a25.32,25.32,0,0,1,5.94-2.75h0c.86,0,1,.64.86,3.17a37.72,37.72,0,0,0,0,5.75l0,.71c.06,1,.08,1.75.06,2.36,0,.84,0,1.24-.17,1.38s-.26.28-.39.28a.59.59,0,0,1-.31-.14,11.61,11.61,0,0,1-1.06-1.44c-1.28-1.91-1.73-2.31-3.17-2.81l-1.28-.45h0l.08,0a12.9,12.9,0,0,0-6,1.32h0a1.44,1.44,0,0,1,.4-.06h0c.31,0,.27.09-.21.45-1.19.87-1.49,1.33-1.49,2.28,0,.61-.1,1-.34,1.15l-.16.1h0a1.07,1.07,0,0,1-.63.16H34a1.67,1.67,0,0,1-.73-.16A12.11,12.11,0,0,0,31,173c-1.09-.12-2.14-.27-2.33-.32-.51-.15-.42-.81.15-1.19a1.61,1.61,0,0,1,.86-.19h.1a25.53,25.53,0,0,0-7.76-1.8,5.35,5.35,0,0,0-1.35.15h0c.11.05.14.33,0,.67a4.68,4.68,0,0,1-2.83,1.87,6.71,6.71,0,0,1-1.42.19,7.21,7.21,0,0,1-1.46-.18c-1.8-.36-6.72-2.88-7.68-3.94a1,1,0,0,1-.27-.74c0-.32.06-.52.29-.61l0,0,.23,0a.82.82,0,0,0-.22,0,4.48,4.48,0,0,0,.25-.71.5.5,0,0,0,.19.22,1.18,1.18,0,0,0,.39.15,1.27,1.27,0,0,1-.39-.15c-.73-.45.45-2.26,2.48-3.78a26.42,26.42,0,0,1,14.85-4.87,4.59,4.59,0,0,0,2.55-.48,18.34,18.34,0,0,1,2.22-.95c.79-.28,1.81-.69,2.27-.91a3.07,3.07,0,0,1,1.24-.39m4.19,3.71h0a.87.87,0,0,1-.27-.19A4.09,4.09,0,0,0,36,158a3.67,3.67,0,0,1-1.73-1l-.76-.79h0l.75.79a3.7,3.7,0,0,0,1.74,1,4.12,4.12,0,0,1,1.31.56c.16.13.24.19.29.19m-1.89,1.47-.2-.05A24,24,0,0,0,28.83,159a23.91,23.91,0,0,1,6.61,1.14l.21.05m-.87-.89h0m2.46,1.08a19.18,19.18,0,0,0-2.42-1.06,19.18,19.18,0,0,1,2.42,1.06m5.1,1.89c-.25,0-.37,0-.38-.13h0c0,.09.13.14.38.14a17.18,17.18,0,0,0,3.07-.55,8.71,8.71,0,0,1,1.63-.27h.13c.08.05.12.38.12.93,0-.55,0-.89-.12-.93s-.07,0-.13,0a8.58,8.58,0,0,0-1.63.27,17.18,17.18,0,0,1-3.07.55m5.55,7.88a14,14,0,0,0-.38-2.7,11.85,11.85,0,0,1-.31-2.79,11.93,11.93,0,0,0,.31,2.8,13.87,13.87,0,0,1,.38,2.69m-11.79-.47h0m-15.57,0,0,0h0l0,0m15.2.23a.1.1,0,0,0,0,0l0,0,.06,0-.06,0m-15.5.14s0,0,0,0,0,0,0,0m15.13.16-.09.08.09-.08.06-.05-.06.05M20,170.31l0,0,0,0,0,0,0,0m-.33.24-.06,0,.06,0,.1-.07-.1.07m15.32.11-.06.07.06-.07.1-.12-.1.12m-17,.64a3.13,3.13,0,0,0,1.26-.49l.28-.18-.29.18a3.09,3.09,0,0,1-1.25.49m16.66-.22-.06.1.06-.1.09-.14-.09.14m-16.75.23-.17,0h0l.17,0m16.5.24a.49.49,0,0,1,0,.11.49.49,0,0,0,0-.11l.08-.18-.08.18m-3.89-.12h0m1.07.26-.14,0,.14,0m2.67.45a.34.34,0,0,0,0,.1.34.34,0,0,1,0-.1,1.91,1.91,0,0,1,.06-.33,1.91,1.91,0,0,0-.06.33m-1.62-.1.07,0-.07,0-.15,0,.15,0m1.61.26c0,.06,0,.11,0,.15h0s0-.09,0-.15m0,.21h0l0,0,0,0h0m-.85-18.57a4,4,0,0,0-1.72.5c-.42.2-1.4.59-2.16.86a19.18,19.18,0,0,0-2.4,1c-.4.23-.68.32-2,.33a27.55,27.55,0,0,0-15.5,5.09c-1.56,1.17-3.2,2.92-3.14,4.32v.05l0,.07a1.62,1.62,0,0,0-.54,1.41,2.14,2.14,0,0,0,.56,1.45c1.19,1.32,6.38,3.9,8.27,4.27a8.37,8.37,0,0,0,1.68.2,7.5,7.5,0,0,0,1.66-.21,5.71,5.71,0,0,0,3.59-2.49,1.22,1.22,0,0,0,.07-.17H22a19.66,19.66,0,0,1,5.32,1,1.72,1.72,0,0,0-.09.84,1.56,1.56,0,0,0,1.11,1.25c.46.13,2.49.36,2.51.36a18.41,18.41,0,0,1,1.95.31,2.69,2.69,0,0,0,1.18.26h.08a2.25,2.25,0,0,0,1.22-.31,1.83,1.83,0,0,0,.29-.18,2.45,2.45,0,0,0,.77-2c0-.46,0-.63,1-1.39a2.32,2.32,0,0,0,.77-.81,14.13,14.13,0,0,1,4.25-.67l1,.35c1.14.4,1.41.59,2.61,2.39a6.6,6.6,0,0,0,1.35,1.73,1.7,1.7,0,0,0,.94.33,1.61,1.61,0,0,0,1.24-.68,3.15,3.15,0,0,0,.42-2.08c0-.6,0-1.4-.06-2.43l0-.7a36,36,0,0,1,0-5.61c.14-2,.1-3.09-.55-3.79a1.85,1.85,0,0,0-1.41-.56,1.05,1.05,0,0,0-.4.07,28.21,28.21,0,0,0-6,2.75,1.48,1.48,0,0,1-.38,0,3.28,3.28,0,0,1-2-.74c-.16-.15-.19-.37-.23-.87a4.43,4.43,0,0,0-.22-1.18c-.18-1.16-1.75-2-2.25-2.19a2,2,0,0,1-.63-.47A3.26,3.26,0,0,0,33.51,154Z"/>
      </g>
      <g>
        <path class="af54ebaf-b3c3-4057-88a4-1b4628c016b7" d="M33.45,156.17l-.71.56-1.19.87c-.26.16-.45.38-.41.48a6.56,6.56,0,0,0,1.82.65c1.62.43,4.78,1.76,4.6,2a15.73,15.73,0,0,1-2.12-.51A25.66,25.66,0,0,0,26,159a21.07,21.07,0,0,0-5.56.59,22.64,22.64,0,0,0-9.9,5.39,13.67,13.67,0,0,1-1.65,1.49,1.29,1.29,0,0,1-1.1-.09.5.5,0,0,1-.19-.22,4.48,4.48,0,0,1-.25.71,1.63,1.63,0,0,1,.31,0,2.18,2.18,0,0,1,.88.15l.87.63C13,170.36,15,171.3,17,171.34a3.34,3.34,0,0,0,2.22-.53A4.49,4.49,0,0,0,20.3,170a.24.24,0,0,0,.06-.08c.11-.2.22-.26.29-.23,1.64-.42,4.54,0,9.11,1.65a13,13,0,0,1,4.13,1.2c.27.11.35.05.35-.29a3.46,3.46,0,0,1,2.27-2.7h0a12.9,12.9,0,0,1,6-1.32l-.08,0,.87-.06a3.94,3.94,0,0,1,3.42,1.57,4.56,4.56,0,0,0,1,1c.28,0,.19-1.21-.22-3.18a12.37,12.37,0,0,1-.27-3.86,5.38,5.38,0,0,0-.07-2.13,6,6,0,0,0-1.76.26c-2.36.56-3.45.69-3.45.41l0,0a4.11,4.11,0,0,1-3.6-.92c-.79-.75-.4-1.83-.79-2.63,0,.25,0,.25-.35,0a4.12,4.12,0,0,0-1.31-.56,3.7,3.7,0,0,1-1.74-1Z"/>
        <path class="a853b5a9-38ec-4659-9d47-2b40b02fc034" d="M23.28,165.67,23,162.3c-.06-.42,0-.74.07-.74s.71,1.07.95,2a2.59,2.59,0,0,0,.44.84c.28.31.27.38,0,.71a1.79,1.79,0,0,0-.33,1c0,.83-.35,2.16-.57,2.16a10.89,10.89,0,0,1-.29-2.62Zm2.57,1.59c-.05-.14-.13-1.4-.19-2.8-.09-2.14-.06-2.5.17-2.31a1.81,1.81,0,0,1,.4.86,4,4,0,0,0,.43,1.1.78.78,0,0,1,.09.89,5.56,5.56,0,0,0-.32,1.36c-.13.93-.43,1.4-.58.9Zm2.41-2.57v-2.53c.12-.15.43.42.69,1.28a2.54,2.54,0,0,0,.42.92c.11.07.12.28,0,.5A8.3,8.3,0,0,0,29,166.1c-.4,1.65-.65,1.17-.75-1.41Zm2.6,1.08a19.8,19.8,0,0,0-.16-2.19,2.49,2.49,0,0,1,0-1.14c.21-.13.53.34.69,1a1.94,1.94,0,0,0,.56.93l.42.34-.44.32a1.08,1.08,0,0,0-.45.78c0,.59-.19,1.09-.42,1.09s-.18-.51-.19-1.13Zm2.39-.48a15.83,15.83,0,0,0-.13-2c-.17-1,.17-.81.81.53.42.87.45,1.07.22,1.33a1.63,1.63,0,0,0-.33.78c0,.26-.18.52-.32.56s-.25-.26-.25-1.18Zm2.18-.8c0-1.66,0-1.8.31-1.52a3.15,3.15,0,0,1,.29,2.62c-.39,1.2-.6.82-.6-1.1Zm2.07.33c-.37-.29-.36-.3.21-.25.32,0,.57.14.56.25C38.21,165.14,37.91,165.14,37.5,164.82Z"/>
        <path d="M33.35,155a3.07,3.07,0,0,0-1.24.39c-.46.22-1.48.63-2.27.91a18.34,18.34,0,0,0-2.22.95,4.59,4.59,0,0,1-2.55.48,26.42,26.42,0,0,0-14.85,4.87c-2,1.52-3.21,3.33-2.48,3.78a1.26,1.26,0,0,0,1.1.09A12.94,12.94,0,0,0,10.49,165a22.53,22.53,0,0,1,9.9-5.38A20.66,20.66,0,0,1,26,159a25.74,25.74,0,0,1,9.5,1.13,13.82,13.82,0,0,0,2.12.51c.18-.18-3-1.52-4.61-2a6.72,6.72,0,0,1-1.82-.65c0-.1.15-.32.42-.48s.79-.55,1.19-.87l.71-.56.76.79A3.67,3.67,0,0,0,36,158a4.09,4.09,0,0,1,1.32.56c.3.26.34.26.34,0s-.7-1-1.61-1.4a3.09,3.09,0,0,1-1.09-.86c-.61-.88-1-1.26-1.56-1.26Zm14.58,4.34c-.71,0-6,2.46-6,2.78s1.09.15,3.45-.41a5.51,5.51,0,0,1,1.76-.25,5.29,5.29,0,0,1,.07,2.12,12.37,12.37,0,0,0,.27,3.86c.41,2,.5,3.18.22,3.18a4.31,4.31,0,0,1-1-1,4,4,0,0,0-3.42-1.57l-.87.06,1.3.46c1.44.5,1.89.9,3.17,2.81A11.61,11.61,0,0,0,48,172.89c.3.21.43.18.7-.14.12-.14.17-.54.17-1.38,0-.61,0-1.39-.06-2.36l0-.71a37.72,37.72,0,0,1,0-5.75c.18-2.53,0-3.17-.86-3.17ZM15.8,163.17a1.72,1.72,0,0,0-1.45.84c-.34.53-.22,1,.47,1.77.42.48,1.36.3,1.95-.37s.55-.81.05-1.63a1.19,1.19,0,0,0-1-.61Zm-.59,1a1,1,0,0,1,.79.55c.11.35-.75.28-.88-.07a.44.44,0,0,1,0-.44.15.15,0,0,1,.08,0Zm-7.6,2.74a1.66,1.66,0,0,0-.32,0l0,0c-.23.09-.33.29-.29.61a1,1,0,0,0,.27.74c1,1.06,5.88,3.58,7.68,3.94a5.84,5.84,0,0,0,2.88,0,4.68,4.68,0,0,0,2.83-1.87c.26-.56,0-1-.26-.44a4,4,0,0,1-1.11.89,3.4,3.4,0,0,1-2.22.53c-2.05,0-4-1-7.67-3.68L8.5,167a2.18,2.18,0,0,0-.88-.15Zm29.32,2.6a3.34,3.34,0,0,0-2.69,2.77c0,.34-.08.4-.35.29-2.68-1.13-4.38-1.46-5.09-1s-.66,1-.15,1.19c.19.05,1.24.2,2.33.32a12.11,12.11,0,0,1,2.27.41,1.64,1.64,0,0,0,.79.16h.05a1.07,1.07,0,0,0,.63-.16h0l.16-.1c.24-.18.34-.54.34-1.15,0-.95.3-1.41,1.49-2.28.48-.36.52-.44.21-.45Z"/>
        <path class="f3607bb1-b8c7-4a30-aea0-802055b18b4f" d="M16,170.41l-.7-.21,1.24-.23c1.63-.31,2-.69,2-1.92,0-1.05.2-1.2.68-.52a1.92,1.92,0,0,1-1,2.85,2.9,2.9,0,0,1-2.25,0Zm27.21-4.26a2.67,2.67,0,0,0-.18-1.53c-.39-.92-.39-.9.07-.9s1.44,1.14,1.29,1.66a2.79,2.79,0,0,1-1.06,1.47C43.17,166.92,43.14,166.75,43.25,166.15Zm-7.12-4.83c-3.91-1.26-10.84-1.3-15.5-.08-1,.25-1.17.25-1.4,0-.39-.39.32-.8,2.26-1.31,3.81-.73,13.1-1,16.32,1.69,0,.17-.41.09-1.68-.32Z"/>
      </g>
    </g>
    <g>
      <g>
        <path class="a77fe34a-c272-4ba4-9f9d-e30533588d05" d="M115,174.16a2.11,2.11,0,0,1-1-.23,17.47,17.47,0,0,0-2.07-.34c-.83-.09-2.13-.26-2.41-.34a1,1,0,0,1-.72-.8,1.28,1.28,0,0,1,.37-1.07A21.79,21.79,0,0,0,103,170.1a5.7,5.7,0,0,0-.74,0,1.77,1.77,0,0,1-.14.45,5.2,5.2,0,0,1-3.21,2.18,7,7,0,0,1-1.54.2,8,8,0,0,1-1.57-.19c-1.94-.38-6.94-3-8-4.11a1.57,1.57,0,0,1-.41-1.13,1,1,0,0,1,.46-1,3.07,3.07,0,0,0,.11-.36s0-.08,0-.12c0-1.12,1.43-2.74,2.92-3.86a26.92,26.92,0,0,1,15.17-5,4.15,4.15,0,0,0,2.29-.41,18.15,18.15,0,0,1,2.31-1c.77-.27,1.78-.68,2.21-.89a3.47,3.47,0,0,1,1.48-.44h.1c.84.05,1.37.71,1.92,1.5a2.47,2.47,0,0,0,.86.67c.86.38,1.86,1.09,1.93,1.82a3.82,3.82,0,0,1,.21,1.09,1.71,1.71,0,0,0,.4,1.22,3.87,3.87,0,0,0,2.39.89,1.87,1.87,0,0,0,.59-.08,24.8,24.8,0,0,1,6.18-2.78h0a1.33,1.33,0,0,1,1,.39c.5.54.53,1.56.4,3.37a35.8,35.8,0,0,0,0,5.69l0,.7c.06,1,.08,1.79.06,2.41,0,1-.07,1.44-.29,1.71a1.08,1.08,0,0,1-.82.48h0a1.1,1.1,0,0,1-.63-.24,9.8,9.8,0,0,1-1.2-1.58c-1.28-1.91-1.63-2.16-2.89-2.6l-1.1-.39a14,14,0,0,0-4.8.82c0,.32-.33.55-.63.77-1.16.86-1.27,1.17-1.27,1.84a1.9,1.9,0,0,1-.56,1.59,1.17,1.17,0,0,1-.2.12,1.62,1.62,0,0,1-.93.25Z"/>
        <path class="a77fe34a-c272-4ba4-9f9d-e30533588d05" d="M114.35,155h0c.55,0,1,.38,1.56,1.26a3.09,3.09,0,0,0,1.09.86c.91.41,1.61,1,1.61,1.4v0c.37.79,0,1.85.78,2.6a4.4,4.4,0,0,0,2.77,1,2.53,2.53,0,0,0,.83-.12h0a25.32,25.32,0,0,1,5.94-2.75h0c.86,0,1,.64.86,3.17a37.72,37.72,0,0,0,0,5.75l.05.71c.06,1,.08,1.75.06,2.36,0,.84-.05,1.24-.17,1.38s-.26.28-.39.28a.59.59,0,0,1-.31-.14,11.61,11.61,0,0,1-1.06-1.44c-1.28-1.91-1.73-2.31-3.17-2.81l-1.28-.45h0l.08,0a12.9,12.9,0,0,0-6,1.32h0a1.44,1.44,0,0,1,.4-.06h0c.31,0,.27.09-.21.45-1.19.87-1.49,1.33-1.49,2.28,0,.61-.1,1-.34,1.15l-.16.1h0a1.07,1.07,0,0,1-.63.16H115a1.67,1.67,0,0,1-.73-.16A12.11,12.11,0,0,0,112,173c-1.09-.12-2.14-.27-2.33-.32-.51-.15-.42-.81.15-1.19a1.61,1.61,0,0,1,.86-.19h.1a25.53,25.53,0,0,0-7.76-1.8,5.35,5.35,0,0,0-1.35.15h0c.11.05.14.33,0,.67a4.68,4.68,0,0,1-2.83,1.87,6.71,6.71,0,0,1-1.42.19,7.21,7.21,0,0,1-1.46-.18c-1.8-.36-6.72-2.88-7.68-3.94a1,1,0,0,1-.27-.74c0-.32.06-.52.29-.61l0,0,.23,0a.82.82,0,0,0-.22,0,4.48,4.48,0,0,0,.25-.71.5.5,0,0,0,.19.22,1.18,1.18,0,0,0,.39.15,1.27,1.27,0,0,1-.39-.15c-.73-.45.45-2.26,2.48-3.78a26.42,26.42,0,0,1,14.85-4.87,4.59,4.59,0,0,0,2.55-.48,18.34,18.34,0,0,1,2.22-.95c.79-.28,1.81-.69,2.27-.91a3.07,3.07,0,0,1,1.24-.39m4.19,3.71h0a.87.87,0,0,1-.27-.19A4.09,4.09,0,0,0,117,158a3.67,3.67,0,0,1-1.73-1l-.76-.79h0l.75.79a3.7,3.7,0,0,0,1.74,1,4.12,4.12,0,0,1,1.31.56c.16.13.24.19.29.19m-1.89,1.47-.2-.05a24,24,0,0,0-6.62-1.14,23.91,23.91,0,0,1,6.61,1.14l.21.05m-.87-.89h0m2.46,1.08a19.18,19.18,0,0,0-2.42-1.06,19.18,19.18,0,0,1,2.42,1.06m5.1,1.89c-.25,0-.37,0-.38-.13h0c0,.09.13.14.38.14a17.18,17.18,0,0,0,3.07-.55,8.71,8.71,0,0,1,1.63-.27h.13c.08.05.12.38.12.93,0-.55,0-.89-.12-.93s-.07,0-.13,0a8.58,8.58,0,0,0-1.63.27,17.18,17.18,0,0,1-3.07.55m5.55,7.88a14,14,0,0,0-.38-2.7,11.85,11.85,0,0,1-.31-2.79,11.93,11.93,0,0,0,.31,2.8,13.87,13.87,0,0,1,.38,2.69m-11.79-.47h0m-15.57,0,0,0h0l0,0m15.2.23a.1.1,0,0,0,0,0l0,0,.06,0-.06,0m-15.5.14s0,0,0,0,0,0,0,0m15.13.16-.09.08.09-.08.06-.05-.06.05m-15.39.07,0,0,0,0,0,0,0,0m-.33.24-.06,0,.06,0,.1-.07-.1.07m15.32.11-.06.07.06-.07.1-.12-.1.12m-17,.64a3.13,3.13,0,0,0,1.26-.49l.28-.18-.29.18a3.09,3.09,0,0,1-1.25.49m16.66-.22-.06.1.06-.1.09-.14-.09.14m-16.75.23-.17,0h0l.17,0m16.5.24a.49.49,0,0,1,0,.11.49.49,0,0,0,0-.11l.08-.18-.08.18m-3.89-.12h0m1.07.26-.14,0,.14,0m2.67.45a.34.34,0,0,0,0,.1.34.34,0,0,1,0-.1,1.91,1.91,0,0,1,.06-.33,1.91,1.91,0,0,0-.06.33m-1.62-.1.07,0-.07,0-.15,0,.15,0m1.61.26c0,.06,0,.11,0,.15h0s0-.09,0-.15m0,.21h0s0,0,0,0,0,0,0,0h0m-.85-18.57a4,4,0,0,0-1.72.5c-.42.2-1.4.59-2.16.86a19.18,19.18,0,0,0-2.4,1c-.4.23-.68.32-2,.33a27.55,27.55,0,0,0-15.5,5.09c-1.56,1.17-3.2,2.92-3.14,4.32v.05l0,.07a1.62,1.62,0,0,0-.54,1.41,2.14,2.14,0,0,0,.56,1.45c1.19,1.32,6.38,3.9,8.27,4.27a8.37,8.37,0,0,0,1.68.2,7.5,7.5,0,0,0,1.66-.21,5.71,5.71,0,0,0,3.59-2.49,1.22,1.22,0,0,0,.07-.17H103a19.66,19.66,0,0,1,5.32,1,1.72,1.72,0,0,0-.09.84,1.56,1.56,0,0,0,1.11,1.25c.46.13,2.49.36,2.51.36a18.41,18.41,0,0,1,2,.31,2.69,2.69,0,0,0,1.18.26h.08a2.25,2.25,0,0,0,1.22-.31,1.83,1.83,0,0,0,.29-.18,2.45,2.45,0,0,0,.77-2c0-.46,0-.63,1-1.39a2.32,2.32,0,0,0,.77-.81,14.13,14.13,0,0,1,4.25-.67l1,.35c1.14.4,1.41.59,2.61,2.39a6.6,6.6,0,0,0,1.35,1.73,1.7,1.7,0,0,0,.94.33,1.61,1.61,0,0,0,1.24-.68,3.15,3.15,0,0,0,.42-2.08c0-.6,0-1.4-.06-2.43l0-.7a36,36,0,0,1,0-5.61c.14-2,.1-3.09-.55-3.79a1.85,1.85,0,0,0-1.41-.56,1.05,1.05,0,0,0-.4.07,28.21,28.21,0,0,0-6,2.75,1.48,1.48,0,0,1-.38,0,3.28,3.28,0,0,1-2-.74c-.16-.15-.19-.37-.23-.87a4.43,4.43,0,0,0-.22-1.18c-.18-1.16-1.75-2-2.25-2.19a2,2,0,0,1-.63-.47,3.26,3.26,0,0,0-2.31-1.74Z"/>
      </g>
      <g>
        <path class="af54ebaf-b3c3-4057-88a4-1b4628c016b7" d="M114.45,156.17l-.71.56-1.19.87c-.26.16-.45.38-.41.48a6.56,6.56,0,0,0,1.82.65c1.62.43,4.78,1.76,4.6,2a15.73,15.73,0,0,1-2.12-.51A25.66,25.66,0,0,0,107,159a21.07,21.07,0,0,0-5.56.59,22.64,22.64,0,0,0-9.9,5.39,13.67,13.67,0,0,1-1.65,1.49,1.29,1.29,0,0,1-1.1-.09.5.5,0,0,1-.19-.22,4.48,4.48,0,0,1-.25.71,1.63,1.63,0,0,1,.31,0,2.18,2.18,0,0,1,.88.15l.87.63C94,170.36,96,171.3,98,171.34a3.34,3.34,0,0,0,2.22-.53,4.49,4.49,0,0,0,1.06-.81.24.24,0,0,0,.06-.08c.11-.2.22-.26.29-.23,1.64-.42,4.54,0,9.11,1.65a13,13,0,0,1,4.13,1.2c.27.11.35.05.35-.29a3.46,3.46,0,0,1,2.27-2.7h0a12.9,12.9,0,0,1,6-1.32l-.08,0,.87-.06a3.94,3.94,0,0,1,3.42,1.57,4.56,4.56,0,0,0,1,1c.28,0,.19-1.21-.22-3.18a12.37,12.37,0,0,1-.27-3.86,5.38,5.38,0,0,0-.07-2.13,6,6,0,0,0-1.76.26c-2.36.56-3.45.69-3.45.41l0,0a4.11,4.11,0,0,1-3.6-.92c-.79-.75-.4-1.83-.79-2.63,0,.25,0,.25-.35,0a4.12,4.12,0,0,0-1.31-.56,3.7,3.7,0,0,1-1.74-1Z"/>
        <path class="a853b5a9-38ec-4659-9d47-2b40b02fc034" d="M104.28,165.67,104,162.3c-.06-.42,0-.74.07-.74s.71,1.07,1,2a2.59,2.59,0,0,0,.44.84c.28.31.27.38,0,.71a1.79,1.79,0,0,0-.33,1c0,.83-.35,2.16-.57,2.16a10.89,10.89,0,0,1-.29-2.62Zm2.57,1.59c0-.14-.13-1.4-.19-2.8-.09-2.14-.06-2.5.17-2.31a1.81,1.81,0,0,1,.4.86,4,4,0,0,0,.43,1.1.78.78,0,0,1,.09.89,5.56,5.56,0,0,0-.32,1.36c-.13.93-.43,1.4-.58.9Zm2.41-2.57v-2.53c.12-.15.43.42.69,1.28a2.54,2.54,0,0,0,.42.92c.11.07.12.28,0,.5a8.3,8.3,0,0,0-.38,1.24c-.4,1.65-.65,1.17-.75-1.41Zm2.6,1.08a19.8,19.8,0,0,0-.16-2.19,2.49,2.49,0,0,1,0-1.14c.21-.13.53.34.69,1a1.94,1.94,0,0,0,.56.93l.42.34-.44.32a1.08,1.08,0,0,0-.45.78c0,.59-.19,1.09-.42,1.09s-.18-.51-.19-1.13Zm2.39-.48a15.83,15.83,0,0,0-.13-2c-.17-1,.17-.81.81.53.42.87.45,1.07.22,1.33a1.63,1.63,0,0,0-.33.78c0,.26-.18.52-.32.56s-.25-.26-.25-1.18Zm2.18-.8c0-1.66,0-1.8.31-1.52a3.15,3.15,0,0,1,.29,2.62c-.39,1.2-.6.82-.6-1.1Zm2.07.33c-.37-.29-.36-.3.21-.25.32,0,.57.14.56.25C119.21,165.14,118.91,165.14,118.5,164.82Z"/>
        <path d="M114.35,155a3.07,3.07,0,0,0-1.24.39c-.46.22-1.48.63-2.27.91a18.34,18.34,0,0,0-2.22.95,4.59,4.59,0,0,1-2.55.48,26.42,26.42,0,0,0-14.85,4.87c-2,1.52-3.21,3.33-2.48,3.78a1.26,1.26,0,0,0,1.1.09A12.94,12.94,0,0,0,91.49,165a22.53,22.53,0,0,1,9.9-5.38A20.66,20.66,0,0,1,107,159a25.74,25.74,0,0,1,9.5,1.13,13.82,13.82,0,0,0,2.12.51c.18-.18-3-1.52-4.61-2a6.72,6.72,0,0,1-1.82-.65c0-.1.15-.32.42-.48s.79-.55,1.19-.87l.71-.56.76.79a3.67,3.67,0,0,0,1.73,1,4.09,4.09,0,0,1,1.32.56c.3.26.34.26.34,0s-.7-1-1.61-1.4a3.09,3.09,0,0,1-1.09-.86c-.61-.88-1-1.26-1.56-1.26Zm14.58,4.34c-.71,0-6,2.46-6,2.78s1.09.15,3.45-.41a5.51,5.51,0,0,1,1.76-.25,5.29,5.29,0,0,1,.07,2.12,12.37,12.37,0,0,0,.27,3.86c.41,2,.5,3.18.22,3.18a4.31,4.31,0,0,1-1-1,4,4,0,0,0-3.42-1.57l-.87.06,1.3.46c1.44.5,1.89.9,3.17,2.81a11.61,11.61,0,0,0,1.06,1.44c.3.21.43.18.7-.14.12-.14.17-.54.17-1.38,0-.61,0-1.39-.06-2.36l-.05-.71a37.72,37.72,0,0,1,0-5.75c.18-2.53,0-3.17-.86-3.17ZM96.8,163.17a1.72,1.72,0,0,0-1.45.84c-.34.53-.22,1,.47,1.77.42.48,1.36.3,2-.37s.55-.81,0-1.63a1.19,1.19,0,0,0-1-.61Zm-.59,1a1,1,0,0,1,.79.55c.11.35-.75.28-.88-.07a.44.44,0,0,1,0-.44.15.15,0,0,1,.08,0Zm-7.6,2.74a1.66,1.66,0,0,0-.32,0l0,0c-.23.09-.33.29-.29.61a1,1,0,0,0,.27.74c1,1.06,5.88,3.58,7.68,3.94a5.84,5.84,0,0,0,2.88,0,4.68,4.68,0,0,0,2.83-1.87c.26-.56,0-1-.26-.44a4,4,0,0,1-1.11.89,3.4,3.4,0,0,1-2.22.53c-2,0-4-1-7.67-3.68L89.5,167a2.18,2.18,0,0,0-.88-.15Zm29.32,2.6a3.34,3.34,0,0,0-2.69,2.77c0,.34-.08.4-.35.29-2.68-1.13-4.38-1.46-5.09-1s-.66,1-.15,1.19c.19.05,1.24.2,2.33.32a12.11,12.11,0,0,1,2.27.41,1.64,1.64,0,0,0,.79.16h0a1.07,1.07,0,0,0,.63-.16h0l.16-.1c.24-.18.34-.54.34-1.15,0-.95.3-1.41,1.49-2.28.48-.36.52-.44.21-.45Z"/>
        <path class="f3607bb1-b8c7-4a30-aea0-802055b18b4f" d="M97,170.41l-.7-.21,1.24-.23c1.63-.31,2-.69,2-1.92,0-1.05.2-1.2.68-.52a1.92,1.92,0,0,1-1,2.85,2.9,2.9,0,0,1-2.25,0Zm27.21-4.26a2.67,2.67,0,0,0-.18-1.53c-.39-.92-.39-.9.07-.9s1.44,1.14,1.29,1.66a2.79,2.79,0,0,1-1.06,1.47C124.17,166.92,124.14,166.75,124.25,166.15Zm-7.12-4.83c-3.91-1.26-10.84-1.3-15.5-.08-1,.25-1.17.25-1.4,0-.39-.39.32-.8,2.26-1.31,3.81-.73,13.1-1,16.32,1.69,0,.17-.41.09-1.68-.32Z"/>
      </g>
    </g>
  </g>
  <g>
    <path class="a77fe34a-c272-4ba4-9f9d-e30533588d05" d="M64.07,334.39a3.59,3.59,0,0,1-1,2.7,3.77,3.77,0,0,1-2.76.94h-2v-7.14h2.19a3.2,3.2,0,0,1,3.51,3.5Zm-.88,0a2.85,2.85,0,0,0-.7-2.1,2.82,2.82,0,0,0-2.08-.71H59.2v5.7h1a3.06,3.06,0,0,0,2.23-.73A2.86,2.86,0,0,0,63.19,334.42Z"/>
    <path class="a77fe34a-c272-4ba4-9f9d-e30533588d05" d="M70.15,338l-.89-2.27H66.4L65.52,338h-.84l2.82-7.17h.7L71,338ZM69,335l-.83-2.21a9.77,9.77,0,0,1-.33-1,9.58,9.58,0,0,1-.31,1L66.69,335Z"/>
    <path class="a77fe34a-c272-4ba4-9f9d-e30533588d05" d="M76,336.13a1.74,1.74,0,0,1-.69,1.47,3,3,0,0,1-1.85.53,4.65,4.65,0,0,1-2-.33V337a5.65,5.65,0,0,0,1,.29,5.23,5.23,0,0,0,1,.11,2.08,2.08,0,0,0,1.25-.31,1,1,0,0,0,.42-.88,1.13,1.13,0,0,0-.15-.61,1.47,1.47,0,0,0-.5-.44,7.59,7.59,0,0,0-1.06-.45,3.5,3.5,0,0,1-1.43-.84,1.9,1.9,0,0,1-.42-1.28,1.55,1.55,0,0,1,.62-1.31,2.54,2.54,0,0,1,1.64-.49,4.86,4.86,0,0,1,2,.39l-.26.72a4.56,4.56,0,0,0-1.72-.37,1.73,1.73,0,0,0-1,.28.94.94,0,0,0-.37.79,1.23,1.23,0,0,0,.13.61,1.32,1.32,0,0,0,.47.43,5.45,5.45,0,0,0,1,.44,3.87,3.87,0,0,1,1.54.86A1.66,1.66,0,0,1,76,336.13Z"/>
  </g>
  <g>
    <path class="a77fe34a-c272-4ba4-9f9d-e30533588d05" d="M35.7,68.84V61.68h.95V68h3.53v.85Z"/>
    <path class="a77fe34a-c272-4ba4-9f9d-e30533588d05" d="M40.85,66.25a2.67,2.67,0,0,1,.8-2.13,2.47,2.47,0,0,1,1.63-.58,2.35,2.35,0,0,1,1.75.7,2.71,2.71,0,0,1,.68,1.94,3.52,3.52,0,0,1-.3,1.57,2.13,2.13,0,0,1-.87.89,2.43,2.43,0,0,1-1.25.32,2.29,2.29,0,0,1-1.76-.7A2.73,2.73,0,0,1,40.85,66.25Zm.9,0a2.13,2.13,0,0,0,.43,1.49,1.43,1.43,0,0,0,2,.14,1.85,1.85,0,0,0,.14-.14,2.31,2.31,0,0,0,.49-1.52,2.2,2.2,0,0,0-.44-1.46,1.45,1.45,0,0,0-2-.13l-.13.13a2.15,2.15,0,0,0-.47,1.49Z"/>
    <path class="a77fe34a-c272-4ba4-9f9d-e30533588d05" d="M50.13,68.2a3.31,3.31,0,0,1-.94.59,2.63,2.63,0,0,1-1,.17,1.86,1.86,0,0,1-1.31-.42,1.33,1.33,0,0,1-.46-1.07,1.42,1.42,0,0,1,.62-1.2,2.26,2.26,0,0,1,.63-.29c.25,0,.51-.1.78-.13a7.13,7.13,0,0,0,1.57-.3v-.23a1.06,1.06,0,0,0-.25-.76,1.56,1.56,0,0,0-1-.3,1.61,1.61,0,0,0-.92.22,1.34,1.34,0,0,0-.44.77l-.86-.12a2.15,2.15,0,0,1,.39-.89,1.68,1.68,0,0,1,.78-.52,3.93,3.93,0,0,1,1.18-.18A3.33,3.33,0,0,1,50,63.7a1.52,1.52,0,0,1,.61.39,1.55,1.55,0,0,1,.27.6,5.47,5.47,0,0,1,0,.81v1.17a10,10,0,0,0,.06,1.55,1.7,1.7,0,0,0,.22.62h-.92A1.71,1.71,0,0,1,50.13,68.2Zm-.07-2a6,6,0,0,1-1.44.33,3.21,3.21,0,0,0-.77.18.72.72,0,0,0-.35.29.77.77,0,0,0,.14,1,1.09,1.09,0,0,0,.78.23,1.79,1.79,0,0,0,.9-.22,1.37,1.37,0,0,0,.58-.61,2.39,2.39,0,0,0,.14-.88Z"/>
    <path class="a77fe34a-c272-4ba4-9f9d-e30533588d05" d="M55.67,68.84v-.65a1.6,1.6,0,0,1-1.45.77,1.91,1.91,0,0,1-1.14-.34,2.15,2.15,0,0,1-.81-1A3.24,3.24,0,0,1,52,66.21a3.6,3.6,0,0,1,.26-1.41,2,2,0,0,1,.78-1,2.13,2.13,0,0,1,1.16-.34,1.85,1.85,0,0,1,.83.2,2,2,0,0,1,.6.52v-2.5h.87v7.16Zm-2.82-2.59a2.19,2.19,0,0,0,.42,1.49,1.26,1.26,0,0,0,1,.49,1.24,1.24,0,0,0,1-.47,2.15,2.15,0,0,0,.4-1.44,2.47,2.47,0,0,0-.41-1.56,1.31,1.31,0,0,0-1-.5,1.21,1.21,0,0,0-1,.48A2.34,2.34,0,0,0,52.85,66.25Z"/>
    <path class="a77fe34a-c272-4ba4-9f9d-e30533588d05" d="M60.72,68.84V61.68h2.69a3.49,3.49,0,0,1,1.32.22,1.81,1.81,0,0,1,.78.67,1.87,1.87,0,0,1,.28.94,1.66,1.66,0,0,1-.25.87,1.81,1.81,0,0,1-.75.65,2,2,0,0,1,1,.65,1.85,1.85,0,0,1,.35,1.08,2.15,2.15,0,0,1-.21.94,1.76,1.76,0,0,1-.53.67,2.11,2.11,0,0,1-.78.35,4.53,4.53,0,0,1-1.16.12Zm1-4.15h1.55a3.05,3.05,0,0,0,.9-.08,1,1,0,0,0,.54-.36,1,1,0,0,0,.18-.62,1.27,1.27,0,0,0-.17-.63,1,1,0,0,0-.49-.37,4.47,4.47,0,0,0-1.09-.1H61.66Zm0,3.3h1.78a3.42,3.42,0,0,0,.64,0,1.41,1.41,0,0,0,.55-.2.93.93,0,0,0,.36-.4,1.36,1.36,0,0,0,.14-.6,1.25,1.25,0,0,0-.21-.7,1.14,1.14,0,0,0-.57-.42,4.27,4.27,0,0,0-1-.12H61.7Z"/>
    <path class="a77fe34a-c272-4ba4-9f9d-e30533588d05" d="M70.7,68.2a3.31,3.31,0,0,1-.94.59,2.63,2.63,0,0,1-1,.17,1.86,1.86,0,0,1-1.31-.42A1.33,1.33,0,0,1,67,67.47a1.42,1.42,0,0,1,.62-1.2,2.26,2.26,0,0,1,.63-.29c.25,0,.51-.1.78-.13a7.13,7.13,0,0,0,1.57-.3v-.23a1.06,1.06,0,0,0-.25-.76,1.56,1.56,0,0,0-1-.3,1.61,1.61,0,0,0-.92.22,1.34,1.34,0,0,0-.44.77l-.86-.12a2.15,2.15,0,0,1,.39-.89,1.68,1.68,0,0,1,.78-.52,3.93,3.93,0,0,1,1.18-.18,3.33,3.33,0,0,1,1.08.16,1.52,1.52,0,0,1,.61.39,1.55,1.55,0,0,1,.27.6,5.47,5.47,0,0,1,0,.81v1.17a10,10,0,0,0,.06,1.55,1.7,1.7,0,0,0,.22.62h-.86A1.76,1.76,0,0,1,70.7,68.2Zm-.07-2a6,6,0,0,1-1.44.33,3.21,3.21,0,0,0-.77.18.72.72,0,0,0-.35.29.77.77,0,0,0,.14,1,1.09,1.09,0,0,0,.78.23,1.79,1.79,0,0,0,.9-.22,1.37,1.37,0,0,0,.58-.61,2.39,2.39,0,0,0,.14-.88Z"/>
    <path class="a77fe34a-c272-4ba4-9f9d-e30533588d05" d="M72.85,68.84V61.68h.88v7.16Z"/>
    <path class="a77fe34a-c272-4ba4-9f9d-e30533588d05" d="M78.48,68.2a3.31,3.31,0,0,1-.94.59,2.63,2.63,0,0,1-1,.17,1.86,1.86,0,0,1-1.31-.42,1.33,1.33,0,0,1-.46-1.07,1.42,1.42,0,0,1,.62-1.2A2.26,2.26,0,0,1,76,66c.25,0,.51-.1.78-.13a7.13,7.13,0,0,0,1.57-.3v-.23a1.06,1.06,0,0,0-.25-.76,1.56,1.56,0,0,0-1-.3,1.61,1.61,0,0,0-.92.22,1.34,1.34,0,0,0-.44.77l-.86-.12a2.15,2.15,0,0,1,.39-.89,1.68,1.68,0,0,1,.78-.52,3.93,3.93,0,0,1,1.18-.18,3.33,3.33,0,0,1,1.08.16,1.52,1.52,0,0,1,.61.39,1.55,1.55,0,0,1,.27.6,5.47,5.47,0,0,1,0,.81v1.17a10,10,0,0,0,.06,1.55,1.7,1.7,0,0,0,.22.62h-.92A1.71,1.71,0,0,1,78.48,68.2Zm-.07-2a6,6,0,0,1-1.44.33,3.21,3.21,0,0,0-.77.18.72.72,0,0,0-.35.29A.77.77,0,0,0,76,68a1.09,1.09,0,0,0,.78.23,1.79,1.79,0,0,0,.9-.22,1.37,1.37,0,0,0,.58-.61,2.39,2.39,0,0,0,.14-.88Z"/>
    <path class="a77fe34a-c272-4ba4-9f9d-e30533588d05" d="M80.66,68.84V63.66h.79v.74a1.87,1.87,0,0,1,1.65-.85,2.35,2.35,0,0,1,.86.17,1.5,1.5,0,0,1,.59.44,2,2,0,0,1,.27.65,6,6,0,0,1,0,.85v3.18h-.88V65.69a2.7,2.7,0,0,0-.1-.8.92.92,0,0,0-.36-.42,1.32,1.32,0,0,0-.61-.16,1.45,1.45,0,0,0-1,.36A1.76,1.76,0,0,0,81.46,66v2.82Z"/>
    <path class="a77fe34a-c272-4ba4-9f9d-e30533588d05" d="M89.61,66.94l.86.11a2.28,2.28,0,0,1-.73,1.4,2,2,0,0,1-1.43.51,2.2,2.2,0,0,1-1.71-.7,2.78,2.78,0,0,1-.65-2,3.56,3.56,0,0,1,.28-1.47,1.91,1.91,0,0,1,.85-1,2.65,2.65,0,0,1,1.24-.31A2.28,2.28,0,0,1,89.7,64a2.07,2.07,0,0,1,.69,1.21l-.85.13a1.5,1.5,0,0,0-.43-.79,1.2,1.2,0,0,0-.75-.26,1.37,1.37,0,0,0-1.08.48,2.23,2.23,0,0,0-.43,1.51,2.27,2.27,0,0,0,.4,1.52,1.28,1.28,0,0,0,1,.47,1.21,1.21,0,0,0,.86-.32A1.6,1.6,0,0,0,89.61,66.94Z"/>
    <path class="a77fe34a-c272-4ba4-9f9d-e30533588d05" d="M94.77,67.17l.91.11a2.21,2.21,0,0,1-.8,1.24,2.48,2.48,0,0,1-4-2.26,2.88,2.88,0,0,1,.67-2,2.3,2.3,0,0,1,1.75-.72,2.24,2.24,0,0,1,1.7.71,2.87,2.87,0,0,1,.66,2v.23H91.85a1.91,1.91,0,0,0,.48,1.31,1.41,1.41,0,0,0,1.08.46,1.33,1.33,0,0,0,.83-.25A1.66,1.66,0,0,0,94.77,67.17Zm-2.92-1.42h2.9a1.84,1.84,0,0,0-.33-1,1.37,1.37,0,0,0-1.09-.51,1.41,1.41,0,0,0-1,.4A1.63,1.63,0,0,0,91.85,65.75Z"/>
    <path class="a77fe34a-c272-4ba4-9f9d-e30533588d05" d="M96.78,68.84V63.66h.79v.79a2.1,2.1,0,0,1,.56-.73,1.09,1.09,0,0,1,.56-.18,1.8,1.8,0,0,1,.9.28l-.3.81a1.36,1.36,0,0,0-.64-.19.87.87,0,0,0-.52.17.93.93,0,0,0-.33.48,3.46,3.46,0,0,0-.15,1v2.75Z"/>
  </g>
  <path class="bd817da2-4e75-4402-b272-f01707b05679" d="M133.28,55.82h-3.46V54.67h3.42Zm-6.32,0h-3.42V54.67H127Zm-6.28,0h-3.42V54.67h3.42Zm-6.28,0H111V54.67h3.42Zm-6.27,0H104.7V54.67h3.43Zm-6.28,0H98.42V54.67h3.43Zm-6.28,0H92.14V54.67h3.43Zm-6.28,0H85.86V54.67h3.43Zm-6.5-.48A3.61,3.61,0,0,1,81,52.24V52h1.15v.28a2.44,2.44,0,0,0,1.22,2.1Zm53.39-1.05-1-.66a2.39,2.39,0,0,0,.44-1.39v-1.6h1.15v1.6A3.58,3.58,0,0,1,136.18,54.29Zm-54-5.18H81V45.69h1.15Zm54.67-1.32h-1.15V44.37h1.15Zm-54.67-5H81V39.41h1.15Zm54.67-1.32h-1.15V38.09h1.15Zm-54.67-5H81V33.13h1.15Zm54.67-1.32h-1.15V31.81h1.15Zm-54.67-5H81V26.85h1.15ZM136.82,29h-1.15V25.53h1.15ZM82.15,24H81V20.57h1.15Zm54.67-1.33h-1.15V19.25h1.15Zm-54.67-5H81V14.29h1.15Zm54.67-1.32h-1.15V13h1.15Zm-54.67-5H81V8h1.15Zm54.67-1.32h-1.15V6.69h1.15Zm-54.67-5H81V3.58a3.53,3.53,0,0,1,.66-2.06l.94.66a2.36,2.36,0,0,0-.45,1.4Zm54.67-1.32h-1.15V3.58a2.43,2.43,0,0,0-1.23-2.11l.57-1a3.59,3.59,0,0,1,1.81,3.11Zm-4.88-2.69h-3.43V0h3.43Zm-6.28,0h-3.42V0h3.42Zm-6.28,0H116V0h3.42Zm-6.28,0h-3.42V0h3.42Zm-6.28,0H103.4V0h3.42Zm-6.28,0H97.12V0h3.42Zm-6.27,0H90.84V0h3.43ZM88,1.15H84.58l0-1.15H88Z"/>
  <circle class="b7480087-84cf-448e-a4b8-fbb49da1cb24" cx="72.6" cy="27.95" r="1.44"/>
  <circle class="b7480087-84cf-448e-a4b8-fbb49da1cb24" cx="68" cy="27.95" r="1.44"/>
  <circle class="b7480087-84cf-448e-a4b8-fbb49da1cb24" cx="63.39" cy="27.95" r="1.44"/>
  <g>
    <rect class="bd817da2-4e75-4402-b272-f01707b05679" x="108.52" y="19.86" width="1.68" height="16.21"/>
    <rect class="bd817da2-4e75-4402-b272-f01707b05679" x="101.09" y="19.86" width="1.68" height="16.21" transform="translate(40.45 -58.02) rotate(39.1)"/>
    <rect class="bd817da2-4e75-4402-b272-f01707b05679" x="115.95" y="19.86" width="1.68" height="16.21" transform="translate(225.06 -23.98) rotate(140.9)"/>
    <circle class="bd817da2-4e75-4402-b272-f01707b05679" cx="109.36" cy="18.75" r="5.07"/>
    <circle class="bd817da2-4e75-4402-b272-f01707b05679" cx="109.36" cy="36.31" r="5.07"/>
    <circle class="bd817da2-4e75-4402-b272-f01707b05679" cx="95.17" cy="36.31" r="5.07"/>
    <circle class="bd817da2-4e75-4402-b272-f01707b05679" cx="122.87" cy="36.31" r="5.07"/>
  </g>
  <path class="bd817da2-4e75-4402-b272-f01707b05679" d="M52.28,55.82H48.82V54.67h3.42Zm-6.32,0H42.54V54.67H46Zm-6.28,0H36.26V54.67h3.42Zm-6.28,0H30V54.67H33.4Zm-6.27,0H23.7V54.67h3.43Zm-6.28,0H17.42V54.67h3.43Zm-6.28,0H11.14V54.67h3.43Zm-6.28,0H4.86V54.67H8.29Zm-6.5-.48A3.61,3.61,0,0,1,0,52.24V52H1.15v.28a2.44,2.44,0,0,0,1.22,2.1Zm53.39-1.05-1-.66a2.39,2.39,0,0,0,.44-1.39v-1.6h1.15v1.6A3.58,3.58,0,0,1,55.18,54.29Zm-54-5.18H0V45.69H1.15Zm54.67-1.32H54.67V44.37h1.15Zm-54.67-5H0V39.41H1.15Zm54.67-1.32H54.67V38.09h1.15Zm-54.67-5H0V33.13H1.15Zm54.67-1.32H54.67V31.81h1.15Zm-54.67-5H0V26.85H1.15ZM55.82,29H54.67V25.53h1.15ZM1.15,24H0V20.57H1.15Zm54.67-1.33H54.67V19.25h1.15Zm-54.67-5H0V14.29H1.15ZM55.82,16.4H54.67V13h1.15Zm-54.67-5H0V8H1.15Zm54.67-1.32H54.67V6.69h1.15Zm-54.67-5H0V3.58A3.53,3.53,0,0,1,.66,1.52l.94.66a2.36,2.36,0,0,0-.45,1.4ZM55.82,3.84H54.67V3.58a2.43,2.43,0,0,0-1.23-2.11l.57-1a3.59,3.59,0,0,1,1.81,3.11ZM50.94,1.15H47.51V0h3.43Zm-6.28,0H41.24V0h3.42Zm-6.28,0H35V0h3.42Zm-6.28,0H28.68V0H32.1Zm-6.28,0H22.4V0h3.42Zm-6.28,0H16.12V0h3.42Zm-6.27,0H9.84V0h3.43ZM7,1.15H3.58L3.56,0H7Z"/>
  <g>
    <rect class="bd817da2-4e75-4402-b272-f01707b05679" x="27.52" y="19.86" width="1.68" height="16.21"/>
    <rect class="bd817da2-4e75-4402-b272-f01707b05679" x="20.09" y="19.86" width="1.68" height="16.21" transform="translate(22.32 -6.94) rotate(39.1)"/>
    <rect class="bd817da2-4e75-4402-b272-f01707b05679" x="34.95" y="19.86" width="1.68" height="16.21" transform="translate(81.19 27.1) rotate(140.9)"/>
    <circle class="bd817da2-4e75-4402-b272-f01707b05679" cx="28.36" cy="18.75" r="5.07"/>
    <circle class="bd817da2-4e75-4402-b272-f01707b05679" cx="28.36" cy="36.31" r="5.07"/>
    <circle class="bd817da2-4e75-4402-b272-f01707b05679" cx="14.17" cy="36.31" r="5.07"/>
    <circle class="bd817da2-4e75-4402-b272-f01707b05679" cx="41.87" cy="36.31" r="5.07"/>
  </g>
</svg>
