<svg id="adf30c05-8f6d-40c5-87ec-d76e2cbd40b4" data-name="Слой 1" xmlns="http://www.w3.org/2000/svg" width="298.27" height="167.92" viewBox="0 0 298.27 167.92"><path d="M14.29,52.38a2,2,0,0,1-.74,1.67,3.33,3.33,0,0,1-2.11.58H10.6v2.81H9.77V50.3h1.85C13.4,50.3,14.29,51,14.29,52.38ZM10.6,53.92h.74a2.76,2.76,0,0,0,1.6-.36,1.31,1.31,0,0,0,.49-1.14A1.22,1.22,0,0,0,13,51.37,2.36,2.36,0,0,0,11.52,51H10.6Z" fill="#fff"/><path d="M17.91,52a3.16,3.16,0,0,1,.64.06l-.12.75a2.6,2.6,0,0,0-.58-.07,1.42,1.42,0,0,0-1.11.52,1.93,1.93,0,0,0-.46,1.32v2.87h-.82V52.09h.67l.1,1h0a2.26,2.26,0,0,1,.71-.81A1.62,1.62,0,0,1,17.91,52Z" fill="#fff"/><path d="M19.28,50.64a.51.51,0,0,1,.14-.41.45.45,0,0,1,.34-.13.44.44,0,0,1,.33.13.64.64,0,0,1,0,.82.49.49,0,0,1-.33.13.49.49,0,0,1-.34-.13A.53.53,0,0,1,19.28,50.64Zm.88,6.8h-.81V52.09h.81Z" fill="#fff"/><path d="M28.5,57.44V54a1.39,1.39,0,0,0-.28-1,1.06,1.06,0,0,0-.85-.32,1.36,1.36,0,0,0-1.11.43,2.08,2.08,0,0,0-.36,1.34v3h-.82V54a1.45,1.45,0,0,0-.27-1,1.07,1.07,0,0,0-.85-.32,1.32,1.32,0,0,0-1.12.46,2.42,2.42,0,0,0-.35,1.49v2.81h-.81V52.09h.65l.14.73h0a1.63,1.63,0,0,1,.64-.61,2,2,0,0,1,.94-.22,1.59,1.59,0,0,1,1.64.91h0a1.78,1.78,0,0,1,.69-.67,2.19,2.19,0,0,1,1-.24,1.82,1.82,0,0,1,1.36.47A2.07,2.07,0,0,1,29.31,54v3.49Z" fill="#fff"/><path d="M34.07,57.44l-.16-.76h0a2.31,2.31,0,0,1-.8.68,2.4,2.4,0,0,1-1,.18,1.81,1.81,0,0,1-1.25-.41A1.52,1.52,0,0,1,30.38,56c0-1.08.86-1.65,2.59-1.7l.91,0V53.9a1.36,1.36,0,0,0-.27-.93,1.12,1.12,0,0,0-.87-.3,3.58,3.58,0,0,0-1.51.41L31,52.46A3.76,3.76,0,0,1,32.79,52a2.06,2.06,0,0,1,1.42.42,1.79,1.79,0,0,1,.46,1.37v3.65Zm-1.83-.57a1.65,1.65,0,0,0,1.19-.42,1.51,1.51,0,0,0,.43-1.16v-.48l-.81,0a2.84,2.84,0,0,0-1.39.3.91.91,0,0,0-.43.83.86.86,0,0,0,.26.67A1.14,1.14,0,0,0,32.24,56.87Z" fill="#fff"/><path d="M38.58,52a3.1,3.1,0,0,1,.64.06l-.11.75a2.68,2.68,0,0,0-.59-.07,1.43,1.43,0,0,0-1.11.52A1.93,1.93,0,0,0,37,54.57v2.87h-.81V52.09h.67l.09,1h0a2.38,2.38,0,0,1,.72-.81A1.61,1.61,0,0,1,38.58,52Z" fill="#fff"/><path d="M39.17,52.09H40l1.17,3a11.08,11.08,0,0,1,.48,1.51h0c0-.17.13-.45.27-.85s.57-1.64,1.32-3.71h.87l-2.3,6.09a3,3,0,0,1-.8,1.28,1.64,1.64,0,0,1-1.12.38,3.63,3.63,0,0,1-.73-.08v-.65a2.77,2.77,0,0,0,.6.06A1.23,1.23,0,0,0,41,58.23l.3-.76Z" fill="#fff"/><rect x="81.58" y="63.16" width="54.67" height="54.67" rx="3" fill="#fff"/><path d="M133.24,118.4H84.58A3.58,3.58,0,0,1,81,114.82V66.16a3.59,3.59,0,0,1,3.58-3.58h48.66a3.59,3.59,0,0,1,3.58,3.58v48.66A3.58,3.58,0,0,1,133.24,118.4ZM84.58,63.73a2.43,2.43,0,0,0-2.43,2.43v48.66a2.43,2.43,0,0,0,2.43,2.43h48.66a2.43,2.43,0,0,0,2.43-2.43V66.16a2.43,2.43,0,0,0-2.43-2.43Z" fill="#ffb70a"/><rect x="161.88" y="63.2" width="54.67" height="54.67" rx="3" fill="#fff"/><path d="M213.54,118.44H164.88a3.59,3.59,0,0,1-3.58-3.58V66.2a3.59,3.59,0,0,1,3.58-3.58h48.66a3.58,3.58,0,0,1,3.58,3.58v48.66A3.58,3.58,0,0,1,213.54,118.44ZM164.88,63.77a2.43,2.43,0,0,0-2.43,2.43v48.66a2.43,2.43,0,0,0,2.43,2.43h48.66a2.43,2.43,0,0,0,2.43-2.43V66.2a2.43,2.43,0,0,0-2.43-2.43Z" fill="#ffb70a"/><g opacity="0.5"><path d="M294.72,118.4h-3.46v-1.15h3.43Zm-6.31,0H285v-1.15h3.43Zm-6.28,0H278.7v-1.15h3.43Zm-6.28,0h-3.43v-1.15h3.43Zm-6.28,0h-3.42v-1.15h3.42Zm-6.28,0h-3.42v-1.15h3.42Zm-6.28,0h-3.42v-1.15H257Zm-6.28,0h-3.42v-1.15h3.42Zm-6.49-.48a3.59,3.59,0,0,1-1.79-3.1v-.27h1.15v.27a2.46,2.46,0,0,0,1.21,2.11Zm53.38-1-.94-.66a2.46,2.46,0,0,0,.44-1.39v-1.59h1.15v1.59A3.57,3.57,0,0,1,297.62,116.87Zm-54-5.18h-1.15v-3.42h1.15Zm54.67-1.32h-1.15V107h1.15Zm-54.67-5h-1.15V102h1.15Zm54.67-1.32h-1.15v-3.42h1.15Zm-54.67-5h-1.15V95.71h1.15Zm54.67-1.32h-1.15V94.39h1.15Zm-54.67-5h-1.15V89.43h1.15Zm54.67-1.32h-1.15V88.11h1.15Zm-54.67-5h-1.15V83.15h1.15Zm54.67-1.32h-1.15V81.83h1.15Zm-54.67-5h-1.15V76.87h1.15ZM298.27,79h-1.15V75.55h1.15ZM243.6,74h-1.15V70.59h1.15Zm54.67-1.32h-1.15V69.27h1.15Zm-54.67-5h-1.15V66.16a3.55,3.55,0,0,1,.65-2.06l.94.66a2.44,2.44,0,0,0-.44,1.4Zm54.67-1.32h-1.15v-.26a2.45,2.45,0,0,0-1.24-2.11l.57-1a3.6,3.6,0,0,1,1.82,3.11Zm-4.89-2.69H290V62.58h3.42Zm-6.27,0h-3.43V62.58h3.43Zm-6.28,0H277.4V62.58h3.43Zm-6.28,0h-3.43V62.58h3.43Zm-6.28,0h-3.43V62.58h3.43Zm-6.28,0h-3.43V62.58H262Zm-6.28,0h-3.42V62.58h3.42Zm-6.28,0H246V62.58h3.42Z" fill="#ffb70a"/></g><rect x="189.1" y="130.25" width="1.15" height="21.29" fill="#ffb70a"/><rect x="109.17" y="126.8" width="1.15" height="24.75" fill="#ffb70a"/><polygon points="189.68 126.6 187.09 131.98 192.27 131.98 189.68 126.6" fill="#ffb70a"/><rect x="28.1" y="130.25" width="1.15" height="21.29" fill="#ffb70a"/><polygon points="28.68 126.6 26.09 131.98 31.27 131.98 28.68 126.6" fill="#ffb70a"/><polygon points="271.16 126.6 268.57 131.98 273.75 131.98 271.16 126.6" fill="#ffb70a" opacity="0.5"/><rect x="109.17" y="151.54" width="81.14" height="1.15" fill="#ffb70a"/><rect x="28.17" y="151.54" width="81.14" height="1.15" fill="#ffb70a"/><g opacity="0.5"><rect x="270.3" y="133.13" width="1.15" height="1.73" fill="#ffb70a"/><path d="M271.45,147.51H270.3v-3.45h1.15Zm0-6.33H270.3v-3.45h1.15Z" fill="#ffb70a"/><polygon points="271.45 152.69 269.15 152.69 269.15 151.54 270.3 151.54 270.3 150.39 271.45 150.39 271.45 152.69" fill="#ffb70a"/><path d="M266.16,152.69h-3.59v-1.15h3.59Zm-6.58,0H256v-1.15h3.59Zm-6.58,0h-3.59v-1.15H253Zm-6.59,0h-3.59v-1.15h3.59Zm-6.58,0h-3.59v-1.15h3.59Zm-6.58,0h-3.59v-1.15h3.59Zm-6.58,0h-3.59v-1.15h3.59Zm-6.58,0H216.5v-1.15h3.59Zm-6.58,0h-3.59v-1.15h3.59Zm-6.58,0h-3.59v-1.15h3.59Zm-6.59,0h-3.59v-1.15h3.59Z" fill="#ffb70a"/><rect x="192.04" y="151.54" width="1.73" height="1.15" fill="#ffb70a"/></g><path d="M123.78,165.93v-7.16H127a4.41,4.41,0,0,1,1.45.19,1.58,1.58,0,0,1,.8.69,2,2,0,0,1,.3,1.07A1.81,1.81,0,0,1,129,162a2.44,2.44,0,0,1-1.52.66,2.35,2.35,0,0,1,.57.36,4.8,4.8,0,0,1,.79.95l1.24,2H128.9l-1-1.49c-.27-.43-.5-.76-.68-1a2.29,2.29,0,0,0-.48-.47,1.16,1.16,0,0,0-.43-.19,2.3,2.3,0,0,0-.53,0h-1.1v3.18Zm1-4h2a3,3,0,0,0,1-.13,1.12,1.12,0,0,0,.56-.43,1.15,1.15,0,0,0,.19-.65,1.06,1.06,0,0,0-.37-.83,1.69,1.69,0,0,0-1.16-.33h-2.27Z" fill="#e88d0b"/><path d="M134.43,164.26l.91.11a2.28,2.28,0,0,1-.8,1.24,2.7,2.7,0,0,1-3.29-.26,2.78,2.78,0,0,1-.66-2,2.86,2.86,0,0,1,.67-2,2.28,2.28,0,0,1,1.75-.72,2.23,2.23,0,0,1,1.7.7,2.84,2.84,0,0,1,.66,2s0,.13,0,.23h-3.87a2,2,0,0,0,.49,1.31,1.44,1.44,0,0,0,1.08.45,1.36,1.36,0,0,0,.83-.25A1.72,1.72,0,0,0,134.43,164.26Zm-2.89-1.42h2.9a1.77,1.77,0,0,0-.33-1,1.36,1.36,0,0,0-1.09-.51,1.38,1.38,0,0,0-1,.4A1.63,1.63,0,0,0,131.54,162.84Z" fill="#e88d0b"/><path d="M136.44,167.92v-7.18h.8v.68a2,2,0,0,1,.64-.6,1.8,1.8,0,0,1,.87-.19,2,2,0,0,1,1.17.34,2.15,2.15,0,0,1,.76,1,3.77,3.77,0,0,1,0,2.8,2.17,2.17,0,0,1-.83,1,2.22,2.22,0,0,1-1.15.34,1.62,1.62,0,0,1-.79-.19,1.75,1.75,0,0,1-.57-.47v2.53Zm.8-4.55a2.27,2.27,0,0,0,.4,1.48,1.23,1.23,0,0,0,1,.47,1.28,1.28,0,0,0,1-.49,2.34,2.34,0,0,0,.41-1.54,2.29,2.29,0,0,0-.4-1.48,1.24,1.24,0,0,0-1-.49,1.26,1.26,0,0,0-1,.52A2.34,2.34,0,0,0,137.24,163.37Z" fill="#e88d0b"/><path d="M142,165.93v-7.16h.88v7.16Z" fill="#e88d0b"/><path d="M144.23,159.78v-1h.88v1Zm0,6.15v-5.19h.88v5.19Z" fill="#e88d0b"/><path d="M149.83,164l.86.11a2.19,2.19,0,0,1-.72,1.4,2.11,2.11,0,0,1-1.43.51,2.26,2.26,0,0,1-1.72-.7,2.82,2.82,0,0,1-.64-2,3.54,3.54,0,0,1,.28-1.47,1.91,1.91,0,0,1,.84-.95,2.51,2.51,0,0,1,1.24-.31,2.18,2.18,0,0,1,1.38.42,2,2,0,0,1,.69,1.22l-.85.13a1.48,1.48,0,0,0-.44-.79,1.12,1.12,0,0,0-.75-.26,1.34,1.34,0,0,0-1.07.48,2.22,2.22,0,0,0-.42,1.5,2.31,2.31,0,0,0,.4,1.52,1.3,1.3,0,0,0,1.05.47,1.23,1.23,0,0,0,.86-.31A1.6,1.6,0,0,0,149.83,164Z" fill="#e88d0b"/><path d="M154.83,165.29a3.44,3.44,0,0,1-.94.59,2.83,2.83,0,0,1-1,.17,1.86,1.86,0,0,1-1.31-.42,1.36,1.36,0,0,1-.46-1.07,1.47,1.47,0,0,1,.17-.69,1.59,1.59,0,0,1,.45-.51,2.2,2.2,0,0,1,.64-.29,6.85,6.85,0,0,1,.78-.13,7.64,7.64,0,0,0,1.57-.3v-.23a1,1,0,0,0-.25-.76,1.46,1.46,0,0,0-1-.3,1.62,1.62,0,0,0-.92.22,1.35,1.35,0,0,0-.43.77l-.86-.12a2.2,2.2,0,0,1,.38-.89,1.73,1.73,0,0,1,.78-.52,3.53,3.53,0,0,1,1.18-.18,3.26,3.26,0,0,1,1.08.15,1.51,1.51,0,0,1,.61.4,1.29,1.29,0,0,1,.27.59,5,5,0,0,1,0,.81v1.18a11.75,11.75,0,0,0,.06,1.55,2.09,2.09,0,0,0,.22.62H155A1.77,1.77,0,0,1,154.83,165.29Zm-.07-2a6.45,6.45,0,0,1-1.44.33,3.64,3.64,0,0,0-.77.17.81.81,0,0,0-.34.29.77.77,0,0,0-.13.42.73.73,0,0,0,.27.58,1.14,1.14,0,0,0,.78.24,1.87,1.87,0,0,0,.9-.22,1.31,1.31,0,0,0,.58-.61,2,2,0,0,0,.15-.88Z" fill="#e88d0b"/><path d="M158.93,165.14l.12.78a3.37,3.37,0,0,1-.66.08,1.49,1.49,0,0,1-.74-.15.84.84,0,0,1-.37-.4,2.93,2.93,0,0,1-.11-1v-3h-.65v-.69h.65v-1.28l.87-.53v1.81h.89v.69H158v3a1.49,1.49,0,0,0,.05.48.35.35,0,0,0,.15.17.51.51,0,0,0,.3.07A2.13,2.13,0,0,0,158.93,165.14Z" fill="#e88d0b"/><path d="M159.79,159.78v-1h.88v1Zm0,6.15v-5.19h.88v5.19Z" fill="#e88d0b"/><path d="M161.68,163.34a2.71,2.71,0,0,1,.8-2.14,2.44,2.44,0,0,1,1.63-.57,2.32,2.32,0,0,1,1.75.7,2.66,2.66,0,0,1,.68,1.93,3.44,3.44,0,0,1-.3,1.58,2.1,2.1,0,0,1-.88.89,2.55,2.55,0,0,1-1.25.32,2.36,2.36,0,0,1-1.76-.7A2.79,2.79,0,0,1,161.68,163.34Zm.9,0a2.21,2.21,0,0,0,.44,1.49,1.46,1.46,0,0,0,2.18,0,2.28,2.28,0,0,0,.43-1.52,2.16,2.16,0,0,0-.43-1.46,1.4,1.4,0,0,0-1.09-.5,1.39,1.39,0,0,0-1.09.5A2.19,2.19,0,0,0,162.58,163.34Z" fill="#e88d0b"/><path d="M167.57,165.93v-5.19h.79v.74a1.86,1.86,0,0,1,1.65-.85,2.2,2.2,0,0,1,.86.16,1.38,1.38,0,0,1,.59.45,1.66,1.66,0,0,1,.27.65,4.23,4.23,0,0,1,.05.85v3.19h-.88v-3.15a2.38,2.38,0,0,0-.1-.81.82.82,0,0,0-.36-.42,1.15,1.15,0,0,0-.62-.16,1.44,1.44,0,0,0-1,.36,1.74,1.74,0,0,0-.4,1.35v2.83Z" fill="#e88d0b"/><circle cx="234.05" cy="90.53" r="1.44" fill="#5e6981"/><circle cx="229.44" cy="90.53" r="1.44" fill="#5e6981"/><circle cx="224.84" cy="90.53" r="1.44" fill="#5e6981"/><rect x="0.58" y="63.16" width="54.67" height="54.67" rx="3" fill="#fff"/><path d="M52.24,118.4H3.58A3.58,3.58,0,0,1,0,114.82V66.16a3.59,3.59,0,0,1,3.58-3.58H52.24a3.59,3.59,0,0,1,3.58,3.58v48.66A3.58,3.58,0,0,1,52.24,118.4ZM3.58,63.73a2.43,2.43,0,0,0-2.43,2.43v48.66a2.43,2.43,0,0,0,2.43,2.43H52.24a2.43,2.43,0,0,0,2.43-2.43V66.16a2.43,2.43,0,0,0-2.43-2.43Z" fill="#ffb70a"/><rect x="23.72" y="20.91" width="161.59" height="1.15" fill="#e87474"/><rect x="104.52" width="1.15" height="21.29" fill="#e87474"/><rect x="184.52" width="1.15" height="21.92" fill="#e87474"/><polygon points="189.54 0 186.95 5.37 192.13 5.37 189.54 0" fill="#71b429"/><rect x="109.01" y="3.65" width="1.15" height="21.29" fill="#71b429"/><rect x="28.1" y="24.94" width="1.15" height="21.29" fill="#71b429"/><rect x="109.01" y="24.94" width="1.15" height="21.29" fill="#71b429"/><rect x="189.1" y="3.65" width="1.15" height="21.29" fill="#71b429"/><rect x="189.1" y="24.94" width="1.15" height="21.29" fill="#71b429"/><rect x="29.17" y="24.94" width="160.14" height="1.15" fill="#71b429"/><rect x="23.09" y="20.92" width="1.15" height="21.29" fill="#e87474"/><polygon points="109.59 0 107 5.37 112.18 5.37 109.59 0" fill="#71b429"/><polygon points="23.66 46.43 21.07 41.05 26.25 41.05 23.66 46.43" fill="#e87474"/><g opacity="0.5"><rect x="270.3" y="44.51" width="1.15" height="1.73" fill="#71b429"/><path d="M271.45,41.31H270.3V37.47h1.15Zm0-7H270.3V30.44h1.15Z" fill="#71b429"/><polygon points="271.45 27.24 270.3 27.24 270.3 26.09 269.15 26.09 269.15 24.94 271.45 24.94 271.45 27.24" fill="#71b429"/><path d="M266.29,26.09h-3.42V24.94h3.42Zm-6.28,0h-3.43V24.94H260Zm-6.28,0H250.3V24.94h3.43Zm-6.28,0H244V24.94h3.43Zm-6.29,0h-3.42V24.94h3.42Zm-6.28,0h-3.42V24.94h3.42Zm-6.28,0h-3.43V24.94h3.43Zm-6.28,0h-3.43V24.94h3.43Zm-6.29,0h-3.42V24.94H216Zm-6.28,0h-3.43V24.94h3.43Zm-6.28,0H200V24.94h3.43Zm-6.28,0h-3.43V24.94h3.43Zm-6.29,0h-3.42V24.94h3.42Z" fill="#71b429"/><rect x="182.89" y="24.94" width="1.73" height="1.15" fill="#71b429"/></g><path d="M89.11,55.54A1.76,1.76,0,0,1,88.43,57a3,3,0,0,1-1.86.53,4.57,4.57,0,0,1-1.95-.33v-.8a5.35,5.35,0,0,0,2,.4,2.07,2.07,0,0,0,1.25-.32,1,1,0,0,0,.42-.87,1.13,1.13,0,0,0-.15-.61,1.38,1.38,0,0,0-.5-.44,7.09,7.09,0,0,0-1.06-.45,3.35,3.35,0,0,1-1.42-.85A1.83,1.83,0,0,1,84.71,52a1.58,1.58,0,0,1,.62-1.31A2.54,2.54,0,0,1,87,50.2a4.86,4.86,0,0,1,2,.39l-.26.72A4.37,4.37,0,0,0,87,50.94a1.66,1.66,0,0,0-1,.28.93.93,0,0,0-.37.79,1.22,1.22,0,0,0,.14.61,1.29,1.29,0,0,0,.46.43,5.8,5.8,0,0,0,1,.44,3.93,3.93,0,0,1,1.55.86A1.68,1.68,0,0,1,89.11,55.54Z" fill="#fff"/><path d="M92.51,57.54a2.42,2.42,0,0,1-1.87-.73,2.78,2.78,0,0,1-.69-2,3.08,3.08,0,0,1,.64-2.06A2.09,2.09,0,0,1,92.3,52a2,2,0,0,1,1.59.66,2.54,2.54,0,0,1,.59,1.75v.51H90.79a2.1,2.1,0,0,0,.48,1.43,1.62,1.62,0,0,0,1.27.49,4.38,4.38,0,0,0,1.71-.36v.72a5.22,5.22,0,0,1-.82.27A4.77,4.77,0,0,1,92.51,57.54Zm-.22-4.87a1.33,1.33,0,0,0-1,.42,1.88,1.88,0,0,0-.45,1.16h2.8a1.76,1.76,0,0,0-.35-1.17A1.16,1.16,0,0,0,92.29,52.67Z" fill="#fff"/><path d="M97.8,57.54a2.26,2.26,0,0,1-1.8-.72,2.92,2.92,0,0,1-.64-2A3,3,0,0,1,96,52.72,2.31,2.31,0,0,1,97.85,52a4,4,0,0,1,.77.08,2.55,2.55,0,0,1,.61.2L99,53a3.39,3.39,0,0,0-.59-.18,2.44,2.44,0,0,0-.56-.07c-1.09,0-1.63.69-1.63,2.08a2.43,2.43,0,0,0,.4,1.51,1.39,1.39,0,0,0,1.18.53,3.67,3.67,0,0,0,1.37-.29v.72A3,3,0,0,1,97.8,57.54Z" fill="#fff"/><path d="M104.84,54.76a2.94,2.94,0,0,1-.66,2,2.33,2.33,0,0,1-1.82.74,2.47,2.47,0,0,1-1.28-.34,2.2,2.2,0,0,1-.86-1,3.38,3.38,0,0,1-.3-1.47,2.94,2.94,0,0,1,.66-2,2.56,2.56,0,0,1,3.6,0A2.93,2.93,0,0,1,104.84,54.76Zm-4.08,0a2.57,2.57,0,0,0,.41,1.56,1.42,1.42,0,0,0,1.21.54,1.41,1.41,0,0,0,1.2-.54,3.09,3.09,0,0,0,0-3.11,1.65,1.65,0,0,0-2.41,0A2.53,2.53,0,0,0,100.76,54.76Z" fill="#fff"/><path d="M109.72,57.44V54a1.4,1.4,0,0,0-.3-1,1.23,1.23,0,0,0-.93-.32,1.54,1.54,0,0,0-1.23.45,2.31,2.31,0,0,0-.39,1.5v2.81h-.81V52.09h.66l.13.73h0a1.61,1.61,0,0,1,.7-.61,2.19,2.19,0,0,1,1-.22,2,2,0,0,1,1.45.47,2,2,0,0,1,.49,1.49v3.49Z" fill="#fff"/><path d="M115.64,56.72h0a1.9,1.9,0,0,1-1.67.82,2,2,0,0,1-1.64-.72,3.16,3.16,0,0,1-.58-2,3.24,3.24,0,0,1,.58-2.06,2,2,0,0,1,1.64-.73,1.92,1.92,0,0,1,1.66.79h.07l0-.38,0-.38V49.84h.82v7.6h-.66Zm-1.62.14a1.48,1.48,0,0,0,1.2-.45,2.3,2.3,0,0,0,.37-1.46v-.17a2.74,2.74,0,0,0-.37-1.63,1.46,1.46,0,0,0-1.21-.48,1.23,1.23,0,0,0-1.09.55,2.7,2.7,0,0,0-.38,1.57,2.67,2.67,0,0,0,.37,1.55A1.31,1.31,0,0,0,114,56.86Z" fill="#fff"/><path d="M121.21,57.44l-.16-.76h0a2.28,2.28,0,0,1-.79.68,2.45,2.45,0,0,1-1,.18,1.78,1.78,0,0,1-1.24-.41,1.49,1.49,0,0,1-.46-1.17c0-1.08.87-1.65,2.6-1.7l.9,0V53.9a1.36,1.36,0,0,0-.27-.93,1.11,1.11,0,0,0-.86-.3,3.62,3.62,0,0,0-1.52.41l-.25-.62a4.14,4.14,0,0,1,.87-.34,3.81,3.81,0,0,1,1-.12,2,2,0,0,1,1.41.42,1.79,1.79,0,0,1,.47,1.37v3.65Zm-1.83-.57a1.61,1.61,0,0,0,1.19-.42,1.51,1.51,0,0,0,.43-1.16v-.48l-.81,0a2.87,2.87,0,0,0-1.39.3.92.92,0,0,0-.43.83.83.83,0,0,0,.27.67A1.13,1.13,0,0,0,119.38,56.87Z" fill="#fff"/><path d="M125.73,52a3.16,3.16,0,0,1,.64.06l-.12.75a2.6,2.6,0,0,0-.58-.07,1.43,1.43,0,0,0-1.11.52,1.93,1.93,0,0,0-.46,1.32v2.87h-.81V52.09H124l.09,1h0a2.36,2.36,0,0,1,.71-.81A1.62,1.62,0,0,1,125.73,52Z" fill="#fff"/><path d="M126.32,52.09h.87l1.17,3a11.08,11.08,0,0,1,.48,1.51h0c0-.17.13-.45.26-.85s.58-1.64,1.33-3.71h.87L129,58.18a3.1,3.1,0,0,1-.8,1.28,1.65,1.65,0,0,1-1.12.38,3.55,3.55,0,0,1-.73-.08v-.65a2.77,2.77,0,0,0,.6.06,1.25,1.25,0,0,0,1.19-.94l.3-.76Z" fill="#fff"/><path d="M170.19,55.54a1.73,1.73,0,0,1-.68,1.47,3,3,0,0,1-1.86.53,4.63,4.63,0,0,1-2-.33v-.8a5.46,5.46,0,0,0,2,.4,2.05,2.05,0,0,0,1.25-.32,1,1,0,0,0,.42-.87,1.22,1.22,0,0,0-.14-.61,1.47,1.47,0,0,0-.5-.44,7.82,7.82,0,0,0-1.07-.45,3.42,3.42,0,0,1-1.42-.85,1.88,1.88,0,0,1-.43-1.27,1.58,1.58,0,0,1,.62-1.31,2.58,2.58,0,0,1,1.64-.49,4.83,4.83,0,0,1,2,.39l-.26.72a4.33,4.33,0,0,0-1.71-.37,1.69,1.69,0,0,0-1,.28,1,1,0,0,0-.37.79,1.22,1.22,0,0,0,.14.61,1.38,1.38,0,0,0,.46.43,6,6,0,0,0,1,.44,4,4,0,0,1,1.54.86A1.68,1.68,0,0,1,170.19,55.54Z" fill="#fff"/><path d="M173.59,57.54a2.43,2.43,0,0,1-1.87-.73,2.78,2.78,0,0,1-.69-2,3.13,3.13,0,0,1,.64-2.06,2.12,2.12,0,0,1,1.71-.76,2,2,0,0,1,1.59.66,2.54,2.54,0,0,1,.59,1.75v.51h-3.69a2.15,2.15,0,0,0,.48,1.43,1.62,1.62,0,0,0,1.27.49,4.3,4.3,0,0,0,1.71-.36v.72a5.48,5.48,0,0,1-.81.27A5,5,0,0,1,173.59,57.54Zm-.22-4.87a1.33,1.33,0,0,0-1,.42,2,2,0,0,0-.45,1.16h2.8a1.76,1.76,0,0,0-.34-1.17A1.18,1.18,0,0,0,173.37,52.67Z" fill="#fff"/><path d="M178.88,57.54a2.29,2.29,0,0,1-1.8-.72,3,3,0,0,1-.64-2,3,3,0,0,1,.65-2.08,2.32,2.32,0,0,1,1.84-.73,4.13,4.13,0,0,1,.78.08,2.46,2.46,0,0,1,.6.2l-.25.69a3.28,3.28,0,0,0-.58-.18,2.51,2.51,0,0,0-.56-.07c-1.09,0-1.64.69-1.64,2.08a2.51,2.51,0,0,0,.4,1.51,1.4,1.4,0,0,0,1.18.53,3.63,3.63,0,0,0,1.37-.29v.72A3,3,0,0,1,178.88,57.54Z" fill="#fff"/><path d="M185.92,54.76a2.94,2.94,0,0,1-.66,2,2.32,2.32,0,0,1-1.82.74,2.43,2.43,0,0,1-1.27-.34,2.26,2.26,0,0,1-.86-1,3.38,3.38,0,0,1-.31-1.47,2.94,2.94,0,0,1,.66-2,2.29,2.29,0,0,1,1.82-.73,2.26,2.26,0,0,1,1.78.75A2.93,2.93,0,0,1,185.92,54.76Zm-4.08,0a2.57,2.57,0,0,0,.41,1.56,1.63,1.63,0,0,0,2.42,0,2.55,2.55,0,0,0,.41-1.56,2.51,2.51,0,0,0-.41-1.55,1.44,1.44,0,0,0-1.22-.53,1.42,1.42,0,0,0-1.2.52A2.53,2.53,0,0,0,181.84,54.76Z" fill="#fff"/><path d="M190.8,57.44V54a1.38,1.38,0,0,0-.29-1,1.24,1.24,0,0,0-.94-.32,1.54,1.54,0,0,0-1.23.45,2.29,2.29,0,0,0-.39,1.5v2.81h-.81V52.09h.66l.13.73h0a1.67,1.67,0,0,1,.7-.61,2.19,2.19,0,0,1,1-.22,1.71,1.71,0,0,1,2,2v3.49Z" fill="#fff"/><path d="M196.72,56.72h0a1.92,1.92,0,0,1-1.68.82,2,2,0,0,1-1.63-.72,3.16,3.16,0,0,1-.59-2,3.24,3.24,0,0,1,.59-2.06A2,2,0,0,1,195,52a1.94,1.94,0,0,1,1.67.79h.06l0-.39,0-.37V49.84h.81v7.6h-.66Zm-1.62.14a1.49,1.49,0,0,0,1.21-.45,2.37,2.37,0,0,0,.37-1.46v-.17a2.73,2.73,0,0,0-.38-1.63,1.44,1.44,0,0,0-1.21-.48,1.24,1.24,0,0,0-1.09.55,2.78,2.78,0,0,0-.38,1.57,2.61,2.61,0,0,0,.38,1.54A1.27,1.27,0,0,0,195.1,56.86Z" fill="#fff"/><path d="M202.3,57.44l-.16-.76h0a2.31,2.31,0,0,1-.8.68,2.4,2.4,0,0,1-1,.18,1.81,1.81,0,0,1-1.25-.41,1.52,1.52,0,0,1-.45-1.17c0-1.08.86-1.65,2.59-1.7l.91,0V53.9a1.36,1.36,0,0,0-.27-.93,1.12,1.12,0,0,0-.87-.3,3.44,3.44,0,0,0-1.51.41l-.25-.62a3.36,3.36,0,0,1,.87-.34A3.73,3.73,0,0,1,201,52a2.06,2.06,0,0,1,1.42.42,1.79,1.79,0,0,1,.46,1.37v3.65Zm-1.83-.57a1.65,1.65,0,0,0,1.19-.42,1.51,1.51,0,0,0,.43-1.16v-.48l-.81,0a2.91,2.91,0,0,0-1.4.3.91.91,0,0,0-.42.83.87.87,0,0,0,.26.67A1.14,1.14,0,0,0,200.47,56.87Z" fill="#fff"/><path d="M206.81,52a3.1,3.1,0,0,1,.64.06l-.11.75a2.68,2.68,0,0,0-.59-.07,1.43,1.43,0,0,0-1.11.52,1.93,1.93,0,0,0-.46,1.32v2.87h-.81V52.09H205l.09,1h0a2.38,2.38,0,0,1,.72-.81A1.61,1.61,0,0,1,206.81,52Z" fill="#fff"/><path d="M207.4,52.09h.87l1.17,3a11.08,11.08,0,0,1,.48,1.51h0c0-.17.13-.45.27-.85s.57-1.64,1.32-3.71h.87l-2.3,6.09a3,3,0,0,1-.8,1.28,1.69,1.69,0,0,1-1.12.38,3.63,3.63,0,0,1-.73-.08v-.65a2.77,2.77,0,0,0,.6.06,1.24,1.24,0,0,0,1.19-.94l.3-.76Z" fill="#fff"/><path d="M251.19,55.54a1.73,1.73,0,0,1-.68,1.47,3,3,0,0,1-1.86.53,4.63,4.63,0,0,1-2-.33v-.8a5.46,5.46,0,0,0,2,.4,2.05,2.05,0,0,0,1.25-.32,1,1,0,0,0,.42-.87,1.22,1.22,0,0,0-.14-.61,1.47,1.47,0,0,0-.5-.44,7.82,7.82,0,0,0-1.07-.45,3.42,3.42,0,0,1-1.42-.85,1.88,1.88,0,0,1-.43-1.27,1.58,1.58,0,0,1,.62-1.31,2.58,2.58,0,0,1,1.64-.49,4.83,4.83,0,0,1,2,.39l-.26.72a4.33,4.33,0,0,0-1.71-.37,1.69,1.69,0,0,0-1,.28,1,1,0,0,0-.37.79,1.22,1.22,0,0,0,.14.61,1.38,1.38,0,0,0,.46.43,6,6,0,0,0,1,.44,4,4,0,0,1,1.54.86A1.68,1.68,0,0,1,251.19,55.54Z" fill="#fff"/><path d="M254.59,57.54a2.43,2.43,0,0,1-1.87-.73,2.78,2.78,0,0,1-.69-2,3.13,3.13,0,0,1,.64-2.06,2.12,2.12,0,0,1,1.71-.76,2,2,0,0,1,1.59.66,2.54,2.54,0,0,1,.59,1.75v.51h-3.69a2.15,2.15,0,0,0,.48,1.43,1.62,1.62,0,0,0,1.27.49,4.3,4.3,0,0,0,1.71-.36v.72a5.48,5.48,0,0,1-.81.27A5,5,0,0,1,254.59,57.54Zm-.22-4.87a1.33,1.33,0,0,0-1,.42,2,2,0,0,0-.45,1.16h2.8a1.76,1.76,0,0,0-.34-1.17A1.18,1.18,0,0,0,254.37,52.67Z" fill="#fff"/><path d="M259.88,57.54a2.29,2.29,0,0,1-1.8-.72,3,3,0,0,1-.64-2,3,3,0,0,1,.65-2.08,2.32,2.32,0,0,1,1.84-.73,4.13,4.13,0,0,1,.78.08,2.46,2.46,0,0,1,.6.2l-.25.69a3.28,3.28,0,0,0-.58-.18,2.51,2.51,0,0,0-.56-.07c-1.09,0-1.64.69-1.64,2.08a2.51,2.51,0,0,0,.4,1.51,1.4,1.4,0,0,0,1.18.53,3.63,3.63,0,0,0,1.37-.29v.72A3,3,0,0,1,259.88,57.54Z" fill="#fff"/><path d="M266.92,54.76a2.94,2.94,0,0,1-.66,2,2.32,2.32,0,0,1-1.82.74,2.43,2.43,0,0,1-1.27-.34,2.26,2.26,0,0,1-.86-1,3.38,3.38,0,0,1-.31-1.47,2.94,2.94,0,0,1,.66-2,2.29,2.29,0,0,1,1.82-.73,2.26,2.26,0,0,1,1.78.75A2.93,2.93,0,0,1,266.92,54.76Zm-4.08,0a2.57,2.57,0,0,0,.41,1.56,1.63,1.63,0,0,0,2.42,0,2.55,2.55,0,0,0,.41-1.56,2.51,2.51,0,0,0-.41-1.55,1.44,1.44,0,0,0-1.22-.53,1.42,1.42,0,0,0-1.2.52A2.53,2.53,0,0,0,262.84,54.76Z" fill="#fff"/><path d="M271.8,57.44V54a1.38,1.38,0,0,0-.29-1,1.24,1.24,0,0,0-.94-.32,1.54,1.54,0,0,0-1.23.45,2.29,2.29,0,0,0-.39,1.5v2.81h-.81V52.09h.66l.13.73h0a1.67,1.67,0,0,1,.7-.61,2.19,2.19,0,0,1,1-.22,1.71,1.71,0,0,1,1.95,2v3.49Z" fill="#fff"/><path d="M277.72,56.72h0a1.92,1.92,0,0,1-1.68.82,2,2,0,0,1-1.63-.72,3.16,3.16,0,0,1-.59-2,3.24,3.24,0,0,1,.59-2.06A2,2,0,0,1,276,52a1.94,1.94,0,0,1,1.67.79h.06l0-.39,0-.37V49.84h.81v7.6h-.66Zm-1.62.14a1.49,1.49,0,0,0,1.21-.45,2.37,2.37,0,0,0,.37-1.46v-.17a2.73,2.73,0,0,0-.38-1.63,1.44,1.44,0,0,0-1.21-.48,1.24,1.24,0,0,0-1.09.55,2.78,2.78,0,0,0-.38,1.57,2.61,2.61,0,0,0,.38,1.54A1.27,1.27,0,0,0,276.1,56.86Z" fill="#fff"/><path d="M283.3,57.44l-.16-.76h0a2.31,2.31,0,0,1-.8.68,2.4,2.4,0,0,1-1,.18,1.81,1.81,0,0,1-1.25-.41,1.52,1.52,0,0,1-.45-1.17c0-1.08.86-1.65,2.59-1.7l.91,0V53.9a1.36,1.36,0,0,0-.27-.93,1.12,1.12,0,0,0-.87-.3,3.44,3.44,0,0,0-1.51.41l-.25-.62a3.36,3.36,0,0,1,.87-.34A3.73,3.73,0,0,1,282,52a2.06,2.06,0,0,1,1.42.42,1.79,1.79,0,0,1,.46,1.37v3.65Zm-1.83-.57a1.65,1.65,0,0,0,1.19-.42,1.51,1.51,0,0,0,.43-1.16v-.48l-.81,0a2.91,2.91,0,0,0-1.4.3.91.91,0,0,0-.42.83.87.87,0,0,0,.26.67A1.14,1.14,0,0,0,281.47,56.87Z" fill="#fff"/><path d="M287.81,52a3.1,3.1,0,0,1,.64.06l-.11.75a2.68,2.68,0,0,0-.59-.07,1.43,1.43,0,0,0-1.11.52,1.93,1.93,0,0,0-.46,1.32v2.87h-.81V52.09H286l.09,1h0a2.38,2.38,0,0,1,.72-.81A1.61,1.61,0,0,1,287.81,52Z" fill="#fff"/><path d="M288.4,52.09h.87l1.17,3a11.08,11.08,0,0,1,.48,1.51h0c0-.17.13-.45.27-.85s.57-1.64,1.32-3.71h.87l-2.3,6.09a3,3,0,0,1-.8,1.28,1.69,1.69,0,0,1-1.12.38,3.63,3.63,0,0,1-.73-.08v-.65a2.77,2.77,0,0,0,.6.06,1.24,1.24,0,0,0,1.19-.94l.3-.76Z" fill="#fff"/><path d="M25.74,17.46l-1.9-7.16h1L25.9,15q.18.74.3,1.47c.18-.77.29-1.21.32-1.33l1.37-4.83H29l1,3.62a18.36,18.36,0,0,1,.56,2.54c.09-.46.21-1,.36-1.56l1.12-4.6H33l-2,7.16h-.91L28.66,12c-.13-.45-.2-.73-.23-.84q-.11.5-.21.84L26.7,17.46Z" fill="#d65d5d"/><path d="M33.62,17.46V12.27h.79v.79a2.29,2.29,0,0,1,.56-.73,1,1,0,0,1,.57-.17,1.71,1.71,0,0,1,.9.28l-.3.81a1.35,1.35,0,0,0-.65-.19.79.79,0,0,0-.51.18.84.84,0,0,0-.33.48,3.31,3.31,0,0,0-.15,1v2.72Z" fill="#d65d5d"/><path d="M37,11.31v-1h.88v1Zm0,6.15V12.27h.88v5.19Z" fill="#d65d5d"/><path d="M41.1,16.67l.13.78a3.46,3.46,0,0,1-.66.08,1.56,1.56,0,0,1-.75-.15.94.94,0,0,1-.37-.4,3.29,3.29,0,0,1-.1-1V13H38.7v-.69h.65V11l.87-.53v1.81h.88V13h-.88v3a1.49,1.49,0,0,0,.05.48.35.35,0,0,0,.15.17.51.51,0,0,0,.3.07A3.53,3.53,0,0,0,41.1,16.67Z" fill="#d65d5d"/><path d="M45.51,15.79l.91.11a2.23,2.23,0,0,1-.8,1.24,2.39,2.39,0,0,1-1.48.44,2.35,2.35,0,0,1-1.8-.71,2.69,2.69,0,0,1-.67-2,2.86,2.86,0,0,1,.67-2,2.3,2.3,0,0,1,1.75-.72,2.21,2.21,0,0,1,1.7.7,2.84,2.84,0,0,1,.66,2v.23H42.58a2,2,0,0,0,.48,1.31,1.45,1.45,0,0,0,1.09.45A1.33,1.33,0,0,0,45,16.6,1.65,1.65,0,0,0,45.51,15.79Zm-2.88-1.42h2.89a1.74,1.74,0,0,0-.33-1,1.34,1.34,0,0,0-1.09-.51,1.41,1.41,0,0,0-1,.4A1.63,1.63,0,0,0,42.63,14.37Z" fill="#d65d5d"/><path d="M247.76,17.46V10.3h3.17a4.15,4.15,0,0,1,1.45.19,1.6,1.6,0,0,1,.8.68,2,2,0,0,1,.3,1.08,1.85,1.85,0,0,1-.49,1.29,2.47,2.47,0,0,1-1.53.66,2.35,2.35,0,0,1,.57.36,4.8,4.8,0,0,1,.79.95l1.24,2h-1.19L251.93,16q-.42-.65-.69-1a2.38,2.38,0,0,0-.48-.48,1.49,1.49,0,0,0-.43-.19,3.25,3.25,0,0,0-.53,0h-1.1v3.18Zm.94-4h2a3,3,0,0,0,1-.14,1,1,0,0,0,.56-.42,1.17,1.17,0,0,0,.19-.65,1,1,0,0,0-.37-.83,1.69,1.69,0,0,0-1.16-.33H248.7Z" fill="#55990b"/><path d="M258.4,15.79l.91.11a2.23,2.23,0,0,1-.8,1.24,2.68,2.68,0,0,1-3.29-.27,2.73,2.73,0,0,1-.66-2,2.86,2.86,0,0,1,.67-2,2.28,2.28,0,0,1,1.75-.72,2.23,2.23,0,0,1,1.7.7,2.84,2.84,0,0,1,.66,2,2.2,2.2,0,0,1,0,.23h-3.86A2,2,0,0,0,256,16.4a1.44,1.44,0,0,0,1.08.45,1.34,1.34,0,0,0,.83-.25A1.65,1.65,0,0,0,258.4,15.79Zm-2.89-1.42h2.9a1.74,1.74,0,0,0-.33-1,1.34,1.34,0,0,0-1.09-.51,1.41,1.41,0,0,0-1,.4A1.63,1.63,0,0,0,255.51,14.37Z" fill="#55990b"/><path d="M263.8,16.82a3.16,3.16,0,0,1-.94.58,2.65,2.65,0,0,1-1,.18,1.9,1.9,0,0,1-1.32-.42,1.41,1.41,0,0,1-.46-1.07,1.34,1.34,0,0,1,.18-.69,1.39,1.39,0,0,1,.45-.51,2.26,2.26,0,0,1,.63-.29,7.55,7.55,0,0,1,.79-.13,8.08,8.08,0,0,0,1.56-.3c0-.12,0-.2,0-.23a1,1,0,0,0-.25-.76,1.48,1.48,0,0,0-1-.3,1.6,1.6,0,0,0-.92.22,1.41,1.41,0,0,0-.44.77l-.85-.12a2,2,0,0,1,.38-.89,1.65,1.65,0,0,1,.78-.52,3.51,3.51,0,0,1,1.17-.18,3.18,3.18,0,0,1,1.08.15,1.53,1.53,0,0,1,.61.39,1.39,1.39,0,0,1,.28.6,5,5,0,0,1,0,.81v1.18a11.75,11.75,0,0,0,.06,1.55,2.09,2.09,0,0,0,.22.62H264A1.77,1.77,0,0,1,263.8,16.82Zm-.08-2a6.34,6.34,0,0,1-1.43.33,3.64,3.64,0,0,0-.77.17.83.83,0,0,0-.35.29.74.74,0,0,0-.12.42.73.73,0,0,0,.27.58,1.12,1.12,0,0,0,.78.24,1.77,1.77,0,0,0,.9-.23,1.34,1.34,0,0,0,.58-.6,2.07,2.07,0,0,0,.14-.88Z" fill="#55990b"/><path d="M269.34,17.46V16.8a1.61,1.61,0,0,1-1.45.78,2,2,0,0,1-1.14-.35,2.17,2.17,0,0,1-.81-.95,3.32,3.32,0,0,1-.28-1.41,3.54,3.54,0,0,1,.26-1.41,2.08,2.08,0,0,1,.77-1,2.12,2.12,0,0,1,1.16-.33,1.72,1.72,0,0,1,.83.19,1.69,1.69,0,0,1,.6.52V10.3h.87v7.16Zm-2.78-2.59a2.26,2.26,0,0,0,.42,1.49,1.26,1.26,0,0,0,1,.49,1.22,1.22,0,0,0,1-.47,2.15,2.15,0,0,0,.4-1.44,2.39,2.39,0,0,0-.41-1.56,1.26,1.26,0,0,0-1-.5,1.22,1.22,0,0,0-1,.48A2.38,2.38,0,0,0,266.56,14.87Z" fill="#55990b"/><path d="M28.63,109.56a.58.58,0,0,1-.36-.12h-.16l-.2-.18h-.17a1,1,0,0,1-.67-1.09v-.47a11.17,11.17,0,0,0-.47-3c-.58-.43-1.14-.9-1.68-1.39A19.78,19.78,0,0,1,19.63,95a30,30,0,0,1-.77-6.67,22.85,22.85,0,0,1,2.61-9.29A19.77,19.77,0,0,1,26,73.32l.11-.13a4.37,4.37,0,0,0,.68-.68,1.1,1.1,0,0,0,.21-.65.73.73,0,0,1,.21-.56.91.91,0,0,1,.51-.19.75.75,0,0,1,.61.4.54.54,0,0,1,0,.18l.94,1.72a5.23,5.23,0,0,0,.64.77,26.84,26.84,0,0,1,2.42,2.69,23.43,23.43,0,0,1,3.77,7.5,18.46,18.46,0,0,1,.8,5.16,18,18,0,0,1-5.35,13.39,15.71,15.71,0,0,1-1.87,1.59,1.76,1.76,0,0,0-.31.75v.21a3.42,3.42,0,0,0,0,.64v2.49C29.42,109.26,29.09,109.56,28.63,109.56Z" fill="#c2bfbf"/><path d="M27.74,71.8h0l1,1.86a5.18,5.18,0,0,0,.75.93,28.58,28.58,0,0,1,2.4,2.76,22.91,22.91,0,0,1,3.65,7.29,17.55,17.55,0,0,1,.77,4.93,17.35,17.35,0,0,1-5.14,12.88A15.24,15.24,0,0,1,29.29,104h0a2.82,2.82,0,0,0-.51,1.24h0a4.22,4.22,0,0,0-.08.94v2.52c0,.09,0,.18-.14.18a1.87,1.87,0,0,0-.51-.2c-.41-.17-.39,0-.39-.54v-.41a12.08,12.08,0,0,0-.53-3.27.28.28,0,0,1,0-.13h0c-.63-.48-1.24-1-1.82-1.53a19.45,19.45,0,0,1-5.12-8,30,30,0,0,1-.69-6.34A21.94,21.94,0,0,1,22,79.39a19.49,19.49,0,0,1,4.38-5.55,5,5,0,0,0,.9-.88,1.85,1.85,0,0,0,.35-1.16h.08m0-1.38a1.34,1.34,0,0,0-.95.43,1.48,1.48,0,0,0-.42,1.09.71.71,0,0,1-.11.25,5.08,5.08,0,0,1-.54.5l-.11.1A20.7,20.7,0,0,0,21,78.74a23.58,23.58,0,0,0-2.77,9.6,30.51,30.51,0,0,0,.8,6.93,20.5,20.5,0,0,0,5.55,8.56c.47.45,1,.89,1.57,1.39a11.24,11.24,0,0,1,.37,2.58v.36A1.65,1.65,0,0,0,27.6,110h.13l.26.09h-.08a1.23,1.23,0,0,0,.65.19A1.49,1.49,0,0,0,30,108.67v-2.6a2,2,0,0,1,0-.49v-.23a1,1,0,0,1,.13-.34,15.78,15.78,0,0,0,2-1.57,18.82,18.82,0,0,0,5.55-13.87,19.46,19.46,0,0,0-.84-5.35,24,24,0,0,0-3.88-7.74,27.11,27.11,0,0,0-2.47-2.78,4.32,4.32,0,0,1-.54-.66L29,71.4a2,2,0,0,0-.08-.22,1.39,1.39,0,0,0-1.18-.76Z" fill="#fff"/><path d="M27.8,71.9l1,1.86a5.66,5.66,0,0,0,.75.93,25.83,25.83,0,0,1,2.35,2.66,22.91,22.91,0,0,1,3.65,7.29,17.55,17.55,0,0,1,.77,4.93,17.35,17.35,0,0,1-5.14,12.88A15.24,15.24,0,0,1,29.29,104c-.34,0-.51-.26-.65-.5a4.34,4.34,0,0,1-.51-1.38,7.09,7.09,0,0,1-.17-1.84V100S27.67,72.05,27.8,71.9Z" fill="#008b2a"/><path d="M27.8,71.8c0-.08-.09,0-.13,0a1.77,1.77,0,0,1-.35,1.11,5.06,5.06,0,0,1-.9.89A19.49,19.49,0,0,0,22,79.35a22,22,0,0,0-2.54,9.1,29.11,29.11,0,0,0,.74,6.38,19.32,19.32,0,0,0,5.11,8c.58.54,1.19,1.06,1.82,1.54.18,0,.21-.17.25-.28a5.32,5.32,0,0,0,.18-.79l.42-3Z" fill="#00ae42"/><path d="M109.63,109.56a.58.58,0,0,1-.36-.12h-.16l-.2-.18h-.17a1,1,0,0,1-.67-1.09v-.47a11.17,11.17,0,0,0-.47-3c-.58-.43-1.14-.9-1.68-1.39A19.78,19.78,0,0,1,100.63,95a30,30,0,0,1-.77-6.67,22.85,22.85,0,0,1,2.61-9.29A19.77,19.77,0,0,1,107,73.32l.11-.13a4.37,4.37,0,0,0,.68-.68,1.1,1.1,0,0,0,.21-.65.73.73,0,0,1,.21-.56.91.91,0,0,1,.51-.19.75.75,0,0,1,.61.4.54.54,0,0,1,0,.18l.94,1.72a5.23,5.23,0,0,0,.64.77,26.84,26.84,0,0,1,2.42,2.69,23.43,23.43,0,0,1,3.77,7.5,18.46,18.46,0,0,1,.8,5.16,18,18,0,0,1-5.35,13.39,15.71,15.71,0,0,1-1.87,1.59,1.76,1.76,0,0,0-.31.75v.21a3.42,3.42,0,0,0,0,.64v2.49C110.42,109.26,110.09,109.56,109.63,109.56Z" fill="#c2bfbf"/><path d="M108.74,71.8h0l1,1.86a5.18,5.18,0,0,0,.75.93,28.58,28.58,0,0,1,2.4,2.76,22.91,22.91,0,0,1,3.65,7.29,17.55,17.55,0,0,1,.77,4.93,17.35,17.35,0,0,1-5.14,12.88,15.24,15.24,0,0,1-1.88,1.52h0a2.82,2.82,0,0,0-.51,1.24h0a4.22,4.22,0,0,0-.08.94v2.52c0,.09,0,.18-.14.18a1.87,1.87,0,0,0-.51-.2c-.41-.17-.39,0-.39-.54v-.41a12.08,12.08,0,0,0-.53-3.27.28.28,0,0,1,0-.13h0c-.63-.48-1.24-1-1.82-1.53a19.45,19.45,0,0,1-5.12-8,30,30,0,0,1-.69-6.34A21.94,21.94,0,0,1,103,79.39a19.49,19.49,0,0,1,4.38-5.55,5,5,0,0,0,.9-.88,1.85,1.85,0,0,0,.35-1.16h.08m0-1.38a1.34,1.34,0,0,0-1,.43,1.48,1.48,0,0,0-.42,1.09.71.71,0,0,1-.11.25,5.08,5.08,0,0,1-.54.5l-.11.1A20.7,20.7,0,0,0,102,78.74a23.58,23.58,0,0,0-2.77,9.6,30.51,30.51,0,0,0,.8,6.93,20.5,20.5,0,0,0,5.55,8.56c.47.45,1,.89,1.57,1.39a11.24,11.24,0,0,1,.37,2.58v.36a1.65,1.65,0,0,0,1.11,1.8h.13l.26.09h-.08a1.23,1.23,0,0,0,.65.19,1.49,1.49,0,0,0,1.39-1.57v-2.6a2,2,0,0,1,0-.49v-.23a1,1,0,0,1,.13-.34,15.78,15.78,0,0,0,2-1.57,18.82,18.82,0,0,0,5.55-13.87,19.46,19.46,0,0,0-.84-5.35,24,24,0,0,0-3.88-7.74,27.11,27.11,0,0,0-2.47-2.78,4.32,4.32,0,0,1-.54-.66L110,71.4a2,2,0,0,0-.08-.22,1.39,1.39,0,0,0-1.18-.76Z" fill="#fff"/><path d="M108.8,71.9l1,1.86a5.66,5.66,0,0,0,.75.93,25.83,25.83,0,0,1,2.35,2.66,22.91,22.91,0,0,1,3.65,7.29,17.55,17.55,0,0,1,.77,4.93,17.35,17.35,0,0,1-5.14,12.88,15.24,15.24,0,0,1-1.88,1.52c-.34,0-.51-.26-.65-.5a4.34,4.34,0,0,1-.51-1.38,7.09,7.09,0,0,1-.17-1.84V100S108.67,72.05,108.8,71.9Z" fill="#008b2a"/><path d="M108.8,71.8c0-.08-.09,0-.13,0a1.77,1.77,0,0,1-.35,1.11,5.06,5.06,0,0,1-.9.89A19.49,19.49,0,0,0,103,79.35a22,22,0,0,0-2.54,9.1,29.11,29.11,0,0,0,.74,6.38,19.32,19.32,0,0,0,5.11,8c.58.54,1.19,1.06,1.82,1.54.18,0,.21-.17.25-.28a5.32,5.32,0,0,0,.18-.79l.42-3Z" fill="#00ae42"/><path d="M189.93,109.56a.58.58,0,0,1-.36-.12h-.15l-.21-.18H189a1,1,0,0,1-.66-1.09v-.47a11.17,11.17,0,0,0-.47-3,18.78,18.78,0,0,1-1.68-1.39,19.8,19.8,0,0,1-5.3-8.32,30,30,0,0,1-.76-6.67,22.69,22.69,0,0,1,2.6-9.29,19.94,19.94,0,0,1,4.55-5.73l.11-.13a4,4,0,0,0,.68-.68,1.1,1.1,0,0,0,.21-.65.73.73,0,0,1,.21-.56,1,1,0,0,1,.51-.19.75.75,0,0,1,.61.4.54.54,0,0,1,0,.18l.95,1.72a4.67,4.67,0,0,0,.64.77,26.74,26.74,0,0,1,2.41,2.69,23.23,23.23,0,0,1,3.77,7.5,18.84,18.84,0,0,1,.81,5.16,18.07,18.07,0,0,1-5.36,13.39,15.71,15.71,0,0,1-1.87,1.59,1.9,1.9,0,0,0-.31.75v.21a3.42,3.42,0,0,0,0,.64v2.49C190.72,109.26,190.39,109.56,189.93,109.56Z" fill="#c2bfbf"/><path d="M189,71.8h0l1,1.86a5.66,5.66,0,0,0,.75.93,26.07,26.07,0,0,1,2.4,2.76,22.7,22.7,0,0,1,3.65,7.29,17.94,17.94,0,0,1,.78,4.93,17.4,17.4,0,0,1-5.15,12.88A15.14,15.14,0,0,1,190.6,104h0a2.84,2.84,0,0,0-.52,1.24h0a5.86,5.86,0,0,0-.08.94v2.52c0,.09,0,.18-.14.18a1.87,1.87,0,0,0-.51-.2c-.4-.17-.39,0-.39-.54v-.41a11.71,11.71,0,0,0-.53-3.27v-.13h0a22.16,22.16,0,0,1-1.81-1.53,19.24,19.24,0,0,1-5.12-8,30,30,0,0,1-.7-6.34,22.09,22.09,0,0,1,2.54-9.06,19.52,19.52,0,0,1,4.39-5.55,5.76,5.76,0,0,0,.9-.88A1.84,1.84,0,0,0,189,71.8h.09m0-1.38a1.34,1.34,0,0,0-1,.43,1.52,1.52,0,0,0-.42,1.09.47.47,0,0,1-.11.25,3.68,3.68,0,0,1-.54.5l-.11.1a20.87,20.87,0,0,0-4.65,5.95,23.58,23.58,0,0,0-2.77,9.6,30.51,30.51,0,0,0,.8,6.93,20.59,20.59,0,0,0,5.55,8.56c.47.45,1,.89,1.57,1.39a11.25,11.25,0,0,1,.38,2.58v.36a1.64,1.64,0,0,0,1.1,1.8H189l.26.09h-.08a1.23,1.23,0,0,0,.65.19,1.48,1.48,0,0,0,1.39-1.57v-2.6a4,4,0,0,1,0-.49v-.23a.85.85,0,0,1,.14-.34,15.69,15.69,0,0,0,2-1.57,18.74,18.74,0,0,0,5.55-13.87,19.08,19.08,0,0,0-.83-5.35,24,24,0,0,0-3.89-7.74,27.11,27.11,0,0,0-2.47-2.78,4.32,4.32,0,0,1-.54-.66l-.88-1.64a1,1,0,0,0-.09-.22,1.36,1.36,0,0,0-1.18-.76Z" fill="#fff"/><path d="M189.1,71.9l1,1.86a4.78,4.78,0,0,0,.75.93,25.74,25.74,0,0,1,2.34,2.66,22.7,22.7,0,0,1,3.65,7.29,17.94,17.94,0,0,1,.78,4.93,17.36,17.36,0,0,1-5.15,12.88A15.14,15.14,0,0,1,190.6,104a.75.75,0,0,1-.65-.5,4.14,4.14,0,0,1-.52-1.38,7.09,7.09,0,0,1-.16-1.84V100S189,72.05,189.1,71.9Z" fill="#008b2a"/><path d="M189.1,71.8c0-.08-.08,0-.13,0a1.82,1.82,0,0,1-.34,1.11,5.82,5.82,0,0,1-.9.89,19.52,19.52,0,0,0-4.39,5.55,22.11,22.11,0,0,0-2.54,9.1,29.73,29.73,0,0,0,.74,6.38,19.45,19.45,0,0,0,5.12,8c.58.54,1.18,1.06,1.81,1.54.19,0,.21-.17.25-.28a5.32,5.32,0,0,0,.18-.79l.42-3Z" fill="#00ae42"/><path d="M271.07,109.56a.6.6,0,0,1-.36-.12h-.15l-.21-.18h-.16a1,1,0,0,1-.67-1.09v-.47a11.17,11.17,0,0,0-.47-3c-.58-.43-1.14-.9-1.68-1.39a19.8,19.8,0,0,1-5.3-8.32,30,30,0,0,1-.76-6.67,22.55,22.55,0,0,1,2.61-9.29,19.74,19.74,0,0,1,4.54-5.73l.12-.13a4.37,4.37,0,0,0,.68-.68,1.16,1.16,0,0,0,.2-.65.77.77,0,0,1,.21-.56,1,1,0,0,1,.52-.19.76.76,0,0,1,.61.4v.18l.94,1.72a5.23,5.23,0,0,0,.64.77,26.74,26.74,0,0,1,2.41,2.69,23.23,23.23,0,0,1,3.77,7.5,18.84,18.84,0,0,1,.81,5.16A18.07,18.07,0,0,1,274,102.92a15,15,0,0,1-1.87,1.59,1.75,1.75,0,0,0-.3.75v.21a3.42,3.42,0,0,0,0,.64v2.49C271.86,109.26,271.53,109.56,271.07,109.56Z" fill="#c2bfbf"/><path d="M270.19,71.8h0l1,1.86a5.66,5.66,0,0,0,.75.93,26.07,26.07,0,0,1,2.4,2.76A22.7,22.7,0,0,1,278,84.64a17.94,17.94,0,0,1,.78,4.93,17.36,17.36,0,0,1-5.15,12.88,15.14,15.14,0,0,1-1.87,1.52h0a2.71,2.71,0,0,0-.51,1.24h0a4.91,4.91,0,0,0-.09.94v2.52c0,.09,0,.18-.14.18a1.87,1.87,0,0,0-.51-.2c-.4-.17-.39,0-.39-.54v-.41a11.71,11.71,0,0,0-.53-3.27v-.13h0c-.63-.48-1.23-1-1.81-1.53a19.45,19.45,0,0,1-5.12-8,29.39,29.39,0,0,1-.69-6.34,22.08,22.08,0,0,1,2.53-9.06,19.52,19.52,0,0,1,4.39-5.55,5.76,5.76,0,0,0,.9-.88,1.91,1.91,0,0,0,.35-1.16h.08m0-1.38a1.36,1.36,0,0,0-1,.43,1.47,1.47,0,0,0-.41,1.09.58.58,0,0,1-.12.25,3.68,3.68,0,0,1-.54.5l-.11.1a20.66,20.66,0,0,0-4.64,5.95,23.6,23.6,0,0,0-2.78,9.6,30,30,0,0,0,.81,6.93,20.57,20.57,0,0,0,5.54,8.56c.48.45,1,.89,1.57,1.39a11.25,11.25,0,0,1,.38,2.58v.36a1.64,1.64,0,0,0,1.11,1.8h.12l.26.09h-.08a1.26,1.26,0,0,0,.65.19,1.48,1.48,0,0,0,1.39-1.57v-2.6a4,4,0,0,1,0-.49v-.23a1,1,0,0,1,.14-.34,15.69,15.69,0,0,0,2-1.57,18.74,18.74,0,0,0,5.55-13.87,19.08,19.08,0,0,0-.83-5.35,24.18,24.18,0,0,0-3.88-7.74,28.35,28.35,0,0,0-2.47-2.78,3.39,3.39,0,0,1-.54-.66l-.89-1.64a1,1,0,0,0-.09-.22,1.36,1.36,0,0,0-1.17-.76Z" fill="#fff"/><path d="M270.24,71.9l1,1.86a5.18,5.18,0,0,0,.75.93,25.74,25.74,0,0,1,2.34,2.66A22.7,22.7,0,0,1,278,84.64a17.94,17.94,0,0,1,.78,4.93,17.36,17.36,0,0,1-5.15,12.88,15.14,15.14,0,0,1-1.87,1.52c-.35,0-.51-.26-.65-.5a4.14,4.14,0,0,1-.52-1.38,7.09,7.09,0,0,1-.16-1.84V100S270.12,72.05,270.24,71.9Z" fill="#008b2a"/><path d="M270.24,71.8c0-.08-.08,0-.12,0a1.9,1.9,0,0,1-.35,1.11,5.82,5.82,0,0,1-.9.89,19.52,19.52,0,0,0-4.39,5.55,22,22,0,0,0-2.53,9.1,29.72,29.72,0,0,0,.73,6.38,19.45,19.45,0,0,0,5.12,8,22.42,22.42,0,0,0,1.82,1.54c.18,0,.2-.17.25-.28a5.32,5.32,0,0,0,.18-.79l.41-3Z" fill="#00ae42"/><path d="M27.28,103.71a2.51,2.51,0,0,1,.45-1.11,1.22,1.22,0,0,1-.51-.47,3.24,3.24,0,0,1-.27-.6,10.4,10.4,0,0,1-.39-2.35v-.47a2.23,2.23,0,0,0-.11.78,19,19,0,0,1-.34,2.5,2.12,2.12,0,0,1-.3,1,.24.24,0,0,0,0,.12,11,11,0,0,1,.47,3v.36c0,.44,0,.35.35.49a1.58,1.58,0,0,1,.47.18c.11,0,.12-.08.12-.16v-2.31a4.08,4.08,0,0,1,.08-.85Z" fill="#c2bfbf"/></svg>