<svg id="bb5f73a2-875e-4930-a906-3652358740ff" data-name="adf30c05-8f6d-40c5-87ec-d76e2cbd40b4" xmlns="http://www.w3.org/2000/svg" width="283" height="160" viewBox="0 0 283 160"><path d="M13.56,49.89a1.93,1.93,0,0,1-.7,1.59,3.13,3.13,0,0,1-2,.55h-.79v2.68H9.27v-6.8H11C12.71,47.91,13.56,48.58,13.56,49.89Zm-3.5,1.47h.7A2.68,2.68,0,0,0,12.28,51a1.27,1.27,0,0,0,.46-1.09,1.14,1.14,0,0,0-.41-1,2.23,2.23,0,0,0-1.4-.35h-.87Z" fill="#fff"/><path d="M17,49.53a3.08,3.08,0,0,1,.61.06l-.11.71a3.6,3.6,0,0,0-.55-.07,1.36,1.36,0,0,0-1.06.5A1.86,1.86,0,0,0,15.45,52v2.73h-.78v-5.1h.63l.1,1h0a2.16,2.16,0,0,1,.67-.77A1.51,1.51,0,0,1,17,49.53Z" fill="#fff"/><path d="M18.29,48.23a.52.52,0,0,1,.13-.39.49.49,0,0,1,.64,0,.6.6,0,0,1,0,.78.48.48,0,0,1-.31.13.46.46,0,0,1-.33-.13A.53.53,0,0,1,18.29,48.23Zm.84,6.48h-.77V49.62h.77Z" fill="#fff"/><path d="M27,54.71V51.43a1.3,1.3,0,0,0-.27-1,1,1,0,0,0-.8-.3,1.28,1.28,0,0,0-1.06.41,2,2,0,0,0-.34,1.27v2.86h-.78V51.43a1.36,1.36,0,0,0-.25-1,1,1,0,0,0-.81-.3,1.24,1.24,0,0,0-1.06.44A2.26,2.26,0,0,0,21.34,52v2.68h-.77V49.62h.62l.13.69h0a1.42,1.42,0,0,1,.61-.58,1.94,1.94,0,0,1,.89-.21,1.5,1.5,0,0,1,1.55.87h0a1.76,1.76,0,0,1,.66-.64,2.08,2.08,0,0,1,.95-.23,1.75,1.75,0,0,1,1.29.45,2,2,0,0,1,.54,1.46v3.33Z" fill="#fff"/><path d="M32.32,54.71,32.17,54h0a2.27,2.27,0,0,1-.76.65,2.35,2.35,0,0,1-.95.17,1.74,1.74,0,0,1-1.18-.39,1.47,1.47,0,0,1-.46-1.08q0-1.55,2.46-1.62h.86v-.38a1.29,1.29,0,0,0-.25-.89,1.06,1.06,0,0,0-.83-.28,3.25,3.25,0,0,0-1.43.39L29.41,50a3.5,3.5,0,0,1,1.7-.44,2,2,0,0,1,1.35.4,1.68,1.68,0,0,1,.43,1.3v3.48Zm-1.73-.54a1.57,1.57,0,0,0,1.13-.4,1.46,1.46,0,0,0,.4-1.11v-.45h-.76a2.73,2.73,0,0,0-1.32.28.87.87,0,0,0-.41.79.78.78,0,0,0,.25.64A1.08,1.08,0,0,0,30.59,54.17Z" fill="#fff"/><path d="M36.6,49.53a3.08,3.08,0,0,1,.61.06l-.1.71a3.73,3.73,0,0,0-.56-.07,1.36,1.36,0,0,0-1.06.5A1.87,1.87,0,0,0,35.1,52v2.73h-.77V49.62H35l.09,1h0a2.19,2.19,0,0,1,.68-.77A1.46,1.46,0,0,1,36.6,49.53Z" fill="#fff"/><path d="M37.16,49.62H38l1.11,2.85a10.48,10.48,0,0,1,.46,1.44h0a3.85,3.85,0,0,1,.25-.81c.13-.38.54-1.56,1.25-3.53h.83l-2.18,5.8a3,3,0,0,1-.76,1.22,1.54,1.54,0,0,1-1.06.36,3.27,3.27,0,0,1-.7-.08v-.62a2.76,2.76,0,0,0,.57.06,1.16,1.16,0,0,0,1.18-.85l.28-.72Z" fill="#fff"/><path d="M80.24,60.16h46.18A2.86,2.86,0,0,1,129.27,63v46.35a2.86,2.86,0,0,1-2.85,2.86H80.24a2.85,2.85,0,0,1-2.84-2.86V63A2.85,2.85,0,0,1,80.24,60.16Z" fill="#fff"/><path d="M126.41,112.78H80.24a3.4,3.4,0,0,1-3.39-3.41h0V63a3.4,3.4,0,0,1,3.39-3.41h46.17a3.42,3.42,0,0,1,3.4,3.41v46.35A3.41,3.41,0,0,1,126.41,112.78ZM80.24,60.7A2.31,2.31,0,0,0,77.94,63v46.35a2.31,2.31,0,0,0,2.3,2.31h46.17a2.32,2.32,0,0,0,2.31-2.31V63a2.32,2.32,0,0,0-2.31-2.32Z" fill="#ffb70a"/><path d="M156.43,60.2H202.6a2.85,2.85,0,0,1,2.85,2.86v46.35a2.85,2.85,0,0,1-2.85,2.86H156.43a2.86,2.86,0,0,1-2.85-2.86V63.06A2.86,2.86,0,0,1,156.43,60.2Z" fill="#fff"/><path d="M202.59,112.81H156.43a3.41,3.41,0,0,1-3.4-3.41V63.06a3.41,3.41,0,0,1,3.4-3.41h46.16a3.4,3.4,0,0,1,3.4,3.41h0V109.4a3.4,3.4,0,0,1-3.4,3.41ZM156.43,60.74a2.32,2.32,0,0,0-2.31,2.32V109.4a2.32,2.32,0,0,0,2.31,2.32h46.16a2.31,2.31,0,0,0,2.31-2.32V63.06a2.31,2.31,0,0,0-2.31-2.32Z" fill="#ffb70a"/><g opacity="0.5"><path d="M279.61,112.78h-3.28v-1.1h3.25Zm-6,0h-3.24v-1.1h3.26Zm-6,0h-3.26v-1.1h3.26Zm-6,0h-3.25v-1.1h3.25Zm-6,0h-3.24v-1.1h3.24Zm-6,0h-3.24v-1.1h3.24Zm-5.95,0h-3.25v-1.1h3.24Zm-6,0h-3.25v-1.1h3.25Zm-6.16-.46a3.42,3.42,0,0,1-1.7-2.95v-.26h1.09v.26a2.37,2.37,0,0,0,1.15,2Zm50.64-.95-.89-.63a2.33,2.33,0,0,0,.42-1.33V107.9H283v1.51a3.35,3.35,0,0,1-.62,1.91Zm-51.23-4.94H230v-3.26h1.09ZM283,105.17h-1.09v-3.25H283Zm-51.87-4.76H230V97.15h1.09ZM283,99.15h-1.09V95.9H283Zm-51.87-4.76H230V91.16h1.09ZM283,93.13h-1.09V89.91H283Zm-51.87-4.76H230V85.18h1.09ZM283,87.12h-1.09v-3.2H283Zm-51.87-4.77H230V79.2h1.09ZM283,81.1h-1.09V77.94H283Zm-51.87-4.77H230V73.22h1.09ZM283,75.25h-1.09V72H283Zm-51.87-4.77H230V67.24h1.09ZM283,69.23h-1.09V66H283Zm-51.87-4.77H230V63a3.46,3.46,0,0,1,.62-2l.89.63a2.36,2.36,0,0,0-.42,1.34ZM283,63.21h-1.09V63a2.35,2.35,0,0,0-1.18-2l.54-1A3.41,3.41,0,0,1,283,63Zm-4.64-2.56h-3.21v-1h3.25Zm-5.95,0h-3.25v-1h3.25Zm-5.95,0h-3.26v-1h3.25Zm-6,0h-3.26v-1h3.26Zm-6,0h-3.26v-1h3.26Zm-6,0h-3.25v-1h3.26Zm-6,0h-3.24v-1h3.24Zm-6,0h-3.25v-1h3.25Z" fill="#ffb70a"/></g><rect x="179.41" y="124.06" width="1.09" height="20.28" fill="#ffb70a"/><rect x="103.57" y="120.78" width="1.09" height="23.57" fill="#ffb70a"/><polygon points="179.96 120.59 177.5 125.71 182.41 125.71 179.96 120.59" fill="#ffb70a"/><rect x="26.66" y="124.06" width="1.09" height="20.28" fill="#ffb70a"/><polygon points="27.21 120.59 24.75 125.71 29.67 125.71 27.21 120.59" fill="#ffb70a"/><polygon points="257.26 120.59 254.8 125.71 259.72 125.71 257.26 120.59" fill="#ffb70a" opacity="0.5" style="isolation:isolate"/><rect x="103.57" y="144.34" width="76.98" height="1.1" fill="#ffb70a"/><rect x="26.73" y="144.34" width="76.98" height="1.1" fill="#ffb70a"/><g opacity="0.5"><rect x="256.44" y="126.81" width="1.09" height="1.65" fill="#ffb70a"/><path d="M257.54,140.5h-1.1v-3.28h1.1Zm0-6h-1.1v-3.28h1.1Z" fill="#ffb70a"/><polygon points="257.54 145.44 255.35 145.44 255.35 144.34 256.44 144.34 256.44 143.25 257.54 143.25 257.54 145.44" fill="#ffb70a"/><path d="M252.52,145.44h-3.41v-1.1h3.41Zm-6.25,0h-3.39v-1.1h3.4Zm-6.24,0h-3.4v-1.1H240Zm-6.25,0h-3.41v-1.1h3.41Zm-6.24,0h-3.41v-1.1h3.41Zm-6.25,0h-3.4v-1.1h3.4Zm-6.24,0h-3.4v-1.1h3.4Zm-6.24,0H205.4v-1.1h3.41Zm-6.24,0h-3.41v-1.1h3.41Zm-6.25,0h-3.4v-1.1h3.4Zm-6.25,0h-3.41v-1.1h3.41Z" fill="#ffb70a"/><rect x="182.2" y="144.34" width="1.64" height="1.1" fill="#ffb70a"/></g><path d="M117.44,158.05v-6.82h3a4,4,0,0,1,1.38.18,1.46,1.46,0,0,1,.75.66,1.91,1.91,0,0,1,.29,1,1.74,1.74,0,0,1-.52,1.22,2.28,2.28,0,0,1-1.44.63,2.62,2.62,0,0,1,.54.35,4.66,4.66,0,0,1,.75.9l1.17,1.91h-1.12l-1-1.42c-.25-.41-.47-.73-.64-1a1.92,1.92,0,0,0-.46-.44,1,1,0,0,0-.4-.18,2.18,2.18,0,0,0-.51,0h-1v3Zm.94-3.81h1.9a2.8,2.8,0,0,0,1-.13,1,1,0,0,0,.53-.41,1.12,1.12,0,0,0,.18-.62,1,1,0,0,0-.35-.79,1.67,1.67,0,0,0-1.1-.31h-2.15Z" fill="#e88d0b"/><path d="M127.54,156.46l.86.1a2.12,2.12,0,0,1-.76,1.18,2.55,2.55,0,0,1-3.12-.25,2.62,2.62,0,0,1-.62-1.9,2.78,2.78,0,0,1,.63-1.91,2.21,2.21,0,0,1,1.66-.68,2.08,2.08,0,0,1,1.61.67,2.69,2.69,0,0,1,.63,1.9v.22h-3.67a1.91,1.91,0,0,0,.46,1.25,1.38,1.38,0,0,0,1,.43,1.32,1.32,0,0,0,.79-.24A1.72,1.72,0,0,0,127.54,156.46Zm-2.74-1.36h2.75a1.79,1.79,0,0,0-.31-.95,1.37,1.37,0,0,0-2-.1A1.55,1.55,0,0,0,124.8,155.1Z" fill="#e88d0b"/><path d="M129.45,159.94V153.1h.76v.65a1.82,1.82,0,0,1,.6-.57,1.71,1.71,0,0,1,.83-.18,1.92,1.92,0,0,1,1.11.32,2,2,0,0,1,.72,1,3.6,3.6,0,0,1,0,2.66,2,2,0,0,1-.79.95,2.11,2.11,0,0,1-1.09.33,1.63,1.63,0,0,1-.75-.18,1.67,1.67,0,0,1-.54-.45V160Zm.76-4.33a2.19,2.19,0,0,0,.37,1.41,1.17,1.17,0,0,0,.95.45,1.25,1.25,0,0,0,.95-.47,2.2,2.2,0,0,0,.39-1.47,2.16,2.16,0,0,0-.38-1.41,1.17,1.17,0,0,0-1-.46,1.21,1.21,0,0,0-.95.49A2.22,2.22,0,0,0,130.21,155.61Z" fill="#e88d0b"/><path d="M134.72,158.05v-6.82h.84v6.82Z" fill="#e88d0b"/><path d="M136.84,152.19v-.95h.83v.95Zm0,5.86v-5h.83v5Z" fill="#e88d0b"/><path d="M142.15,156.21l.82.1a2.11,2.11,0,0,1-.69,1.34,2,2,0,0,1-1.35.48,2.15,2.15,0,0,1-1.64-.66,2.75,2.75,0,0,1-.6-1.91,3.52,3.52,0,0,1,.26-1.4,1.85,1.85,0,0,1,.8-.9,2.44,2.44,0,0,1,1.18-.3,2.06,2.06,0,0,1,1.31.4,1.92,1.92,0,0,1,.65,1.16l-.81.13a1.42,1.42,0,0,0-.41-.76,1.1,1.1,0,0,0-.72-.24,1.23,1.23,0,0,0-1,.45,2.16,2.16,0,0,0-.4,1.43,2.18,2.18,0,0,0,.38,1.45,1.23,1.23,0,0,0,1,.45,1.15,1.15,0,0,0,.81-.3A1.51,1.51,0,0,0,142.15,156.21Z" fill="#e88d0b"/><path d="M146.89,157.44a3.27,3.27,0,0,1-.89.56,2.53,2.53,0,0,1-.95.16,1.75,1.75,0,0,1-1.24-.4,1.32,1.32,0,0,1-.44-1,1.34,1.34,0,0,1,.17-.65,1.42,1.42,0,0,1,.42-.49,2.25,2.25,0,0,1,.61-.28c.24,0,.49-.09.74-.12a7,7,0,0,0,1.49-.29v-.22a1,1,0,0,0-.24-.72,1.41,1.41,0,0,0-.95-.29,1.65,1.65,0,0,0-.87.21,1.33,1.33,0,0,0-.41.74l-.81-.12a2,2,0,0,1,.36-.84,1.58,1.58,0,0,1,.74-.5,3.28,3.28,0,0,1,1.12-.17,3.22,3.22,0,0,1,1,.14,1.5,1.5,0,0,1,.58.38,1.35,1.35,0,0,1,.26.57,5,5,0,0,1,0,.77V156a10.46,10.46,0,0,0,.05,1.48,2.19,2.19,0,0,0,.21.59h-.81A1.84,1.84,0,0,1,146.89,157.44Zm-.06-1.91a5.81,5.81,0,0,1-1.37.32,3.08,3.08,0,0,0-.73.16.72.72,0,0,0-.32.28.76.76,0,0,0-.13.4.74.74,0,0,0,.26.55,1.14,1.14,0,0,0,.74.23,1.78,1.78,0,0,0,.85-.21,1.23,1.23,0,0,0,.55-.58,2,2,0,0,0,.15-.84Z" fill="#e88d0b"/><path d="M150.78,157.29l.12.75a3.38,3.38,0,0,1-.63.07,1.32,1.32,0,0,1-.7-.14.76.76,0,0,1-.35-.38,2.78,2.78,0,0,1-.11-1v-2.86h-.61v-.66h.61V151.9l.83-.5v1.72h.84v.66h-.88v2.86a1.35,1.35,0,0,0,0,.45.39.39,0,0,0,.14.17.49.49,0,0,0,.29.06A1.35,1.35,0,0,0,150.78,157.29Z" fill="#e88d0b"/><path d="M151.6,152.19v-.95h.83v.95Zm0,5.86v-5h.83v5Z" fill="#e88d0b"/><path d="M153.39,155.58a2.59,2.59,0,0,1,.76-2,2.29,2.29,0,0,1,1.55-.54,2.22,2.22,0,0,1,1.66.67,2.51,2.51,0,0,1,.64,1.83,3.25,3.25,0,0,1-.28,1.51,2,2,0,0,1-.84.85,2.44,2.44,0,0,1-1.18.3,2.22,2.22,0,0,1-1.67-.67A2.65,2.65,0,0,1,153.39,155.58Zm.86,0a2.12,2.12,0,0,0,.41,1.42,1.39,1.39,0,0,0,2,.11l.11-.11a2.15,2.15,0,0,0,.41-1.45,2,2,0,0,0-.41-1.39,1.31,1.31,0,0,0-1-.48,1.35,1.35,0,0,0-1,.48,2.12,2.12,0,0,0-.41,1.42Z" fill="#e88d0b"/><path d="M159,158.05v-5h.75v.71a1.77,1.77,0,0,1,1.57-.81,2.08,2.08,0,0,1,.81.15,1.32,1.32,0,0,1,.56.43,1.61,1.61,0,0,1,.26.62,3.67,3.67,0,0,1,0,.81v3h-.83v-3a2.24,2.24,0,0,0-.1-.77.74.74,0,0,0-.34-.4,1.08,1.08,0,0,0-.58-.16,1.34,1.34,0,0,0-1,.35,1.65,1.65,0,0,0-.38,1.28v2.7Z" fill="#e88d0b"/><ellipse cx="222.05" cy="86.23" rx="1.37" ry="1.37" fill="#5e6981"/><ellipse cx="217.68" cy="86.23" rx="1.37" ry="1.37" fill="#5e6981"/><ellipse cx="213.31" cy="86.23" rx="1.37" ry="1.37" fill="#5e6981"/><path d="M3.4,60.16H49.57A2.86,2.86,0,0,1,52.42,63v46.35a2.86,2.86,0,0,1-2.85,2.86H3.4a2.85,2.85,0,0,1-2.85-2.86V63A2.85,2.85,0,0,1,3.4,60.16Z" fill="#fff"/><path d="M49.56,112.78H3.4A3.41,3.41,0,0,1,0,109.37H0V63a3.41,3.41,0,0,1,3.4-3.41H49.56A3.41,3.41,0,0,1,53,63v46.35A3.41,3.41,0,0,1,49.56,112.78ZM3.4,60.7A2.31,2.31,0,0,0,1.09,63v46.35a2.31,2.31,0,0,0,2.31,2.31H49.56a2.31,2.31,0,0,0,2.31-2.31h0V63a2.31,2.31,0,0,0-2.31-2.32H3.4Z" fill="#ffb70a"/><rect x="22.5" y="19.92" width="153.31" height="1.1" fill="#e87474"/><rect x="99.16" width="1.09" height="20.28" fill="#e87474"/><rect x="175.06" width="1.09" height="20.88" fill="#e87474"/><polygon points="179.82 0 177.37 5.12 182.28 5.12 179.82 0" fill="#71b429"/><rect x="103.42" y="3.48" width="1.09" height="20.28" fill="#71b429"/><rect x="26.66" y="23.76" width="1.09" height="20.28" fill="#71b429"/><rect x="103.42" y="23.76" width="1.09" height="20.28" fill="#71b429"/><rect x="179.41" y="3.48" width="1.09" height="20.28" fill="#71b429"/><rect x="179.41" y="23.76" width="1.09" height="20.28" fill="#71b429"/><rect x="27.67" y="23.76" width="151.93" height="1.1" fill="#71b429"/><rect x="21.91" y="19.93" width="1.09" height="20.28" fill="#e87474"/><polygon points="103.97 0 101.52 5.12 106.43 5.12 103.97 0" fill="#71b429"/><polygon points="22.45 44.22 19.99 39.1 24.9 39.1 22.45 44.22" fill="#e87474"/><g opacity="0.5"><rect x="256.44" y="42.4" width="1.09" height="1.65" fill="#71b429"/><path d="M257.54,39.35h-1.1V35.69h1.1Zm0-6.67h-1.1V29h1.1Z" fill="#71b429"/><polygon points="257.54 25.95 256.44 25.95 256.44 24.85 255.35 24.85 255.35 23.75 257.54 23.75 257.54 25.95" fill="#71b429"/><path d="M252.64,24.85H249.4V23.76h3.24Zm-6,0h-3.25V23.76h3.24Zm-6,0h-3.25V23.76h3.25Zm-5.95,0h-3.28V23.76h3.26Zm-6,0h-3.25V23.76h3.25Zm-6,0H219.6V23.76h3.24Zm-6,0h-3.25V23.76h3.25Zm-6,0h-3.25V23.76h3.25Zm-6,0h-3.25V23.76h3.22Zm-6,0h-3.26V23.76H199Zm-6,0h-3.29V23.76H193Zm-6,0h-3.25V23.76h3.25Zm-6,0h-3.24V23.76h3.24Z" fill="#71b429"/><rect x="173.52" y="23.76" width="1.64" height="1.1" fill="#71b429"/></g><path d="M84.54,52.9a1.69,1.69,0,0,1-.64,1.39,2.87,2.87,0,0,1-1.77.51,4.36,4.36,0,0,1-1.85-.32v-.76a5,5,0,0,0,1.9.38,2,2,0,0,0,1.19-.3,1,1,0,0,0,.39-.83,1,1,0,0,0-.14-.58,1.27,1.27,0,0,0-.47-.42,6.38,6.38,0,0,0-1-.43,3.18,3.18,0,0,1-1.35-.81,1.75,1.75,0,0,1-.42-1.2A1.49,1.49,0,0,1,81,48.28a2.34,2.34,0,0,1,1.58-.46,4.44,4.44,0,0,1,1.9.37l-.25.68a4.07,4.07,0,0,0-1.65-.35,1.53,1.53,0,0,0-1,.27.9.9,0,0,0-.35.75,1.17,1.17,0,0,0,.13.58,1.24,1.24,0,0,0,.44.41,5.38,5.38,0,0,0,1,.42,3.82,3.82,0,0,1,1.47.82A1.58,1.58,0,0,1,84.54,52.9Z" fill="#fff"/><path d="M87.77,54.81a2.33,2.33,0,0,1-1.78-.7,2.64,2.64,0,0,1-.65-1.9,3,3,0,0,1,.61-2,2,2,0,0,1,1.62-.71,1.9,1.9,0,0,1,1.51.63,2.4,2.4,0,0,1,.56,1.67v.48h-3.5a2,2,0,0,0,.45,1.36,1.54,1.54,0,0,0,1.21.47,4.13,4.13,0,0,0,1.62-.34v.68a4.2,4.2,0,0,1-.78.26A5.1,5.1,0,0,1,87.77,54.81Zm-.21-4.64a1.27,1.27,0,0,0-1,.4,1.86,1.86,0,0,0-.43,1.1h2.66a1.64,1.64,0,0,0-.33-1.11A1.08,1.08,0,0,0,87.56,50.17Z" fill="#fff"/><path d="M92.79,54.81a2.13,2.13,0,0,1-1.71-.69,2.8,2.8,0,0,1-.61-1.9,2.87,2.87,0,0,1,.61-2,2.16,2.16,0,0,1,1.75-.69,3.55,3.55,0,0,1,.73.08,2,2,0,0,1,.58.19l-.21.68a4,4,0,0,0-.56-.17,3.33,3.33,0,0,0-.54-.07c-1,0-1.54.66-1.54,2a2.27,2.27,0,0,0,.38,1.43,1.29,1.29,0,0,0,1.12.51,3.45,3.45,0,0,0,1.3-.28v.69A2.91,2.91,0,0,1,92.79,54.81Z" fill="#fff"/><path d="M99.47,52.16a2.78,2.78,0,0,1-.63,1.9,2.22,2.22,0,0,1-1.73.71,2.37,2.37,0,0,1-1.21-.33,2.06,2.06,0,0,1-.82-.95,3.22,3.22,0,0,1-.28-1.4,2.83,2.83,0,0,1,.62-1.9,2.43,2.43,0,0,1,3.42,0A2.81,2.81,0,0,1,99.47,52.16Zm-3.87,0A2.42,2.42,0,0,0,96,53.64a1.52,1.52,0,0,0,2.29,0,3,3,0,0,0,0-3,1.56,1.56,0,0,0-2.21-.07l-.08.07A2.42,2.42,0,0,0,95.6,52.16Z" fill="#fff"/><path d="M104.1,54.71V51.43a1.36,1.36,0,0,0-.29-1,1.15,1.15,0,0,0-.88-.3,1.47,1.47,0,0,0-1.17.43,2.24,2.24,0,0,0-.37,1.42v2.68h-.77V49.62h.63l.12.69h0a1.51,1.51,0,0,1,.67-.58,2.06,2.06,0,0,1,.95-.21,1.85,1.85,0,0,1,1.37.45,1.93,1.93,0,0,1,.47,1.42v3.32Z" fill="#fff"/><path d="M109.71,54h0a1.79,1.79,0,0,1-1.58.78,1.91,1.91,0,0,1-1.56-.69,3.07,3.07,0,0,1-.55-1.9,3.14,3.14,0,0,1,.55-2,1.91,1.91,0,0,1,1.56-.69,1.8,1.8,0,0,1,1.57.75h.07V47.47h.78v7.24h-.63Zm-1.53.13a1.38,1.38,0,0,0,1.13-.43,2.14,2.14,0,0,0,.35-1.39v-.16a2.54,2.54,0,0,0-.35-1.55,1.35,1.35,0,0,0-1.14-.46,1.18,1.18,0,0,0-1,.52,3.28,3.28,0,0,0,0,3,1.25,1.25,0,0,0,1,.5Z" fill="#fff"/><path d="M115,54.71l-.15-.72h0a2.34,2.34,0,0,1-.75.65,2.42,2.42,0,0,1-.95.17,1.74,1.74,0,0,1-1.18-.39,1.46,1.46,0,0,1-.44-1.12c0-1,.83-1.57,2.47-1.62h.85v-.34a1.29,1.29,0,0,0-.25-.89,1.07,1.07,0,0,0-.82-.28,3.33,3.33,0,0,0-1.44.39L112.1,50a4.22,4.22,0,0,1,.83-.33,3.8,3.8,0,0,1,.95-.11,1.91,1.91,0,0,1,1.34.4,1.73,1.73,0,0,1,.44,1.3v3.48Zm-1.74-.54a1.56,1.56,0,0,0,1.13-.4,1.43,1.43,0,0,0,.41-1.11v-.45H114a2.73,2.73,0,0,0-1.32.28.89.89,0,0,0-.41.79.81.81,0,0,0,.26.64A1.11,1.11,0,0,0,113.26,54.17Z" fill="#fff"/><path d="M119.29,49.53a3.05,3.05,0,0,1,.6.06l-.11.71a3.45,3.45,0,0,0-.55-.07,1.33,1.33,0,0,0-1,.5,1.82,1.82,0,0,0-.44,1.26v2.73H117v-5.1h.67l.09,1h0a2.16,2.16,0,0,1,.67-.77A1.56,1.56,0,0,1,119.29,49.53Z" fill="#fff"/><path d="M119.84,49.62h.83l1.11,2.85a10.48,10.48,0,0,1,.46,1.44h0a4.32,4.32,0,0,1,.24-.81c.13-.38.55-1.56,1.26-3.53h.83l-2.18,5.85a3,3,0,0,1-.76,1.22,1.64,1.64,0,0,1-1.06.36,3.27,3.27,0,0,1-.7-.08V56.3a2.76,2.76,0,0,0,.57.06,1.19,1.19,0,0,0,1.13-.9l.29-.72Z" fill="#fff"/><path d="M161.47,52.9a1.65,1.65,0,0,1-.65,1.4,2.86,2.86,0,0,1-1.76.51,4.4,4.4,0,0,1-1.9-.32v-.76a5.15,5.15,0,0,0,1.9.38,2,2,0,0,0,1.18-.3,1,1,0,0,0,.4-.83,1.17,1.17,0,0,0-.13-.58A1.38,1.38,0,0,0,160,52a7,7,0,0,0-1-.43,3.28,3.28,0,0,1-1.35-.81,1.83,1.83,0,0,1-.41-1.21,1.55,1.55,0,0,1,.59-1.25,2.41,2.41,0,0,1,1.56-.46,4.37,4.37,0,0,1,1.89.37l-.24.68a4.32,4.32,0,0,0-1.62-.35,1.6,1.6,0,0,0-.95.27.91.91,0,0,0-.35.75,1.17,1.17,0,0,0,.13.58,1.24,1.24,0,0,0,.44.41,5.63,5.63,0,0,0,.94.42,3.82,3.82,0,0,1,1.47.82A1.64,1.64,0,0,1,161.47,52.9Z" fill="#fff"/><path d="M164.69,54.81a2.31,2.31,0,0,1-1.77-.7,2.65,2.65,0,0,1-.66-1.9,3,3,0,0,1,.61-2,2,2,0,0,1,1.62-.72,1.89,1.89,0,0,1,1.51.63,2.4,2.4,0,0,1,.56,1.67v.48h-3.5a2,2,0,0,0,.46,1.36,1.51,1.51,0,0,0,1.2.47,4.09,4.09,0,0,0,1.62-.34v.68a5,5,0,0,1-.77.26A5.14,5.14,0,0,1,164.69,54.81Zm-.21-4.64a1.27,1.27,0,0,0-.95.4,1.92,1.92,0,0,0-.42,1.1h2.65a1.63,1.63,0,0,0-.32-1.11A1.1,1.1,0,0,0,164.48,50.17Z" fill="#fff"/><path d="M169.71,54.81a2.21,2.21,0,0,1-1.71-.69,2.84,2.84,0,0,1-.6-1.9,2.9,2.9,0,0,1,.61-2,2.21,2.21,0,0,1,1.75-.69,3.72,3.72,0,0,1,.74.08,1.91,1.91,0,0,1,.57.19l-.24.65a3.5,3.5,0,0,0-.55-.17,2.33,2.33,0,0,0-.53-.06c-1,0-1.56.65-1.56,2a2.41,2.41,0,0,0,.38,1.43,1.33,1.33,0,0,0,1.12.51,3.41,3.41,0,0,0,1.3-.28v.69A3,3,0,0,1,169.71,54.81Z" fill="#fff"/><path d="M176.39,52.16a2.78,2.78,0,0,1-.63,1.9,2.2,2.2,0,0,1-1.72.71,2.34,2.34,0,0,1-1.21-.33,2.09,2.09,0,0,1-.81-.95,3.1,3.1,0,0,1-.3-1.4,2.78,2.78,0,0,1,.63-1.9,2.16,2.16,0,0,1,1.73-.7,2.11,2.11,0,0,1,1.68.72A2.75,2.75,0,0,1,176.39,52.16Zm-3.87,0a2.43,2.43,0,0,0,.39,1.48,1.54,1.54,0,0,0,2.18.12l.11-.12a3,3,0,0,0,0-3,1.57,1.57,0,0,0-2.29,0A2.38,2.38,0,0,0,172.52,52.16Z" fill="#fff"/><path d="M181,54.71V51.43a1.27,1.27,0,0,0-.28-1,1.16,1.16,0,0,0-.89-.3,1.44,1.44,0,0,0-1.16.43,2.11,2.11,0,0,0-.37,1.42v2.68h-.77V49.62h.62l.13.69h0a1.61,1.61,0,0,1,.66-.58,2.09,2.09,0,0,1,.95-.21,1.62,1.62,0,0,1,1.9,1.3,1.57,1.57,0,0,1,0,.61v3.32Z" fill="#fff"/><path d="M186.64,54h0a1.84,1.84,0,0,1-1.6.78,1.91,1.91,0,0,1-1.54-.69,2.94,2.94,0,0,1-.56-1.9,3.07,3.07,0,0,1,.56-2,1.88,1.88,0,0,1,1.5-.72,1.86,1.86,0,0,1,1.59.75h.06V47.47h.76v7.24h-.62Zm-1.54.13a1.42,1.42,0,0,0,1.15-.43,2.26,2.26,0,0,0,.35-1.39v-.16a2.6,2.6,0,0,0-.36-1.55,1.37,1.37,0,0,0-1.15-.46,1.18,1.18,0,0,0-1,.52,2.61,2.61,0,0,0-.36,1.5,2.43,2.43,0,0,0,.36,1.46A1.19,1.19,0,0,0,185.1,54.16Z" fill="#fff"/><path d="M191.93,54.71l-.15-.72h0a2.27,2.27,0,0,1-.76.65,2.35,2.35,0,0,1-1,.17,1.78,1.78,0,0,1-1.19-.39,1.46,1.46,0,0,1-.42-1.12c0-1,.81-1.57,2.46-1.62h.86v-.34a1.35,1.35,0,0,0-.26-.89,1,1,0,0,0-.82-.28,3.33,3.33,0,0,0-1.44.39L189,50a3.07,3.07,0,0,1,.82-.33,3.48,3.48,0,0,1,.85-.11,1.91,1.91,0,0,1,1.34.4,1.69,1.69,0,0,1,.44,1.3v3.48Zm-1.74-.54a1.56,1.56,0,0,0,1.13-.4,1.43,1.43,0,0,0,.41-1.11v-.45H191a2.8,2.8,0,0,0-1.33.28.86.86,0,0,0-.39.79.81.81,0,0,0,.24.64A1.1,1.1,0,0,0,190.19,54.17Z" fill="#fff"/><path d="M196.21,49.53a3.15,3.15,0,0,1,.61.06l-.11.71a3.43,3.43,0,0,0-.56-.07,1.34,1.34,0,0,0-1.05.5,1.87,1.87,0,0,0-.44,1.26v2.73h-.77v-5.1h.6l.09,1h0a2.19,2.19,0,0,1,.68-.77A1.47,1.47,0,0,1,196.21,49.53Z" fill="#fff"/><path d="M196.77,49.62h.82l1.11,2.85a10.48,10.48,0,0,1,.46,1.44h0a3.48,3.48,0,0,1,.26-.81c.13-.38.54-1.56,1.25-3.53h.82l-2.18,5.8a2.89,2.89,0,0,1-.76,1.22,1.62,1.62,0,0,1-1.06.36,3.25,3.25,0,0,1-.69-.08v-.62a2.69,2.69,0,0,0,.57.06,1.17,1.17,0,0,0,1.13-.89l.28-.73Z" fill="#fff"/><path d="M238.31,52.9a1.64,1.64,0,0,1-.64,1.4,2.87,2.87,0,0,1-1.77.51,4.38,4.38,0,0,1-1.89-.32v-.76a5.1,5.1,0,0,0,1.89.38,2,2,0,0,0,1.19-.3,1,1,0,0,0,.4-.83,1.17,1.17,0,0,0-.13-.58,1.38,1.38,0,0,0-.48-.42,7.47,7.47,0,0,0-1-.43,3.28,3.28,0,0,1-1.35-.81,1.78,1.78,0,0,1-.41-1.21,1.49,1.49,0,0,1,.59-1.25,2.41,2.41,0,0,1,1.56-.46,4.4,4.4,0,0,1,1.89.37l-.24.68a4.33,4.33,0,0,0-1.63-.35,1.59,1.59,0,0,0-.94.27,1,1,0,0,0-.36.75,1.18,1.18,0,0,0,.14.58,1.3,1.3,0,0,0,.43.41,5.72,5.72,0,0,0,.95.42,3.78,3.78,0,0,1,1.46.82A1.55,1.55,0,0,1,238.31,52.9Z" fill="#fff"/><path d="M241.54,54.81a2.31,2.31,0,0,1-1.77-.7,2.65,2.65,0,0,1-.66-1.9,3,3,0,0,1,.61-2,2,2,0,0,1,1.62-.72,1.89,1.89,0,0,1,1.51.63,2.4,2.4,0,0,1,.56,1.67v.48h-3.5a2,2,0,0,0,.45,1.36,1.54,1.54,0,0,0,1.21.47,4.09,4.09,0,0,0,1.62-.34v.68a5.36,5.36,0,0,1-.77.26A5.14,5.14,0,0,1,241.54,54.81Zm-.21-4.64a1.27,1.27,0,0,0-1,.4,1.92,1.92,0,0,0-.42,1.1h2.65a1.63,1.63,0,0,0-.32-1.11A1.1,1.1,0,0,0,241.33,50.17Z" fill="#fff"/><path d="M246.56,54.81a2.21,2.21,0,0,1-1.71-.69,2.91,2.91,0,0,1-.61-1.9,2.86,2.86,0,0,1,.62-2,2.21,2.21,0,0,1,1.75-.69,3.81,3.81,0,0,1,.74.08,2.12,2.12,0,0,1,.57.19l-.24.65a3.5,3.5,0,0,0-.55-.17,2.39,2.39,0,0,0-.53-.06c-1,0-1.56.65-1.56,2a2.34,2.34,0,0,0,.38,1.43,1.33,1.33,0,0,0,1.12.51,3.41,3.41,0,0,0,1.3-.28v.69A3,3,0,0,1,246.56,54.81Z" fill="#fff"/><path d="M253.24,52.16a2.78,2.78,0,0,1-.63,1.9,2.2,2.2,0,0,1-1.72.71,2.32,2.32,0,0,1-1.21-.33,2.17,2.17,0,0,1-.82-.95,3.23,3.23,0,0,1-.29-1.4,2.78,2.78,0,0,1,.63-1.9,2.4,2.4,0,0,1,3.41,0A2.8,2.8,0,0,1,253.24,52.16Zm-3.87,0a2.36,2.36,0,0,0,.39,1.48,1.54,1.54,0,0,0,2.18.12l.11-.12a3,3,0,0,0,0-3,1.36,1.36,0,0,0-1.16-.5,1.33,1.33,0,0,0-1.13.49,2.38,2.38,0,0,0-.39,1.49Z" fill="#fff"/><path d="M257.87,54.71V51.43a1.35,1.35,0,0,0-.28-1,1.16,1.16,0,0,0-.89-.3,1.47,1.47,0,0,0-1.17.43,2.22,2.22,0,0,0-.37,1.42v2.68h-.76V49.62H255l.12.69h0a1.71,1.71,0,0,1,.67-.58,2.06,2.06,0,0,1,.95-.21,1.62,1.62,0,0,1,1.85,1.35,1.75,1.75,0,0,1,0,.56v3.32Z" fill="#fff"/><path d="M263.48,54h0a1.82,1.82,0,0,1-1.59.78,1.93,1.93,0,0,1-1.55-.69,3.06,3.06,0,0,1-.56-1.9,3.13,3.13,0,0,1,.56-2,1.91,1.91,0,0,1,1.51-.72,1.87,1.87,0,0,1,1.59.75h.05V47.47h.77v7.24h-.62Zm-1.53.13a1.42,1.42,0,0,0,1.15-.43,2.33,2.33,0,0,0,.35-1.39v-.16a2.6,2.6,0,0,0-.36-1.55,1.37,1.37,0,0,0-1.15-.46,1.2,1.2,0,0,0-1,.52,2.69,2.69,0,0,0-.36,1.5,2.58,2.58,0,0,0,.36,1.46A1.22,1.22,0,0,0,262,54.16Z" fill="#fff"/><path d="M268.78,54.71l-.15-.72h0a2.27,2.27,0,0,1-.76.65,2.39,2.39,0,0,1-.95.17,1.78,1.78,0,0,1-1.19-.39,1.46,1.46,0,0,1-.42-1.12c0-1,.81-1.57,2.45-1.62h.87v-.34a1.35,1.35,0,0,0-.26-.89,1,1,0,0,0-.82-.28,3.26,3.26,0,0,0-1.44.39l-.23-.59a2.94,2.94,0,0,1,.82-.33,3.48,3.48,0,0,1,.85-.11,1.91,1.91,0,0,1,1.34.4,1.73,1.73,0,0,1,.44,1.3v3.48ZM267,54.17a1.56,1.56,0,0,0,1.13-.4,1.43,1.43,0,0,0,.41-1.11v-.45h-.77a2.77,2.77,0,0,0-1.33.28.89.89,0,0,0-.4.79.85.85,0,0,0,.25.64A1.08,1.08,0,0,0,267,54.17Z" fill="#fff"/><path d="M273.06,49.53a3.05,3.05,0,0,1,.6.06l-.1.71a3.43,3.43,0,0,0-.56-.07,1.34,1.34,0,0,0-1.05.5,1.82,1.82,0,0,0-.44,1.26v2.73h-.77v-5.1h.6l.09,1h0a2.1,2.1,0,0,1,.68-.77A1.47,1.47,0,0,1,273.06,49.53Z" fill="#fff"/><path d="M273.62,49.62h.82l1.11,2.85a10.48,10.48,0,0,1,.46,1.44h0a3.85,3.85,0,0,1,.25-.81c.14-.38.54-1.56,1.26-3.53h.82l-2.18,5.8a3,3,0,0,1-.76,1.22,1.64,1.64,0,0,1-1.06.36,3.17,3.17,0,0,1-.69-.08v-.62a2.6,2.6,0,0,0,.56.06,1.17,1.17,0,0,0,1.13-.89l.29-.73Z" fill="#fff"/><path d="M24.42,16.63l-1.8-6.82h.95l1,4.48c.12.47.21.93.29,1.4.17-.74.27-1.15.3-1.27l1.3-4.6h1.05l.95,3.45A16.57,16.57,0,0,1,29,15.69c.09-.44.2-.95.35-1.49L30.4,9.82h.91l-1.9,6.82h-.86l-1.36-5.21-.22-.8c-.07.32-.13.58-.2.8l-1.44,5.2Z" fill="#d65d5d"/><path d="M31.9,16.63V11.69h.75v.75a2.13,2.13,0,0,1,.53-.7,1,1,0,0,1,.54-.16,1.61,1.61,0,0,1,.85.27l-.28.77a1.35,1.35,0,0,0-.62-.18.74.74,0,0,0-.48.17.8.8,0,0,0-.32.46,3.41,3.41,0,0,0-.14.95v2.59Z" fill="#d65d5d"/><path d="M35.1,10.77V9.82h.84v.95Zm0,5.86V11.69h.84v4.94Z" fill="#d65d5d"/><path d="M39,15.88l.13.74a3.4,3.4,0,0,1-.63.08,1.47,1.47,0,0,1-.71-.15.86.86,0,0,1-.35-.38,3.38,3.38,0,0,1-.1-1V12.38h-.61v-.65h.61V10.48l.83-.51V11.7H39v.68h-.83v2.86a1.44,1.44,0,0,0,.05.46.27.27,0,0,0,.14.16.53.53,0,0,0,.28.07Z" fill="#d65d5d"/><path d="M43.18,15l.86.1a2.14,2.14,0,0,1-.76,1.19,2.26,2.26,0,0,1-1.4.41,2.2,2.2,0,0,1-1.71-.67,2.6,2.6,0,0,1-.64-1.91,2.74,2.74,0,0,1,.64-1.9,2.17,2.17,0,0,1,1.66-.69,2.08,2.08,0,0,1,1.61.67,2.69,2.69,0,0,1,.63,1.9v.22H40.4a2,2,0,0,0,.45,1.25,1.4,1.4,0,0,0,1,.43,1.21,1.21,0,0,0,.8-.23A1.51,1.51,0,0,0,43.18,15Zm-2.74-1.35h2.75a1.75,1.75,0,0,0-.32-1,1.28,1.28,0,0,0-1-.48,1.35,1.35,0,0,0-1,.38A1.55,1.55,0,0,0,40.44,13.69Z" fill="#d65d5d"/><path d="M235.06,16.63V9.81h3a4,4,0,0,1,1.37.18,1.51,1.51,0,0,1,.76.65,2,2,0,0,1,.29,1A1.77,1.77,0,0,1,240,12.9a2.37,2.37,0,0,1-1.45.63,1.9,1.9,0,0,1,.54.34,4.6,4.6,0,0,1,.75.9L241,16.68h-1.13L239,15.24c-.27-.41-.49-.73-.66-1a2.18,2.18,0,0,0-.45-.46,1.65,1.65,0,0,0-.41-.18H236v3Zm.89-3.81h1.9a2.8,2.8,0,0,0,1-.13,1,1,0,0,0,.53-.4,1.15,1.15,0,0,0,.18-.62.92.92,0,0,0-.35-.79,1.62,1.62,0,0,0-1.1-.32H236Z" fill="#55990b"/><path d="M245.15,15l.87.1a2.14,2.14,0,0,1-.76,1.19,2.55,2.55,0,0,1-3.12-.26,2.61,2.61,0,0,1-.63-1.91,2.7,2.7,0,0,1,.64-1.9,2.17,2.17,0,0,1,1.66-.69,2.09,2.09,0,0,1,1.61.67,2.73,2.73,0,0,1,.63,1.9v.22h-3.67a1.94,1.94,0,0,0,.5,1.26,1.36,1.36,0,0,0,1,.43,1.25,1.25,0,0,0,.79-.24A1.46,1.46,0,0,0,245.15,15Zm-2.74-1.35h2.75a1.66,1.66,0,0,0-.31-1,1.28,1.28,0,0,0-1-.48,1.33,1.33,0,0,0-.95.38A1.56,1.56,0,0,0,242.41,13.69Z" fill="#55990b"/><path d="M250.28,16a2.94,2.94,0,0,1-.89.55,2.42,2.42,0,0,1-.95.17,1.76,1.76,0,0,1-1.25-.4,1.31,1.31,0,0,1-.44-1,1.27,1.27,0,0,1,.17-.66,1.35,1.35,0,0,1,.43-.49,2.11,2.11,0,0,1,.59-.27,6.54,6.54,0,0,1,.75-.13,7.3,7.3,0,0,0,1.48-.28v-.22a1,1,0,0,0-.23-.73,1.41,1.41,0,0,0-.95-.28,1.51,1.51,0,0,0-.88.21,1.31,1.31,0,0,0-.41.73l-.81-.11a1.89,1.89,0,0,1,.36-.85,1.63,1.63,0,0,1,.74-.5,3.48,3.48,0,0,1,1.11-.17,3,3,0,0,1,1,.15,1.34,1.34,0,0,1,.57.37,1.21,1.21,0,0,1,.27.57,5,5,0,0,1,0,.77v1.12A12.13,12.13,0,0,0,251,16a2,2,0,0,0,.21.59h-.77A1.67,1.67,0,0,1,250.28,16Zm-.08-1.9a6.29,6.29,0,0,1-1.35.31,3.76,3.76,0,0,0-.74.16.88.88,0,0,0-.33.28.8.8,0,0,0-.11.4.69.69,0,0,0,.26.55,1,1,0,0,0,.74.23,1.71,1.71,0,0,0,.85-.22,1.32,1.32,0,0,0,.55-.57,2,2,0,0,0,.13-.84Z" fill="#55990b"/><path d="M255.53,16.63V16a1.5,1.5,0,0,1-1.37.74,1.81,1.81,0,0,1-1.08-.33,2,2,0,0,1-.77-.9,3.14,3.14,0,0,1-.27-1.35,3.43,3.43,0,0,1,.25-1.34,1.92,1.92,0,0,1,.73-1,2,2,0,0,1,1.1-.32,1.82,1.82,0,0,1,.79.18,1.7,1.7,0,0,1,.57.5V9.81h.82v6.82Zm-2.63-2.47a2.16,2.16,0,0,0,.39,1.42,1.19,1.19,0,0,0,1,.47,1.16,1.16,0,0,0,.95-.45,2,2,0,0,0,.38-1.37,2.26,2.26,0,0,0-.39-1.49,1.19,1.19,0,0,0-1-.47,1.12,1.12,0,0,0-.94.46A2.21,2.21,0,0,0,252.9,14.16Z" fill="#55990b"/><path d="M27.16,104.36a.54.54,0,0,1-.34-.12h-.15l-.19-.17h-.16a1,1,0,0,1-.64-1v-.45a11,11,0,0,0-.44-2.85,20.14,20.14,0,0,1-1.6-1.33,18.93,18.93,0,0,1-5-7.91,29,29,0,0,1-.73-6.36,21.85,21.85,0,0,1,2.48-8.84,18.66,18.66,0,0,1,4.3-5.45l.1-.13a4.37,4.37,0,0,0,.65-.64,1.07,1.07,0,0,0,.2-.62.68.68,0,0,1,.2-.54.81.81,0,0,1,.48-.18.73.73,0,0,1,.58.38.48.48,0,0,1,0,.17l.89,1.64a4.8,4.8,0,0,0,.61.74,24.19,24.19,0,0,1,2.29,2.56,22.2,22.2,0,0,1,3.58,7.14A17.84,17.84,0,0,1,35,85.28,17.18,17.18,0,0,1,29.93,98a15.09,15.09,0,0,1-1.77,1.52,1.8,1.8,0,0,0-.3.71v.2c0,.2,0,.41,0,.61v2.37C27.91,104.07,27.6,104.36,27.16,104.36Z" fill="#c2bfbf"/><path d="M26.32,68.39h0l.95,1.77a5,5,0,0,0,.71.89,27.39,27.39,0,0,1,2.28,2.63,21.93,21.93,0,0,1,3.46,6.94,16.94,16.94,0,0,1,.73,4.69,16.54,16.54,0,0,1-4.88,12.27,14,14,0,0,1-1.78,1.48h0a2.8,2.8,0,0,0-.49,1.18h0a4.55,4.55,0,0,0-.07.9v2.4c0,.08,0,.17-.13.17a1.84,1.84,0,0,0-.49-.19c-.39-.16-.37,0-.37-.52v-.39a11.36,11.36,0,0,0-.5-3.11.29.29,0,0,1,0-.13h0c-.6-.45-1.18-1-1.73-1.45a18.5,18.5,0,0,1-4.85-7.62,27.94,27.94,0,0,1-.66-6,21,21,0,0,1,2.37-8.64A18.56,18.56,0,0,1,25,70.33a4.51,4.51,0,0,0,.85-.84,1.74,1.74,0,0,0,.33-1.1h.08m0-1.32a1.28,1.28,0,0,0-.9.41,1.45,1.45,0,0,0-.4,1,.64.64,0,0,1-.1.24,4.77,4.77,0,0,1-.52.48l-.1.09A19.91,19.91,0,0,0,19.92,75a22.5,22.5,0,0,0-2.62,9.14,29.24,29.24,0,0,0,.75,6.6,19.66,19.66,0,0,0,5.27,8.16c.45.43.95.85,1.49,1.32a10.74,10.74,0,0,1,.35,2.46V103a1.56,1.56,0,0,0,1,1.75h.12l.25.09h-.08a1.12,1.12,0,0,0,.62.18,1.42,1.42,0,0,0,1.37-1.46s0,0,0-.07V101a1.85,1.85,0,0,1,0-.47v-.21a1,1,0,0,1,.13-.33,15.1,15.1,0,0,0,1.89-1.49,18,18,0,0,0,5.27-13.22,18.71,18.71,0,0,0-.8-5.09,22.87,22.87,0,0,0-3.68-7.37,25.63,25.63,0,0,0-2.34-2.65,4,4,0,0,1-.52-.63L27.51,68a1.72,1.72,0,0,0-.07-.21,1.35,1.35,0,0,0-1.12-.73Z" fill="#fff"/><path d="M26.38,68.48l.94,1.78a5.53,5.53,0,0,0,.72.88,23.34,23.34,0,0,1,2.22,2.54,21.75,21.75,0,0,1,3.47,6.94,16.94,16.94,0,0,1,.73,4.69,16.54,16.54,0,0,1-4.88,12.27,14.8,14.8,0,0,1-1.79,1.48c-.32,0-.49-.25-.62-.48a4,4,0,0,1-.48-1.31,6.49,6.49,0,0,1-.16-1.75v-.27S26.25,68.63,26.38,68.48Z" fill="#008b2a"/><path d="M26.38,68.39c0-.08-.09,0-.13,0a1.69,1.69,0,0,1-.33,1.06,5.19,5.19,0,0,1-.85.84,18.74,18.74,0,0,0-4.2,5.29,21,21,0,0,0-2.41,8.67,28.35,28.35,0,0,0,.7,6.08A18.4,18.4,0,0,0,24,97.94a22,22,0,0,0,1.73,1.47c.17,0,.2-.16.24-.26a6.43,6.43,0,0,0,.17-.76l.4-2.85Z" fill="#00ae42"/><path d="M104,104.36a.54.54,0,0,1-.34-.12h-.15l-.19-.17h-.16a1,1,0,0,1-.64-1v-.45a10.6,10.6,0,0,0-.45-2.85,20,20,0,0,1-1.59-1.33,18.83,18.83,0,0,1-5-7.91,29,29,0,0,1-.73-6.36,21.69,21.69,0,0,1,2.48-8.84,18.66,18.66,0,0,1,4.3-5.45l.1-.13a4.3,4.3,0,0,0,.64-.64,1.07,1.07,0,0,0,.2-.62.71.71,0,0,1,.2-.54.86.86,0,0,1,.49-.18.73.73,0,0,1,.58.38.48.48,0,0,1,0,.17l.89,1.64a5.39,5.39,0,0,0,.6.74,24.28,24.28,0,0,1,2.3,2.56,22.4,22.4,0,0,1,3.58,7.14,17.84,17.84,0,0,1,.76,4.92A17.18,17.18,0,0,1,106.78,98,15.09,15.09,0,0,1,105,99.55a1.55,1.55,0,0,0-.3.71v.2a3.11,3.11,0,0,0,0,.61v2.37C104.76,104.07,104.45,104.36,104,104.36Z" fill="#c2bfbf"/><path d="M103.17,68.39h0l.94,1.77a5.61,5.61,0,0,0,.72.89,26,26,0,0,1,2.27,2.63,22,22,0,0,1,3.47,6.94,16.94,16.94,0,0,1,.73,4.69,16.58,16.58,0,0,1-4.88,12.27A14.45,14.45,0,0,1,104.64,99h0a2.68,2.68,0,0,0-.49,1.18h0a3.91,3.91,0,0,0-.07.9v2.4c0,.08,0,.17-.14.17a1.66,1.66,0,0,0-.48-.19c-.39-.16-.37,0-.37-.52v-.39a11.36,11.36,0,0,0-.5-3.11.24.24,0,0,1,0-.12h0c-.6-.46-1.18-1-1.73-1.46A18.62,18.62,0,0,1,96,90.27a28.57,28.57,0,0,1-.65-6,20.87,20.87,0,0,1,2.37-8.61,18.56,18.56,0,0,1,4.16-5.29,4.82,4.82,0,0,0,.85-.84,1.74,1.74,0,0,0,.33-1.1h.08m0-1.32a1.3,1.3,0,0,0-1,.41,1.45,1.45,0,0,0-.4,1,.64.64,0,0,1-.1.24,4.77,4.77,0,0,1-.52.48l-.1.09A19.74,19.74,0,0,0,96.77,75a22.67,22.67,0,0,0-2.63,9.14,29.24,29.24,0,0,0,.76,6.6,19.66,19.66,0,0,0,5.27,8.16c.44.43,1,.85,1.49,1.32a10.74,10.74,0,0,1,.35,2.46V103a1.57,1.57,0,0,0,1,1.72h.13l.24.08h-.07a1.09,1.09,0,0,0,.61.18,1.42,1.42,0,0,0,1.32-1.49V101a1.85,1.85,0,0,1,0-.47v-.21a.93.93,0,0,1,.12-.33,14.5,14.5,0,0,0,1.9-1.49,18,18,0,0,0,5.27-13.22,18.71,18.71,0,0,0-.8-5.09,22.87,22.87,0,0,0-3.68-7.37,25.63,25.63,0,0,0-2.34-2.65,4,4,0,0,1-.52-.63L104.36,68c0-.07,0-.14-.07-.21a1.35,1.35,0,0,0-1.12-.73Z" fill="#fff"/><path d="M103.22,68.48l1,1.78a6.07,6.07,0,0,0,.71.88,23.43,23.43,0,0,1,2.23,2.54,22,22,0,0,1,3.47,6.94,16.94,16.94,0,0,1,.73,4.69,16.58,16.58,0,0,1-4.88,12.27A14.45,14.45,0,0,1,104.65,99c-.33,0-.49-.25-.62-.48a3.83,3.83,0,0,1-.48-1.31,6.84,6.84,0,0,1-.17-1.75v-.24S103.1,68.63,103.22,68.48Z" fill="#008b2a"/><path d="M103.22,68.39c0-.08-.08,0-.12,0a1.75,1.75,0,0,1-.33,1.06,4.89,4.89,0,0,1-.86.84,18.7,18.7,0,0,0-4.19,5.29,21,21,0,0,0-2.41,8.67,28.35,28.35,0,0,0,.7,6.08,18.4,18.4,0,0,0,4.85,7.61,22,22,0,0,0,1.73,1.47c.17,0,.2-.16.23-.26a4.94,4.94,0,0,0,.18-.76l.39-2.85Z" fill="#00ae42"/><path d="M180.19,104.36a.54.54,0,0,1-.34-.12h-.14l-.2-.17h-.2a1,1,0,0,1-.62-1v-.45a10.6,10.6,0,0,0-.45-2.85,17,17,0,0,1-1.59-1.33,18.79,18.79,0,0,1-5-7.92,28.39,28.39,0,0,1-.72-6.36,21.66,21.66,0,0,1,2.46-8.84,18.81,18.81,0,0,1,4.32-5.46l.1-.13a3.94,3.94,0,0,0,.65-.64,1.07,1.07,0,0,0,.2-.62.71.71,0,0,1,.2-.54,1,1,0,0,1,.48-.18.7.7,0,0,1,.58.38.54.54,0,0,1,0,.18l.9,1.63a4.37,4.37,0,0,0,.61.74,25.35,25.35,0,0,1,2.29,2.56,22.17,22.17,0,0,1,3.57,7.14,18.24,18.24,0,0,1,.77,4.92A17.27,17.27,0,0,1,183,98a16.06,16.06,0,0,1-1.78,1.52,1.65,1.65,0,0,0-.29.71v.2a3.11,3.11,0,0,0,0,.61v2.37C180.94,104.07,180.63,104.36,180.19,104.36Z" fill="#c2bfbf"/><path d="M179.31,68.39h0l.95,1.77a5.55,5.55,0,0,0,.71.89,24.85,24.85,0,0,1,2.28,2.63,21.62,21.62,0,0,1,3.46,6.94,17,17,0,0,1,.74,4.69,16.58,16.58,0,0,1-4.88,12.27,14.47,14.47,0,0,1-1.74,1.48h0a2.57,2.57,0,0,0-.49,1.18h0a5.47,5.47,0,0,0-.08.9v2.4c0,.08,0,.17-.13.17a1.72,1.72,0,0,0-.49-.19c-.38-.16-.37,0-.37-.52v-.39a11,11,0,0,0-.5-3.11v-.13h0a21.61,21.61,0,0,1-1.72-1.45,18.5,18.5,0,0,1-4.85-7.62,28.59,28.59,0,0,1-.67-6,21.17,21.17,0,0,1,2.41-8.63,18.64,18.64,0,0,1,4.17-5.29,5.63,5.63,0,0,0,.85-.84,1.71,1.71,0,0,0,.35-1.11h.09m0-1.32a1.3,1.3,0,0,0-1,.41,1.45,1.45,0,0,0-.4,1,.51.51,0,0,1-.1.24,3.37,3.37,0,0,1-.52.48l-.1.09A19.93,19.93,0,0,0,172.92,75a22.36,22.36,0,0,0-2.63,9.14,29.24,29.24,0,0,0,.76,6.6,19.64,19.64,0,0,0,5.26,8.16c.45.43.95.85,1.49,1.32a10.23,10.23,0,0,1,.36,2.46V103a1.57,1.57,0,0,0,1.05,1.72h.1l.25.08h-.08a1.15,1.15,0,0,0,.62.18,1.41,1.41,0,0,0,1.32-1.49h0V101a3.68,3.68,0,0,1,0-.47v-.21a.79.79,0,0,1,.13-.33,14.32,14.32,0,0,0,1.9-1.49,17.89,17.89,0,0,0,5.26-13.22,18.31,18.31,0,0,0-.78-5.09,23.1,23.1,0,0,0-3.69-7.37,25.72,25.72,0,0,0-2.35-2.65,3.9,3.9,0,0,1-.51-.63L180.55,68a.78.78,0,0,0-.09-.21,1.31,1.31,0,0,0-1.12-.73Z" fill="#fff"/><path d="M179.41,68.48l1,1.78a4.28,4.28,0,0,0,.71.88,24.47,24.47,0,0,1,2.22,2.54,21.62,21.62,0,0,1,3.46,6.94,17.33,17.33,0,0,1,.74,4.69,16.55,16.55,0,0,1-4.89,12.27,13.88,13.88,0,0,1-1.77,1.48.72.72,0,0,1-.62-.48,3.85,3.85,0,0,1-.49-1.31,6.48,6.48,0,0,1-.15-1.75v-.27S179.31,68.63,179.41,68.48Z" fill="#008b2a"/><path d="M179.41,68.39c0-.08-.08,0-.13,0a1.74,1.74,0,0,1-.32,1.06,5.63,5.63,0,0,1-.85.84,18.77,18.77,0,0,0-4.17,5.29,21.19,21.19,0,0,0-2.41,8.67,29,29,0,0,0,.7,6.08A18.62,18.62,0,0,0,177.09,98c.55.51,1.12,1,1.72,1.46.18,0,.2-.16.24-.26a6.43,6.43,0,0,0,.17-.76l.4-2.85Z" fill="#00ae42"/><path d="M257.18,104.36a.55.55,0,0,1-.35-.12h-.14l-.2-.17h-.15a1,1,0,0,1-.64-1v-.45a10.21,10.21,0,0,0-.44-2.85c-.55-.41-1.08-.86-1.6-1.33a18.86,18.86,0,0,1-5-7.92,28.39,28.39,0,0,1-.72-6.36,21.52,21.52,0,0,1,2.47-8.84,18.77,18.77,0,0,1,4.31-5.46l.11-.13a3.94,3.94,0,0,0,.65-.64,1.16,1.16,0,0,0,.19-.62.73.73,0,0,1,.2-.54,1,1,0,0,1,.49-.18.74.74,0,0,1,.58.38v.18l.89,1.63a4.8,4.8,0,0,0,.61.74,24.1,24.1,0,0,1,2.28,2.56,22,22,0,0,1,3.58,7.14,18.24,18.24,0,0,1,.77,4.92A17.27,17.27,0,0,1,260,98a15.19,15.19,0,0,1-1.78,1.52,1.52,1.52,0,0,0-.28.71v.2a3.11,3.11,0,0,0,0,.61v2.37C257.92,104.07,257.61,104.36,257.18,104.36Z" fill="#c2bfbf"/><path d="M256.34,68.39h0l1,1.77a5,5,0,0,0,.71.89,24.85,24.85,0,0,1,2.28,2.63,21.65,21.65,0,0,1,3.47,6.94,17.33,17.33,0,0,1,.74,4.69,16.55,16.55,0,0,1-4.89,12.27A13.65,13.65,0,0,1,257.83,99h0a2.55,2.55,0,0,0-.48,1.18h0a4.58,4.58,0,0,0-.09.9v2.4c0,.08,0,.17-.13.17a1.72,1.72,0,0,0-.49-.19c-.38-.16-.37,0-.37-.52v-.39a11.36,11.36,0,0,0-.5-3.11v-.12h0c-.6-.46-1.17-1-1.72-1.46a18.5,18.5,0,0,1-4.85-7.62,27.94,27.94,0,0,1-.66-6,21.15,21.15,0,0,1,2.4-8.63,18.77,18.77,0,0,1,4.17-5.29,5.19,5.19,0,0,0,.85-.84,1.81,1.81,0,0,0,.33-1.1h.08m0-1.31a1.24,1.24,0,0,0-1,.41,1.36,1.36,0,0,0-.39,1,.66.66,0,0,1-.11.24,3.37,3.37,0,0,1-.52.48l-.1.09A19.76,19.76,0,0,0,249.9,75a22.53,22.53,0,0,0-2.64,9.14,28.84,28.84,0,0,0,.77,6.61,19.57,19.57,0,0,0,5.26,8.15c.45.43.94.85,1.48,1.32a10.76,10.76,0,0,1,.37,2.46V103a1.56,1.56,0,0,0,1.05,1.72h.11l.25.08h-.08a1.15,1.15,0,0,0,.62.18,1.41,1.41,0,0,0,1.32-1.49h0V101a3.53,3.53,0,0,1,0-.46v-.22a1,1,0,0,1,.13-.33,14.32,14.32,0,0,0,1.9-1.49A17.88,17.88,0,0,0,265.7,85.3a18.33,18.33,0,0,0-.78-5.1,23.28,23.28,0,0,0-3.68-7.37,27,27,0,0,0-2.35-2.65,3.43,3.43,0,0,1-.51-.63L257.54,68a1,1,0,0,0-.09-.21,1.27,1.27,0,0,0-1.11-.72Z" fill="#fff"/><path d="M256.39,68.48l.95,1.78a4.64,4.64,0,0,0,.71.88,23.34,23.34,0,0,1,2.22,2.54,21.47,21.47,0,0,1,3.48,6.94,17.33,17.33,0,0,1,.74,4.69,16.55,16.55,0,0,1-4.89,12.27A13.65,13.65,0,0,1,257.83,99c-.33,0-.48-.25-.62-.48a3.85,3.85,0,0,1-.49-1.31,6.41,6.41,0,0,1-.15-1.75v-.24S256.27,68.63,256.39,68.48Z" fill="#008b2a"/><path d="M256.39,68.39c0-.08-.08,0-.12,0a1.75,1.75,0,0,1-.33,1.06,5.63,5.63,0,0,1-.85.84,18.77,18.77,0,0,0-4.17,5.29,21.18,21.18,0,0,0-2.4,8.67,28.35,28.35,0,0,0,.7,6.08A18.5,18.5,0,0,0,254.07,98c.55.51,1.13,1,1.73,1.46.17,0,.19-.16.24-.26a6.43,6.43,0,0,0,.17-.76l.39-2.85Z" fill="#00ae42"/><path d="M25.88,98.78a2.37,2.37,0,0,1,.43-1,1.25,1.25,0,0,1-.49-.45,2.9,2.9,0,0,1-.25-.57,10,10,0,0,1-.37-2.24V94a2.08,2.08,0,0,0-.11.74,17.23,17.23,0,0,1-.32,2.38,2,2,0,0,1-.28,1,.2.2,0,0,0,0,.11,10.28,10.28,0,0,1,.44,2.86v.34c0,.42,0,.34.33.47a1.44,1.44,0,0,1,.45.17c.11,0,.11-.08.11-.15V99.7a4.36,4.36,0,0,1,.08-.81Z" fill="#c2bfbf"/></svg>