<svg id="b84b2960-9d0f-42bf-9a64-a90c46a09170" data-name="Слой 1" xmlns="http://www.w3.org/2000/svg" width="217.27" height="167.92" viewBox="0 0 217.27 167.92"><rect x="24.72" y="20.91" width="120.27" height="1.15" fill="#e87474"/><path d="M15.93,57.44,13.5,51.11h0c0,.5.07,1.1.07,1.79v4.54h-.76V50.3H14l2.26,5.89h0L18.6,50.3h1.24v7.14H19v-4.6c0-.53,0-1.1.07-1.72h0l-2.45,6.32Z" fill="#fff"/><path d="M25,57.44l-.16-.76h0a2.28,2.28,0,0,1-.79.68,2.45,2.45,0,0,1-1,.18,1.83,1.83,0,0,1-1.25-.41A1.52,1.52,0,0,1,21.27,56c0-1.08.87-1.65,2.6-1.7l.9,0V53.9A1.36,1.36,0,0,0,24.5,53a1.11,1.11,0,0,0-.86-.3,3.58,3.58,0,0,0-1.52.41l-.25-.62a4.14,4.14,0,0,1,.87-.34,3.79,3.79,0,0,1,.94-.12,2,2,0,0,1,1.42.42,1.79,1.79,0,0,1,.46,1.37v3.65Zm-1.83-.57a1.63,1.63,0,0,0,1.19-.42,1.51,1.51,0,0,0,.43-1.16v-.48l-.81,0a2.87,2.87,0,0,0-1.39.3.91.91,0,0,0-.43.83.83.83,0,0,0,.27.67A1.11,1.11,0,0,0,23.13,56.87Z" fill="#fff"/><path d="M30.69,56a1.34,1.34,0,0,1-.56,1.15,2.61,2.61,0,0,1-1.56.41,3.43,3.43,0,0,1-1.66-.34v-.75a4.31,4.31,0,0,0,.83.31,3.61,3.61,0,0,0,.85.11,2,2,0,0,0,1-.2.69.69,0,0,0,.35-.62.66.66,0,0,0-.28-.54A4.52,4.52,0,0,0,28.58,55a6.31,6.31,0,0,1-1.07-.49,1.47,1.47,0,0,1-.46-.47,1.14,1.14,0,0,1-.16-.63,1.21,1.21,0,0,1,.53-1A2.53,2.53,0,0,1,28.88,52a4.34,4.34,0,0,1,1.69.35l-.28.66a3.94,3.94,0,0,0-1.46-.33,1.66,1.66,0,0,0-.87.18.56.56,0,0,0-.3.5.61.61,0,0,0,.11.36,1.23,1.23,0,0,0,.36.29,6.9,6.9,0,0,0,.94.4,3.38,3.38,0,0,1,1.28.7A1.18,1.18,0,0,1,30.69,56Z" fill="#fff"/><path d="M33.73,56.87a2.86,2.86,0,0,0,.42,0l.32-.07v.62a1.72,1.72,0,0,1-.39.11,4.3,4.3,0,0,1-.46,0c-1,0-1.56-.55-1.56-1.64V52.72H31.3v-.39l.76-.34.35-1.14h.46v1.24h1.56v.63H32.87v3.15a1.09,1.09,0,0,0,.23.74A.83.83,0,0,0,33.73,56.87Z" fill="#fff"/><path d="M37.8,57.54a2.44,2.44,0,0,1-1.88-.73,2.82,2.82,0,0,1-.68-2,3.13,3.13,0,0,1,.63-2.06A2.13,2.13,0,0,1,37.59,52a2,2,0,0,1,1.59.66,2.53,2.53,0,0,1,.58,1.75v.51H36.08a2.08,2.08,0,0,0,.47,1.43,1.64,1.64,0,0,0,1.28.49,4.29,4.29,0,0,0,1.7-.36v.72a3.79,3.79,0,0,1-1.73.35Zm-.22-4.87a1.32,1.32,0,0,0-1,.42,1.88,1.88,0,0,0-.45,1.16h2.79a1.76,1.76,0,0,0-.34-1.17A1.16,1.16,0,0,0,37.58,52.67Z" fill="#fff"/><path d="M43.59,52a3.1,3.1,0,0,1,.64.06l-.12.75a2.6,2.6,0,0,0-.58-.07,1.42,1.42,0,0,0-1.11.52A1.93,1.93,0,0,0,42,54.57v2.87h-.81V52.09h.66l.1,1h0a2.36,2.36,0,0,1,.71-.81A1.62,1.62,0,0,1,43.59,52Z" fill="#fff"/><rect x="0.58" y="63.16" width="54.67" height="54.67" rx="3" fill="#fff"/><path d="M52.24,118.4H3.58A3.58,3.58,0,0,1,0,114.82V66.16a3.59,3.59,0,0,1,3.58-3.58H52.24a3.59,3.59,0,0,1,3.58,3.58v48.66A3.58,3.58,0,0,1,52.24,118.4ZM3.58,63.73a2.43,2.43,0,0,0-2.43,2.43v48.66a2.43,2.43,0,0,0,2.43,2.43H52.24a2.43,2.43,0,0,0,2.43-2.43V66.16a2.43,2.43,0,0,0-2.43-2.43Z" fill="#ffb70a"/><path d="M101.48,55.54a1.74,1.74,0,0,1-.69,1.47,3,3,0,0,1-1.85.53,4.65,4.65,0,0,1-2-.33v-.8a5.39,5.39,0,0,0,1,.29,5.23,5.23,0,0,0,1,.11,2.07,2.07,0,0,0,1.25-.32,1,1,0,0,0,.42-.87,1.22,1.22,0,0,0-.15-.61,1.47,1.47,0,0,0-.5-.44,8.16,8.16,0,0,0-1.06-.45,3.4,3.4,0,0,1-1.43-.85A1.87,1.87,0,0,1,97.08,52a1.55,1.55,0,0,1,.62-1.31,2.54,2.54,0,0,1,1.64-.49,4.78,4.78,0,0,1,2,.39l-.25.72a4.41,4.41,0,0,0-1.72-.37,1.64,1.64,0,0,0-1,.28.93.93,0,0,0-.37.79,1.23,1.23,0,0,0,.13.61,1.28,1.28,0,0,0,.46.43,6,6,0,0,0,1,.44,3.87,3.87,0,0,1,1.54.86A1.69,1.69,0,0,1,101.48,55.54Z" fill="#fff"/><path d="M103.62,57.44h-.81v-7.6h.81Z" fill="#fff"/><path d="M108.63,57.44l-.16-.76h0a2.22,2.22,0,0,1-.8.68,2.37,2.37,0,0,1-1,.18,1.81,1.81,0,0,1-1.25-.41,1.52,1.52,0,0,1-.45-1.17c0-1.08.87-1.65,2.59-1.7l.91,0V53.9a1.36,1.36,0,0,0-.27-.93,1.11,1.11,0,0,0-.86-.3,3.58,3.58,0,0,0-1.52.41l-.25-.62a3.94,3.94,0,0,1,.87-.34,3.79,3.79,0,0,1,.94-.12,2.06,2.06,0,0,1,1.42.42,1.79,1.79,0,0,1,.46,1.37v3.65Zm-1.83-.57a1.63,1.63,0,0,0,1.19-.42,1.51,1.51,0,0,0,.43-1.16v-.48l-.81,0a2.87,2.87,0,0,0-1.39.3.91.91,0,0,0-.43.83.83.83,0,0,0,.27.67A1.11,1.11,0,0,0,106.8,56.87Z" fill="#fff"/><path d="M112.08,57.44l-2-5.35h.87l1.16,3.17a12.68,12.68,0,0,1,.45,1.45h0c0-.18.15-.53.34-1.07s.62-1.73,1.28-3.55h.87l-2,5.35Z" fill="#fff"/><path d="M118.17,57.54a2.43,2.43,0,0,1-1.87-.73,2.77,2.77,0,0,1-.68-2,3.13,3.13,0,0,1,.63-2.06A2.12,2.12,0,0,1,118,52a2,2,0,0,1,1.6.66,2.53,2.53,0,0,1,.58,1.75v.51h-3.68a2.08,2.08,0,0,0,.47,1.43,1.64,1.64,0,0,0,1.27.49,4.3,4.3,0,0,0,1.71-.36v.72a5.12,5.12,0,0,1-.81.27A4.88,4.88,0,0,1,118.17,57.54ZM118,52.67a1.3,1.3,0,0,0-1,.42,1.88,1.88,0,0,0-.45,1.16h2.79a1.76,1.76,0,0,0-.34-1.17A1.18,1.18,0,0,0,118,52.67Z" fill="#fff"/><rect x="80.88" y="63.2" width="54.67" height="54.67" rx="3" fill="#fff"/><path d="M132.54,118.44H83.88a3.59,3.59,0,0,1-3.58-3.58V66.2a3.59,3.59,0,0,1,3.58-3.58h48.66a3.58,3.58,0,0,1,3.58,3.58v48.66A3.58,3.58,0,0,1,132.54,118.44ZM83.88,63.77a2.43,2.43,0,0,0-2.43,2.43v48.66a2.43,2.43,0,0,0,2.43,2.43h48.66a2.43,2.43,0,0,0,2.43-2.43V66.2a2.43,2.43,0,0,0-2.43-2.43Z" fill="#ffb70a"/><path d="M181.62,55.54a1.74,1.74,0,0,1-.69,1.47,3,3,0,0,1-1.85.53,4.65,4.65,0,0,1-2-.33v-.8a5.65,5.65,0,0,0,1,.29,5.23,5.23,0,0,0,1,.11,2.07,2.07,0,0,0,1.25-.32,1,1,0,0,0,.42-.87,1.13,1.13,0,0,0-.15-.61,1.47,1.47,0,0,0-.5-.44,7.59,7.59,0,0,0-1.06-.45,3.4,3.4,0,0,1-1.43-.85,1.87,1.87,0,0,1-.42-1.27,1.55,1.55,0,0,1,.62-1.31,2.54,2.54,0,0,1,1.64-.49,4.86,4.86,0,0,1,2,.39l-.26.72a4.41,4.41,0,0,0-1.72-.37,1.64,1.64,0,0,0-1,.28.93.93,0,0,0-.37.79,1.23,1.23,0,0,0,.13.61,1.24,1.24,0,0,0,.47.43,5.45,5.45,0,0,0,1,.44,3.87,3.87,0,0,1,1.54.86A1.64,1.64,0,0,1,181.62,55.54Z" fill="#fff"/><path d="M183.76,57.44H183v-7.6h.81Z" fill="#fff"/><path d="M188.77,57.44l-.16-.76h0a2.28,2.28,0,0,1-.79.68,2.45,2.45,0,0,1-1,.18,1.83,1.83,0,0,1-1.25-.41,1.52,1.52,0,0,1-.45-1.17c0-1.08.87-1.65,2.6-1.7l.9,0V53.9a1.36,1.36,0,0,0-.27-.93,1.11,1.11,0,0,0-.86-.3,3.62,3.62,0,0,0-1.52.41l-.25-.62a4.14,4.14,0,0,1,.87-.34,3.81,3.81,0,0,1,.95-.12,2,2,0,0,1,1.41.42,1.79,1.79,0,0,1,.47,1.37v3.65Zm-1.83-.57a1.63,1.63,0,0,0,1.19-.42,1.51,1.51,0,0,0,.43-1.16v-.48l-.81,0a2.87,2.87,0,0,0-1.39.3.93.93,0,0,0-.43.83.83.83,0,0,0,.27.67A1.11,1.11,0,0,0,186.94,56.87Z" fill="#fff"/><path d="M192.22,57.44l-2-5.35h.86l1.16,3.17c.26.74.41,1.23.46,1.45h0a8.33,8.33,0,0,1,.33-1.07c.2-.55.62-1.73,1.29-3.55h.87l-2,5.35Z" fill="#fff"/><path d="M198.32,57.54a2.44,2.44,0,0,1-1.88-.73,2.82,2.82,0,0,1-.68-2,3.13,3.13,0,0,1,.63-2.06,2.13,2.13,0,0,1,1.72-.76,2,2,0,0,1,1.59.66,2.53,2.53,0,0,1,.58,1.75v.51H196.6a2.08,2.08,0,0,0,.47,1.43,1.64,1.64,0,0,0,1.27.49,4.3,4.3,0,0,0,1.71-.36v.72a3.79,3.79,0,0,1-1.73.35Zm-.22-4.87a1.32,1.32,0,0,0-1,.42,1.88,1.88,0,0,0-.45,1.16h2.79a1.76,1.76,0,0,0-.34-1.17A1.17,1.17,0,0,0,198.1,52.67Z" fill="#fff"/><rect x="148.96" y="3.65" width="1.15" height="21.29" fill="#71b429"/><polygon points="149.54 0 146.95 5.37 152.13 5.37 149.54 0" fill="#71b429"/><rect x="143.78" width="1.15" height="21.29" fill="#e87474"/><rect x="70.7" y="3.65" width="1.15" height="21.29" fill="#71b429"/><rect x="28.11" y="24.94" width="1.15" height="21.29" fill="#71b429"/><rect x="108.68" y="24.94" width="1.15" height="21.29" fill="#71b429"/><rect x="28.17" y="24.94" width="122" height="1.15" fill="#71b429"/><rect x="24.09" y="20.91" width="1.15" height="21.29" fill="#e87474"/><polygon points="71.27 0 68.68 5.37 73.86 5.37 71.27 0" fill="#71b429"/><polygon points="24.66 46.43 22.07 41.05 27.25 41.05 24.66 46.43" fill="#e87474"/><rect x="65.52" width="1.15" height="21.29" fill="#e87474"/><g opacity="0.5"><path d="M213.72,118.4h-3.46v-1.15h3.43Zm-6.31,0H204v-1.15h3.43Zm-6.28,0H197.7v-1.15h3.43Zm-6.28,0h-3.43v-1.15h3.43Zm-6.28,0h-3.42v-1.15h3.42Zm-6.28,0h-3.42v-1.15h3.42Zm-6.28,0h-3.42v-1.15H176Zm-6.28,0h-3.42v-1.15h3.42Zm-6.49-.48a3.59,3.59,0,0,1-1.79-3.1v-.27h1.15v.27a2.46,2.46,0,0,0,1.21,2.11Zm53.38-1-.94-.66a2.46,2.46,0,0,0,.44-1.39v-1.59h1.15v1.59A3.57,3.57,0,0,1,216.62,116.87Zm-54-5.18h-1.15v-3.42h1.15Zm54.67-1.32h-1.15V107h1.15Zm-54.67-5h-1.15V102h1.15Zm54.67-1.32h-1.15v-3.42h1.15Zm-54.67-5h-1.15V95.71h1.15Zm54.67-1.32h-1.15V94.39h1.15Zm-54.67-5h-1.15V89.43h1.15Zm54.67-1.32h-1.15V88.11h1.15Zm-54.67-5h-1.15V83.15h1.15Zm54.67-1.32h-1.15V81.83h1.15Zm-54.67-5h-1.15V76.87h1.15ZM217.27,79h-1.15V75.55h1.15ZM162.6,74h-1.15V70.59h1.15Zm54.67-1.32h-1.15V69.27h1.15Zm-54.67-5h-1.15V66.16a3.55,3.55,0,0,1,.65-2.06l.94.66a2.44,2.44,0,0,0-.44,1.4Zm54.67-1.32h-1.15v-.26a2.45,2.45,0,0,0-1.24-2.11l.57-1a3.6,3.6,0,0,1,1.82,3.11Zm-4.89-2.69H209V62.58h3.42Zm-6.27,0h-3.43V62.58h3.43Zm-6.28,0H196.4V62.58h3.43Zm-6.28,0h-3.43V62.58h3.43Zm-6.28,0h-3.43V62.58h3.43Zm-6.28,0h-3.43V62.58H181Zm-6.28,0h-3.42V62.58h3.42Zm-6.28,0H165V62.58h3.42Z" fill="#ffb70a"/></g><g opacity="0.5"><rect x="188.73" y="44.51" width="1.15" height="1.73" fill="#71b429"/><path d="M189.88,41.31h-1.15V37.47h1.15Zm0-7h-1.15V30.44h1.15Z" fill="#71b429"/><polygon points="189.88 27.24 188.73 27.24 188.73 26.09 187.57 26.09 187.57 24.94 189.88 24.94 189.88 27.24" fill="#71b429"/><path d="M184.7,26.09h-3.46V24.94h3.46Zm-6.33,0h-3.46V24.94h3.46Zm-6.33,0h-3.46V24.94H172Zm-6.33,0h-3.46V24.94h3.46Zm-6.33,0h-3.46V24.94h3.46Z" fill="#71b429"/><rect x="151.32" y="24.94" width="1.73" height="1.15" fill="#71b429"/></g><path d="M166.18,17.46V10.3h3.17a4.22,4.22,0,0,1,1.46.19,1.65,1.65,0,0,1,.8.68,2.13,2.13,0,0,1,.29,1.08,1.81,1.81,0,0,1-.49,1.29,2.47,2.47,0,0,1-1.52.66,2.35,2.35,0,0,1,.57.36,4.77,4.77,0,0,1,.78.95l1.25,2H171.3l-1-1.49c-.28-.43-.5-.76-.68-1a2.38,2.38,0,0,0-.48-.48,1.68,1.68,0,0,0-.44-.19,3.1,3.1,0,0,0-.52,0h-1.1v3.18Zm.95-4h2a3,3,0,0,0,1-.14,1.09,1.09,0,0,0,.56-.42,1.26,1.26,0,0,0,.19-.65,1.08,1.08,0,0,0-.37-.83,1.74,1.74,0,0,0-1.17-.33h-2.26Z" fill="#55990b"/><path d="M176.83,15.79l.9.11a2.27,2.27,0,0,1-.79,1.24,2.44,2.44,0,0,1-1.49.44,2.35,2.35,0,0,1-1.8-.71,2.69,2.69,0,0,1-.67-2,2.86,2.86,0,0,1,.68-2,2.28,2.28,0,0,1,1.74-.72,2.21,2.21,0,0,1,1.7.7,2.84,2.84,0,0,1,.66,2v.23h-3.87a2,2,0,0,0,.48,1.31,1.45,1.45,0,0,0,1.09.45,1.33,1.33,0,0,0,.82-.25A1.73,1.73,0,0,0,176.83,15.79Zm-2.89-1.42h2.89a1.67,1.67,0,0,0-.33-1,1.34,1.34,0,0,0-1.09-.51,1.37,1.37,0,0,0-1,.4A1.59,1.59,0,0,0,173.94,14.37Z" fill="#55990b"/><path d="M182.22,16.82a3.16,3.16,0,0,1-.94.58,2.58,2.58,0,0,1-1,.18,1.86,1.86,0,0,1-1.31-.42,1.38,1.38,0,0,1-.46-1.07,1.44,1.44,0,0,1,.17-.69,1.51,1.51,0,0,1,.46-.51,2,2,0,0,1,.63-.29,6.85,6.85,0,0,1,.78-.13,8.39,8.39,0,0,0,1.57-.3v-.23a1,1,0,0,0-.25-.76,1.46,1.46,0,0,0-1-.3,1.56,1.56,0,0,0-.91.22,1.3,1.3,0,0,0-.44.77l-.86-.12a2.15,2.15,0,0,1,.39-.89,1.57,1.57,0,0,1,.77-.52,3.53,3.53,0,0,1,1.18-.18,3.26,3.26,0,0,1,1.08.15,1.61,1.61,0,0,1,.61.39,1.38,1.38,0,0,1,.27.6,4.68,4.68,0,0,1,0,.81v1.18a12.5,12.5,0,0,0,.05,1.55,2.09,2.09,0,0,0,.22.62h-.91A1.77,1.77,0,0,1,182.22,16.82Zm-.07-2a6.45,6.45,0,0,1-1.44.33,3.36,3.36,0,0,0-.76.17.73.73,0,0,0-.35.29.74.74,0,0,0-.12.42.75.75,0,0,0,.26.58,1.14,1.14,0,0,0,.78.24,1.77,1.77,0,0,0,.9-.23,1.37,1.37,0,0,0,.59-.6,2.24,2.24,0,0,0,.14-.88Z" fill="#55990b"/><path d="M187.76,17.46V16.8a1.61,1.61,0,0,1-1.45.78,2,2,0,0,1-1.14-.35,2.21,2.21,0,0,1-.8-.95,3.32,3.32,0,0,1-.29-1.41,3.73,3.73,0,0,1,.26-1.41,2,2,0,0,1,.78-1,2.09,2.09,0,0,1,1.15-.33,1.67,1.67,0,0,1,1.43.71V10.3h.88v7.16ZM185,14.87a2.26,2.26,0,0,0,.42,1.49,1.26,1.26,0,0,0,1,.49,1.2,1.2,0,0,0,1-.47,2.15,2.15,0,0,0,.41-1.44,2.45,2.45,0,0,0-.41-1.56,1.28,1.28,0,0,0-1-.5,1.22,1.22,0,0,0-1,.48A2.37,2.37,0,0,0,185,14.87Z" fill="#55990b"/><path d="M26.74,17.46l-1.9-7.16h1L26.9,15q.18.74.3,1.47c.18-.77.29-1.21.32-1.33l1.37-4.83H30l1,3.62a18.36,18.36,0,0,1,.56,2.54c.09-.46.21-1,.36-1.56l1.12-4.6H34l-2,7.16h-.91L29.66,12c-.13-.45-.2-.73-.23-.84q-.11.5-.21.84L27.7,17.46Z" fill="#d65d5d"/><path d="M34.62,17.46V12.27h.79v.79a2.29,2.29,0,0,1,.56-.73,1,1,0,0,1,.57-.17,1.71,1.71,0,0,1,.9.28l-.3.81a1.35,1.35,0,0,0-.65-.19.79.79,0,0,0-.51.18.84.84,0,0,0-.33.48,3.31,3.31,0,0,0-.15,1v2.72Z" fill="#d65d5d"/><path d="M38,11.31v-1h.88v1Zm0,6.15V12.27h.88v5.19Z" fill="#d65d5d"/><path d="M42.1,16.67l.13.78a3.46,3.46,0,0,1-.66.08,1.56,1.56,0,0,1-.75-.15.94.94,0,0,1-.37-.4,3.29,3.29,0,0,1-.1-1V13H39.7v-.69h.65V11l.87-.53v1.81h.88V13h-.88v3a1.49,1.49,0,0,0,.05.48.35.35,0,0,0,.15.17.51.51,0,0,0,.3.07A3.53,3.53,0,0,0,42.1,16.67Z" fill="#d65d5d"/><path d="M46.51,15.79l.91.11a2.23,2.23,0,0,1-.8,1.24,2.39,2.39,0,0,1-1.48.44,2.35,2.35,0,0,1-1.8-.71,2.69,2.69,0,0,1-.67-2,2.86,2.86,0,0,1,.67-2,2.3,2.3,0,0,1,1.75-.72,2.21,2.21,0,0,1,1.7.7,2.84,2.84,0,0,1,.66,2v.23H43.58a2,2,0,0,0,.48,1.31,1.45,1.45,0,0,0,1.09.45A1.33,1.33,0,0,0,46,16.6,1.65,1.65,0,0,0,46.51,15.79Zm-2.88-1.42h2.89a1.74,1.74,0,0,0-.33-1,1.34,1.34,0,0,0-1.09-.51,1.41,1.41,0,0,0-1,.4A1.63,1.63,0,0,0,43.63,14.37Z" fill="#d65d5d"/><rect x="108.1" y="130.25" width="1.15" height="21.29" fill="#ffb70a"/><rect x="28.17" y="126.8" width="1.15" height="24.75" fill="#ffb70a"/><polygon points="108.68 126.6 106.09 131.98 111.27 131.98 108.68 126.6" fill="#ffb70a"/><polygon points="190.16 126.6 187.57 131.98 192.75 131.98 190.16 126.6" fill="#ffb70a" opacity="0.5"/><rect x="28.17" y="151.54" width="81.14" height="1.15" fill="#ffb70a"/><g opacity="0.5"><rect x="189.3" y="133.13" width="1.15" height="1.73" fill="#ffb70a"/><path d="M190.45,147.51H189.3v-3.45h1.15Zm0-6.33H189.3v-3.45h1.15Z" fill="#ffb70a"/><polygon points="190.45 152.69 188.15 152.69 188.15 151.54 189.3 151.54 189.3 150.39 190.45 150.39 190.45 152.69" fill="#ffb70a"/><path d="M185.16,152.69h-3.59v-1.15h3.59Zm-6.58,0H175v-1.15h3.59Zm-6.58,0h-3.59v-1.15H172Zm-6.59,0h-3.59v-1.15h3.59Zm-6.58,0h-3.59v-1.15h3.59Zm-6.58,0h-3.59v-1.15h3.59Zm-6.58,0h-3.59v-1.15h3.59Zm-6.58,0H135.5v-1.15h3.59Zm-6.58,0h-3.59v-1.15h3.59Zm-6.58,0h-3.59v-1.15h3.59Zm-6.59,0h-3.59v-1.15h3.59Z" fill="#ffb70a"/><rect x="111.04" y="151.54" width="1.73" height="1.15" fill="#ffb70a"/></g><path d="M84.78,165.93v-7.16H88a4.41,4.41,0,0,1,1.45.19,1.58,1.58,0,0,1,.8.69,2,2,0,0,1,.3,1.07A1.81,1.81,0,0,1,90,162a2.44,2.44,0,0,1-1.52.66,2.35,2.35,0,0,1,.57.36,4.8,4.8,0,0,1,.79.95l1.24,2H89.9l-1-1.49c-.27-.43-.5-.76-.68-1a2.29,2.29,0,0,0-.48-.47,1.16,1.16,0,0,0-.43-.19,2.3,2.3,0,0,0-.53,0h-1.1v3.18Zm1-4h2a3,3,0,0,0,1-.13,1.12,1.12,0,0,0,.56-.43,1.15,1.15,0,0,0,.19-.65,1.06,1.06,0,0,0-.37-.83,1.69,1.69,0,0,0-1.16-.33H85.73Z" fill="#e88d0b"/><path d="M95.43,164.26l.91.11a2.28,2.28,0,0,1-.8,1.24,2.7,2.7,0,0,1-3.29-.26,2.78,2.78,0,0,1-.66-2,2.86,2.86,0,0,1,.67-2,2.28,2.28,0,0,1,1.75-.72,2.23,2.23,0,0,1,1.7.7,2.84,2.84,0,0,1,.66,2s0,.13,0,.23H92.49a2,2,0,0,0,.49,1.31,1.44,1.44,0,0,0,1.08.45,1.36,1.36,0,0,0,.83-.25A1.72,1.72,0,0,0,95.43,164.26Zm-2.89-1.42h2.9a1.77,1.77,0,0,0-.33-1,1.36,1.36,0,0,0-1.09-.51,1.38,1.38,0,0,0-1,.4A1.63,1.63,0,0,0,92.54,162.84Z" fill="#e88d0b"/><path d="M97.44,167.92v-7.18h.8v.68a2,2,0,0,1,.64-.6,1.8,1.8,0,0,1,.87-.19,2,2,0,0,1,1.17.34,2.15,2.15,0,0,1,.76,1,3.77,3.77,0,0,1,0,2.8,2.17,2.17,0,0,1-.83,1,2.22,2.22,0,0,1-1.15.34,1.62,1.62,0,0,1-.79-.19,1.75,1.75,0,0,1-.57-.47v2.53Zm.8-4.55a2.27,2.27,0,0,0,.4,1.48,1.23,1.23,0,0,0,1,.47,1.28,1.28,0,0,0,1-.49,2.34,2.34,0,0,0,.41-1.54,2.29,2.29,0,0,0-.4-1.48,1.24,1.24,0,0,0-1-.49,1.26,1.26,0,0,0-1,.52A2.34,2.34,0,0,0,98.24,163.37Z" fill="#e88d0b"/><path d="M103,165.93v-7.16h.88v7.16Z" fill="#e88d0b"/><path d="M105.23,159.78v-1h.88v1Zm0,6.15v-5.19h.88v5.19Z" fill="#e88d0b"/><path d="M110.83,164l.86.11a2.19,2.19,0,0,1-.72,1.4,2.11,2.11,0,0,1-1.43.51,2.26,2.26,0,0,1-1.72-.7,2.82,2.82,0,0,1-.64-2,3.54,3.54,0,0,1,.28-1.47,1.91,1.91,0,0,1,.84-.95,2.51,2.51,0,0,1,1.24-.31,2.18,2.18,0,0,1,1.38.42,2,2,0,0,1,.69,1.22l-.85.13a1.48,1.48,0,0,0-.44-.79,1.12,1.12,0,0,0-.75-.26,1.34,1.34,0,0,0-1.07.48,2.22,2.22,0,0,0-.42,1.5,2.31,2.31,0,0,0,.4,1.52,1.3,1.3,0,0,0,1,.47,1.23,1.23,0,0,0,.86-.31A1.6,1.6,0,0,0,110.83,164Z" fill="#e88d0b"/><path d="M115.83,165.29a3.44,3.44,0,0,1-.94.59,2.83,2.83,0,0,1-1,.17,1.86,1.86,0,0,1-1.31-.42,1.36,1.36,0,0,1-.46-1.07,1.47,1.47,0,0,1,.17-.69,1.59,1.59,0,0,1,.45-.51,2.2,2.2,0,0,1,.64-.29,6.85,6.85,0,0,1,.78-.13,7.64,7.64,0,0,0,1.57-.3v-.23a1,1,0,0,0-.25-.76,1.46,1.46,0,0,0-1-.3,1.62,1.62,0,0,0-.92.22,1.35,1.35,0,0,0-.43.77l-.86-.12a2.2,2.2,0,0,1,.38-.89,1.73,1.73,0,0,1,.78-.52,3.53,3.53,0,0,1,1.18-.18,3.26,3.26,0,0,1,1.08.15,1.51,1.51,0,0,1,.61.4,1.29,1.29,0,0,1,.27.59,5,5,0,0,1,0,.81v1.18a11.75,11.75,0,0,0,.06,1.55,2.09,2.09,0,0,0,.22.62H116A1.77,1.77,0,0,1,115.83,165.29Zm-.07-2a6.45,6.45,0,0,1-1.44.33,3.64,3.64,0,0,0-.77.17.81.81,0,0,0-.34.29.77.77,0,0,0-.13.42.73.73,0,0,0,.27.58,1.14,1.14,0,0,0,.78.24,1.87,1.87,0,0,0,.9-.22,1.31,1.31,0,0,0,.58-.61,2,2,0,0,0,.15-.88Z" fill="#e88d0b"/><path d="M119.93,165.14l.12.78a3.37,3.37,0,0,1-.66.08,1.49,1.49,0,0,1-.74-.15.84.84,0,0,1-.37-.4,2.93,2.93,0,0,1-.11-1v-3h-.65v-.69h.65v-1.28l.87-.53v1.81h.89v.69H119v3a1.49,1.49,0,0,0,0,.48.35.35,0,0,0,.15.17.51.51,0,0,0,.3.07A2.13,2.13,0,0,0,119.93,165.14Z" fill="#e88d0b"/><path d="M120.79,159.78v-1h.88v1Zm0,6.15v-5.19h.88v5.19Z" fill="#e88d0b"/><path d="M122.68,163.34a2.71,2.71,0,0,1,.8-2.14,2.44,2.44,0,0,1,1.63-.57,2.32,2.32,0,0,1,1.75.7,2.66,2.66,0,0,1,.68,1.93,3.44,3.44,0,0,1-.3,1.58,2.1,2.1,0,0,1-.88.89,2.55,2.55,0,0,1-1.25.32,2.36,2.36,0,0,1-1.76-.7A2.79,2.79,0,0,1,122.68,163.34Zm.9,0a2.21,2.21,0,0,0,.44,1.49,1.46,1.46,0,0,0,2.18,0,2.28,2.28,0,0,0,.43-1.52,2.16,2.16,0,0,0-.43-1.46,1.4,1.4,0,0,0-1.09-.5,1.39,1.39,0,0,0-1.09.5A2.19,2.19,0,0,0,123.58,163.34Z" fill="#e88d0b"/><path d="M128.57,165.93v-5.19h.79v.74a1.86,1.86,0,0,1,1.65-.85,2.2,2.2,0,0,1,.86.16,1.38,1.38,0,0,1,.59.45,1.66,1.66,0,0,1,.27.65,4.23,4.23,0,0,1,.05.85v3.19h-.88v-3.15a2.38,2.38,0,0,0-.1-.81.82.82,0,0,0-.36-.42,1.15,1.15,0,0,0-.62-.16,1.44,1.44,0,0,0-1,.36,1.74,1.74,0,0,0-.4,1.35v2.83Z" fill="#e88d0b"/><circle cx="153.05" cy="90.53" r="1.44" fill="#5e6981"/><circle cx="148.44" cy="90.53" r="1.44" fill="#5e6981"/><circle cx="143.84" cy="90.53" r="1.44" fill="#5e6981"/><path d="M34.55,98.21c.21-1.72.15-2,1.43-1.7h.33a7.57,7.57,0,0,0,3-.51c1.63-.76,2.6-2,1-1.68-3.67.76-3.94-.49-3.94-.49,3.88-5.78,5.51-13.08,4.1-14.87C36.7,74.13,30.08,76.44,30,76.44h0a12.18,12.18,0,0,0-2.48-.23,6.1,6.1,0,0,0-3.88,1.15s-11.81-4.85-11.27,6.13c.11,2.31,3.35,17.69,7.2,13,1.41-1.69,2.77-3.13,2.77-3.13a3.58,3.58,0,0,0,2.31.6h.07a2.43,2.43,0,0,0,0,.66c-1,1.16-.7,1.31-2.68,1.71s-.83,1.16-.06,1.34a4.07,4.07,0,0,0,4.56-1.48l-.06.24c.39.31.36,2.24.41,3.61a13.1,13.1,0,0,0,.43,3.47c.28.76.61,2.71,3.23,2.16,2.18-.46,3.84-1.16,4-7.4"/><path d="M29.65,106.06a2.58,2.58,0,0,1-2.52-2.19,2.25,2.25,0,0,1-.08-.24,13.4,13.4,0,0,1-.45-3.55c0-.24,0-.52,0-.8a12.42,12.42,0,0,0-.22-2.49A4.31,4.31,0,0,1,21.87,98c-.42-.1-1.23-.43-1.22-1s.75-.74,1.3-.85c1.5-.31,1.6-.44,2.07-1l.4-.5c0-.1,0-.21,0-.31a3.74,3.74,0,0,1-2.07-.54c-.38.4-1.49,1.61-2.62,3a2,2,0,0,1-2.16.88c-3.11-1-5.38-12.12-5.48-14.07-.15-3,.63-5.2,2.31-6.39,3.13-2.21,8.27-.38,9.17,0A6.47,6.47,0,0,1,27.49,76a14.54,14.54,0,0,1,2.47.22H30c2.12-.6,7.4-1.54,10.7,2.63,1.47,1.87-.1,9.16-4,15,.16.21.86.79,3.6.22.23,0,1-.2,1.1.27s-1.08,1.49-1.94,1.89a7.79,7.79,0,0,1-3.16.53H36c-.39-.08-.75-.14-.87-.05s-.2.55-.28,1.22l0,.31a.31.31,0,0,1,0,.12c-.15,6.26-1.84,7.1-4.19,7.59A3.94,3.94,0,0,1,29.65,106.06ZM26.71,96.4a7,7,0,0,1,.37,2.87c0,.27,0,.55,0,.8a13.08,13.08,0,0,0,.42,3.42l.08.23c.28.88.71,2.2,2.85,1.75,1.88-.4,3.65-.78,3.8-7.16a.22.22,0,0,1,0-.14l0-.29c.1-.9.16-1.34.48-1.58s.64-.16,1.22,0h.27a7.32,7.32,0,0,0,3-.49,3.75,3.75,0,0,0,1.64-1.25,1.5,1.5,0,0,0-.51,0c-3.81.79-4.2-.52-4.23-.68a.26.26,0,0,1,0-.19C40,88,41.67,80.83,40.32,79.11c-3.11-3.94-8.15-3-10.18-2.46l-.18,0a13.36,13.36,0,0,0-2.41-.23h-.07a5.91,5.91,0,0,0-3.74,1.11.26.26,0,0,1-.24,0c-.05,0-5.69-2.3-8.82-.08-1.54,1.09-2.24,3.09-2.1,6,.1,2.08,2.42,12.71,5.14,13.62.53.17,1.06-.06,1.61-.72,1.4-1.69,2.78-3.13,2.79-3.15a.24.24,0,0,1,.32,0,3.27,3.27,0,0,0,2.15.55h.09a.28.28,0,0,1,.19.09.23.23,0,0,1,.06.2,1.94,1.94,0,0,0,0,.59.25.25,0,0,1-.06.2c-.19.22-.33.4-.45.56-.56.72-.75.9-2.37,1.23-.83.17-.9.36-.9.36s.36.37.85.49a3.82,3.82,0,0,0,4.29-1.38.25.25,0,0,1,.45.21Z" fill="#fff"/><path d="M29.68,106a2.6,2.6,0,0,1-2.54-2.18l-.09-.27a10.23,10.23,0,0,1-.24-3.57,8.81,8.81,0,0,0-.4-3.18,4,4,0,0,1-3.07,1.32,5.65,5.65,0,0,1-1.42-.19c-.49-.11-1.28-.47-1.27-1s.77-.78,1.34-.89c1.46-.3,1.57-.44,2-1,.12-.14.24-.31.42-.5v-.19h-.11a3.86,3.86,0,0,1-2-.55c-.41.43-1.49,1.62-2.6,3a2.33,2.33,0,0,1-1.7,1c-3.62,0-5.95-12.54-6-14.19-.13-2.6.41-4.55,1.62-5.78a6.11,6.11,0,0,1,4.62-1.68,15.87,15.87,0,0,1,5.27,1,6.37,6.37,0,0,1,3.8-1.16h.14a14.31,14.31,0,0,1,2.44.24,12.56,12.56,0,0,1,3.75-.59,8.64,8.64,0,0,1,7.07,3.18c1.48,1.88-.08,9.18-4,15,.12.14.49.42,1.54.42a11,11,0,0,0,2-.24,2.22,2.22,0,0,1,.51-.06c.5,0,.63.25.66.4.15.66-1.16,1.51-2,1.91a7.48,7.48,0,0,1-2.88.54H36a2.65,2.65,0,0,0-.48-.07c-.32,0-.37.08-.49,1.26a3.14,3.14,0,0,1-.08.83l-.22.68a3.9,3.9,0,0,1-.18,1.27,5.11,5.11,0,0,0-.21,1.22,4.16,4.16,0,0,1-3.7,4A4.73,4.73,0,0,1,29.68,106Z" fill="#336791"/><path d="M33.67,75.87A8.32,8.32,0,0,1,40.5,79c1.4,1.79-.22,9.11-4.1,14.87,0,0,.16.73,1.88.73a10.25,10.25,0,0,0,2.06-.24h0a1.69,1.69,0,0,1,.45,0c.94,0,0,1.07-1.44,1.74a7.29,7.29,0,0,1-2.77.52H36a3,3,0,0,0-.52-.07c-.77,0-.67.71-.86,2.32l-.21.61A25.28,25.28,0,0,1,34,102a3.85,3.85,0,0,1-3.47,3.69,4.14,4.14,0,0,1-.87.11c-1.81,0-2.08-1.53-2.31-2.31a9.9,9.9,0,0,1-.23-3.47c0-1.56-.23-3.27-.61-3.58l.06-.23a3.78,3.78,0,0,1-3.22,1.65A5.53,5.53,0,0,1,22,97.66c-.77-.2-1.95-.93.06-1.34s1.69-.61,2.68-1.72a2.36,2.36,0,0,1,0-.65h-.41a3.63,3.63,0,0,1-2-.62s-1.4,1.51-2.83,3.22a2,2,0,0,1-1.47.86c-3.18,0-5.63-11.88-5.78-13.86-.25-5.87,2.9-7.24,6-7.24a15.81,15.81,0,0,1,5.31,1.08,6,6,0,0,1,3.76-1.16h.13a12.61,12.61,0,0,1,2.45.21h0a11.93,11.93,0,0,1,3.75-.57m0-.59a13,13,0,0,0-3.81.59,13.73,13.73,0,0,0-2.39-.24h-.14a6.78,6.78,0,0,0-3.84,1.09,16.33,16.33,0,0,0-5.22-1,6.43,6.43,0,0,0-4.84,1.78c-1.26,1.32-1.83,3.35-1.71,6C11.79,84.53,14,98,18.06,98A2.55,2.55,0,0,0,20,96.92c1-1.16,1.95-2.26,2.44-2.78a4,4,0,0,0,1.55.44l-.19.24c-.42.54-.5.63-1.85.92-.43.09-1.56.32-1.58,1.15s1.34,1.29,1.5,1.32a6.29,6.29,0,0,0,1.49.2,4.39,4.39,0,0,0,2.95-1.08,11.14,11.14,0,0,1,.23,2.64,10.13,10.13,0,0,0,.22,3.68l.08.26a2.88,2.88,0,0,0,2.82,2.39,4.7,4.7,0,0,0,1-.12A4.43,4.43,0,0,0,34.56,102a5,5,0,0,1,.2-1.15A4.76,4.76,0,0,0,35,99.55l.17-.52a.2.2,0,0,0,0-.11c0-.32.07-.59.09-.84a5.51,5.51,0,0,1,.15-1h0a2.67,2.67,0,0,1,.4,0h.84a7.84,7.84,0,0,0,3-.58c.89-.41,2.31-1.34,2.14-2.23a.86.86,0,0,0-.95-.63,3.53,3.53,0,0,0-.56,0h0a9.7,9.7,0,0,1-1.94.23,2.49,2.49,0,0,1-1.21-.16c3.64-5.59,5.53-13,3.83-15.18A8.87,8.87,0,0,0,33.67,75.28Z" fill="#fff"/><path d="M29.94,106a3.16,3.16,0,0,1-3.06-2.39c-.43-.91-.48-5-.39-8.16a.25.25,0,0,1,.25-.24h0a.25.25,0,0,1,.24.26c-.12,4,0,7.27.36,8a2.67,2.67,0,0,0,3.24,2l.17,0,.06,0a3.33,3.33,0,0,0,3.09-3.12l.81-6.4A.24.24,0,0,1,35,95.6a.25.25,0,0,1,.21.28l-.8,6.38a3.83,3.83,0,0,1-3.52,3.58l-.17,0A3,3,0,0,1,29.94,106ZM18.05,97.61a1.52,1.52,0,0,1-.51-.09c-3.11-1-5.39-12.11-5.48-14.06-.17-3,.6-5.2,2.28-6.39,3.35-2.4,9.08-.11,9.33,0a.25.25,0,0,1,.13.33.24.24,0,0,1-.32.14c-.06,0-5.72-2.29-8.85-.06-1.53,1.09-2.23,3.1-2.07,6,.1,2.08,2.42,12.72,5.13,13.62.55.18,1.07-.06,1.62-.72,1.45-1.69,2.69-3,2.7-3a.25.25,0,0,1,.36,0,.25.25,0,0,1,0,.35s-1.25,1.35-2.69,3A2.19,2.19,0,0,1,18.05,97.61ZM36.39,94a.23.23,0,0,1-.14,0,.25.25,0,0,1-.07-.35C40,88,41.64,80.81,40.29,79.11c-3.6-4.61-9.72-2.63-10.22-2.45l0,0a.27.27,0,0,1-.32-.13.24.24,0,0,1,.1-.32l.06,0h0c.82-.28,7.08-2.15,10.8,2.6,1.48,1.86-.12,9.2-4.1,15.11A.23.23,0,0,1,36.39,94Z" fill="#fff"/><path d="M36.58,96.71a3.17,3.17,0,0,1-1.52-.28.68.68,0,0,1-.38-.55c-.08-1.63.8-1.89,1.28-2l.18,0v0a2.33,2.33,0,0,0-.42-.62,5.73,5.73,0,0,1-.94-1.5,9.12,9.12,0,0,0-.43-.81c-1-1.77-2.81-5.07-1.63-6.76.57-.83,1.78-1.13,3.58-.9a10.33,10.33,0,0,0-2.42-4,8.78,8.78,0,0,0-6.42-2.8h-.12A5.67,5.67,0,0,0,23.15,78c-2.43,2.44-2.37,6.83-2.37,6.88a.23.23,0,0,1-.24.25.26.26,0,0,1-.26-.24c0-.19-.06-4.65,2.51-7.24a6.13,6.13,0,0,1,4.68-1.78c7,.11,9.38,7,9.37,7.56a.32.32,0,0,1-.27.31c-1.81-.28-3,0-3.44.65-1,1.43.8,4.67,1.66,6.23a8.5,8.5,0,0,1,.45.86,5.15,5.15,0,0,0,.87,1.37,2.26,2.26,0,0,1,.53.89,0,0,0,0,1,0,0c.1.18.71.87,3.63.26.23-.05.95-.19,1.1.27.21.63-1.08,1.5-1.94,1.89A7.55,7.55,0,0,1,36.58,96.71Zm-.19-2.48a1.43,1.43,0,0,1-.29.1c-.44.13-1,.29-.92,1.52,0,0,0,.07.13.15a6.05,6.05,0,0,0,3.92-.28,3.53,3.53,0,0,0,1.67-1.28,3.13,3.13,0,0,0-.52.06c-1.82.38-3.1.34-3.8-.12A1.57,1.57,0,0,1,36.39,94.23Z" fill="#fff"/><path d="M25.46,94.15a1.21,1.21,0,0,1,.45.12,1.37,1.37,0,0,1,.61,1.81,3.77,3.77,0,0,1-3.25,1.71,5.53,5.53,0,0,1-1.34-.17c-.77-.2-1.95-.92.06-1.34s1.69-.6,2.68-1.71h0a1,1,0,0,1,.74-.4m0-.59a1.57,1.57,0,0,0-1.16.55h0c-.22.24-.38.45-.52.63-.41.53-.49.62-1.84.91-.43.09-1.56.32-1.59,1.15s1.34,1.29,1.5,1.32a6.67,6.67,0,0,0,1.47.26A4.41,4.41,0,0,0,27,96.49,1.73,1.73,0,0,0,27.17,95a2,2,0,0,0-1-1.25,1.83,1.83,0,0,0-.69-.16Z" fill="#fff"/><path d="M24.65,94.79h0a.25.25,0,0,1-.24-.26c0-.12,0-.25,0-.38a3.51,3.51,0,0,1-.72-.07,4.28,4.28,0,0,1-3.45-5A21.31,21.31,0,0,0,20.32,85c0-.55,1.86-1.47,3.21-1.62a2.19,2.19,0,0,1,2.66,1.78,9.42,9.42,0,0,1-.77,7.22,4.94,4.94,0,0,0-.52,2.2A.26.26,0,0,1,24.65,94.79ZM20.82,85a21.77,21.77,0,0,1-.08,4.19,3.78,3.78,0,0,0,3,4.41,3.85,3.85,0,0,0,.69.06A6.06,6.06,0,0,1,25,92.11a8.93,8.93,0,0,0,.72-6.86,1.58,1.58,0,0,0-1.36-1.4A5.3,5.3,0,0,0,20.82,85Zm0,0Z" fill="#fff"/><path d="M23.53,84.86a.83.83,0,0,0,.65.6.7.7,0,0,0,.73-.4c0-.15-.27-.31-.66-.37S23.55,84.71,23.53,84.86Z" fill="#fff"/><path d="M35.2,84.53a.86.86,0,0,1-.66.6.71.71,0,0,1-.73-.4c0-.16.28-.32.66-.37S35.17,84.4,35.2,84.53Z" fill="#fff"/><path d="M35.75,92.94a.27.27,0,0,1-.14,0,.25.25,0,0,1-.07-.34,5.58,5.58,0,0,0,.6-4.14A10.8,10.8,0,0,1,36,86.73a12.12,12.12,0,0,1,.16-1.5,7.2,7.2,0,0,0,.13-1.69.26.26,0,0,1,.24-.27.25.25,0,0,1,.26.24,7.9,7.9,0,0,1-.13,1.79,11.72,11.72,0,0,0-.16,1.44,10.11,10.11,0,0,0,.12,1.61A6.14,6.14,0,0,1,36,92.83.26.26,0,0,1,35.75,92.94Z" fill="#fff"/><path d="M115.55,98.21c.21-1.72.15-2,1.43-1.7h.33a7.57,7.57,0,0,0,3-.51c1.63-.76,2.6-2,1-1.68-3.67.76-3.94-.49-3.94-.49,3.88-5.78,5.51-13.08,4.1-14.87-3.81-4.83-10.43-2.52-10.55-2.52h0a12.18,12.18,0,0,0-2.48-.23,6.1,6.1,0,0,0-3.88,1.15s-11.81-4.85-11.27,6.13c.11,2.31,3.35,17.69,7.2,13,1.41-1.69,2.77-3.13,2.77-3.13a3.58,3.58,0,0,0,2.31.6h.07a2.43,2.43,0,0,0,0,.66c-1,1.16-.7,1.31-2.68,1.71s-.83,1.16-.06,1.34a4.07,4.07,0,0,0,4.56-1.48l-.06.24c.39.31.36,2.24.41,3.61a13.1,13.1,0,0,0,.43,3.47c.28.76.61,2.71,3.23,2.16,2.18-.46,3.84-1.16,4-7.4"/><path d="M110.65,106.06a2.58,2.58,0,0,1-2.52-2.19,2.25,2.25,0,0,1-.08-.24,13.4,13.4,0,0,1-.45-3.55c0-.24,0-.52,0-.8a12.42,12.42,0,0,0-.22-2.49A4.31,4.31,0,0,1,102.87,98c-.42-.1-1.23-.43-1.22-1s.75-.74,1.3-.85c1.5-.31,1.6-.44,2.07-1l.4-.5c0-.1,0-.21,0-.31a3.74,3.74,0,0,1-2.07-.54c-.38.4-1.49,1.61-2.62,3a2,2,0,0,1-2.16.88c-3.11-1-5.38-12.12-5.48-14.07-.15-3,.63-5.2,2.31-6.39,3.13-2.21,8.27-.38,9.17,0A6.47,6.47,0,0,1,108.49,76a14.54,14.54,0,0,1,2.47.22H111c2.12-.6,7.4-1.54,10.7,2.63,1.47,1.87-.1,9.16-4,15,.16.21.86.79,3.6.22.23,0,1-.2,1.1.27s-1.08,1.49-1.94,1.89a7.79,7.79,0,0,1-3.16.53H117a1.58,1.58,0,0,0-.87-.05c-.14.1-.2.55-.28,1.22l0,.31a.31.31,0,0,1,0,.12c-.15,6.26-1.84,7.1-4.19,7.59A3.94,3.94,0,0,1,110.65,106.06Zm-2.94-9.66a7,7,0,0,1,.37,2.87c0,.27,0,.55,0,.8a13.08,13.08,0,0,0,.42,3.42l.08.23c.28.88.71,2.2,2.85,1.75,1.88-.4,3.65-.78,3.8-7.16a.22.22,0,0,1,0-.14l0-.29c.1-.9.16-1.34.48-1.58s.64-.16,1.22,0h.27a7.32,7.32,0,0,0,3-.49,3.75,3.75,0,0,0,1.64-1.25,1.5,1.5,0,0,0-.51,0c-3.81.79-4.2-.52-4.23-.68a.26.26,0,0,1,0-.19c3.8-5.65,5.47-12.86,4.12-14.58-3.11-3.94-8.15-3-10.18-2.46l-.18,0a13.36,13.36,0,0,0-2.41-.23h-.07a5.91,5.91,0,0,0-3.74,1.11.26.26,0,0,1-.24,0s-5.69-2.3-8.82-.08c-1.54,1.09-2.24,3.09-2.1,6,.1,2.08,2.42,12.71,5.14,13.62.53.17,1.06-.06,1.61-.72,1.4-1.69,2.78-3.13,2.79-3.15a.24.24,0,0,1,.32,0,3.27,3.27,0,0,0,2.15.55h.09a.28.28,0,0,1,.19.09.23.23,0,0,1,.06.2,1.94,1.94,0,0,0,0,.59.25.25,0,0,1-.06.2c-.19.22-.33.4-.45.56-.56.72-.75.9-2.37,1.23-.83.17-.9.36-.9.36s.36.37.85.49a3.82,3.82,0,0,0,4.29-1.38.25.25,0,0,1,.45.21Z" fill="#fff"/><path d="M110.68,106a2.6,2.6,0,0,1-2.54-2.18l-.09-.27a10.23,10.23,0,0,1-.24-3.57,8.81,8.81,0,0,0-.4-3.18,4,4,0,0,1-3.07,1.32,5.65,5.65,0,0,1-1.42-.19c-.49-.11-1.28-.47-1.27-1s.77-.78,1.34-.89c1.46-.3,1.57-.44,2-1,.12-.14.24-.31.42-.5v-.19h-.11a3.86,3.86,0,0,1-2-.55c-.41.43-1.49,1.62-2.6,3a2.33,2.33,0,0,1-1.7,1c-3.62,0-6-12.54-6-14.19-.13-2.6.41-4.55,1.62-5.78a6.11,6.11,0,0,1,4.62-1.68,15.87,15.87,0,0,1,5.27,1,6.37,6.37,0,0,1,3.8-1.16h.14a14.31,14.31,0,0,1,2.44.24,12.56,12.56,0,0,1,3.75-.59,8.64,8.64,0,0,1,7.07,3.18c1.48,1.88-.08,9.18-4,15,.12.14.49.42,1.54.42a11,11,0,0,0,2-.24,2.22,2.22,0,0,1,.51-.06c.5,0,.63.25.66.4.15.66-1.16,1.51-2,1.91a7.48,7.48,0,0,1-2.88.54H117a2.65,2.65,0,0,0-.48-.07c-.32,0-.37.08-.49,1.26a3.14,3.14,0,0,1-.08.83l-.22.68a3.9,3.9,0,0,1-.18,1.27,5.11,5.11,0,0,0-.21,1.22,4.16,4.16,0,0,1-3.7,4A4.73,4.73,0,0,1,110.68,106Z" fill="#336791"/><path d="M114.67,75.87A8.32,8.32,0,0,1,121.5,79c1.4,1.79-.22,9.11-4.1,14.87,0,0,.16.73,1.88.73a10.25,10.25,0,0,0,2.06-.24h0a1.7,1.7,0,0,1,.45,0c.94,0,0,1.07-1.44,1.74a7.29,7.29,0,0,1-2.77.52H117a3,3,0,0,0-.52-.07c-.77,0-.67.71-.86,2.32l-.21.61A25.28,25.28,0,0,1,115,102a3.85,3.85,0,0,1-3.47,3.69,4.14,4.14,0,0,1-.87.11c-1.81,0-2.08-1.53-2.31-2.31a9.9,9.9,0,0,1-.23-3.47c0-1.56-.23-3.27-.61-3.58l.06-.23a3.78,3.78,0,0,1-3.22,1.65,5.53,5.53,0,0,1-1.34-.17c-.77-.2-2-.93.06-1.34s1.69-.61,2.68-1.72a2.36,2.36,0,0,1,0-.65h-.41a3.63,3.63,0,0,1-2-.62s-1.4,1.51-2.83,3.22a2,2,0,0,1-1.47.86c-3.18,0-5.63-11.88-5.78-13.86-.25-5.87,2.9-7.24,6-7.24a15.81,15.81,0,0,1,5.31,1.08,6,6,0,0,1,3.76-1.16h.13a12.61,12.61,0,0,1,2.45.21h0a11.93,11.93,0,0,1,3.75-.57m0-.59a13,13,0,0,0-3.81.59,13.73,13.73,0,0,0-2.39-.24h-.14a6.78,6.78,0,0,0-3.84,1.09,16.33,16.33,0,0,0-5.22-1,6.43,6.43,0,0,0-4.84,1.78c-1.26,1.32-1.83,3.35-1.71,6C92.79,84.53,95,98,99.06,98A2.55,2.55,0,0,0,101,96.92c1-1.16,2-2.26,2.44-2.78a4,4,0,0,0,1.55.44l-.19.24c-.42.54-.5.63-1.85.92-.43.09-1.56.32-1.58,1.15s1.34,1.29,1.5,1.32a6.29,6.29,0,0,0,1.49.2,4.39,4.39,0,0,0,3-1.08,11.14,11.14,0,0,1,.23,2.64,10.13,10.13,0,0,0,.22,3.68l.08.26a2.88,2.88,0,0,0,2.82,2.39,4.7,4.7,0,0,0,1-.12,4.43,4.43,0,0,0,3.93-4.23,5,5,0,0,1,.2-1.15,4.76,4.76,0,0,0,.23-1.25l.17-.52a.2.2,0,0,0,0-.11c0-.32.07-.59.09-.84a5.51,5.51,0,0,1,.15-1h0a2.67,2.67,0,0,1,.4,0h.84a7.84,7.84,0,0,0,3-.58c.89-.41,2.31-1.34,2.14-2.23a.86.86,0,0,0-1-.63,3.53,3.53,0,0,0-.56,0h0a9.7,9.7,0,0,1-1.94.23,2.49,2.49,0,0,1-1.21-.16c3.64-5.59,5.53-13,3.83-15.18A8.87,8.87,0,0,0,114.67,75.28Z" fill="#fff"/><path d="M110.94,106a3.16,3.16,0,0,1-3.06-2.39c-.43-.91-.48-5-.39-8.16a.22.22,0,0,1,.26-.24.25.25,0,0,1,.24.26c-.12,4,0,7.27.36,8a2.67,2.67,0,0,0,3.24,2l.17,0,.06,0a3.33,3.33,0,0,0,3.09-3.12l.81-6.4a.24.24,0,0,1,.28-.22.25.25,0,0,1,.21.28l-.8,6.38a3.83,3.83,0,0,1-3.52,3.58l-.17,0A3,3,0,0,1,110.94,106ZM99.05,97.61a1.52,1.52,0,0,1-.51-.09c-3.11-1-5.39-12.11-5.48-14.06-.17-3,.6-5.2,2.28-6.39,3.35-2.4,9.08-.11,9.33,0a.25.25,0,0,1,.13.33.24.24,0,0,1-.32.14c-.06,0-5.72-2.29-8.85-.06-1.53,1.09-2.23,3.1-2.07,6,.1,2.08,2.42,12.72,5.13,13.62.54.18,1.07-.06,1.62-.72,1.45-1.69,2.69-3,2.7-3a.25.25,0,0,1,.36,0,.25.25,0,0,1,0,.35s-1.25,1.35-2.69,3A2.19,2.19,0,0,1,99.05,97.61ZM117.39,94a.23.23,0,0,1-.14,0,.25.25,0,0,1-.07-.35c3.8-5.65,5.46-12.82,4.11-14.52-3.6-4.61-9.72-2.63-10.22-2.45l0,0a.27.27,0,0,1-.32-.13.24.24,0,0,1,.1-.32l.06,0h0c.82-.28,7.08-2.15,10.8,2.6,1.48,1.86-.12,9.2-4.1,15.11A.23.23,0,0,1,117.39,94Z" fill="#fff"/><path d="M117.58,96.71a3.17,3.17,0,0,1-1.52-.28.68.68,0,0,1-.38-.55c-.08-1.63.8-1.89,1.28-2l.18,0v0a2.33,2.33,0,0,0-.42-.62,5.73,5.73,0,0,1-.94-1.5,9.12,9.12,0,0,0-.43-.81c-1-1.77-2.81-5.07-1.63-6.76.57-.83,1.78-1.13,3.58-.9a10.33,10.33,0,0,0-2.42-4,8.78,8.78,0,0,0-6.42-2.8A5.65,5.65,0,0,0,104.15,78c-2.43,2.44-2.37,6.83-2.37,6.88a.23.23,0,0,1-.24.25h0a.26.26,0,0,1-.25-.24c0-.19-.06-4.65,2.51-7.24a6.11,6.11,0,0,1,4.68-1.78c7,.11,9.38,7,9.37,7.56a.32.32,0,0,1-.27.31c-1.81-.28-2.95,0-3.44.65-1,1.43.8,4.67,1.66,6.23a8.5,8.5,0,0,1,.45.86,5.15,5.15,0,0,0,.87,1.37,2.26,2.26,0,0,1,.53.89,0,0,0,0,1,0,0c.1.18.71.87,3.63.26.23-.05,1-.19,1.1.27.21.63-1.08,1.5-1.94,1.89A7.55,7.55,0,0,1,117.58,96.71Zm-.19-2.48a1.43,1.43,0,0,1-.29.1c-.44.13-1,.29-.92,1.52,0,0,0,.07.13.15a6.05,6.05,0,0,0,3.92-.28,3.53,3.53,0,0,0,1.67-1.28,3.13,3.13,0,0,0-.52.06c-1.82.38-3.1.34-3.8-.12A1.57,1.57,0,0,1,117.39,94.23Z" fill="#fff"/><path d="M106.46,94.15a1.21,1.21,0,0,1,.45.12,1.37,1.37,0,0,1,.61,1.81,3.77,3.77,0,0,1-3.25,1.71,5.53,5.53,0,0,1-1.34-.17c-.77-.2-2-.92.06-1.34s1.69-.6,2.68-1.71h0a1,1,0,0,1,.74-.4m0-.59a1.57,1.57,0,0,0-1.16.55h0c-.22.24-.38.45-.52.63-.41.53-.49.62-1.84.91-.43.09-1.56.32-1.59,1.15s1.34,1.29,1.5,1.32a6.67,6.67,0,0,0,1.47.26A4.41,4.41,0,0,0,108,96.49a1.73,1.73,0,0,0,.21-1.47,2,2,0,0,0-1-1.25,1.83,1.83,0,0,0-.69-.16Z" fill="#fff"/><path d="M105.65,94.79h0a.25.25,0,0,1-.24-.26c0-.12,0-.25,0-.38a3.51,3.51,0,0,1-.72-.07,4.28,4.28,0,0,1-3.45-5,21.31,21.31,0,0,0,.08-4.15c0-.55,1.86-1.47,3.21-1.62a2.2,2.2,0,0,1,2.66,1.78,9.42,9.42,0,0,1-.77,7.22,4.94,4.94,0,0,0-.52,2.2A.26.26,0,0,1,105.65,94.79ZM101.82,85a21.77,21.77,0,0,1-.08,4.19,3.78,3.78,0,0,0,3,4.41,4.2,4.2,0,0,0,.69.06,6.06,6.06,0,0,1,.51-1.54,8.93,8.93,0,0,0,.72-6.86,1.58,1.58,0,0,0-1.36-1.4A5.3,5.3,0,0,0,101.82,85Zm0,0Z" fill="#fff"/><path d="M104.53,84.86a.83.83,0,0,0,.65.6.7.7,0,0,0,.73-.4c0-.15-.27-.31-.66-.37S104.55,84.71,104.53,84.86Z" fill="#fff"/><path d="M116.2,84.53a.86.86,0,0,1-.66.6.71.71,0,0,1-.73-.4c0-.16.28-.32.66-.37S116.17,84.4,116.2,84.53Z" fill="#fff"/><path d="M116.75,92.94a.27.27,0,0,1-.14,0,.25.25,0,0,1-.07-.34,5.58,5.58,0,0,0,.6-4.14,10.8,10.8,0,0,1-.12-1.68,12.12,12.12,0,0,1,.16-1.5,7.2,7.2,0,0,0,.13-1.69.26.26,0,0,1,.24-.27.25.25,0,0,1,.26.24,7.9,7.9,0,0,1-.13,1.79,11.72,11.72,0,0,0-.16,1.44,10.11,10.11,0,0,0,.12,1.61,6.14,6.14,0,0,1-.68,4.48A.26.26,0,0,1,116.75,92.94Z" fill="#fff"/><path d="M196.55,98.21c.21-1.72.15-2,1.43-1.7h.33a7.57,7.57,0,0,0,3.05-.51c1.63-.76,2.6-2,1-1.68-3.67.76-3.94-.49-3.94-.49,3.88-5.78,5.51-13.08,4.1-14.87-3.81-4.83-10.43-2.52-10.55-2.52h0a12.18,12.18,0,0,0-2.48-.23,6.1,6.1,0,0,0-3.88,1.15s-11.81-4.85-11.27,6.13c.11,2.31,3.35,17.69,7.2,13,1.41-1.69,2.77-3.13,2.77-3.13a3.58,3.58,0,0,0,2.31.6h.07a2.43,2.43,0,0,0,0,.66c-1,1.16-.7,1.31-2.68,1.71s-.83,1.16-.06,1.34a4.07,4.07,0,0,0,4.56-1.48l-.06.24c.39.31.36,2.24.41,3.61a13.1,13.1,0,0,0,.43,3.47c.28.76.61,2.71,3.23,2.16,2.18-.46,3.84-1.16,4-7.4"/><path d="M191.65,106.06a2.58,2.58,0,0,1-2.52-2.19,2.25,2.25,0,0,1-.08-.24,13.4,13.4,0,0,1-.45-3.55c0-.24,0-.52,0-.8a12.42,12.42,0,0,0-.22-2.49A4.32,4.32,0,0,1,183.87,98c-.42-.1-1.23-.43-1.22-1s.75-.74,1.3-.85c1.5-.31,1.6-.44,2.07-1l.4-.5c0-.1,0-.21,0-.31a3.74,3.74,0,0,1-2.07-.54c-.38.4-1.49,1.61-2.62,3a2,2,0,0,1-2.16.88c-3.11-1-5.38-12.12-5.48-14.07-.15-3,.63-5.2,2.31-6.39,3.13-2.21,8.27-.38,9.17,0A6.47,6.47,0,0,1,189.49,76h.08a12.88,12.88,0,0,1,2.39.22h0c2.12-.6,7.4-1.54,10.7,2.63,1.47,1.87-.1,9.16-4,15,.16.21.86.79,3.6.22.23,0,.95-.2,1.1.27s-1.08,1.49-1.94,1.89a7.79,7.79,0,0,1-3.16.53H198c-.39-.08-.75-.14-.87-.05s-.2.55-.28,1.22l0,.31a.31.31,0,0,1-.05.12c-.15,6.26-1.84,7.1-4.19,7.59A3.94,3.94,0,0,1,191.65,106.06Zm-2.94-9.66a7,7,0,0,1,.37,2.87c0,.27,0,.55,0,.8a13.08,13.08,0,0,0,.42,3.42l.08.23c.29.88.71,2.2,2.85,1.75,1.88-.4,3.65-.78,3.8-7.16a.22.22,0,0,1,.05-.14l0-.29c.1-.9.16-1.34.48-1.58s.64-.16,1.22,0h.27a7.32,7.32,0,0,0,3-.49,3.75,3.75,0,0,0,1.64-1.25,1.5,1.5,0,0,0-.51,0c-3.81.79-4.2-.52-4.23-.68a.26.26,0,0,1,0-.19c3.8-5.65,5.47-12.86,4.12-14.58-3.11-3.94-8.15-3-10.18-2.46l-.18,0a13.36,13.36,0,0,0-2.41-.23h-.07a5.91,5.91,0,0,0-3.74,1.11.26.26,0,0,1-.24,0c-.06,0-5.69-2.3-8.82-.08-1.54,1.09-2.24,3.09-2.1,6,.1,2.08,2.42,12.71,5.14,13.62.53.17,1.06-.06,1.61-.72,1.4-1.69,2.78-3.13,2.79-3.15a.24.24,0,0,1,.32,0,3.27,3.27,0,0,0,2.15.55h.09a.28.28,0,0,1,.19.09.23.23,0,0,1,.06.2,1.94,1.94,0,0,0,0,.59.25.25,0,0,1-.06.2c-.19.22-.33.4-.45.56-.56.72-.75.9-2.37,1.23-.83.17-.9.36-.9.36s.36.37.85.49a3.82,3.82,0,0,0,4.29-1.38.25.25,0,0,1,.45.21Z" fill="#fff"/><path d="M191.68,106a2.6,2.6,0,0,1-2.54-2.18l-.09-.27a10.23,10.23,0,0,1-.24-3.57,8.81,8.81,0,0,0-.4-3.18,4,4,0,0,1-3.07,1.32,5.65,5.65,0,0,1-1.42-.19c-.49-.11-1.28-.47-1.27-1s.77-.78,1.34-.89c1.46-.3,1.57-.44,2-1,.12-.14.24-.31.42-.5v-.19h-.11a3.86,3.86,0,0,1-2-.55c-.41.43-1.49,1.62-2.6,3a2.33,2.33,0,0,1-1.7,1c-3.62,0-5.95-12.54-6-14.19-.13-2.6.41-4.55,1.62-5.78a6.11,6.11,0,0,1,4.62-1.68,15.87,15.87,0,0,1,5.27,1,6.37,6.37,0,0,1,3.8-1.16h.14a14.31,14.31,0,0,1,2.44.24,12.56,12.56,0,0,1,3.75-.59,8.64,8.64,0,0,1,7.07,3.18c1.48,1.88-.08,9.18-4,15,.12.14.49.42,1.54.42a11,11,0,0,0,2-.24,2.22,2.22,0,0,1,.51-.06c.5,0,.63.25.66.4.15.66-1.16,1.51-2,1.91a7.48,7.48,0,0,1-2.88.54H198a2.65,2.65,0,0,0-.48-.07c-.32,0-.37.08-.49,1.26a3.14,3.14,0,0,1-.08.83l-.22.68a3.9,3.9,0,0,1-.18,1.27,5.11,5.11,0,0,0-.21,1.22,4.16,4.16,0,0,1-3.7,4A4.73,4.73,0,0,1,191.68,106Z" fill="#336791"/><path d="M195.67,75.87A8.32,8.32,0,0,1,202.5,79c1.4,1.79-.22,9.11-4.1,14.87,0,0,.16.73,1.88.73a10.25,10.25,0,0,0,2.06-.24h0a1.7,1.7,0,0,1,.45,0c.94,0,0,1.07-1.44,1.74a7.29,7.29,0,0,1-2.77.52H198a3,3,0,0,0-.52-.07c-.77,0-.67.71-.86,2.32l-.21.61A25.28,25.28,0,0,1,196,102a3.85,3.85,0,0,1-3.47,3.69,4.14,4.14,0,0,1-.87.11c-1.81,0-2.08-1.53-2.31-2.31a9.9,9.9,0,0,1-.23-3.47c0-1.56-.23-3.27-.61-3.58l.06-.23a3.78,3.78,0,0,1-3.22,1.65,5.53,5.53,0,0,1-1.34-.17c-.77-.2-2-.93.06-1.34s1.69-.61,2.68-1.72a2.36,2.36,0,0,1,0-.65h-.41a3.63,3.63,0,0,1-2-.62s-1.4,1.51-2.83,3.22a2,2,0,0,1-1.47.86c-3.18,0-5.63-11.88-5.78-13.86-.25-5.87,2.9-7.24,6-7.24a15.81,15.81,0,0,1,5.31,1.08,6,6,0,0,1,3.76-1.16h.13a12.61,12.61,0,0,1,2.45.21h0a11.93,11.93,0,0,1,3.75-.57m0-.59a13,13,0,0,0-3.81.59,13.73,13.73,0,0,0-2.39-.24h-.14a6.78,6.78,0,0,0-3.84,1.09,16.33,16.33,0,0,0-5.22-1,6.43,6.43,0,0,0-4.84,1.78c-1.26,1.32-1.83,3.35-1.71,6,.07,1,2.31,14.47,6.34,14.47A2.55,2.55,0,0,0,182,96.92c1-1.16,2-2.26,2.44-2.78a4,4,0,0,0,1.55.44l-.19.24c-.42.54-.5.63-1.85.92-.43.09-1.56.32-1.58,1.15s1.34,1.29,1.5,1.32a6.29,6.29,0,0,0,1.49.2,4.39,4.39,0,0,0,2.95-1.08,11.14,11.14,0,0,1,.23,2.64,10.13,10.13,0,0,0,.22,3.68l.08.26a2.88,2.88,0,0,0,2.82,2.39,4.7,4.7,0,0,0,1-.12,4.43,4.43,0,0,0,3.93-4.23,5,5,0,0,1,.2-1.15,4.76,4.76,0,0,0,.23-1.25l.17-.52a.2.2,0,0,0,0-.11c0-.32.07-.59.09-.84a5.51,5.51,0,0,1,.15-1h0a2.67,2.67,0,0,1,.4,0h.84a7.84,7.84,0,0,0,3-.58c.89-.41,2.31-1.34,2.14-2.23a.86.86,0,0,0-1-.63,3.53,3.53,0,0,0-.56,0h0a9.7,9.7,0,0,1-1.94.23,2.49,2.49,0,0,1-1.21-.16c3.64-5.59,5.53-13,3.83-15.18A8.87,8.87,0,0,0,195.67,75.28Z" fill="#fff"/><path d="M191.94,106a3.16,3.16,0,0,1-3.06-2.39c-.43-.91-.48-5-.39-8.16a.23.23,0,0,1,.26-.24.25.25,0,0,1,.24.26c-.12,4,0,7.27.36,8a2.67,2.67,0,0,0,3.24,2l.17,0,.06,0a3.33,3.33,0,0,0,3.09-3.12l.81-6.4a.24.24,0,0,1,.28-.22.25.25,0,0,1,.21.28l-.8,6.38a3.83,3.83,0,0,1-3.52,3.58l-.17,0A3,3,0,0,1,191.94,106Zm-11.89-8.38a1.52,1.52,0,0,1-.51-.09c-3.11-1-5.39-12.11-5.48-14.06-.17-3,.6-5.2,2.28-6.39,3.35-2.4,9.08-.11,9.33,0a.25.25,0,0,1,.13.33.24.24,0,0,1-.32.14c-.06,0-5.72-2.29-8.85-.06-1.53,1.09-2.23,3.1-2.07,6,.1,2.08,2.42,12.72,5.13,13.62.54.18,1.07-.06,1.62-.72,1.45-1.69,2.69-3,2.7-3a.25.25,0,0,1,.36,0,.25.25,0,0,1,0,.35s-1.25,1.35-2.69,3A2.19,2.19,0,0,1,180.05,97.61ZM198.39,94a.23.23,0,0,1-.14,0,.25.25,0,0,1-.07-.35c3.8-5.65,5.46-12.82,4.11-14.52-3.6-4.61-9.72-2.63-10.22-2.45l0,0a.27.27,0,0,1-.32-.13.24.24,0,0,1,.1-.32l.06,0h0c.82-.28,7.08-2.15,10.8,2.6,1.48,1.86-.12,9.2-4.1,15.11A.23.23,0,0,1,198.39,94Z" fill="#fff"/><path d="M198.58,96.71a3.17,3.17,0,0,1-1.52-.28.68.68,0,0,1-.38-.55c-.08-1.63.8-1.89,1.28-2l.18,0v0a2.33,2.33,0,0,0-.42-.62,5.73,5.73,0,0,1-.94-1.5,9.12,9.12,0,0,0-.43-.81c-1-1.77-2.81-5.07-1.63-6.76.57-.83,1.78-1.13,3.58-.9a10.33,10.33,0,0,0-2.42-4,8.78,8.78,0,0,0-6.42-2.8h-.12A5.67,5.67,0,0,0,185.15,78c-2.43,2.44-2.37,6.83-2.37,6.88a.23.23,0,0,1-.24.25.25.25,0,0,1-.26-.24c0-.19-.06-4.65,2.51-7.24a6.16,6.16,0,0,1,4.55-1.78h.13c7,.11,9.38,7,9.37,7.56a.32.32,0,0,1-.27.31c-1.81-.28-2.95,0-3.44.65-1,1.43.8,4.67,1.66,6.23a8.5,8.5,0,0,1,.45.86,5.15,5.15,0,0,0,.87,1.37,2.26,2.26,0,0,1,.53.89,0,0,0,0,1,0,0c.1.18.71.87,3.63.26.23-.05.95-.19,1.1.27.21.63-1.08,1.5-1.94,1.89A7.55,7.55,0,0,1,198.58,96.71Zm-.19-2.48a1.43,1.43,0,0,1-.29.1c-.44.13-1,.29-.92,1.52,0,0,0,.07.13.15a6.05,6.05,0,0,0,3.92-.28,3.53,3.53,0,0,0,1.67-1.28,3.13,3.13,0,0,0-.52.06c-1.82.38-3.1.34-3.8-.12A1.57,1.57,0,0,1,198.39,94.23Z" fill="#fff"/><path d="M187.46,94.15a1.21,1.21,0,0,1,.45.12,1.37,1.37,0,0,1,.61,1.81,3.77,3.77,0,0,1-3.25,1.71,5.53,5.53,0,0,1-1.34-.17c-.77-.2-2-.92.06-1.34s1.69-.6,2.68-1.71h0a1,1,0,0,1,.74-.4m0-.59a1.57,1.57,0,0,0-1.16.55h0c-.22.24-.38.45-.52.63-.41.53-.49.62-1.84.91-.43.09-1.56.32-1.59,1.15s1.34,1.29,1.5,1.32a6.67,6.67,0,0,0,1.47.26A4.41,4.41,0,0,0,189,96.49a1.73,1.73,0,0,0,.21-1.47,2,2,0,0,0-1-1.25,1.83,1.83,0,0,0-.69-.16Z" fill="#fff"/><path d="M186.65,94.79h0a.25.25,0,0,1-.24-.26c0-.12,0-.25,0-.38a3.51,3.51,0,0,1-.72-.07,4.28,4.28,0,0,1-3.45-5,21.31,21.31,0,0,0,.08-4.15c0-.55,1.86-1.47,3.21-1.62a2.2,2.2,0,0,1,2.66,1.78,9.42,9.42,0,0,1-.77,7.22,4.94,4.94,0,0,0-.52,2.2A.26.26,0,0,1,186.65,94.79ZM182.82,85a21.77,21.77,0,0,1-.08,4.19,3.78,3.78,0,0,0,3,4.41,4.11,4.11,0,0,0,.69.06,6.06,6.06,0,0,1,.51-1.54,8.93,8.93,0,0,0,.72-6.86,1.58,1.58,0,0,0-1.36-1.4A5.3,5.3,0,0,0,182.82,85Zm0,0Z" fill="#fff"/><path d="M185.53,84.86a.83.83,0,0,0,.65.6.7.7,0,0,0,.73-.4c0-.15-.27-.31-.66-.37S185.55,84.71,185.53,84.86Z" fill="#fff"/><path d="M197.2,84.53a.86.86,0,0,1-.66.6.71.71,0,0,1-.73-.4c0-.16.28-.32.66-.37S197.17,84.4,197.2,84.53Z" fill="#fff"/><path d="M197.75,92.94a.27.27,0,0,1-.14,0,.25.25,0,0,1-.07-.34,5.58,5.58,0,0,0,.6-4.14,10.8,10.8,0,0,1-.12-1.68,12.12,12.12,0,0,1,.16-1.5,7.2,7.2,0,0,0,.13-1.69.26.26,0,0,1,.24-.27.25.25,0,0,1,.26.24,7.9,7.9,0,0,1-.13,1.79,11.72,11.72,0,0,0-.16,1.44,10.11,10.11,0,0,0,.12,1.61,6.14,6.14,0,0,1-.68,4.48A.26.26,0,0,1,197.75,92.94Z" fill="#fff"/></svg>