<svg id="a8c05071-0416-439a-93e9-6bde219307c4" data-name="Слой 1" xmlns="http://www.w3.org/2000/svg" width="136.96" height="246.88" viewBox="0 0 136.96 246.88"><rect x="67.91" y="15.88" width="1.15" height="21.29" fill="#71b429"/><polygon points="68.48 40.82 65.89 35.45 71.07 35.45 68.48 40.82" fill="#71b429"/><rect x="41.15" y="50.82" width="54.67" height="54.67" rx="3" fill="#fff"/><path d="M96.39,53.82v48.66a3.58,3.58,0,0,1-3.58,3.58H44.15a3.58,3.58,0,0,1-3.58-3.58V53.82a3.59,3.59,0,0,1,3.58-3.58H92.81A3.58,3.58,0,0,1,96.39,53.82Zm-3.58,51.09a2.43,2.43,0,0,0,2.43-2.43V53.82a2.43,2.43,0,0,0-2.43-2.43H44.15a2.43,2.43,0,0,0-2.43,2.43v48.66a2.43,2.43,0,0,0,2.43,2.43Z" fill="#05acff"/><path d="M92.81,106.56H44.15a4.08,4.08,0,0,1-4.08-4.08V53.82a4.08,4.08,0,0,1,4.08-4.08H92.81a4.08,4.08,0,0,1,4.08,4.08v48.66A4.08,4.08,0,0,1,92.81,106.56ZM44.15,50.74a3.08,3.08,0,0,0-3.08,3.08v48.66a3.08,3.08,0,0,0,3.08,3.08H92.81a3.08,3.08,0,0,0,3.08-3.08V53.82a3.08,3.08,0,0,0-3.08-3.08Zm48.66,54.67H44.15a2.93,2.93,0,0,1-2.93-2.93V53.82a2.93,2.93,0,0,1,2.93-2.93H92.81a2.93,2.93,0,0,1,2.93,2.93v48.66A2.93,2.93,0,0,1,92.81,105.41ZM44.15,51.89a1.94,1.94,0,0,0-1.93,1.93v48.66a1.93,1.93,0,0,0,1.93,1.93H92.81a1.92,1.92,0,0,0,1.93-1.93V53.82a1.93,1.93,0,0,0-1.93-1.93Z" fill="#05acff"/><path d="M55.91,119.31,53.49,113h0c0,.51.07,1.1.07,1.79v4.54h-.77v-7.14H54l2.26,5.89h0l2.28-5.89h1.24v7.14H59v-4.6c0-.52,0-1.1.07-1.72h0l-2.44,6.32Z" fill="#fff"/><path d="M65,119.31l-.16-.76h0a2.28,2.28,0,0,1-.8.68,2.43,2.43,0,0,1-1,.18,1.81,1.81,0,0,1-1.25-.41,1.49,1.49,0,0,1-.45-1.17c0-1.08.86-1.64,2.59-1.7l.91,0v-.33a1.36,1.36,0,0,0-.27-.93,1.12,1.12,0,0,0-.87-.3,3.54,3.54,0,0,0-1.51.41l-.25-.62a4.4,4.4,0,0,1,.86-.34,3.87,3.87,0,0,1,1-.12,2,2,0,0,1,1.42.43,1.75,1.75,0,0,1,.46,1.36v3.65Zm-1.83-.57a1.69,1.69,0,0,0,1.19-.41,1.59,1.59,0,0,0,.43-1.17v-.48l-.81,0a3,3,0,0,0-1.4.31.89.89,0,0,0-.42.82.84.84,0,0,0,.26.67A1.14,1.14,0,0,0,63.12,118.74Z" fill="#fff"/><path d="M70.67,117.85a1.32,1.32,0,0,1-.56,1.15,2.54,2.54,0,0,1-1.56.41,3.34,3.34,0,0,1-1.66-.34v-.75a4.31,4.31,0,0,0,.83.31,3.67,3.67,0,0,0,.85.11,2,2,0,0,0,1-.2.67.67,0,0,0,.34-.62.65.65,0,0,0-.27-.53,4,4,0,0,0-1.06-.53,5.17,5.17,0,0,1-1.06-.49,1.32,1.32,0,0,1-.47-.47,1.22,1.22,0,0,1-.15-.63,1.19,1.19,0,0,1,.53-1,2.48,2.48,0,0,1,1.46-.38,4.34,4.34,0,0,1,1.69.35l-.29.66a3.89,3.89,0,0,0-1.46-.33,1.71,1.71,0,0,0-.87.18.57.57,0,0,0-.29.5.65.65,0,0,0,.11.37,1,1,0,0,0,.35.28,6.76,6.76,0,0,0,.94.4,3.52,3.52,0,0,1,1.29.7A1.23,1.23,0,0,1,70.67,117.85Z" fill="#fff"/><path d="M73.72,118.74a2.73,2.73,0,0,0,.41,0,1.56,1.56,0,0,0,.32-.07v.62a1.32,1.32,0,0,1-.39.11,2.6,2.6,0,0,1-.46,0c-1,0-1.55-.55-1.55-1.64v-3.18h-.77v-.39l.77-.34.34-1.14h.47V114h1.55v.63H72.86v3.15a1,1,0,0,0,.23.74A.8.8,0,0,0,73.72,118.74Z" fill="#fff"/><path d="M77.78,119.41a2.46,2.46,0,0,1-1.87-.72,2.79,2.79,0,0,1-.69-2,3.1,3.1,0,0,1,.64-2.06,2.12,2.12,0,0,1,1.71-.76,2,2,0,0,1,1.59.67,2.53,2.53,0,0,1,.59,1.74v.51H76.06a2.13,2.13,0,0,0,.48,1.43,1.62,1.62,0,0,0,1.27.49,4.3,4.3,0,0,0,1.71-.36v.72a3.84,3.84,0,0,1-.81.27A5,5,0,0,1,77.78,119.41Zm-.22-4.87a1.33,1.33,0,0,0-1,.42,2,2,0,0,0-.45,1.16h2.8a1.81,1.81,0,0,0-.34-1.17A1.22,1.22,0,0,0,77.56,114.54Z" fill="#fff"/><path d="M83.57,113.86a3.1,3.1,0,0,1,.64.06l-.11.75a2.68,2.68,0,0,0-.59-.07,1.44,1.44,0,0,0-1.11.53,1.91,1.91,0,0,0-.46,1.31v2.87h-.81V114h.67l.09,1h0a2.26,2.26,0,0,1,.72-.8A1.62,1.62,0,0,1,83.57,113.86Z" fill="#fff"/><path d="M83,78.8A14.53,14.53,0,1,1,68.48,63.94,14.71,14.71,0,0,1,83,78.8" fill="#d33833" fill-rule="evenodd"/><path d="M54.54,82.48s-1-15.5,13.23-15.94l-1-1.66L59,67.47,56.83,70l-1.94,3.71L53.78,78l.34,2.88" fill="#ef3d3a"/><path d="M58.53,68.66a14.65,14.65,0,0,0,0,20.39,13.86,13.86,0,0,0,19.9,0,14.65,14.65,0,0,0,0-20.39,13.86,13.86,0,0,0-19.9,0Zm-.64,21a15.53,15.53,0,0,1,0-21.64,14.73,14.73,0,0,1,21.18,0,15.53,15.53,0,0,1,0,21.64,14.73,14.73,0,0,1-21.18,0" fill="#231f20"/><path d="M74.6,78.88l-2.21.33-3,.34-1.93,0-1.88,0-1.44-.45-1.28-1.38-1-2.82-.22-.61-1.33-.44-.78-1.28L59,70.75l.61-1.61,1.44-.5,1.16.56.55,1.21.67-.11.22-.27-.22-1.28-.06-1.6.33-2.2V63.68l1-1.61,1.77-1.27,3.1-1.34L73,60l3,2.16,1.38,2.2.89,1.61.22,4-.66,3.43-1.22,3L75.43,78" fill="#f0d6b7" fill-rule="evenodd"/><path d="M72.71,88.45l-7.91.34v1.33l.66,4.64-.33.39L59.6,93.27l-.39-.66-.55-6.26-1.28-3.76-.27-.88,4.42-3,1.39-.55,1.22,1.49,1,.94,1.21.39.56.17L67.62,84l.5.6,1.27-.44-.89,1.72,4.82,2.27-.61.33" fill="#335061" fill-rule="evenodd"/><path d="M59.6,69.14l1.44-.5,1.16.56.55,1.21.67-.11.16-.66-.33-1.27.33-3.05-.27-1.66,1-1.16,2.16-1.72L65.85,60l-3,1.49-1.27,1L60.82,64l-1.11,1.49-.33,1.77.22,1.88" fill="#6d6b6d" fill-rule="evenodd"/><path d="M61.87,63.94s.82-2,4.15-3,.16-.72.16-.72l-3.6,1.38L61.2,63l-.61,1.1,1.27-.11m-1.65,4.81S59,64.88,63.47,64.33l-.16-.67-3.05.72-.88,2.88.22,1.88.61-.39" fill="#dcd9d8" fill-rule="evenodd"/><path d="M62,73.9l.72-.7a.46.46,0,0,0,.38.42c.06.39.22,3.88,2.59,5.76.22.17-1.77-.28-1.77-.28l-1.77-2.76m10-3.49s.13-1.68.58-1.55a.62.62,0,0,1,.45.58s-1.09.71-1,1" fill="#f7e4cd" fill-rule="evenodd"/><path d="M76.75,66.7s-.91.2-1,1,1,.17,1.16.11m-6.85-1s-1.22.17-1.22.94,1.39.72,1.77.39" fill="#f7e4cd"/><path d="M62.53,70.36s-2.1-1.27-2.32-.06-.72,2.11.33,3.38l-.72-.22-.66-1.72-.22-1.66,1.27-1.32,1.44.11.83.66.05.83m1-3.49s.94-4.87,5.7-5.82c3.92-.78,6,.16,6.75,1.05,0,0-3.49-4.15-6.81-2.88s-5.75,3.62-5.7,5.1l.05,2.55m12.84-4.21s-1.6,0-1.66,1.39a1.36,1.36,0,0,0,.11.44s1.28-1.44,2-.66m-7.52.81s-.28-2.21-2.16-.92c-1.22.82-1.11,2-.89,2.2s.16.66.33.36.12-1.3.73-1.58,1.6-.59,2-.07" fill="#f7e4cd" fill-rule="evenodd"/><path d="M64.14,79.6l-5.21,2.33s2.16,8.57,1,11.23l-.77-.28-.06-3.26-1.43-6.19-.61-1.71,5.43-3.66,1.61,1.55m.52,4.73.74.91v3.32h-.89L64.41,86c0-.28.11-1.28.11-1.28m.17,4.36-2.49.11.72.5,1.77.28" fill="#49728b" fill-rule="evenodd"/><path d="M73.21,88.51l2.05-.06.5,5.1-2.11.27-.44-5.31" fill="#335061" fill-rule="evenodd"/><path d="M73.77,88.51l3.09-.17L78.14,85c0-.17,1.1-4.65,1.1-4.65l-2.49-2.6-.5-.44-1.32,1.33v5.14l-1.17,4.76" fill="#335061" fill-rule="evenodd"/><path d="M75.15,88.12l-1.94.39.28,1.55c.72.33,1.94-.55,1.94-.55M75.2,78.44l3.88,2.88L79.19,80l-2.93-2.71L75.2,78.44" fill="#49728b" fill-rule="evenodd"/><path d="M66.61,99.41l-1.15-4.65-.57-3.43-.09-2.54L70,88.51h3.22l-.29,5.83.5,4.48-.06.83-4.21.33-2.54-.55" fill="#fff" fill-rule="evenodd"/><path d="M72.49,88.45A48.71,48.71,0,0,0,73,98.29,10.62,10.62,0,0,1,69,99.62l4.65-.17.55-.33-.66-9.07-.17-1.94" fill="#dcd9d8" fill-rule="evenodd"/><path d="M75.85,93.1,78,92.5l4.1-.22.6-1.89-1.1-3.26L80.33,87l-1.77.56-1.7.82-.9-.16-.7.27" fill="#fff" fill-rule="evenodd"/><path d="M75.81,92a7.86,7.86,0,0,1,1.66-.61l-.6-3,.72-.27.49,3.21,3.38.16a5.06,5.06,0,0,0,.5-2.59l.61,1.77.05,1L81.74,93l-1,.22-1.66-.06-.56-.72-1.93.28-.61.22" fill="#dcd9d8" fill-rule="evenodd"/><path d="M73.64,88.07,72.42,85l-1.27-1.83s.28-.77.66-.77h1.27l1.22.44-.11,2-.55,3.21" fill="#fff"/><path d="M73.88,87a25.93,25.93,0,0,1-1.55-3.43s.27-.67.66-.5,1.22.61,1.22.61v-1l-1.89-.39-1.27.16,2.16,5.1.44,0" fill="#dcd9d8" fill-rule="evenodd"/><path d="M67.11,79.71l-1.54-.17-1.44-.44v.5l.71.77,2.2,1" fill="#fff"/><path d="M64.63,79.88a6.07,6.07,0,0,0,2.27.55l.06.67-1.55-.34-.94-.66.16-.22" fill="#dcd9d8" fill-rule="evenodd"/><path d="M75.85,82.56a10.74,10.74,0,0,1-2.54-.35c.06-.31,0-.61,0-.83a2,2,0,0,1,.86-.18,1.57,1.57,0,0,0-1-.11,1.47,1.47,0,0,0-.16-.5c.53-.19,1.78-1.43,2.48-1,.33.2.47,1.31.5,1.85a1.94,1.94,0,0,1-.22,1.14" fill="#d33833" fill-rule="evenodd"/><path d="M75.85,82.56a10.74,10.74,0,0,1-2.54-.35c.06-.31,0-.61,0-.83a2,2,0,0,1,.86-.18,1.57,1.57,0,0,0-1-.11,1.47,1.47,0,0,0-.16-.5c.53-.19,1.78-1.43,2.48-1,.33.2.47,1.31.5,1.85A1.94,1.94,0,0,1,75.85,82.56Z" fill="none" stroke="#d33833" stroke-miterlimit="8" stroke-width="0.51"/><path d="M71.36,81v.22c-.3.19-.77.19-1.09.35a2.69,2.69,0,0,1,1.17.3l0,.53a18.5,18.5,0,0,1-1.66,1.26,4.19,4.19,0,0,1-1.67.51c-.18,0-.19-.26-.27-.47a7,7,0,0,1-.53-1.85c0-.86-.13-2.3.8-2.12a8.23,8.23,0,0,1,2.19.8,2.23,2.23,0,0,0,1.09.47" fill="#d33833" fill-rule="evenodd"/><path d="M71.36,81v.22c-.3.19-.77.19-1.09.35a2.69,2.69,0,0,1,1.17.3l0,.53a18.5,18.5,0,0,1-1.66,1.26,4.19,4.19,0,0,1-1.67.51c-.18,0-.19-.26-.27-.47a7,7,0,0,1-.53-1.85c0-.86-.13-2.3.8-2.12a8.23,8.23,0,0,1,2.19.8,2.23,2.23,0,0,0,1.09.47Z" fill="none" stroke="#d33833" stroke-miterlimit="8" stroke-width="0.51"/><path d="M71.89,82a3.11,3.11,0,0,1-.14-1c1.25-.83,1.48,1.43.14,1" fill="#d33833" fill-rule="evenodd"/><path d="M71.89,82a3.11,3.11,0,0,1-.14-1C73,80.2,73.23,82.46,71.89,82Z" fill="none" stroke="#d33833" stroke-miterlimit="8" stroke-width="0.51"/><path d="M73.69,82.42s-.38-.55-.11-.72.56,0,.72-.27,0-.45.06-.78.33-.39.61-.44,1-.17,1.16.11l-.33-1-.67-.22L73,80.32l-.11.61v1.21m-5,2.11-.22-2.59c-.12-1.29.32-1.07,1.43-1.07a3,3,0,0,1,1.11.34c.31.61-.51.48.35.94s2-.24,1.7-1.11c-.16-.19-.84-.06-1.09-.19l-1.3-.67c-.55-.28-1.82-.7-2.41-.3-1.48,1,.1,3.53.63,4.59" fill="#ef3d3a" fill-rule="evenodd"/><path d="M69.34,64.64c-1.51-.35-2.26.63-2.72,1.65-.4-.1-.26-.65-.13-.94a2.54,2.54,0,0,1,2.25-1.59c.38.06.9.41.61.88m7.34,1.71h.07a16.73,16.73,0,0,0,1.06,2.07c-.28.67-2.18,1.26-2.15.06.41-.18,1.12,0,1.48-.27a4,4,0,0,1-.46-1.88m-6.58,0A6.27,6.27,0,0,0,71,68c.21.2.61.45.41,1a1.31,1.31,0,0,1-.58.49c-.72.21-2.4,0-1.82-.86.6,0,1.4.39,1.84,0-.34-.55-.95-1.63-.72-2.26m6.3,6a6,6,0,0,1-4.06,1.28,1.22,1.22,0,0,1-.16-1.55c.19.33.07.94.61,1,1,.17,2.18-.61,2.9-.89.45-.76,0-1-.44-1.52-.83-1-1.94-2.24-1.9-3.73.33-.24.36.37.41.48a13.8,13.8,0,0,0,2.31,3.17c.2.22.52.42.55.56.11.41-.26.9-.22,1.18m-14.28-.74c-.34-.19-.42-1-.82-1.07-.57,0-.46,1.11-.46,1.77a2.08,2.08,0,0,1-.17-2c-.33-.16-.48.18-.66.3.23-1.7,2.49-.78,2.11,1m15,1.43a3.15,3.15,0,0,1-2.7,2,3.9,3.9,0,0,1,0-1,7.75,7.75,0,0,0,2.7-1.07M70,73.72a9.37,9.37,0,0,0,4,.51,4.26,4.26,0,0,1,.07,1c-1.65.08-3.59-.32-4-1.48m-.18.92c.65,1.64,2.89,1.45,4.78,1.41a1,1,0,0,1-.49.55,4.73,4.73,0,0,1-3.11,0,4.3,4.3,0,0,1-1.17-1.3c-.13-.18-.84-.65,0-.65" fill="#231f20" fill-rule="evenodd"/><path d="M76.34,83.69,73.93,87.5a18,18,0,0,0,.61-4.42,1.39,1.39,0,0,1,1.8.61" fill="#81b0c4" fill-rule="evenodd"/><path d="M80.46,88.39c-.86.18-1.46,1-2.3,1a2.83,2.83,0,0,1,2.3-1m.37,1.35a13.65,13.65,0,0,1-2.22.13c.33-.52,1.62-.34,2.22-.13m.25,1.15c-.79,0-1.76,0-2.51-.06.44-.47,2-.18,2.51.06" fill="#231f20" fill-rule="evenodd"/><path d="M74.86,94.05a17.73,17.73,0,0,1,.46,3.07,3.4,3.4,0,0,1-1.27.27l-.13-3.19c.29,0,.71-.21.94-.13" fill="#dcd9d8" fill-rule="evenodd"/><path d="M73.6,79.53c-.4.26-.73.58-1.11.86a2.44,2.44,0,0,1-1.91-.54s.07,0,.07-.07c.9.4,2-.17,2.95-.25" fill="#f0d6b7" fill-rule="evenodd"/><path d="M68.88,85.65C69.13,84.58,70.1,84,71,83.44A17.62,17.62,0,0,1,73,87.5a21.66,21.66,0,0,1-4.16-1.85" fill="#81b0c4" fill-rule="evenodd"/><path d="M73.93,94.2c0,.87.08,2.27.12,3.19a3.36,3.36,0,0,0,1.27-.27,18.47,18.47,0,0,0-.45-3.06c-.23-.07-.66.16-.94.12Zm-9.05-5a46.14,46.14,0,0,0,2,9.6,12.72,12.72,0,0,0,7,.13c-.37-1.76-.21-3.91-.42-5.79l-.31-4.27a23.83,23.83,0,0,0-8.21.32Zm8.8-.31c0,1.52.07,3,.18,4.52l1.52-.26a34.56,34.56,0,0,0-.51-4.39,3.43,3.43,0,0,0-1.19.13Zm2.95-.24a3.53,3.53,0,0,0-.86,0l.51,3.89a3.52,3.52,0,0,0,1-.25,7.77,7.77,0,0,0-.65-3.64Zm4.46,4.08a1.92,1.92,0,0,0,1.16-2.36,10.86,10.86,0,0,0-.76-2.57c-.22-.35-.84-.8-1.34-.48-.8.51-2.22.66-2.81,1.28a20.16,20.16,0,0,1,.51,3.57c1,.06,2.24-.28,3.08.08a11.64,11.64,0,0,0-1.85.47,3.79,3.79,0,0,0,2,0Zm-8-5.26A17.59,17.59,0,0,0,71,83.44c-.88.59-1.85,1.15-2.09,2.22a20.94,20.94,0,0,0,4.15,1.84Zm1.5-4.42A18.52,18.52,0,0,1,74,87.5a32.71,32.71,0,0,0,2.4-3.81,1.38,1.38,0,0,0-1.8-.61Zm-1.68-.6c-.35,0-.64.39-1.09.2l-.3.35c1,1.19,1.43,2.88,2.2,4.28A18.78,18.78,0,0,0,74.14,83c-.56,0-.88-.51-1.27-.55ZM71.78,81a2.89,2.89,0,0,0,.14,1C73.26,82.47,73,80.21,71.78,81Zm-1.49-.49a8.23,8.23,0,0,0-2.19-.8c-.92-.18-.84,1.26-.8,2.12a6.89,6.89,0,0,0,.54,1.85c.07.21.09.43.27.47a4.2,4.2,0,0,0,1.66-.51,17.56,17.56,0,0,0,1.66-1.26l0-.53a2.65,2.65,0,0,0-1.17-.3,10.71,10.71,0,0,0,1.09-.35V81a2.23,2.23,0,0,1-1.09-.47Zm-5.51-1c-.48.48,1.34,1.15,1.92,1.18,0-.3.18-.59.14-.82a6.18,6.18,0,0,1-2.06-.36Zm5.9.23s-.07,0-.08.06a2.4,2.4,0,0,0,1.92.54l1.11-.85C72.72,79.61,71.58,80.17,70.68,79.78Zm5.42,1.64c0-.54-.17-1.65-.51-1.85-.7-.41-1.94.83-2.47,1a1.53,1.53,0,0,1,.16.51,1.5,1.5,0,0,1,1,.1,2.1,2.1,0,0,0-.87.19c-.07.22,0,.51,0,.82a10.66,10.66,0,0,0,2.53.35A1.92,1.92,0,0,0,76.1,81.42ZM64,80c-.15-.11-1.17-1.43-1.3-1.38a22,22,0,0,0-5.1,3.17,27.89,27.89,0,0,1,2.17,10.73c1.68.78,3.15,1.92,5.43,2l-.65-5.29c-.58-.24-1.4,0-1.93-.07,0-.65.81-.29.88-.72s-.45-.35-.29-.87c.42.15.64.49,1.09.61.41-.89,0-2.47,0-3.23,0-.14.07-.78.39-.67s0,1.7,0,2.4-.08,1.3.19,1.69a61.54,61.54,0,0,1,6.82-.55A17.72,17.72,0,0,1,69.9,87c-.37-.2-1.53-.64-1.64-1-.17-.56.45-.86.55-1.34-1.11.6-1.33-.59-1.59-1.43a9.94,9.94,0,0,1-.43-1.77A17.92,17.92,0,0,1,64,80ZM75.12,78.8c1.54-.74,1.81,2.79,1.21,3.92.1.34.42.47.55.77L74.2,88c.65-.4,1.58-.07,2.33-.38.28-.11.48-.75.69-1.27a28,28,0,0,0,1.47-4.53,6.23,6.23,0,0,0,.19-1.24c-.07-.49-.73-.85-1.07-1.17l-1.66-1.57c-.26.39-.82.65-1,1ZM60.43,65.19c-.73.81-.58,2.31-.49,3.39A2,2,0,0,1,63,70.06c.64,0,.24-.79.13-1.29-.38-1.62.62-3.39,0-4.87a4.06,4.06,0,0,0-2.74,1.29Zm5.24-4.67c-1.66.47-3.78,1.67-4.46,3.16.53-.08.89-.34,1.41-.39a3.74,3.74,0,0,0,.68,0c.45-.11.83-1.12,1.17-1.5s.73-.52,1-.85c.17-.09.43-.08.44-.35a.34.34,0,0,0-.26-.12Zm8.61.44c-1.72-1-4.62-1.69-6.45-.78-1.48.73-3.47,2-4.15,3.49.63,1.49-.19,2.85-.24,4.36,0,.81.38,1.51.41,2.38-.22.36-.88.41-1.34.38-.16-.77-.43-1.64-1.23-1.73a1.85,1.85,0,0,0-2,1.79c-.06,1.14.88,3.05,2.22,2.91.51-.05.64-.57,1.2-.56.31.61-.47.8-.55,1.23a3.65,3.65,0,0,0,.12.76,10.29,10.29,0,0,0,1.31,3.06c.68,1,2,1.11,3.43,1.21.26-.55,1.19-.51,1.81-.36a6,6,0,0,1-2-1.62,4,4,0,0,1-1.34-2.42c1.22,1.7,2.24,3.19,4.46,3.94,1.69.56,3.66-.26,5-1.17a5.63,5.63,0,0,0,1.24-1.53,13,13,0,0,0,2-7.84,8.8,8.8,0,0,0-.45-3.14c-.41-.82-1.8-1.56-2.62-.81-.15-.81.68-1.3,1.65-1A9,9,0,0,0,74.28,61Zm3.2,26.49c1.35-.66,3.85-1.79,4.7,0A15.15,15.15,0,0,1,83,89.92c.23,1-.26,3-1.24,3.32a5.85,5.85,0,0,1-3,.06,1.36,1.36,0,0,1-.36-.47,4.08,4.08,0,0,0-2.06.35c.06.56-.32.65-.67.76-.26,1,.52,2.4.34,3.35-.14.67-1,.78-1.58.9a5.28,5.28,0,0,0,.07,1,1.53,1.53,0,0,1-1.36.88,17.11,17.11,0,0,1-6.8-.34c-.52-1.28-.93-2.84-1.37-4.31-1.83.19-3.31-.79-4.71-1.44-.48-.22-1.16-.35-1.33-.73a7.09,7.09,0,0,1-.15-1.76,27.89,27.89,0,0,0-.64-5.15c-.21-.79-.56-1.49-.81-2.25a16.93,16.93,0,0,1-.74-2.29c-.15-1,.83-1.1,1.46-1.56,1-.69,1.73-1.08,2.79-1.71a6.15,6.15,0,0,0,1.36-.88c.21-.44-.37-1-.52-1.39a4.11,4.11,0,0,1-.41-1.52,2.92,2.92,0,0,1-1.95-1.25,4.83,4.83,0,0,1-.56-4.18,4.18,4.18,0,0,0,.31-.49A6.35,6.35,0,0,0,59,67.71c-.06-1.79.31-3.34,1.51-3.88.49-1.94,2.25-2.6,3.9-3.58a12.51,12.51,0,0,1,2-.85c2.52-.93,6.4-.75,8.49.83a11.36,11.36,0,0,1,2.82,3.12C79.06,66.06,79,70.6,78,73.9a10.58,10.58,0,0,1-.57,1.62c-.18.37-.73,1.11-.66,1.44s1.26,1.25,1.52,1.5c.46.44,1.33,1,1.4,1.59a5.6,5.6,0,0,1-.43,2L77.5,87.45" fill="#231f20" fill-rule="evenodd"/><path d="M68.53,74.15c.07-.1.47-.24,1,0,0,0-.66.11-.61,1.21l-.27,0s-.29-1-.15-1.19" fill="#f7e4cd" fill-rule="evenodd"/><path d="M73.38,83.67a.31.31,0,0,1-.61,0,.31.31,0,1,1,.61,0m.3,1.42a.3.3,0,0,1-.3.31.31.31,0,0,1-.31-.31.3.3,0,0,1,.31-.3.29.29,0,0,1,.3.3" fill="#1d1919" fill-rule="evenodd"/><rect x="67.91" y="126.99" width="1.15" height="21.29" fill="#05acff"/><rect x="27.91" y="147.84" width="40.53" height="1.15" fill="#05acff"/><path d="M14.93,246.78h-.82L12.67,242c-.07-.21-.15-.48-.23-.8a3.58,3.58,0,0,1-.13-.58A12,12,0,0,1,12,242l-1.39,4.75H9.75l-1.9-7.14h.88l1.12,4.41c.16.62.27,1.18.35,1.68a10.31,10.31,0,0,1,.39-1.75l1.28-4.34h.87L14.09,244a12.82,12.82,0,0,1,.39,1.71,14.66,14.66,0,0,1,.35-1.69l1.13-4.4h.88Z" fill="#fff"/><path d="M22.45,244.1a2.94,2.94,0,0,1-.66,2,2.32,2.32,0,0,1-1.82.74,2.43,2.43,0,0,1-1.27-.34,2.26,2.26,0,0,1-.86-1,3.38,3.38,0,0,1-.31-1.47,2.94,2.94,0,0,1,.66-2,2.31,2.31,0,0,1,1.82-.73,2.26,2.26,0,0,1,1.78.75A2.93,2.93,0,0,1,22.45,244.1Zm-4.08,0a2.57,2.57,0,0,0,.41,1.56,1.63,1.63,0,0,0,2.42,0,2.55,2.55,0,0,0,.41-1.56,2.51,2.51,0,0,0-.41-1.55A1.44,1.44,0,0,0,20,242a1.42,1.42,0,0,0-1.2.52A2.53,2.53,0,0,0,18.37,244.1Z" fill="#fff"/><path d="M26.31,241.33a3,3,0,0,1,.64.06l-.11.75a2.67,2.67,0,0,0-.58-.07,1.43,1.43,0,0,0-1.12.52,2,2,0,0,0-.46,1.32v2.87h-.81v-5.35h.67l.09,1h0a2.38,2.38,0,0,1,.72-.81A1.61,1.61,0,0,1,26.31,241.33Z" fill="#fff"/><path d="M28.76,244a8.36,8.36,0,0,1,.64-.78l1.72-1.83h1l-2.17,2.28,2.32,3.07h-1l-1.89-2.53-.61.53v2H28v-7.6h.81v4c0,.18,0,.45,0,.83Z" fill="#fff"/><path d="M35.46,246.88a2.47,2.47,0,0,1-1.87-.73,2.77,2.77,0,0,1-.68-2,3.13,3.13,0,0,1,.63-2.06,2.12,2.12,0,0,1,1.71-.76,2,2,0,0,1,1.6.66,2.53,2.53,0,0,1,.58,1.75v.51H33.75a2.1,2.1,0,0,0,.47,1.43,1.67,1.67,0,0,0,1.27.49,4.3,4.3,0,0,0,1.71-.36v.72a4.81,4.81,0,0,1-.81.27A4.88,4.88,0,0,1,35.46,246.88ZM35.24,242a1.31,1.31,0,0,0-1,.42,1.86,1.86,0,0,0-.45,1.16h2.79a1.8,1.8,0,0,0-.34-1.18A1.2,1.2,0,0,0,35.24,242Z" fill="#fff"/><path d="M41.26,241.33a3.16,3.16,0,0,1,.64.06l-.12.75a2.6,2.6,0,0,0-.58-.07,1.4,1.4,0,0,0-1.11.52,1.94,1.94,0,0,0-.47,1.32v2.87h-.81v-5.35h.67l.1,1h0a2.38,2.38,0,0,1,.72-.81A1.62,1.62,0,0,1,41.26,241.33Z" fill="#fff"/><path d="M48.13,246.78h-.8v-5.09c0-.42,0-.82,0-1.2a1.6,1.6,0,0,1-.23.21c-.08.08-.47.4-1.16,1l-.43-.56,1.89-1.46h.69Z" fill="#fff"/><rect x="0.58" y="178.56" width="54.67" height="54.67" rx="3" fill="#fff"/><path d="M52.24,233.81H3.58A3.59,3.59,0,0,1,0,230.23V181.57A3.58,3.58,0,0,1,3.58,178H52.24a3.58,3.58,0,0,1,3.58,3.58v48.66A3.59,3.59,0,0,1,52.24,233.81ZM3.58,179.14a2.43,2.43,0,0,0-2.43,2.43v48.66a2.43,2.43,0,0,0,2.43,2.43H52.24a2.43,2.43,0,0,0,2.43-2.43V181.57a2.43,2.43,0,0,0-2.43-2.43Z" fill="#91a3c1"/><path d="M133.42,233.77H130v-1.15h3.42Zm-6.32,0h-3.42v-1.15h3.42Zm-6.27,0H117.4v-1.15h3.43Zm-6.28,0h-3.43v-1.15h3.43Zm-6.28,0h-3.43v-1.15h3.43Zm-6.28,0H98.56v-1.15H102Zm-6.28,0H92.28v-1.15h3.43Zm-6.28,0H86v-1.15h3.42Zm-6.5-.48a3.61,3.61,0,0,1-1.79-3.1v-.28h1.15v.28a2.44,2.44,0,0,0,1.22,2.1Zm53.39-1-.95-.66a2.39,2.39,0,0,0,.44-1.39v-1.6H137v1.6A3.58,3.58,0,0,1,136.32,232.24Zm-54-5.18H81.14v-3.42h1.15ZM137,225.74h-1.15v-3.42H137Zm-54.67-5H81.14v-3.42h1.15ZM137,219.46h-1.15V216H137Zm-54.67-5H81.14v-3.42h1.15ZM137,213.18h-1.15v-3.42H137Zm-54.67-5H81.14V204.8h1.15ZM137,206.9h-1.15v-3.42H137Zm-54.67-5H81.14v-3.43h1.15ZM137,200.62h-1.15V197.2H137Zm-54.67-5H81.14v-3.43h1.15ZM137,194.35h-1.15v-3.43H137Zm-54.67-5H81.14V186h1.15ZM137,188.07h-1.15v-3.43H137Zm-54.67-5H81.14v-1.58a3.53,3.53,0,0,1,.66-2.06l.94.66a2.43,2.43,0,0,0-.45,1.4ZM137,181.79h-1.15v-.26a2.43,2.43,0,0,0-1.23-2.11l.57-1a3.59,3.59,0,0,1,1.81,3.11Zm-4.88-2.69h-3.42V178h3.42Zm-6.28,0h-3.42V178h3.42Zm-6.28,0H116.1V178h3.42Zm-6.28,0h-3.42V178h3.42Zm-6.28,0h-3.42V178H107Zm-6.27,0H97.26V178h3.43Zm-6.28,0H91V178h3.43Zm-6.28,0H84.72l0-1.15h3.43Z" fill="#91a3c1"/><rect x="27.8" y="148.99" width="1.15" height="21.29" fill="#05acff"/><polygon points="28.38 173.93 25.79 168.55 30.96 168.55 28.38 173.93" fill="#05acff"/><polygon points="109.86 173.93 107.27 168.55 112.45 168.55 109.86 173.93" fill="#05acff"/><rect x="109" y="165.68" width="1.15" height="1.73" fill="#05acff"/><path d="M110.15,156.47H109V153h1.15Zm0,6.33H109v-3.45h1.15Z" fill="#05acff"/><polygon points="110.15 147.84 107.85 147.84 107.85 148.99 109 148.99 109 150.14 110.15 150.14 110.15 147.84" fill="#05acff"/><rect x="101.26" y="147.84" width="3.59" height="1.15" fill="#05acff"/><rect x="94.68" y="147.84" width="3.59" height="1.15" fill="#05acff"/><rect x="88.1" y="147.84" width="3.59" height="1.15" fill="#05acff"/><rect x="81.52" y="147.84" width="3.59" height="1.15" fill="#05acff"/><rect x="74.94" y="147.84" width="3.59" height="1.15" fill="#05acff"/><rect x="68.36" y="147.84" width="3.59" height="1.15" fill="#05acff"/><rect x="30.73" y="147.84" width="1.73" height="1.15" fill="#05acff"/><circle cx="72.74" cy="205.9" r="1.44" fill="#5e6981"/><circle cx="68.14" cy="205.9" r="1.44" fill="#5e6981"/><circle cx="63.53" cy="205.9" r="1.44" fill="#5e6981"/><path d="M94.61,246.78h-.82L92.35,242c-.07-.21-.15-.48-.23-.8a3.58,3.58,0,0,1-.13-.58,10.32,10.32,0,0,1-.35,1.41l-1.39,4.75h-.82l-1.9-7.14h.88l1.13,4.41c.15.62.27,1.18.34,1.68a10.31,10.31,0,0,1,.39-1.75l1.28-4.34h.88L93.77,244a12.82,12.82,0,0,1,.39,1.71,15,15,0,0,1,.36-1.69l1.12-4.4h.88Z" fill="#fff"/><path d="M102.13,244.1a2.94,2.94,0,0,1-.66,2,2.32,2.32,0,0,1-1.82.74,2.43,2.43,0,0,1-1.27-.34,2.26,2.26,0,0,1-.86-1,3.38,3.38,0,0,1-.3-1.47,2.94,2.94,0,0,1,.65-2,2.31,2.31,0,0,1,1.82-.73,2.25,2.25,0,0,1,1.78.75A2.93,2.93,0,0,1,102.13,244.1Zm-4.07,0a2.5,2.5,0,0,0,.41,1.56,1.41,1.41,0,0,0,1.2.54,1.42,1.42,0,0,0,1.21-.54,2.48,2.48,0,0,0,.41-1.56,2.45,2.45,0,0,0-.41-1.55,1.66,1.66,0,0,0-2.42,0A2.53,2.53,0,0,0,98.06,244.1Z" fill="#fff"/><path d="M106,241.33a3,3,0,0,1,.63.06l-.11.75a2.6,2.6,0,0,0-.58-.07,1.4,1.4,0,0,0-1.11.52,1.94,1.94,0,0,0-.47,1.32v2.87h-.81v-5.35h.67l.1,1h0a2.38,2.38,0,0,1,.72-.81A1.62,1.62,0,0,1,106,241.33Z" fill="#fff"/><path d="M108.44,244a8.36,8.36,0,0,1,.64-.78l1.72-1.83h1l-2.17,2.28,2.32,3.07h-1l-1.89-2.53-.61.53v2h-.8v-7.6h.8v4c0,.18,0,.45,0,.83Z" fill="#fff"/><path d="M115.15,246.88a2.48,2.48,0,0,1-1.88-.73,2.82,2.82,0,0,1-.68-2,3.13,3.13,0,0,1,.63-2.06,2.13,2.13,0,0,1,1.72-.76,2,2,0,0,1,1.59.66,2.53,2.53,0,0,1,.58,1.75v.51h-3.68a2.1,2.1,0,0,0,.47,1.43,1.67,1.67,0,0,0,1.27.49,4.3,4.3,0,0,0,1.71-.36v.72a3.79,3.79,0,0,1-1.73.35Zm-.22-4.87a1.32,1.32,0,0,0-1,.42,1.86,1.86,0,0,0-.45,1.16h2.79a1.8,1.8,0,0,0-.34-1.18A1.2,1.2,0,0,0,114.93,242Z" fill="#fff"/><path d="M120.94,241.33a3.16,3.16,0,0,1,.64.06l-.12.75a2.6,2.6,0,0,0-.58-.07,1.43,1.43,0,0,0-1.11.52,1.93,1.93,0,0,0-.46,1.32v2.87h-.81v-5.35h.66l.1,1h0a2.26,2.26,0,0,1,.71-.81A1.62,1.62,0,0,1,120.94,241.33Z" fill="#fff"/><path d="M130.87,246.78h-.94l-3.91-6h0c.05.7.07,1.34.07,1.93v4.06h-.76v-7.14h.93l3.9,6h0c0-.09,0-.37,0-.85s0-.82,0-1v-4.1h.77Z" fill="#fff"/><path d="M48.92,4.17v3h-.83V0h2A3.11,3.11,0,0,1,52,.5,1.83,1.83,0,0,1,52.62,2a1.89,1.89,0,0,1-1.44,1.91l1.94,3.21h-1l-1.73-3Zm0-.71h1.14a2,2,0,0,0,1.29-.35,1.31,1.31,0,0,0,.41-1,1.19,1.19,0,0,0-.42-1A2.24,2.24,0,0,0,50,.73H48.92Z" fill="#71b429"/><path d="M56.41,7.24a2.43,2.43,0,0,1-1.87-.73,2.78,2.78,0,0,1-.69-2,3.13,3.13,0,0,1,.64-2.06,2.12,2.12,0,0,1,1.71-.76,2,2,0,0,1,1.59.66,2.49,2.49,0,0,1,.59,1.75v.51H54.69A2.15,2.15,0,0,0,55.17,6a1.64,1.64,0,0,0,1.27.49,4.3,4.3,0,0,0,1.71-.36v.72a5.48,5.48,0,0,1-.81.27A5,5,0,0,1,56.41,7.24Zm-.22-4.87a1.3,1.3,0,0,0-1,.42A2,2,0,0,0,54.71,4h2.8a1.76,1.76,0,0,0-.34-1.17A1.18,1.18,0,0,0,56.19,2.37Z" fill="#71b429"/><path d="M61.66,7.24a2,2,0,0,1-1.61-.73,3.17,3.17,0,0,1-.59-2,3.21,3.21,0,0,1,.59-2.05,2.15,2.15,0,0,1,3.32.09h0l.12-.73h.64V9.54h-.81V7.25a6.48,6.48,0,0,1,0-.83h-.06A1.92,1.92,0,0,1,61.66,7.24Zm.12-.68A1.5,1.5,0,0,0,63,6.12a2.43,2.43,0,0,0,.39-1.46V4.48A2.72,2.72,0,0,0,63,2.86a1.43,1.43,0,0,0-1.21-.49,1.25,1.25,0,0,0-1.09.55,2.78,2.78,0,0,0-.38,1.57A2.67,2.67,0,0,0,60.68,6,1.27,1.27,0,0,0,61.78,6.56Z" fill="#71b429"/><path d="M66.65,1.79V5.26a1.4,1.4,0,0,0,.3,1,1.23,1.23,0,0,0,.93.32,1.55,1.55,0,0,0,1.23-.46,2.32,2.32,0,0,0,.39-1.5V1.79h.81V7.14h-.67l-.12-.72h0a1.7,1.7,0,0,1-.69.61,2.34,2.34,0,0,1-1,.21,2,2,0,0,1-1.46-.47,1.94,1.94,0,0,1-.49-1.48V1.79Z" fill="#71b429"/><path d="M74.29,7.24a2.42,2.42,0,0,1-1.87-.73,2.78,2.78,0,0,1-.69-2,3.08,3.08,0,0,1,.64-2.06,2.09,2.09,0,0,1,1.71-.76,2,2,0,0,1,1.59.66,2.54,2.54,0,0,1,.59,1.75v.51H72.57A2.1,2.1,0,0,0,73.05,6a1.62,1.62,0,0,0,1.27.49A4.38,4.38,0,0,0,76,6.17v.72a5.22,5.22,0,0,1-.82.27A4.77,4.77,0,0,1,74.29,7.24Zm-.22-4.87a1.33,1.33,0,0,0-1,.42A2,2,0,0,0,72.59,4h2.8a1.81,1.81,0,0,0-.34-1.17A1.19,1.19,0,0,0,74.07,2.37Z" fill="#71b429"/><path d="M81.09,5.68a1.34,1.34,0,0,1-.56,1.15A2.61,2.61,0,0,1,79,7.24a3.45,3.45,0,0,1-1.66-.34V6.15a4.31,4.31,0,0,0,.83.31,3.67,3.67,0,0,0,.85.11,2,2,0,0,0,1-.2.7.7,0,0,0,.34-.62A.68.68,0,0,0,80,5.21,4.08,4.08,0,0,0,79,4.69a5.77,5.77,0,0,1-1.06-.49,1.4,1.4,0,0,1-.47-.47,1.28,1.28,0,0,1-.15-.63,1.18,1.18,0,0,1,.53-1,2.48,2.48,0,0,1,1.46-.38A4.37,4.37,0,0,1,81,2l-.29.66a3.89,3.89,0,0,0-1.46-.33,1.71,1.71,0,0,0-.87.18.56.56,0,0,0-.29.5.55.55,0,0,0,.11.36,1.06,1.06,0,0,0,.35.29,9.52,9.52,0,0,0,.94.4,3.7,3.7,0,0,1,1.29.69A1.26,1.26,0,0,1,81.09,5.68Z" fill="#71b429"/><path d="M84.14,6.57a2.73,2.73,0,0,0,.41,0l.32-.07v.62a1.72,1.72,0,0,1-.39.11,4.09,4.09,0,0,1-.46,0c-1,0-1.55-.55-1.55-1.64V2.42H81.7V2l.77-.34L82.81.55h.47V1.79h1.55v.63H83.28V5.57a1,1,0,0,0,.23.74A.8.8,0,0,0,84.14,6.57Z" fill="#71b429"/><path d="M89.39,5.68a1.32,1.32,0,0,1-.56,1.15,2.61,2.61,0,0,1-1.56.41,3.45,3.45,0,0,1-1.66-.34V6.15a4.57,4.57,0,0,0,.83.31,3.67,3.67,0,0,0,.85.11,2,2,0,0,0,1-.2.71.71,0,0,0,.07-1.16,4.08,4.08,0,0,0-1.06-.52,5.77,5.77,0,0,1-1.06-.49,1.4,1.4,0,0,1-.47-.47,1.28,1.28,0,0,1-.15-.63,1.18,1.18,0,0,1,.53-1,2.48,2.48,0,0,1,1.46-.38A4.34,4.34,0,0,1,89.28,2L89,2.7a3.89,3.89,0,0,0-1.46-.33,1.71,1.71,0,0,0-.87.18.56.56,0,0,0-.29.5.61.61,0,0,0,.11.36,1.06,1.06,0,0,0,.35.29c.17.09.48.22.94.4a3.7,3.7,0,0,1,1.29.69A1.26,1.26,0,0,1,89.39,5.68Z" fill="#71b429"/><path d="M24.81,210.43c-3.26,0-7.21-.27-7.52-1.57-.11-.5.2-.94.94-1.31a13.19,13.19,0,0,1,5.51-1.34h.31a.59.59,0,1,1,.1,1.17,18,18,0,0,0-2.67.84h.35a23.47,23.47,0,0,0,3,.14c1.55,0,3.41-.07,5.23-.2a51.77,51.77,0,0,0,5.18-.7h.1a.6.6,0,0,1,.7.47.59.59,0,0,1-.46.7,13.24,13.24,0,0,0-1.5.77l-.16.07a38.54,38.54,0,0,1-9.14,1Z" fill="#fff"/><path d="M23.74,206.79H24c-.08,0-6.31,1.52-2.26,2a26.88,26.88,0,0,0,3.11.15c1.6,0,3.5-.07,5.27-.21,2.61-.23,5.23-.7,5.23-.7a13.92,13.92,0,0,0-1.58.82,38.59,38.59,0,0,1-9,.91c-4.68,0-8.49-.7-6.32-1.77a12.57,12.57,0,0,1,5.25-1.28m0-1.17A13.76,13.76,0,0,0,18,207c-1.33.66-1.35,1.51-1.25,2s.47,2,8.08,2a39.72,39.72,0,0,0,9.28-1,1.3,1.3,0,0,0,.32-.14,11.27,11.27,0,0,1,1.42-.74,1.17,1.17,0,0,0-.47-2.24h-.2s-2.6.45-5.14.68c-1.79.13-3.63.2-5.18.2h-.25a1.17,1.17,0,0,0-.51-2.18Z" fill="#fff"/><path d="M27.29,218c-2.87,0-5.95-.71-6.15-2.15-.12-.81.59-1.43,2.09-1.85h.16a.58.58,0,0,1,.59.58.62.62,0,0,1-.14.39,3.31,3.31,0,0,0,.55.08,19.05,19.05,0,0,0,2.83.21,21.25,21.25,0,0,0,4.21-.51h.11a.61.61,0,0,1,.3.08,10.53,10.53,0,0,0,1.81.83.59.59,0,0,1,.33.76.57.57,0,0,1-.33.33A16.5,16.5,0,0,1,27.29,218Z" fill="#fff"/><path d="M23.38,214.54h0m0,0s-1.34.82.94,1.05a21.35,21.35,0,0,0,2.88.22,22.66,22.66,0,0,0,4.34-.51,10.67,10.67,0,0,0,1.92.94,16.21,16.21,0,0,1-6.19,1.17c-4.54,0-7.65-1.84-3.89-2.9h0m0-1.17h0a1,1,0,0,0-.35,0c-2.24.64-2.59,1.71-2.48,2.49.3,2.13,4.36,2.7,6.72,2.7a17.16,17.16,0,0,0,6.64-1.3,1.16,1.16,0,0,0,0-2.17,10.09,10.09,0,0,1-1.72-.83,1.08,1.08,0,0,0-.6-.18h-.23a20.33,20.33,0,0,1-4.11.49,20.29,20.29,0,0,1-2.7-.07,1.17,1.17,0,0,0-1.17-1.06Zm0,2.34Z" fill="#fff"/><path d="M24,207.39a.59.59,0,0,1-.11-1.17H24a.59.59,0,0,1,.59.58.54.54,0,0,1-.1.33.57.57,0,0,1-.49.26Z" fill="#fff"/><path d="M24,206.81h0m0-1.17h-.28a1.17,1.17,0,1,0,1.3,1A1.15,1.15,0,0,0,24,205.64Z" fill="#fff"/><path d="M22.52,211.35a.58.58,0,1,1,.55-.62.67.67,0,0,1,0,.24.56.56,0,0,1-.37.3Z" fill="#fff"/><polyline points="22.52 210.76 22.52 210.77 22.52 210.77 22.52 210.76" fill="#fff"/><path d="M26.5,214.17c-1,0-6.12-.09-6.42-1.95-.2-1.17,1.63-1.81,2.24-2h.19a.58.58,0,0,1,.36,1l-.17.16a2.65,2.65,0,0,0,.68.14c1,.09,2.14.2,3.37.2a28.74,28.74,0,0,0,5.77-.65h.08a.55.55,0,0,1,.42.17,3,3,0,0,0,1.17.73.58.58,0,1,1,0,1.16,27.46,27.46,0,0,1-7.7,1.1Z" fill="#fff"/><path d="M22.51,210.77s-1.43,1.11.81,1.33a34.18,34.18,0,0,0,3.43.2,28.73,28.73,0,0,0,5.84-.67,3.54,3.54,0,0,0,1.4.88,27,27,0,0,1-7.53,1.07c-5,0-8-1.46-4-2.82m0-1.17a1.15,1.15,0,0,0-.37.06c-.73.24-2.91,1-2.63,2.66.35,2.12,4.53,2.44,7,2.44a27.56,27.56,0,0,0,7.86-1.17,1.17,1.17,0,0,0,0-2.23,2.32,2.32,0,0,1-.93-.58,1.18,1.18,0,0,0-.83-.35h-.24a27.49,27.49,0,0,1-5.65.64,30.77,30.77,0,0,1-3.1-.17,1.18,1.18,0,0,0-.95-1.36h-.22Zm0,2.34Z" fill="#fff"/><path d="M26.36,221.38a60,60,0,0,1-9.65-.78c-.57-.1-2.34-.38-2.21-1.55.12-1.53,3.82-2.54,5.29-2.54a2,2,0,0,1,1.17.29.58.58,0,0,1-.34,1.06,5.37,5.37,0,0,0-1,.17,5.49,5.49,0,0,0-1.36.42,31.48,31.48,0,0,0,8.38.83,46.75,46.75,0,0,0,10.68-1c.82-.24.92-.46.93-.46a.57.57,0,0,1-.1-.75.55.55,0,0,1,.46-.26.53.53,0,0,1,.25,0c1,.47,1,1.09,1,1.42-.42,1.92-7.17,3.08-13.44,3.08Z" fill="#fff"/><path d="M19.75,217.1a1.58,1.58,0,0,1,.85.19,6.74,6.74,0,0,0-1.17.17c-.75.12-3.07.88-1.86,1.41,1.64.71,5.24,1,9,1a47.14,47.14,0,0,0,10.86-1c2-.6,1.17-1.35,1.17-1.45,2.66,1.24-3.22,3.39-12.24,3.39A60.05,60.05,0,0,1,16.8,220c-4.37-.7.66-2.92,3-2.92m0-1.17c-1.63,0-5.71,1.08-5.84,3.09-.09,1.17.82,1.86,2.7,2.16a61.17,61.17,0,0,0,9.75.8,45.23,45.23,0,0,0,9.35-.89c3.85-.87,4.51-1.93,4.67-2.66a1.84,1.84,0,0,0-1.29-2.08,1.18,1.18,0,0,0-1.55.58,1.12,1.12,0,0,0-.08.7l-.32.1a46.42,46.42,0,0,1-10.52,1,47.7,47.7,0,0,1-5.73-.28,1.17,1.17,0,0,0,.36-2.08,2.59,2.59,0,0,0-1.53-.4Z" fill="#fff"/><path d="M28.21,223a35.09,35.09,0,0,1-3.59-.12c-4.11-.23-5.13-.93-5.29-1.07a.59.59,0,0,1,0-.83.56.56,0,0,1,.46-.19h0a45.64,45.64,0,0,0,7,.49,49.44,49.44,0,0,0,8.68-.71c4.1-.76,4.77-1.72,4.77-1.73a.53.53,0,0,1,.52-.34h.15a.6.6,0,0,1,.43.64C41.1,222.65,32.08,223,28.21,223Z" fill="#fff"/><path d="M40.78,219.15h0m0,0c-.18,2.45-6.75,3.32-12.57,3.32-1.24,0-2.44,0-3.51-.11h0c-4.13-.23-4.94-.93-4.94-.93a46.94,46.94,0,0,0,7.11.49,49.71,49.71,0,0,0,8.78-.73c4.67-.87,5.13-2,5.13-2m0-1.17h-.17a1.18,1.18,0,0,0-.81.52h0c-.13.12-1,.87-4.39,1.49a48.39,48.39,0,0,1-8.58.71,45.87,45.87,0,0,1-6.93-.38h-.15a1.16,1.16,0,0,0-.76,2.05c.34.29,1.55,1,5.64,1.17,1.17.07,2.34.12,3.61.12,5,0,13.28-.56,13.74-4.28a1.17,1.17,0,0,0-.91-1.38A1,1,0,0,0,40.78,218Zm0,2.34Z" fill="#fff"/><path d="M35.26,213.91a.58.58,0,0,1-.58-.59.59.59,0,0,1,.14-.38.81.81,0,0,1,.28-.3c2.55-1.33,3.9-2.84,3.6-4a1.65,1.65,0,0,0-1.57-1.17h-.26a3.41,3.41,0,0,0-.62.19.53.53,0,0,1-.25,0,.58.58,0,0,1-.58-.59.57.57,0,0,1,.06-.25,1.58,1.58,0,0,1,.94-.76,4.34,4.34,0,0,1,1.47-.26,3.28,3.28,0,0,1,3.44,2.84c.11.85,0,3.75-5.93,5.29Z" fill="#fff"/><path d="M37.9,206.46c3.4,0,5.14,4.83-2.64,6.86a1.74,1.74,0,0,0,.11-.18h0c6.15-3.19,3.81-6.26,1.77-6.26h-.36a3.73,3.73,0,0,0-.76.23,1,1,0,0,1,.58-.47,3.88,3.88,0,0,1,1.31-.23m0-1.17h0a5.17,5.17,0,0,0-1.66.29A2.15,2.15,0,0,0,35,206.58a1.17,1.17,0,0,0,1.56,1.57h0A4.5,4.5,0,0,1,37,208h.12a1.09,1.09,0,0,1,1,.71c.16.67-.6,1.94-3.29,3.33a1.23,1.23,0,0,0-.64,1.62,1.21,1.21,0,0,0,1.33.72c6.38-1.6,6.46-4.9,6.38-5.88a3.85,3.85,0,0,0-4-3.22Z" fill="#fff"/><path d="M38.59,218a.89.89,0,0,1-.23,0h-.07a.6.6,0,0,1-.28-.66.59.59,0,0,1,.56-.43A.65.65,0,0,1,39,217a.52.52,0,0,1-.36,1Z" fill="#fff"/><path d="M38.59,217.39h0m0-1.16h0a1.16,1.16,0,0,0-.54,2.2h.07a1.16,1.16,0,0,0,1.28-1.91,1.13,1.13,0,0,0-.8-.32Z" fill="#fff"/><path d="M27.93,207.33a.58.58,0,0,1-.39-.15c-3.18-2.84-6.12-5.84-4.17-8.79a15.68,15.68,0,0,1,3.51-3.34c2.5-2,4.85-3.83,4-7.32a.58.58,0,0,1,.43-.7.56.56,0,0,1,.55.16,4.46,4.46,0,0,1,1.09,3.31c-.14,2.21-1.68,4.48-4.57,6.76-3.94,3.12-2.61,5-1.08,7.21a11.66,11.66,0,0,1,1.25,2.06.57.57,0,0,1-.53.81Z" fill="#fff"/><path d="M31.43,187.59s3.6,3.67-3.5,9.2c-5.65,4.49-1.29,7,0,10-3.32-3-5.7-5.59-4.08-8,2.44-3.62,9-5.35,7.58-11.13m0-1.16a1.16,1.16,0,0,0-1.2,1.13,1.06,1.06,0,0,0,0,.31c.73,2.91-.94,4.48-3.78,6.71a16.07,16.07,0,0,0-3.57,3.51c-2.34,3.59,1.61,7.17,4.26,9.55a1.17,1.17,0,0,0,1.92-1.35h0a13.42,13.42,0,0,0-1.31-2.15c-1.53-2.18-2.55-3.63,1-6.41,3-2.34,4.67-4.79,4.79-7.17a5,5,0,0,0-1.29-3.78A1.14,1.14,0,0,0,31.43,186.43Z" fill="#fff"/><path d="M29.1,208.55a.6.6,0,0,1-.6-.58.58.58,0,0,1,.22-.46h0a2.61,2.61,0,0,0,.89-1.56,1.7,1.7,0,0,0-.51-1.26c-1.5-1.73-2-3.41-1.51-5,1.17-3.76,7.75-5.43,8-5.5h.14a.58.58,0,0,1,.29,1.08c-3.51,2-5.21,3.51-5.47,4.59-.16.72.27,1.39,1,2.5l.25.35a2.94,2.94,0,0,1,.55,2.45c-.48,2-3,3.28-3.09,3.34A.59.59,0,0,1,29.1,208.55Z" fill="#fff"/><path d="M35.79,194.76h0m0,0c-7.56,4.36-6.17,5.69-4.36,8.26,2,2.73-2.33,4.94-2.33,4.94s2.15-1.74.46-3.67c-5.7-6.58,6.23-9.54,6.23-9.54m0-1.17h-.31c-.86.21-7.17,1.93-8.42,5.84-.56,1.79,0,3.66,1.62,5.55a1.12,1.12,0,0,1,.36.84,2,2,0,0,1-.69,1.17,1.17,1.17,0,0,0,.75,2.15,1.06,1.06,0,0,0,.52-.13c.3-.15,2.87-1.52,3.39-3.72a3.51,3.51,0,0,0-.64-2.95l-.23-.33c-.68-1-1.07-1.55-1-2,.2-.91,1.94-2.34,5.15-4.18a1.17,1.17,0,0,0-.51-2.2Zm0,2.34Z" fill="#fff"/><path d="M23.38,214.54s-1.34.82.94,1.05a18.88,18.88,0,0,0,7.22-.29,10.67,10.67,0,0,0,1.92.94C26.64,219.15,18,216.06,23.38,214.54Zm-.87-3.78s-1.46,1.11.81,1.34a27.46,27.46,0,0,0,9.35-.47,3.51,3.51,0,0,0,1.41.88c-8.18,2.44-17.42.23-11.53-1.74Zm16.08,6.63s1,.82-1.11,1.47c-3.91,1.16-16.36,1.51-19.87,0-1.17-.53,1.11-1.29,1.86-1.41a6.47,6.47,0,0,1,1.17-.17c-1.35-.94-8.91,1.91-3.85,2.73,13.92,2.27,25.38-1,21.77-2.62ZM24,206.81s-6.34,1.52-2.26,2a51,51,0,0,0,8.38,0c2.61-.23,5.23-.7,5.23-.7a13.92,13.92,0,0,0-1.58.82c-6.46,1.68-18.86.93-15.31-.82A12.21,12.21,0,0,1,24,206.85Zm11.36,6.34c6.52-3.38,3.51-6.64,1.41-6.23a3.21,3.21,0,0,0-.76.24.94.94,0,0,1,.58-.47c4.14-1.46,7.4,4.37-1.34,6.64A.78.78,0,0,0,35.37,213.15Zm-10.71,9.2c6.28.41,15.89-.23,16.12-3.2,0,0-.46,1.17-5.17,2a52.33,52.33,0,0,1-15.9.23S20.53,222.12,24.66,222.35Z" fill="#258ad6"/><path d="M31.43,187.59s3.6,3.67-3.5,9.2c-5.65,4.49-1.29,7,0,10-3.32-3-5.7-5.59-4.08-8C26.29,195.1,32.87,193.37,31.43,187.59Zm-1.87,16.72c1.7,1.91-.46,3.67-.46,3.67s4.31-2.21,2.33-4.95c-1.8-2.62-3.2-3.9,4.38-8.26C35.79,194.76,23.86,197.73,29.56,204.31Z" fill="#ef2529"/><path d="M104.81,210.43c-3.26,0-7.21-.27-7.52-1.57-.11-.5.2-.94.94-1.31a13.19,13.19,0,0,1,5.51-1.34h.31a.59.59,0,1,1,.1,1.17,18,18,0,0,0-2.67.84h.35a23.47,23.47,0,0,0,3,.14c1.55,0,3.41-.07,5.23-.2a51.77,51.77,0,0,0,5.18-.7h.1a.6.6,0,0,1,.7.47.59.59,0,0,1-.46.7,13.24,13.24,0,0,0-1.5.77l-.16.07a38.54,38.54,0,0,1-9.14,1Z" fill="#fff"/><path d="M103.74,206.79H104c-.08,0-6.31,1.52-2.26,2a26.88,26.88,0,0,0,3.11.15c1.6,0,3.5-.07,5.27-.21,2.61-.23,5.23-.7,5.23-.7a13.92,13.92,0,0,0-1.58.82,38.59,38.59,0,0,1-9,.91c-4.68,0-8.49-.7-6.32-1.77a12.57,12.57,0,0,1,5.25-1.28m0-1.17A13.76,13.76,0,0,0,98,207c-1.33.66-1.35,1.51-1.25,2s.47,2,8.08,2a39.72,39.72,0,0,0,9.28-1,1.3,1.3,0,0,0,.32-.14,11.27,11.27,0,0,1,1.42-.74,1.17,1.17,0,0,0-.47-2.24h-.2s-2.6.45-5.14.68c-1.79.13-3.63.2-5.18.2h-.25a1.17,1.17,0,0,0-.51-2.18Z" fill="#fff"/><path d="M107.29,218c-2.87,0-6-.71-6.15-2.15-.12-.81.59-1.43,2.09-1.85h.16a.58.58,0,0,1,.59.58.62.62,0,0,1-.14.39,3.31,3.31,0,0,0,.55.08,19.05,19.05,0,0,0,2.83.21,21.25,21.25,0,0,0,4.21-.51h.11a.61.61,0,0,1,.3.08,10.53,10.53,0,0,0,1.81.83.59.59,0,0,1,.33.76.57.57,0,0,1-.33.33A16.5,16.5,0,0,1,107.29,218Z" fill="#fff"/><path d="M103.38,214.54h0m0,0s-1.34.82.94,1.05a21.35,21.35,0,0,0,2.88.22,22.66,22.66,0,0,0,4.34-.51,10.67,10.67,0,0,0,1.92.94,16.21,16.21,0,0,1-6.19,1.17c-4.54,0-7.65-1.84-3.89-2.9h0m0-1.17h0a1,1,0,0,0-.35,0c-2.24.64-2.59,1.71-2.48,2.49.3,2.13,4.36,2.7,6.72,2.7a17.16,17.16,0,0,0,6.64-1.3,1.16,1.16,0,0,0,0-2.17,10.09,10.09,0,0,1-1.72-.83,1.08,1.08,0,0,0-.6-.18h-.23a23.68,23.68,0,0,1-6.81.42,1.17,1.17,0,0,0-1.17-1.06Zm0,2.34Z" fill="#fff"/><path d="M104,207.39a.59.59,0,1,1-.11-1.17H104a.59.59,0,0,1,.59.58.54.54,0,0,1-.1.33.57.57,0,0,1-.49.26Z" fill="#fff"/><path d="M104,206.81h0m0-1.17h-.28a1.17,1.17,0,1,0,1.3,1A1.15,1.15,0,0,0,104,205.64Z" fill="#fff"/><path d="M102.52,211.35a.58.58,0,1,1,.55-.62.67.67,0,0,1,0,.24.56.56,0,0,1-.37.3Z" fill="#fff"/><polyline points="102.52 210.76 102.52 210.77 102.52 210.77 102.52 210.76" fill="#fff"/><path d="M106.5,214.17c-1,0-6.12-.09-6.42-1.95-.2-1.17,1.63-1.81,2.24-2h.19a.58.58,0,0,1,.36,1l-.17.16a2.65,2.65,0,0,0,.68.14c1,.09,2.14.2,3.37.2a28.74,28.74,0,0,0,5.77-.65h.08a.55.55,0,0,1,.42.17,3,3,0,0,0,1.17.73.58.58,0,1,1,0,1.16,27.46,27.46,0,0,1-7.7,1.1Z" fill="#fff"/><path d="M102.51,210.77s-1.43,1.11.81,1.33a34.18,34.18,0,0,0,3.43.2,28.73,28.73,0,0,0,5.84-.67,3.54,3.54,0,0,0,1.4.88,27,27,0,0,1-7.53,1.07c-5,0-8-1.46-4-2.82m0-1.17a1.15,1.15,0,0,0-.37.06c-.73.24-2.91,1-2.63,2.66.35,2.12,4.53,2.44,7,2.44a27.56,27.56,0,0,0,7.86-1.17,1.17,1.17,0,0,0,0-2.23,2.32,2.32,0,0,1-.93-.58,1.18,1.18,0,0,0-.83-.35h-.24a27.49,27.49,0,0,1-5.65.64,30.77,30.77,0,0,1-3.1-.17,1.18,1.18,0,0,0-1-1.36h-.22Zm0,2.34Z" fill="#fff"/><path d="M106.36,221.38a60,60,0,0,1-9.65-.78c-.57-.1-2.34-.38-2.21-1.55.12-1.53,3.82-2.54,5.29-2.54a2,2,0,0,1,1.17.29.58.58,0,0,1-.34,1.06,5.37,5.37,0,0,0-1,.17,5.49,5.49,0,0,0-1.36.42,31.48,31.48,0,0,0,8.38.83,46.75,46.75,0,0,0,10.68-1c.82-.24.92-.46.93-.46a.57.57,0,0,1-.1-.75.55.55,0,0,1,.46-.26.53.53,0,0,1,.25,0c1,.47,1,1.09,1,1.42-.42,1.92-7.17,3.08-13.44,3.08Z" fill="#fff"/><path d="M99.75,217.1a1.58,1.58,0,0,1,.85.19,6.74,6.74,0,0,0-1.17.17c-.75.12-3.07.88-1.86,1.41,1.64.71,5.24,1,9,1a47.14,47.14,0,0,0,10.86-1c1.95-.6,1.17-1.35,1.17-1.45,2.66,1.24-3.22,3.39-12.24,3.39A60.05,60.05,0,0,1,96.8,220c-4.37-.7.66-2.92,3-2.92m0-1.17c-1.63,0-5.71,1.08-5.84,3.09-.09,1.17.82,1.86,2.7,2.16a61.17,61.17,0,0,0,9.75.8,45.23,45.23,0,0,0,9.35-.89c3.85-.87,4.51-1.93,4.67-2.66a1.84,1.84,0,0,0-1.29-2.08,1.18,1.18,0,0,0-1.55.58,1.12,1.12,0,0,0-.08.7l-.32.1a46.42,46.42,0,0,1-10.52,1,47.7,47.7,0,0,1-5.73-.28,1.17,1.17,0,0,0,.36-2.08,2.59,2.59,0,0,0-1.53-.4Z" fill="#fff"/><path d="M108.21,223a35.09,35.09,0,0,1-3.59-.12c-4.11-.23-5.13-.93-5.29-1.07a.59.59,0,0,1,0-.83.56.56,0,0,1,.46-.19h0a45.64,45.64,0,0,0,7,.49,49.44,49.44,0,0,0,8.68-.71c4.1-.76,4.77-1.72,4.77-1.73a.53.53,0,0,1,.52-.34h.15a.6.6,0,0,1,.43.64C121.1,222.65,112.08,223,108.21,223Z" fill="#fff"/><path d="M120.78,219.15h0m0,0c-.18,2.45-6.75,3.32-12.57,3.32-1.24,0-2.44,0-3.51-.11h0c-4.13-.23-4.94-.93-4.94-.93a46.94,46.94,0,0,0,7.11.49,49.71,49.71,0,0,0,8.78-.73c4.67-.87,5.13-2,5.13-2m0-1.17h-.17a1.18,1.18,0,0,0-.81.52h0c-.13.12-1,.87-4.39,1.49a48.39,48.39,0,0,1-8.58.71,45.87,45.87,0,0,1-6.93-.38h-.15a1.16,1.16,0,0,0-.76,2.05c.34.29,1.55,1,5.64,1.17,1.17.07,2.34.12,3.61.12,5,0,13.28-.56,13.74-4.28a1.17,1.17,0,0,0-.91-1.38A1,1,0,0,0,120.78,218Zm0,2.34Z" fill="#fff"/><path d="M115.26,213.91a.58.58,0,0,1-.58-.59.59.59,0,0,1,.14-.38.81.81,0,0,1,.28-.3c2.55-1.33,3.9-2.84,3.6-4a1.65,1.65,0,0,0-1.57-1.17h-.26a3.41,3.41,0,0,0-.62.19.53.53,0,0,1-.25,0,.58.58,0,0,1-.58-.59.57.57,0,0,1,.06-.25,1.58,1.58,0,0,1,.94-.76,4.34,4.34,0,0,1,1.47-.26,3.28,3.28,0,0,1,3.44,2.84c.11.85,0,3.75-5.93,5.29Z" fill="#fff"/><path d="M117.9,206.46c3.4,0,5.14,4.83-2.64,6.86a1.74,1.74,0,0,0,.11-.18h0c6.15-3.19,3.81-6.26,1.77-6.26h-.36a3.73,3.73,0,0,0-.76.23,1,1,0,0,1,.58-.47,3.88,3.88,0,0,1,1.31-.23m0-1.17h0a5.17,5.17,0,0,0-1.66.29,2.15,2.15,0,0,0-1.26,1.05,1.17,1.17,0,0,0,1.56,1.57h0A4.5,4.5,0,0,1,117,208h.12a1.09,1.09,0,0,1,1,.71c.16.67-.6,1.94-3.29,3.33a1.23,1.23,0,0,0-.64,1.62,1.21,1.21,0,0,0,1.33.72c6.38-1.6,6.46-4.9,6.38-5.88a3.85,3.85,0,0,0-4-3.22Z" fill="#fff"/><path d="M118.59,218a.89.89,0,0,1-.23,0h-.07a.6.6,0,0,1-.28-.66.59.59,0,0,1,.56-.43.65.65,0,0,1,.38.13.52.52,0,0,1-.36,1Z" fill="#fff"/><path d="M118.59,217.39h0m0-1.16h0a1.16,1.16,0,0,0-.54,2.2h.07a1.16,1.16,0,0,0,1.28-1.91,1.13,1.13,0,0,0-.8-.32Z" fill="#fff"/><path d="M107.93,207.33a.58.58,0,0,1-.39-.15c-3.18-2.84-6.12-5.84-4.17-8.79a15.68,15.68,0,0,1,3.51-3.34c2.5-2,4.85-3.83,4-7.32a.58.58,0,0,1,.43-.7.56.56,0,0,1,.55.16,4.46,4.46,0,0,1,1.09,3.31c-.14,2.21-1.68,4.48-4.57,6.76-3.94,3.12-2.61,5-1.08,7.21a11.66,11.66,0,0,1,1.25,2.06.57.57,0,0,1-.53.81Z" fill="#fff"/><path d="M111.43,187.59s3.6,3.67-3.5,9.2c-5.65,4.49-1.29,7,0,10-3.32-3-5.7-5.59-4.08-8,2.44-3.62,9-5.35,7.58-11.13m0-1.16a1.16,1.16,0,0,0-1.2,1.13,1.06,1.06,0,0,0,0,.31c.73,2.91-.94,4.48-3.78,6.71a16.07,16.07,0,0,0-3.57,3.51c-2.34,3.59,1.61,7.17,4.26,9.55a1.17,1.17,0,0,0,1.92-1.35h0a13.42,13.42,0,0,0-1.31-2.15c-1.53-2.18-2.55-3.63,1-6.41,3-2.34,4.67-4.79,4.79-7.17a5,5,0,0,0-1.29-3.78A1.14,1.14,0,0,0,111.43,186.43Z" fill="#fff"/><path d="M109.1,208.55a.6.6,0,0,1-.6-.58.58.58,0,0,1,.22-.46h0a2.61,2.61,0,0,0,.89-1.56,1.7,1.7,0,0,0-.51-1.26c-1.5-1.73-2-3.41-1.51-5,1.17-3.76,7.75-5.43,8-5.5h.14a.58.58,0,0,1,.29,1.08c-3.51,2-5.21,3.51-5.47,4.59-.16.72.27,1.39,1,2.5l.25.35a2.94,2.94,0,0,1,.55,2.45c-.48,2-3,3.28-3.09,3.34A.59.59,0,0,1,109.1,208.55Z" fill="#fff"/><path d="M115.79,194.76h0m0,0c-7.56,4.36-6.17,5.69-4.36,8.26,2,2.73-2.33,4.94-2.33,4.94s2.15-1.74.46-3.67c-5.7-6.58,6.23-9.54,6.23-9.54m0-1.17h-.31c-.86.21-7.17,1.93-8.42,5.84-.56,1.79,0,3.66,1.62,5.55a1.12,1.12,0,0,1,.36.84,2,2,0,0,1-.69,1.17,1.17,1.17,0,0,0,.75,2.15,1.06,1.06,0,0,0,.52-.13c.3-.15,2.87-1.52,3.39-3.72a3.51,3.51,0,0,0-.64-2.95l-.23-.33c-.68-1-1.07-1.55-1-2,.2-.91,1.94-2.34,5.15-4.18a1.17,1.17,0,0,0-.51-2.2Zm0,2.34Z" fill="#fff"/><path d="M103.38,214.54s-1.34.82.94,1.05a18.88,18.88,0,0,0,7.22-.29,10.67,10.67,0,0,0,1.92.94C106.64,219.15,98,216.06,103.38,214.54Zm-.87-3.78s-1.46,1.11.81,1.34a27.46,27.46,0,0,0,9.35-.47,3.51,3.51,0,0,0,1.41.88c-8.18,2.44-17.42.23-11.53-1.74Zm16.08,6.63s1,.82-1.11,1.47c-3.91,1.16-16.36,1.51-19.87,0-1.17-.53,1.11-1.29,1.86-1.41a6.47,6.47,0,0,1,1.17-.17c-1.35-.94-8.91,1.91-3.85,2.73,13.92,2.27,25.38-1,21.77-2.62ZM104,206.81s-6.34,1.52-2.26,2a51,51,0,0,0,8.38,0c2.61-.23,5.23-.7,5.23-.7a13.92,13.92,0,0,0-1.58.82c-6.46,1.68-18.86.93-15.31-.82a12.21,12.21,0,0,1,5.53-1.29Zm11.36,6.34c6.52-3.38,3.51-6.64,1.41-6.23a3.21,3.21,0,0,0-.76.24.94.94,0,0,1,.58-.47c4.14-1.46,7.4,4.37-1.34,6.64A.78.78,0,0,0,115.37,213.15Zm-10.71,9.2c6.28.41,15.89-.23,16.12-3.2,0,0-.46,1.17-5.17,2a52.33,52.33,0,0,1-15.9.23S100.53,222.12,104.66,222.35Z" fill="#258ad6"/><path d="M111.43,187.59s3.6,3.67-3.5,9.2c-5.65,4.49-1.29,7,0,10-3.32-3-5.7-5.59-4.08-8C106.29,195.1,112.87,193.37,111.43,187.59Zm-1.87,16.72c1.7,1.91-.46,3.67-.46,3.67s4.31-2.21,2.33-4.95c-1.8-2.62-3.2-3.9,4.38-8.26C115.79,194.76,103.86,197.73,109.56,204.31Z" fill="#ef2529"/></svg>